<?xml version="1.0" standalone="no"?>
<!DOCTYPE svg PUBLIC "-//W3C//DTD SVG 20010904//EN"
 "http://www.w3.org/TR/2001/REC-SVG-20010904/DTD/svg10.dtd">
<svg version="1.0" xmlns="http://www.w3.org/2000/svg"
 width="700.000000pt" height="700.000000pt" viewBox="0 0 700.000000 700.000000"
 preserveAspectRatio="xMidYMid meet">
<metadata>
Created by potrace 1.11, written by Peter Selinger 2001-2013
</metadata>
<g transform="translate(0.000000,700.000000) scale(0.100000,-0.100000)"
fill="#000000" stroke="none">
<path d="M2382 6939 c-87 -25 -107 -35 -153 -76 -41 -37 -87 -120 -107 -194
-18 -68 21 -114 116 -134 18 -4 35 -12 38 -18 3 -8 35 -13 84 -15 65 -2 78 0
74 12 -3 8 0 17 6 21 7 4 14 -2 17 -14 4 -17 13 -21 44 -21 28 0 39 4 39 15 0
19 24 19 40 0 12 -15 82 -15 232 0 59 6 70 8 157 26 193 40 246 139 126 235
-164 131 -531 215 -713 163z m68 -80 c0 -5 -14 -9 -31 -9 -26 0 -29 3 -20 14
12 14 51 10 51 -5z m536 -38 c-7 -10 -66 -20 -66 -11 0 13 14 20 42 20 16 0
27 -4 24 -9z m-726 -156 c0 -8 -9 -15 -20 -15 -20 0 -26 11 -13 23 12 13 33 7
33 -8z"/>
<path d="M4920 6936 c-30 -7 -71 -20 -91 -29 -102 -50 -201 -230 -169 -307 12
-29 54 -60 81 -60 7 0 31 -9 53 -19 53 -25 177 -33 173 -11 -1 8 6 16 16 18
10 2 17 0 16 -5 -4 -24 4 -30 37 -28 19 2 41 10 48 20 12 16 13 16 29 0 15
-15 32 -16 135 -10 64 3 124 8 132 10 8 2 31 6 50 9 77 12 97 17 150 37 177
65 150 180 -65 284 -186 90 -431 127 -595 91z m60 -71 c11 -13 8 -15 -20 -15
-28 0 -31 2 -20 15 7 8 16 15 20 15 4 0 13 -7 20 -15z m540 -45 c-8 -5 -28
-10 -45 -10 -23 0 -27 3 -15 10 8 5 29 10 45 10 23 0 27 -3 15 -10z m-720
-155 c0 -8 -9 -15 -20 -15 -20 0 -26 11 -13 23 12 13 33 7 33 -8z m220 5 c0
-5 -2 -10 -4 -10 -3 0 -8 5 -11 10 -3 6 -1 10 4 10 6 0 11 -4 11 -10z"/>
<path d="M2110 6193 c-184 -19 -310 -54 -436 -122 -105 -57 -176 -112 -279
-215 -191 -191 -331 -434 -439 -759 -40 -119 -94 -324 -110 -417 -3 -19 -8
-46 -11 -60 -11 -55 -24 -138 -30 -185 -3 -27 -8 -63 -11 -80 -22 -129 -37
-593 -23 -710 14 -110 20 -145 29 -170 5 -13 8 -36 8 -52 -1 -16 16 -83 36
-149 150 -475 456 -783 853 -858 127 -24 320 -25 453 -2 242 42 443 147 615
320 92 92 215 250 215 276 0 10 6 20 14 23 15 6 109 188 151 292 15 39 32 79
37 91 5 11 8 24 7 30 -1 5 3 20 9 34 19 41 63 222 58 236 -3 7 -19 17 -36 21
-35 9 -44 25 -17 29 10 1 26 -7 36 -18 23 -23 26 -18 35 47 4 28 12 79 18 114
l10 63 137 -7 c181 -9 189 -10 197 -18 4 -4 9 -37 10 -75 3 -82 14 -244 18
-269 2 -10 7 -44 10 -75 4 -32 12 -58 18 -58 6 0 8 -10 4 -23 -7 -29 32 -177
78 -294 92 -234 230 -426 399 -555 184 -138 416 -209 666 -203 135 4 180 10
296 38 188 47 366 149 513 296 83 82 217 249 217 270 0 6 8 19 17 30 44 51
182 343 191 404 1 12 8 31 14 42 11 20 49 170 58 230 2 17 9 53 15 80 6 28 13
68 16 90 3 22 9 57 14 78 7 34 6 37 -14 37 -11 0 -28 5 -36 11 -11 8 -7 9 17
5 18 -3 34 -2 37 2 2 4 7 32 11 62 3 30 8 71 11 90 17 144 24 551 11 705 -24
296 -113 618 -222 805 -145 249 -382 425 -665 493 -254 62 -565 26 -779 -89
-154 -83 -308 -220 -422 -377 -32 -45 -63 -87 -67 -92 -42 -58 -154 -291 -202
-421 -42 -113 -90 -278 -115 -394 -26 -123 -31 -130 -79 -131 -22 0 -50 -2
-61 -4 -20 -4 -160 -15 -225 -18 -34 -2 -35 -1 -36 38 -3 91 -14 257 -18 263
-2 4 -7 36 -10 72 -15 152 -92 428 -161 577 -152 330 -488 566 -851 598 -86 8
-171 11 -204 8z m354 -199 c48 -4 51 -20 7 -31 -30 -8 -45 -8 -57 2 -20 14
-12 51 8 39 7 -5 26 -9 42 -10z m2919 -11 c15 -9 -14 -23 -49 -23 -31 0 -60
21 -48 33 8 7 81 0 97 -10z m-2813 -31 c-19 -7 -39 -20 -43 -28 -4 -8 -18 -14
-30 -14 -21 0 -21 1 3 13 14 7 29 22 34 33 7 16 16 19 40 15 l31 -4 -35 -15z
m2895 18 c18 -7 17 -9 -12 -20 -17 -6 -34 -18 -37 -26 -3 -8 -13 -14 -22 -14
-13 0 -11 5 10 25 14 13 26 29 26 35 0 12 7 12 35 0z m-748 -46 c-3 -4 -14 -3
-24 0 -15 6 -15 8 -3 16 16 10 39 -4 27 -16z m593 0 c0 -8 10 -14 23 -15 12 0
16 -3 10 -6 -7 -2 -13 -11 -13 -18 0 -27 -20 -25 -50 4 l-31 29 22 16 c24 17
39 13 39 -10z m-3475 6 c3 -5 -3 -10 -14 -10 -11 0 -23 5 -26 10 -3 6 3 10 14
10 11 0 23 -4 26 -10z m135 0 c-20 -13 -43 -13 -35 0 3 6 16 10 28 10 18 0 19
-2 7 -10z m450 -5 c0 -10 10 -15 28 -15 23 -1 25 -2 9 -11 -9 -6 -15 -14 -12
-20 4 -5 -5 -9 -18 -9 -31 0 -67 48 -46 61 21 13 39 11 39 -6z m2435 5 c-3 -5
-13 -10 -21 -10 -8 0 -14 5 -14 10 0 6 9 10 21 10 11 0 17 -4 14 -10z m352 -6
c-3 -3 -12 -4 -19 -1 -8 3 -5 6 6 6 11 1 17 -2 13 -5z m-301 -45 c4 -7 -2 -9
-17 -7 -13 2 -25 11 -27 21 -3 16 -1 17 17 8 11 -6 23 -16 27 -22z m-2895 5
c11 -14 10 -15 -11 -12 -13 1 -25 9 -28 16 -5 17 23 15 39 -4z m287 -457 c52
-35 107 -162 126 -292 5 -33 15 -103 21 -150 5 -36 5 -444 0 -530 -2 -33 -7
-96 -11 -140 -10 -108 -8 -149 5 -153 18 -6 12 -29 -9 -35 -12 -3 -20 -14 -21
-29 0 -12 -2 -32 -4 -43 -2 -11 -7 -42 -10 -70 -4 -27 -13 -81 -22 -120 -8
-38 -17 -81 -19 -95 -3 -14 -9 -38 -14 -55 -5 -16 -23 -75 -40 -130 -73 -238
-163 -335 -306 -335 -144 1 -225 100 -258 315 -13 84 -14 542 -2 645 2 19 7
71 10 115 32 417 146 845 271 1015 78 107 198 144 283 87z m2866 13 c65 -31
128 -152 142 -275 4 -27 8 -53 10 -57 25 -42 24 -695 -2 -895 -3 -26 0 -39 12
-48 18 -13 11 -35 -11 -35 -14 0 -20 -21 -30 -105 -23 -199 -100 -477 -170
-615 -27 -53 -84 -114 -129 -137 -40 -21 -123 -27 -174 -14 -86 24 -137 94
-178 246 -16 61 -19 107 -19 355 1 320 6 422 36 645 6 44 13 98 16 120 4 34
35 195 47 245 55 225 131 408 207 494 79 90 162 116 243 76z m-3299 -230 c3
-5 -3 -10 -14 -10 -12 0 -21 5 -21 10 0 6 6 10 14 10 8 0 18 -4 21 -10z m588
-4 c4 -9 0 -13 -11 -11 -9 2 -19 4 -22 4 -4 1 21 20 26 21 1 0 4 -6 7 -14z
m2297 4 c0 -5 -6 -10 -14 -10 -8 0 -18 5 -21 10 -3 6 3 10 14 10 12 0 21 -4
21 -10z m584 -11 c-3 -5 -10 -7 -15 -3 -5 3 -7 10 -3 15 3 5 10 7 15 3 5 -3 7
-10 3 -15z m-2746 -251 c30 -30 9 -59 -47 -63 -44 -3 -52 12 -22 44 29 31 51
37 69 19z m2887 2 c12 -20 14 -50 3 -56 -17 -11 -88 -12 -94 -2 -7 12 48 67
68 68 9 0 20 -4 23 -10z m-2810 -100 c3 -5 1 -10 -4 -10 -6 0 -11 5 -11 10 0
6 2 10 4 10 3 0 8 -4 11 -10z m2885 0 c0 -5 -2 -10 -4 -10 -3 0 -8 5 -11 10
-3 6 -1 10 4 10 6 0 11 -4 11 -10z m-3025 -280 c31 -12 25 -30 -8 -23 -49 11
-53 13 -37 23 18 12 14 12 45 0z m2891 0 c17 0 19 -16 2 -23 -19 -7 -60 11
-53 24 4 6 14 8 22 5 8 -3 21 -6 29 -6z m-2786 -14 c0 -3 -4 -8 -10 -11 -5 -3
-10 -1 -10 4 0 6 5 11 10 11 6 0 10 -2 10 -4z m2880 -6 c0 -5 -2 -10 -4 -10
-3 0 -8 5 -11 10 -3 6 -1 10 4 10 6 0 11 -4 11 -10z m-4620 -7 c-1 -18 -18
-35 -24 -24 -4 6 -4 16 -1 21 7 12 25 13 25 3z m5330 -19 c0 -2 -9 -4 -21 -4
-11 0 -18 4 -14 10 5 8 35 3 35 -6z m-3520 -24 c0 -5 -5 -10 -11 -10 -5 0 -7
5 -4 10 3 6 8 10 11 10 2 0 4 -4 4 -10z m2885 1 c3 -5 1 -12 -5 -16 -5 -3 -10
1 -10 9 0 18 6 21 15 7z m-162 -15 c8 -20 -39 -49 -60 -38 -17 10 -16 11 32
39 11 6 21 11 21 12 1 1 4 -5 7 -13z m-2883 -10 c0 -15 -21 -26 -51 -26 -24 0
-25 16 -1 29 25 15 52 13 52 -3z m200 -26 c-18 -11 -24 -6 -16 16 5 14 9 15
19 5 9 -9 9 -14 -3 -21z m2886 5 c-3 -9 -11 -13 -16 -10 -8 5 -7 11 1 21 14
18 24 11 15 -11z m-3016 -83 c0 -10 7 -27 15 -39 9 -12 11 -24 6 -27 -29 -18
-69 41 -51 75 12 22 30 17 30 -9z m380 13 c0 -8 -4 -15 -9 -15 -13 0 -22 16
-14 24 11 11 23 6 23 -9z m2510 -24 c0 -9 5 -22 11 -28 12 -12 4 -33 -11 -33
-5 0 -17 12 -28 28 -15 20 -17 33 -11 51 8 19 12 21 24 11 8 -7 15 -20 15 -29z
m370 24 c0 -9 -6 -12 -15 -9 -8 4 -12 10 -9 15 8 14 24 10 24 -6z m-3380 -16
c0 -5 -7 -9 -15 -9 -9 0 -12 6 -9 15 6 15 24 11 24 -6z m2882 6 c0 -5 -5 -11
-11 -13 -6 -2 -11 4 -11 13 0 9 5 15 11 13 6 -2 11 -8 11 -13z m-2312 -5 c0
-5 -4 -10 -10 -10 -5 0 -10 5 -10 10 0 6 5 10 10 10 6 0 10 -4 10 -10z m2880
0 c0 -5 -2 -10 -4 -10 -3 0 -8 5 -11 10 -3 6 -1 10 4 10 6 0 11 -4 11 -10z
m-2924 -49 c13 1 13 -9 0 -20 -8 -7 -12 -19 -9 -28 5 -12 1 -14 -18 -8 -32 10
-35 13 -22 26 19 19 3 39 -31 39 -22 0 -27 3 -17 9 9 6 29 4 53 -5 21 -7 41
-13 44 -13z m2857 12 c34 -7 43 -19 27 -38 -7 -8 -9 -15 -4 -15 5 0 3 -4 -5
-9 -15 -9 -51 -3 -51 9 0 4 7 13 15 20 19 16 4 30 -33 30 -14 0 -21 4 -17 11
4 6 14 7 24 4 9 -4 28 -9 44 -12z m305 10 c-10 -2 -26 -2 -35 0 -10 3 -2 5 17
5 19 0 27 -2 18 -5z m-53 -43 c3 -5 -3 -10 -14 -10 -12 0 -21 5 -21 10 0 6 6
10 14 10 8 0 18 -4 21 -10z m-3556 -46 c53 -28 65 -44 31 -44 -10 0 -30 -5
-44 -11 -55 -26 -93 10 -66 62 14 25 18 24 79 -7z m2881 1 c28 -14 50 -29 50
-33 0 -11 -84 -35 -107 -30 -20 4 -28 28 -19 64 8 30 15 30 76 -1z m539 -1
c-10 -12 -6 -18 12 -16 4 1 7 -10 7 -23 0 -15 -6 -25 -14 -25 -18 0 -18 -14 0
-29 8 -7 12 -21 9 -31 -3 -11 2 -31 11 -45 18 -27 20 -26 -74 -63 l-25 -10 28
-11 c33 -13 37 -43 5 -37 -13 3 -26 5 -30 5 -5 1 -38 57 -38 66 0 3 73 24 95
28 17 3 15 6 -15 25 -19 12 -43 19 -52 16 -16 -5 -38 21 -38 45 0 6 20 21 45
33 24 12 42 25 39 30 -3 5 -10 6 -15 3 -5 -4 -9 -1 -9 4 0 6 7 11 15 11 8 0
15 5 15 10 0 6 -4 10 -10 10 -20 0 -9 19 13 22 30 5 40 -1 26 -18z m101 -10
c0 -21 -5 -24 -35 -24 -40 0 -41 2 -20 34 20 31 55 24 55 -10z m55 -62 c-3 -3
-11 0 -18 7 -9 10 -8 11 6 5 10 -3 15 -9 12 -12z m-3541 -8 c22 -8 20 -21 -5
-34 -23 -13 -69 -5 -69 11 0 5 10 14 23 19 28 11 32 11 51 4z m2898 -2 c4 -1
5 -8 2 -16 -8 -21 -61 -31 -80 -15 -14 12 -14 14 0 24 13 10 49 13 78 7z m612
-17 c19 -15 19 -15 -1 -15 -11 0 -26 7 -33 15 -17 20 7 20 34 0z m-3331 -55
c3 -12 0 -20 -8 -20 -16 0 -37 25 -28 33 13 13 31 7 36 -13z m2885 -4 c3 -13
-1 -17 -14 -14 -11 2 -20 11 -22 22 -3 13 1 17 14 14 11 -2 20 -11 22 -22z
m-2994 -7 c-6 -11 -24 -2 -24 11 0 5 7 7 15 4 8 -4 12 -10 9 -15z m2890 0 c-8
-14 -24 -10 -24 6 0 9 6 12 15 9 8 -4 12 -10 9 -15z m546 17 c0 -2 3 -11 6
-20 5 -13 -1 -16 -25 -16 -33 0 -39 8 -19 28 11 11 38 17 38 8z m-3259 -44
c-7 -2 -16 -15 -21 -28 -10 -25 -30 -33 -30 -11 0 25 30 56 47 50 12 -5 13 -8
4 -11z m2875 -4 c-9 -5 -16 -18 -16 -28 0 -23 -15 -27 -23 -6 -7 17 30 59 45
50 7 -4 5 -10 -6 -16z m184 12 c0 -5 -9 -10 -20 -10 -11 0 -20 5 -20 10 0 6 9
10 20 10 11 0 20 -4 20 -10z m-3376 -21 c-31 -12 -40 -9 -20 6 10 8 24 11 29
8 6 -4 2 -10 -9 -14z m2890 0 c-34 -13 -50 -11 -29 5 11 8 26 11 34 8 12 -4
11 -7 -5 -13z m403 15 c-3 -3 -12 -4 -19 -1 -8 3 -5 6 6 6 11 1 17 -2 13 -5z
m-61 -81 c-8 -8 -36 5 -36 17 0 7 6 7 21 0 11 -7 18 -14 15 -17z m319 17 c4
-6 1 -17 -5 -25 -10 -12 -10 -15 0 -15 8 0 11 -3 7 -6 -3 -3 -22 6 -42 19
l-37 25 28 5 c16 2 32 5 36 6 4 0 10 -4 13 -9z m-3205 -10 c0 -5 -7 -10 -15
-10 -8 0 -15 5 -15 10 0 6 7 10 15 10 8 0 15 -4 15 -10z m208 -18 c3 -9 -4
-12 -25 -8 -15 2 -31 5 -35 5 -5 1 -8 6 -8 12 0 15 63 7 68 -9z m-453 -1 c3
-5 1 -12 -5 -16 -5 -3 -10 1 -10 9 0 18 6 21 15 7z m559 -6 c4 -13 2 -14 -14
-5 -23 13 -26 20 -6 20 8 0 16 -7 20 -15z m2323 -7 c-3 -8 -6 -5 -6 6 -1 11 2
17 5 13 3 -3 4 -12 1 -19z m-2938 -24 c3 -3 -3 -12 -13 -20 -23 -17 -53 -10
-81 18 l-20 20 54 -5 c29 -4 56 -9 60 -13z m2879 1 c8 -8 -18 -33 -31 -31 -32
6 -56 18 -61 33 -6 14 0 15 40 9 26 -3 50 -8 52 -11z m-2628 -16 c0 -12 -29
-24 -37 -16 -3 4 -3 13 0 21 6 16 37 11 37 -5z m2880 8 c0 -19 -10 -27 -25
-20 -17 6 -8 33 11 33 8 0 14 -6 14 -13z m-4851 -64 c-1 -45 -4 -61 -9 -47 -4
11 -6 36 -5 55 2 19 4 40 4 47 1 6 3 12 6 12 3 0 4 -30 4 -67z m2179 25 c12 0
22 -4 22 -8 0 -10 -23 -27 -35 -25 -47 6 -95 18 -95 25 0 14 23 19 55 13 17
-3 40 -6 53 -5z m2842 3 c14 -4 35 -4 46 0 18 6 21 4 17 -12 -6 -20 -12 -22
-53 -20 -61 4 -77 12 -65 30 7 12 18 12 55 2z m-3078 -43 c-12 -12 -35 -1 -27
12 3 5 13 6 21 3 10 -4 12 -9 6 -15z m368 12 c0 -5 -2 -10 -4 -10 -3 0 -8 5
-11 10 -3 6 -1 10 4 10 6 0 11 -4 11 -10z m50 6 c0 -3 -4 -8 -10 -11 -5 -3
-10 -1 -10 4 0 6 5 11 10 11 6 0 10 -2 10 -4z m2470 -17 c0 -5 -7 -9 -15 -9
-8 0 -15 7 -15 15 0 9 6 12 15 9 8 -4 15 -10 15 -15z m420 17 c0 -3 -4 -8 -10
-11 -5 -3 -10 -1 -10 4 0 6 5 11 10 11 6 0 10 -2 10 -4z m-3451 -62 c3 -3 -1
-10 -8 -17 -7 -7 -44 -13 -89 -14 -42 -1 -86 -3 -97 -5 -14 -2 -21 3 -23 19
-3 17 1 20 17 16 10 -3 28 0 38 6 16 10 150 5 162 -5z m179 -17 c3 -14 -4 -17
-38 -17 -42 0 -66 24 -41 40 20 12 76 -4 79 -23z m2700 23 c6 0 12 -4 12 -9 0
-16 -63 -31 -116 -29 -27 2 -61 -1 -76 -5 -25 -7 -28 -5 -28 17 0 18 4 24 14
20 8 -3 23 -1 33 5 10 7 45 9 83 7 36 -3 71 -5 78 -6z m-2535 -26 c-3 -8 -12
-13 -20 -10 -8 3 -23 6 -34 6 -32 0 -21 19 14 22 40 4 48 1 40 -18z m102 14
c28 -13 33 -33 10 -42 -22 -8 -18 -21 10 -36 29 -15 32 -28 9 -37 -10 -4 -20
1 -26 11 -7 13 -17 15 -44 10 -41 -8 -43 4 -7 40 20 20 24 29 15 38 -27 27
-10 36 33 16z m2609 6 c19 -7 21 -30 4 -36 -25 -8 -73 7 -76 25 -3 13 3 17 26
17 17 0 37 -3 46 -6z m169 -25 c-5 -5 -24 -6 -42 -3 -37 8 -30 21 14 26 31 3
44 -7 28 -23z m126 7 c11 -12 10 -16 -8 -25 -28 -15 -27 -25 4 -39 14 -6 25
-18 25 -26 0 -17 -28 -15 -39 2 -4 7 -18 10 -32 8 -13 -3 -28 -5 -33 -5 -21
-2 14 -23 41 -26 29 -2 73 -24 73 -37 0 -4 -13 -16 -30 -28 -20 -14 -35 -18
-45 -12 -13 7 -12 10 10 20 36 17 24 29 -38 37 -28 4 -55 9 -59 12 -4 2 16 27
44 55 l51 51 -24 19 -24 20 35 -6 c19 -4 41 -13 49 -20z m-5169 -31 c0 -8 -6
-15 -14 -15 -8 0 -16 7 -20 15 -4 10 1 15 14 15 11 0 20 -7 20 -15z m2881 0
c-1 -15 -24 -12 -29 3 -3 9 2 13 12 10 10 -1 17 -7 17 -13z m2414 -15 c4 -6
-6 -7 -27 -3 -41 7 -46 12 -28 23 14 9 44 -2 55 -20z m-3115 -1 c0 -12 -47
-12 -54 0 -3 4 -3 10 0 13 7 8 54 -3 54 -13z m2878 0 c-17 -12 -48 -11 -48 0
0 13 21 19 43 13 15 -4 16 -7 5 -13z m-4807 -20 c9 -37 -7 -60 -39 -56 -35 5
-41 38 -12 67 26 26 42 22 51 -11z m1840 -12 c-8 -8 -11 -3 -11 19 1 25 2 27
11 11 8 -14 8 -22 0 -30z m1045 19 c10 -40 -3 -65 -33 -61 -35 4 -44 23 -27
57 18 35 51 37 60 4z m1847 4 c3 -11 1 -23 -4 -26 -5 -3 -9 6 -9 20 0 31 6 34
13 6z m-2965 -38 c14 -21 14 -26 -1 -52 -15 -25 -16 -30 -2 -43 20 -21 19 -44
-4 -50 -29 -7 -49 9 -43 38 3 19 0 25 -14 26 -11 1 -23 2 -29 4 -5 1 -18 3
-27 3 -13 2 -17 10 -16 28 3 36 27 42 49 13 17 -23 19 -23 20 -4 2 18 4 31 8
57 2 16 45 2 59 -20z m2873 18 c5 0 14 -12 20 -26 7 -21 6 -31 -6 -44 -19 -21
-19 -29 2 -53 17 -18 17 -19 0 -32 -28 -20 -52 -12 -52 18 0 32 -4 36 -46 40
-28 4 -35 9 -37 31 -5 37 25 47 49 15 17 -23 19 -23 20 -4 1 11 1 24 0 29 -4
20 10 38 25 32 9 -3 20 -6 25 -6z m-2694 -21 c7 -7 29 -13 50 -16 49 -5 72
-25 53 -48 -21 -26 -51 -38 -62 -27 -7 7 -3 12 11 17 12 3 21 10 21 15 0 10
-64 30 -97 30 -25 0 -29 10 -11 28 15 15 21 15 35 1z m2472 -50 c-16 -10 -23
-4 -14 10 3 6 11 8 17 5 6 -4 5 -9 -3 -15z m-4474 -17 c-8 -8 -25 10 -19 20 4
6 9 5 15 -3 4 -7 6 -15 4 -17z m1590 18 c-3 -5 -10 -10 -16 -10 -5 0 -9 5 -9
10 0 6 7 10 16 10 8 0 12 -4 9 -10z m315 6 c0 -3 -4 -8 -10 -11 -5 -3 -10 -1
-10 4 0 6 5 11 10 11 6 0 10 -2 10 -4z m976 -23 c-10 -10 -19 5 -10 18 6 11 8
11 12 0 2 -7 1 -15 -2 -18z m1914 23 c0 -3 -4 -8 -10 -11 -5 -3 -10 -1 -10 4
0 6 5 11 10 11 6 0 10 -2 10 -4z m-2890 -46 c0 -5 -4 -10 -10 -10 -5 0 -10 5
-10 10 0 6 5 10 10 10 6 0 10 -4 10 -10z m2890 0 c0 -5 -4 -10 -10 -10 -5 0
-10 5 -10 10 0 6 5 10 10 10 6 0 10 -4 10 -10z m-4790 -49 c0 -9 5 -22 12 -29
9 -9 8 -12 -5 -12 -10 0 -17 8 -17 19 0 11 -5 23 -10 26 -6 4 -8 11 -4 16 8
14 24 1 24 -20z m2888 -13 c7 -17 8 -30 2 -33 -9 -5 -14 9 -7 19 1 2 -6 13
-16 23 -9 11 -14 23 -10 26 8 9 16 0 31 -35z m-912 19 c4 -4 -2 -7 -14 -7 -12
0 -22 4 -22 9 0 10 26 9 36 -2z m2889 3 c4 -6 -6 -10 -22 -10 -22 0 -25 2 -13
10 19 12 27 12 35 0z m-3115 -23 c0 -7 -10 -18 -22 -26 -22 -14 -22 -14 -3
-21 12 -5 29 -2 42 6 29 18 39 18 47 -3 9 -22 -9 -40 -26 -26 -7 6 -24 8 -38
5 -14 -3 -41 -6 -60 -6 -32 -1 -35 2 -38 30 -3 27 1 34 25 42 39 15 73 14 73
-1z m2890 -9 c0 -5 -9 -12 -20 -15 -27 -7 -25 -23 2 -31 21 -5 21 -6 2 -13
-10 -4 -33 -8 -51 -8 -33 -1 -44 15 -35 52 7 29 102 43 102 15z m60 -43 c0
-27 -21 -33 -39 -12 -8 10 -7 17 1 25 20 20 38 14 38 -13z m-4685 -67 c-3 -67
-3 -68 -13 -68 -4 0 -8 8 -9 18 0 9 -7 32 -14 50 -13 31 -12 35 5 47 28 21 33
12 31 -47z m2045 43 c14 -27 14 -27 -29 -26 -48 0 -62 12 -37 31 27 20 53 18
66 -5z m843 -33 c-1 -18 -2 -43 -2 -56 -1 -35 -17 -18 -31 33 -10 36 -10 48 0
60 18 22 35 3 33 -37z m2037 37 c0 -8 8 -15 18 -15 12 0 14 -2 4 -8 -7 -5 -23
-7 -35 -6 -12 1 -30 3 -39 3 -10 1 -18 7 -18 15 0 14 18 23 53 25 9 0 17 -6
17 -14z m-3266 -31 c9 -3 14 -10 11 -15 -7 -10 -35 0 -35 12 0 11 3 11 24 3z
m2894 -12 c2 -7 -2 -10 -12 -6 -9 3 -16 11 -16 16 0 13 23 5 28 -10z m-2553
-22 c3 -5 2 -10 -4 -10 -5 0 -13 5 -16 10 -3 6 -2 10 4 10 5 0 13 -4 16 -10z
m2890 0 c3 -5 -1 -10 -9 -10 -9 0 -16 5 -16 10 0 6 4 10 9 10 6 0 13 -4 16
-10z m-2940 -10 c3 -5 -1 -10 -10 -10 -9 0 -13 5 -10 10 3 6 8 10 10 10 2 0 7
-4 10 -10z m2890 0 c3 -5 -1 -10 -9 -10 -9 0 -16 5 -16 10 0 6 4 10 9 10 6 0
13 -4 16 -10z m-3325 -50 c0 -5 -5 -10 -11 -10 -5 0 -7 5 -4 10 3 6 8 10 11
10 2 0 4 -4 4 -10z m2885 0 c3 -5 1 -10 -4 -10 -6 0 -11 5 -11 10 0 6 2 10 4
10 3 0 8 -4 11 -10z m-2405 -61 c0 -6 -4 -7 -10 -4 -5 3 -10 11 -10 16 0 6 5
7 10 4 6 -3 10 -11 10 -16z m2880 5 c0 -8 -5 -12 -10 -9 -6 4 -8 11 -5 16 9
14 15 11 15 -7z m-2940 -55 c0 -11 -27 -12 -34 0 -3 4 -3 11 0 14 8 8 34 -3
34 -14z m2882 -1 c-5 -5 -17 -6 -26 -2 -13 5 -14 9 -5 14 16 11 43 0 31 -12z
m-23 -29 c-14 -8 -29 -3 -29 11 0 4 9 6 21 3 15 -4 17 -8 8 -14z m-2887 -1
c-9 -9 -15 -9 -24 0 -9 9 -7 12 12 12 19 0 21 -3 12 -12z m989 -49 c10 -10 17
-24 14 -31 -2 -7 -7 -26 -9 -42 -3 -16 -9 -33 -15 -39 -5 -5 -2 -16 10 -28 17
-17 18 -21 5 -34 -8 -8 -21 -15 -28 -14 -10 0 -10 2 -1 6 10 3 9 9 -1 26 -24
38 -29 83 -11 101 11 11 13 21 7 32 -5 9 -7 28 -4 42 3 15 7 21 10 13 2 -7 13
-22 23 -32z m-2876 -54 c-7 -62 -35 -91 -48 -50 -7 20 -5 31 9 46 13 15 15 22
6 31 -7 7 -12 23 -12 35 0 24 0 24 25 6 23 -16 25 -23 20 -68z m1965 65 c0 -5
-4 -10 -10 -10 -5 0 -10 5 -10 10 0 6 5 10 10 10 6 0 10 -4 10 -10z m2880 0
c0 -5 -4 -10 -10 -10 -5 0 -10 5 -10 10 0 6 5 10 10 10 6 0 10 -4 10 -10z
m-3100 -29 c0 -11 -31 -19 -49 -13 -10 3 -7 8 10 17 24 13 39 11 39 -4z m2867
-12 c-38 -10 -55 3 -22 17 23 9 32 9 37 1 5 -7 -1 -14 -15 -18z m-3140 2 c10
-10 29 -22 42 -26 26 -8 91 -45 91 -51 0 -9 -66 -44 -83 -44 -25 0 -87 30 -87
41 0 5 -9 18 -20 29 -17 17 -18 24 -8 45 13 30 40 32 65 6z m2880 0 c7 -10 34
-26 62 -36 62 -20 77 -36 53 -57 -9 -9 -27 -19 -39 -22 -30 -10 -103 11 -103
29 0 8 -9 20 -20 27 -23 15 -23 18 -10 52 11 31 40 34 57 7z m-3787 -30 c0
-10 7 -21 15 -25 19 -7 19 -50 0 -70 -33 -32 -57 -30 -122 9 -37 23 -41 35
-15 57 52 46 122 62 122 29z m2887 7 c-2 -7 4 -22 15 -34 31 -34 6 -78 -51
-90 -8 -1 -34 9 -58 23 -57 33 -55 58 7 89 50 26 94 32 87 12z m-1689 -6 c18
-12 -1 -57 -25 -59 -23 -2 -49 53 -29 61 18 7 40 6 54 -2z m2891 -16 c3 -20
-22 -46 -46 -46 -7 0 -13 9 -13 19 0 11 -5 23 -11 27 -17 10 11 25 41 22 15
-2 26 -10 29 -22z m-4654 -66 c9 -15 -3 -47 -21 -54 -11 -4 -14 -1 -9 13 3 11
1 22 -5 26 -6 3 -8 11 -5 16 8 12 32 12 40 -1z m0 -79 c6 -11 -29 -34 -38 -25
-3 3 -3 12 0 20 6 16 29 19 38 5z m2885 -5 c0 -7 -9 -16 -20 -19 -19 -5 -28
12 -13 26 11 12 33 7 33 -7z m-1696 -51 c8 -21 -41 -42 -82 -36 -41 7 -41 23
1 38 45 16 74 16 81 -2z m2884 -6 c4 -22 -41 -36 -90 -29 -43 6 -40 21 7 38
41 15 79 11 83 -9z m-2554 -21 c-7 -11 -44 -10 -44 2 0 16 34 30 42 17 4 -6 4
-15 2 -19z m2879 1 c-7 -7 -20 -8 -30 -5 -17 7 -17 8 1 22 23 17 48 2 29 -17z
m-3258 -59 c3 -6 -4 -14 -17 -19 -23 -8 -42 4 -32 21 7 11 42 10 49 -2z m2885
-4 c0 -16 -37 -28 -46 -15 -8 14 5 29 27 29 10 0 19 -6 19 -14z m-2552 -58 c3
-13 -3 -18 -21 -18 -24 0 -42 21 -29 34 12 13 47 1 50 -16z m2881 9 c13 -16 5
-27 -20 -27 -21 0 -33 15 -24 30 9 14 31 12 44 -3z m-340 -73 c-14 -18 -20
-17 -45 0 -18 14 -18 15 6 24 32 12 56 -3 39 -24z m-2881 9 c-3 -16 -12 -19
-48 -14 -5 0 -10 8 -10 16 0 10 10 15 31 15 24 0 30 -4 27 -17z"/>
<path d="M4928 1954 c-2 -1 -66 -5 -143 -8 -171 -8 -335 -15 -475 -21 -58 -3
-166 -7 -240 -10 -199 -8 -222 -13 -279 -60 -42 -36 -69 -91 -77 -157 -11
-103 -46 -224 -90 -316 -58 -119 -140 -207 -241 -255 -66 -31 -72 -32 -193
-32 -117 1 -129 3 -185 30 -159 77 -238 237 -237 480 0 66 2 141 5 167 5 60
-17 100 -70 126 -36 18 -63 19 -533 16 -709 -5 -704 -5 -769 -60 -60 -52 -74
-112 -58 -261 23 -211 82 -412 178 -608 70 -142 85 -166 161 -267 207 -274
518 -493 848 -597 283 -89 624 -109 945 -55 153 25 361 80 450 119 17 7 41 16
55 20 46 14 254 118 335 169 331 208 588 476 752 786 84 160 175 414 188 524
8 67 -9 154 -38 197 -39 57 -78 73 -189 75 -54 0 -99 0 -100 -2z m-2815 -401
c4 -7 30 -25 58 -38 54 -28 57 -34 32 -62 -22 -24 -73 -47 -73 -33 0 29 -59
70 -134 94 -18 6 -18 8 5 32 42 45 88 48 112 7z m41 -192 c-10 -48 -13 -51
-48 -51 -33 0 -48 11 -52 37 -3 15 13 28 51 40 42 14 56 6 49 -26z m2110 -8
c8 -20 -3 -32 -37 -38 -34 -7 -42 10 -17 35 24 24 46 26 54 3z m186 -7 c0 -11
-46 -36 -66 -36 -14 0 0 29 19 38 31 15 47 14 47 -2z m-210 -96 c14 0 22 -11
30 -41 6 -23 9 -43 7 -46 -3 -2 -20 2 -40 10 -23 10 -36 23 -39 40 -5 27 12
71 20 49 2 -6 12 -12 22 -12z m-1872 -78 c2 -15 -2 -22 -12 -22 -11 0 -16 9
-16 26 0 31 23 28 28 -4z m-454 -127 c-4 -8 -16 -15 -28 -15 -21 1 -21 1 -2
15 25 19 37 19 30 0z m2274 -1 c12 -8 22 -20 22 -26 0 -5 9 -23 20 -38 20 -28
20 -29 1 -35 -10 -3 -25 -20 -32 -37 l-13 -31 -15 23 c-20 29 -61 129 -61 147
0 18 50 17 78 -3z m-259 -87 c15 -29 21 -72 11 -88 -5 -7 -18 -9 -32 -6 -21 6
-24 12 -26 62 -1 47 1 55 16 55 10 0 24 -10 31 -23z m-1243 -14 c59 -5 59 -9
17 -89 -16 -31 -33 -46 -65 -59 -73 -30 -127 -17 -164 39 -14 22 -14 27 0 54
20 39 91 75 131 67 17 -4 53 -9 81 -12z m252 -232 c6 -1 12 -12 12 -25 0 -21
-4 -24 -27 -22 -16 2 -40 4 -54 5 -27 1 -44 24 -33 42 3 6 24 8 47 5 23 -2 48
-5 55 -5z m754 -67 c5 -29 -44 -42 -76 -20 -34 22 -36 73 -3 85 17 7 27 3 49
-20 15 -15 28 -36 30 -45z"/>
</g>
</svg>
