<?xml version="1.0" encoding="utf-8"?>
<!-- Generator: Adobe Illustrator 23.0.5, SVG Export Plug-In . SVG Version: 6.00 Build 0)  -->
<svg version="1.1" id="Capa_1" xmlns="http://www.w3.org/2000/svg" xmlns:xlink="http://www.w3.org/1999/xlink" x="0px" y="0px"
	 viewBox="0 0 960 428.4" style="enable-background:new 0 0 960 428.4;" xml:space="preserve">
<style type="text/css">
	.st0{fill:#A64DE0;}
	.st1{fill:#01B6B6;}
	.st2{fill:#E76E6D;}
	.st3{fill:#6B96A4;}
	.st4{fill:#84698B;}
	.st5{fill:#F3F2F2;}
	.st6{fill:#F6F0F1;}
	.st7{fill:#FEFEFE;}
	.st8{fill:#FFFFFF;}
	.st9{fill:#FDFDFD;}
	.st10{fill:#E76F6E;}
</style>
<g>
	<path class="st0" d="M338.2,349.8c-1.1-0.2-2.1-0.3-3.2-0.4c-6.1-0.9-11.5-3.2-16.1-7.2c-6.3-5.4-9.8-12.2-10.9-20.3
		c-0.2-1-0.3-1.9-0.3-2.9c0.1-2.3,1.3-3.6,3.6-3.7c2.3-0.1,4.6-0.1,6.9-0.2c3.4,0,6.8,0,10.2-0.1c1,0,2-0.1,3-0.1
		c1.8,0,3.2,1.3,2.9,3.3c-0.4,2.8-0.3,5.5,0.9,8.1c1.5,3.2,4.7,4.4,7.8,4c3.9-0.4,6.2-2.9,7.5-6.3c0.7-1.8,1-3.5,1.3-5.4
		c0.3-1.9,1.8-3.4,3.7-3.5c4.3-0.2,8.7-0.4,13-0.6c2.6-0.1,5.2-0.3,7.9-0.4c2.4-0.1,3.8,1.3,4,3.7c0.2,1.8-0.4,3.5-0.9,5.1
		c-3.1,9.5-9.3,16.6-17.9,21.5c-5.1,2.9-10.4,4.5-16.3,5.1c-0.7,0.1-1.4,0-2.1,0.3C341.7,349.8,339.9,349.8,338.2,349.8z
		 M330.7,336.1c1.4,0,2.9-1.3,3.1-2.8c0-0.3-0.2-0.3-0.3-0.3c-0.5,0-1,0.1-1.4-0.1c-1.3-0.4-2.4-0.1-3,1c-0.2,0.3-0.3,0.4-0.2,0.8
		C329.1,335.4,329.9,336,330.7,336.1z M324.2,322.9c0-0.3-0.3-0.3-0.4-0.3c-0.6-0.3-1.1-0.5-1.5-0.9c-0.8-0.8-1.6-0.7-2.2,0.3
		c-0.2,0.3-0.2,0.5,0.3,0.6c0.8,0.2,1.6,0.5,2,1.3c0.3,0.5,0.5,0.4,1,0.3C323.8,323.8,324.1,323.5,324.2,322.9z M361.9,332.8
		c-0.4-0.5-0.7-0.9-0.9-1.3c-0.2-0.5-1-0.8-1.5-0.7c-0.3,0.1-0.3,0.3-0.3,0.5c0.3,0.8,0.7,1.6,1,2.4c0.1,0.2,0.2,0.4,0.4,0.3
		c0.2,0,0.2-0.3,0.3-0.4C361.2,333.1,361.3,332.7,361.9,332.8z M350.8,339.2c0.3-0.3,0.8-0.2,0.8-0.7c0-0.3-0.9-1.3-1.3-1.3
		c-0.4,0.1-0.7,0.3-0.7,0.8C349.6,338.5,350.3,339.2,350.8,339.2z M323,325c0-0.3,0-0.5-0.4-0.5c-0.6,0-1.5,0.6-1.4,0.9
		c0,0.5,0.4,0.7,0.8,0.7C322.7,326.2,323,325.9,323,325z M356.3,333.8c0-0.7-0.2-1.1-0.6-1.4c-0.3-0.2-0.6-0.3-0.6,0.2
		c0,0.6,0,1.2,0.1,1.8c0,0.2,0.2,0.3,0.3,0.3C356,334.6,356.3,334.4,356.3,333.8z M336.2,337.1c-0.3-0.1-0.6-0.1-0.6,0.3
		c0,0.3,0,0.6,0.5,0.6c0.3,0,0.8,0.1,1.1,0.1c0.3,0,0.6,0.1,0.6-0.4c0-0.4-0.1-0.6-0.5-0.6C336.9,337.2,336.6,337.2,336.2,337.1z
		 M362.5,328.9c-0.4-0.5,0.3-1.6-1-1.5l-0.1-0.1c-0.2-0.3-0.3-0.3-0.4-0.1c-0.3,0.4,0,1.3,0.5,1.4
		C361.8,328.7,362.2,328.7,362.5,328.9z M360.8,326c0.5,0,1.1,0.3,1.3-0.4c0.1-0.1,0-0.6-0.3-0.6C361.4,325,361,325.3,360.8,326z
		 M364.6,326.1c0.3-0.3,0.8-0.2,1-0.6c0.1-0.2-0.1-0.4-0.3-0.3c-0.3,0.2-0.9,0.1-1,0.7C364.3,326,364.4,326.1,364.6,326.1z
		 M327.1,328.7c-0.1-0.2-0.2-0.4-0.4-0.5c-0.2,0-0.3,0.1-0.3,0.3c0,0.3,0.1,0.6,0.3,0.7C327,329.2,327,328.9,327.1,328.7z
		 M317.8,331.4c0.3-0.1,0.7-0.1,0.8-0.4c0-0.1,0-0.3-0.2-0.3C318.1,330.8,317.9,331,317.8,331.4z"/>
	<path class="st0" d="M397.1,281.2c0.2,0.3,0.2,0.5,0.1,0.8c-0.5,1.4-0.8,2.9-1.2,4.3c-0.8,2.4-1.8,4.6-2.9,6.8
		c-0.3,0.5-0.8,0.9-0.9,1.3c-0.3,1.1-1,1.8-1.6,2.6c-3.6,4.8-8.3,7.9-14.3,8.8c-6,0.8-11.6-0.1-16.4-4.2c-2.9-2.5-5-5.7-6.5-9.4
		c-0.6-1.5-1.2-3-1.4-4.6c-0.6-3.2-1.1-6.5-1-9.8c0-0.6-0.2-0.8-0.8-0.9c-1.8-0.1-3.5-0.2-5.2-0.3c-0.4,0-0.4,0.3-0.5,0.5
		c-0.2,1-0.3,1.9-0.5,2.9c-0.3,1.7-0.6,3.4-1.1,5.1c-0.8,2.8-1.9,5.5-3.4,8c-2.2,3.8-4.9,7.2-8.7,9.6c-3.1,1.9-6.6,2.9-10.3,3.2
		c-3.9,0.3-7.7-0.3-11.1-2.2c-2.6-1.4-4.7-3.5-6.5-5.9c-2.4-3.3-3.9-6.9-4.7-10.9c-1-5-1.2-10.1-0.7-15.2c0.6-6.2,1.8-12.4,4-18.2
		c1.8-4.7,4.3-9.1,8-12.6c3.5-3.3,7.7-5.3,12.5-5.6c6.5-0.4,12,1.5,16.6,6.3c2.4,2.5,3.8,5.6,4.8,8.9c1.3,4,1.9,8.1,1.9,12.3
		c0.1,1.5-0.3,1.4,1.5,1.3c1.5-0.2,2.9-0.3,4.5-0.3c0.8,0,1-0.3,1.2-1c1-5.1,2.5-9.9,5-14.5c2.3-4.2,5.2-7.8,9.4-10.3
		c7.7-4.6,18.8-3.5,25.3,3.5c2.4,2.6,3.9,5.8,4.9,9.2c1.8,5.7,2.1,11.6,1.9,17.6c-0.2,4.1-0.6,8.2-1.4,12.1
		C397.4,280.9,397.5,281.1,397.1,281.2c-0.1-0.1-0.1-0.1-0.2-0.2c-0.3-0.5-0.7-0.5-1.3-0.3c0.3,0.4,0.8,0.3,1.2,0.4
		C397,281.2,397.1,281.2,397.1,281.2z M330.1,240.2c-0.1,0-0.2,0-0.2,0c-0.9,0.6-1.1,0.6-1.9-0.1c0,0,0,0-0.1,0
		c-0.3,0-0.7,0.1-0.8,0.3c-0.1,0.4,0.3,0.8,0.6,0.9c0.2,0.1,0.7,0.3,0.7-0.1c0.1-0.7,0.6-0.5,0.9-0.6
		C329.7,240.8,330.1,240.7,330.1,240.2c0.3-0.2,0.8-0.1,1.1-0.6C330.5,239.3,330.1,239.4,330.1,240.2z M383.7,240.2
		c-0.2-0.1-0.3,0.1-0.4,0.2c-0.3,0.3-0.8,0.3-1.3,0.3c-0.4,0.1-0.3-0.3-0.4-0.6c-0.2-0.3-0.3,0-0.5,0.1c-0.2,0.1-0.4,0.1-0.4,0.3
		c0,0.4,0.8,1,1.2,0.9c0.1,0,0.3,0,0.3-0.1c-0.1-0.8,0.5-0.5,0.8-0.6C383.2,240.8,383.6,240.7,383.7,240.2c0.3-0.3,0.8-0.1,1-0.5
		C383.8,239.3,383.8,239.3,383.7,240.2z M392.8,281.8c-0.3,0-0.6,0.2-0.7,0.5c0.4,0.3,0.8,0.2,1.3,0.3c0.3,0.1,0.8,0,0.9,0.4
		s-0.6,0.2-0.7,0.6c0.8,0.5,1.1-0.4,1.6-0.7c-0.3-0.3-0.6-0.5-0.8-0.8c0.3-0.2,0.7,0,0.7-0.3s-0.3-0.3-0.6-0.5h-0.1
		c-0.4-0.2-0.4-0.3-0.1-0.6c0.2-0.1,0.3-0.1,0.4-0.3c-0.7-0.7-0.7-0.7-1.5-0.5c0.3,0.2,0.4,0.4,0.7,0.6
		C393.3,280.8,393,281.3,392.8,281.8L392.8,281.8z M315.1,278.6c0,0.8,0,1.7,0,2.5c0.1,2.4,0.3,4.6,1.3,6.7c1.3,2.5,4.6,2.7,6.2,1.4
		c1.5-1.2,2.3-2.9,2.9-4.5c1.1-3.3,1.9-6.6,2.3-10c0.1-0.4-0.1-0.9,0.7-1c0.2,0,0.3-0.3,0-0.5c-0.4-0.2-0.3-0.4-0.3-0.7
		c0.3-5.1,0.8-10.4,0.2-15.6c-0.3-2-0.5-4.1-1.5-6c-0.9-1.8-2.7-2.3-4.5-1.3c-1.2,0.7-1.9,1.7-2.6,2.8c-1.3,2.4-2.1,5-2.7,7.6
		C315.6,266.1,315.1,272.4,315.1,278.6z M382.1,262.4c0.1-1.9,0-4.1-0.3-6.4c-0.3-1.8-0.6-3.5-1.4-5.1c-1-1.9-2.9-2.4-4.7-1.3
		c-1,0.6-1.7,1.5-2.3,2.5c-0.8,1.6-1.5,3.2-2,4.9c-1.3,4.4-2,8.8-2.4,13.3c-0.3,4.1-0.6,8.3-0.3,12.4c0.1,1.7,0.4,3.4,1.2,4.9
		c0.9,1.8,2.3,2.5,4.6,2.2c1.6-0.3,2.5-1.3,3.4-2.6c1.1-1.8,1.6-3.8,2.1-5.7c0.7-2.4,1.2-4.8,1.3-7.3c0.1-0.6,0.6-0.5,0.8-0.8
		c0.1-0.4-0.5-0.5-0.4-1.1C382,269.3,382.1,266,382.1,262.4z M394.1,275.1c-0.6-0.1-1.1,0.3-1.7,0.5c-0.1,0-0.3-0.1-0.3,0.2
		c0,0.5,0.7,1.2,1.1,1.3c0.2,0,0.4,0.1,0.4-0.2c0-0.2,0-0.4-0.3-0.5c-0.2-0.1-0.5,0-0.6-0.3c0.6-0.3,1.3-0.2,1.8-0.6
		c0.2-0.2,0.3-0.2,0.1-0.4c-0.5-0.6-0.5-1.6-0.2-2.2c0-0.1,0-0.2-0.1-0.2c-0.3-0.3,0-0.3,0.3-0.3c0.3,0,0.5,0.1,0.8,0.1
		c0.3,0,0.6-0.1,0.7-0.4c0.1-0.3-0.2-0.4-0.4-0.5c-0.3-0.2-0.6-0.1-0.7,0.3c-0.1,0.4-0.4,0.4-0.8,0.3c-0.4,0-0.8-0.1-1.3,0.3
		c0.2,0.3,0.4-0.2,0.5,0.2c0.1,0.3-0.2,0.3-0.3,0.3c-0.3,0.2-0.6,0.3-0.8,0.4c-0.4,0.1-0.4,0.4-0.4,0.8c0.1,0.3,0.3,0.6,0.7,0.5
		C393.4,274.2,393.7,274.6,394.1,275.1z M366.1,295.3c0.8,0,1.5-0.5,1.5-1c-0.1-0.6-0.4-1.1-0.7-1.6c0,0-0.2-0.1-0.3,0
		c-0.7,0.3-1.3,0.4-1.9,0.8c-0.3,0.2-0.5,0.6-0.3,0.8C365.1,294.6,365.5,295.2,366.1,295.3z M312.6,295.3c0.7-0.1,1.1-0.3,1.3-0.8
		c0.3-0.4,0.1-0.8-0.3-1c-0.2-0.1-0.2-0.3-0.2-0.3c0.1-0.4-0.2-0.4-0.5-0.3c-0.6,0.2-1.2,0.4-1.7,0.8c-0.3,0.2-0.5,0.7-0.3,0.8
		C311.5,294.6,312,295.2,312.6,295.3z M383.3,292.2c-0.3,0-0.6,0.1-0.6,0.3c0,0.3-0.4,0.7,0.1,0.9c0.2,0.1,0.3,0.3,0.4,0.5
		c0.3,0.7,1.3,1,1.9,0.8c0.4-0.2,1-0.3,1-0.7c0-0.4-0.6-0.6-1-0.8c-0.6-0.3-1.3-0.3-1.5-0.9C383.6,292.2,383.3,292.2,383.3,292.2z
		 M329.8,292.2c-0.4,0-0.6,0.1-0.8,0.4c-0.2,0.5,0.3,0.8,0.4,1.1c0.8,1.1,1.6,1.3,2.7,0.7c0.6-0.3,0.6-0.4,0-0.8
		c-0.7-0.5-1.8-0.4-2.2-1.3C329.9,292.2,329.8,292.2,329.8,292.2z M339.6,279.8c0.3,0.2,0.3,0.3,0.5,0.4c0.2,0.1,0.3,0.3,0,0.4
		c-0.7,0.3-0.8,1.1-1.4,1.4c-0.3,0.2-0.2,0.4,0.2,0.4c0.4,0.1,0.8,0.1,1.2,0.2c0.3,0.1,0.7,0,0.7,0.3c0,0.3-0.4,0.2-0.6,0.4
		c0,0,0,0.1,0,0.2c0.8,0.4,1-0.4,1.4-0.7c-0.4-1.1-1.6-0.4-2.3-1.1c0.5-0.2,1-0.4,1.3-0.1c0.3,0.2,0.3,0.3,0.7,0.3
		c0.2,0,0.3-0.2,0.3-0.3c0-0.3-0.3-0.3-0.5-0.4c-0.7-0.3-0.6-0.4,0-0.8c0.1,0,0.2-0.1,0.3-0.2C340.8,279.9,340.4,279.7,339.6,279.8z
		 M388.3,282.8c-0.1-0.1-0.2-0.1-0.2-0.2c-0.1-0.3-0.3-0.6-0.6-0.5s-0.3,0.5-0.3,0.8c0,0.4,0.3,0.3,0.6,0.4c0.2,0.1,0.3,0,0.5,0.1
		c0.4,0,0.8,0.2,0.5,0.7c-0.1,0.2-0.2,0.4,0.2,0.5s0.7,0.2,0.9-0.2c0.3-0.3,0-0.4-0.2-0.6c-0.4-0.3-0.4-0.5-0.1-0.8
		c0.5-0.4,0.2-0.8,0-1.3c-0.2-0.3-0.5-0.2-0.8-0.2c-0.3,0-0.2,0.3-0.2,0.5C388.5,282.3,388.6,282.6,388.3,282.8z M334.7,282.9
		c-0.1-0.2-0.2-0.2-0.3-0.3c-0.1-0.3-0.3-0.6-0.6-0.5s-0.3,0.5-0.3,0.8c0,0.4,0.3,0.3,0.6,0.3c0.2,0.1,0.3,0,0.5,0
		c0.5,0,0.8,0.2,0.5,0.7c-0.1,0.2-0.2,0.4,0.1,0.5c0.3,0.1,0.8,0.2,1-0.2c0.2-0.2,0.1-0.4-0.2-0.6c-0.4-0.3-0.4-0.6-0.1-0.8
		c0.5-0.5,0.2-0.9-0.1-1.3c-0.2-0.3-0.5-0.2-0.8-0.2c-0.3,0-0.2,0.3-0.2,0.4C335,282.3,335,282.6,334.7,282.9z M331.1,280.5
		c0.3-0.1,0.8-0.2,1.1-0.3c0.2-0.1,0.3-0.1,0.3-0.3c0-0.3-0.3-0.3-0.4-0.3c-1,0.2-2.1-0.6-3,0.3c-0.1,0.1-0.3,0.1-0.3,0
		c-0.3-0.1-0.3,0-0.3,0.3c0,0.2,0,0.5,0.3,0.4C329.5,280.4,330.2,280.3,331.1,280.5z M333,285.5c-0.1,0.6,0.2,0.8,0.8,0.7
		c0.3-0.1,0.6-0.1,0.9-0.2c0.3-0.1,0.5-0.2,0.8,0.1c0.2,0.1,0.4,0.3,0.5,0.1c0.2-0.2,0.2-0.5,0-0.7s-0.4-0.2-0.6,0.1
		c-0.2,0.2-0.3,0.3-0.6,0.3c-0.3,0-0.5,0-0.6-0.3c-0.1-0.3,0.3-0.3,0.3-0.3c0.3-0.1,0.4-0.3,0.3-0.5c-0.4-0.3-0.9,0-1.4,0.1
		C332.9,284.9,332.9,285.2,333,285.5z M386.6,285.5c-0.1,0.5,0.2,0.8,0.8,0.7c0.3-0.1,0.6-0.1,0.9-0.2c0.3-0.1,0.5-0.2,0.8,0
		c0.2,0.1,0.3,0.3,0.5,0c0.1-0.2,0.1-0.5-0.1-0.7c-0.2-0.2-0.3-0.1-0.5,0c-0.1,0.1-0.2,0.2-0.3,0.3c-0.3,0.2-0.7,0.3-0.8-0.1
		c-0.3-0.3,0.2-0.3,0.3-0.4c0.2-0.1,0.3-0.3,0.1-0.4c-0.5-0.3-0.9,0-1.4,0.1C386.5,284.9,386.5,285.2,386.6,285.5z M382,280
		c-0.1,0.5,0,0.8,0.7,0.6c0.5-0.2,1.1-0.3,1.7-0.1c0.5,0.2,0.9-0.1,1.4-0.3c0.2-0.1,0.3-0.2,0.3-0.3c0-0.2-0.2-0.3-0.3-0.2
		c-1,0.2-2.1-0.6-3.1,0.3C382.4,280.1,382.1,279.9,382,280z M356,294.2c0.4-0.3,0.6-0.9,0.6-1.9c0-0.6-0.5-0.5-0.9-0.9
		c0.2,0.5-0.2,0.9,0.3,1.2c0.2,0.1,0,0.2-0.1,0.3c-0.6,0.3-0.4,0.8-0.3,1.4c0.1,0.4,0.7,0.8,0.3,1.4
		C356.9,295,356.9,294.7,356,294.2z M302.3,291.2c0.2,0.4-0.3,1,0.3,1.4c0.1,0.1,0,0.2-0.1,0.3c-0.7,0.3-0.4,0.8-0.3,1.4
		c0.1,0.4,0.6,0.8,0.3,1.3c0.9-0.5,0.9-0.8,0.1-1.3C303.4,293.1,303,292.1,302.3,291.2z M385.3,272.1c-0.7-0.4-1.3-0.7-1.9-1
		c-0.2-0.1-0.4-0.2-0.5,0c-0.3,0.3-0.4,0.8-0.3,1.2c0.1,0.4,0.6,0.4,0.9,0.3C384.2,272.5,384.7,272.3,385.3,272.1z M331.8,272.1
		c-0.7-0.3-1.2-0.7-1.7-0.9c-0.2-0.1-0.4-0.3-0.6-0.1c-0.3,0.3-0.3,0.8-0.3,1.2c0,0.3,0.3,0.3,0.4,0.4
		C330.3,272.7,330.9,272.3,331.8,272.1z M383.8,259.8c0,0,0.2,0,0.3-0.1c0.3-0.1,0.7-0.2,0.7-0.6c0-0.3,0-0.6-0.3-0.7
		c-0.4-0.2-0.7-0.1-0.8,0.3c0,0.1-0.2,0.2-0.3,0.3c-0.2,0.2-0.5,0.2-0.3,0.5C383.1,259.8,383.4,259.8,383.8,259.8z M330.3,259.8
		c0,0,0.2,0,0.3-0.1c0.3-0.1,0.7-0.2,0.6-0.7c0-0.3-0.1-0.6-0.4-0.7c-0.4-0.2-0.7,0-0.8,0.3c0,0.1-0.2,0.2-0.3,0.3
		c-0.2,0.2-0.5,0.2-0.4,0.5S329.8,259.8,330.3,259.8z M303.4,281.5c0.1-0.3-0.1-0.6-0.5-0.6c-0.6,0-0.8,0.5-0.8,0.9s0.2,0.6,0.6,0.6
		C303.2,282.4,303.4,282.1,303.4,281.5z M376.1,297.6c0.8,0.2,1.5,0.3,2.2,0c0.2-0.1,0.3-0.2,0.3-0.4c0-0.3-0.2-0.3-0.4-0.3
		C377.4,296.8,376.8,297.1,376.1,297.6z M356.9,281.6c0-0.3,0.1-0.7-0.5-0.7c-0.6,0-0.8,0.4-0.8,0.9c-0.1,0.4,0.2,0.6,0.6,0.6
		C356.7,282.4,357,282.1,356.9,281.6z M322.6,297.6c0.8,0.2,1.4,0.3,2.1,0c0.3-0.1,0.4-0.2,0.3-0.4c-0.1-0.3-0.3-0.3-0.4-0.3
		C323.8,296.8,323.3,297.1,322.6,297.6z M393.4,278.1c-0.6,0.3-1.1,0.3-1.6,0c-0.3-0.2-0.4-0.1-0.7,0.1c-0.1,0.1-0.2,0.2-0.1,0.3
		c0.1,0.3,0.3,0.2,0.6,0.3c0.3,0.1,0.6,0.1,0.8,0.2C392.9,278.9,393.4,278.9,393.4,278.1z M339.3,270.3c-0.8-0.1-1.4-0.7-2.4-0.3
		c1.5,0.3,1.5,0.3,0.9,1.1C338.8,271.8,338.8,270.7,339.3,270.3z M328.6,277c0.3-0.1,0.4,0.3,0.6,0.5c0.4,0.5,1.1,0.6,1.5,0.3
		c0.1-0.1,0.3-0.2,0.2-0.3c0-0.2-0.2-0.2-0.3-0.2C329.9,277.2,329.2,277.1,328.6,277z M339.8,278.1c-0.6,0.3-1.1,0.3-1.6-0.1
		c-0.3-0.2-0.6,0-0.7,0.3c-0.2,0.3,0.2,0.3,0.4,0.4c0.3,0,0.7,0.1,1,0.2C339.4,278.9,339.8,278.9,339.8,278.1z M335.1,292.8
		c-0.3,0.2-0.8,0.1-0.6,0.3c0.2,0.3-0.1,0.9,0.6,0.9c0.5,0,0.7-0.3,0.8-0.7C335.9,292.9,335.4,293,335.1,292.8z M302.6,286.9
		c0-0.2,0-0.3,0-0.4c-0.1-0.3,0.2-0.7-0.3-0.6c-0.3,0-0.6,0.3-0.5,0.8c0,0.2,0.1,0.3,0.1,0.4c0.2,0.3,0.3,0.7,0.4,1
		C302.9,287.8,302.5,287.4,302.6,286.9z M391.5,271c1,0.8,0.9-0.4,1.3-0.8c-1.4-0.6-1.8-0.6-2.1-0.3c0.3,0.1,0.8-0.2,1.1,0.3
		C392,270.7,391.5,270.8,391.5,271z M355.9,288.2c0.4-0.6,0.3-1.3,0.3-1.9c0-0.2,0-0.3-0.2-0.3c-0.2-0.1-0.3,0.1-0.4,0.2
		c-0.5,0.4-0.1,0.9,0.1,1.3C355.8,287.6,356.1,287.9,355.9,288.2z M388.5,280.5c0.1,0,0.2,0,0.3,0c0.3,0,0.4-0.1,0.5-0.3
		s0-0.3-0.2-0.4c-0.5-0.1-1-0.4-1.4,0.1c-0.2,0.2,0,0.3,0.1,0.4s0.2,0.2,0.3,0.2C388.3,280.5,388.4,280.5,388.5,280.5z M335,280.5
		c0.3,0.1,0.7,0.2,0.7-0.3s-0.4-0.3-0.7-0.4c-0.2-0.1-0.3-0.1-0.5-0.1c-0.3,0-0.4,0.1-0.4,0.3c0,0.3,0.2,0.4,0.4,0.4
		C334.7,280.5,334.9,280.5,335,280.5z M384.8,268.9c-0.2,0-0.3,0-0.3,0.2c-0.1,0.3-0.2,0.5,0,0.8c0.3,0.3,0.5,0.7,0.8,0.8
		c0.2,0,0.4-0.2,0.2-0.3c-0.3-0.3-0.3-0.6-0.3-1C385.1,269.1,384.9,268.9,384.8,268.9z M382.6,277.1c0.3,0.8,1,1.1,1.6,0.8
		c0.2-0.1,0.3-0.2,0.3-0.4c0-0.2-0.2-0.2-0.3-0.2C383.6,277.3,383.1,277,382.6,277.1z M384.4,272.9c-0.3,0.1-0.8,0-0.8,0.5
		c-0.1,0.3,0.3,0.4,0.7,0.3c0.4,0,0.8-0.1,0.9-0.5C385.3,272.9,384.8,272.9,384.4,272.9z M330.7,269.6c0,0.4,0.3,0.8,0.8,0.9
		c0.2,0.1,0.3,0.1,0.4-0.1c0.1-0.1,0-0.3-0.1-0.3c-0.3-0.3-0.3-0.5-0.3-0.8c0-0.3-0.2-0.5-0.4-0.4
		C330.7,269,330.7,269.3,330.7,269.6z M388.6,292.9c-0.3,0.1-0.7,0.1-0.6,0.3c0.2,0.3-0.1,0.9,0.6,0.9c0.5,0,0.6-0.3,0.6-0.7
		C389.4,292.9,388.9,293,388.6,292.9z M330.9,272.9c-0.3,0-0.8,0-0.9,0.5c-0.1,0.3,0.3,0.4,0.7,0.3c0.3,0,0.8-0.1,0.9-0.5
		C331.7,272.9,331.3,272.9,330.9,272.9z M340.5,285.8c-0.4,0.1-0.8,0.2-1.1,0.2c-0.3,0.1-0.3,0.2-0.3,0.4c0,0.3,0.3,0.3,0.4,0.3
		c0.5,0,0.9,0,1.4,0C340.4,286.6,340.4,286.3,340.5,285.8z M328.4,239.8c0.3,0,0.4,0,0.7-0.1c0.2-0.1,0.4,0,0.3-0.3
		c0-0.3-0.3-0.2-0.4-0.3c-0.3-0.1-0.7-0.1-1-0.2c-0.3,0-0.4,0-0.5,0.3c-0.1,0.3,0.1,0.4,0.3,0.5
		C328.1,239.8,328.2,239.8,328.4,239.8z M382,239.8c0.3,0,0.5-0.1,0.7-0.1s0.4,0,0.3-0.3c0-0.2-0.2-0.2-0.3-0.2
		c-0.3-0.1-0.7-0.1-1.1-0.2c-0.3,0-0.4,0-0.4,0.3c-0.1,0.3,0.1,0.4,0.3,0.5C381.6,239.8,381.8,239.8,382,239.8z M394.6,286.6
		c-0.3-0.2-0.6-0.1-0.6-0.4c0-0.2,0.1-0.4-0.3-0.3c-0.3,0.1-0.8-0.1-1,0.3c-0.1,0.2,0,0.4,0.3,0.4
		C393.6,286.6,394,286.6,394.6,286.6z M382.9,268c0.3-0.2,0.7-0.2,0.8-0.6c0-0.1-0.1-0.4-0.3-0.3c-0.3,0.2-0.8,0.2-0.9,0.7
		C382.5,267.8,382.7,267.9,382.9,268z M329.3,267.9c0.3-0.2,0.8-0.2,0.8-0.7c0-0.2-0.1-0.3-0.3-0.3c-0.3,0.2-0.8,0.2-1,0.6
		C328.8,267.8,329.1,267.9,329.3,267.9z M323.5,300.4c-0.3,0-0.6,0.1-0.6,0.3c0,0.3,0.4,0.3,0.7,0.4c0.3,0,0.4-0.1,0.4-0.3
		C324,300.5,323.8,300.4,323.5,300.4z M394.9,276.2c0.3,0.3,0.4,0.7,0.9,0.6c0.1,0,0.5-0.3,0.3-0.7
		C395.6,275.7,395.3,276.5,394.9,276.2z M377,300.4c-0.2,0.1-0.5,0.1-0.5,0.3c0,0.3,0.4,0.4,0.7,0.4c0.3,0,0.4-0.1,0.4-0.4
		C377.6,300.5,377.3,300.4,377,300.4z M298.9,277.5L298.9,277.5c-0.1,0.8-0.1,1.5-0.1,2.3h0.1C298.9,279,298.9,278.3,298.9,277.5z
		 M396.3,274.9c0.2,0,0.4,0.1,0.3-0.3c-0.1-0.3-0.1-0.5-0.4-0.5c-0.3,0-0.6,0.2-0.6,0.4C395.6,275,396,274.8,396.3,274.9z
		 M329.5,265.5c-0.2,0.1-0.6,0-0.5,0.3c0.1,0.4,0.6,0.2,0.8,0.3c0.2,0.1,0.4,0,0.4-0.2C330.2,265.5,329.7,265.5,329.5,265.5z
		 M339.6,276.4c-0.2,0.1-0.5-0.1-0.5,0.2c0,0.4,0.4,0.3,0.7,0.3c0.2,0,0.5,0.1,0.5-0.3C340.2,276.3,339.8,276.5,339.6,276.4z
		 M329.7,299.4c-0.2,0-0.4,0-0.4,0.3c0,0.3,0.3,0.4,0.5,0.3c0.3,0,0.5,0,0.4-0.3C330.3,299.5,330.1,299.4,329.7,299.4z M390.9,280.1
		c0.3,0.3,0.8,0.2,1.2,0.3c0.2,0.1,0.3-0.1,0.3-0.3c0.1-0.2,0-0.3-0.3-0.3C391.8,280,391.3,279.8,390.9,280.1z M383.9,299.8
		c-0.1-0.3-0.3-0.3-0.5-0.3c-0.3,0-0.5,0-0.5,0.3c0,0.3,0.3,0.4,0.5,0.3C383.7,300.1,383.9,300.2,383.9,299.8z M323.6,299.1
		c0.2-0.1,0.5,0.1,0.6-0.3c0-0.3-0.2-0.3-0.3-0.3c-0.3,0-0.6,0.1-0.6,0.4C323.2,299.2,323.4,299.1,323.6,299.1z M337.4,280.1
		c0.3,0.3,0.8,0.2,1.2,0.3c0.2,0.1,0.2-0.2,0.3-0.3c0-0.2-0.1-0.3-0.3-0.2C338.2,280,337.7,279.8,337.4,280.1z M377.2,299.1
		c0.2-0.1,0.5,0.1,0.6-0.3c0-0.3-0.2-0.3-0.3-0.3c-0.3,0-0.6,0.1-0.6,0.4C376.8,299.2,377,299.1,377.2,299.1z M383,265.5
		c-0.2,0.1-0.5-0.1-0.4,0.3c0.1,0.3,0.6,0.2,0.8,0.3c0.2,0.1,0.4,0,0.3-0.2C383.7,265.5,383.3,265.5,383,265.5z M389.6,274.8
		c-0.5,0-0.8,0.3-0.9,0.7c0,0.2-0.1,0.3,0.2,0.4s0.3-0.1,0.3-0.3C389.1,275.2,389.3,275.1,389.6,274.8z M336.1,274.8
		c-0.7-0.1-0.8,0.3-1,0.8c-0.1,0.2-0.1,0.3,0.2,0.4s0.3-0.2,0.3-0.3C335.5,275.2,335.7,275.1,336.1,274.8z M392.8,280.9
		c-0.3-0.1-0.8-0.2-1.1,0c-0.1,0-0.1,0.2,0,0.3c0.3,0.1,0.7,0.2,1-0.1C392.8,281,392.8,281,392.8,280.9z M384.4,297.1
		c-0.1,0.2-0.4,0.1-0.5,0.3c0,0.3,0.3,0.3,0.4,0.3c0.3,0,0.4-0.1,0.4-0.3C384.8,297.2,384.8,297.1,384.4,297.1z M303,296.1
		c0-0.3-0.2-0.3-0.3-0.3c-0.3,0-0.4,0.1-0.4,0.3c0,0.2,0,0.3,0.3,0.3C302.7,296.5,302.9,296.5,303,296.1z M339.2,280.9
		c-0.4,0-0.8-0.3-1.1,0c-0.1,0.1-0.1,0.2,0,0.3c0.3,0.1,0.7,0.2,1-0.1C339.1,281,339.1,281,339.2,280.9z M334.2,292.4
		c0.3,0.3,0.5,0.3,0.8,0.2c0.2,0,0.4,0,0.3-0.3c-0.1-0.3-0.3-0.2-0.4-0.2C334.6,292.3,334.5,292.3,334.2,292.4z M387.8,292.4
		c0.1,0.2,0.3,0.2,0.4,0.2c0.3,0,0.5,0,0.7-0.2c0-0.1,0-0.2,0-0.3c-0.3-0.3-0.4,0-0.7,0.1C388,292.3,388,292.3,387.8,292.4z
		 M374.1,241.3c-0.2-0.2-0.2-0.5-0.5-0.4c-0.2,0-0.3,0.1-0.3,0.3c0,0.3,0.3,0.4,0.5,0.4C373.9,241.5,374,241.4,374.1,241.3z
		 M330.3,297.4c0.3,0.3,0.4,0.5,0.8,0.3c0.2-0.1,0.2-0.3,0.1-0.4C330.7,296.9,330.6,297.3,330.3,297.4z M394.4,271.2
		c-0.4-0.1-0.8-0.1-1,0.2c-0.1,0.1,0,0.3,0.2,0.3C393.9,271.8,394.1,271.5,394.4,271.2z M319.9,240.9c-0.1,0-0.3,0-0.3,0.3
		c0.1,0.3,0.3,0.4,0.5,0.4c0.2,0,0.3-0.1,0.3-0.2C320.4,241.1,320.3,240.9,319.9,240.9z M395.6,273c0.3,0.5,0.7,0.6,1.1,0.4
		C396.5,273.2,396.1,273,395.6,273z M356.5,296.1c0-0.3-0.3-0.3-0.4-0.3c-0.3,0-0.3,0.2-0.3,0.4c0,0.2,0.1,0.3,0.3,0.2
		C356.3,296.4,356.5,296.4,356.5,296.1z M335.1,277.3c-0.2,0.1-0.3,0.3-0.3,0.3c0,0.2,0.1,0.3,0.3,0.3c0.2,0,0.4-0.2,0.4-0.3
		C335.6,277.4,335.3,277.3,335.1,277.3z M398,276.2c-0.3-0.1-0.7-0.3-1.1-0.2C397.5,276.6,397.5,276.6,398,276.2z M389.1,277.7
		c-0.1-0.2-0.2-0.3-0.3-0.3c-0.3-0.1-0.3,0.2-0.3,0.3c0,0.2,0.1,0.3,0.3,0.3C388.9,278,389,277.8,389.1,277.7z M343.3,281
		c-0.3-0.5-0.6-0.5-1.1-0.2C342.5,281,343,281.1,343.3,281z M388.3,274.4c-0.1-0.2-0.2-0.4-0.4-0.4c-0.2,0-0.3,0-0.3,0.2
		c0,0.3,0.2,0.4,0.4,0.4C388.1,274.6,388.3,274.6,388.3,274.4z M352.3,279.8C352.4,279.8,352.4,279.8,352.3,279.8
		c0.1-0.8,0.1-1.5,0.1-2.3h-0.1C352.3,278.3,352.3,279,352.3,279.8z M334.7,274.4c-0.1-0.3-0.2-0.4-0.4-0.3c-0.2,0-0.3,0.1-0.3,0.3
		c0.1,0.3,0.3,0.3,0.5,0.3C334.6,274.6,334.7,274.6,334.7,274.4z M392.7,275c0-0.2-0.1-0.3-0.3-0.3s-0.4-0.1-0.4,0.2
		c0,0.2,0.2,0.2,0.3,0.2C392.4,275.1,392.6,275.1,392.7,275z M356.1,285.2c0-0.2-0.1-0.3-0.3-0.3s-0.2,0.2-0.2,0.3s0,0.2,0.2,0.2
		S356.1,285.3,356.1,285.2z M355.6,284.6c0.1,0,0.2-0.1,0.2-0.2c0-0.2-0.1-0.3-0.3-0.3s-0.2,0.1-0.2,0.2
		C355.4,284.4,355.5,284.5,355.6,284.6z"/>
	<path class="st1" d="M281.3,305.6c-2.4,0-4.7,0-7.1,0c-1.8,0-2.6-0.8-2.3-2.5c0.2-0.8,0-1.7,0.1-2.5c0.3-1.5,0.1-3.1,0.3-4.7
		c0.2-1.6,0.2-3.3,0.3-4.9c0.1-1.6,0.2-3.3,0.3-4.9c0.1-1.6,0.2-3.3,0.3-4.9c0.1-0.6-0.1-0.8-0.7-0.7c-4.2,0.3-8.3,1.2-12.4,2.5
		c-0.3,0.2-0.4,0.3-0.4,0.7c-0.1,3.5-0.1,7-0.2,10.4s-0.2,6.8-0.3,10.3c0,1.1-0.5,1.7-1.6,1.8c-1.9,0.1-3.9,0.1-5.8,0.2
		c-3,0.1-6,0.1-9,0.2c-1.9,0-2.4-0.7-2.4-2.4c0.3-5,0.8-9.9,1.1-14.8c0.3-4.1,0.6-8.3,0.9-12.3c0.3-5,0.8-9.9,1.1-14.8
		c0.3-4.1,0.6-8.3,0.9-12.3c0.1-1.1,0.2-2.3,0.3-3.4c0.1-1.3,0.7-1.9,2-1.9c1.4,0,2.9-0.1,4.3-0.1c2.7-0.1,5.5-0.1,8.2-0.2
		c1.8,0,2.4,0.7,2.3,2.4c-0.3,5-0.8,9.9-1.1,14.8c-0.2,1.9-0.3,3.6-0.4,5.5c0,0.3,0.1,0.4,0.4,0.4c0.8-0.1,1.7-0.1,2.5-0.1
		c0.4,0,0.8-0.1,1.2,0.3c0.2,0.3,0.4,0.1,0.5-0.3c0.1-0.2,0.3-0.1,0.3-0.1c2.7-0.1,5.4-0.3,8.1-0.3c0.4,0,0.6-0.2,0.6-0.6
		c0.2-5,0.3-9.9,0.5-14.8c0.3-7.5,0.5-15,0.8-22.4c0.1-1.4,0.1-2.9,0.2-4.3c0.1-1.5,0.6-2.1,2.1-2.1c4.4,0,8.8,0,13.2,0
		c1.6,0,2.3,0.8,2.2,2.4c-0.6,7.8-0.8,15.4-1.1,23.2c-0.2,5-0.3,9.9-0.4,14.9c-0.2,5.7-0.3,11.5-0.4,17.3c-0.1,2.6-0.1,5.2-0.2,7.8
		c-0.1,5.1-0.1,10.2-0.1,15.3c0,1.4-0.5,2-2,2C286.2,305.6,283.7,305.6,281.3,305.6z M251.2,247.8c0.4,0.3,0.9,0.4,1.3,0.3
		c1.3-0.4,2.6-0.1,3.9-0.1c0.8,0,1.7-0.2,2.4,0.3c0.1,0.1,0.3,0.1,0.4-0.1c0.1-0.3-0.1-0.3-0.3-0.3c-0.3-0.2-0.7-0.2-1-0.3
		c-1.3-0.3-2.8,0-4.1,0.1c-0.3,0-0.6,0.1-0.8-0.2c-0.3-0.3-0.6-0.3-0.8-0.1C252,247.6,251.6,247.7,251.2,247.8z M268.1,272.6
		c0.4,0.1,0.7,0.3,0.9,0.4c0.8,0.3,1.4,0.8,2.3,0.8c0.3,0,0.6,0.2,0.7-0.2c0.1-0.3-0.3-0.5-0.6-0.6c-0.2-0.1-0.4,0-0.7,0
		s-0.5,0-0.6-0.2c0.3-0.8,1.3,0.2,1.6-0.7C270.6,272,269.3,271.9,268.1,272.6z M251.2,282.1c-0.3,0.2-0.9,0-1.1,0.4
		c-0.1,0.3,0.3,0.8,0.7,0.8c0.4,0,0.9-0.3,1-0.8C251.9,282.2,251.6,282.1,251.2,282.1z M289.2,279.8c-0.2-0.3,0.3-0.9-0.3-0.9
		c-0.7,0-0.3,0.6-0.3,0.9c0,0.3-0.3,0.9,0.3,0.9C289.5,280.6,289,280,289.2,279.8z M285.4,293.9c0.1,0,0.1,0,0.2,0
		c0.3-0.1,0.6,0.2,0.8-0.2c0.1-0.1,0-0.2,0-0.3c-0.3-0.3-0.5-0.2-0.8-0.1c-0.2,0.1-0.4,0.2-0.4-0.3c0-0.3-0.3-0.3-0.4-0.3
		c-0.3,0-0.3,0.2-0.2,0.3C284.6,293.8,284.8,294.1,285.4,293.9z M273.5,270.7c-0.4,0.1-0.8,0.2-1.3,0c-0.3-0.1-0.6,0.3-0.8,0.4
		c-0.1,0.1-0.1,0.3,0,0.3c0.2,0.3,0.4,0.1,0.7,0.1C272.9,271.5,273.2,271,273.5,270.7z M275.9,301.9c-0.5,0.2-0.8,0.2-1.3,0.1
		c-0.4-0.1-0.5,0.3-0.6,0.7c-0.1,0.2,0.1,0.3,0.2,0.3C274.7,302.6,275.5,302.8,275.9,301.9z M249.8,248.8c-0.6-0.1-0.3-1.3-1.2-0.7
		c-0.3,0.2-0.3,0.7-0.1,0.9C248.9,249.4,249.3,249,249.8,248.8z M279.2,273.2c-0.5-0.3-0.9-0.2-1.3-0.3c-0.2-0.1-0.3,0-0.4,0.3
		s0.2,0.3,0.3,0.3C278.3,273.5,278.7,273.5,279.2,273.2z M257.5,257.5c0.1-0.3-0.3-0.3-0.3-0.7c0.1-0.3-0.1-0.4-0.3-0.4
		c-0.3,0.1-0.5,0.1-0.6,0.4c-0.1,0.3,0.1,0.4,0.3,0.5C256.9,257.4,257.2,257.6,257.5,257.5z M284.7,298.8c0-0.2-0.1-0.3-0.2-0.3
		c-0.3,0.2-0.7,0.3-0.9,0.6c0.3,0.2,0.3,0.6,0.5,0.5C284.4,299.4,284.6,299.1,284.7,298.8z M280.4,294.4c0.4,0.6,1,0.3,1.4,0.2
		c0.2,0,0.2-0.3,0.1-0.3s-0.3-0.2-0.3-0.2C281.4,294.6,280.8,294.1,280.4,294.4z M276.3,304.4c0.2,0,0.5,0,0.5-0.2
		c0.1-0.3-0.3-0.2-0.4-0.3c-0.2-0.1-0.3-0.2-0.4-0.3c-0.2-0.1-0.3-0.3-0.5,0c-0.2,0.3,0,0.3,0.2,0.5
		C275.8,304.3,276.1,304.4,276.3,304.4z M251.4,295.8c0.3,0,0.6,0.1,0.6-0.3c0-0.4-0.4-0.3-0.8-0.4c-0.3,0-0.5,0.1-0.5,0.3
		C250.8,295.9,251.1,295.8,251.4,295.8z M253.2,293.1c-0.3-0.1-0.4-0.2-0.7-0.2c-0.3-0.1-0.5,0-0.7,0.3c0,0.1-0.1,0.2,0,0.2
		c0.3,0.2,0.5,0.3,0.8,0.2C252.8,293.5,253.1,293.3,253.2,293.1z M266.9,270.7c0-0.3-0.2-0.3-0.3-0.3c-0.3,0.1-0.7,0-0.7,0.4
		c0,0.3,0.2,0.5,0.3,0.5C266.5,271.3,266.8,271,266.9,270.7z M244.2,297.5c-0.2,0-0.4,0-0.3,0.2c0.2,0.3,0.5,0.3,0.8,0.4
		c0.2,0,0.5-0.1,0.4-0.3C244.9,297.5,244.5,297.6,244.2,297.5z M272.8,275.9c-0.5,0.1-0.8-0.3-1.3,0c-0.2,0.1,0,0.3,0.1,0.3
		C272.1,276.4,272.4,276.4,272.8,275.9z M284.7,303.7c-0.3-0.1-0.6-0.5-0.9-0.3c-0.2,0.1-0.2,0.3,0,0.4
		C284.1,304.1,284.4,303.8,284.7,303.7z M281.1,277.2c0.3,0,0.5,0.1,0.6-0.2c0-0.3-0.3-0.3-0.6-0.3s-0.6-0.2-0.6,0.2
		C280.4,277.3,280.9,277,281.1,277.2z M255.8,291.1c-0.2,0-0.3,0.1-0.3,0.3c0,0.2,0,0.5,0.3,0.5c0.2,0,0.4-0.2,0.4-0.4
		C256.2,291.2,255.9,291.2,255.8,291.1z M274,276.2c0.3,0.1,0.6,0.3,0.9,0.1c0.1-0.1,0.1-0.3,0-0.3c-0.3-0.1-0.6-0.2-0.9,0.1
		C274,276,274,276,274,276.2z M255.6,282.1c0.2-0.1,0.5,0.1,0.5-0.3c0-0.2-0.2-0.2-0.3-0.2c-0.3,0-0.5,0.1-0.6,0.3
		C255.3,282.2,255.4,282.1,255.6,282.1z M284.1,296.1c-0.2-0.1-0.2-0.2-0.3-0.2c-0.3,0-0.5-0.3-0.8-0.1c-0.1,0.1-0.2,0.2-0.1,0.3
		c0.3,0.2,0.5,0.3,0.8,0.2C283.9,296.3,284,296.2,284.1,296.1z M266.9,268.5c-0.2-0.3-0.4-0.3-0.7-0.3c-0.1,0-0.3,0.1-0.2,0.3
		c0.2,0.3,0.4,0.3,0.7,0.3C266.8,268.7,266.9,268.6,266.9,268.5z M255.8,287.5c-0.6-0.3-0.8,0-1.1,0.4
		C255.2,287.9,255.4,287.7,255.8,287.5z M279.6,284.8c-0.1-0.2-0.3-0.3-0.5-0.3c-0.2,0-0.3,0-0.2,0.3c0.1,0.3,0.2,0.3,0.4,0.3
		C279.4,285,279.5,285,279.6,284.8z M281.6,292.5c0,0.3-0.1,0.6,0.3,0.8c0.1,0,0.3,0,0.3-0.2C282.1,292.8,282,292.6,281.6,292.5z"/>
	<path class="st1" d="M225.3,266c-2.2,0-4.5,0-6.7,0c-2.1,0-3-1.2-2.5-3.3c0.8-3.3,1.8-6.5,2.1-9.9c0.1-0.8,0.2-1.8-0.1-2.6
		c-0.3-1.2-1.2-1.9-2.4-1.9c-1.9,0.1-3.2,1.1-4.3,2.4c-2,2.4-3.3,5.2-4.3,8.1c-1.9,5.2-2.9,10.7-3.4,16.3c-0.3,4.6-0.1,9.2,1,13.6
		c0.3,0.8,0.5,1.6,0.9,2.4c1.3,2.5,3.9,3.5,6.6,2.7c1.9-0.6,3.4-1.8,4.7-3.3c2.4-2.9,4.3-6.3,6.2-9.6c0.2-0.3,0.3-0.7,0.6-1
		c0.8-1.2,2.4-1.4,3.3-0.4c2.2,2.4,4.3,4.8,6.4,7.2c0.7,0.8,0.7,1.7,0.3,2.5c-2.4,4.9-5.1,9.7-8.9,13.6s-8.3,6.9-13.7,7.7
		c-6.8,1-13.1-0.2-18.3-5.1c-2.9-2.8-4.8-6.2-6.2-9.9c-1.7-4.3-2.5-8.8-2.8-13.4c-0.4-8.3,0.5-16.3,3.3-24
		c2.5-7.2,6.5-13.6,11.9-19.1c3.9-4,8.7-5.9,14.2-6.3c3.9-0.3,7.6,0,11.2,1.4c6.2,2.4,9.7,7,11.4,13.3c1.2,4.4,0.8,8.8,0.1,13.1
		c-0.2,1.2-0.5,2.4-0.8,3.5c-0.3,1.4-0.8,1.8-2.3,1.8C230.1,266,227.7,266,225.3,266z M225.9,252.4c0.5-0.3,1.1-0.4,1.6-0.7
		c0.3-0.2,0.2-0.4,0-0.6c-0.3-0.4-0.8-0.8-1.3-0.6c-0.5,0.2-0.8,0.7-0.8,1.3C225.3,252.1,225.4,252.4,225.9,252.4z M197.6,256.4
		c0.1-1.2-0.3-1.9-1.1-2.4c-0.1-0.1-0.1-0.3-0.3-0.3c-0.2,0.1-0.3,0.3-0.3,0.4s0.1,0.3,0.3,0.3c1.2,0.2,0.8,0.8,0.3,1.3
		c-0.1,0.1-0.1,0.2-0.1,0.3c-0.1,0.3-0.1,0.6,0.3,0.5c0.2,0,0.3,0,0.4,0C197.6,257,197.5,256.5,197.6,256.4z M223.6,235
		c-0.3-0.2-0.3-0.3-0.4-0.3c-0.3,0-0.8-0.3-0.8,0.2c-0.2,0.8-0.8,1-1.3,1.2c-0.4,0.1-0.9,0.3-0.9-0.4c0-0.3-0.3-0.3-0.4-0.2
		c-0.5,0.2-0.8,0.3-0.3,0.9c0.3,0.4,0.7,0.6,1.1,0.7c0.3,0.1,0.2-0.3,0.3-0.6c0.1-0.3,0.3-0.3,0.6-0.3
		C222.1,236.1,222.5,235.1,223.6,235z M222.7,252.9c0.4-0.1,0.8-0.3,1.2-0.5c0.3-0.2,0.3-0.3,0.1-0.5c-0.2-0.2-0.3-0.7-0.8-0.3
		c-0.3,0.3-0.6,0.3-0.9,0.4c-0.3,0.1-0.7-0.1-0.7,0.4c0,0.4,0.4,0.3,0.8,0.4C222.5,252.8,222.7,252.8,222.7,252.9z M227.8,253.1
		c-0.6,0.2-1.1,0.3-1.5-0.3c-0.1-0.1-0.3-0.1-0.3,0c-0.3,0.3-0.5,0.7-0.3,1c0.2,0.3,1.3,0.6,1.4,0.4c0.1-0.1,0.2-0.2,0.2-0.3
		C226.9,253.6,227.5,253.4,227.8,253.1z M196.1,261.4c0-0.1,0.1-0.2,0.1-0.3c-0.3-0.3-0.7-0.7-1.1-0.9c-0.3-0.3-0.8-0.4-0.7,0.3
		c0,0.3,0,0.4-0.3,0.3c-0.3-0.1-0.4,0-0.5,0.2c0,0,0.1,0.2,0.1,0.3c0.2,0.3,0.4,0.2,0.6,0.1C194.8,261,195.4,260.8,196.1,261.4z
		 M221.6,234.7c-0.2-0.2-1.7-0.6-1.9-0.5c-0.2,0-0.3,0.2-0.3,0.3c-0.1,0.3,0.1,0.3,0.3,0.3c0.3,0.2,0.5,0.3,0.8,0.2
		C220.8,234.9,221.1,234.8,221.6,234.7z M218.1,244.9c0.3,0.1-0.3,0.6,0.3,0.7c0.5,0,0.6-0.3,0.5-0.7c0-0.3,0.2-0.7-0.4-0.7
		S218.2,244.6,218.1,244.9z M222.9,248.7c-0.2,0.5-0.1,0.7,0.2,0.8c0.3,0.1,0.3-0.3,0.4-0.4c0.2-0.3,0.3-0.5,0.1-0.8
		c-0.1-0.2-0.3-0.3-0.5-0.2C222.7,248.3,223,248.7,222.9,248.7z M185,276.4c0-0.3,0.1-0.6-0.3-0.6c-0.6,0-0.3,0.5-0.4,0.8
		c-0.1,0.2,0.1,0.6,0.3,0.6C184.9,277.2,185.1,276.8,185,276.4z M194.7,257.8c0.4,0.2,0.5,0,0.6-0.3c0.1-0.3-0.3-0.3-0.4-0.3
		c-0.3,0-0.5,0-0.8,0c-0.2,0-0.3,0-0.4,0.2c0,0.3,0.2,0.3,0.3,0.3C194.3,257.7,194.6,257.8,194.7,257.8z M186.9,289.9
		c-0.3,0-0.8,0-0.8,0.5c0,0.3,0.3,0.3,0.4,0.3c0.4,0,0.8-0.3,0.9-0.6C187.5,289.8,187.1,289.9,186.9,289.9z M191.4,268.1
		c0.1,0.8,0.8,0.4,1.2,0.7c0.1,0.1,0.3,0.1,0.3-0.1c0-0.2,0-0.3-0.2-0.3C192.3,268,191.9,268,191.4,268.1z M193.2,259.9
		c0-0.3-0.3-0.5-0.6-0.5c-0.2,0-0.4-0.1-0.4,0.2c0,0.3,0.2,0.7,0.5,0.8C193.1,260.5,193.2,260.2,193.2,259.9z M213.3,245.8
		c-0.8-0.3-0.7,0.6-1,0.9c-0.1,0.1,0,0.3,0.2,0.3c0.5,0,0.5-0.4,0.7-0.7C213.2,246.1,213.2,246,213.3,245.8z M196.8,261.7
		c-0.2,0.3-0.3,0.6-0.3,0.9c0,0.2,0.1,0.4,0.3,0.4c0.3,0,0.3-0.3,0.3-0.5C197.1,262.3,197,261.9,196.8,261.7z M211.3,236.3
		c0,0-0.3-0.1-0.3,0.2c0.1,0.3,0.4,0.4,0.7,0.6c0.2,0.1,0.3-0.2,0.3-0.3C211.9,236.6,211.9,236.1,211.3,236.3z M226.9,249.1
		c-0.4,0.1-0.8-0.3-1.2,0.2c-0.1,0.1,0,0.3,0.2,0.3C226.2,249.6,226.7,250,226.9,249.1z M216.1,307.4c0.5-0.5,0.8-0.9,0.6-1.4
		C216.4,306.4,216.2,306.8,216.1,307.4z M207.6,235.4c0.3,0.2,0.3,0.7,0.8,0.5c0.2-0.1,0.2-0.3,0.1-0.3
		C208.2,235.1,207.9,235.5,207.6,235.4z M193,264.2c0.3-0.1,0.7,0.2,0.7-0.3c0-0.2,0-0.3-0.2-0.4C193,263.5,193.2,263.9,193,264.2z
		 M190,264.6c0.2-0.1,0.4-0.2,0.5-0.4c0-0.2-0.2-0.3-0.3-0.3c-0.3,0-0.5,0.2-0.5,0.4C189.5,264.5,189.8,264.5,190,264.6z M225.5,282
		c0.2-0.1,0.3-0.3,0.3-0.4c0-0.3-0.3-0.3-0.4-0.3c-0.3,0-0.2,0.2-0.2,0.3C225.3,281.7,225.3,281.9,225.5,282z M196.9,269.9
		c-0.5,0.6-0.3,1.2,0,1.8C197,271.1,197,270.5,196.9,269.9z M191.8,266.1c0.2,0,0.3-0.1,0.3-0.3c0-0.2-0.2-0.3-0.3-0.3
		c-0.2,0-0.3,0-0.3,0.3C191.5,266,191.6,266.1,191.8,266.1z M211.5,237.7c-0.1-0.1-0.1-0.3-0.3-0.3c-0.2,0-0.3,0.1-0.3,0.3
		c0,0.3,0.3,0.2,0.4,0.3C211.4,238,211.5,238,211.5,237.7z M193.8,256c-0.2,0-0.3,0.1-0.2,0.3c0,0.3,0.3,0.3,0.4,0.4
		c0.2,0,0.3-0.1,0.3-0.3C194.3,256.2,194.1,256.1,193.8,256z"/>
	<path class="st1" d="M190.6,136.4c6.1,0.1,12.2,0.3,18.3,0.3c3,0.1,6.1,0.1,9.2,0.1c6.3,0,12.6,0,19,0c4.5,0,9,0.1,13.6,0.1
		c1.8,0,2.7,1.1,2.5,2.9c-0.5,4.5-1,9.1-1.4,13.6c-0.2,1.5-0.8,2.3-2.4,2.4c-4.2,0.3-8.4,0.6-12.6,0.9c-5.1,0.3-10.3,0.8-15.4,1.1
		c-0.8,0.1-1.6,0.2-2.4,0.2c-0.4,0-0.5,0.2-0.6,0.5c-0.7,3-1.3,6.2-1.7,9.2c0,0.3,0,0.5-0.3,0.7c-0.3,0.1-0.3,0.4-0.1,0.6
		c0.3,0.3,0.2,0.7,0.2,1c-0.8,5.4-1.3,10.9-1.9,16.3c-0.4,4.4-0.6,8.8-0.7,13.2c-0.2,6.4-0.3,12.9-0.5,19.3c0,1-0.1,2.1-0.1,3.1
		c-0.1,1.3-0.8,2.1-2.3,2.1c-3.8,0-7.6,0.1-11.5,0.1c-2.2,0-3.1-1.1-2.9-3.3c0.3-3.7,0.5-7.3,0.8-11c0.3-5.1,0.8-10.4,1.1-15.5
		c0.3-3.6,0.6-7.2,0.9-10.9c0.4-4.2,0.9-8.3,1.4-12.5c0.6-4.8,1.2-9.5,1.9-14.3c0.1-0.7-0.2-0.7-0.7-0.7c-4.9,0.5-9.8,0.9-14.7,1.4
		c-0.3,0-0.4,0.1-0.7,0.1c-1.5,0.3-2.9-0.8-2.8-2.4c0.1-1.8,0.3-3.5,0.3-5.2c0.3-3.6,0.6-7.2,0.8-10.8c0.2-2.1,0.9-2.8,3-2.8
		C188.8,136.3,189.7,136.3,190.6,136.4C190.6,136.3,190.6,136.4,190.6,136.4z M190.7,151.5c0.4-0.1,0.8-0.3,0.8-0.8
		c-0.1-0.3-1-0.7-1.3-0.6c-0.3,0.2-0.4,0.4-0.5,0.8c0,0.4,0.3,0.4,0.5,0.4C190.4,151.4,190.6,151.3,190.7,151.5
		c-0.1,0.2-0.2,0.1-0.3,0.1c-0.3-0.1-0.4,0.2-0.3,0.3c0.3,0.2,0.7,0.1,1-0.1C191.1,151.6,190.7,151.9,190.7,151.5z M198,154.9
		c0.4,0.1,0.7,0,0.8-0.2c0.2-0.2,0.3-0.4,0.1-0.5c-0.6-0.2-1.3-0.4-1.9-0.3c-0.2,0.1-0.4,0.3-0.4,0.4c0,0.3,0.3,0.2,0.5,0.3
		C197.4,154.7,197.7,154.8,198,154.9z M211.9,174.4c-0.2-0.1-0.3-0.2-0.5-0.2c-0.5-0.2-0.8,0.3-1.1,0.4c-0.1,0-0.2,0.2,0,0.3
		c0.3,0.3,0.6,0.3,0.9,0.2c0.3-0.1,1,0.4,0.9-0.4c0.3,0,0.6,0,0.9,0c-0.2-0.4-0.4-0.7-0.8-0.9C212.1,174,212,174.1,211.9,174.4z
		 M214.6,168.7L214.6,168.7c-0.4-0.2-0.8-0.2-1.2-0.3c-0.3,0-0.5,0-0.6,0.3c-0.1,0.3,0.1,0.4,0.3,0.6
		C213.7,169.7,214.2,169.4,214.6,168.7z M194.3,152.7c-0.4,0-0.6,0.3-0.6,0.7c0,0.4,0.4,0.5,0.8,0.5s0.7-0.2,0.6-0.6
		C195.1,152.6,194.6,152.9,194.3,152.7z M203.5,214.9c-0.1,0.3-0.1,0.5-0.2,0.8c-0.1,0.3-0.1,0.5,0.3,0.4c0.3,0,0.5,0.2,0.7-0.1
		c0.2-0.3-0.1-0.5-0.3-0.7C203.9,215.2,203.8,215,203.5,214.9z M214.7,157.4c-0.2,0.3-0.3,0.8-0.3,1.1c0.2,0.3,0.7,0.2,1,0.1
		C215.5,158,215.2,157.7,214.7,157.4z M197.1,150.3c-0.3-0.1-0.3,0.1-0.3,0.3c0,0.3,0.1,0.5,0.4,0.4c0.3,0,0.6,0,0.5-0.4
		C197.8,150.2,197.5,150.4,197.1,150.3z M204,206c-0.2,0-0.4-0.2-0.4,0.2c0,0.3,0,0.6,0.4,0.7c0.3,0,0.8-0.1,0.7-0.5
		C204.7,205.9,204.2,206.1,204,206z M210.9,139.4c0.1-0.2,0.1-0.3-0.1-0.3c-0.3,0-0.4,0.3-0.4,0.5c0,0.3,0.1,0.8,0.4,0.7
		C211.6,140.2,210.8,139.7,210.9,139.4z M221.6,139.8c0.3,0,0.6-0.1,0.6-0.4c0-0.5-0.5-0.3-0.8-0.4c-0.3-0.1-0.3,0.3-0.3,0.4
		C221.1,139.8,221.4,139.9,221.6,139.8z M214.7,149.7c0.1,0.2,0.2,0.3,0.2,0.3c0.1,0.3,0.3,0.4,0.6,0.3c0.2-0.1,0.4-0.2,0.3-0.3
		c-0.1-0.3-0.4-0.3-0.7-0.3C215.1,149.7,215,149.7,214.7,149.7z M200.1,196.3c-0.3-0.3-0.5-0.4-0.3-0.8c0-0.1-0.1-0.2-0.3-0.1
		c-0.3,0.2-0.3,0.4-0.3,0.7c0.1,0.3,0.2,0.5,0.4,0.5C199.8,196.5,199.9,196.5,200.1,196.3z M219.7,139.1c0.4,0.3,0.6,0.6,1,0.5
		c0.2-0.1,0.3-0.4,0.1-0.5C220.5,138.8,220.1,139,219.7,139.1z M202.3,149.8c0.2,0,0.3,0,0.3-0.2c0-0.3-0.2-0.3-0.3-0.3
		c-0.2,0-0.3,0.1-0.3,0.3C202,149.7,202.1,149.8,202.3,149.8z M199,153.4c0.1,0.3,0.1,0.6,0.5,0.5c0.1,0,0.3-0.3,0.3-0.4
		C199.5,153.1,199.2,153.4,199,153.4z"/>
	<path class="st1" d="M147.5,188.1c0.3-1.9,0.6-3.7,0.8-5.5c1.1-7,2.2-14,3.4-21c0.8-5.1,1.6-10.1,2.4-15.2c0.3-1.4,1.3-2.2,2.6-1.8
		c4.3,1.2,8.7,2.4,13,3.5c0.4,0.1,0.4,0.3,0.5,0.7c0.2,1.7-0.3,3.3-0.5,4.9c-0.8,5.7-1.7,11.4-2.6,17.1c-0.9,6-1.9,12-2.7,18
		c-0.9,6.3-1.9,12.6-2.9,19c-0.1,0.4,0,0.8-0.6,1.1c-0.3,0.1-0.3,0.5-0.4,0.8c-0.2,0.5,0.3,0.4,0.5,0.5c0.3,0.1,0.1,0.3,0.1,0.4
		c-0.8,5.2-1.7,10.4-2.5,15.6c-0.2,1.1-0.8,1.7-1.9,1.8c-3.8,0.5-7.6,0.9-11.3,1.4c-1.4,0.2-2.1-0.3-2.5-1.5
		c-4.6-13.5-9.2-27-13.8-40.4c-1.7-5.1-3.3-10.1-5-15.1c0.1-0.2,0.3-0.2,0.3-0.2c0.2,0,0.4,0,0.4-0.3s-0.2-0.3-0.4-0.3
		c-0.5,0.2-0.6-0.2-0.7-0.5c-1.9-5.6-3.8-11.4-5.6-17c-0.3-0.7-0.3-1.4,0-2.1c0.3-0.8,1-1.2,1.9-1.3c2.4-0.3,4.8-0.6,7.2-0.9
		c1.3-0.2,2.8-0.3,4.1-0.5c1.6-0.3,2.3,0.2,2.9,1.7c0.8,2.4,1.7,4.8,2.6,7.2c0.1,0.3,0.4,0.6-0.2,0.7c-0.2,0-0.2,0.3-0.1,0.3
		c0.1,0.2,0.2,0.2,0.3,0.2c0.6,0,0.7,0.3,0.4,0.7c0,0.1-0.2,0-0.1,0.2c1.3,1.4,1.4,3.3,2.1,5c2.7,7.4,5.3,14.8,8,22.2
		C147.3,187.7,147.4,187.9,147.5,188.1z M130.5,161.8c-0.8-0.1-1.6,0.2-2.4,0.4c-0.2,0.1-0.5,0.3-0.2,0.4c0.4,0.2,1,0.4,1.3,0.3
		c0.8-0.6,1.7-0.5,2.5-0.8c0.2-0.1,0.4,0,0.3-0.3c-0.1-0.2-0.3-0.3-0.4-0.2C131.2,162,130.8,161.8,130.5,161.8z M134.2,160.9
		c0-0.2-0.1-0.3-0.2-0.3c-0.5,0.1-0.8-0.1-0.8-0.6c0-0.1-0.1-0.2-0.3-0.2c-0.2,0.1-0.3,0.1-0.3,0.3c-0.1,0.1,0,0.2,0.1,0.3
		c0.4,0.1,0.3,0.4,0.3,0.7c0.1,0.2,0,0.5,0.3,0.4C133.7,161.2,134,161.2,134.2,160.9z M154.7,208.8c-0.3,0.1-0.6,0.1-0.6,0.4
		c0.1,0.4,0.3,0.7,0.8,0.7c0.2,0,0.5-0.1,0.4-0.4C155.3,209,155,208.8,154.7,208.8z M132.3,163.3c0-0.4-0.3-0.3-0.4-0.3
		c-0.3,0.1-0.8-0.1-0.8,0.4c0,0.3,0.3,0.5,0.5,0.4C131.9,163.8,132.2,163.8,132.3,163.3z M125.1,160.6c-0.4-0.2-0.8-0.2-1.3,0
		c-0.2,0.1-0.3,0.2-0.1,0.4C124.4,161.5,124.7,160.9,125.1,160.6z M129.5,168c0.5,0.1,0.9,0,1.4-0.2c-0.4-0.1-0.2-0.8-0.8-0.6
		C129.9,167.2,129.5,167.5,129.5,168z M155.3,196c-0.7-0.2-1.1,0.1-1.6,0.2c-0.2,0-0.3,0-0.3,0.3c0,0.2,0.2,0.3,0.3,0.3
		C154.3,196.6,154.7,196.4,155.3,196z M127.6,161.4c0.3,0,0.3-0.6,0.8-0.5c0.1,0,0.3-0.2,0.3-0.3c0-0.2-0.2-0.2-0.3-0.3
		c-0.4-0.2-0.7,0.1-0.8,0.4C127.3,161.1,127.3,161.3,127.6,161.4z M137.2,168.8c-0.1,0.5-0.1,0.8,0.4,1c0.3,0.1,0.5-0.3,0.5-0.4
		C138,168.9,137.6,169,137.2,168.8z M159.6,197.1c-0.3-0.1-0.5,0-0.5,0.3c0,0.3,0.3,0.4,0.6,0.4c0.3,0,0.4-0.1,0.5-0.3
		C160.2,197.1,159.9,197.1,159.6,197.1z M135.4,173c0.3-0.1,0.5,0,0.5-0.4c0-0.3-0.1-0.3-0.3-0.3c-0.3,0-0.5,0.2-0.6,0.4
		C134.9,172.9,135.1,172.9,135.4,173z M160.5,204.9c-0.3,0-0.4,0.3-0.4,0.5c0,0.2,0.2,0.4,0.3,0.3c0.3-0.1,0.6-0.2,0.5-0.5
		C161,205,160.6,205,160.5,204.9z M151.6,206.6c-0.3,0.1-0.6,0.2-0.6,0.4c0,0.3,0.3,0.3,0.5,0.3c0.3-0.1,0.5-0.1,0.4-0.4
		C151.9,206.7,151.9,206.5,151.6,206.6z M132.3,172.9c0-0.3-0.2-0.3-0.3-0.3c-0.3,0-0.5,0.1-0.5,0.4c0,0.2,0.2,0.3,0.3,0.3
		C132.1,173.4,132.2,173.3,132.3,172.9z M130.3,169.7c-0.2,0-0.5,0-0.5,0.3c0,0.3,0.3,0.3,0.5,0.3c0.3,0,0.5,0,0.5-0.3
		S130.5,169.8,130.3,169.7z M129.1,166.4c-0.3,0-0.7-0.2-0.8,0.1c-0.1,0.1,0,0.3,0.2,0.4C128.9,167.1,128.9,166.6,129.1,166.4z
		 M145.9,217.2c0-0.1,0-0.3-0.2-0.3c-0.3,0-0.4,0.3-0.6,0.4c-0.1,0.2,0,0.3,0.2,0.3C145.6,217.6,145.8,217.4,145.9,217.2z"/>
	<path class="st1" d="M168.3,265.8c-1.9,0-3.8,0-5.7,0c-1.6,0-2.2-0.6-2.2-2.2c0-2.1-0.1-4.3-0.3-6.4c-0.1-0.9-0.1-2-1.2-2.4
		c-1.3-0.4-2.6-0.3-3.5,0.8c-2.4,3.1-3,7.4,0.2,10.8c2.1,2.2,4.7,3.8,7.3,5.3c2.9,1.8,5.7,3.8,8,6.4c3.7,4.2,5.6,9.1,4.9,14.7
		c-0.9,6.5-3.6,12.2-9.7,15.5c-3,1.6-6.3,2.3-9.7,2.6c-7.5,0.8-14.3-1.3-20.9-4.6c-1.1-0.6-2.2-1.1-3.3-1.7
		c-1.2-0.7-1.5-1.5-0.8-2.8c1.5-3,2.9-6,4.5-8.9c0.6-1.2,1.7-1.5,2.9-0.8c0.4,0.3,0.9,0.5,1.3,0.8c3,2.1,6.5,3.4,10,4.4
		c1,0.3,2.1,0.3,3.1,0.2c2.8-0.4,4.3-2.6,3.9-5.5c-0.3-2.1-1.3-3.7-3-4.9c-2.8-2.1-5.9-3.8-8.8-5.6c-2.5-1.6-4.8-3.5-6.9-5.6
		c-2.2-2.3-3-5.2-3.5-8.3c-0.8-7,1.2-13.1,5.5-18.6c2.4-3.1,5.7-5.2,9.6-6.2c5.2-1.4,10.4-1.8,15.8-0.5c3.5,0.8,6.3,2.5,8.3,5.5
		c1.3,2,1.9,4.4,2.1,6.8c0.3,3.2,0.2,6.4,0,9.7c-0.1,1.2-0.8,1.8-2,1.8C172.3,265.8,170.3,265.8,168.3,265.8z M166.7,297.1
		c0.2,0.2,0,0.3-0.1,0.3c-0.1,0.4,0.3,0.3,0.5,0.3c0.3,0,0.6,0.1,0.6-0.3c0-0.3-0.2-0.3-0.5-0.4C167,297.1,166.9,297.2,166.7,297.1
		c0.1-0.3,0.5-0.3,0.8-0.6c0.1-0.1,0.2-0.3,0.2-0.4c0-0.2-0.2-0.2-0.3-0.2c-0.7-0.1-1.2,0.2-1.8,0.5c-0.2,0.1-0.3,0.3-0.3,0.5
		c0.1,0.2,0.3,0.2,0.4,0.3C166,297.1,166.4,297.1,166.7,297.1z M165.9,294.3c-0.1,0-0.3-0.1-0.3,0.2c0,0.3,0.2,0.5,0.3,0.6
		c0.8,0.2,1.5,0.3,2.4,0.3c0.5,0,0.5-0.4,0.3-0.7c-0.3-0.3-0.4-0.8-1-0.3C167,294.8,166.5,294.3,165.9,294.3z M163.6,278.9
		c-0.8,0-1.1-0.3-0.9-1c0-0.3-0.1-0.3-0.3-0.3c-0.3,0-0.3,0.1-0.4,0.3c-0.3,0.8,0.5,1,0.8,1.4C162.9,279.6,163.3,279.2,163.6,278.9z
		 M170.8,297.3c-0.2-0.3-0.4-0.7-0.8-0.7c-0.3,0-0.4,0.3-0.4,0.7c0.1,0.3,0.2,0.7,0.4,0.6C170.3,297.9,170.8,297.9,170.8,297.3z
		 M168.9,291.4c-0.3,0.1-0.5,0.2-0.8,0.3c-0.2,0-0.4,0-0.5,0.3c0,0.3,0.2,0.3,0.4,0.4c0.5,0.2,0.8-0.1,1.1-0.4
		C169.2,291.7,169.2,291.4,168.9,291.4z M169.7,287.2c-0.3-0.1-0.6,0.1-0.6,0.4c0,0.4,0.3,0.5,0.7,0.5c0.3,0,0.6-0.1,0.6-0.5
		C170.5,287.3,170.2,287.2,169.7,287.2z M167.1,290.9c0.3,0,0.6,0,0.5-0.3c-0.1-0.3-0.4-0.5-0.8-0.6c-0.3,0-0.3,0.3-0.3,0.5
		C166.5,291,166.9,290.9,167.1,290.9z M171.1,294.5c-0.1-0.2-0.3-0.2-0.4-0.1c-0.3,0.3-0.6,0.6-0.8,0.9c-0.1,0.1,0,0.3,0.2,0.3
		c0.1,0,0.3,0,0.3-0.2c-0.1-0.4,0.1-0.6,0.5-0.6C170.9,294.9,171,294.7,171.1,294.5z M163.8,301.7c-0.4,0.3-0.8-0.4-1.1,0.2
		c-0.1,0.1-0.2,0.3,0.1,0.3C163.2,302.3,163.5,302.3,163.8,301.7z M166.5,283.7c-0.2-0.2-0.3-0.3-0.4-0.3c-0.3,0-0.4,0.2-0.4,0.4
		c0,0.3,0.3,0.2,0.3,0.2C166.2,283.9,166.5,283.9,166.5,283.7z M171.7,290.7c-0.8-0.4-0.8-0.3-0.8,0.5
		C171.2,291.1,171.4,290.9,171.7,290.7z M158.6,277.9c-0.1,0.1-0.3-0.1-0.3,0.2c0,0.3,0.3,0.2,0.4,0.2s0.4,0.1,0.4-0.2
		C159.1,277.8,158.8,277.9,158.6,277.9z M165.5,299c-0.1-0.1-0.1-0.3-0.3-0.3c-0.2,0-0.2,0.3-0.3,0.4c0,0.1,0,0.2,0.2,0.2
		C165.4,299.3,165.5,299.2,165.5,299z"/>
	<path class="st1" d="M423.1,258.3c-0.2,3.8-0.3,7.6-0.6,11.3c-0.2,3.8-0.4,7.7-0.6,11.5c-0.1,1-0.1,2-0.2,3c0,0.3,0,0.5,0.4,0.5
		c3.9-0.1,7.7-0.1,11.5-0.2c2,0,4.1-0.1,6.2-0.1c1.5,0,3-0.1,4.5-0.1c1.4,0,2.2,0.8,2.2,2.3c-0.1,4.8-0.2,9.5-0.3,14.3
		c0,1.3-0.7,1.9-1.9,1.9c-4.4,0.2-8.7,0.4-13.1,0.6c-6.7,0.3-13.2,0.7-19.9,1c-1.6,0.1-3.3,0.2-4.9,0.3c-1.7,0.1-2.6-0.8-2.5-2.5
		c0.3-5.6,0.5-11,0.8-16.6c0.3-7.8,0.8-15.8,1.1-23.6c0.3-6.2,0.6-12.4,0.8-18.6c0.1-2.1,0.2-4.1,0.3-6.2c0.1-1.5,0.7-2.1,2.2-2
		c4.3,0.1,8.5,0.2,12.8,0.3c1.3,0,2.1,1,2,2.4c-0.1,2.3-0.3,4.5-0.3,6.7c-0.3,4.3-0.4,8.6-0.7,12.9c0,0.2,0.2,0.5-0.3,0.4
		c-0.3-0.1-0.6-0.2-0.6,0.3C422.4,258.6,422.8,258.3,423.1,258.3z M411.8,282c0.7,0,1.5-0.6,1.4-1c-0.2-0.5-0.7-0.6-1.1-0.7
		c-0.5-0.1-1.1,0.5-1.1,1.1C411,281.9,411.4,282,411.8,282z M426.5,295.3c0.1,0,0.3-0.1,0.4-0.1c0.3-0.1,0.6-0.2,0.5-0.5
		c-0.1-0.3-0.3-0.6-0.7-0.6c-0.4,0-1.1,0-1.2,0.6C425.5,295.2,426,295.3,426.5,295.3z M428.1,299.1c0.3-0.1,0.8,0.2,0.8-0.3
		c0-0.3-0.4-0.5-0.8-0.5c-0.3,0-0.7,0.2-0.7,0.5C427.5,299.3,427.9,299,428.1,299.1z M428.4,291c-0.3,0-0.5,0-0.5,0.3
		c0,0.3,0.3,0.3,0.5,0.3s0.5,0,0.5-0.3C428.9,291,428.7,291,428.4,291z M410.5,297.3c0.5,0.1,0.8,0.3,1.3,0c0.1-0.1,0.1-0.2,0-0.3
		C411.2,296.9,410.9,296.9,410.5,297.3z M418,297.9c-0.3,0-0.5,0.1-0.5,0.3c0,0.3,0.2,0.3,0.3,0.3s0.4-0.1,0.4-0.4
		C418.4,297.8,418.1,297.9,418,297.9z M420,261.9c-0.3-0.1-0.6-0.3-0.8,0c-0.1,0.1-0.1,0.3,0.1,0.3
		C419.5,262.3,419.7,262.3,420,261.9z M416.7,294c-0.2,0-0.2,0.2-0.2,0.3s-0.1,0.4,0.3,0.4c0.3,0,0.3-0.2,0.3-0.4
		C417,294.2,416.9,294.1,416.7,294z M414.8,293.3c0-0.3-0.3-0.3-0.4-0.3s-0.3,0.1-0.3,0.3c0,0.3,0.2,0.3,0.4,0.3
		C414.7,293.6,414.8,293.6,414.8,293.3z"/>
	<path class="st1" d="M245.1,222.2c0-2.9,0-5.8,0-8.7c0-0.6-0.1-0.8-0.8-0.8c-2.9,0.4-5.9,0.8-8.8,1.2c-0.4,0.1-0.6,0.2-0.7,0.6
		c-0.6,2.9-1.2,5.6-1.8,8.5c-0.3,1.2-0.7,1.5-1.9,1.5c-3.8-0.2-7.6-0.4-11.3-0.6c-1.1-0.1-1.7-1-1.3-2.2c0.8-2.4,1.4-4.7,2.2-7.1
		c2.6-8.2,5.2-16.4,8.3-24.5c1.9-5,4.3-9.8,6.5-14.6c0.7-1.4,1.3-2.9,2-4.4c0.3-0.6,0.7-0.9,1.3-1c2.5-0.3,5.1-0.8,7.7-0.8
		c4,0,6.3,1.7,7.8,6.1c1.3,3.6,1.9,7.5,2.5,11.4c0.8,4.9,1.1,9.9,1.6,14.7c0.5,5.1,1,10.2,1.6,15.3c0.4,4.5,0.9,9,1.3,13.5
		c0,0.3,0,0.7,0,0.9c0,1.1-0.6,1.6-1.6,1.6c-1.8,0-3.6,0.1-5.4,0.1c-2.5,0-5,0.1-7.5,0.1c-1.4,0-1.9-0.4-1.9-1.9
		C245.1,228.1,245.1,225.1,245.1,222.2L245.1,222.2z M242.9,187.4c0.1,0.3-0.1,0.6-0.3,0.8c-1.7,4.3-3.4,8.6-5.1,12.9
		c-0.3,0.8-0.3,0.8,0.5,0.8c2.1-0.3,4.1-0.5,6.2-0.7c0.8-0.1,0.8-0.3,0.8-1c0-3.2-0.2-6.5-0.3-9.7c-0.2-2-0.3-4-0.8-6.1
		c-0.3,0.9-0.7,1.8-1,2.6c-0.3-0.5-0.7-0.3-1-0.1c-0.3,0.2-0.3,0.4-0.1,0.7C242.5,188.1,242.5,187.3,242.9,187.4z M255.4,211.7
		c-0.3,0.2-0.5,0.5-0.8,0.2c-0.3-0.3-0.2-0.7-0.1-0.9c0.1-0.3,0.4-0.3,0.7-0.3c0.1,0,0.3,0.2,0.3-0.1s0-0.3-0.3-0.5
		c-0.6-0.3-1.5-0.3-2.1,0.1c-0.3,0.2-0.3,0.3-0.1,0.7c0.3,0.4,0.5,0.8,0.8,1.3c0.3,0.3,0.5,0.9,0.2,1.5c-0.3,0.5-0.3,1,0.3,1.3
		c0.6,0.2,0.8,0.5,0.3,0.8c0.2,0.3,0.8-0.3,0.6,0.3c-0.3,0.7-0.2,1.2,0.4,1.5c0.3,0.2,0.2,0.4,0.3,0.7c0.2,0.6,0.2,1.3,0.6,1.9
		c0.1,0.2,0.3,0.4,0.4,0.3c0.3-0.1,0.1-0.3,0-0.5c-0.3-0.7-0.6-1.3-0.5-2.1c0.1-0.7-0.9-1.3-0.3-2c0,0-0.1-0.2-0.2-0.3
		c-0.3-0.3-0.3-0.5-0.2-0.8c0.1-0.3,0.1-0.7-0.1-1c-0.2-0.4-0.6-0.8-0.1-1.3C255.8,212.3,255.6,212,255.4,211.7z M252.3,199.2
		c0.3-0.1,0.6-0.3,0.8-0.6c0.1-0.1,0.3-0.3,0.1-0.3c-0.3-0.2-0.7-0.2-0.9,0c-0.3,0.2-0.8,0.2-0.7,0.7c0.1,1,0.8,1.4,1.9,1.1
		C253.2,199.7,252.6,199.8,252.3,199.2z M234.1,210c-0.1-0.3-0.1-0.5-0.3-0.8c-0.3-0.4-0.7-0.7-1.2-0.5c-0.3,0.1-0.6,0.3-0.4,0.7
		c0.2,0.4,0.6,0.7,1.1,0.6C233.5,209.9,233.8,210,234.1,210z M228,213.6c0.3,0.4,0.4,0.8,0.9,0.3c0.1-0.1,0.3-0.2,0.4-0.3
		c0.2-0.1,0.4-0.2,0.3-0.3c-0.1-0.2-0.3-0.5-0.6-0.2C228.8,213.5,228.4,213.6,228,213.6z M253.8,209.3c-0.2-0.3-0.3-0.4-0.4-0.7
		c-0.2-0.3-0.5,0-0.8,0.1c-0.2,0-0.2,0.2-0.1,0.3C252.8,209.5,253.2,209.4,253.8,209.3z M250.2,202.2c0.3,0.3,0.5,0.6,0.5,0.9
		c0,0.3,0.2,0.3,0.4,0.3c0.3,0,0.2-0.3,0.2-0.4C251.1,202.4,250.8,202.2,250.2,202.2z M249.8,196.9c-0.1-0.3-0.3-0.5-0.8-0.6
		c-0.2-0.1-0.3,0.2-0.3,0.2c0.3,0.3,0.1,0.8,0.6,0.8C249.6,197.2,249.7,197.1,249.8,196.9z M250.4,177.5c0.1-0.1,0.5,0.2,0.4-0.2
		c0-0.2,0-0.6-0.4-0.5c-0.3,0-0.7,0.1-0.7,0.5C249.7,177.7,250.1,177.4,250.4,177.5z M248.5,206.1c0.4,0.3,0.8,0.3,1.1-0.1
		c0.2-0.3,0.1-0.4-0.1-0.5C249,205.4,248.9,206,248.5,206.1z M250.9,221.4c0.1-1.2,0-1.3-0.8-1.3
		C250.4,220.5,250.6,220.9,250.9,221.4z M251.1,181.5c-0.2,0.2-0.5,0.1-0.5,0.3c0,0.2,0.2,0.3,0.3,0.3c0.3,0,0.4-0.1,0.4-0.3
		C251.4,181.5,251.3,181.5,251.1,181.5z M249.9,199.7c0-0.1,0-0.1,0-0.2c-0.5,0-0.9,0-1.4,0C248.9,199.7,249.4,199.9,249.9,199.7z
		 M253,197.5c-0.3-0.4-0.8-0.4-1.1-0.3c-0.1,0-0.1,0.2,0,0.3C252.2,197.7,252.6,197.6,253,197.5z M250.5,179.2
		c-0.1-0.3-0.3-0.3-0.5-0.3c-0.2,0-0.3,0-0.3,0.2c0,0.3,0.3,0.3,0.5,0.3C250.3,179.4,250.4,179.4,250.5,179.2z M234.7,197.7
		c-0.3,0.3-0.3,0.7-0.3,1.2C234.8,198.5,234.9,198.2,234.7,197.7z M229,212.1c-0.1,0-0.3,0.1-0.3,0.3c0,0.3,0.3,0.3,0.4,0.3
		c0.2,0,0.2-0.1,0.2-0.3C229.4,212.3,229.2,212.2,229,212.1z M235.9,208.3c0-0.2-0.2-0.3-0.3-0.2c-0.2,0-0.4-0.1-0.5,0.2
		c0,0.3,0.3,0.3,0.3,0.3C235.6,208.5,235.8,208.6,235.9,208.3z M233.9,183.8c-0.5,0.4-0.5,0.6,0,1
		C233.9,184.5,234,184.2,233.9,183.8z M249.8,198.2c0.2,0.1,0.3,0.2,0.5,0.2s0.3-0.1,0.3-0.2c0-0.3-0.3-0.3-0.4-0.3
		C249.9,198,249.8,198.1,249.8,198.2z"/>
	<path class="st1" d="M185.7,210.7c0.3,0.1,0.6,0.1,0.8,0.2c0.1-0.3,0.1-0.4,0.2-0.8c0.3,0.8,0.1,1.6,0.2,2.4c0,0.3-0.3,0.2-0.3,0.3
		c-0.3,0.1-0.5,0.1-0.6,0.3c-0.1,0.3-0.3,0.8,0.1,0.8c0.3,0.1,0.7-0.2,0.9-0.5c0,0.5-0.1,1.1,0,1.6c0.1,0.5-0.3,1,0,1.5
		c0.2,0.5,0,1.1,0,1.7c-0.2-0.1-0.3-0.1-0.4-0.1c-0.2,0-0.3,0-0.3,0.2c0,0.2,0.2,0.3,0.3,0.3c0.6-0.2,0.5,0.2,0.4,0.5
		c0,1.4,0.3,2.9,0,4.3c0,0.3-0.1,0.4-0.2,0.7c-0.3,1.3-0.7,1.5-2,1.6c-2.9,0.1-5.7,0.3-8.6,0.3c-0.3,0-0.7,0-1,0
		c-0.8-0.1-1.2-0.6-1.2-1.3c0-5.5,0-10.9,0.2-16.3c0.2-5.1,0.3-10.3,0.6-15.3c0.3-3.3,0.4-6.6,0.6-9.9c0.1-1,0.4-1.3,1.4-1.4
		c3.3-0.2,6.5-0.3,9.8-0.4c0.8,0,1.5,0.6,1.4,1.5c-0.5,5.8-0.8,11.5-1.1,17.4c-0.1,2.9-0.1,5.8-0.1,8.8c0,0.4,0.1,0.8-0.5,0.9
		C186,209.9,186.2,210.5,185.7,210.7z M175.9,202.9c0.3-0.5,0.9-0.6,0.7-1.3c-0.3-0.7-0.1-1.3,0.2-1.9c0.3-0.5,0.3-1,0.1-1.5
		c-0.2-0.5-0.2-0.9,0-1.5c0.2-0.6,0.4-1.2,0.1-1.8c-0.1-0.2,0-0.3,0.1-0.5c0.5-1,0.6-2.1,0.2-3.1c-0.3-0.6-0.3-1,0.3-1.3
		c0.2-0.1,0.3-0.2,0.2-0.3c-0.3-0.3-0.8-0.2-1.1-0.1c-0.3,0.1-0.4,0.3-0.3,0.6c0.2,0.4,0,0.8,0,1.2c0,0.4-0.2,0.8,0.3,1.1
		c0.1,0.1,0,0.3,0,0.3c0,0.7-0.1,1.3-0.1,1.9c-0.1,0.6-0.1,1.3-0.2,1.9c-0.1,0.5-0.3,1.3-0.1,1.7c0.3,0.3,0.3,0.7,0.2,1
		c-0.1,1.1-0.1,2.3-0.4,3.4C175.9,202.8,175.8,202.9,175.9,202.9c0.8,0.5-0.6,1.3,0,1.9c-0.8,0.6-0.2,1.3-0.3,1.9c0,0.3-0.3,0.7,0,1
		c0.3,0.3,0.3,0.6,0,0.8c-0.2,0.2-0.1,0.3,0.1,0.4c0.5-0.4,0.5-1,0.3-1.5c-0.1-0.2,0-0.4,0-0.6c0.1-1,0.6-2,0.4-3
		c0-0.2,0-0.3,0.1-0.4C176.6,203.1,176.5,202.9,175.9,202.9z M179.8,182.8c-0.5,0.1-0.8,0.2-1.1,0.3c-0.5,0.1-1.1,0.6-1.6-0.1
		c-0.2-0.2-0.4-0.2-0.7,0c-0.2,0.1-0.3,0.3-0.2,0.5c0.7,0.9-0.2,1.9-0.1,2.8c0.1,0.8-0.3,1.7,0,2.4c0.1,0.2-0.1,0.4,0.3,0.3
		c0.2-0.1,0.7-0.1,0.5-0.3c-0.4-0.8-0.3-1.1,0.5-1.3c0,0,0-0.1,0.1-0.1c0.6-0.5,0.2-1.6,1.1-1.9c0-0.1-0.1-0.2-0.1-0.3
		c0.3-0.4,0.9-0.7,0.4-1.3C179.3,183.6,179.4,183.1,179.8,182.8z M184.7,220.5c0-0.3,0.3-0.6-0.3-0.6c-0.4,0-0.5,0.4-0.7,0.7
		c0.3,0.1,0.2,0.8,0.6,0.7C184.7,221.2,184.7,220.8,184.7,220.5z M183.2,208.3c0.6,0.6,0.9-0.1,1.3-0.3c0.1,0,0.2-0.4-0.1-0.5
		c-0.2-0.1-0.7-0.3-0.7,0.1C183.9,208.2,183.4,208.1,183.2,208.3z M182.2,182.9c-0.3,0-0.6-0.1-0.9-0.1c-0.3,0-0.6,0.2-0.7,0.3
		c-0.1,0.3,0.2,0.5,0.5,0.7C181,183.1,181.6,183.1,182.2,182.9z M184.1,214.7c-0.4,0.3-1.2-0.4-1.4,0.5c0,0.1-0.3,0.2-0.1,0.3
		c0.1,0.1,0.4,0.1,0.4,0C183.2,215,183.8,215.1,184.1,214.7z M181.5,211.3c0.2,0.2,0.3,0.3,0.4,0.4c0.2,0.3,0.3,0.2,0.6,0.2
		c0.2-0.1,0.2-0.2,0.2-0.3c0-0.3-0.3-0.3-0.4-0.3C182.1,211,181.9,210.9,181.5,211.3z M185.5,217.7c0.2,0,0.4,0.1,0.5-0.3
		c0.1-0.3-0.2-0.4-0.3-0.3c-0.3,0.1-0.6-0.2-0.7,0.3C185,217.7,185.2,217.7,185.5,217.7z M175.7,209.9c-0.8,0.5-0.4,1.3-0.5,1.9l0,0
		C175.2,211.1,175.7,210.6,175.7,209.9z M186.3,219.8c-0.6-0.2-0.9,0.1-1.2,0.5C185.6,220.5,185.9,220.2,186.3,219.8z M183.5,203.5
		c-0.3,0.1-0.6-0.3-0.8,0.1c-0.1,0.2,0,0.3,0.1,0.3C183.1,204,183.2,203.9,183.5,203.5z M184.7,219c0.6,0.3,0.6,0.3,1,0
		C185.4,219,185.1,219,184.7,219z M181.1,217c0.3,0.4,0.6,0.6,0.9,0.1C181.7,217.1,181.4,217,181.1,217z M184.5,202.3
		c0.2,0,0.3-0.1,0.3-0.3c0-0.2-0.2-0.3-0.3-0.3c-0.2,0-0.3,0-0.3,0.2C184.1,202.1,184.3,202.2,184.5,202.3z M183.9,208.8
		c-0.4-0.1-0.8-0.2-1-0.2c-0.1,0-0.2,0.1-0.2,0.1c-0.1,0.1,0.1,0.3,0.2,0.2C183.1,208.8,183.5,209.1,183.9,208.8z M184.1,218.8
		c0-0.2-0.1-0.3-0.3-0.3c-0.2,0-0.3,0.2-0.2,0.3c0.1,0.2,0,0.4,0.3,0.4C184.1,219.2,184.1,219,184.1,218.8z M183.2,218.3
		c0.4,0.2,0.7,0,1-0.3C183.8,217.9,183.5,217.9,183.2,218.3z M186,215.1c0.3,0.1,0.6,0.2,0.8-0.2C186.5,214.8,186.3,214.7,186,215.1
		z"/>
	<path class="st0" d="M376,229.8c-1.3,0.1-2.5-0.7-3.8-1.3c-0.7-0.3-0.9-1.1-0.7-1.9c1.2-3.5,2.6-4.9,6.2-5.2
		c3.8-0.3,7.4,0.5,10.8,2.4c0.7,0.3,1.3,0.8,1.8,1.3c1.1,1.2,0.9,2.3-0.5,3.1c-1.1,0.6-2.2,0.8-3.4,1.1c-1.9,0.3-3.7,0.4-5.6,0.5
		c-0.3,0-0.7,0.3-0.8-0.3c-0.3,0.1-0.5-0.6-0.8,0.2c-0.2,0.5-0.7,0.2-1.1,0.3c-0.2,0.1-0.5,0.1-0.4-0.3c0-0.2,0.1-0.4-0.3-0.4
		c-0.3,0.1-0.3,0.2-0.2,0.4c0.2,0.3-0.1,0.3-0.3,0.3C376.8,229.8,376.5,229.8,376,229.8z M388,223.8c-0.6-0.3-0.9-0.3-1.4,0.2
		C387,224.1,387.5,223.9,388,223.8z M377.8,223c-0.3-0.3-0.6-0.4-0.9-0.2c-0.1,0.1-0.2,0.3-0.1,0.3
		C377.1,223.2,377.4,223.2,377.8,223z M373.9,226.4c-0.3,0-0.3,0.2-0.3,0.3c0,0.3,0.2,0.3,0.3,0.2c0.2,0,0.4,0,0.4-0.3
		C374.3,226.4,374.1,226.4,373.9,226.4z"/>
	<path class="st0" d="M331.8,221.3c3.7,0.2,7.2,0.9,10.4,3.2c0.4,0.3,0.8,0.8,1.1,1.3c0.4,0.8,0.3,1.3-0.3,1.9
		c-0.6,0.6-1.4,0.8-2.2,1.1c-1.8,0.5-3.5,0.7-5.4,0.8c-0.6,0.1-1.3,0.1-1.9,0.1c-0.3,0-0.8,0.2-0.9-0.3c-0.1-0.1-0.4-0.4-0.7,0.1
		c-0.3,0.5-1.3,0.3-1.4-0.2c-0.1-0.1-0.1-0.3-0.3-0.3s-0.3,0.1-0.3,0.3c0,0.4-0.3,0.4-0.5,0.4c-0.7,0-1.4,0.2-1.9-0.1
		c-0.9-0.5-2.1-0.5-2.9-1.3c-0.7-0.6-0.7-1.3-0.4-2c1.2-3.5,2.8-4.7,6.3-5.1C330.9,221.3,331.4,221.3,331.8,221.3z M340.4,223.8
		c-0.3-0.1-0.3-0.2-0.4-0.2c-0.3-0.1-0.6,0-0.8,0.2v0.2c0.3,0.2,0.5,0,0.8-0.1C340.1,223.9,340.2,223.8,340.4,223.8z M330.3,223
		c-0.7-0.4-0.7-0.4-1.1,0.2C329.7,223.2,329.9,223.2,330.3,223z M326.5,226.4c-0.3,0-0.3,0.1-0.3,0.3s0.2,0.3,0.3,0.3
		c0.2,0,0.4,0,0.4-0.3C326.8,226.4,326.5,226.4,326.5,226.4z"/>
	<path class="st1" d="M182.1,177.9c-2.7,0-4.5-1.5-4.8-3.9c-0.5-3.8,2.6-7.3,6.4-7.3c2.2,0,3.9,1,4.7,3c0.9,2.1,0.3,4.1-1.2,5.8
		C185.8,177.2,184,177.8,182.1,177.9z M187.2,174.5c0-0.3-0.2-0.3-0.3-0.3c-0.3,0-0.3,0.1-0.3,0.3c0,0.2,0,0.3,0.3,0.3
		C186.9,174.7,187.2,174.7,187.2,174.5z M181.5,169.4c0.2-0.1,0.2-0.3,0.1-0.5c0-0.1-0.1-0.3-0.2-0.3c-0.2,0.1-0.3,0.3-0.3,0.5
		C181.3,169.2,181.3,169.3,181.5,169.4z"/>
	<path class="st0" d="M392.8,281.8c0.3-0.1,0.7-0.1,1-0.2c0.3,0,0.5-0.1,0.5,0.3c0,0.4-0.3,0.3-0.6,0.3
		C393.4,282.2,393,282.1,392.8,281.8L392.8,281.8z"/>
	<path class="st1" d="M243,187.2L243,187.2c0,0.1,0,0.1,0,0.2C243,187.3,243,187.3,243,187.2C242.9,187.2,243,187.2,243,187.2z"/>
</g>
<g>
	<path class="st2" d="M742.6,50.8c1.2,0.3,2,0.8,2.8,1.3c32.7,17.6,65.3,35.2,98,52.8c5,2.7,10.1,5.4,15.1,8.2
		c1.7,0.9,1.8,0.9,1.3,2.9c-2.1,9.9-4.1,19.8-6.2,29.6c-2.9,13.9-5.8,27.8-8.7,41.7c-2.7,13.1-5.5,26.2-8.3,39.3
		c-0.2,1.2-0.5,2.4-0.7,3.6c-0.2,1-0.7,1.5-1.7,1.6c-2.7,0.3-5.4,0.6-8,0.9c-5.6,0.6-11.2,1.3-16.8,1.9c-5.4,0.6-10.7,1.2-16.1,1.8
		c-5.3,0.6-10.6,1.2-15.8,1.8c-4,0.5-8,0.9-12,1.4c-5.5,0.6-11.1,1.3-16.6,1.9c-1.5,0.2-2.9,0.4-4.4,0.5c-2.2,0.2-2.3,0.2-2.3-2
		c0-6.4,0-12.8,0-19.2c0-15.8,0.1-31.5,0.1-47.3c0-8.1-0.1-16.2,0.1-24.3c0.4-32.3,0.2-64.6,0.4-96.9
		C742.6,51.8,742.6,51.4,742.6,50.8z"/>
	<path class="st3" d="M728.3,76.9c0.3,1,0.2,1.7,0.2,2.4c0,53.5,0,106.9,0,160.4c0,0.1,0,0.1,0,0.2c0,2.2,0,2.3-2.3,2
		c-9.5-1.1-19-2.2-28.5-3.2c-7.8-0.9-15.5-1.7-23.3-2.6c-8.8-1-17.6-2.1-26.5-3.1c-6.6-0.7-13.1-1.4-19.7-2.2
		c-5.6-0.6-11.1-1.3-16.6-1.9c-1-0.1-1.5-0.4-1.4-1.5c0-0.4,0-0.8,0-1.2c0-36.5,0-73.1,0-109.6c0-0.1,0-0.3,0-0.4
		c0.1-2.1-0.5-2,2-2.8c7.1-2.2,14.1-4.5,21.2-6.7c27-8.5,53.9-17,80.9-25.6c4-1.3,8.1-2.6,12.1-3.8C727,77.2,727.6,77.1,728.3,76.9z
		"/>
	<path class="st4" d="M665.8,296c1.8,1.6,3.8,3.1,6.3,3.6c0.8,0.2,1.5-0.1,2.2-0.3c2.8-0.8,5.2,0.3,6.2,3c1,2.8-0.1,5.3-2.8,6.5
		c-2.8,1.2-5.6,1.2-8.5,0.5c-3.7-1-6.9-3-9.8-5.5c-0.4-0.3-0.8-0.7-1.3-1c0,0-0.1,0-0.4,0c-0.1,0.9,0,1.9,0.1,2.9
		c0.1,0.9,0.2,1.7,0.2,2.6c0.1,2.8-1.8,4.9-4.6,5.1c-2.7,0.2-4.7-1.5-5.2-4.3c-0.6-3.8-0.5-7.7-0.5-11.5c0-8.5,0.8-16.9,1.6-25.4
		c0.3-3.5,1.5-4.6,5-5.3c3.8-0.8,7.6-0.8,11.3,0.6c5.8,2.2,8.7,6.7,9.3,12.6c0.6,6.7-2.1,11.9-8.2,15.1
		C666.4,295.4,666,295.5,665.8,296z"/>
	<path class="st4" d="M610.3,369.2c0.7-10.9,0.4-21.8,0.3-32.7c0-0.9-0.1-1.7-0.2-2.6c-0.2-3.1,1.5-5.2,4.6-5.5
		c3.6-0.4,7.2-0.3,10.8,0.5c15.4,3.4,18.7,20.2,10,30.5c-3.6,4.3-8.4,6.4-13.9,7c-1.6,0.2-1.6,0.2-1.7,1.7c-0.1,1.3-0.2,2.6-0.3,3.8
		c-0.2,3-2.2,4.8-5.2,4.7c-2.9-0.1-4.7-2.1-4.7-5.2C610.2,370.7,610.2,370,610.3,369.2z"/>
	<path class="st4" d="M645.8,283.2c-0.2,10.1-6.8,19.3-18.3,20.3c-1.9,0.2-2,0.1-2.1,2.1c-0.1,1.2,0,2.4-0.1,3.6
		c-0.3,3-2.7,5-5.5,4.6c-3-0.4-4.6-2.6-4.4-5.7c0.5-5.8,0.6-11.7,0.6-17.6c0-6.5,0.1-13.1-0.3-19.6c-0.2-3.4,1.8-5.4,5.2-5.5
		c2-0.1,3.9-0.1,5.9,0c3.4,0.2,6.7,1,9.7,2.6C642.6,271.4,645.4,276.8,645.8,283.2z"/>
	<path class="st4" d="M693.6,357.8c1.9-2.5,2.4-5.2,2.8-7.8c0.6-4.1,0.9-8.2,0.5-12.3c-0.1-0.8-0.1-1.6,0-2.4
		c0.1-2.5,2.1-4.5,4.4-4.8c2.5-0.2,4.7,1.4,5.3,4c0.1,0.3,0.2,0.7,0.2,1c0.4,7.8,0.1,15.6-2.4,23.2c-0.8,2.5-2,4.9-3.8,6.8
		c-4.2,4.3-9.9,3.4-13.2,0.2c-0.9-0.8-1.6-1.8-2.5-2.8c-0.6,2.9-0.6,5.6-0.8,8.4c-0.3,3.4-2.7,5.4-6.1,4.6c-2.5-0.5-3.8-2.2-3.8-4.8
		c0-3.1,0.3-6.2,0.6-9.3c0.5-5.3,1-10.6,1.9-15.8c0.3-2,0.6-4,0.9-6c0.2-0.9,0.3-1.7,0.3-2.6c0.1-2.7,2-4.8,4.7-4.9
		c2.9-0.1,5.4,2,5.5,4.8c0.1,5.2,1.4,10.1,2.9,15C691.4,354.3,692.1,356.1,693.6,357.8z"/>
	<path class="st4" d="M730.3,290.6c-1.9,0.7-3.6,1.5-5.5,1.7c-3.4,0.3-6.5-0.6-8.9-3c-4.1-4-5.1-9-4-14.5c0.4-1.9,1.1-3.6,2-5.3
		c1.4-2.4,4.2-3.3,6.6-2.1c2.4,1.2,3.5,4,2.2,6.5c-1.1,2.2-1.2,4.4-0.7,6.7c0.4,2,1.1,2.3,2.8,1.4c2.2-1.1,4-2.7,5.6-4.5
		c0.5-0.6,0.6-1.2,0.6-1.9c0-1.7,0-3.4,0.1-5c0.2-2.8,2.3-4.8,5-4.7c2.6,0.1,4.6,2.1,4.7,4.8c0.1,7.1,0.3,14.3-0.8,21.4
		c-0.6,4.3-1.6,8.6-3.6,12.5c-2.7,5.2-7.1,7.9-12.9,8.4c-1.2,0.1-2.4-0.1-3.6-0.4c-2.4-0.6-3.7-2.7-3.4-5.4c0.2-2.3,2.1-4.1,4.4-4.2
		c0.8,0,1.6,0,2.4,0.1c1.3,0.1,2.4-0.4,3.1-1.5c0.3-0.5,0.7-1,1-1.5C729,297.2,729.8,294,730.3,290.6z"/>
	<path class="st4" d="M742.9,291.4c0-5.6,1-10.2,3.8-14.3c3-4.6,7.4-6.8,12.7-7.1c4-0.2,7.4,1.5,9.6,5c2.3,3.7,2.3,7.6,0.2,11.3
		c-2.1,3.9-5.5,6.4-9.4,8.2c-1.3,0.6-2.7,1.2-4.1,1.6c-0.9,0.3-1.1,0.7-0.7,1.6c1.3,2.6,2.7,3.4,5.6,2.7c1.5-0.4,2.9-1.1,4.3-1.8
		c3.7-1.8,7.4,0.7,7.3,4.8c0,1.6-0.7,2.8-2,3.6c-4,2.5-8.4,3.9-13.2,3.4c-5-0.5-8.5-3.4-11-7.6C743.7,299.1,742.8,295,742.9,291.4z"
		/>
	<path class="st4" d="M748.9,351.3c-0.1-4.1,0-7.7,1-11.1c1.3-4.7,3.7-8.5,8.6-10.3c4.5-1.6,8.9-1.1,13.2,0.5
		c2.4,0.9,3.4,3.5,2.5,6.1c-0.9,2.6-3.1,3.8-5.7,3.3c-1.2-0.3-2.5-0.7-3.7-1c-2.5-0.5-3.8,0.3-4.8,2.6c-0.7,1.8-1,3.8-1.2,5.7
		c-0.1,0.8,0.2,1.3,1.1,1.2c1.4-0.1,2.8,0,4.2-0.2c2.7-0.3,4.8,1.1,5.4,3.8c0.6,2.6-0.9,5.1-3.4,5.8c-1.4,0.4-2.8,0.3-4.2,0.3
		c-2.6,0.1-2.6,0.1-2.2,2.8c0.5,3.6,1.1,7.2,1.2,10.8c0.1,2.4-1.1,4.1-3.3,4.7c-3,0.9-6-0.7-6.3-3.8
		C750.2,365.4,748.8,358.1,748.9,351.3z"/>
	<path class="st4" d="M692.6,306.7c-4,0-8.7-3.5-10.6-9.1c-2-6-1.1-11.9,1.7-17.4c2.6-4.9,7.1-7.1,12.6-6.9
		c5.8,0.3,9.7,3.6,11.8,8.9c1.6,4,1.2,8-0.1,12.1c-1.1,3.4-2.6,6.5-5.3,8.9C700.4,305.4,697.5,306.7,692.6,306.7z"/>
	<path class="st4" d="M846.7,336.1c6.4-0.3,12.1,5,13.1,11.5c1.1,7-1,13.2-6,18.3c-5.9,6-15.2,4.6-19.5-2.6c-2-3.3-2.6-6.9-2.3-10.7
		c0.2-2.3,0.7-4.7,1.4-6.9C835.4,339.7,840.5,336.1,846.7,336.1z"/>
	<path class="st4" d="M657.4,336.1c6.4-0.2,11.9,4.9,13,11.1c1.3,7.5-0.9,14.1-6.5,19.2c-5.6,5.2-14,4-18.3-2.3
		c-2.3-3.4-3.1-7.1-2.9-11.1c0.1-2.5,0.7-4.9,1.4-7.3C646.1,339.8,651.2,336.1,657.4,336.1z"/>
	<path class="st4" d="M855,288.9c-0.5,4.6-2,9.7-6,13.7c-6.7,6.8-17.2,4.7-20.8-4.1c-1.8-4.4-1.6-8.9-0.5-13.5
		c0.3-1.1,0.6-2.2,1-3.3c3.3-8.7,15.4-11.9,22.3-4.4C853.7,280.4,855,284,855,288.9z"/>
	<path class="st4" d="M727.5,334.4c-0.1,1-0.2,2.4-0.3,3.7c-0.1,1.6-0.1,1.6,1.5,1.8c3.4,0.5,5.1,3.3,4.1,6.5
		c-0.5,1.8-1.8,2.7-3.6,3.2c-1,0.2-2.3-0.2-2.8,0.7c-0.4,0.7-0.3,1.8-0.3,2.8c-0.2,5.7-0.5,11.4,0.1,17.1c0.3,2.8-0.6,4.6-2.7,5.6
		c-3.3,1.5-6.7-0.4-7.1-3.6c-0.6-4.5-0.7-9-0.6-13.5c0.1-2.2,0.2-4.4,0.3-6.7c0.1-1.6,0-1.6-1.6-1.7c-3.5-0.3-5.5-3.2-4.5-6.6
		c0.6-2.1,2.2-3.3,4.7-3.4c2.1-0.1,2.1-0.1,2.3-2.1c0.2-1.8,0.4-3.6,0.6-5.4c0.3-2.7,2.5-4.7,5-4.5c2.8,0.2,4.7,2.2,4.7,5
		C727.5,333.6,727.5,333.8,727.5,334.4z"/>
	<path class="st4" d="M807.6,297.5c0.1-2.4,0-5.4,0.3-8.5c0.2-1.6,0.1-1.7-1.6-1.7c-3.4-0.1-5.4-2.8-4.7-6.1
		c0.5-2.1,2.2-3.6,4.4-3.7c2.7-0.2,2.6-0.2,2.8-2.8c0.1-1.7,0.2-3.4,0.5-5c0.3-2.6,2.7-4.5,5.2-4.3c2.6,0.2,4.5,2.2,4.5,4.8
		c0,1.7-0.1,3.5-0.2,5.2c-0.1,1.5-0.1,1.5,1.4,1.6c3.6,0.4,5.6,3.9,4,7.1c-0.7,1.5-2,2.3-3.6,2.6c-0.6,0.1-1.2,0.1-1.8,0.2
		c-0.5,0-0.9,0.3-0.9,0.9c0,0.3,0,0.5,0,0.8c-0.2,6.4-0.6,12.8,0,19.2c0.3,2.8-0.8,4.5-3.1,5.3c-3.2,1.1-6.2-0.7-6.7-4.1
		C807.6,305.4,807.6,301.8,807.6,297.5z"/>
	<path class="st4" d="M774.1,295.6c0.1-4.8,1.4-9.3,4.5-13.1c3.8-4.7,10.4-6.9,16.8-4.9c2.6,0.8,4,3.3,3.3,5.9
		c-0.7,2.8-3,4.3-5.8,3.7c-0.4-0.1-0.8-0.2-1.2-0.3c-2.8-0.6-4.7,0.2-6.1,2.7c-1.5,2.8-2,5.7-1.3,8.8c0.2,0.6,0.4,1.3,0.8,1.9
		c0.7,1.3,1.6,1.6,3,1.2c1.8-0.6,3.2-1.7,4.7-2.8c2.8-1.9,6.3-0.8,7.5,2.3c0.6,1.7,0.6,3.5-0.7,4.7c-4.1,3.8-8.8,6.2-14.6,5.6
		c-4.7-0.5-7.7-3.5-9.5-7.8C774.4,301,774,298.3,774.1,295.6z"/>
	<path class="st4" d="M789.3,359.9c0-5.7,1-9.9,3.6-13.6c4.1-6,11-7.7,17.5-6c2.6,0.7,3.8,3.1,3.3,5.9c-0.5,2.4-2.4,3.9-5,3.8
		c-0.8,0-1.5-0.3-2.2-0.4c-2.3-0.5-4.2,0.2-5.4,2.1c-2,3.2-2.6,6.6-1.5,10.2c0.8,2.5,2.1,3,4.5,1.9c1.4-0.6,2.5-1.5,3.7-2.4
		c1.6-1.2,3.3-1.4,5.1-0.4c1.8,1.1,2.8,2.7,2.7,4.8c0,1.2-0.5,2.3-1.4,3c-3.6,3.1-7.7,5.2-12.6,5.3c-4.7,0-8.1-2.2-10.3-6.2
		C789.8,365.1,789.4,361.9,789.3,359.9z"/>
	<path class="st4" d="M735.3,358.9c-0.2-3.9,0.3-7.6,0.4-11.4c0-0.7,0.2-1.3,0.3-2c0.7-2.3,3-3.8,5.3-3.5c2.6,0.4,4.5,2.5,4.2,5.1
		c-0.3,3.8-0.4,7.5-0.4,11.3c0,4.4,0.1,8.9,0.8,13.3c0.6,3.9-3,6.8-6.7,5.5c-1.5-0.5-2.5-1.6-2.9-3.1c-0.4-1.6-0.5-3.3-0.7-5
		c-0.2-1.9-0.3-3.8-0.4-5.6C735.3,361.9,735.3,360.4,735.3,358.9z"/>
	<path class="st4" d="M828.7,349.2c-0.3,3.6-0.4,7.1-0.4,10.7c0,3.6,0.2,7.1,0.7,10.7c0.1,0.7,0.1,1.3,0.1,2c0,2.7-1.7,4.6-4.3,4.9
		c-2.9,0.3-5-1.3-5.4-4.2c-0.8-5.1-0.9-10.3-0.9-15.5c0-3.6,0.1-7.3,0.5-10.9c0.2-2.3,1.5-4.1,3.6-4.6c2-0.6,4.1,0.2,5.4,1.9
		c0.9,1.2,0.9,2.5,0.8,3.9C828.7,348.4,828.7,348.8,828.7,349.2z"/>
	<path class="st4" d="M786.3,354.8c-0.5,4.8-0.4,9.6,0.2,14.3c0.1,1.1,0.3,2.3,0.3,3.4c0.1,2.4-1.5,4.4-4,4.9
		c-2.5,0.4-4.7-0.7-5.5-3c-0.5-1.3-0.5-2.8-0.7-4.2c-0.6-6.6-0.8-13.3-0.2-20c0.1-1.2,0.1-2.4,0.2-3.6c0.4-3.3,3.3-5.4,6.3-4.4
		c2,0.6,3.4,2.3,3.4,4.5C786.3,349.5,786.3,352.2,786.3,354.8z"/>
	<path class="st4" d="M787,334.4c0,3.1-0.9,4.7-3.1,5.5c-3.4,1.3-6.7-0.9-6.9-4.5c0-0.7,0-1.5,0-2.2c0.1-2.9,2.2-5,5-5
		c2.8,0,4.9,2.1,5,5C787,333.6,787,334,787,334.4z"/>
	<path class="st4" d="M746.1,334.3c0,0.3,0,0.7,0,1c-0.1,2.8-1.7,4.7-4.3,4.9c-2.9,0.2-5-1.3-5.5-4.2c-0.2-1.2-0.2-2.4,0-3.6
		c0.5-2.7,2.8-4.4,5.3-4.2c2.8,0.3,4.5,2.2,4.5,5C746.2,333.7,746.1,334,746.1,334.3C746.1,334.3,746.1,334.3,746.1,334.3z"/>
	<path class="st4" d="M829.3,334.3c0,0.4,0,0.8,0,1.2c-0.1,3-2,4.7-4.9,4.7c-2.9,0-4.8-1.9-4.9-4.7c0-0.9,0-1.8,0-2.6
		c0.2-2.6,2.3-4.6,4.9-4.6c2.7,0,4.7,1.9,4.9,4.6C829.3,333.4,829.3,333.8,829.3,334.3z"/>
	<path class="st5" d="M789.3,154.3c-0.9,0.9-1.8,1.7-2.7,2.5c-3.2,2.6-6.7,3.4-10.5,1.6c-3.2-1.5-6.3-3.2-9.4-4.8
		c0-0.3-0.1-0.5,0-0.5c2.3-3.2,5.1-5.8,8.8-7.1c4.3-1.5,8-0.3,11.1,2.7c2.3,2.3,4.5,4.7,6.9,6.9c0.4,0.4,0.8,0.9,1.5,1.1
		c0.1-1.6-0.4-3-0.6-4.5c-0.5-3-0.5-5.9-0.3-8.9c0.1-1-0.1-1.7-0.9-2.3c-3.7-3-3.3-7.5-1.1-11.1c1.1-1.8,2.6-3,4.4-4
		c3.1-1.7,6.6-2.7,9.9-3.9c0.7-0.2,1.1-0.2,1.3,0.7c0.6,4.7,0.7,9.4-0.9,14c-0.9,2.7-2.5,4.8-5.3,5.6c-1.2,0.4-2.5,0.3-3.8,0.3
		c-1.7,0-1.7,0-1.8,1.7c-0.3,6.1,0.9,12.1,2.9,17.8c0.1,0.3,0.2,0.6,0.7,0.9c1.6-1.8,3.2-3.7,4.9-5.5c0.4-0.5,0.5-1.1,0.5-1.7
		c0.2-2.9,1.8-4.8,4.3-6.1c2.7-1.4,8.2-2,12.1-0.9c-1.3,2.9-2.2,5.9-4.4,8.2c-2.5,2.8-5.6,3.5-9.2,2.3c-0.6-0.2-1.2-0.4-1.7-0.7
		c-0.6-0.3-1-0.1-1.3,0.4c-1.1,1.7-2.3,3.3-3.4,5c-0.3,0.4-0.4,0.9-0.5,1.3c-0.1,2.3,0,4.6,0.4,6.8c0.2,1,1,0.9,1.7,1.1
		c3.6,1,6.8,2.7,9.3,5.5c5,5.5,6.3,12,4,19c-2.3,7.1-7.5,11.3-14.7,12.6c-11.8,2.1-21-7-22.1-16.3c-1.2-9.7,5.6-20.4,17.3-21.3
		c2.2-0.2,2.2-0.3,2.3-2.6c0.1-3-0.9-5.7-2.5-8.1C794.3,159.1,792.2,156.4,789.3,154.3z"/>
	<path class="st6" d="M663.6,166.8c0.2-2,0.2-3.9,0.5-5.8c0.6-5.1,1.3-10.3,2.4-15.3c0.3-1.2,0.8-2.3,1.5-3.3c1-1.4,2.3-2.2,4.1-2
		c2.2,0.2,3.6,1.6,3.7,3.8c0.2,2.3-0.5,4.5-0.7,6.8c-0.3,3.3-0.7,6.7-0.6,10.3c0.8-1,0.9-2.1,1.1-3.1c0.8-3.1,1.4-6.2,2.1-9.3
		c0.3-1.3,0.7-2.4,1.6-3.4c1.8-1.9,4.7-1.7,6.2,0.5c1.1,1.5,1.3,3.3,1,5c-0.7,3.9-0.9,7.9-1.5,11.8c-0.4,2.6-1.4,4.9-1.9,7.4
		c-0.1,0.5-0.3,1-0.1,1.7c1-0.3,1.5-1.2,2.1-1.9c2.8-3.7,5.4-7.6,7.9-11.5c0.5-0.8,1-1.6,1.8-2.2c1.3-1.1,2.7-1.2,4.2-0.7
		c1.6,0.5,2.3,2,1.9,4c-0.5,2.7-1.7,5.1-2.9,7.5c-1.3,2.5-2.8,4.8-4.4,7c-2.7,3.8-4.4,8-5.2,12.6c-0.7,4-1.9,8-3.6,11.8
		c-1.9,4.4-5.2,6.8-10.1,7.3c-1.6,0.2-3.2,0-4.8-0.1c-3-0.1-5.9,0.3-8.9,0.1c-3.7-0.2-6.8-1.7-9.2-4.4c-4.9-5.3-10.1-10.3-14.5-16.1
		c-1.9-2.4-4.2-4.4-6.7-6.1c-1-0.7-1.9-1.4-2.8-2.3c-0.9-0.9-1.6-1.9-1-3.3c0.5-1.4,1.7-1.9,3-2c3.1-0.3,6,0.3,8.7,2
		c1.6,1.1,3.1,2.3,4.6,3.7c1,0.9,2,1.8,3.1,2.6c1.9,1.3,3.5,0.9,4.6-1c1.4-2.5,2.1-5.1,1.5-8c-1.1-5.6-2.3-11.2-3.2-16.8
		c-0.4-2.2-0.9-4.5-0.3-6.8c0.5-2,1.7-3.2,3.5-3.5c1.6-0.3,3.4,0.7,4.3,2.4c0.8,1.5,1.2,3.1,1.6,4.8c1.1,4.6,2,9.3,3.6,13.9
		C662.4,165.8,662.4,165.8,663.6,166.8z"/>
	<path class="st7" d="M658.4,283.7c0.2-2.1,0.3-4.1,0.4-6.2c0-1,0.5-1.2,1.4-1.2c2.9,0.2,5.3,2.9,5,5.8c-0.3,3.1-3,5.3-6,4.9
		c-0.6-0.1-0.9-0.3-0.9-0.9C658.3,285.3,658.3,284.5,658.4,283.7C658.3,283.7,658.3,283.7,658.4,283.7z"/>
	<path class="st8" d="M620.5,347.3c0-2.7,0-5.4,0-8.1c0-0.8,0.3-1.1,1.1-1c3.9,0.3,8.6,2.1,9.2,7.9c0.5,4.7-3.9,10-8.6,10.3
		c-1.3,0.1-1.4,0-1.4-1.4c0-2.6,0-5.1,0-7.7C620.6,347.3,620.5,347.3,620.5,347.3z"/>
	<path class="st8" d="M625.7,284.4c0-2.6,0-5.1,0-7.7c0-1.3,0.1-1.4,1.4-1.3c3.9,0.3,7.4,2.1,8.5,6.2c1.5,5.4-2.9,11.6-8.5,12
		c-1.2,0.1-1.3,0-1.3-1.3C625.8,289.7,625.8,287.1,625.7,284.4C625.7,284.4,625.7,284.4,625.7,284.4z"/>
	<path class="st9" d="M753.5,286.5c0.3-3.2,2.2-5.7,4.8-6.4c0.8-0.2,1.7-0.6,2.3,0.2c0.6,0.8-0.1,1.5-0.7,2.1
		C758.2,284.3,756,285.5,753.5,286.5z"/>
	<path class="st8" d="M691.1,290.8c-0.1-1.8,0.4-3.6,1.1-5.4c1-2.6,4.4-3.2,6.4-1.3c0.5,0.5,0.7,1.1,0.8,1.8c0.2,3.1-0.6,6-2.2,8.7
		c-0.4,0.6-0.9,1-1.4,1.5c-1.5,1.2-2.8,0.9-3.8-0.8C691.1,293.9,691,292.4,691.1,290.8z"/>
	<path class="st8" d="M842,353.5c-0.1-1.7,0.4-3.5,1.1-5.2c1.1-2.6,4.1-3.2,6.2-1.4c0.5,0.4,0.8,0.9,0.8,1.6
		c0.3,3.4-0.4,6.6-2.4,9.4c-0.7,1-1.7,2.1-3.2,1.8c-1.5-0.3-1.8-1.6-2.3-2.8C842,355.8,842,354.8,842,353.5z"/>
	<path class="st8" d="M652.7,354c0-2.2,0.5-4.2,1.3-6c0.7-1.6,2.1-2.3,3.8-2c2.1,0.3,3.2,1.2,3.3,3c0.1,3.5-0.6,6.8-3.1,9.5
		c-2.1,2.3-4,1.1-4.7-1C652.8,356.2,652.6,355,652.7,354z"/>
	<path class="st8" d="M836.8,291c0-2.1,0.5-3.9,1.2-5.6c0.8-1.9,2.1-2.6,4.2-2.2c2.2,0.4,3.1,1.4,3,3.6c-0.1,2.6-0.7,5-2,7.3
		c-0.4,0.7-0.9,1.3-1.6,1.8c-1.7,1.4-3.3,1.1-4.2-1C836.9,293.7,836.7,292.3,836.8,291z"/>
	<path class="st2" d="M793.1,192.6c0.3,0,0.9-0.5,0.9,0.3c0,1-0.4,2-0.9,2.9c-0.2,0.5-0.7,0.8-0.6,1.4c0.9-0.3,1-1.5,2-1.8
		c0.9,1,1.2,2.3,2.2,3.6c0.3-1.3-0.4-2.1-0.7-3c-0.5-1.6-1.2-3.2-0.4-4.9c0.1-0.2,0.1-0.4,0.5-0.4c0.9,0.6,1.1,1.7,1.3,2.7
		c0.2,0.9,0.3,1.5,1,2.3c1,1.1,1.1,2.7,0.5,4.2c-0.3,0.8-0.8,1.6-0.3,2.6c1.9-2.7,2.5-5.4,0.9-8.4c1.5,0.3,1.7,0.4,2.3,1.6
		c0.4,0.8,0.5,1.8,1.3,2.7c0.2-1.8-0.2-3.2-1.2-4.5c-0.4-0.6-1.2-0.9-1.2-1.8c0-0.3-0.3-0.3-0.6-0.3c-1.9,0.1-2.1-0.2-2.4-2.5
		c0.9-0.3,1.5,0.4,2.3,0.5c1,0.2,2.1,0.7,3-0.4c0.6-0.7,0.3-1.9-0.8-3.1c-1.5-1.6-3.4-2.7-5.7-2.4c-0.8,0.1-1.1-0.2-1.2-0.9
		c-0.2-1.3-0.2-2.6,0.6-3.7c0.5-0.7,1.1-1.4,1.7-2c2.6-2.8,2.9-2.9,6.5-1.6c6.8,2.4,10.7,9.2,10.9,15.1c0.2,8.6-6.3,16.8-16.3,17.1
		c-8.4,0.3-16.5-6.2-16.9-15.4c-0.4-8.6,4.6-15.5,12.9-17.5c0.7-0.2,1.4-0.2,2.4-0.2c-0.8,0.9-1.3,1.6-1.9,2.3c-2.1,2.5-2.5,5.1-1,8
		c0.1,0.1,0.1,0.3,0.2,0.4c1.3,2.1,1.5,4.2-0.7,5.9C793.1,192,793.1,192.3,793.1,192.6L793.1,192.6L793.1,192.6z"/>
	<path class="st2" d="M805.7,124.2c0.5,0.4,0.5,0.8,0.6,1.2c0.4,4,0.2,8-1.5,11.7c-1.6,3.5-4.9,4.7-8.6,3c1.5-3,3-6.1,4.5-9.1
		c-0.1-0.1-0.3-0.2-0.4-0.2c-1.9,2.9-3.8,5.9-5.8,9c-1.4-0.9-2.1-2-2.2-3.5c-0.4-3.6,1.4-6.2,4.1-8.3c1.2-0.9,2.5-1.5,4-2
		C802.1,125.3,804,124.7,805.7,124.2z"/>
	<path class="st2" d="M786.3,151.3c-3.8-0.3-7.4-0.9-10.9,0.2c4,0,8,0.3,11.8,1.7c-1.6,3.5-5.8,5.2-9.7,3.9c-2.7-1-5.1-2.7-7.6-4.1
		c-0.4-0.2-0.6-0.5-0.3-1c2.6-3.4,7.8-6.6,12.9-4.1C784.2,148.6,785,149.3,786.3,151.3z"/>
	<path class="st10" d="M811.9,153.2c-1.6,0.7-3.2,1.4-5,2.2c-0.1-1.7,0.7-2.7,1.7-3.4c2.7-1.9,5.8-2.3,9-2.1c0.5,0,1,0.3,0.7,0.9
		c-1.1,3.2-2.8,5.8-6.1,7.1c-1.9,0.7-3.5,0.3-5.2-0.9C808.6,155.5,810.4,154.6,811.9,153.2z"/>
	<path class="st3" d="M668.5,186.3c-1-1.7-2-3.3-3-5c-0.4-0.7-0.9-1.4-1.6-1.8c-1.5-0.8-3.1,0-3.2,1.7c-0.1,1,0.2,2,0.7,2.9
		c1.2,2.2,2.3,4.4,3.5,6.6c0.6,1.1,0.9,2.2,0.8,3.5c-0.1,1.4-0.6,1.7-2,1.2c-1.2-0.5-2.3-1.1-3.6-1.4c-1.4-0.4-2.8-0.3-4.1,0.3
		c-0.6,0.3-1.2,0.7-1.3,1.4c-0.1,0.9,0.4,1.4,1.1,1.8c0.2,0.1,0.3,0.2,0.5,0.3c4.2,1.2,7.5,4.2,11.3,6.2c0,0,0,0.1,0.1,0.3
		c-2.7,0.1-5.5,0.3-8.2-0.1c-2.3-0.3-4.3-1.5-5.9-3.2c-4.6-5-9.6-9.7-13.7-15.1c-2.5-3.2-5.3-5.9-8.7-8.1c-0.9-0.6-1.6-1.2-2.3-2
		c-1.2-1.4-0.8-2.6,1-2.9c1.4-0.3,2.8-0.2,4.2,0.1c3.3,0.7,5.7,2.7,8,4.9c1.1,1,2.1,2.1,3.3,2.9c2.9,1.9,5.2,1.4,6.9-1.7
		c1.4-2.7,2-5.6,1.4-8.6c-1.1-5.7-2.2-11.5-3.3-17.2c-0.3-1.8-0.3-3.6-0.2-5.4c0.1-1.4,1-2.5,2.2-2.8c1.2-0.3,2.4,0.3,3.2,1.6
		c0.6,0.9,0.9,2,1.2,3c1.1,4.3,2.1,8.6,3.2,12.9c0.2,1,0.6,1.9,0.9,2.9c0.3,0.8,0.7,1.5,1.2,2.1c0.5,0.5,1,0.9,1.8,0.6
		c0.7-0.3,1-0.9,1-1.6c0-0.9,0.2-1.9,0.2-2.8c0-4.1,1.1-8.1,1.6-12.2c0.2-1.9,0.5-3.7,1-5.6c0.3-1.1,0.8-2.2,1.5-3.1
		c0.9-1.2,2.2-1.6,3.6-1.1c1.2,0.4,1.7,1.2,1.8,2.8c0.1,1.3-0.2,2.5-0.4,3.8c-0.7,4.8-0.7,9.7-1.2,14.5c-0.1,1-0.3,2-0.4,3
		c-0.1,0.6-0.1,1.2-0.1,1.8c0,0.4,0.2,0.8,0.6,0.9c0.5,0.1,1-0.1,1.2-0.6c0.2-0.5,0.3-1,0.5-1.5c1.3-5.8,3.2-11.4,4.2-17.2
		c0.2-1,0.5-1.9,1.2-2.8c1.3-1.7,3.4-1.6,4.5,0.2c0.7,1.2,1,2.5,0.7,3.9c-0.7,3.8-0.9,7.7-1.5,11.6c-0.3,2.6-1.4,4.9-1.9,7.4
		c-0.2,0.8-0.3,1.6-0.3,2.4c0.1,1.4,1.1,1.9,2.2,1c0.9-0.7,1.7-1.6,2.4-2.5c2.8-3.6,5.3-7.4,7.8-11.3c0.5-0.7,1-1.4,1.6-2.1
		c0.6-0.5,1.2-0.8,2-0.7c1.5,0.1,2.2,0.9,2,2.4c-0.2,1.6-0.8,3.1-1.5,4.6c-1.5,3.3-3.3,6.5-5.4,9.5c-1.8,2.7-3.6,5.4-4.5,8.6
		c-0.4,1.4-0.7,2.9-1,4.3c-0.7,3.6-1.8,7-3,10.5c-0.1,0.3-0.2,0.7-0.7,0.9c-0.3-3.4-0.9-6.7,0.3-10c0.6-1.8,0.9-3.6,1.2-5.5
		c0.1-0.6,0.1-1.2-0.1-1.8c-0.2-0.7-0.5-1.4-1.4-1.6c-0.9-0.1-1.7,0.1-2.3,0.9c-0.3,0.5-0.5,1.1-0.6,1.7c-0.5,1.7-0.9,3.5-1.8,5.1
		c0.1-2.5-0.8-4.8-1-7.1c-0.1-0.8-0.3-1.6-0.8-2.3c-0.7-1-1.6-1.3-2.6-1c-1,0.3-1.4,1-1.4,2c0,0.6,0,1.2-0.1,1.8
		c-0.2-0.8-0.4-1.6-0.6-2.4c-0.4-1.2-1.3-1.9-2.4-1.8c-1.1,0.1-1.9,1-2.1,2.2c-0.1,1.3-0.1,2.7,0.2,4c0.3,1.6,0.3,3.2,0.8,4.8
		C668.8,186.3,668.7,186.3,668.5,186.3z"/>
	<path class="st3" d="M656.1,195.8c1.2-0.9,2.4-1,3.7-0.6c1.2,0.4,2.4,1,3.6,1.4c2.1,0.9,3.5,0.1,3.6-2.2c0.1-1.4,0-2.8-0.8-4.1
		c-1.2-2.2-2.4-4.4-3.5-6.6c-0.3-0.6-0.6-1.2-0.7-1.9c0-0.5,0-1,0.5-1.2c0.5-0.3,0.9,0,1.2,0.4c0.4,0.5,0.7,1,1,1.5
		c0.9,1.5,1.8,3,2.7,4.5c0.4,0.6,0.9,1.2,1.4,1.7c0.4,0.4,0.9,0.6,1.4,0.2c0.4-0.3,0.6-0.7,0.4-1.2c-0.1-0.5-0.2-0.9-0.3-1.4
		c-0.6-2.4-0.9-4.8-1.1-7.2c0-0.4,0-0.8,0-1.2c0-0.7,0.3-1.2,1-1.3c0.8-0.1,1,0.6,1.1,1.2c0.6,2.5,1.1,5,1.6,7.5
		c0.1,0.7,0.2,1.3,0.4,2c0.1,0.4,0.4,0.8,0.9,0.7c0.5-0.1,0.7-0.4,0.7-0.9c0-1.8,0-3.6-0.2-5.5c-0.1-1.1-0.2-2.3-0.2-3.4
		c0-0.5,0-1.2,0.7-1.3c0.7-0.1,1.1,0.4,1.3,1c0.2,0.4,0.3,0.9,0.4,1.4c0.3,2.5,1.1,5,0.9,7.6c0,0.2,0,0.4,0,0.6
		c0,0.6,0.2,1.1,0.8,1.3c0.8,0.2,1.1-0.4,1.4-0.9c1-2,1.5-4.2,2.2-6.3c0.2-0.7,0.3-2,1.2-1.8c1.2,0.2,0.6,1.4,0.6,2.2
		c0,1.6-0.4,3.1-0.9,4.5c-0.7,2.1-0.9,4.2-0.8,6.4c0.1,1.8,0.1,3.6,0.1,5.5c0,2.2-1.2,3.5-3.1,4.3c-1.7,0.6-3.5,1.1-5.2,1.6
		c-1.5,0.4-2.9,0.2-4.3-0.6c-2.6-1.6-5.4-3-8-4.8c-1.4-1-3.1-1.7-4.8-2.2C656.6,196.5,656.3,196.3,656.1,195.8z"/>
	<path class="st5" d="M793.1,192.6c0,0.6-0.3,1-1.1,1.2C792.4,193.1,792.5,192.7,793.1,192.6C793.1,192.6,793.1,192.6,793.1,192.6z"
		/>
</g>
</svg>
