<?xml version="1.0" encoding="utf-8"?>
<!-- Generator: Adobe Illustrator 23.0.5, SVG Export Plug-In . SVG Version: 6.00 Build 0)  -->
<svg version="1.1" id="Capa_1" xmlns="http://www.w3.org/2000/svg" xmlns:xlink="http://www.w3.org/1999/xlink" x="0px" y="0px"
	 viewBox="0 0 464.1 256" style="enable-background:new 0 0 464.1 256;" xml:space="preserve">
<style type="text/css">
	.st0{fill:#FFFFFF;}
</style>
<g>
	<path class="st0" d="M298.5,254.7c-1.3-0.2-2.5-0.3-3.8-0.5c-7.2-1.1-13.6-3.8-19.1-8.6c-7.5-6.4-11.6-14.5-12.9-24.1
		c-0.2-1.2-0.4-2.3-0.3-3.5c0.1-2.7,1.6-4.3,4.3-4.4c2.7-0.1,5.5-0.1,8.2-0.2c4,0,8.1,0,12.1-0.1c1.2,0,2.4-0.1,3.6-0.1
		c2.1,0,3.8,1.5,3.4,3.9c-0.5,3.3-0.3,6.5,1.1,9.6c1.8,3.8,5.6,5.2,9.2,4.8c4.6-0.5,7.3-3.4,8.9-7.5c0.8-2.1,1.2-4.2,1.5-6.4
		s2.1-4,4.4-4.1c5.1-0.2,10.3-0.5,15.4-0.7c3.1-0.1,6.2-0.3,9.4-0.5c2.8-0.1,4.5,1.6,4.8,4.4c0.2,2.1-0.5,4.1-1.1,6
		c-3.7,11.3-11,19.7-21.3,25.5c-6,3.4-12.4,5.4-19.3,6.1c-0.8,0.1-1.7,0-2.5,0.3C302.6,254.7,300.5,254.7,298.5,254.7z M289.6,238.4
		c1.7,0,3.5-1.6,3.7-3.3c0-0.4-0.2-0.4-0.4-0.4c-0.6,0-1.2,0.1-1.7-0.1c-1.5-0.5-2.8-0.1-3.6,1.2c-0.2,0.3-0.3,0.5-0.2,0.9
		C287.6,237.6,288.6,238.3,289.6,238.4z M281.8,222.8c0-0.3-0.3-0.3-0.5-0.4c-0.7-0.3-1.3-0.6-1.8-1.1c-0.9-0.9-1.9-0.8-2.6,0.3
		c-0.2,0.4-0.2,0.6,0.3,0.7c1,0.2,1.9,0.6,2.4,1.5c0.3,0.6,0.6,0.5,1.2,0.3C281.4,223.8,281.7,223.5,281.8,222.8z M326.6,234.5
		c-0.5-0.6-0.8-1.1-1.1-1.6c-0.2-0.6-1.2-0.9-1.8-0.8c-0.3,0.1-0.4,0.3-0.3,0.6c0.4,0.9,0.8,1.9,1.2,2.8c0.1,0.2,0.2,0.5,0.5,0.4
		c0.2,0,0.2-0.3,0.3-0.5C325.7,234.9,325.9,234.4,326.6,234.5z M313.4,242.1c0.3-0.3,0.9-0.2,0.9-0.8c0-0.4-1.1-1.6-1.5-1.6
		c-0.5,0.1-0.8,0.4-0.8,0.9C312,241.3,312.8,242.1,313.4,242.1z M280.4,225.3c0-0.3,0-0.6-0.5-0.6c-0.7,0-1.8,0.7-1.7,1.1
		c0,0.6,0.5,0.8,1,0.8C280,226.7,280.4,226.3,280.4,225.3z M319.9,235.7c0-0.8-0.2-1.3-0.7-1.7c-0.3-0.2-0.7-0.3-0.7,0.2
		c0,0.7,0,1.4,0.1,2.1c0,0.2,0.2,0.3,0.4,0.3C319.6,236.7,319.9,236.4,319.9,235.7z M296.1,239.6c-0.4-0.1-0.7-0.1-0.7,0.4
		c0,0.4,0,0.7,0.6,0.7c0.4,0,0.9,0.1,1.3,0.1c0.3,0,0.7,0.1,0.7-0.5c0-0.5-0.1-0.7-0.6-0.7C296.9,239.7,296.5,239.7,296.1,239.6z
		 M327.3,229.9c-0.5-0.6,0.3-1.9-1.2-1.8L326,228c-0.2-0.3-0.3-0.3-0.5-0.1c-0.4,0.5,0,1.5,0.6,1.7
		C326.5,229.6,326.9,229.7,327.3,229.9z M325.3,226.5c0.6,0,1.3,0.3,1.6-0.5c0.1-0.1,0-0.7-0.3-0.7
		C326,225.3,325.5,225.6,325.3,226.5z M329.8,226.6c0.3-0.3,1-0.2,1.2-0.7c0.1-0.2-0.1-0.5-0.3-0.4c-0.4,0.2-1.1,0.1-1.2,0.8
		C329.4,226.4,329.5,226.6,329.8,226.6z M285.3,229.6c-0.1-0.2-0.2-0.5-0.5-0.6c-0.2,0-0.3,0.1-0.3,0.3c0,0.3,0.1,0.7,0.4,0.8
		C285.1,230.2,285.2,229.9,285.3,229.6z M274.2,232.9c0.4-0.1,0.8-0.1,0.9-0.5c0-0.1,0-0.3-0.2-0.3
		C274.6,232.2,274.3,232.4,274.2,232.9z"/>
	<path class="st0" d="M368.4,173.3c0.2,0.3,0.2,0.6,0.1,0.9c-0.6,1.7-0.9,3.4-1.4,5.1c-0.9,2.8-2.1,5.5-3.4,8.1
		c-0.3,0.6-1,1.1-1.1,1.6c-0.3,1.3-1.2,2.1-1.9,3.1c-4.3,5.7-9.9,9.4-17,10.4s-13.8-0.1-19.5-5c-3.5-3-5.9-6.8-7.7-11.1
		c-0.7-1.8-1.4-3.6-1.7-5.5c-0.7-3.8-1.3-7.7-1.2-11.6c0-0.7-0.2-1-0.9-1.1c-2.1-0.1-4.1-0.2-6.2-0.3c-0.5,0-0.5,0.3-0.6,0.6
		c-0.2,1.2-0.3,2.3-0.6,3.5c-0.4,2-0.7,4-1.3,6c-1,3.3-2.3,6.5-4,9.5c-2.6,4.5-5.8,8.6-10.3,11.4c-3.7,2.3-7.8,3.5-12.2,3.8
		c-4.6,0.3-9.1-0.4-13.2-2.6c-3.1-1.7-5.6-4.1-7.7-7c-2.8-3.9-4.6-8.2-5.6-12.9c-1.2-5.9-1.4-12-0.8-18c0.7-7.4,2.1-14.7,4.8-21.6
		c2.1-5.6,5.1-10.8,9.5-15c4.2-3.9,9.1-6.3,14.8-6.6c7.7-0.5,14.3,1.8,19.7,7.5c2.9,3,4.5,6.7,5.7,10.6c1.5,4.8,2.2,9.6,2.3,14.6
		c0.1,1.8-0.4,1.7,1.8,1.5c1.8-0.2,3.5-0.3,5.3-0.4c0.9,0,1.2-0.3,1.4-1.2c1.2-6,3-11.8,5.9-17.2c2.7-5,6.2-9.2,11.1-12.2
		c9.1-5.5,22.3-4.1,30,4.1c2.9,3.1,4.6,6.9,5.8,10.9c2.1,6.8,2.5,13.8,2.2,20.9c-0.2,4.9-0.7,9.7-1.7,14.4
		C368.7,172.9,368.8,173.2,368.4,173.3c-0.1-0.1-0.1-0.1-0.2-0.2c-0.3-0.6-0.8-0.6-1.5-0.4c0.4,0.5,1,0.3,1.4,0.5
		C368.2,173.3,368.3,173.3,368.4,173.3z M288.8,124.6c-0.1,0-0.2,0-0.2,0c-1.1,0.7-1.3,0.7-2.3-0.1c0,0,0,0-0.1,0
		c-0.4,0-0.8,0.1-0.9,0.4c-0.1,0.5,0.3,0.9,0.7,1.1c0.2,0.1,0.8,0.3,0.8-0.1c0.1-0.8,0.7-0.6,1.1-0.7
		C288.3,125.3,288.8,125.2,288.8,124.6c0.4-0.2,1-0.1,1.3-0.7C289.3,123.6,288.8,123.7,288.8,124.6z M352.4,124.6
		c-0.2-0.1-0.4,0.1-0.5,0.2c-0.4,0.4-1,0.4-1.5,0.4c-0.5,0.1-0.3-0.4-0.5-0.7c-0.2-0.3-0.4,0-0.6,0.1c-0.2,0.1-0.5,0.1-0.5,0.4
		c0,0.5,0.9,1.2,1.4,1.1c0.1,0,0.3,0,0.3-0.1c-0.1-0.9,0.6-0.6,1-0.7C351.9,125.3,352.3,125.2,352.4,124.6c0.4-0.3,1-0.1,1.2-0.6
		C352.6,123.6,352.6,123.6,352.4,124.6z M363.2,174c-0.4,0-0.7,0.2-0.8,0.6c0.5,0.3,1,0.2,1.5,0.3c0.4,0.1,1,0,1.1,0.5
		s-0.7,0.2-0.8,0.7c1,0.6,1.3-0.5,1.9-0.8c-0.4-0.3-0.7-0.6-1-0.9c0.3-0.2,0.8,0,0.8-0.4s-0.4-0.4-0.7-0.6h-0.1
		c-0.5-0.2-0.5-0.4-0.1-0.7c0.2-0.1,0.4-0.1,0.5-0.4c-0.8-0.8-0.8-0.8-1.8-0.6c0.3,0.2,0.5,0.5,0.8,0.7
		C363.8,172.8,363.5,173.4,363.2,174L363.2,174z M271,170.2c0,1,0,2,0,3c0.1,2.8,0.3,5.5,1.6,8c1.5,3,5.5,3.2,7.4,1.7
		c1.8-1.4,2.7-3.4,3.4-5.4c1.3-3.9,2.2-7.8,2.7-11.9c0.1-0.5-0.1-1.1,0.8-1.2c0.2,0,0.4-0.4,0-0.6c-0.5-0.2-0.3-0.5-0.3-0.8
		c0.3-6.1,0.9-12.3,0.2-18.5c-0.3-2.4-0.6-4.9-1.8-7.1c-1.1-2.1-3.2-2.7-5.3-1.6c-1.4,0.8-2.3,2-3.1,3.3c-1.6,2.8-2.5,5.9-3.2,9
		C271.6,155.4,271,162.8,271,170.2z M350.5,151c0.1-2.2,0-4.9-0.4-7.6c-0.3-2.1-0.7-4.1-1.7-6c-1.2-2.2-3.4-2.8-5.6-1.5
		c-1.2,0.7-2,1.8-2.7,3c-1,1.9-1.8,3.8-2.4,5.8c-1.6,5.2-2.4,10.5-2.8,15.8c-0.4,4.9-0.7,9.8-0.3,14.7c0.1,2,0.5,4,1.4,5.8
		c1.1,2.1,2.7,3,5.5,2.6c1.9-0.3,3-1.6,4-3.1c1.3-2.1,1.9-4.5,2.5-6.8c0.8-2.8,1.4-5.7,1.6-8.7c0.1-0.7,0.7-0.6,0.9-1
		c0.1-0.5-0.6-0.6-0.5-1.3C350.4,159.1,350.6,155.3,350.5,151z M364.8,166c-0.7-0.1-1.3,0.3-2,0.6c-0.1,0-0.3-0.1-0.3,0.2
		c0,0.6,0.8,1.4,1.3,1.5c0.2,0,0.5,0.1,0.5-0.2c0-0.2,0-0.5-0.4-0.6c-0.2-0.1-0.6,0-0.7-0.4c0.7-0.4,1.5-0.2,2.1-0.7
		c0.2-0.2,0.4-0.2,0.1-0.5c-0.6-0.7-0.6-1.9-0.2-2.6c0-0.1,0-0.2-0.1-0.2c-0.3-0.4,0-0.4,0.3-0.4s0.6,0.1,0.9,0.1
		c0.4,0,0.7-0.1,0.8-0.5s-0.2-0.5-0.5-0.6c-0.4-0.2-0.7-0.1-0.8,0.3c-0.1,0.5-0.5,0.5-0.9,0.4c-0.5,0-1-0.1-1.5,0.3
		c0.2,0.3,0.5-0.2,0.6,0.2c0.1,0.3-0.2,0.3-0.4,0.4c-0.3,0.2-0.7,0.3-1,0.5c-0.5,0.1-0.5,0.5-0.5,0.9c0.1,0.4,0.3,0.7,0.8,0.6
		C363.9,165,364.3,165.4,364.8,166z M331.5,190c0.9,0,1.8-0.6,1.8-1.2c-0.1-0.7-0.5-1.3-0.8-1.9c0,0-0.2-0.1-0.3,0
		c-0.8,0.3-1.5,0.5-2.2,1c-0.3,0.2-0.6,0.7-0.3,0.9C330.4,189.2,330.9,189.9,331.5,190z M268.1,190c0.8-0.1,1.3-0.4,1.6-1
		c0.3-0.5,0.1-0.9-0.4-1.2c-0.2-0.1-0.2-0.3-0.2-0.4c0.1-0.5-0.2-0.5-0.6-0.4c-0.7,0.2-1.4,0.5-2,1c-0.3,0.2-0.6,0.8-0.4,0.9
		C266.8,189.2,267.3,189.9,268.1,190z M352,186.3c-0.4,0-0.7,0.1-0.7,0.4c0,0.3-0.5,0.8,0.1,1.1c0.2,0.1,0.4,0.3,0.5,0.6
		c0.4,0.8,1.6,1.2,2.3,0.9c0.5-0.2,1.2-0.3,1.2-0.8s-0.7-0.7-1.2-0.9c-0.7-0.3-1.5-0.3-1.8-1.1C352.3,186.3,352,186.3,352,186.3z
		 M288.5,186.3c-0.5,0-0.7,0.1-0.9,0.5c-0.2,0.6,0.3,0.9,0.5,1.3c0.9,1.3,1.9,1.5,3.2,0.8c0.7-0.4,0.7-0.5,0-1
		c-0.8-0.6-2.1-0.5-2.6-1.5C288.6,186.3,288.5,186.3,288.5,186.3z M300.1,171.6c0.3,0.2,0.4,0.4,0.6,0.5c0.2,0.1,0.3,0.3,0,0.5
		c-0.8,0.4-0.9,1.3-1.7,1.7c-0.4,0.2-0.2,0.5,0.2,0.5c0.5,0.1,0.9,0.1,1.4,0.2c0.3,0.1,0.8,0,0.8,0.4s-0.5,0.2-0.7,0.5
		c0,0,0,0.1,0,0.2c1,0.5,1.2-0.5,1.7-0.8c-0.5-1.3-1.9-0.5-2.7-1.3c0.6-0.2,1.2-0.5,1.6-0.1c0.3,0.2,0.4,0.4,0.8,0.3
		c0.2,0,0.3-0.2,0.3-0.3c0-0.4-0.4-0.4-0.6-0.5c-0.8-0.3-0.7-0.5,0-0.9c0.1,0,0.2-0.1,0.3-0.2C301.5,171.7,301,171.5,300.1,171.6z
		 M357.9,175.2c-0.1-0.1-0.2-0.1-0.2-0.2c-0.1-0.3-0.3-0.7-0.7-0.6c-0.4,0.1-0.4,0.6-0.4,1c0,0.5,0.4,0.4,0.7,0.5
		c0.2,0.1,0.4,0,0.6,0.1c0.5,0,0.9,0.2,0.6,0.8c-0.1,0.2-0.2,0.5,0.2,0.6s0.8,0.2,1.1-0.2c0.3-0.3,0-0.5-0.2-0.7
		c-0.5-0.3-0.5-0.6-0.1-1c0.6-0.5,0.2-1,0-1.5c-0.2-0.4-0.6-0.2-0.9-0.2c-0.4,0-0.2,0.4-0.2,0.6C358.1,174.6,358.3,175,357.9,175.2z
		 M294.3,175.3c-0.1-0.2-0.2-0.2-0.3-0.3c-0.1-0.3-0.3-0.7-0.7-0.6c-0.4,0.1-0.4,0.6-0.4,1c0,0.5,0.4,0.4,0.7,0.4
		c0.2,0.1,0.4,0,0.6,0c0.6,0,0.9,0.2,0.6,0.8c-0.1,0.2-0.2,0.5,0.1,0.6c0.4,0.1,0.9,0.2,1.2-0.2c0.2-0.2,0.1-0.5-0.2-0.7
		c-0.5-0.3-0.5-0.7-0.1-1c0.6-0.6,0.2-1.1-0.1-1.5c-0.2-0.3-0.6-0.2-0.9-0.2c-0.4,0-0.2,0.3-0.2,0.5
		C294.6,174.6,294.6,174.9,294.3,175.3z M290,172.5c0.4-0.1,0.9-0.2,1.3-0.4c0.2-0.1,0.3-0.1,0.3-0.3c0-0.3-0.3-0.3-0.5-0.3
		c-1.2,0.2-2.5-0.7-3.6,0.4c-0.1,0.1-0.3,0.1-0.4,0c-0.3-0.1-0.4,0-0.4,0.3c0,0.2,0,0.6,0.4,0.5C288.1,172.3,289,172.2,290,172.5z
		 M292.3,178.4c-0.1,0.7,0.2,1,0.9,0.8c0.4-0.1,0.7-0.1,1.1-0.2c0.3-0.1,0.6-0.2,1,0.1c0.2,0.1,0.5,0.3,0.6,0.1
		c0.2-0.2,0.2-0.6,0-0.8s-0.5-0.2-0.7,0.1c-0.2,0.2-0.4,0.4-0.7,0.4s-0.6,0-0.7-0.3c-0.1-0.3,0.3-0.3,0.4-0.4
		c0.3-0.1,0.5-0.4,0.3-0.6c-0.5-0.3-1.1,0-1.7,0.1C292.2,177.7,292.2,178,292.3,178.4z M355.9,178.4c-0.1,0.6,0.2,0.9,0.9,0.8
		c0.4-0.1,0.7-0.1,1.1-0.2c0.3-0.1,0.6-0.2,1,0c0.2,0.1,0.4,0.3,0.6,0c0.1-0.2,0.1-0.6-0.1-0.8c-0.2-0.2-0.4-0.1-0.6,0
		c-0.1,0.1-0.2,0.2-0.3,0.3c-0.4,0.2-0.8,0.3-1-0.1c-0.3-0.4,0.2-0.4,0.4-0.5s0.4-0.4,0.1-0.5c-0.6-0.3-1.1,0-1.7,0.1
		C355.8,177.7,355.8,178,355.9,178.4z M350.4,171.8c-0.1,0.6,0,0.9,0.8,0.7c0.6-0.2,1.3-0.3,2-0.1c0.6,0.2,1.1-0.1,1.7-0.3
		c0.2-0.1,0.3-0.2,0.3-0.4s-0.2-0.3-0.4-0.2c-1.2,0.2-2.5-0.7-3.7,0.4C350.9,172,350.6,171.7,350.4,171.8z M319.6,188.7
		c0.5-0.4,0.7-1.1,0.7-2.2c0-0.7-0.6-0.6-1.1-1.1c0.2,0.6-0.2,1.1,0.4,1.4c0.2,0.1,0,0.2-0.1,0.3c-0.7,0.4-0.5,1-0.4,1.7
		c0.1,0.5,0.8,0.9,0.3,1.7C320.6,189.7,320.6,189.3,319.6,188.7z M255.8,185.1c0.2,0.5-0.4,1.2,0.3,1.7c0.1,0.1,0,0.2-0.1,0.3
		c-0.8,0.4-0.5,1-0.4,1.7c0.1,0.5,0.7,0.9,0.4,1.6c1.1-0.6,1.1-1,0.1-1.6C257.1,187.4,256.7,186.2,255.8,185.1z M354.4,162.5
		c-0.8-0.5-1.5-0.8-2.2-1.2c-0.2-0.1-0.5-0.2-0.6,0c-0.4,0.4-0.5,0.9-0.4,1.4s0.7,0.5,1.1,0.4C353,163,353.6,162.7,354.4,162.5z
		 M290.8,162.5c-0.8-0.4-1.4-0.8-2-1.1c-0.2-0.1-0.5-0.3-0.7-0.1c-0.4,0.4-0.4,0.9-0.4,1.4c0,0.3,0.3,0.4,0.5,0.5
		C289.1,163.2,289.8,162.7,290.8,162.5z M352.6,147.9c0,0,0.2,0,0.4-0.1c0.4-0.1,0.8-0.2,0.8-0.7c0-0.4,0-0.7-0.4-0.8
		c-0.5-0.2-0.8-0.1-1,0.4c0,0.1-0.2,0.2-0.3,0.3c-0.2,0.2-0.6,0.2-0.4,0.6C351.7,147.9,352.1,147.9,352.6,147.9z M289.1,147.9
		c0,0,0.2,0,0.4-0.1c0.4-0.1,0.8-0.2,0.7-0.8c0-0.4-0.1-0.7-0.5-0.8c-0.5-0.2-0.8,0-0.9,0.4c0,0.1-0.2,0.2-0.3,0.3
		c-0.2,0.2-0.6,0.2-0.5,0.6S288.5,147.9,289.1,147.9z M257.1,173.6c0.1-0.4-0.1-0.7-0.6-0.7c-0.7,0-0.9,0.6-1,1.1s0.2,0.7,0.7,0.7
		C256.9,174.7,257.1,174.3,257.1,173.6z M343.4,192.7c0.9,0.2,1.8,0.4,2.6,0c0.2-0.1,0.4-0.2,0.4-0.5s-0.2-0.3-0.5-0.4
		C345,191.8,344.2,192.1,343.4,192.7z M320.6,173.8c0-0.4,0.1-0.8-0.6-0.8c-0.7,0-0.9,0.5-1,1.1c-0.1,0.5,0.2,0.7,0.7,0.7
		C320.4,174.7,320.7,174.4,320.6,173.8z M279.9,192.7c0.9,0.2,1.7,0.4,2.5,0c0.3-0.1,0.5-0.2,0.4-0.5s-0.3-0.3-0.5-0.3
		C281.4,191.8,280.7,192.1,279.9,192.7z M364,169.6c-0.7,0.4-1.3,0.4-1.9,0c-0.3-0.2-0.5-0.1-0.8,0.1c-0.1,0.1-0.2,0.2-0.1,0.4
		c0.1,0.4,0.4,0.2,0.7,0.3s0.7,0.1,1,0.2C363.4,170.6,363.9,170.5,364,169.6z M299.8,160.3c-1-0.1-1.7-0.8-2.8-0.3
		c1.8,0.3,1.8,0.3,1.1,1.3C299.2,162.1,299.2,160.8,299.8,160.3z M287,168.3c0.4-0.1,0.5,0.4,0.7,0.6c0.5,0.6,1.3,0.7,1.8,0.4
		c0.1-0.1,0.3-0.2,0.2-0.4c0-0.2-0.2-0.2-0.3-0.2C288.6,168.5,287.8,168.4,287,168.3z M300.3,169.6c-0.7,0.4-1.3,0.3-1.9-0.1
		c-0.3-0.2-0.7,0-0.8,0.3c-0.2,0.4,0.2,0.4,0.5,0.5c0.4,0,0.8,0.1,1.2,0.2C299.9,170.6,300.3,170.5,300.3,169.6z M294.8,187.1
		c-0.3,0.2-0.9,0.1-0.7,0.4c0.2,0.4-0.1,1.1,0.7,1.1c0.6,0,0.8-0.3,0.9-0.8C295.7,187.2,295.1,187.3,294.8,187.1z M256.2,180.1
		c0-0.2,0-0.4,0-0.5c-0.1-0.3,0.2-0.8-0.3-0.7c-0.4,0-0.7,0.3-0.6,0.9c0,0.2,0.1,0.3,0.1,0.5c0.2,0.4,0.4,0.8,0.5,1.2
		C256.5,181.1,256.1,180.6,256.2,180.1z M361.7,161.2c1.2,1,1.1-0.5,1.6-0.9c-1.7-0.7-2.1-0.7-2.5-0.3c0.4,0.1,1-0.2,1.3,0.3
		C362.3,160.8,361.7,160.9,361.7,161.2z M319.4,181.6c0.5-0.7,0.3-1.5,0.4-2.2c0-0.2,0-0.4-0.2-0.4c-0.2-0.1-0.4,0.1-0.5,0.2
		c-0.6,0.5-0.1,1.1,0.1,1.6C319.3,180.9,319.7,181.2,319.4,181.6z M358.2,172.4c0.1,0,0.2,0,0.3,0c0.3,0,0.5-0.1,0.6-0.3
		s0-0.4-0.2-0.5c-0.6-0.1-1.2-0.5-1.7,0.1c-0.2,0.2,0,0.4,0.1,0.5s0.2,0.2,0.4,0.2C357.9,172.4,358,172.4,358.2,172.4z M294.7,172.4
		c0.3,0.1,0.8,0.2,0.8-0.4c0-0.6-0.5-0.4-0.8-0.5c-0.2-0.1-0.4-0.1-0.6-0.1c-0.3,0-0.5,0.1-0.5,0.4c0,0.3,0.2,0.5,0.5,0.5
		C294.3,172.4,294.5,172.4,294.7,172.4z M353.7,158.7c-0.2,0-0.4,0-0.4,0.2c-0.1,0.3-0.2,0.6,0,0.9c0.3,0.4,0.6,0.8,1,0.9
		c0.2,0,0.5-0.2,0.2-0.4c-0.3-0.3-0.4-0.7-0.4-1.2C354.1,158.9,353.9,158.7,353.7,158.7z M351.1,168.4c0.4,0.9,1.2,1.3,1.9,0.9
		c0.2-0.1,0.3-0.2,0.3-0.5c0-0.2-0.2-0.2-0.4-0.2C352.3,168.6,351.7,168.3,351.1,168.4z M353.3,163.4c-0.4,0.1-1,0-1,0.6
		c-0.1,0.4,0.4,0.5,0.8,0.4c0.5,0,1-0.1,1.1-0.6C354.3,163.4,353.8,163.4,353.3,163.4z M289.6,159.5c0,0.5,0.4,0.9,0.9,1.1
		c0.2,0.1,0.3,0.1,0.5-0.1c0.1-0.1,0-0.3-0.1-0.4c-0.3-0.3-0.3-0.6-0.4-0.9c0-0.3-0.2-0.6-0.5-0.5
		C289.6,158.8,289.6,159.1,289.6,159.5z M358.3,187.2c-0.3,0.1-0.8,0.1-0.7,0.3c0.2,0.4-0.1,1.1,0.7,1.1c0.6,0,0.7-0.4,0.7-0.8
		C359.2,187.2,358.6,187.3,358.3,187.2z M289.8,163.4c-0.4,0-1,0-1.1,0.6c-0.1,0.4,0.4,0.5,0.8,0.4c0.4,0,1-0.1,1.1-0.6
		C290.7,163.4,290.2,163.4,289.8,163.4z M301.2,178.7c-0.5,0.1-0.9,0.2-1.3,0.2c-0.3,0.1-0.4,0.2-0.3,0.5c0,0.3,0.3,0.3,0.5,0.3
		c0.6,0,1.1,0,1.7,0C301.1,179.7,301,179.3,301.2,178.7z M286.8,124.1c0.3,0,0.5,0,0.8-0.1c0.2-0.1,0.5,0,0.4-0.3
		c0-0.3-0.3-0.2-0.5-0.3c-0.4-0.1-0.8-0.1-1.2-0.2c-0.3,0-0.5,0-0.6,0.3s0.1,0.5,0.4,0.6C286.4,124.1,286.6,124.1,286.8,124.1z
		 M350.4,124.1c0.3,0,0.6-0.1,0.8-0.1s0.5,0,0.4-0.3c0-0.2-0.2-0.2-0.4-0.2c-0.4-0.1-0.8-0.1-1.3-0.2c-0.3,0-0.5,0-0.5,0.3
		c-0.1,0.3,0.1,0.5,0.4,0.6C350,124.1,350.2,124.1,350.4,124.1z M365.4,179.7c-0.3-0.2-0.7-0.1-0.7-0.5c0-0.2,0.1-0.5-0.3-0.4
		c-0.4,0.1-1-0.1-1.2,0.4c-0.1,0.2,0,0.5,0.3,0.5C364.2,179.7,364.7,179.7,365.4,179.7z M351.5,157.6c0.3-0.2,0.8-0.2,1-0.7
		c0-0.1-0.1-0.5-0.3-0.4c-0.4,0.2-1,0.2-1.1,0.8C351,157.4,351.3,157.5,351.5,157.6z M287.9,157.5c0.3-0.2,0.9-0.2,1-0.8
		c0-0.2-0.1-0.4-0.3-0.3c-0.4,0.2-1,0.2-1.2,0.7C287.3,157.4,287.7,157.5,287.9,157.5z M281,196.1c-0.3,0-0.7,0.1-0.7,0.4
		c0,0.4,0.5,0.4,0.8,0.5c0.3,0,0.5-0.1,0.5-0.4C281.6,196.2,281.3,196.1,281,196.1z M365.7,167.4c0.3,0.3,0.5,0.8,1.1,0.7
		c0.1,0,0.6-0.4,0.3-0.8C366.6,166.8,366.2,167.7,365.7,167.4z M344.5,196.1c-0.2,0.1-0.6,0.1-0.6,0.4c0,0.4,0.5,0.5,0.8,0.5
		s0.5-0.1,0.5-0.5C345.2,196.2,344.9,196.1,344.5,196.1z M251.8,168.9h-0.1c0,0.9,0,1.8,0,2.7h0.1
		C251.8,170.7,251.8,169.8,251.8,168.9z M367.4,165.8c0.2,0,0.5,0.1,0.4-0.3c-0.1-0.3-0.1-0.6-0.5-0.6c-0.3,0-0.7,0.2-0.7,0.5
		C366.6,165.9,367.1,165.7,367.4,165.8z M288.1,154.6c-0.2,0.1-0.7,0-0.6,0.3c0.1,0.5,0.7,0.2,1,0.4c0.2,0.1,0.5,0,0.5-0.2
		C288.9,154.7,288.4,154.7,288.1,154.6z M300.1,167.6c-0.2,0.1-0.6-0.1-0.6,0.2c0,0.5,0.5,0.4,0.8,0.4c0.2,0,0.6,0.1,0.6-0.3
		C300.8,167.5,300.4,167.7,300.1,167.6z M288.4,194.9c-0.2,0-0.5,0-0.5,0.4c0,0.3,0.3,0.5,0.6,0.4c0.3,0,0.6,0,0.5-0.4
		C289.1,195,288.8,194.9,288.4,194.9z M361,172c0.4,0.4,1,0.2,1.4,0.3c0.2,0.1,0.3-0.1,0.3-0.3c0.1-0.2,0-0.3-0.3-0.3
		C362,171.8,361.5,171.6,361,172z M352.7,195.4c-0.1-0.3-0.3-0.4-0.6-0.4s-0.6,0-0.6,0.4c0,0.3,0.3,0.5,0.6,0.4
		C352.4,195.7,352.7,195.8,352.7,195.4z M281.1,194.5c0.2-0.1,0.6,0.1,0.7-0.3c0-0.3-0.2-0.4-0.4-0.4c-0.3,0-0.7,0.1-0.7,0.5
		C280.6,194.6,280.9,194.5,281.1,194.5z M297.5,172c0.4,0.4,0.9,0.2,1.4,0.3c0.2,0.1,0.2-0.2,0.3-0.4c0-0.2-0.1-0.3-0.3-0.2
		C298.4,171.8,297.9,171.6,297.5,172z M344.7,194.5c0.2-0.1,0.6,0.1,0.7-0.3c0-0.3-0.2-0.4-0.4-0.4c-0.3,0-0.7,0.1-0.7,0.5
		C344.2,194.6,344.5,194.5,344.7,194.5z M351.6,154.7c-0.2,0.1-0.6-0.1-0.5,0.3c0.1,0.4,0.7,0.2,1,0.4c0.2,0.1,0.5,0,0.4-0.2
		C352.4,154.7,352,154.7,351.6,154.7z M359.4,165.7c-0.6,0-1,0.3-1.1,0.8c0,0.2-0.1,0.4,0.2,0.5s0.4-0.1,0.4-0.3
		C358.8,166.2,359.1,166,359.4,165.7z M295.9,165.7c-0.8-0.1-1,0.3-1.2,0.9c-0.1,0.2-0.1,0.4,0.2,0.5s0.4-0.2,0.4-0.3
		C295.2,166.2,295.5,166,295.9,165.7z M363.2,172.9c-0.4-0.1-0.9-0.2-1.3,0c-0.1,0-0.1,0.2,0,0.3c0.4,0.1,0.8,0.2,1.2-0.1
		C363.2,173.1,363.2,173,363.2,172.9z M353.3,192.1c-0.1,0.2-0.5,0.1-0.6,0.4c0,0.3,0.3,0.4,0.5,0.4c0.3,0,0.5-0.1,0.5-0.4
		C353.7,192.3,353.7,192.1,353.3,192.1z M256.7,191c0-0.3-0.2-0.3-0.4-0.3c-0.3,0-0.5,0.1-0.5,0.4c0,0.2,0,0.4,0.3,0.3
		C256.3,191.4,256.6,191.4,256.7,191z M299.6,172.9c-0.5,0-0.9-0.3-1.3,0c-0.1,0.1-0.1,0.2,0,0.3c0.4,0.1,0.8,0.2,1.2-0.1
		C299.5,173.1,299.5,173,299.6,172.9z M293.7,186.6c0.3,0.3,0.6,0.3,0.9,0.2c0.2,0,0.5,0,0.4-0.4s-0.3-0.2-0.5-0.2
		C294.2,186.4,294,186.5,293.7,186.6z M357.3,186.6c0.1,0.2,0.3,0.2,0.5,0.2c0.3,0,0.6,0,0.8-0.2c0-0.1,0-0.2,0-0.3
		c-0.3-0.3-0.5,0-0.8,0.1C357.6,186.4,357.5,186.5,357.3,186.6z M341,125.9c-0.2-0.2-0.2-0.6-0.6-0.5c-0.2,0-0.4,0.1-0.3,0.3
		c0,0.3,0.3,0.5,0.6,0.5C340.8,126.2,340.9,126.1,341,125.9z M289.1,192.5c0.3,0.3,0.5,0.6,0.9,0.4c0.2-0.1,0.2-0.4,0.1-0.5
		C289.6,191.9,289.4,192.4,289.1,192.5z M365.1,161.4c-0.5-0.1-0.9-0.1-1.2,0.2c-0.1,0.1,0,0.3,0.2,0.3
		C364.6,162.1,364.8,161.8,365.1,161.4z M276.7,125.4c-0.1,0-0.3,0-0.3,0.3c0.1,0.3,0.3,0.5,0.6,0.5c0.2,0,0.3-0.1,0.3-0.2
		C277.3,125.7,277.2,125.4,276.7,125.4z M366.6,163.6c0.4,0.6,0.8,0.7,1.3,0.5C367.6,163.8,367.2,163.6,366.6,163.6z M320.2,191
		c0-0.3-0.3-0.3-0.5-0.3c-0.4,0-0.4,0.2-0.4,0.5c0,0.2,0.1,0.3,0.3,0.2C319.9,191.3,320.2,191.3,320.2,191z M294.8,168.7
		c-0.2,0.1-0.3,0.3-0.3,0.4c0,0.2,0.1,0.4,0.4,0.4c0.2,0,0.5-0.2,0.5-0.4C295.3,168.8,295,168.7,294.8,168.7z M369.4,167.3
		c-0.4-0.1-0.8-0.3-1.3-0.2C368.8,167.8,368.8,167.8,369.4,167.3z M358.8,169.1c-0.1-0.2-0.2-0.3-0.4-0.4c-0.3-0.1-0.4,0.2-0.4,0.4
		s0.1,0.3,0.3,0.3C358.6,169.5,358.7,169.3,358.8,169.1z M304.5,173.1c-0.4-0.6-0.7-0.6-1.3-0.2
		C303.6,173.1,304.1,173.2,304.5,173.1z M357.9,165.2c-0.1-0.2-0.2-0.5-0.5-0.5c-0.2,0-0.4,0-0.4,0.2c0,0.3,0.2,0.5,0.5,0.5
		C357.7,165.5,357.9,165.5,357.9,165.2z M315.2,171.6C315.3,171.6,315.3,171.6,315.2,171.6c0.1-0.9,0.1-1.8,0.1-2.7h-0.1
		C315.2,169.8,315.2,170.7,315.2,171.6z M294.3,165.2c-0.1-0.3-0.2-0.5-0.5-0.4c-0.2,0-0.3,0.1-0.3,0.3c0.1,0.3,0.3,0.4,0.6,0.4
		C294.2,165.5,294.3,165.4,294.3,165.2z M363.1,165.9c0-0.2-0.1-0.3-0.3-0.3s-0.5-0.1-0.5,0.2c0,0.2,0.2,0.2,0.3,0.2
		C362.8,166,363,166.1,363.1,165.9z M319.7,178c0-0.2-0.1-0.3-0.3-0.3s-0.2,0.2-0.2,0.3s0,0.2,0.2,0.2S319.7,178.2,319.7,178z
		 M319.1,177.3c0.1,0,0.2-0.1,0.2-0.2c0-0.2-0.1-0.3-0.3-0.3s-0.2,0.1-0.2,0.2C318.8,177.1,319,177.2,319.1,177.3z"/>
	<path class="st0" d="M230.9,202.2c-2.8,0-5.6,0-8.4,0c-2.1,0-3.1-0.9-2.7-3c0.2-1,0-2,0.1-3c0.3-1.8,0.1-3.7,0.3-5.6
		c0.2-1.9,0.2-3.9,0.3-5.8c0.1-1.9,0.2-3.9,0.3-5.8c0.1-1.9,0.2-3.9,0.4-5.8c0.1-0.7-0.1-0.9-0.8-0.8c-5,0.4-9.9,1.4-14.7,3
		c-0.4,0.2-0.5,0.4-0.5,0.8c-0.1,4.1-0.1,8.3-0.2,12.4c-0.1,4.1-0.2,8.1-0.3,12.2c0,1.3-0.6,2-1.9,2.1c-2.3,0.1-4.6,0.1-6.9,0.2
		c-3.6,0.1-7.1,0.1-10.7,0.2c-2.2,0-2.9-0.8-2.8-2.9c0.4-5.9,0.9-11.7,1.3-17.6c0.4-4.9,0.7-9.8,1.1-14.6c0.4-5.9,0.9-11.7,1.3-17.6
		c0.4-4.9,0.7-9.8,1.1-14.6c0.1-1.3,0.2-2.7,0.3-4c0.1-1.6,0.8-2.2,2.4-2.2c1.7,0,3.4-0.1,5.1-0.1c3.2-0.1,6.5-0.1,9.7-0.2
		c2.1,0,2.9,0.8,2.7,2.9c-0.4,5.9-0.9,11.7-1.3,17.6c-0.2,2.2-0.3,4.3-0.5,6.5c0,0.4,0.1,0.5,0.5,0.5c1-0.1,2-0.1,3-0.1
		c0.5,0,1-0.1,1.4,0.4c0.2,0.3,0.5,0.1,0.6-0.3c0.1-0.2,0.3-0.1,0.4-0.1c3.2-0.1,6.4-0.3,9.6-0.4c0.5,0,0.7-0.2,0.7-0.7
		c0.2-5.9,0.4-11.7,0.6-17.6c0.3-8.9,0.6-17.8,0.9-26.6c0.1-1.7,0.1-3.4,0.2-5.1c0.1-1.8,0.7-2.5,2.5-2.5c5.2,0,10.5,0,15.7,0
		c1.9,0,2.7,0.9,2.6,2.8c-0.7,9.2-1,18.3-1.3,27.5c-0.2,5.9-0.4,11.8-0.5,17.7c-0.2,6.8-0.4,13.7-0.5,20.5c-0.1,3.1-0.1,6.2-0.2,9.3
		c-0.1,6.1-0.1,12.1-0.1,18.2c0,1.7-0.6,2.4-2.4,2.4C236.7,202.2,233.8,202.2,230.9,202.2z M195.2,133.6c0.5,0.3,1.1,0.5,1.6,0.4
		c1.5-0.5,3.1-0.1,4.6-0.1c1,0,2-0.2,2.9,0.3c0.1,0.1,0.4,0.1,0.5-0.1c0.1-0.3-0.1-0.3-0.3-0.4c-0.4-0.2-0.8-0.2-1.2-0.3
		c-1.6-0.3-3.3,0-4.9,0.1c-0.3,0-0.7,0.1-0.9-0.2c-0.3-0.4-0.7-0.3-1-0.1C196.1,133.4,195.7,133.5,195.2,133.6z M215.2,163.1
		c0.5,0.1,0.8,0.3,1.1,0.5c0.9,0.4,1.7,1,2.7,1c0.3,0,0.7,0.2,0.8-0.2c0.1-0.4-0.4-0.6-0.7-0.7c-0.2-0.1-0.5,0-0.8,0s-0.6,0-0.7-0.2
		c0.4-0.9,1.6,0.2,1.9-0.8C218.2,162.4,216.7,162.3,215.2,163.1z M195.2,174.3c-0.4,0.2-1.1,0-1.3,0.5c-0.1,0.3,0.3,1,0.8,1
		s1.1-0.3,1.2-1C196,174.5,195.7,174.3,195.2,174.3z M240.3,171.6c-0.2-0.4,0.3-1.1-0.4-1.1c-0.8,0-0.3,0.7-0.4,1.1
		c0,0.4-0.3,1.1,0.4,1.1C240.6,172.6,240.1,171.9,240.3,171.6z M235.8,188.3c0.1,0,0.1,0,0.2,0c0.3-0.1,0.7,0.2,0.9-0.2
		c0.1-0.1,0-0.2,0-0.3c-0.3-0.3-0.6-0.2-0.9-0.1c-0.2,0.1-0.5,0.2-0.5-0.3c0-0.4-0.3-0.3-0.5-0.3c-0.3,0-0.3,0.2-0.2,0.4
		C234.8,188.2,235.1,188.6,235.8,188.3z M221.7,160.8c-0.5,0.1-1,0.2-1.5,0c-0.3-0.1-0.7,0.3-0.9,0.5c-0.1,0.1-0.1,0.3,0,0.4
		c0.2,0.3,0.5,0.1,0.8,0.1C220.9,161.8,221.3,161.2,221.7,160.8z M224.5,197.9c-0.6,0.2-1,0.2-1.5,0.1c-0.5-0.1-0.6,0.4-0.7,0.8
		c-0.1,0.2,0.1,0.3,0.2,0.3C223.1,198.7,224,198.9,224.5,197.9z M193.5,134.8c-0.7-0.1-0.4-1.5-1.4-0.8c-0.3,0.2-0.3,0.8-0.1,1.1
		C192.4,135.5,192.9,135.1,193.5,134.8z M228.4,163.8c-0.6-0.3-1.1-0.2-1.6-0.3c-0.2-0.1-0.4,0-0.5,0.3s0.2,0.4,0.4,0.4
		C227.3,164.2,227.8,164.1,228.4,163.8z M202.7,145.1c0.1-0.3-0.4-0.4-0.3-0.8c0.1-0.3-0.1-0.5-0.4-0.5c-0.3,0.1-0.6,0.1-0.7,0.5
		c-0.1,0.3,0.1,0.5,0.4,0.6C202,145,202.3,145.3,202.7,145.1z M235,194.2c0-0.2-0.1-0.4-0.2-0.3c-0.4,0.2-0.8,0.3-1.1,0.7
		c0.3,0.2,0.4,0.7,0.6,0.6C234.6,194.9,234.8,194.5,235,194.2z M229.8,189c0.5,0.7,1.2,0.3,1.7,0.2c0.2,0,0.2-0.3,0.1-0.4
		c-0.1-0.1-0.3-0.2-0.3-0.2C231,189.2,230.3,188.6,229.8,189z M225,200.8c0.2,0,0.6,0,0.6-0.2c0.1-0.4-0.4-0.2-0.5-0.3
		c-0.2-0.1-0.4-0.2-0.5-0.3c-0.2-0.1-0.4-0.3-0.6,0s0,0.4,0.2,0.6C224.4,200.7,224.7,200.8,225,200.8z M195.4,190.6
		c0.3,0,0.7,0.1,0.7-0.3c0-0.5-0.5-0.4-0.9-0.5c-0.3,0-0.6,0.1-0.6,0.4C194.7,190.7,195.1,190.6,195.4,190.6z M197.6,187.4
		c-0.3-0.1-0.5-0.2-0.8-0.2c-0.3-0.1-0.6,0-0.8,0.3c0,0.1-0.1,0.2,0,0.2c0.3,0.2,0.6,0.3,0.9,0.2
		C197.1,187.9,197.4,187.7,197.6,187.4z M213.8,160.8c0-0.3-0.2-0.4-0.4-0.3c-0.3,0.1-0.8,0-0.8,0.5c0,0.3,0.2,0.6,0.4,0.6
		C213.4,161.5,213.7,161.2,213.8,160.8z M186.9,192.6c-0.2,0-0.5,0-0.4,0.2c0.2,0.4,0.6,0.4,1,0.5c0.2,0,0.6-0.1,0.5-0.3
		C187.7,192.6,187.2,192.7,186.9,192.6z M220.8,167c-0.6,0.1-1-0.3-1.5,0c-0.2,0.1,0,0.3,0.1,0.4C220,167.6,220.4,167.6,220.8,167z
		 M235,200c-0.4-0.1-0.7-0.6-1.1-0.3c-0.2,0.1-0.2,0.4,0,0.5C234.2,200.5,234.6,200.1,235,200z M230.7,168.5c0.3,0,0.6,0.1,0.7-0.2
		c0-0.4-0.4-0.3-0.7-0.3c-0.3,0-0.7-0.2-0.7,0.2C229.9,168.6,230.4,168.3,230.7,168.5z M200.6,185c-0.2,0-0.4,0.1-0.4,0.4
		c0,0.2,0,0.6,0.3,0.6c0.2,0,0.5-0.2,0.5-0.5C201.1,185.2,200.8,185.1,200.6,185z M222.2,167.3c0.4,0.1,0.7,0.4,1.1,0.1
		c0.1-0.1,0.1-0.3,0-0.4c-0.3-0.1-0.7-0.2-1.1,0.1C222.2,167.1,222.2,167.1,222.2,167.3z M200.4,174.4c0.2-0.1,0.6,0.1,0.6-0.4
		c0-0.2-0.2-0.2-0.4-0.2c-0.3,0-0.6,0.1-0.7,0.4C200,174.5,200.2,174.4,200.4,174.4z M234.2,191c-0.2-0.1-0.2-0.2-0.3-0.2
		c-0.3,0-0.6-0.3-0.9-0.1c-0.1,0.1-0.2,0.2-0.1,0.3c0.3,0.2,0.6,0.3,1,0.2C234,191.2,234.1,191.1,234.2,191z M213.8,158.2
		c-0.2-0.3-0.5-0.4-0.8-0.4c-0.1,0-0.3,0.1-0.2,0.3c0.2,0.3,0.5,0.4,0.8,0.4C213.7,158.5,213.8,158.3,213.8,158.2z M200.6,180.7
		c-0.7-0.4-0.9,0-1.3,0.5C199.9,181.2,200.2,181,200.6,180.7z M228.9,177.6c-0.1-0.2-0.4-0.3-0.6-0.4c-0.2,0-0.3,0-0.2,0.3
		c0.1,0.3,0.2,0.4,0.5,0.4C228.7,177.8,228.8,177.8,228.9,177.6z M231.3,186.7c0,0.4-0.1,0.7,0.3,0.9c0.1,0,0.3,0,0.3-0.2
		C231.9,187,231.7,186.8,231.3,186.7z"/>
	<path class="st0" d="M164.5,155.2c-2.6,0-5.3,0-7.9,0c-2.5,0-3.6-1.4-3-3.9c0.9-3.9,2.1-7.7,2.5-11.7c0.1-1,0.2-2.1-0.1-3.1
		c-0.3-1.4-1.4-2.3-2.9-2.2c-2.2,0.1-3.8,1.3-5.1,2.9c-2.4,2.8-3.9,6.2-5.1,9.6c-2.3,6.2-3.5,12.7-4,19.3
		c-0.4,5.5-0.1,10.9,1.2,16.2c0.3,1,0.6,1.9,1.1,2.8c1.6,3,4.6,4.2,7.8,3.2c2.3-0.7,4-2.1,5.6-3.9c2.9-3.5,5.1-7.5,7.3-11.4
		c0.2-0.4,0.4-0.8,0.7-1.2c0.9-1.4,2.8-1.7,3.9-0.5c2.6,2.8,5.1,5.7,7.6,8.6c0.8,0.9,0.8,2,0.3,3c-2.9,5.8-6,11.5-10.6,16.1
		s-9.8,8.2-16.3,9.1c-8.1,1.2-15.5-0.2-21.7-6c-3.5-3.3-5.7-7.3-7.4-11.7c-2-5.1-3-10.4-3.3-15.9c-0.5-9.8,0.6-19.3,3.9-28.5
		c3-8.6,7.7-16.2,14.1-22.7c4.6-4.7,10.3-7,16.8-7.5c4.6-0.4,9,0,13.3,1.7c7.3,2.8,11.5,8.3,13.5,15.8c1.4,5.2,0.9,10.4,0.1,15.6
		c-0.2,1.4-0.6,2.8-0.9,4.2c-0.4,1.7-1,2.1-2.7,2.1C170.1,155.2,167.3,155.2,164.5,155.2z M165.1,139.1c0.6-0.3,1.3-0.5,1.9-0.8
		c0.3-0.2,0.2-0.5,0-0.7c-0.4-0.5-1-0.9-1.6-0.7s-0.9,0.8-1,1.5C164.4,138.8,164.6,139.1,165.1,139.1z M131.6,143.9
		c0.1-1.4-0.4-2.2-1.3-2.8c-0.1-0.1-0.1-0.4-0.3-0.3c-0.2,0.1-0.4,0.3-0.4,0.5s0.1,0.4,0.3,0.4c1.4,0.2,0.9,0.9,0.4,1.6
		c-0.1,0.1-0.1,0.2-0.1,0.3c-0.1,0.4-0.1,0.7,0.4,0.6c0.2,0,0.4,0,0.5,0C131.6,144.5,131.5,144,131.6,143.9z M162.4,118.4
		c-0.3-0.2-0.4-0.3-0.5-0.3c-0.4,0-0.9-0.4-1,0.2c-0.2,1-0.9,1.2-1.6,1.4c-0.5,0.1-1.1,0.4-1.1-0.5c0-0.3-0.3-0.3-0.5-0.2
		c-0.6,0.2-0.9,0.4-0.4,1.1c0.3,0.5,0.8,0.7,1.3,0.8c0.4,0.1,0.2-0.4,0.3-0.7c0.1-0.3,0.4-0.4,0.7-0.3
		C160.6,119.8,161.1,118.6,162.4,118.4z M161.4,139.7c0.5-0.1,1-0.3,1.4-0.6c0.3-0.2,0.3-0.4,0.1-0.6c-0.2-0.2-0.4-0.8-0.9-0.4
		c-0.3,0.3-0.7,0.4-1.1,0.5c-0.3,0.1-0.8-0.1-0.8,0.5c0,0.5,0.5,0.4,0.9,0.5C161.1,139.6,161.3,139.6,161.4,139.7z M167.4,139.9
		c-0.7,0.2-1.3,0.3-1.8-0.3c-0.1-0.1-0.3-0.1-0.4,0c-0.3,0.4-0.6,0.8-0.3,1.2c0.2,0.3,1.5,0.7,1.7,0.5c0.1-0.1,0.2-0.2,0.2-0.3
		C166.3,140.5,167,140.3,167.4,139.9z M129.8,149.8c0-0.1,0.1-0.2,0.1-0.3c-0.4-0.4-0.8-0.8-1.3-1.1c-0.4-0.3-0.9-0.5-0.8,0.4
		c0,0.3,0,0.5-0.4,0.4c-0.3-0.1-0.5,0-0.6,0.2c0,0,0.1,0.2,0.1,0.3c0.2,0.3,0.5,0.2,0.7,0.1C128.3,149.3,129,149.1,129.8,149.8z
		 M160,118.1c-0.2-0.2-2-0.7-2.2-0.6c-0.2,0-0.4,0.2-0.4,0.4c-0.1,0.3,0.1,0.3,0.3,0.4c0.3,0.2,0.6,0.3,1,0.2
		C159.1,118.3,159.5,118.2,160,118.1z M155.9,130.2c0.3,0.1-0.3,0.7,0.4,0.8c0.6,0,0.7-0.4,0.6-0.8c0-0.4,0.2-0.8-0.5-0.8
		S156,129.8,155.9,130.2z M161.6,134.7c-0.2,0.6-0.1,0.8,0.2,0.9c0.3,0.1,0.3-0.3,0.5-0.5c0.2-0.3,0.4-0.6,0.1-0.9
		c-0.1-0.2-0.4-0.3-0.6-0.2C161.4,134.2,161.7,134.7,161.6,134.7z M116.6,167.6c0-0.3,0.1-0.7-0.4-0.7c-0.7,0-0.4,0.6-0.5,0.9
		c-0.1,0.2,0.1,0.7,0.4,0.7C116.5,168.5,116.7,168.1,116.6,167.6z M128.1,145.5c0.5,0.2,0.6,0,0.7-0.3c0.1-0.4-0.3-0.3-0.5-0.3
		c-0.3,0-0.6,0-1,0c-0.2,0-0.4,0-0.5,0.2c0,0.3,0.2,0.3,0.4,0.3C127.7,145.4,128,145.5,128.1,145.5z M118.9,183.6
		c-0.4,0-0.9,0-1,0.6c0,0.3,0.3,0.4,0.5,0.4c0.5,0,0.9-0.3,1.1-0.7C119.6,183.5,119.1,183.6,118.9,183.6z M124.2,157.7
		c0.1,0.9,1,0.5,1.4,0.8c0.1,0.1,0.3,0.1,0.4-0.1c0-0.2,0-0.3-0.2-0.4C125.3,157.6,124.8,157.6,124.2,157.7z M126.4,148
		c0-0.4-0.3-0.6-0.7-0.6c-0.2,0-0.5-0.1-0.5,0.2c0,0.4,0.2,0.8,0.6,0.9C126.2,148.7,126.3,148.3,126.4,148z M150.2,131.3
		c-1-0.3-0.8,0.7-1.2,1.1c-0.1,0.1,0,0.3,0.2,0.3c0.6,0,0.6-0.5,0.8-0.8C150.1,131.6,150.1,131.5,150.2,131.3z M130.6,150.1
		c-0.2,0.4-0.4,0.7-0.3,1.1c0,0.2,0.1,0.5,0.4,0.5s0.3-0.4,0.3-0.6C131,150.8,130.9,150.4,130.6,150.1z M147.8,120
		c0,0-0.4-0.1-0.3,0.2c0.1,0.4,0.5,0.5,0.8,0.7c0.2,0.1,0.4-0.2,0.4-0.3C148.5,120.3,148.5,119.8,147.8,120z M166.3,135.2
		c-0.5,0.1-1-0.3-1.4,0.2c-0.1,0.1,0,0.3,0.2,0.3C165.5,135.8,166.1,136.2,166.3,135.2z M153.5,204.4c0.6-0.6,0.9-1.1,0.7-1.7
		C153.9,203.2,153.6,203.7,153.5,204.4z M143.4,118.9c0.3,0.2,0.3,0.8,0.9,0.6c0.2-0.1,0.2-0.3,0.1-0.4
		C144.2,118.6,143.8,119,143.4,118.9z M126.1,153.1c0.3-0.1,0.8,0.2,0.8-0.3c0-0.2,0-0.4-0.2-0.5
		C126.1,152.3,126.3,152.8,126.1,153.1z M122.5,153.6c0.2-0.1,0.5-0.2,0.6-0.5c0-0.2-0.2-0.3-0.4-0.3c-0.3,0-0.6,0.2-0.6,0.5
		C122,153.5,122.3,153.5,122.5,153.6z M164.7,174.2c0.2-0.1,0.3-0.3,0.3-0.5c0-0.3-0.3-0.4-0.5-0.4c-0.3,0-0.2,0.2-0.2,0.4
		C164.4,173.9,164.4,174.1,164.7,174.2z M130.7,159.9c-0.6,0.7-0.3,1.4,0,2.1C130.8,161.3,130.8,160.6,130.7,159.9z M124.7,155.4
		c0.2,0,0.4-0.1,0.4-0.4c0-0.2-0.2-0.3-0.4-0.3c-0.2,0-0.4,0-0.4,0.3C124.3,155.2,124.4,155.4,124.7,155.4z M148.1,121.7
		c-0.1-0.1-0.1-0.4-0.4-0.4c-0.2,0-0.4,0.1-0.4,0.3c0,0.3,0.4,0.2,0.5,0.3C147.9,122,148.1,122,148.1,121.7z M127.1,143.4
		c-0.2,0-0.3,0.1-0.2,0.3c0,0.3,0.3,0.4,0.5,0.5c0.2,0,0.3-0.1,0.3-0.3C127.6,143.6,127.4,143.5,127.1,143.4z"/>
	<path class="st0" d="M123.3,1.4c7.2,0.1,14.5,0.3,21.7,0.4c3.6,0.1,7.2,0.1,10.9,0.1c7.5,0,15,0,22.5,0c5.4,0,10.7,0.1,16.1,0.1
		c2.1,0,3.2,1.3,3,3.4c-0.6,5.4-1.2,10.8-1.7,16.1c-0.2,1.8-1,2.7-2.9,2.9c-5,0.4-10,0.7-15,1.1c-6.1,0.4-12.2,0.9-18.3,1.3
		c-1,0.1-1.9,0.2-2.9,0.2c-0.5,0-0.6,0.2-0.7,0.6c-0.8,3.6-1.5,7.3-2,10.9c0,0.3,0,0.6-0.4,0.8c-0.3,0.1-0.3,0.5-0.1,0.7
		c0.4,0.4,0.2,0.8,0.2,1.2c-1,6.4-1.6,12.9-2.2,19.4c-0.5,5.2-0.7,10.5-0.8,15.7c-0.2,7.6-0.4,15.3-0.6,22.9c0,1.2-0.1,2.5-0.1,3.7
		c-0.1,1.6-1,2.5-2.7,2.5c-4.5,0-9,0.1-13.6,0.1c-2.6,0-3.7-1.3-3.5-3.9c0.4-4.4,0.6-8.7,0.9-13.1c0.4-6.1,0.9-12.3,1.3-18.4
		c0.3-4.3,0.7-8.6,1.1-12.9c0.5-5,1.1-9.9,1.7-14.8c0.7-5.7,1.4-11.3,2.2-17c0.1-0.8-0.2-0.8-0.8-0.8c-5.8,0.6-11.6,1.1-17.4,1.7
		c-0.3,0-0.5,0.1-0.8,0.1c-1.8,0.3-3.4-1-3.3-2.9c0.1-2.1,0.3-4.1,0.4-6.2c0.3-4.3,0.7-8.5,1-12.8c0.2-2.5,1.1-3.3,3.6-3.3
		C121.1,1.3,122.2,1.3,123.3,1.4C123.3,1.3,123.3,1.4,123.3,1.4z M123.4,19.4c0.5-0.1,1-0.4,0.9-1c-0.1-0.4-1.2-0.8-1.6-0.7
		c-0.4,0.2-0.5,0.5-0.6,0.9c0,0.5,0.3,0.5,0.6,0.5C123,19.2,123.3,19.1,123.4,19.4c-0.1,0.2-0.2,0.1-0.4,0.1
		c-0.4-0.1-0.5,0.2-0.3,0.4c0.4,0.2,0.8,0.1,1.2-0.1C123.8,19.5,123.4,19.8,123.4,19.4z M132,23.4c0.5,0.1,0.8,0,1-0.2
		s0.4-0.5,0.1-0.6c-0.7-0.2-1.5-0.5-2.3-0.3c-0.2,0.1-0.5,0.3-0.5,0.5c0,0.4,0.4,0.2,0.6,0.3C131.3,23.2,131.7,23.3,132,23.4z
		 M148.5,46.5c-0.2-0.1-0.4-0.2-0.6-0.2c-0.6-0.2-0.9,0.3-1.3,0.5c-0.1,0-0.2,0.2,0,0.3c0.3,0.3,0.7,0.4,1.1,0.2
		c0.4-0.1,1.2,0.5,1.1-0.5c0.3,0,0.7,0,1.1,0c-0.2-0.5-0.5-0.8-1-1.1C148.8,46,148.7,46.2,148.5,46.5z M151.8,39.8l-0.1-0.1
		c-0.4-0.1-0.9-0.1-1.3-0.2c-0.3,0-0.6,0-0.7,0.4c-0.1,0.3,0.1,0.5,0.4,0.7C150.7,40.9,151.3,40.6,151.8,39.8z M127.7,20.8
		c-0.5,0-0.7,0.4-0.7,0.8c0,0.5,0.5,0.6,0.9,0.6c0.4,0,0.8-0.2,0.7-0.7C128.6,20.7,128,21,127.7,20.8z M138.6,94.6
		c-0.1,0.3-0.1,0.6-0.2,0.9s-0.1,0.6,0.4,0.5c0.3,0,0.6,0.2,0.8-0.1c0.2-0.3-0.1-0.6-0.3-0.8C139.1,94.9,138.9,94.7,138.6,94.6z
		 M151.9,26.4c-0.2,0.4-0.4,1-0.3,1.3c0.2,0.3,0.8,0.2,1.2,0.1C152.8,27.1,152.4,26.7,151.9,26.4z M131,17.9
		c-0.3-0.1-0.4,0.1-0.4,0.4c0,0.4,0.1,0.6,0.5,0.5c0.3,0,0.7,0,0.6-0.5C131.8,17.8,131.4,18,131,17.9z M139.2,84
		c-0.2,0-0.5-0.2-0.5,0.2c0,0.3,0,0.7,0.5,0.8c0.4,0,0.9-0.1,0.8-0.6C140,83.9,139.4,84.2,139.2,84z M147.4,5
		c0.1-0.2,0.1-0.4-0.1-0.4c-0.3,0-0.5,0.3-0.5,0.6c0,0.3,0.1,0.9,0.5,0.8C148.2,5.9,147.2,5.3,147.4,5z M160.1,5.5
		c0.4,0,0.7-0.1,0.7-0.5c0-0.6-0.6-0.4-0.9-0.5c-0.4-0.1-0.3,0.3-0.3,0.5C159.5,5.5,159.8,5.6,160.1,5.5z M151.9,17.2
		c0.1,0.2,0.2,0.3,0.2,0.4c0.1,0.3,0.3,0.5,0.7,0.4c0.2-0.1,0.5-0.2,0.4-0.4c-0.1-0.4-0.5-0.3-0.8-0.3
		C152.3,17.2,152.2,17.2,151.9,17.2z M134.5,72.5c-0.4-0.3-0.6-0.5-0.4-1c0-0.1-0.1-0.2-0.3-0.1c-0.3,0.2-0.4,0.5-0.3,0.8
		s0.2,0.6,0.5,0.6C134.2,72.8,134.3,72.7,134.5,72.5z M157.8,4.6c0.5,0.3,0.7,0.7,1.2,0.6c0.2-0.1,0.3-0.5,0.1-0.6
		C158.7,4.3,158.3,4.5,157.8,4.6z M137.1,17.3c0.2,0,0.4,0,0.4-0.2c0-0.3-0.2-0.3-0.4-0.3c-0.2,0-0.3,0.1-0.3,0.3
		C136.8,17.2,136.9,17.3,137.1,17.3z M133.2,21.6c0.1,0.3,0.1,0.7,0.6,0.6c0.1,0,0.3-0.4,0.3-0.5C133.8,21.3,133.5,21.6,133.2,21.6z
		"/>
	<path class="st0" d="M72.1,62.8c0.4-2.3,0.7-4.4,1-6.5c1.3-8.3,2.6-16.6,4-24.9c0.9-6,1.9-12,2.8-18c0.3-1.7,1.5-2.6,3.1-2.1
		c5.1,1.4,10.3,2.8,15.4,4.2c0.5,0.1,0.5,0.4,0.6,0.8c0.2,2-0.3,3.9-0.6,5.8c-1,6.8-2,13.5-3.1,20.3c-1.1,7.1-2.2,14.2-3.2,21.4
		c-1.1,7.5-2.3,15-3.4,22.5c-0.1,0.5,0,1-0.7,1.3c-0.4,0.1-0.3,0.6-0.5,1c-0.2,0.6,0.3,0.5,0.6,0.6c0.3,0.1,0.1,0.3,0.1,0.5
		c-1,6.2-2,12.4-3,18.5c-0.2,1.3-0.9,2-2.2,2.1c-4.5,0.6-9,1.1-13.4,1.7c-1.7,0.2-2.5-0.3-3-1.8c-5.5-16-10.9-32-16.4-48
		c-2-6-3.9-12-5.9-17.9c0.1-0.2,0.3-0.2,0.4-0.2c0.2,0,0.5,0,0.5-0.3s-0.2-0.4-0.5-0.3c-0.6,0.2-0.7-0.2-0.8-0.6
		c-2.2-6.7-4.5-13.5-6.7-20.2c-0.3-0.8-0.3-1.7,0-2.5c0.4-1,1.2-1.4,2.2-1.5c2.8-0.4,5.7-0.7,8.5-1.1c1.6-0.2,3.3-0.4,4.9-0.6
		c1.9-0.3,2.7,0.2,3.4,2c1,2.8,2,5.7,3.1,8.5c0.1,0.3,0.5,0.7-0.2,0.8c-0.2,0-0.2,0.3-0.1,0.4c0.1,0.2,0.2,0.2,0.4,0.2
		c0.7,0,0.8,0.3,0.5,0.8c0,0.1-0.2,0-0.1,0.2c1.5,1.7,1.7,3.9,2.5,5.9c3.2,8.8,6.3,17.6,9.5,26.4C71.9,62.3,72,62.5,72.1,62.8z
		 M51.9,31.6c-1-0.1-1.9,0.2-2.8,0.5c-0.2,0.1-0.6,0.3-0.2,0.5c0.5,0.2,1.2,0.5,1.6,0.3c0.9-0.7,2-0.6,3-0.9c0.2-0.1,0.5,0,0.4-0.3
		c-0.1-0.2-0.3-0.4-0.5-0.2C52.8,31.8,52.3,31.6,51.9,31.6z M56.3,30.5c0-0.2-0.1-0.3-0.2-0.3c-0.6,0.1-0.9-0.1-0.9-0.7
		c0-0.1-0.1-0.2-0.3-0.2c-0.2,0.1-0.3,0.1-0.4,0.3c-0.1,0.1,0,0.2,0.1,0.3c0.5,0.1,0.4,0.5,0.4,0.8c0.1,0.2,0,0.6,0.3,0.5
		C55.7,30.9,56.1,30.8,56.3,30.5z M80.7,87.3c-0.3,0.1-0.7,0.1-0.7,0.5c0.1,0.5,0.4,0.8,0.9,0.8c0.2,0,0.6-0.1,0.5-0.5
		C81.4,87.6,81,87.4,80.7,87.3z M54.1,33.4c0-0.5-0.3-0.4-0.5-0.4c-0.4,0.1-0.9-0.1-1,0.5c0,0.4,0.3,0.6,0.6,0.5
		C53.6,34,54,33.9,54.1,33.4z M45.5,30.1c-0.5-0.2-1-0.2-1.5,0c-0.2,0.1-0.4,0.2-0.1,0.5C44.7,31.2,45,30.5,45.5,30.1z M50.8,38.9
		c0.6,0.1,1.1,0,1.7-0.2c-0.5-0.1-0.2-0.9-0.9-0.7C51.2,38,50.8,38.3,50.8,38.9z M81.4,72.2c-0.8-0.2-1.3,0.1-1.9,0.2
		c-0.2,0-0.4,0-0.3,0.3c0,0.2,0.2,0.3,0.4,0.3C80.2,72.9,80.7,72.6,81.4,72.2z M48.5,31.1c0.4,0,0.4-0.7,0.9-0.6
		c0.1,0,0.3-0.2,0.3-0.3c0-0.2-0.2-0.2-0.4-0.3c-0.5-0.2-0.8,0.1-1,0.5C48.1,30.7,48.1,31,48.5,31.1z M59.9,39.9
		c-0.1,0.6-0.1,1,0.5,1.2c0.4,0.1,0.6-0.4,0.6-0.5C60.8,40,60.3,40.1,59.9,39.9z M86.5,73.5c-0.3-0.1-0.6,0-0.6,0.3
		c0,0.4,0.3,0.5,0.7,0.5c0.3,0,0.5-0.1,0.6-0.4C87.2,73.5,86.8,73.5,86.5,73.5z M57.7,44.9c0.3-0.1,0.6,0,0.6-0.5
		c0-0.3-0.1-0.4-0.4-0.4c-0.4,0-0.6,0.2-0.7,0.5C57.1,44.7,57.4,44.8,57.7,44.9z M87.5,82.7c-0.4,0-0.5,0.3-0.5,0.6
		c0,0.2,0.2,0.5,0.4,0.4c0.3-0.1,0.7-0.2,0.6-0.6C88.1,82.8,87.7,82.8,87.5,82.7z M77,84.7c-0.3,0.1-0.7,0.2-0.7,0.5
		s0.3,0.4,0.6,0.3c0.3-0.1,0.6-0.1,0.5-0.5C77.3,84.9,77.3,84.6,77,84.7z M54.1,44.8c0-0.3-0.2-0.4-0.4-0.3c-0.3,0-0.6,0.1-0.6,0.5
		c0,0.2,0.2,0.3,0.4,0.3C53.8,45.3,54,45.2,54.1,44.8z M51.7,41c-0.2,0-0.6,0-0.6,0.3c0,0.4,0.3,0.3,0.6,0.3c0.3,0,0.6,0,0.6-0.3
		S51.9,41.1,51.7,41z M50.3,37c-0.4,0-0.8-0.2-1,0.1c-0.1,0.1,0,0.4,0.2,0.5C50,37.8,50,37.3,50.3,37z M70.2,97.3
		c0-0.1,0-0.3-0.2-0.3c-0.3,0-0.5,0.3-0.7,0.5c-0.1,0.2,0,0.3,0.2,0.3C69.9,97.8,70.1,97.6,70.2,97.3z"/>
	<path class="st0" d="M96.8,155c-2.3,0-4.5,0-6.8,0c-1.9,0-2.6-0.7-2.6-2.6c0-2.5-0.1-5.1-0.3-7.6c-0.1-1.1-0.1-2.4-1.4-2.8
		c-1.5-0.5-3.1-0.3-4.1,1c-2.8,3.7-3.6,8.8,0.2,12.8c2.5,2.6,5.6,4.5,8.7,6.3c3.5,2.1,6.8,4.5,9.5,7.6c4.4,5,6.7,10.8,5.8,17.4
		c-1.1,7.7-4.3,14.5-11.5,18.4c-3.6,1.9-7.5,2.7-11.5,3.1c-8.9,0.9-17-1.5-24.8-5.5c-1.3-0.7-2.6-1.3-3.9-2c-1.4-0.8-1.8-1.8-1-3.3
		c1.8-3.6,3.5-7.1,5.3-10.6c0.7-1.4,2-1.8,3.4-1c0.5,0.3,1.1,0.6,1.6,0.9c3.6,2.5,7.7,4,11.9,5.2c1.2,0.3,2.5,0.4,3.7,0.2
		c3.3-0.5,5.1-3.1,4.6-6.5c-0.4-2.5-1.6-4.4-3.6-5.8c-3.3-2.5-7-4.5-10.5-6.7c-3-1.9-5.7-4.1-8.2-6.6c-2.6-2.7-3.6-6.2-4.1-9.9
		c-1-8.3,1.4-15.6,6.5-22.1c2.9-3.7,6.8-6.2,11.4-7.4c6.2-1.7,12.4-2.1,18.7-0.6c4.1,1,7.5,3,9.9,6.5c1.6,2.4,2.2,5.2,2.5,8.1
		c0.4,3.8,0.2,7.6,0,11.5c-0.1,1.4-0.9,2.1-2.4,2.1C101.5,155,99.2,155,96.8,155z M94.9,192.1c0.2,0.2,0,0.3-0.1,0.4
		c-0.1,0.5,0.3,0.4,0.6,0.4c0.3,0,0.7,0.1,0.7-0.4c0-0.4-0.2-0.4-0.6-0.5C95.3,192.1,95.1,192.3,94.9,192.1c0.1-0.4,0.6-0.4,0.9-0.7
		c0.1-0.1,0.2-0.3,0.2-0.5s-0.2-0.2-0.4-0.2c-0.8-0.1-1.4,0.2-2.1,0.6c-0.2,0.1-0.3,0.3-0.3,0.6c0.1,0.2,0.3,0.2,0.5,0.3
		C94.1,192.2,94.5,192.1,94.9,192.1z M93.9,188.8c-0.1,0-0.3-0.1-0.4,0.2c0,0.3,0.2,0.6,0.4,0.7c0.9,0.2,1.8,0.4,2.8,0.4
		c0.6,0,0.6-0.5,0.4-0.8c-0.3-0.4-0.5-1-1.2-0.4C95.3,189.4,94.6,188.8,93.9,188.8z M91.2,170.6c-0.9,0-1.3-0.4-1.1-1.2
		c0-0.3-0.1-0.3-0.4-0.4c-0.3,0-0.4,0.1-0.5,0.4c-0.3,0.9,0.6,1.2,1,1.7C90.4,171.4,90.9,170.9,91.2,170.6z M99.8,192.4
		c-0.2-0.4-0.5-0.8-1-0.8c-0.4,0-0.5,0.4-0.5,0.8c0.1,0.3,0.2,0.8,0.5,0.7C99.2,193.1,99.8,193.1,99.8,192.4z M97.5,185.4
		c-0.3,0.1-0.6,0.2-1,0.3c-0.2,0-0.5,0-0.6,0.3c0,0.3,0.2,0.4,0.5,0.5c0.6,0.2,1-0.1,1.3-0.5C97.9,185.7,97.9,185.4,97.5,185.4z
		 M98.5,180.4c-0.4-0.1-0.7,0.1-0.7,0.5c0,0.5,0.4,0.6,0.8,0.6s0.7-0.1,0.7-0.6C99.4,180.5,99,180.4,98.5,180.4z M95.4,184.8
		c0.3,0,0.7,0,0.6-0.4s-0.5-0.6-0.9-0.7c-0.4,0-0.4,0.4-0.4,0.6C94.7,184.9,95.1,184.8,95.4,184.8z M100.1,189.1
		c-0.1-0.2-0.4-0.2-0.5-0.1c-0.3,0.4-0.7,0.7-0.9,1.1c-0.1,0.1,0,0.3,0.2,0.4c0.1,0,0.3,0,0.3-0.2c-0.1-0.5,0.1-0.7,0.6-0.7
		C99.9,189.6,100,189.3,100.1,189.1z M91.5,197.6c-0.5,0.3-0.9-0.5-1.3,0.2c-0.1,0.1-0.2,0.3,0.1,0.4
		C90.7,198.3,91.1,198.3,91.5,197.6z M94.7,176.3c-0.2-0.2-0.3-0.4-0.5-0.4c-0.3,0-0.5,0.2-0.5,0.5c0,0.4,0.3,0.2,0.4,0.2
		C94.3,176.5,94.6,176.5,94.7,176.3z M100.8,184.6c-0.9-0.5-0.9-0.4-1,0.6C100.2,185,100.5,184.8,100.8,184.6z M85.3,169.4
		c-0.1,0.1-0.4-0.1-0.4,0.2c0,0.4,0.3,0.2,0.5,0.2s0.5,0.1,0.5-0.2C85.9,169.3,85.5,169.4,85.3,169.4z M93.5,194.4
		c-0.1-0.1-0.1-0.3-0.3-0.3c-0.2,0-0.2,0.3-0.3,0.5c0,0.1,0,0.2,0.2,0.2C93.3,194.8,93.5,194.7,93.5,194.4z"/>
	<path class="st0" d="M399.2,146.1c-0.2,4.5-0.4,9-0.7,13.4c-0.2,4.5-0.5,9.1-0.7,13.6c-0.1,1.2-0.1,2.4-0.2,3.6
		c0,0.4,0,0.6,0.5,0.6c4.6-0.1,9.1-0.1,13.7-0.2c2.4,0,4.9-0.1,7.3-0.1c1.8,0,3.6-0.1,5.4-0.1c1.7,0,2.6,0.9,2.6,2.7
		c-0.1,5.7-0.2,11.3-0.3,17c0,1.5-0.8,2.2-2.3,2.3c-5.2,0.2-10.3,0.5-15.5,0.7c-7.9,0.4-15.7,0.8-23.6,1.2c-1.9,0.1-3.9,0.2-5.8,0.3
		c-2,0.1-3.1-0.9-3-3c0.3-6.6,0.6-13.1,1-19.7c0.4-9.3,0.9-18.7,1.3-28c0.3-7.4,0.7-14.7,1-22.1c0.1-2.5,0.2-4.9,0.4-7.4
		c0.1-1.8,0.8-2.5,2.6-2.4c5.1,0.1,10.1,0.2,15.2,0.3c1.5,0,2.5,1.2,2.4,2.8c-0.1,2.7-0.3,5.3-0.4,8c-0.3,5.1-0.5,10.2-0.8,15.3
		c0,0.2,0.2,0.6-0.3,0.5c-0.3-0.1-0.7-0.2-0.7,0.3C398.4,146.4,398.8,146.1,399.2,146.1z M385.8,174.2c0.8,0,1.8-0.7,1.7-1.2
		c-0.2-0.6-0.8-0.7-1.3-0.8c-0.6-0.1-1.3,0.6-1.3,1.3C384.9,174.1,385.3,174.2,385.8,174.2z M403.3,190c0.1,0,0.3-0.1,0.5-0.1
		c0.3-0.1,0.7-0.2,0.6-0.6c-0.1-0.4-0.4-0.7-0.8-0.7c-0.5,0-1.3,0-1.4,0.7C402.1,189.9,402.6,190,403.3,190z M405.1,194.5
		c0.3-0.1,0.9,0.2,1-0.3c0-0.4-0.5-0.6-0.9-0.6s-0.8,0.2-0.8,0.6C404.4,194.8,404.9,194.4,405.1,194.5z M405.5,184.9
		c-0.3,0-0.6,0-0.6,0.4c0,0.3,0.3,0.3,0.6,0.3s0.6,0,0.6-0.4C406.1,184.9,405.8,184.9,405.5,184.9z M384.2,192.4
		c0.6,0.1,1,0.4,1.5,0c0.1-0.1,0.1-0.2,0-0.3C385.1,191.9,384.7,191.9,384.2,192.4z M393.2,193.1c-0.4,0-0.6,0.1-0.6,0.4
		c0,0.3,0.2,0.4,0.4,0.4s0.5-0.1,0.5-0.5C393.6,193,393.3,193.1,393.2,193.1z M395.5,150.4c-0.4-0.1-0.7-0.3-1,0
		c-0.1,0.1-0.1,0.3,0.1,0.4C394.9,150.8,395.2,150.8,395.5,150.4z M391.6,188.5c-0.2,0-0.2,0.2-0.2,0.4s-0.1,0.5,0.3,0.5
		c0.3,0,0.3-0.2,0.3-0.5C392,188.7,391.9,188.6,391.6,188.5z M389.4,187.7c0-0.3-0.3-0.4-0.5-0.4s-0.4,0.1-0.4,0.4
		c0,0.3,0.2,0.4,0.5,0.4C389.2,188,389.4,188,389.4,187.7z"/>
	<path class="st0" d="M187.9,103.3c0-3.4,0-6.9,0-10.3c0-0.7-0.1-1-0.9-0.9c-3.5,0.5-7,0.9-10.5,1.4c-0.5,0.1-0.7,0.2-0.8,0.7
		c-0.7,3.4-1.4,6.7-2.1,10.1c-0.3,1.4-0.8,1.8-2.2,1.8c-4.5-0.2-9-0.5-13.4-0.7c-1.3-0.1-2-1.2-1.6-2.6c0.9-2.8,1.7-5.6,2.6-8.4
		c3.1-9.7,6.2-19.5,9.8-29.1c2.2-5.9,5.1-11.6,7.7-17.3c0.8-1.7,1.6-3.4,2.4-5.2c0.3-0.7,0.8-1.1,1.6-1.2c3-0.4,6-1,9.1-1
		c4.8,0,7.5,2,9.3,7.2c1.5,4.3,2.2,8.9,3,13.5c1,5.8,1.3,11.7,1.9,17.5c0.6,6,1.2,12.1,1.9,18.1c0.5,5.3,1.1,10.7,1.6,16
		c0,0.4,0,0.8,0,1.1c0,1.3-0.7,1.9-1.9,1.9c-2.1,0-4.3,0.1-6.4,0.1c-3,0-5.9,0.1-8.9,0.1c-1.7,0-2.3-0.5-2.3-2.3
		C187.9,110.2,187.9,106.7,187.9,103.3L187.9,103.3z M185.3,62c0.1,0.4-0.1,0.7-0.3,1c-2,5.1-4,10.2-6,15.3c-0.4,1-0.4,1,0.6,0.9
		c2.5-0.3,4.9-0.6,7.4-0.8c0.9-0.1,1-0.4,1-1.2c0-3.8-0.2-7.7-0.4-11.5c-0.2-2.4-0.4-4.7-0.9-7.2c-0.4,1.1-0.8,2.1-1.2,3.1
		c-0.4-0.6-0.8-0.4-1.2-0.1c-0.3,0.2-0.3,0.5-0.1,0.8C184.8,62.8,184.9,61.8,185.3,62z M200.2,90.8c-0.3,0.2-0.6,0.6-0.9,0.2
		c-0.4-0.3-0.2-0.8-0.1-1.1c0.1-0.4,0.5-0.4,0.8-0.3c0.1,0,0.3,0.2,0.3-0.1c0-0.3,0-0.4-0.3-0.6c-0.7-0.4-1.8-0.4-2.5,0.1
		c-0.3,0.2-0.3,0.4-0.1,0.8c0.3,0.5,0.6,1,1,1.5c0.3,0.4,0.6,1.1,0.2,1.8c-0.4,0.6-0.4,1.2,0.4,1.5c0.7,0.2,0.9,0.6,0.3,1
		c0.2,0.4,1-0.3,0.7,0.4c-0.3,0.8-0.2,1.4,0.5,1.8c0.3,0.2,0.2,0.5,0.3,0.8c0.2,0.7,0.2,1.5,0.7,2.2c0.1,0.2,0.3,0.5,0.5,0.3
		c0.3-0.1,0.1-0.4,0-0.6c-0.4-0.8-0.7-1.6-0.6-2.5c0.1-0.8-1.1-1.5-0.4-2.4c0,0-0.1-0.2-0.2-0.3c-0.4-0.3-0.4-0.6-0.2-1
		c0.1-0.4,0.1-0.8-0.1-1.2c-0.2-0.5-0.7-1-0.1-1.6C200.6,91.5,200.4,91.1,200.2,90.8z M196.5,76c0.4-0.1,0.7-0.4,0.9-0.7
		c0.1-0.1,0.3-0.3,0.1-0.4c-0.4-0.2-0.8-0.2-1.1,0c-0.3,0.2-0.9,0.2-0.8,0.8c0.1,1.2,1,1.7,2.2,1.3C197.5,76.5,196.8,76.7,196.5,76z
		 M174.9,88.8c-0.1-0.3-0.1-0.6-0.3-0.9c-0.3-0.5-0.8-0.8-1.4-0.6c-0.3,0.1-0.7,0.4-0.5,0.8c0.2,0.5,0.7,0.8,1.3,0.7
		C174.2,88.7,174.5,88.8,174.9,88.8z M167.7,93.1c0.3,0.5,0.5,0.9,1.1,0.4c0.1-0.1,0.3-0.2,0.5-0.3c0.2-0.1,0.5-0.2,0.3-0.4
		c-0.1-0.2-0.3-0.6-0.7-0.2C168.6,92.9,168.1,93,167.7,93.1z M198.3,87.9c-0.2-0.3-0.4-0.5-0.5-0.8c-0.2-0.4-0.6,0-0.9,0.1
		c-0.2,0-0.2,0.2-0.1,0.4C197.1,88.2,197.6,88.1,198.3,87.9z M194,79.5c0.4,0.3,0.6,0.7,0.6,1.1c0,0.3,0.2,0.4,0.5,0.4
		c0.4,0,0.2-0.3,0.2-0.5C195.1,79.7,194.7,79.5,194,79.5z M193.5,73.2c-0.1-0.4-0.4-0.6-0.9-0.7c-0.2-0.1-0.4,0.2-0.4,0.2
		c0.3,0.3,0.1,1,0.7,0.9C193.3,73.6,193.4,73.5,193.5,73.2z M194.2,50.2c0.1-0.1,0.6,0.2,0.5-0.2c0-0.2,0-0.7-0.5-0.6
		c-0.4,0-0.8,0.1-0.8,0.6C193.4,50.4,193.9,50.1,194.2,50.2z M192,84.2c0.5,0.4,0.9,0.4,1.3-0.1c0.2-0.3,0.1-0.5-0.1-0.6
		C192.6,83.3,192.5,84,192,84.2z M194.8,102.3c0.1-1.4,0-1.6-0.9-1.6C194.2,101.2,194.5,101.7,194.8,102.3z M195.1,54.9
		c-0.2,0.2-0.6,0.1-0.6,0.4c0,0.2,0.2,0.3,0.4,0.3c0.3,0,0.5-0.1,0.5-0.4C195.4,55,195.3,54.9,195.1,54.9z M193.6,76.6
		c0-0.1,0-0.1,0-0.2c-0.6,0-1.1,0-1.7,0C192.4,76.6,193,76.8,193.6,76.6z M197.3,73.9c-0.4-0.5-0.9-0.5-1.3-0.3
		c-0.1,0-0.1,0.2,0,0.3C196.4,74.2,196.8,74.1,197.3,73.9z M194.3,52.2c-0.1-0.3-0.4-0.3-0.6-0.4c-0.2,0-0.4,0-0.4,0.2
		c0,0.3,0.4,0.3,0.6,0.4C194.1,52.5,194.2,52.4,194.3,52.2z M175.6,74.2c-0.4,0.4-0.4,0.8-0.3,1.4C175.7,75.1,175.8,74.8,175.6,74.2
		z M168.8,91.3c-0.1,0-0.3,0.1-0.3,0.3c0,0.3,0.3,0.4,0.5,0.4s0.2-0.1,0.2-0.3C169.3,91.5,169.1,91.4,168.8,91.3z M177,86.8
		c0-0.2-0.2-0.3-0.4-0.2c-0.2,0-0.5-0.1-0.6,0.2c0,0.3,0.3,0.3,0.4,0.3C176.7,87,176.9,87.1,177,86.8z M174.7,57.7
		c-0.6,0.5-0.6,0.7,0,1.2C174.7,58.5,174.8,58.2,174.7,57.7z M193.5,74.8c0.2,0.1,0.4,0.2,0.6,0.2s0.3-0.1,0.3-0.2
		c0-0.3-0.3-0.3-0.5-0.3C193.7,74.5,193.5,74.6,193.5,74.8z"/>
	<path class="st0" d="M117.5,89.6c0.3,0.1,0.7,0.1,1,0.2c0.1-0.3,0.1-0.5,0.2-0.9c0.3,1,0.1,1.9,0.2,2.8c0,0.3-0.3,0.2-0.4,0.3
		c-0.3,0.1-0.6,0.1-0.7,0.4s-0.3,0.9,0.1,1s0.8-0.2,1.1-0.6c0,0.6-0.1,1.3,0,1.9s-0.3,1.2,0,1.8c0.2,0.6,0,1.3,0,2
		c-0.2-0.1-0.3-0.1-0.5-0.1s-0.4,0-0.4,0.2s0.2,0.3,0.3,0.3c0.7-0.2,0.6,0.2,0.5,0.6c0,1.7,0.3,3.4,0,5.1c0,0.3-0.1,0.5-0.2,0.8
		c-0.4,1.6-0.8,1.8-2.4,1.9c-3.4,0.1-6.8,0.3-10.2,0.4c-0.4,0-0.8,0-1.2,0c-0.9-0.1-1.4-0.7-1.4-1.6c0-6.5,0-12.9,0.2-19.4
		c0.2-6.1,0.3-12.2,0.7-18.2c0.3-3.9,0.5-7.8,0.7-11.8c0.1-1.2,0.5-1.6,1.7-1.7c3.9-0.2,7.7-0.3,11.6-0.5c1,0,1.8,0.7,1.7,1.8
		c-0.6,6.9-1,13.7-1.3,20.6c-0.1,3.5-0.1,6.9-0.1,10.4c0,0.5,0.1,1-0.6,1.1C117.8,88.6,118,89.4,117.5,89.6z M105.8,80.4
		c0.3-0.6,1.1-0.7,0.8-1.5c-0.4-0.8-0.1-1.6,0.2-2.3c0.3-0.6,0.4-1.2,0.1-1.8c-0.2-0.6-0.2-1.1,0-1.8c0.2-0.7,0.5-1.4,0.1-2.1
		c-0.1-0.2,0-0.4,0.1-0.6c0.6-1.2,0.7-2.5,0.2-3.7c-0.3-0.7-0.4-1.2,0.4-1.5c0.2-0.1,0.4-0.2,0.2-0.4c-0.4-0.4-0.9-0.2-1.3-0.1
		c-0.3,0.1-0.5,0.4-0.4,0.7c0.2,0.5,0,1,0,1.4c0,0.5-0.2,0.9,0.3,1.3c0.1,0.1,0,0.3,0,0.4c0,0.8-0.1,1.5-0.1,2.3
		c-0.1,0.7-0.1,1.5-0.2,2.2c-0.1,0.6-0.4,1.6-0.1,2s0.3,0.8,0.2,1.2c-0.1,1.3-0.1,2.7-0.5,4c0,0.1-0.1,0.2-0.1,0.2
		c1,0.7-0.6,1.6,0.1,2.4c-0.9,0.7-0.2,1.6-0.3,2.3c0,0.4-0.4,0.8,0,1.2c0.3,0.3,0.3,0.7,0,1c-0.2,0.2-0.1,0.4,0.1,0.5
		c0.6-0.5,0.6-1.2,0.3-1.8c-0.1-0.2,0-0.5,0-0.7c0.1-1.2,0.7-2.4,0.5-3.6c0-0.2,0-0.4,0.1-0.5C106.6,80.6,106.5,80.4,105.8,80.4z
		 M110.5,56.5c-0.6,0.1-1,0.2-1.3,0.3c-0.6,0.1-1.3,0.7-1.9-0.1c-0.2-0.2-0.5-0.2-0.8,0c-0.2,0.1-0.4,0.4-0.2,0.6
		c0.8,1.1-0.2,2.2-0.1,3.3c0.1,1-0.3,2,0,2.9c0.1,0.2-0.1,0.5,0.3,0.3c0.2-0.1,0.8-0.1,0.6-0.4c-0.5-0.9-0.3-1.3,0.6-1.5
		c0,0,0-0.1,0.1-0.1c0.7-0.6,0.2-1.9,1.3-2.3c0-0.1-0.1-0.2-0.1-0.3c0.4-0.5,1.1-0.8,0.5-1.6C109.9,57.4,110,56.9,110.5,56.5z
		 M116.2,101.2c0-0.3,0.3-0.7-0.3-0.7c-0.5,0-0.6,0.5-0.8,0.8c0.4,0.1,0.2,0.9,0.7,0.8C116.3,102.1,116.3,101.6,116.2,101.2z
		 M114.5,86.8c0.7,0.7,1.1-0.1,1.5-0.3c0.1,0,0.2-0.5-0.1-0.6c-0.2-0.1-0.8-0.3-0.8,0.1C115.3,86.6,114.7,86.5,114.5,86.8z
		 M113.3,56.6c-0.4,0-0.7-0.1-1.1-0.1c-0.3,0-0.7,0.2-0.8,0.4c-0.1,0.3,0.2,0.6,0.6,0.8C111.9,56.8,112.6,56.8,113.3,56.6z
		 M115.6,94.4c-0.5,0.4-1.4-0.5-1.7,0.6c0,0.1-0.3,0.2-0.1,0.3c0.1,0.1,0.5,0.1,0.5,0C114.5,94.7,115.2,94.8,115.6,94.4z
		 M112.5,90.3c0.2,0.2,0.4,0.3,0.5,0.5c0.2,0.3,0.4,0.2,0.7,0.2c0.2-0.1,0.2-0.2,0.2-0.3c0-0.3-0.3-0.3-0.5-0.4
		C113.2,90,112.9,89.9,112.5,90.3z M117.2,97.9c0.2,0,0.5,0.1,0.6-0.3c0.1-0.3-0.2-0.5-0.4-0.4c-0.3,0.1-0.7-0.2-0.8,0.3
		C116.6,97.9,116.9,97.9,117.2,97.9z M105.6,88.7c-1,0.6-0.5,1.5-0.6,2.2l0,0C105,90.1,105.6,89.5,105.6,88.7z M118.1,100.4
		c-0.7-0.2-1.1,0.1-1.4,0.6C117.3,101.2,117.7,100.9,118.1,100.4z M114.8,81.1c-0.4,0.1-0.7-0.4-1,0.1c-0.1,0.2,0,0.3,0.1,0.4
		C114.3,81.7,114.5,81.5,114.8,81.1z M116.3,99.5c0.7,0.3,0.7,0.3,1.2,0C117.1,99.5,116.7,99.5,116.3,99.5z M112,97.1
		c0.3,0.5,0.7,0.7,1.1,0.1C112.7,97.2,112.4,97.1,112,97.1z M116,79.6c0.2,0,0.4-0.1,0.4-0.3c0-0.2-0.2-0.3-0.4-0.3
		c-0.2,0-0.3,0-0.4,0.2C115.6,79.4,115.8,79.5,116,79.6z M115.3,87.4c-0.5-0.1-0.9-0.2-1.2-0.2c-0.1,0-0.2,0.1-0.2,0.1
		c-0.1,0.1,0.1,0.3,0.2,0.2C114.4,87.4,114.8,87.7,115.3,87.4z M115.6,99.2c0-0.2-0.1-0.3-0.4-0.3c-0.2,0-0.3,0.2-0.2,0.4
		c0.1,0.2,0,0.5,0.3,0.5C115.6,99.7,115.6,99.5,115.6,99.2z M114.5,98.6c0.5,0.2,0.8,0,1.2-0.4C115.2,98.2,114.8,98.2,114.5,98.6z
		 M117.8,94.8c0.4,0.1,0.7,0.2,0.9-0.2C118.4,94.5,118.1,94.4,117.8,94.8z"/>
	<path class="st0" d="M343.3,112.3c-1.6,0.1-3-0.8-4.5-1.5c-0.8-0.4-1.1-1.3-0.8-2.3c1.4-4.2,3.1-5.8,7.4-6.2
		c4.5-0.4,8.8,0.6,12.8,2.8c0.8,0.4,1.5,0.9,2.1,1.6c1.3,1.4,1.1,2.7-0.6,3.7c-1.3,0.7-2.6,1-4,1.3c-2.2,0.4-4.4,0.5-6.6,0.6
		c-0.3,0-0.8,0.3-0.9-0.4c-0.3,0.1-0.6-0.7-0.9,0.2c-0.2,0.6-0.8,0.2-1.3,0.3c-0.2,0.1-0.6,0.1-0.5-0.3c0-0.2,0.1-0.5-0.3-0.5
		c-0.3,0.1-0.4,0.2-0.2,0.5c0.2,0.4-0.1,0.3-0.3,0.3C344.3,112.3,343.9,112.3,343.3,112.3z M357.5,105.1c-0.7-0.4-1.1-0.3-1.7,0.2
		C356.4,105.5,356.9,105.3,357.5,105.1z M345.5,104.2c-0.4-0.3-0.7-0.5-1.1-0.2c-0.1,0.1-0.2,0.3-0.1,0.3
		C344.6,104.5,345,104.5,345.5,104.2z M340.8,108.2c-0.3,0-0.4,0.2-0.4,0.4c0,0.3,0.2,0.3,0.3,0.2c0.2,0,0.5,0,0.5-0.3
		C341.3,108.3,341,108.2,340.8,108.2z"/>
	<path class="st0" d="M290.9,102.2c4.4,0.2,8.6,1.1,12.3,3.8c0.5,0.4,1,0.9,1.3,1.5c0.5,0.9,0.4,1.6-0.4,2.3c-0.7,0.7-1.7,1-2.6,1.3
		c-2.1,0.6-4.2,0.8-6.4,1c-0.7,0.1-1.5,0.1-2.3,0.1c-0.4,0-0.9,0.2-1.1-0.4c-0.1-0.1-0.5-0.5-0.8,0.1s-1.5,0.4-1.7-0.2
		c-0.1-0.1-0.1-0.3-0.3-0.3s-0.4,0.1-0.4,0.3c0,0.5-0.3,0.5-0.6,0.5c-0.8,0-1.7,0.2-2.3-0.1c-1.1-0.6-2.5-0.6-3.5-1.5
		c-0.8-0.7-0.8-1.6-0.5-2.4c1.4-4.1,3.3-5.6,7.5-6C289.8,102.2,290.4,102.2,290.9,102.2z M301.1,105.1c-0.3-0.1-0.4-0.2-0.5-0.2
		c-0.4-0.1-0.7,0-1,0.2v0.2c0.3,0.2,0.6,0,0.9-0.1C300.7,105.3,300.8,105.2,301.1,105.1z M289.1,104.2c-0.8-0.5-0.8-0.5-1.3,0.2
		C288.3,104.4,288.6,104.5,289.1,104.2z M284.5,108.2c-0.3,0-0.4,0.1-0.4,0.4s0.2,0.3,0.3,0.3c0.2,0,0.5,0,0.5-0.3
		C284.9,108.2,284.6,108.3,284.5,108.2z"/>
	<path class="st0" d="M113.2,50.7c-3.2,0-5.3-1.8-5.7-4.6c-0.6-4.5,3.1-8.7,7.6-8.7c2.6,0,4.6,1.2,5.6,3.6c1.1,2.5,0.4,4.9-1.4,6.9
		C117.6,49.8,115.4,50.6,113.2,50.7z M119.2,46.6c0-0.3-0.2-0.4-0.4-0.4c-0.3,0-0.4,0.1-0.4,0.4c0,0.2,0,0.4,0.3,0.4
		C118.9,46.9,119.2,46.9,119.2,46.6z M112.5,40.6c0.2-0.1,0.2-0.4,0.1-0.6c0-0.1-0.1-0.4-0.2-0.3c-0.2,0.1-0.4,0.3-0.3,0.6
		C112.2,40.4,112.2,40.5,112.5,40.6z"/>
	<path class="st0" d="M363.2,174c0.4-0.1,0.8-0.1,1.2-0.2c0.3,0,0.6-0.1,0.6,0.3c0,0.5-0.4,0.4-0.7,0.4
		C363.9,174.5,363.5,174.4,363.2,174L363.2,174z"/>
	<path class="st0" d="M185.4,61.7L185.4,61.7c0,0.1,0,0.1,0,0.2C185.4,61.8,185.4,61.8,185.4,61.7C185.3,61.7,185.4,61.7,185.4,61.7
		z"/>
</g>
</svg>
