<?xml version="1.0" encoding="utf-8"?>
<!-- Generator: Adobe Illustrator 23.0.5, SVG Export Plug-In . SVG Version: 6.00 Build 0)  -->
<svg version="1.1" id="Capa_1" xmlns="http://www.w3.org/2000/svg" xmlns:xlink="http://www.w3.org/1999/xlink" x="0px" y="0px"
	 viewBox="0 0 500 208" enable-background="new 0 0 500 208" xml:space="preserve">
<g id="c9_hat">
	<path fill="#00897B" d="M488.8,115.8v-10.7l11.2-5.7l-60.5-29.9L379,99.4l24,12.9v7.6v0.6h0.2c-0.2,0.4-0.4,0.6-0.4,1.1
		c0,3.8,16.4,6.7,36.7,6.7c20.2,0,36.7-3,36.7-6.7c0-0.4-0.2-0.6-0.4-1.1h0.2v-0.6v-7.6l10.5-5.9v9.5c-1.1,0.4-1.9,1.5-1.9,2.7
		c0,1.7,1.5,3,3.2,3s3.2-1.3,3.2-3C490.7,117.3,489.9,116.2,488.8,115.8z M439.5,125.5c-17.9,0-32.5-1.9-32.5-4.2s14.5-4.2,32.5-4.2
		c17.9,0,32.5,1.9,32.5,4.2S457.4,125.5,439.5,125.5z M475.1,106.1c-2.3-2.3-11.2-8.6-35.6-8.6c-24.5,0-33.1,6.3-35.6,8.6v-2.3
		c0,0,7-9.7,35.6-9.7c28.7,0,35.6,9.7,35.6,9.7V106.1z"/>
	<path fill="#00897B" d="M485,121.9l-1.3,16.7c3.8-5.5,7-3.4,7-3.4v-13.1C486.7,123.4,485,121.9,485,121.9z"/>
</g>
<g>
	<g>
		<path fill="#00897B" d="M26.8,84.6c0-1.5,0.6-2.7,1.5-3.6s2.1-1.5,3.6-1.5c1.5,0,2.7,0.6,3.6,1.5c1.1,1.1,1.5,2.3,1.5,3.6V104
			v19.4c0,1.5-0.6,2.7-1.5,3.6s-2.1,1.5-3.6,1.5c-1.5,0-2.7-0.6-3.6-1.5c-0.8-0.8-1.5-2.3-1.5-3.6v-7.6v-7.6c0-0.2-0.2-0.4-0.2-0.4
			c-0.2-0.2-0.4-0.2-0.4-0.2h-5.1H16c-0.2,0-0.4,0-0.4,0.2c0,0.2-0.2,0.2-0.2,0.4v7.6v7.6c0,1.5-0.6,2.7-1.5,3.6
			c-0.8,0.8-2.1,1.5-3.6,1.5s-2.5-0.4-3.6-1.3c-0.8-0.8-1.5-2.3-1.5-3.6V104V84.6c0-1.5,0.6-2.7,1.5-3.6c0.8-0.8,2.3-1.5,3.6-1.5
			s2.7,0.4,3.6,1.3c0.8,1.1,1.5,2.3,1.5,3.6v6.5v6.7c0,0.2,0,0.4,0.2,0.4c0.2,0,0.2,0.2,0.4,0.2h5.1h5.1c0.2,0,0.4,0,0.4-0.2
			c0-0.2,0.2-0.4,0.2-0.4v-6.7C26.8,90.9,26.8,84.6,26.8,84.6z"/>
		<path fill="#00897B" d="M74.4,90.1c0.2,1.3,0.4,2.7,0.4,4.2v9.7v9.7c0,1.5-0.2,3-0.4,4.4c-0.4,1.3-0.8,2.7-1.5,3.8
			c-0.6,1.3-1.5,2.3-2.3,3.2s-1.9,1.7-3.2,2.5c-1.3,0.6-2.5,1.3-3.8,1.5c-1.5,0.4-3,0.6-4.6,0.6s-3.2-0.2-4.6-0.6
			c-1.5-0.2-2.7-0.8-4-1.5c-1.3-0.6-2.3-1.5-3.2-2.5c-0.8-1.1-1.7-2.1-2.3-3.2c-0.6-1.3-1.1-2.5-1.5-3.8c-0.4-1.5-0.4-3-0.4-4.4V104
			v-9.7c0-1.5,0.2-3,0.4-4.2c0.4-1.5,0.8-2.7,1.5-3.8c0.6-1.3,1.5-2.3,2.3-3.2c1.1-0.8,2.1-1.7,3.2-2.3c1.3-0.6,2.5-1.3,4-1.5
			c1.5-0.4,3-0.6,4.6-0.6c1.7,0,3.2,0.2,4.6,0.6c1.5,0.4,2.7,0.8,3.8,1.5c1.3,0.6,2.3,1.5,3.2,2.3c1.1,1.1,1.7,2.1,2.3,3.2
			C73.6,87.3,74,88.6,74.4,90.1z M52.9,104v9.3c0,1.1,0.2,2.1,0.4,3c0.2,0.8,0.6,1.7,1.1,2.3c0.4,0.6,1.1,1.1,1.9,1.5
			c0.8,0.4,1.7,0.4,2.5,0.4c1.1,0,1.9-0.2,2.7-0.4c0.6-0.2,1.3-0.8,1.9-1.5c0.4-0.6,0.8-1.5,1.1-2.3s0.4-1.9,0.4-3V104v-9.3
			c0-1.1-0.2-2.1-0.4-3c-0.2-0.8-0.6-1.7-1.1-2.3c-0.4-0.6-1.1-1.1-1.9-1.5c-0.8-0.4-1.7-0.4-2.7-0.4s-1.9,0.2-2.5,0.4
			c-0.6,0.2-1.3,0.8-1.9,1.5c-0.4,0.6-0.8,1.5-1.1,2.3c-0.2,0.8-0.4,1.9-0.4,3V104z"/>
		<path fill="#00897B" d="M108.2,83.1c0.4-1.1,1.3-2.1,2.3-2.7c1.1-0.6,2.1-1.1,3.4-1.1c1.7,0,3.2,0.6,4.2,1.9
			c1.1,1.1,1.9,2.7,1.9,4.2v19.2v19.2c0,1.3-0.6,2.5-1.5,3.4s-2.1,1.5-3.4,1.5c-1.3,0-2.5-0.6-3.4-1.5c-0.8-0.8-1.5-2.1-1.5-3.4V112
			v-11.8c0-0.2-0.2-0.4-0.4-0.4c-0.2,0-0.4,0-0.4,0.2l-3.6,7.6l-3.6,7.6c-0.6,1.3-1.7,1.9-3,1.9c-1.3,0-2.3-0.6-3-1.9l-3.6-7.6
			l-3.6-7.6c0-0.2-0.2-0.2-0.4-0.2c-0.2,0-0.4,0.2-0.4,0.4V112v11.8c0,1.3-0.4,2.5-1.3,3.4c-0.8,0.8-2.1,1.5-3.4,1.5
			c-1.3,0-2.5-0.6-3.4-1.5c-0.8-0.8-1.5-2.1-1.5-3.4v-19.2V85.5c0-1.7,0.6-3.2,1.9-4.2c1.1-1.1,2.7-1.9,4.2-1.9
			c1.3,0,2.3,0.4,3.4,1.1c1.1,0.6,1.9,1.5,2.3,2.7l4,8.9l4,8.9c0,0.2,0.2,0.2,0.4,0.2s0.2,0,0.2-0.2l4-8.9L108.2,83.1z"/>
		<path fill="#00897B" d="M135.8,118.8c0,0.2,0,0.4,0.2,0.6c0.2,0,0.2,0.2,0.4,0.2h5.7h5.5c1.3,0,2.5,0.6,3.2,1.3
			c0.8,0.8,1.3,3.2,1.3,3.2c0,1.3-0.4,2.3-1.3,3.2s-1.9,1.3-3.2,1.3h-8.6h-8.9c-1.3,0-2.3-0.4-3.2-1.3c-0.8-0.8-1.3-1.9-1.3-3.2v-20
			V84c0-1.3,0.4-2.3,1.3-3.2c0.8-0.8,1.9-1.3,3.2-1.3h8.6h8.6c1.3,0,2.3,0.4,3.2,1.3s1.3,1.9,1.3,3.2s-0.4,2.3-1.3,3.2
			c-0.8,0.8-1.9,1.3-3.2,1.3h-5.5h-5.5c-0.2,0-0.4,0-0.4,0.2c-0.2,0-0.2,0.2-0.2,0.4v4.2v4.2c0,0.2,0,0.4,0.2,0.4
			c0.2,0,0.2,0.2,0.4,0.2h4h4c1.3,0,2.3,0.4,3.2,1.3c0.8,0.8,1.3,1.9,1.3,3.2s-0.4,2.3-1.3,3.2c-0.8,0.8-1.9,1.3-3.2,1.3h-4h-4
			c-0.2,0-0.4,0-0.4,0.2s-0.2,0.2-0.2,0.4v5.3V118.8z"/>
		<path fill="#00897B" d="M188.5,111.8c0.4,2.5,0.2,5.1-0.6,7.6c-0.8,2.5-2.1,4.4-4,6.1c-1.9,1.7-4,3-6.5,3.6
			c-2.5,0.6-5.3,0.8-8,0.2c-2.7-0.4-5.1-1.5-7.4-3.2c-1.1-0.6-1.9-1.5-2.5-2.5c-0.6-0.8-1.3-1.9-1.9-3c-0.6-1.7-0.4-3.4,0.4-4.6
			c0.8-1.3,2.3-2.3,4-2.3c0.8,0,1.9,0.2,2.5,0.8c0.8,0.4,1.5,1.3,1.7,2.1c0.2,0.4,0.4,0.6,0.6,1.1s0.6,0.8,0.8,1.1
			c1.5,1.3,3.6,1.9,5.5,1.7c1.9-0.2,3.8-1.3,4.6-3.2c1.1-2.3,0.8-4.2-0.4-5.7c-1.1-1.5-3.2-2.7-5.1-3.4c-3.2-1.1-6.5-2.3-9.3-4
			c-3-1.9-5.1-4.2-5.9-7.8c-1.1-4.8,0-9.3,2.7-12.6c3-3,7.2-5.1,12-5.3c3-0.2,5.7,0.4,8.2,1.7c2.5,1.1,4.4,2.7,5.9,5.1
			c1.1,1.7,1.1,3.6,0.2,5.1c-0.8,1.5-2.3,2.5-4.2,2.5l0,0c-0.8,0-1.7-0.2-2.5-0.6c-0.6-0.4-1.3-1.1-1.9-1.7
			c-0.2-0.4-0.4-0.8-0.8-1.1c-0.4-0.4-0.8-0.6-1.3-1.1c-1.9-1.3-4.4-1.1-6.1,0c-1.7,1.1-3,3.2-2.3,5.5c0.4,1.9,1.7,3,3.4,3.8
			c1.7,0.8,3.6,1.3,5.1,1.9c1.9,0.6,3.6,1.3,5.3,2.3c1.7,1.1,3.4,2.1,4.6,3.6C187,107,188,109.3,188.5,111.8z"/>
		<path fill="#00897B" d="M224.1,109.7c1.1,0.8,1.5,2.1,1.5,3.6v0.2v0.2c0,1.5-0.2,3-0.4,4.4c-0.4,1.3-0.8,2.7-1.5,3.8
			c-0.6,1.3-1.5,2.3-2.3,3.2c-0.8,0.8-1.9,1.7-3.2,2.5c-1.3,0.6-2.5,1.3-3.8,1.5c-1.5,0.4-3,0.6-4.6,0.6c-1.7,0-3.2-0.2-4.6-0.6
			c-1.5-0.2-2.7-0.8-4-1.5c-1.3-0.6-2.3-1.5-3.2-2.5c-0.8-1.1-1.7-2.1-2.3-3.2c-0.6-1.3-1.1-2.5-1.5-3.8c-0.4-1.5-0.4-3-0.4-4.4V104
			v-9.7c0-1.5,0.2-3,0.4-4.2c0.4-1.5,0.8-2.7,1.5-3.8c0.6-1.3,1.5-2.3,2.3-3.2c1.1-0.8,2.1-1.7,3.2-2.3c1.3-0.6,2.5-1.3,4-1.5
			c1.5-0.4,3-0.6,4.6-0.6c1.7,0,3.2,0.2,4.6,0.6c1.5,0.4,2.7,0.8,3.8,1.5c0.8,0.4,1.7,1.1,2.5,1.7c0.8,0.6,1.5,1.5,2.1,2.1
			c0.8,1.1,1.3,2.5,1.3,3.6c0,1.3-0.6,2.3-1.7,3.2c-1.1,0.8-2.3,1.1-3.8,1.1c-1.5-0.2-2.7-0.8-3.6-1.9c-0.6-0.8-1.3-1.5-2.1-2.1
			c-0.8-0.4-1.9-0.8-3-0.8c-1.5,0-3,0.6-4,1.7c-1.1,1.1-1.9,2.5-1.9,4v10.1v10.1c0,1.1,0.2,2.1,0.4,3c0.2,0.8,0.6,1.7,1.1,2.3
			c0.4,0.6,1.1,1.1,1.9,1.5s1.7,0.4,2.5,0.4c1.1,0,1.9-0.2,2.7-0.4c0.6-0.2,1.3-0.8,1.9-1.5c0.4-0.6,0.8-1.5,1.1-2.3
			c0.2-0.8,0.4-1.9,0.4-3l0,0c0-1.3,0.6-2.5,1.5-3.6c0.8-0.8,2.1-1.5,3.6-1.5C222,108.2,223.2,108.6,224.1,109.7z"/>
		<path fill="#00897B" d="M251.9,84.6c0-1.5,0.6-2.7,1.5-3.6c0.8-0.8,2.1-1.5,3.6-1.5c1.5,0,2.7,0.6,3.6,1.5
			c1.1,1.1,1.5,2.3,1.5,3.6V104v19.4c0,1.5-0.6,2.7-1.5,3.6c-0.8,0.8-2.1,1.5-3.6,1.5c-1.5,0-2.7-0.6-3.6-1.5
			c-0.8-0.8-1.5-2.3-1.5-3.6v-7.6v-7.6c0-0.2-0.2-0.4-0.2-0.4c-0.2-0.2-0.4-0.2-0.4-0.2h-5.1h-5.1c-0.2,0-0.4,0-0.4,0.2
			c0,0.2-0.2,0.2-0.2,0.4v7.6v7.6c0,1.5-0.6,2.7-1.5,3.6c-0.8,0.8-2.1,1.5-3.6,1.5s-2.7-0.6-3.6-1.5s-1.5-2.3-1.5-3.6V104V84.6
			c0-1.5,0.6-2.7,1.5-3.6c0.8-0.8,2.3-1.5,3.6-1.5s2.7,0.6,3.6,1.5c0.8,1.1,1.5,2.3,1.5,3.6v6.5v6.7c0,0.2,0,0.4,0.2,0.4
			c0.2,0,0.2,0.2,0.4,0.2h5.1h5.1c0.2,0,0.4,0,0.4-0.2c0-0.2,0.2-0.4,0.2-0.4v-6.7V84.6z"/>
		<path fill="#00897B" d="M299.5,90.1c0.2,1.3,0.4,2.7,0.4,4.2v9.7v9.7c0,1.5-0.2,3-0.4,4.4c-0.4,1.3-0.8,2.7-1.5,3.8
			c-0.6,1.3-1.5,2.3-2.3,3.2c-0.8,0.8-1.9,1.7-3.2,2.5c-1.3,0.6-2.5,1.3-3.8,1.5c-1.5,0.4-3,0.6-4.6,0.6c-1.7,0-3.2-0.2-4.6-0.6
			c-1.5-0.2-2.7-0.8-4-1.5c-1.3-0.6-2.3-1.5-3.2-2.5c-0.8-1.1-1.7-2.1-2.3-3.2c-0.6-1.3-1.1-2.5-1.5-3.8c-0.4-1.5-0.4-3-0.4-4.4V104
			v-9.7c0-1.5,0.2-3,0.4-4.2c0.4-1.5,0.8-2.7,1.5-3.8c0.6-1.3,1.5-2.3,2.3-3.2c1.1-0.8,2.1-1.7,3.2-2.3c1.3-0.6,2.5-1.3,4-1.5
			c1.5-0.4,3-0.6,4.6-0.6c1.7,0,3.2,0.2,4.6,0.6c1.5,0.4,2.7,0.8,3.8,1.5c1.3,0.6,2.3,1.5,3.2,2.3c1.1,1.1,1.7,2.1,2.3,3.2
			C298.7,87.3,299.1,88.6,299.5,90.1z M278,104v9.3c0,1.1,0.2,2.1,0.4,3c0.2,0.8,0.6,1.7,1.1,2.3c0.4,0.6,1.1,1.1,1.9,1.5
			s1.7,0.4,2.5,0.4c1.1,0,1.9-0.2,2.7-0.4c0.6-0.2,1.3-0.8,1.9-1.5c0.4-0.6,0.8-1.5,1.1-2.3c0.2-0.8,0.4-1.9,0.4-3V104v-9.3
			c0-1.1-0.2-2.1-0.4-3c-0.2-0.8-0.6-1.7-1.1-2.3c-0.4-0.6-1.1-1.1-1.9-1.5c-0.8-0.4-1.7-0.4-2.7-0.4c-1.1,0-1.9,0.2-2.5,0.4
			c-0.6,0.2-1.3,0.8-1.9,1.5c-0.4,0.6-0.8,1.5-1.1,2.3c-0.2,0.8-0.4,1.9-0.4,3V104z"/>
		<path fill="#00897B" d="M336.4,90.1c0.2,1.3,0.4,2.7,0.4,4.2v9.7v9.7c0,1.5-0.2,3-0.4,4.4c-0.4,1.3-0.8,2.7-1.5,3.8
			c-0.6,1.3-1.5,2.3-2.3,3.2c-0.8,0.8-1.9,1.7-3.2,2.5c-1.3,0.6-2.5,1.3-3.8,1.5c-1.5,0.4-3,0.6-4.6,0.6s-3.2-0.2-4.6-0.6
			c-1.5-0.2-2.7-0.8-4-1.5c-1.3-0.6-2.3-1.5-3.2-2.5c-0.8-1.1-1.7-2.1-2.3-3.2c-0.6-1.3-1.1-2.5-1.5-3.8c-0.4-1.5-0.4-3-0.4-4.4V104
			v-9.7c0-1.5,0.2-3,0.4-4.2c0.4-1.5,0.8-2.7,1.5-3.8c0.6-1.3,1.5-2.3,2.3-3.2c1.1-0.8,2.1-1.7,3.2-2.3c1.3-0.6,2.5-1.3,4-1.5
			c1.5-0.4,3-0.6,4.6-0.6s3.2,0.2,4.6,0.6c1.5,0.4,2.7,0.8,3.8,1.5c1.3,0.6,2.3,1.5,3.2,2.3c1.1,1.1,1.7,2.1,2.3,3.2
			C335.6,87.3,336.2,88.6,336.4,90.1z M314.9,104v9.3c0,1.1,0.2,2.1,0.4,3c0.2,0.8,0.6,1.7,1.1,2.3c0.4,0.6,1.1,1.1,1.9,1.5
			s1.7,0.4,2.5,0.4c1.1,0,1.9-0.2,2.7-0.4c0.6-0.2,1.3-0.8,1.9-1.5c0.4-0.6,0.8-1.5,1.1-2.3s0.4-1.9,0.4-3V104v-9.3
			c0-1.1-0.2-2.1-0.4-3c-0.2-0.8-0.6-1.7-1.1-2.3c-0.4-0.6-1.1-1.1-1.9-1.5c-0.8-0.4-1.7-0.4-2.7-0.4c-1.1,0-1.9,0.2-2.5,0.4
			c-0.6,0.2-1.3,0.8-1.9,1.5c-0.4,0.6-0.8,1.5-1.1,2.3c-0.2,0.8-0.4,1.9-0.4,3V104z"/>
		<path fill="#00897B" d="M351.8,118.8c0,0.2,0,0.4,0.2,0.6c0.2,0,0.2,0.2,0.4,0.2h5.5h5.5c1.3,0,2.3,0.6,3.2,1.3
			c0.8,0.8,1.3,1.9,1.3,3.2c0,1.3-0.6,2.3-1.3,3.2c-0.8,0.8-1.9,1.3-3.2,1.3h-8.6h-8.6c-1.3,0-2.3-0.4-3.2-1.3
			c-0.8-0.8-1.3-1.9-1.3-3.2v-20V84c0-1.3,0.4-2.3,1.3-3.2c0.8-0.8,1.9-1.3,3.2-1.3h0.6h0.4c1.3,0,2.5,0.4,3.2,1.3
			c0.8,0.8,1.3,1.9,1.3,3.2v17.5v17.3H351.8z"/>
	</g>
</g>
</svg>
