<?xml version="1.0" encoding="utf-8"?>
<!-- Generator: Adobe Illustrator 23.0.5, SVG Export Plug-In . SVG Version: 6.00 Build 0)  -->
<svg version="1.1" id="Capa_1" xmlns="http://www.w3.org/2000/svg" xmlns:xlink="http://www.w3.org/1999/xlink" x="0px" y="0px"
	 viewBox="0 0 500 500" style="enable-background:new 0 0 500 500;" xml:space="preserve">
<style type="text/css">
	.st0{fill:#01B6B6;}
</style>
<g>
	<path class="st0" d="M186.1,3.4c2.5,0.4,5.1,0.8,7.6,1.3c8.5,1.7,16.7,4.3,24.1,8.9c2.4,1.5,4.5,3.2,6.3,5.4
		c2.8,3.6,2.3,7.1-1.5,9.7c-3.7,2.6-8,3.7-12.3,4.5c-8.1,1.6-16.3,2.2-24.5,2.4c-0.6,0-1.5,0.4-1.4-1.1c0-0.6-1.5-0.9-2.4-0.9
		c-0.9-0.1-0.6,0.8-0.5,1.4c0.2,0.9-0.5,0.7-0.9,0.7c-1.6,0.1-3.2,0.1-4.8,0.1c-0.6-0.5,0-1-0.1-1.6c-0.1-0.4,0.1-1-0.4-1.1
		c-0.5-0.1-1.1,0-1.5,0.4c-0.5,0.5-0.2,0.9,0.1,1.3c0.2,0.3,0.7,0.4,0.4,0.9c-3.5-0.1-6.9-0.2-10.4-0.3c-0.6,0-1.1,0-1.4-0.8
		c-0.3-0.9-1.3-1-2.1-1.2c-1.6-0.5-3.3-0.9-4.9-1.5c-3.5-1.4-5.1-4.1-4.1-7.7c3.5-12.5,9.1-18.4,20.7-20.4c1-0.2,2.1-0.1,3-0.6
		C178.6,3.4,182.4,3.4,186.1,3.4z M213.8,12.7c-1.7-0.7-3.2-1.1-4.7-0.1c-0.3,0.2-0.9,0.5-0.6,1c0.2,0.4,0.7,0.4,1,0.3
		C210.9,13.7,212.3,13.5,213.8,12.7z M170.7,10.7c1.6-0.2,3,0.3,4.4-0.4C173.5,8.2,171.8,8.3,170.7,10.7z M158.4,25
		c1.4-0.2,2.9,0.5,3.3-1.1c0.3-1-0.9-1.1-1.6-1.2C158.3,22.5,159.2,24.2,158.4,25z"/>
	<path class="st0" d="M355.3,35.9c-3.4-0.1-6.8-0.2-10.3-0.3c-0.7,0-1.2,0-1.5-0.8c-0.3-0.8-1.2-0.9-1.9-1.1
		c-1.8-0.5-3.6-0.9-5.4-1.7c-3.1-1.4-4.6-4-3.8-7.3c3.3-12.4,9.1-18.7,20.9-20.6c0.9-0.2,2,0,2.8-0.6c3.9,0,7.7,0,11.6,0
		c2.4,0.8,4.9,0.8,7.4,1.3c8.9,1.9,17.5,4.6,25.2,9.7c1.9,1.3,3.7,2.8,5.1,4.7c2.7,3.7,2.1,7.1-1.6,9.7c-2.8,1.9-5.9,3-9.1,3.8
		c-9.2,2.2-18.5,2.9-27.9,3.1c-0.5,0-1.1,0.3-1.2-0.8c-0.1-1.2-1.5-0.9-2.4-1.1c-0.8-0.2-0.6,0.7-0.5,1.2c0.2,0.9-0.4,0.9-0.9,0.9
		c-1.6,0-3.2,0.1-4.8,0.1c-0.6-0.4,0-0.9-0.1-1.3c-0.1-0.5,0.2-1.2-0.5-1.4c-0.5-0.1-1.1,0-1.5,0.5c-0.5,0.5-0.2,1,0.2,1.4
		C355.4,35.4,355.7,35.5,355.3,35.9z M395.2,12.7c-1.9-0.8-3.4-1.1-4.9-0.1c-0.3,0.2-0.7,0.5-0.6,0.9c0.2,0.4,0.6,0.4,1,0.4
		C392.2,13.7,393.6,13.5,395.2,12.7z M356.5,10.3c-1.4-1.7-2.8-2-3.8-0.9c-0.3,0.3-0.6,0.7-0.5,1c0.1,0.5,0.6,0.2,0.9,0.3
		C354.2,10.7,355.3,10.8,356.5,10.3z M339.7,25.1c1.5-0.3,3,0.4,3.4-1.1c0.3-1-0.9-1.1-1.6-1.2C339.7,22.4,340.4,24.1,339.7,25.1z
		 M357.5,23.5c0.2,0.2-0.2,0.9,0.5,0.9c0.4,0,0.5-0.3,0.4-0.7c-0.1-0.4,0.1-1-0.5-1C357.4,22.7,357.5,23.1,357.5,23.5z"/>
	<path class="st0" d="M54.9,225.6c0-5.1,0-10.2,0-15.3c0.7-15.3,2.7-30.5,5.7-45.5c4.2-20.8,10.4-40.9,21-59.4
		c7.4-13,16.6-24.4,28.7-33.3c12.9-9.4,27.4-14.3,43.4-14.5c13.1-0.2,25.7,2,37.4,7.8c18,8.9,30.5,22.8,37.6,41.6
		c5.5,14.5,8.8,29.5,10.1,45c0.5,5.3,0.6,10.6,0.8,15.9c0,0.8,0.1,1.3,1.1,1.2c7.9-0.7,15.9-1.4,23.8-2.1c1.4-0.1,1.9-0.6,2.1-2
		c3.1-15.4,7.3-30.4,13.6-44.8c6.1-14.2,14-27.2,24.8-38.3c13.5-13.9,29.7-22.4,49.2-24c15.8-1.3,31,1.1,45.1,8.6
		c17.4,9.3,29.2,23.4,35.9,41.9c5.2,14.4,8.4,29.2,9.7,44.4c0.9,11.3,0.9,22.5,0.2,33.8c0,0.9-0.1,1.8-0.3,2.6
		c-0.6,2.7,0,5.5-0.3,8.2c-1,11.9-2.8,23.6-4.9,35.3c-0.1,0.3-0.2,0.6-0.3,1c-0.7-0.2-1.1-0.7-1.4-1.2c-0.9-1.6-2.4-1.3-3.8-1.3
		c-0.5,0-0.7,0.2-0.8,0.7c-0.1,0.5,0.2,0.7,0.6,0.8c0.7,0.1,1.3,0.4,1.9,0.3c1.5-0.2,2.1,1.1,3.1,1.5c0.6,0.2,0.1,0.8,0,1.2
		c-0.7,2.9-1.4,5.8-2,8.7c-0.2,1.1-0.7,1.7-1.4,1.5c0.9-0.1,1.2,0.6,0.8,1.8c-0.5,1.4-0.9,2.7-1.4,4.1c-0.2,0.7-0.7,1.1-1.6,1.1
		c0.7,0.6,1,1.1,0.7,1.9c-3.5,9.4-7.3,18.6-12.5,27.2c-0.4,0.6-0.8,1.2-1.4,1.6c-0.7,0.6-1.8,1-1,2.3c0.2,0.3-0.2,0.6-0.4,0.9
		c-6.2,8.6-12.6,16.9-20.9,23.7c-12,9.8-25.6,15.7-41,17.7c-13.7,1.8-27.2,1-40.4-3.7c-14-5-25.1-14-33.9-25.9
		c-9.5-12.8-15.3-27.2-18.7-42.6c-0.1-0.5-0.3-1,0-1.6c0.4-0.9,1-2-0.6-2.5c-0.2-0.1-0.2-0.6-0.3-0.9c-1.3-7.8-2-15.7-2.4-23.6
		c-0.1-2.8-0.2-5.6-0.2-8.5c0-0.9-0.1-1.3-1.2-1.4c-7.2-0.4-14.3-0.8-21.5-1.3c-1.3-0.1-1.8,0.2-2,1.6c-0.7,5-1.5,9.9-2.3,14.9
		c0,0.3-0.2,0.5-0.3,0.8c-0.7-0.1-1.1-0.6-1.3-1c-0.8-1.7-2.3-1.4-3.7-1.4c-0.5,0-0.8,0.2-0.9,0.8c-0.2,0.7,0.5,0.6,0.8,0.7
		c1.5,0.5,3.3,0.2,4.5,1.6c0.4,0.4,0.6,0.7,0.4,1.2c-0.8,3.1-1.5,6.2-2.2,9.3c-0.2,1-0.9,1.1-1.8,1.2c1.2,0,1.7,0.3,1.2,1.6
		c-0.5,1.4-0.9,2.8-1.4,4.2c-0.3,0.6-0.5,1.3-1.7,0.9c0.7,0.7,1.2,1.2,0.8,2.1c-3.4,9.1-7,18-12,26.4c-0.6,0.9-1.1,1.9-2,2.6
		c-0.7,0.5-1.8,0.9-0.8,2.1c0.2,0.3-0.2,0.6-0.4,0.8c-7.5,10.7-15.8,20.7-26.7,28.1c-11.4,7.8-24,12.3-37.8,13.7
		c-12,1.3-23.9,0.5-35.4-3.1c-15.1-4.8-26.9-14.1-36.3-26.7c-9.4-12.7-15.2-26.9-18.7-42.2c0-0.2-0.1-0.3-0.1-0.5
		c0.9-2.6-1-4.7-1.2-7c-0.3-2.5-0.7-5-1-7.6c-0.3-2.6-0.5-5.2-0.7-7.8c-0.2-2.5-0.3-5.1-0.4-7.6C55,225.9,54.9,225.7,54.9,225.6z
		 M424.7,221.7c-2.3,1.3-4.4,1-6.5-0.4c-0.5-0.4-2.5,0.4-2.6,1.1c-0.1,0.7-0.3,1.6,1,1.5c1.2-0.1,2.4,0.2,3.6,0.5
		c1.1,0.3,2.3,0.4,3.4,0.1c0.8-0.2,0.5-1.5,1.1-2.1c0.1-0.1,0.2-0.3,0.2-0.4c0.1-0.1,0.1-0.2,0.2-0.3
		C425,221.7,424.8,221.7,424.7,221.7z M329.2,227.6c-0.1,4.2,0,9.9,0.7,15.6c0.7,5.7,2,11.3,4.6,16.5c4.8,9.7,17.7,10,24,5.1
		c4.2-3.2,6.9-7.5,8.8-12.2c5.9-14.6,9.1-30,11-45.6c0.1-1.2,0.3-2.1,1.8-2.1c0.9,0,1.2-0.8,1.3-1.5c0.1-0.8-0.7-0.8-1.1-0.9
		c-1-0.2-0.9-0.9-0.8-1.6c1-11.2,1.5-22.4,1.9-33.6c0.4-12.2-0.2-24.3-2.3-36.4c-1-5.6-2.6-11.1-5.9-15.9c-2-2.9-4.8-4.7-8.4-4.9
		c-5.4-0.3-9.4,2.3-12.9,6.1c-4.2,4.7-6.7,10.4-9,16.1c-5.6,14.3-8.6,29.2-10.6,44.4C330.1,193.2,329.3,209.7,329.2,227.6z
		 M175.2,159.4c0.3-8-0.6-17.6-2.1-27.1c-0.8-5.6-2.5-11-5.3-15.9c-2.3-4-5.7-6.2-10.4-6.1c-3.1,0.1-5.8,1.3-8.3,3
		c-4.1,2.9-6.7,7-8.9,11.4c-6.7,13.4-10,27.8-12.6,42.4c-2,11.4-3.2,22.9-3.8,34.4c-0.7,13.6-1.5,27.3-0.2,40.9
		c0.6,6,1.7,11.8,4.7,17.2c1.8,3.3,4.2,6.3,8,7.4c7.1,2.1,13.5,1.4,19.2-4.9c3.2-3.5,5.3-7.7,6.9-12.2c4.9-13.7,8.1-27.8,9.7-42.2
		c0.2-1.3-0.1-2.8,2-2.8c0.8,0,1-0.9,1.1-1.5c0.2-0.6-0.6-0.7-1-0.8c-0.9-0.2-1-0.6-1-1.5C174.4,187.8,175.2,174.4,175.2,159.4z
		 M419.8,211.6c0.7,1.4,1.4,2.6,1.9,3.9c0.3,0.9,0.9,1.3,1.8,1.4c1,0.1,2.1,0.3,3.1-0.1c-0.5-1.4-0.7-3.1-2.9-2.7c0,0-0.1,0-0.2-0.1
		c-0.3-0.1-0.6-0.2-0.6-0.7c0-0.4,0.3-0.5,0.6-0.6c0.9-0.2,1.7-0.5,2.6-0.6c2-0.2,3.6-1.2,5.1-2.6c-2.2-0.2-1.9-2.3-2.9-3.5
		c-0.7-0.7,0.7-1.4,1.1-2c-0.6-1.1-2.5-1.1-2.2-2.6c0.2-1.1,1.6-0.6,2.4-1c0.1,0,0.1-0.1,0.2-0.2c-0.5-0.7-1.5-0.9-1.5-1.9
		c1.1-0.3,2,0.1,3,0.3c2.3,0.5,3.2,0.2,3.9-1.4c0.6-1.3-0.2-1.8-1.2-2c-0.8-0.2-1.9-1.7-2.6,0.3c-0.9,2.4-1.1,2.3-3.7,1.8
		c-1.2-0.2-2.5,0.2-3.7,0.5c-0.4,0.1-0.7,0.5-0.6,1.1c0.2,0,0.4,0,0.6,0c0.5,0.1,1.1-1.1,1.5,0.1c0.3,0.9-0.4,1.1-1,1.4
		c-1.4,0.6-2.7,1.2-4.1,1.8c-1.8,0.7-0.7,2.1-0.7,3.1c0,1,0.6,1.7,1.7,1.5c2.3-0.4,3.9,0.7,5.6,2c0.3,0.2,0.8,0.4,0.6,0.8
		c-0.2,0.4-0.6,0.7-1.3,0.4c-0.9-0.4-1.9-0.1-2.7,0.4C422.4,211.2,421.2,211.7,419.8,211.6z M117.1,279.2c0.2-1.6-0.2-2-1.8-1.5
		c-2.4,0.7-4.7,1.7-6.7,3.1c-0.9,0.6-1.2,1.5-1.3,2.6c-0.1,0.5,0,1,0.6,1.1c1.4,0.3,2.4,1.3,3.5,2.1c2.7,2.1,6.8,0.9,7.9-2.3
		c0.6-1.6,0.2-2.8-1.4-3.6C117.2,280.3,116.8,279.9,117.1,279.2z M323.3,279c0.1-1.4-0.5-1.8-2.1-1.2c-2.1,0.7-4.1,1.6-6,2.7
		c-1.1,0.7-1.6,1.6-1.8,2.8c-0.1,0.6,0,1.1,0.7,1.2c1.4,0.3,2.3,1.2,3.3,2c2.8,2.2,7.1,0.8,8-2.6c0.3-1.3,0.1-2.5-1.2-3.1
		C323.4,280.4,322.8,280,323.3,279z M179.8,275.7c-1.6,0-2.3,0.5-2.7,1.9c-0.5,1.9-0.4,3.1,1.6,3.8c0.2,0.1,0.3,0.3,0.4,0.5
		c0.3,2.3,2.4,2.6,4,3.4c0.8,0.4,1.6,0.9,2.5,0.6c1.7-0.6,3.3-1.3,4.8-2.3c1.1-0.7,0.9-1.2,0-2c-2-1.5-4.4-2.3-6.8-3
		c-0.8-0.2-1.5-0.5-1.7-1.5C181.5,276.1,180.6,275.7,179.8,275.7z M385.6,275.7c-1.5,0-2,0.4-2.3,2c-0.1,0.4-0.1,0.8-0.3,1.1
		c-0.5,0.9-0.2,1.4,0.6,1.9c1,0.6,1.9,1.3,2,2.6c0,0.4,0.3,0.5,0.6,0.7c3.5,2.3,7.1,2.2,10.3-0.5c0.8-0.6,0.9-1,0-1.7
		c-2-1.6-4.3-2.4-6.8-3c-1-0.3-1.7-0.6-2-1.7C387.5,276.1,386.6,275.7,385.6,275.7z M225.6,240.1c-0.6-0.5-1.1-0.9-1.6-1.3
		c-1-0.9-1.9-1.6-3.5-1.2c-1.4,0.4-2.9-0.4-4.3-1.5c1.5-0.3,2.6-0.6,3.8-0.8c1-0.2,2.1-0.5,2.1,1.1c0,0.4,0.4,0.5,0.7,0.5
		c0.9,0,1.9,0.3,2.3-0.8c0.5-1.3-0.8-1.2-1.4-1.6c-0.1-0.1-0.2-0.1-0.3-0.2c-2.7-1.5-2.7-1.5,0-3.2c0.3-0.2,0.8-0.2,0.4-0.8
		c-1-1.7-4-2.7-6.1-2c0.5,0.8,1.3,1.2,2,1.7c0.9,0.7,0.9,1.1-0.1,1.6c-0.7,0.3-1.7,0.5-1.9,1.2c-0.4,2-2,2.8-3.4,3.8
		c-0.5,0.4-1,0.7-1,1.5c0.7,0.2,1.4,0.4,2.1,0.4c2,0.2,4,0.6,6,1.2c0.4,0.1,0.9,0.2,0.9,0.8c0,0.6-0.3,0.8-0.9,1
		c-0.8,0.2-1.5,0.5-2.6,0.9c1.4,0.7,2.6,1.6,3.5,0.7C223.2,242,224.5,241.2,225.6,240.1z M423.4,228.1c0.9,0.7,1.5,1.2,2.1,1.6
		c1.5,1.2,1.5,1.2-0.1,2c-0.6,0.3-1.4,0.5-1.6,1.1c-0.4,1.9-1.9,2.7-3.3,3.7c-0.5,0.4-1.2,0.7-1.1,1.3c0.1,0.6,1,0.6,1.5,0.6
		c2.2,0.3,4.4,0.6,6.5,1.2c0.4,0.1,0.9,0.1,0.9,0.8c0,0.7-0.4,0.8-0.9,1c-0.8,0.2-1.6,0.5-2.5,0.8c1.1,0.9,2.4,1.6,3.2,0.9
		c1.1-1,2.5-1.9,3.5-3.1c-0.6-0.5-1.2-0.9-1.8-1.4c-0.9-0.9-1.7-1.4-3.2-1.1c-1.5,0.4-2.9-0.3-4.4-1.5c1.8-0.3,3.2-0.6,4.6-0.9
		c0.5-0.1,1-0.1,1.1,0.6c0.1,1.7,1.4,1.2,2.3,1.1c0.5,0,0.8-0.5,0.9-1c0-0.5-0.1-0.8-0.7-1c-0.8-0.3-1.5-0.7-2.2-1.1
		c-0.4-0.2-1-0.4-1.1-0.9c-0.1-0.5,0.5-0.7,0.9-0.9c0.7-0.4,1.3-0.8,2-1.3C428.5,228.5,426.4,227.7,423.4,228.1z M199.1,240.2
		c-0.9-0.5-1-1.3-1.2-2c-0.4-1.1-1.3-1.3-2.3-1.1c-0.7,0.1-1.5,2.9-1.2,3.8c0.3,1,1.3,0.8,2.1,0.9c1.6,0.1,3.3,0.1,4.8,0.9
		c-0.6,1.2-1.5,2.6-0.8,3.6c0.6,0.8,2.1,0.5,3.3,0.3c0.7-0.1,1.2-0.3,1.3-1.1c0.1-0.7,0-1.4-0.7-1.9c-1.9-1.3-1.9-1.6-0.4-3.3
		c0.6-0.7,1.3-1.2,1-2.3c-0.6-2.6-1.6-3.5-4.3-3.5c-0.4,0-0.8,0-1.2,0C200,236.6,200.1,238.4,199.1,240.2z M405.6,234.6
		c0.5,2,0.6,3.8-0.4,5.7c-0.7-0.6-1-1.3-1.2-2.1c-0.2-1-1-1-1.8-1.2c-0.8-0.2-0.8,0.6-1.1,1c-0.3,0.6-0.5,1.2-0.6,1.9
		c-0.2,1.3,0.3,1.8,1.6,1.9c1.3,0,2.6,0,3.9,0.4c0.9,0.2,1.4,0.4,0.9,1.6c-1.2,2.5-0.6,3.2,2.2,2.9c0.2,0,0.4-0.1,0.7-0.1
		c0.7,0,1.3-0.4,1.4-1.1c0.2-0.8-0.1-1.4-0.8-1.9c-1.9-1.3-1.9-1.5-0.3-3.2c0.6-0.6,1.3-1.2,1.1-2.3c-0.7-2.8-1.6-3.5-4.4-3.5
		C406.4,234.6,406,234.6,405.6,234.6z M192.1,249.7c0.1,0.5,0.2,1.1,0.2,1.6c0,1.5,0.7,1.8,2.1,1.7c1.7-0.1,3.3-0.4,4.8-1.1
		c0.9-0.4,1.7-0.5,2.5,0.3c0.6,0.5,1.4,0.9,2.1,0.5c0.5-0.3,0.1-1.2,0.2-1.9c0-0.1,0-0.1,0-0.2c0.1-0.7-0.3-1.1-0.9-1.4
		c-0.6-0.3-1-0.1-1.5,0.3c-0.5,0.5-1.1,1.1-1.7,1.5c-0.7,0.4-3-0.2-3.1-0.8c-0.3-1.3,0.9-1.1,1.5-1.4c0.1-0.1,0.3-0.1,0.5-0.2
		c0.7-0.3,0.7-0.8,0.6-1.4c0-0.8-0.7-0.6-1.1-0.6c-1.6-0.1-3.2,0.2-4.7,0.7C192.4,247.9,191.9,248.5,192.1,249.7z M380.9,227.6
		c-0.5,0.9-0.5,1.7-0.4,2.5c0.2,1.1,0.4,1.8,1.9,1.1c1.9-0.9,4.1-1.2,6.1-0.8c2.3,0.5,4.4,0.2,6.4-0.7c0.6-0.2,1.5-0.3,1.4-1.3
		c-0.2-1.1-1.1-0.7-1.7-0.8c-1.9,0-3.8,0.2-5.6-0.4c-2.1-0.6-3.8,0-5.5,1.2C382.3,229.4,381.5,229,380.9,227.6z M174.6,227.6
		c-0.3,1-0.3,1.8-0.2,2.8c0.2,1.2,0.5,1.4,1.7,0.9c2-0.9,4.2-1.3,6.3-0.8c2.4,0.5,4.5,0.1,6.6-0.7c0.6-0.2,1.3-0.4,1.1-1.4
		c-0.2-0.9-0.9-0.7-1.5-0.7c-1.9,0-3.9,0.2-5.8-0.4c-2.1-0.6-3.9-0.1-5.5,1.2C176.2,229.3,175.4,229.1,174.6,227.6z M281.5,277.5
		c-2.2,1.1-3.3,2.6-2.5,4.9c0.7,1.7,0.1,4.1,2.6,4.8c-0.4,0.7-2,0.7-1.3,1.7c0.5,0.7,1.2-0.6,1.8-0.9c0.1,0,0.2-0.1,0.3-0.2
		c0.7-0.5,1.1-1.1,0.7-1.9c-0.4-0.7-0.3-2-1.7-1.7c-0.3,0.1-0.7,0-0.8-0.3c-0.1-0.5,0.4-0.7,0.7-0.7c0.6-0.2,1.1-0.3,1.2-1.1
		c0.2-2,0.4-3.9,0.6-5.9c0-0.5,0.1-1.2-0.6-1.4c-1.9-0.5-2.3-1.8-2.1-3.5c0-0.2,0-0.5-0.4-0.4c-0.1,1.2-0.1,2.4-0.2,3.6
		C279.7,275.8,279.5,277.1,281.5,277.5z M75.9,287.1c-0.7,0.4-1,0.6-1.2,0.8c-0.4,0.2-0.8,0.6-0.5,1c0.4,0.6,0.8,0,1.1-0.2
		c0.4-0.2,0.7-0.5,1.1-0.8c0.7-0.5,1.2-1.1,0.8-1.9c-0.4-0.7-0.2-2.2-1.8-1.7c-0.3,0.1-0.7,0-0.8-0.4c-0.1-0.4,0.3-0.6,0.6-0.6
		c1.1-0.1,1.3-0.9,1.4-1.7c0.2-1.8,0.5-3.6,0.5-5.4c0-0.8-0.2-1.3-0.9-1.5c-1.5-0.4-2-1.4-1.8-2.9c0.1-0.3,0.2-0.8-0.3-1.2
		c-0.1,1.2-0.2,2.4-0.3,3.5c-0.1,1.5-0.5,3,1.7,3.4c-3,3-3,3-1.7,7.2C73.9,285.7,73.9,286.9,75.9,287.1z M187.9,198.5
		c-3-1.4-5.4-2.8-7.9-4.3c-0.9-0.5-1.6,0.1-2,0.8c-0.3,0.6-0.6,1.3-0.7,2c0,1-0.6,2.3,0.4,2.9c0.9,0.6,2.1,0.9,3.2,0.6
		C183.1,200,185.2,199.3,187.9,198.5z M393.8,198.6c-2.4-1.4-4.6-2.5-6.8-3.8c-1.9-1.1-2.4-0.9-3.2,1.2c-0.5,1.1-0.4,2.1-0.4,3.2
		c0,0.5,0.1,0.8,0.7,1c1.3,0.3,2.5,0.8,3.9,0.3C389.7,199.7,391.7,199.2,393.8,198.6z M406,251.7c-0.2-0.1-0.3-0.2-0.4-0.2
		c-1-0.1-2.4-0.1-2.6-1.2c-0.3-1.3,1.3-0.9,1.9-1.5c0,0,0.1,0,0.2-0.1c0.6-0.3,0.6-0.9,0.5-1.4c-0.1-0.6-0.7-0.4-1.1-0.5
		c-1.8-0.1-3.6,0.2-5.3,0.9c-0.4,0.2-0.9,0.3-0.8,0.8c0,1.2-0.1,2.4,0.2,3.6c0.1,0.6,0.4,0.8,1,0.8
		C401.8,253.1,403.9,252.6,406,251.7z M391.5,73.6c-0.9-0.5-1.9-0.1-2.7-0.5c-0.9-0.4-1.2-0.1-1.2,0.7c0,1-0.7,1.3-1.2,2
		c-1.5,2-3.8,1.6-5.7,2.2c-0.9,0.3-1.8-0.3-1.7-1.5c0.2-1.5-0.5-1.2-1.4-0.9c-0.6,0.2-1.2,0.5-1.8,0.9c-0.8,0.5-1.1,1,0,1.5
		c0.5,0.2,0.7,0.6,0.9,1.1c0.6,1.4,2.4,2.2,3.8,1.8c0.3-0.1,0.6-0.2,0.4-0.7c-0.8-1.6,0.4-1.9,1.5-2c1.1-0.1,2.2-0.2,3.3-0.4
		c0.5-0.1,0.9-0.1,1-0.7c0.2-1.6,1.5-1.7,2.7-2C390.4,75,391.1,74.6,391.5,73.6z M185.5,73.7c-0.9-0.5-1.8-0.2-2.6-0.5
		c-0.9-0.4-1.5-0.4-1.4,0.8c0,0.6-0.4,1-0.8,1.5c-1.5,1.9-3.8,2-5.9,2.5c-1.1,0.3-2-0.2-1.9-1.6c0.2-1.2-0.5-1.1-1.3-0.8
		c-0.4,0.1-0.7,0.3-1.1,0.4c-1.6,0.8-1.6,1-0.4,2.3c0.2,0.2,0.4,0.5,0.5,0.8c0.6,1.3,2.5,2.2,3.8,1.8c0.3-0.1,0.5-0.1,0.4-0.7
		c-0.4-1.5,0.1-2,1.6-2.1c1-0.1,2.1-0.2,3.1-0.3c0.5,0,0.9-0.2,1-0.7c0.3-1.5,1.5-1.8,2.7-2C184.3,75,185,74.6,185.5,73.7z
		 M387.5,151.2c0.9,0.1,1.9,0,2.8-0.4c0.5-0.2,1.2-0.3,1.4-1c0.8-2.3-0.8-4.4-3.3-4.2c-0.3,0-0.7,0-0.7,0.3
		c-0.1,1.9-1.8,2.5-3.1,3.3c-0.6,0.4-0.6,0.8-0.1,1.3C385.4,151.4,386.4,151.2,387.5,151.2z M78.1,235c0-2.2-0.4-2.8-2.2-2.7
		c-1.6,0-3.1,2-3.1,3.9c0,1.7,0.6,2.3,2.4,2.3C77.8,238.4,78.1,238,78.1,235z M181.6,151.2c3.5-0.1,4.3-0.7,4-3.4
		c-0.1-1.3-2.4-2.8-3.7-2.2c-0.2,0.1-0.4,0.2-0.4,0.5c0,1.6-1.3,2-2.3,2.7c-0.4,0.3-1.3,0.5-1,1.3c0.2,0.7,0.8,1,1.5,1.1
		C180.2,151.2,180.7,151.2,181.6,151.2z M284.2,235.2c0-2.4-0.4-3-2.1-3c-1.6,0-3.2,2-3.2,3.8c0,1.6,0.8,2.3,2.4,2.3
		C283.9,238.4,284.2,238.1,284.2,235.2z M152,296.7c2.8,0.1,5.6,1.5,8.4,0c0.8-0.4,1.6-0.5,1.5-1.6c-0.1-1.1-0.8-1.4-1.8-1.4
		C156.9,293.5,154.3,294.8,152,296.7z M357.8,296.8c3.3,0.3,6.1,1.2,9-0.1c0.7-0.3,1.1-0.7,1-1.5c0-0.8-0.4-1.4-1.2-1.5
		C363.4,293.4,360.6,294.5,357.8,296.8z M73,260.4c1.2,0.1,2.3,0.3,2.3-0.7c0-2.5,0.4-4.9,0.1-7.4c-0.1-0.9-0.9-1-1.3-0.7
		c-0.9,0.7-2.2,1.3-1.8,2.9c0.3,1.1,0.5,2.3,1.2,3.2C74.5,258.8,74.7,259.5,73,260.4z M215.4,195.4c-0.1-0.8-1.4-1.2-0.5-2.1
		c0.5-0.6,1.4-0.9,1.9-1.7c-2.3-0.6-4.4-1.1-6.5-1.9c-1.4-0.5-2,0.2-2.7,1.3c1.3,0,2.4-0.4,3.6-0.2c0.7,0.1,1.3,0.4,1.5,1.1
		c0.3,0.7-0.4,0.9-0.7,1.4c-0.3,0.5-1,0.7-1.1,1.4C212.4,195.3,213.8,195.5,215.4,195.4z M413.7,191.1c1.5-0.3,2.8-0.6,4-0.2
		c1.3,0.5,1.4,1.2,0.5,2.2c-0.4,0.5-1,0.8-1.3,1.5c1.4,0.7,2.9,0.9,4.7,0.7c-2.3-2.1,0.6-2.5,1.2-3.8c-2.2-0.6-4.3-1.2-6.4-1.9
		C415.2,189.2,414.5,189.7,413.7,191.1z M219,221.8c-2.5,1.4-4.8,0.9-7-0.6c-0.6-0.4-2.4,0.7-2.5,1.5c-0.1,0.8,0.2,1.2,1.1,1.2
		c1.2-0.1,2.3,0.2,3.4,0.5c1.2,0.3,2.5,0.4,3.6,0.1c0.8-0.2,0.5-1.5,1.1-2.1C218.8,222.2,218.8,222,219,221.8z M198.8,283.2
		c2.7,0.4,3.4,0.2,4.1-1.2c0.4-0.8,0.8-1.8,0.2-2.6c-0.8-1.1-3.3-1-5.5,0.1C198.6,280.5,199.6,281.6,198.8,283.2z M279.1,260.5
		c1.3-0.1,2.4,0.2,2.4-0.7c0-2.5,0.5-4.9,0.1-7.4c-0.2-0.9-0.8-1-1.2-0.7c-1,0.7-2.2,1.3-1.8,2.9c0.3,1.1,0.5,2.2,1.1,3.1
		C280.3,258.6,281,259.4,279.1,260.5z M389.6,188.7c-0.1,1.2,2.5,4.1,3.7,4.2c0.6,0,0.8-0.5,1.1-0.8c0.4-0.4,0-0.7-0.3-0.9
		c-1-0.8-1.4-1.8-1.3-3.1c0.1-0.6-0.3-1.2-0.7-1.6c-0.8-1-1.6-0.4-2,0.2C389.8,187.2,389.8,188,389.6,188.7z M198.8,227.7
		c-1,0.1-2.4-0.2-2.3,1.4c0.1,1.3,1,1.9,2.4,1.7c0.8-0.1,1.6,0,2.4,0.2c1.3,0.3,1.5-0.7,1.8-1.6c0.3-1-0.5-1-1.1-1.2
		C201,228,199.9,227.6,198.8,227.7z M403.7,279.3c0.6,1,1.9,1.7,1.4,3c-0.3,0.9,0,1,0.8,1c0.5,0,1,0.1,1.5,0
		c1.3-0.3,1.7-1.4,1.9-2.6c0.2-1-0.2-1.4-1.2-1.9C406.4,278.1,405.2,278.8,403.7,279.3z M404.8,227.7c-0.8,0.1-2.2-0.3-2.2,1.4
		c0.1,1.2,0.9,1.9,2.3,1.7c0.8-0.1,1.6,0,2.5,0.2c1.3,0.4,1.6-0.6,1.9-1.5c0.3-1.1-0.5-1.1-1.2-1.3C407,228,406,227.7,404.8,227.7z
		 M188.6,191.8c-0.2-0.2-0.4-0.5-0.6-0.6c-1-0.8-1.4-1.8-1.3-3c0.1-0.5-0.2-1-0.5-1.4c-0.3-0.4-0.5-1-1.1-0.7
		c-0.4,0.2-0.9,0.2-1.1,0.9c-0.7,2.3,0.8,5.3,3.1,5.8C188,193.1,188.2,192.3,188.6,191.8z M382.4,217.6c0.6,0.8,1,1.5,1.5,2.1
		c1.4,1.6,4.1,1.9,5.7,0.7c0.4-0.3,0.6-0.7,0.6-1.3c0-0.5-0.4-0.6-0.8-0.6C387.1,218.4,384.9,217.5,382.4,217.6z M176.5,217.7
		c0.5,1,1,1.8,1.7,2.5c1.4,1.2,3.8,1.3,5.3,0.3c0.5-0.3,0.7-0.8,0.7-1.4c0-0.4-0.3-0.5-0.7-0.6C181.2,218.4,179,217.5,176.5,217.7z
		 M179.1,73.3c-0.2-0.6-0.4-1-1.2-1.2c-1.8-0.4-3.6-0.2-5.3-0.9c-0.3-0.1-0.6,0.1-0.9,0.3c-0.3,0.4-0.8,0.9-0.5,1.5
		c0.5,0.9,1.2,1.5,2.2,1.4C175.4,74.2,177.3,74.2,179.1,73.3z M385.2,73.3c-0.3-0.6-0.5-1-1.2-1.2c-1.8-0.4-3.6-0.2-5.3-0.9
		c-0.6-0.2-0.9,0.5-1.2,0.9c-0.3,0.5-0.3,0.9,0.2,1.3c0.7,0.6,1.4,1.1,2.3,0.9C381.7,74.1,383.5,74.1,385.2,73.3z M389.3,205
		c1.2-0.1,2.3-0.4,3.3-1c0.5-0.3,0.8-0.8,0.6-1.4c-0.1-0.6-0.6-0.8-1.1-0.9c-1.1-0.2-2.2-0.2-3.3,0.1c-1,0.2-2.3,0.7-2.2,1.7
		C386.8,204.6,388.2,204.9,389.3,205z M184.8,201.6c-1.4,0-2.6,0.1-3.6,0.9c-0.9,0.6-1,1.2,0,1.9c1.4,0.9,4.4,0.6,5.5-0.6
		c0.6-0.7,0.6-1.4-0.3-1.9C185.9,201.5,185.3,201.6,184.8,201.6z M429.7,254.2c-1-0.6-2,0-2.4-0.8c-0.5-0.8,0.3-1.5,0.4-2.3
		c-1.7,0.4-3.2,0.7-4.8,1c-1,0.2-0.8,1-0.8,1.7c0,0.6,0.2,0.8,0.8,0.8C425,254.5,427.2,254.7,429.7,254.2z M221.5,251.1
		c-1.7,0.4-3.2,0.7-4.7,1c-1,0.2-0.8,0.9-0.8,1.5c0,0.4-0.1,1,0.6,1c2.3,0,4.6,0.2,7.2-0.4C220.7,253.4,220.7,253.4,221.5,251.1z
		 M427.7,214.5c3.2-0.5,4.4,3.2,7.3,3.3c-0.1-0.7-1.9-0.7-0.9-1.5c1.5-1.2,0.8-2-0.1-3C432.1,215,429.8,213.9,427.7,214.5z
		 M384.1,182.8c0.2-0.1,0.3-0.1,0.5-0.2c0.8-0.4,1.5-0.9,2.3-1.2c1.2-0.5,0.7-1.3,0.4-2c-0.4-1.2-1.1-0.2-1.6,0
		c-0.8,0.3-1.5,0.7-2.2,1.1c-0.6,0.3-1.3,0.6-1,1.4C382.8,182.6,383.6,182.4,384.1,182.8z M181.6,180.4c0-1.4-0.6-1.8-1.9-1.2
		c-0.9,0.4-1.8,0.8-2.6,1.3c-0.9,0.5-0.8,1.4,0.1,1.8c0.9,0.5,4.1-0.7,4.4-1.6C181.6,180.6,181.5,180.5,181.6,180.4z M364.1,308.8
		c-0.3-0.9-1.1-1.2-2.2-1.2c-1.1,0-2.1,0.2-2.6,1.4c0,0.1,0.1,0.3,0.2,0.4c0.9,0.6,1.8,1.3,2.8,1.2
		C363.2,310.5,364.1,310.2,364.1,308.8z M406.1,251.2c0.6,0.4,1.1,0.7,1.6,1c0.7,0.4,1.5,1.1,2.2,0.6c0.6-0.4,0.2-1.4,0.3-2.2
		c0.1-0.6-0.4-1-0.9-1.2c-0.6-0.3-1-0.2-1.5,0.3C407.3,250.2,406.7,250.6,406.1,251.2z M156.3,307.6c-1.5,0-2.9,0.2-2.9,1.3
		c0.1,1.1,1.6,1.5,2.7,1.6c0.8,0.1,1.8-0.1,1.8-1.4C157.9,307.7,156.9,307.6,156.3,307.6z M180.1,303.7c-1,0-2.1,0.1-2,1.4
		c0,1,1,1.5,1.8,1.4c0.8-0.1,2.2,0.3,2.3-1.2C182.1,303.9,181.1,303.7,180.1,303.7z M385.9,306.6c0.9-0.4,2.3,0.2,2.4-1.3
		c0-1.2-0.9-1.5-1.9-1.5c-1,0-2.2-0.1-2.2,1.3C384.1,306.2,385.2,306.2,385.9,306.6z M414.7,229.6c0.8,0.3,1.4,0.6,2.2,0.7
		c0.7,0,1.4,0.1,2.1,0.2c1.3,0.3,2-0.3,1.8-1.7c-0.1-0.5-0.3-1.1-0.4-1.8c0.2,1.4-0.5,1.7-1.6,1.6
		C417.3,228.4,416,228.6,414.7,229.6z M214.3,227.2c-0.3,1.4-0.3,1.4-1.7,1.3c-1.4-0.1-2.7,0-3.9,0.9c1.3,1,2.7,0.6,4,0.9
		c0.5,0.1,1.1,1,1.5,0c0.3-0.6,0.6-1.2,0.4-1.9C214.5,228.1,214.2,227.8,214.3,227.2z M204.3,209.3c-0.7-0.6-1.2-0.6-1.9-0.4
		c-1.4,0.4-1.8,1.7-2.3,2.8c-0.2,0.5-0.4,1.1,0.1,1.5c0.3,0.3,0.7,0.3,1.1,0.2c0.7-0.1,0.9-0.8,0.8-1.2
		C201.8,210.5,202.7,209.8,204.3,209.3z M435.5,209.3c0.4-0.1,1.3,0.5,1.6-0.2c0.3-0.7-0.2-1.5-0.6-2.1c-0.9-1.3-1.8-0.4-2.7,0.2
		c-0.5,0.3-1.3,0.6-1.1,1.2c0.2,0.6,0.9,1,1.7,0.9C434.7,209.2,435,209.3,435.5,209.3z M410.4,209.2c-0.7-0.5-1.1-0.6-1.8-0.4
		c-1.4,0.5-1.9,1.7-2.4,2.9c-0.3,0.8-0.3,1.4,0.6,1.7c0.9,0.3,1.5-0.4,1.4-1.1C407.8,210.5,408.8,209.8,410.4,209.2z M384.4,173.1
		c-0.3,0.1-0.8,0.1-1.3,0.3c-0.6,0.3-0.9,1-0.1,1.2c1.3,0.4,2.7,0.6,4,0.7c0.4,0.1,0.8-0.2,0.9-0.6c0.1-0.4-0.2-0.7-0.5-0.9
		C386.5,173.4,385.6,173.1,384.4,173.1z M178.2,173.2c-0.2,0.1-0.8,0.1-1.3,0.3c-0.6,0.3-0.8,1,0,1.2c1.2,0.4,2.4,0.5,3.7,0.7
		c0.5,0.1,1-0.1,1.2-0.7c0.1-0.5-0.3-0.7-0.7-1C180.2,173.3,179.4,173.1,178.2,173.2z M61.2,223.7c0-1.3,0-2.6,0-4
		c0-0.3,0-0.8-0.4-0.7c-0.4,0-0.4,0.4-0.4,0.8c0,2.6,0,5.3,0,7.9c0,0.3,0,0.6,0.4,0.7c0.5,0.1,0.5-0.4,0.5-0.7
		C61.3,226.3,61.2,225,61.2,223.7z M364.4,301.7c0.1-1.7-0.8-1.7-1.6-1.7c-1,0-2,0.3-2.1,1.5c0,0.5,0.1,1.3,0.7,1
		C362.4,302,364,302.9,364.4,301.7z M220.6,216.8c0-1.2-0.5-1.7-1.7-1.6c-0.6,0.1-1.2-0.1-1.8-0.1c-0.5,0-1.2-0.4-1.3,0.4
		c-0.1,0.8,0.5,1.2,1.2,1.3C218.1,217.1,219.4,217.3,220.6,216.8z M156.7,299.9c-0.3,0-0.6,0-0.8,0.1c-0.9,0.3-1.5,0.8-1.3,1.8
		c0.2,1.3,1.1,0.4,1.7,0.4c0.2,0,0.4-0.1,0.7-0.1c0.7,0,1.5,0.1,1.4-1.1C158.3,300,157.5,300,156.7,299.9z M196.6,276.9
		c1.5,0.8,2.8,0.7,4.2,0.3c0.4-0.1,1,0,0.7-0.7c-0.2-0.5-0.1-1.4-1.1-1.1C199.1,275.9,197.8,276.1,196.6,276.9z M73.6,248.5
		c0-0.1,0,0.1,0,0.3c0,0.4-0.1,0.9,0.4,0.9c0.5,0,1,0,1.4-0.4c0.2-0.4,0.1-0.8-0.2-1c-0.9-0.7-1.5-1.4-1.1-2.7
		c0.2-0.6-0.4-1-0.9-1.2c-0.6-0.2-0.7,0.3-0.9,0.7c-0.3,0.7,0.1,0.8,0.7,1C73.7,246.5,73.7,247.3,73.6,248.5z M402.7,276.9
		c1.4,0.8,2.8,0.7,4.2,0.3c0.5-0.1,1-0.1,0.7-0.8c-0.2-0.4-0.2-1.3-1-1C405.3,275.8,403.9,276.1,402.7,276.9z M198,208.5
		c0.5-0.1,1.2,0.1,1-0.7c-0.2-0.9-0.2-2.2-1.7-2.1c-0.6,0-1.4-0.2-1.3,0.8C196.1,207.7,196.7,208.5,198,208.5z M142.2,78.3
		c-0.5,0-1.1,0-1.3,0.6c-0.2,0.6,0.3,1,0.6,1.4c0.6,0.6,1.4,0.9,2.3,0.7c0.2-0.1,0.5-0.2,0.6-0.4C144.6,80.3,142.6,78.3,142.2,78.3z
		 M404,208.5c0.5-0.1,1.3,0.1,1.1-0.7c-0.3-0.9-0.2-2.2-1.8-2.1c-0.5,0-1.4-0.2-1.2,0.8C402.2,207.6,402.8,208.5,404,208.5z
		 M427.3,194.7c-0.8-0.1-1.4,0.1-2,0.3c-0.4,0.2-1.1,0.1-1,0.8c0,0.5,0.5,0.9,1,1c0.5,0.1,1.2,0.3,1.6,0c0.7-0.4,1.6-1,1.7-1.9
		C428.5,194.4,427.6,194.8,427.3,194.7z M350.7,80.3c-0.5-0.3-1.1-0.5-1.1-1.1c-0.1-1.2-1-0.9-1.7-1c-0.5,0-1,0.3-1,0.7
		c0,0.7,0.5,1.2,1.1,1.6C348.9,81,349.8,81.3,350.7,80.3z M185.5,296.2c0-0.8-0.6-1.8-0.9-1.8c-0.3,0-2.8,1.6-2.7,1.8
		c0.4,0.9,1.5,0.9,2.2,1.1C184.6,297.4,185.4,296.8,185.5,296.2z M390.7,294.2c-0.8,0.9-2.4,0.7-2.6,1.7c-0.2,1.2,1.4,0.8,2.1,1.3
		c0.3,0.2,1.3-0.4,1.3-1.1C391.5,295.5,391.3,294.8,390.7,294.2z M279.7,248.3c0,0-0.1,0.2,0,0.4c0.1,0.4-0.2,1,0.5,1
		c0.4,0,1.1,0.1,1.3-0.5c0.2-0.5-0.1-0.8-0.5-1.1c-0.9-0.6-1.2-1.3-0.9-2.4c0.2-0.6-0.3-1-0.9-1.2c-0.6-0.3-0.8,0.2-1,0.6
		c-0.3,0.6,0,0.9,0.6,1.1C279.8,246.5,279.9,247.3,279.7,248.3z M422.2,232.3c-1.3-0.1-2.4-0.3-3.6-0.4c-0.4,0-0.8,0.1-0.9,0.6
		c-0.1,0.3-0.1,0.6,0,0.8C418.2,233.9,421.6,233.2,422.2,232.3z M73.9,291.7c0.1,0.3-0.2,1.2,0.5,0.9c0.8-0.4,2.4,0.1,2.4-1.6
		c0-1-0.6-1-1.3-1C74.6,289.9,73.7,290.2,73.9,291.7z M280.1,291.7c0.1,0.2-0.2,1.1,0.5,0.8c0.8-0.3,2.3,0,2.4-1.5
		c0.1-1-0.7-1.1-1.4-1.1C280.6,289.9,279.9,290.3,280.1,291.7z M213.4,233.4c0.5,0,0.8,0,1.1,0c0.5,0,1.3,0,1.4-0.7
		c0.1-0.9-0.8-0.3-1.2-0.6c-0.2-0.1-0.5-0.3-0.8-0.2c-0.8,0.1-2.2-0.6-2.2,0.8C211.6,234.1,213,233,213.4,233.4z M433.3,201.7
		c0.9,2.4,2.5,3.1,4.7,2.1C436.5,202.8,435,202.3,433.3,201.7z M267.1,219c-0.1,0-0.2,0-0.3,0c0,3.1,0,6.2,0,9.3c0.1,0,0.2,0,0.3,0
		C267.1,225.2,267.1,222.1,267.1,219z M202.4,220.1c-0.7-0.8-1.3-1.5-2.1-1.4c-0.7,0.1-1.1,0.9-1.1,1.6c0.1,0.7,0.7,1.3,1.4,1.1
		C201.2,221.2,201.8,220.5,202.4,220.1z M442.5,214.4c-2.4-0.9-3.5-1.1-4.7-0.8C440.1,215.7,441,215.8,442.5,214.4z M405.2,220
		c0.1,0.9,0.6,1.4,1.3,1.3c0.8-0.1,1.7-0.7,1.7-1.5c0-0.7-1-1.2-1.7-1.2C405.7,218.6,405.6,219.5,405.2,220z M63.1,174.5
		c-0.7,0.5-1.2,1.1-1.6,1.8c-0.3,0.4-0.2,0.7,0.1,1c0.3,0.3,0.7,0.6,1.1,0.6c0.6,0,0.3-0.6,0.4-0.9
		C63.5,176.2,63.6,175.4,63.1,174.5z M182.8,210.1c-1.9-0.8-3.5-0.4-4.7,1.3C179.7,211.1,181.3,211,182.8,210.1z M333.8,75.6
		c0.8,0.6,0.7,1.4,1.4,1.6c0.6,0.2,1.2,0.2,1.7-0.2c0.3-0.2,0.4-0.4,0.2-0.8c-0.3-0.6-0.8-0.7-1.4-0.6
		C335.2,75.6,334.7,75.6,333.8,75.6z M127.9,75.6c0.4,0.8,0.7,1.7,1.7,1.8c0.7,0.1,1.5-0.1,1.5-0.8c0-0.5-0.5-1-1.3-1
		C129.2,75.7,128.6,75.6,127.9,75.6z M442.3,189.9c0-0.2,0-0.3,0-0.5c-1.7,0-3.4,0-5.1,0c0,0.1,0,0.3,0,0.4
		C438.9,190.1,440.6,190,442.3,189.9z M58.8,230.8c-0.5,0.1-1.4-0.2-1.3,0.7c0.1,0.9,1,1.4,1.7,1.5c0.7,0.1,0.8-0.7,0.9-1.3
		C60.2,231,59.5,230.7,58.8,230.8z M264.7,230.8c-0.4,0.1-1.2-0.2-1.1,0.6c0.1,1,0.9,1.5,1.8,1.7c0.7,0.1,0.8-0.8,0.8-1.3
		C266.2,230.9,265.5,230.8,264.7,230.8z M389,210.1c-2.1-0.8-3.7-0.4-4.7,1.3C385.9,211.1,387.4,210.9,389,210.1z M416,268.4
		c0.8,0.8,1.6,1.1,2.4,1.5c0.3,0.1,0.6,0.7,0.9,0.2c0.2-0.3,0.5-0.8,0.5-1.2c0-0.5-0.6-0.4-0.9-0.5C418,268.4,417.1,268.4,416,268.4
		z M229,217.8c-0.4-0.4-1.6-0.7-1.3-1.2c0.6-1.2-0.4-0.8-0.8-0.9c-0.5-0.1-1.1,0-1.9,0C226.4,216.8,227.4,217.9,229,217.8z
		 M141.5,75.6c-1.2,0-2,0-2.8,0c-0.6,0-0.7,0.4-0.7,0.9c0,0.5,0.3,0.6,0.7,0.7C139.9,77.3,140.6,76.7,141.5,75.6z M337.8,127.1
		c-0.3,0.1-1.1-0.3-1.1,0.4c0,0.5,0.1,1.5,1,1.3c0.6-0.1,1.5-0.1,1.5-0.9C339.3,127,338.5,127.1,337.8,127.1z M131.7,127.1
		c-0.3,0.1-1.1-0.4-1,0.5c0,0.5,0.1,1.4,0.9,1.3c0.6-0.1,1.6-0.1,1.7-1C133.3,127,132.4,127,131.7,127.1z M347.7,75.6
		c-1.1,0-1.9,0-2.7,0c-0.6,0-0.8,0.3-0.8,0.8c0,0.6,0.3,0.7,0.8,0.8C346.1,77.3,346.7,76.6,347.7,75.6z M209.8,268.4
		c1.2,1,2.3,1.4,3.3,1.9c0.8-1.9,0.8-1.9-1.2-1.9C211.4,268.4,210.8,268.4,209.8,268.4z M212.3,245.7c0.9,1.2,1.8,1.1,2.8,0.8
		c0.3-0.1,0.7-0.2,0.6-0.6c-0.1-0.4-0.4-0.7-0.8-0.7C214.1,245.3,213.3,245.5,212.3,245.7z M204.1,214c-0.7-0.1-0.7,0.3-0.7,0.8
		c0.1,1.1,1,1,1.7,1.2c0.5,0.1,0.9-0.4,0.9-0.8C205.7,214.2,204.9,214.1,204.1,214z M411,216c0.6,0,1-0.3,0.9-0.9
		c-0.2-0.9-1-1-1.8-1.1c-0.6-0.1-0.8,0.2-0.8,0.7C409.5,215.8,410.4,215.6,411,216z M415.2,232c-0.1,0-0.1,0-0.2,0.1
		c0,1,0,1.9,0,2.9c0,0.6,0.4,0.6,0.9,0.5c0.7-0.1,0.6-0.5,0.3-0.9C415.8,233.7,415.5,232.8,415.2,232z M195.5,255.8
		c-0.7-0.4-1.5-0.9-2.2-1.3c-0.3-0.2-0.7-0.6-1-0.1c-0.3,0.4-0.1,0.9,0.3,1.3C193.4,256.3,194.4,256.1,195.5,255.8z M418.3,245.7
		c0.9,1.1,1.9,1.1,2.9,0.8c0.3-0.1,0.8-0.2,0.6-0.7c-0.1-0.4-0.4-0.7-0.9-0.6C420.1,245.3,419.3,245.5,418.3,245.7z M398.5,254
		c-0.2,1.9,0.5,2.3,3.1,1.9C400.6,255.1,399.7,254.5,398.5,254z M195.8,179.7c-0.7,1.1-1.9,1.5-1.7,2.5c0.1,0.4,1.5,0.4,1.9,0.1
		C196.8,181.7,196,180.8,195.8,179.7z M415.3,270.5c0.3,0.4,0.5,0.8,0.8,1.2c0.4,0.5,0.9,0.3,1.3,0.1c0.5-0.1,0.7-0.6,0.6-1
		c-0.1-0.5-0.7-0.5-1.1-0.5C416.4,270.4,415.9,270.2,415.3,270.5z M436.1,193.7c0.4-0.3,1.5,0.4,1.4-0.9c0-0.4-0.2-0.9-0.6-0.6
		c-0.6,0.4-1.8-0.4-2,0.8C434.8,193.7,435.3,193.9,436.1,193.7z M209,232c-0.1,0-0.2,0-0.4,0.1c0.1,1,0.1,2,0.2,2.9
		c0.1,0.6,0.5,0.6,1,0.4c0.5-0.1,0.6-0.3,0.3-0.8C209.7,233.7,209.4,232.8,209,232z M420.6,210c0.6-0.2,1.6,0.4,1.6-0.7
		c0-1.1-0.9-0.7-1.5-0.7c-0.6,0-1.5-0.2-1.4,0.9C419.3,210.5,420.2,209.7,420.6,210z M209.5,270.4c-0.2,0.6,0.2,0.8,0.3,1.2
		c0.3,0.6,0.9,0.5,1.4,0.4c0.5-0.2,0.8-0.6,0.7-1c-0.1-0.7-0.8-0.5-1.2-0.5C210.3,270.4,209.9,270.4,209.5,270.4z M199,223.9
		c-0.3,0.1-1-0.2-0.9,0.4c0.1,0.6,0,1.6,1,1.6c0.6,0,1.3-0.4,1.3-1C200.5,224,199.6,224.1,199,223.9z M177.9,187.8
		c-0.2-0.6-0.5-1.3-1.1-1.3c-0.8-0.1-0.7,0.8-0.8,1.3c-0.1,0.4,0,1,0.6,0.9C177.1,188.6,177.7,188.5,177.9,187.8z M211,186.5
		c0.7,0.5,1.3,0.9,2,1.4c0.5-0.5,1-1.1,0.4-1.8C212.5,185.1,211.9,186.5,211,186.5z M406.6,224.8c-0.2-0.8-0.9-0.8-1.5-0.9
		c-0.3,0-0.9-0.2-0.8,0.4c0.1,0.6,0,1.6,1,1.6C405.9,225.9,406.4,225.5,406.6,224.8z M416.8,186.3c0.7,0.5,1.2,0.8,1.7,1.2
		c0.3,0.2,0.5,0.5,0.8,0.1c0.4-0.5,0.6-1.1,0.2-1.5C418.6,185.1,417.9,186.5,416.8,186.3z M400,182.5c0.9-0.3,1.8,0.3,2.3-0.4
		c0.4-0.6,0-1.4-0.5-2.2C401.4,180.9,400.3,181.1,400,182.5z M441.1,177.1c1.4,0,2.7-0.1,3.9-0.4
		C442.5,175.7,442.2,175.7,441.1,177.1z M185.2,240.1c0.9,0.6,1.6,0.5,2.4,0.2c0.6-0.3,0.4-0.6,0.2-1c-0.2-0.4-0.4-0.6-0.9-0.3
		C186.5,239.3,185.9,239.7,185.2,240.1z M382.7,186.3c-0.4,0.3-0.6,0.9-0.6,1.5c0,0.4,0,1,0.6,0.9c0.5-0.1,1.3-0.2,1.3-1
		C383.9,187.1,383.4,186.6,382.7,186.3z M398.2,208.1c-0.9-0.8-1.5-1.5-2.4-1.3c-0.5,0.1-0.4,0.9-0.2,1.2
		C396.2,208.8,397,208.1,398.2,208.1z M380.6,129c0.3-0.2,1.1,0.4,1-0.5c0-0.5-0.2-1.2-0.9-1.1c-0.6,0.1-1.5,0.4-1.5,1
		C379.1,129.2,380,128.9,380.6,129z M174.4,129c0.4-0.2,1.2,0.4,1.1-0.6c-0.1-0.5-0.2-1.1-0.8-1c-0.7,0.1-1.6,0.4-1.6,1.1
		C173,129.1,173.9,128.9,174.4,129z M279.9,239.5c-0.7,0.2-1.4,0.4-1.4,1c0,0.7,0.6,1.2,1.4,1.4
		C279.9,241.1,279.9,240.4,279.9,239.5z M391.2,239.9c1.1,0.9,2.1,0.7,2.9,0c0.3-0.3,0-0.9-0.3-1
		C392.7,238.5,392.3,239.9,391.2,239.9z M208.5,241.8c0.5,0.5-0.1,1.7,1,1.7c0.4,0,1-0.4,0.9-0.8C210.2,241.9,209.3,242,208.5,241.8
		z M216.1,265.9c0.7,0.2,1.3,0.2,2,0c-0.5-0.7-0.8-1.4-1.3-2C216.2,264.5,216.4,265.2,216.1,265.9z M191.7,208
		c-0.5-0.7-1.1-1.4-2-1.2c-0.4,0.1-0.3,0.9-0.1,1.2C190.1,208.8,190.9,208.1,191.7,208z M425.5,257.2c-1.1-0.2-2-0.7-3.1-0.6
		C423.3,257.9,424.1,258.7,425.5,257.2z M216.3,256.4c1.5,2.1,1.5,2.1,3,0.7C218.3,256.9,217.4,256.7,216.3,256.4z M217.1,274.4
		c0-0.5-0.3-0.7-0.7-0.6c-0.4,0-1-0.2-1.1,0.4c-0.1,0.6,0.3,0.7,0.8,0.7C216.5,274.9,217,275,217.1,274.4z M422.9,263.9
		c-0.3,0.7-0.9,1.4-0.5,2c0.3,0.4,1.1,0.2,1.8,0C423.8,265.2,423.3,264.6,422.9,263.9z M414.7,241.9c0.2,0.7-0.1,1.6,0.8,1.7
		c0.4,0.1,1.1-0.4,1-0.9C416.3,241.9,415.4,242.1,414.7,241.9z M229.1,225.2c0.5-0.5,0.6-1.1,1.4-1.5c-0.9-0.1-1.6-0.4-2,0.1
		C228.3,224.2,228.7,224.8,229.1,225.2z M73.7,239.5c-0.6,0.2-1.3,0.3-1.3,1.1c0.1,0.6,0.5,1.1,1.3,1.2
		C73.9,241,74,240.3,73.7,239.5z M436.4,223.7c-0.7-0.1-1.3-0.5-1.8,0.2c-0.1,0.2,0.2,0.9,0.3,1
		C435.9,225.1,435.8,223.9,436.4,223.7z M397.1,153.6c-0.7-0.4-1.2-0.6-1.7-0.9C395.3,154.5,395.3,154.5,397.1,153.6z M215.5,258.8
		c-0.7-0.9-1.2-1.5-2-1.3c-0.4,0.1-0.6,0.7-0.4,1C213.7,259.1,214.5,258.7,215.5,258.8z M423.2,274.2c-0.2-0.7-0.8-0.4-1.2-0.4
		c-0.4,0-0.7,0.1-0.7,0.5c0,0.8,0.7,0.6,1.1,0.6C422.9,274.9,423.2,274.8,423.2,274.2z M422.9,187c0,0.9,0.4,1.5,1.1,1.6
		c0.4,0,0.7-0.8,0.6-1.2C424.4,186.7,423.6,187.2,422.9,187z M439.3,200.4c-0.7-0.1-1.4-0.2-2.2-0.3c0.3,0.9,0.9,1.3,1.6,1.3
		C439.3,201.4,439.2,200.9,439.3,200.4z M421.7,258.7c-0.7-0.8-1.2-1.5-2.2-1.3c-0.5,0.1-0.5,0.8-0.3,1
		C419.9,259.1,420.7,258.7,421.7,258.7z M185.8,174.8c0.7,0.6,1.3,0.9,2,0.4c0.2-0.1,0.4-0.6,0.2-0.7
		C187.3,174.2,186.6,174.3,185.8,174.8z M183,261c-0.7-0.2-0.5,0.4-0.5,0.7c0,0.3-0.2,0.9,0.5,0.8c0.6,0,0.9-0.5,1-1
		C184.1,260.8,183.3,261.3,183,261z M393.8,218.1c0.4-0.7,1.3-0.9,0.7-1.7c-0.2-0.3-0.9-0.7-1.1-0.4
		C392.8,216.6,393.5,217.2,393.8,218.1z M216.7,186.9c0.3,1,0.5,1.6,1.3,1.6c0.4,0,0.7-0.7,0.6-1
		C218.3,186.6,217.5,187.3,216.7,186.9z M417.3,245.8c-0.8,0.1-1.5,0.2-2.2,0.3C416,247.4,416.7,247,417.3,245.8z M208.8,246.2
		c1.5,1,1.5,1,2.2-0.3C210.3,246,209.6,246.1,208.8,246.2z M187.6,217.9c0.6-0.4,1.2-0.8,0.7-1.6c-0.2-0.3-0.8-0.6-1-0.4
		C186.7,216.6,187.4,217.2,187.6,217.9z M207.6,209.7c1,0.1,1.9,0.5,2.8-0.2C209.5,209.3,208.6,209.1,207.6,209.7z M399,178.7
		c-0.1-0.4,0.1-1-0.6-0.9c-0.6,0-0.5,0.5-0.5,0.9c0,0.4-0.2,1,0.5,1C399.1,179.7,398.9,179.1,399,178.7z M191.8,178.7
		c0.1,0.4-0.1,1,0.6,0.9c0.6,0,0.5-0.5,0.5-0.8c0-0.4,0.2-1-0.5-1C191.6,177.8,191.8,178.4,191.8,178.7z M392.1,174.8
		c0.6,0.8,1.2,0.8,1.9,0.5c0.1-0.1,0.2-0.7,0.2-0.7C393.4,174.3,392.8,174.3,392.1,174.8z M224.5,224.2c1.2,0.5,2.1,0.5,3.3,0
		C226.6,223.8,225.7,223.8,224.5,224.2z M413.7,209.7c1,0.3,1.9,0.5,3.2-0.1C415.6,209.2,414.7,209.2,413.7,209.7z M189.2,152.7
		c-0.1,0.5-0.3,1.1,0.1,1.4c0.5,0.3,1,0,1.4-0.5C190.3,153.2,189.8,152.9,189.2,152.7z M389.1,261c-0.6-0.1-0.4,0.4-0.4,0.7
		c0,0.3-0.2,0.9,0.4,0.8c0.5,0,0.8-0.3,0.9-0.8C390.2,260.9,389.5,261.2,389.1,261z M369.6,76.7c1.1,0.8,1.9,0.4,2.8,0.2
		C371.6,76.3,370.7,76.4,369.6,76.7z M433.5,224.2c-0.8-0.3-1.7-0.6-2.9,0.3C431.8,224.6,432.6,224.7,433.5,224.2z M415.7,238.9
		c-0.8-0.1-0.8,0.3-0.8,0.7c0,0.4-0.2,0.8,0.4,1c0.6,0.1,0.7-0.3,0.6-0.7C415.9,239.5,416.1,239,415.7,238.9z M209.2,238.9
		c-0.6,0-0.5,0.5-0.5,0.8c0,0.3-0.2,0.8,0.4,0.9c0.7,0.1,0.6-0.5,0.6-0.9C209.8,239.3,209.8,238.9,209.2,238.9z"/>
	<path class="st0" d="M118.5,363.3c12.2,0,24.4,0,36.7,0c11,0,21.9-0.2,32.9-0.3c3.1,0,5.7,1.2,7.9,3.4c2.3,2.3,2.5,5.3,2.1,8.4
		c-1.2,9.6-1.1,19.1,2.1,28.3c4.1,11.5,12.3,18,24.5,19.1c15.4,1.4,26.1-5.7,33.3-18.8c4.2-7.6,6.2-16,7.2-24.5
		c0.8-6.7,3.8-11.4,10-14.1c1.6-0.7,3.4-1,5.2-1.1c12.8-0.6,25.6-1.2,38.4-1.7c14.1-0.6,28.2-1.3,42.2-1.9c7.2-0.3,12,3.3,13.8,10.5
		c1.2,4.6,1,9.3-0.3,13.9c-6.1,23.3-16.8,44.2-33.3,61.8c-23,24.5-51,40.2-83.9,47.3c-11.9,2.6-23.9,4-36,3.9
		c-25.1-0.4-48.9-6.1-70.1-20c-26.9-17.6-44.2-42.1-52-73.2c-2-8.1-3.5-16.2-3.8-24.5c-0.2-5.8,1.2-11,6.9-14c2.5-1.3,5.2-1.8,8-1.9
		c2.8-0.1,5.5,0,8.3,0C118.5,363.6,118.5,363.5,118.5,363.3z M306,417.5c0,0,0.1,0,0.1,0C306.1,417.5,306,417.5,306,417.5
		c0.1-1.2-0.5-2.3-0.8-3.5c-0.2-1-0.4-2.2-1-3c-0.7-1-1.9,0.4-2.9,0c-0.2-0.6,0.8-0.9,0.5-1.6c-0.9,0-1.4,0.4-1.9,1.1
		c-1,1.3,0.2,2.4,0.2,3.6c0,1,0.5,1.9,1.8,1.9C303.4,416.1,304.7,416.8,306,417.5z M186,431.4c-3.8,0.1-7.9,2.5-9.7,5.5
		c-0.4,0.6-0.6,1.3-0.4,2c1.4,3.8,6,6.5,9.2,5.4c3.1-1.1,6.9-1.2,7.8-5.4c0-0.2,0.2-0.3,0.3-0.4c1.3-1.2,1.6-2.9,2.2-4.4
		c0.4-1.1,0.1-1.5-1-1.3c-0.2,0-0.4,0-0.7,0c-2.3-0.2-4.7,0.8-6.7-1.3C186.7,431.3,186.1,431.4,186,431.4z M152.7,399.2
		c1-0.7,1.9-1.3,3-1.4c0.6,0,1-0.5,1.4-0.8c1.1-0.8,1.2-2.1,1.3-3.3c0.1-0.8-1.2-0.8-1.8-1.1c-2.5-1.1-5-2.2-6.6-4.7
		c-0.5-0.8-1.4-1.1-2.4-1.1c-2.3,0.1-4.9,1.9-5.8,4.1c-0.4,0.9,0,1,0.8,1.1C147.2,392.7,150.7,394.9,152.7,399.2z M303.9,432
		c-1.2-1.4-2.6-2.6-3-4.1c-0.9-2.9-3-3.6-5.5-3.8c-1.8-0.1-2.5,0.7-1.8,2.3c1,2.5,2.2,5.1,3.2,7.6c0.5,1.2,1.2,2.2,2.2,3
		C301.4,432.2,301.4,432.2,303.9,432z M259.4,448.8c-1.5,0-3.3,1.6-3.2,2.9c0.2,4,3.7,5.8,7.1,3.8c0.7-0.4,0.8-0.8,0.6-1.5
		c-0.5-2.4-2.9-3.2-4-5.1C259.8,448.8,259.4,448.8,259.4,448.8z M146.8,403.8c-0.1,0.9,0,1.6,0.7,2.1c1.4,1.1,2.8,1,4.4,0.5
		c1.3-0.4,1.7-1.4,1.8-2.7c0.1-0.6,0.2-1.2,0.3-1.8c0.2-1.4-0.5-2-1.9-1.6c-1.4,0.5-2.7,1-4,1.5C147,402.3,146.5,402.8,146.8,403.8z
		 M281.8,435.3c0-1.9-0.6-3.5-1.9-4.8c-0.6-0.6-1.3-0.9-2.1-0.7c-0.7,0.3-0.6,1.1-0.7,1.7c-0.2,1.6,0.6,3.2,0.3,4.8
		c-0.3,1.6,0.5,2.2,2.1,2.4c1.8,0.2,2-0.9,2.2-2.1C281.8,436.2,281.8,435.8,281.8,435.3z M209,452.7c0.7-0.1,1.9,0.6,1.7-1
		c-0.1-1.2,0.6-2.8-1.7-2.7c-1.6,0.1-3.3-0.3-4.9-0.4c-0.6,0-1.7-0.7-1.5,0.6c0.1,1-1.1,2.7,1.1,3
		C205.4,452.4,207.1,452.5,209,452.7z M301,406.1c1,0,1.8,0,2.6-0.3c1-0.3,1.3-0.7,1.1-1.7c-0.4-2.4-0.4-2.4-2.7-1.5
		c-0.4,0.2-0.9,0.3-1.2,0.5c-0.8,0.7-1.4,1.7-1.4,2.7C299.4,406.4,300.5,405.9,301,406.1z M318,404.5c0-1.5-0.6-2-1.7-1.5
		c-1,0.4-1.9,0.8-2.9,1.2c-0.9,0.4-1.1,1.5-0.4,2.2c0.5,0.5,0.9,0,1.3-0.2C315.6,405.6,317.1,405.4,318,404.5z M166.9,415.6
		c0.2,1.1,0.3,2.5,1.4,2.7c0.7,0.2,1.3-1.1,1.2-2c-0.1-0.9-0.3-2-1.5-2C167.2,414.3,166.7,414.7,166.9,415.6z M133.7,426.7
		c1,0.2,1.8,0,2.6-0.6c0.5-0.5,0.6-1.1,0.2-1.6c-0.5-0.7-0.8,0.1-1.2,0.3C134.5,425.1,133.8,425.7,133.7,426.7z"/>
</g>
</svg>
