<?xml version="1.0" encoding="utf-8"?>
<!-- Generator: Adobe Illustrator 24.1.2, SVG Export Plug-In . SVG Version: 6.00 Build 0)  -->
<svg version="1.1" xmlns="http://www.w3.org/2000/svg" xmlns:xlink="http://www.w3.org/1999/xlink" x="0px" y="0px"
	 viewBox="0 0 500 500" enable-background="new 0 0 500 500" xml:space="preserve">
<g id="Capa_1">
	<g display="none">
		
			<radialGradient id="SVGID_1_" cx="281.0579" cy="567.811" r="864.3232" gradientTransform="matrix(0.567 0 0 0.85 107.6622 30.3666)" gradientUnits="userSpaceOnUse">
			<stop  offset="0" style="stop-color:#238187"/>
			<stop  offset="5.482232e-02" style="stop-color:#207379"/>
			<stop  offset="0.2013" style="stop-color:#1A5359"/>
			<stop  offset="0.3529" style="stop-color:#153A3F"/>
			<stop  offset="0.5099" style="stop-color:#12282D"/>
			<stop  offset="0.6755" style="stop-color:#101D22"/>
			<stop  offset="0.8641" style="stop-color:#0F1A1F"/>
		</radialGradient>
		<rect display="inline" fill="url(#SVGID_1_)" width="500" height="500"/>
	</g>
	<g id="LOGO_1_">
		<g>
			<g id="logito_8_">
				<g>
					<g>
						<radialGradient id="SVGID_2_" cx="258.9563" cy="459.348" r="258.6208" gradientUnits="userSpaceOnUse">
							<stop  offset="0" style="stop-color:#238187"/>
							<stop  offset="5.482232e-02" style="stop-color:#207379"/>
							<stop  offset="0.2013" style="stop-color:#1A5359"/>
							<stop  offset="0.3529" style="stop-color:#153A3F"/>
							<stop  offset="0.5099" style="stop-color:#12282D"/>
							<stop  offset="0.6755" style="stop-color:#101D22"/>
							<stop  offset="0.8641" style="stop-color:#0F1A1F"/>
						</radialGradient>
						<path fill="url(#SVGID_2_)" d="M287.2,449l-10.3-68.4h-55L202.2,449L163,414.5l58.2-206.2h66.9l46.8,206.2L287.2,449z
							 M232.1,328.8h36.3l-15.4-94L232.1,328.8z"/>
					</g>
					<g>
						<radialGradient id="SVGID_3_" cx="258.9563" cy="459.348" r="258.6208" gradientUnits="userSpaceOnUse">
							<stop  offset="0" style="stop-color:#238187"/>
							<stop  offset="5.482232e-02" style="stop-color:#207379"/>
							<stop  offset="0.2013" style="stop-color:#1A5359"/>
							<stop  offset="0.3529" style="stop-color:#153A3F"/>
							<stop  offset="0.5099" style="stop-color:#12282D"/>
							<stop  offset="0.6755" style="stop-color:#101D22"/>
							<stop  offset="0.8641" style="stop-color:#0F1A1F"/>
						</radialGradient>
						<path fill="url(#SVGID_3_)" d="M287.2,449l-10.3-68.4h-55L202.2,449L163,414.5l58.2-206.2h66.9l46.8,206.2L287.2,449z
							 M232.1,328.8h36.3l-15.4-94L232.1,328.8z"/>
					</g>
					<g>
						<radialGradient id="SVGID_4_" cx="258.9563" cy="459.348" r="258.6208" gradientUnits="userSpaceOnUse">
							<stop  offset="0" style="stop-color:#238187"/>
							<stop  offset="5.482232e-02" style="stop-color:#207379"/>
							<stop  offset="0.2013" style="stop-color:#1A5359"/>
							<stop  offset="0.3529" style="stop-color:#153A3F"/>
							<stop  offset="0.5099" style="stop-color:#12282D"/>
							<stop  offset="0.6755" style="stop-color:#101D22"/>
							<stop  offset="0.8641" style="stop-color:#0F1A1F"/>
						</radialGradient>
						<path fill="url(#SVGID_4_)" d="M287.2,449l-10.3-68.4h-55L202.2,449L163,414.5l58.2-206.2h66.9l46.8,206.2L287.2,449z
							 M232.1,328.8h36.3l-15.4-94L232.1,328.8z"/>
					</g>
				</g>
				<radialGradient id="SVGID_5_" cx="258.9563" cy="459.348" r="258.6208" gradientUnits="userSpaceOnUse">
					<stop  offset="0" style="stop-color:#238187"/>
					<stop  offset="5.482232e-02" style="stop-color:#207379"/>
					<stop  offset="0.2013" style="stop-color:#1A5359"/>
					<stop  offset="0.3529" style="stop-color:#153A3F"/>
					<stop  offset="0.5099" style="stop-color:#12282D"/>
					<stop  offset="0.6755" style="stop-color:#101D22"/>
					<stop  offset="0.8641" style="stop-color:#0F1A1F"/>
				</radialGradient>
				<path fill="url(#SVGID_5_)" d="M118.4,164.4h58.7l18.5,130.3l31.1-130.3h58.7l22.7,132.3l26.2-132.3h47.2l-54.2,216.2h-50.5
					L253,234.8l-31.1,145.8h-49L118.4,164.4z"/>
				<radialGradient id="SVGID_6_" cx="258.9563" cy="459.348" r="258.6208" gradientUnits="userSpaceOnUse">
					<stop  offset="0" style="stop-color:#238187"/>
					<stop  offset="5.482232e-02" style="stop-color:#207379"/>
					<stop  offset="0.2013" style="stop-color:#1A5359"/>
					<stop  offset="0.3529" style="stop-color:#153A3F"/>
					<stop  offset="0.5099" style="stop-color:#12282D"/>
					<stop  offset="0.6755" style="stop-color:#101D22"/>
					<stop  offset="0.8641" style="stop-color:#0F1A1F"/>
				</radialGradient>
				<circle fill="url(#SVGID_6_)" cx="255.2" cy="91.4" r="40.4"/>
			</g>
		</g>
		<g>
			<g id="logito_7_">
				<g>
					<g>
						<path fill="#00FEFF" d="M287.2,449l-10.3-68.4h-55L202.2,449L163,414.5l58.2-206.2h66.9l46.8,206.2L287.2,449z M232.1,328.8
							h36.3l-15.4-94L232.1,328.8z"/>
					</g>
				</g>
				<path fill="#FFFFFF" d="M118.4,164.4h58.7l18.5,130.3l31.1-130.3h58.7l22.7,132.3l26.2-132.3h47.2l-54.2,216.2h-50.5L253,234.8
					l-31.1,145.8h-49L118.4,164.4z"/>
				<circle fill="#00FEFF" cx="255.2" cy="91.4" r="40.4"/>
			</g>
		</g>
	</g>
</g>
<g id="Capa_2">
</g>
</svg>
