<?xml version="1.0" encoding="iso-8859-1"?>
<!-- Generator: Adobe Illustrator 16.0.0, SVG Export Plug-In . SVG Version: 6.00 Build 0)  -->
<!DOCTYPE svg PUBLIC "-//W3C//DTD SVG 1.1//EN" "http://www.w3.org/Graphics/SVG/1.1/DTD/svg11.dtd">
<svg version="1.1" id="Capa_1" xmlns="http://www.w3.org/2000/svg" xmlns:xlink="http://www.w3.org/1999/xlink" x="0px" y="0px"
	 width="195.101px" height="195.101px" viewBox="0 0 195.101 195.101" style="enable-background:new 0 0 195.101 195.101;"
	 xml:space="preserve">
<g>
	<g>
		<path fill="#ffffff" d="M194.756,60.073c-3.541-5.224-11.43-7.268-17.141-9.202c-8.818-2.984-17.994-4.918-27.023-7.138
			c-10.543-2.592-20.478-6.311-30.453-10.589c-9.009-3.863-18.331-8.424-28.183-9.376c-0.34-0.033-0.629,0.008-0.881,0.094
			c-13.782,2.253-26.023,10.112-38.317,16.274C36.251,48.411,18.013,52.707,1.137,60.083c-1.093,0.478-1.231,1.485-0.84,2.327
			c-0.605,0.739-0.213,1.911,0.525,2.399c4.335,2.863,10.719,4.113,15.485,6.618c6.875,3.612,13.497,7.679,20.344,11.34
			C55.18,92.673,76.145,96.94,94.15,108.042c1.59,0.981,3.082,0.004,3.578-1.346c5.353,0.577,9.299-2.214,13.997-5.162
			c8.653-5.432,19.158-8.512,28.584-12.417c7.581-3.141,14.986-6.665,22.385-10.203c4.873,19.234,3.535,39.551,2.491,59.38
			c-12.711,3.704-17.3,26.361-3.434,31.685c20.114,7.722,15.26-19.429,9.077-29.025c-0.057-0.088-0.124-0.155-0.185-0.233
			c0.003-0.037,0.013-0.07,0.015-0.108c0.365-7.256,4.47-53.104-3.309-63.917c8.227-3.92,16.486-7.766,25.012-11.023
			c1.312-0.501,1.886-1.637,1.895-2.753C195.046,62.223,195.425,61.061,194.756,60.073z M129.618,44.546
			c-2.734-0.995-5.463-2.001-8.194-3.001c-0.594-0.248-1.182-0.51-1.771-0.766C123.026,41.792,126.35,43.116,129.618,44.546z
			 M104.774,99.237c0.753-0.48,1.491-0.993,2.219-1.529c0.382-0.122,0.767-0.234,1.146-0.365c-1.113,0.706-2.227,1.452-3.362,2.18
			C104.779,99.426,104.78,99.331,104.774,99.237z"/>
		<path fill="#ffffff" d="M146.283,126.374c-0.34-5.595-0.595-11.195-0.818-16.796c-0.16-4.049,0.764-9.273-1.331-12.877
			c-0.383-0.66-1.08-0.995-1.776-0.996c-0.788-0.434-1.73-0.497-2.588,0.15c-11.934,8.991-28.237,18.01-43.299,19.47
			c-8.666,0.84-19.022-3.729-27.001-6.572c-10.195-3.634-19.884-8.433-29.732-12.878c-0.829-0.374-1.601-0.257-2.184,0.115
			c-0.73,0.254-1.359,0.858-1.401,1.745c-0.545,11.42,1.405,22.757,0.488,34.182c-0.505,6.292-3.6,17.987,1.663,22.948
			c0.452,0.426,0.969,0.592,1.471,0.591c5.113,2.929,13.308,2.093,18.632,2.089c10.024-0.009,20.069-0.94,30.08-1.411
			c9.625-0.451,19.223-1.274,28.859-1.553c8.201-0.237,15.987,1.064,24.019,1.666c0.702,0.827,2.191,0.933,3.075,0.006
			c0.932-0.354,1.467-1.32,1.486-2.302C150.204,145.747,146.817,135.152,146.283,126.374z"/>
	</g>
</g>
</svg>
