<?xml version="1.0" encoding="iso-8859-1"?>
<!-- Generator: Adobe Illustrator 16.0.0, SVG Export Plug-In . SVG Version: 6.00 Build 0)  -->
<!DOCTYPE svg PUBLIC "-//W3C//DTD SVG 1.1//EN" "http://www.w3.org/Graphics/SVG/1.1/DTD/svg11.dtd">
<svg version="1.1" id="Capa_1" xmlns="http://www.w3.org/2000/svg" xmlns:xlink="http://www.w3.org/1999/xlink" x="0px" y="0px"
	 width="560.192px" height="560.192px" viewBox="0 0 560.192 560.192" style="enable-background:new 0 0 560.192 560.192;"
	 xml:space="preserve">
<g>
	<path d="M435.831,28.076c0.612-7.956-6.12-12.852-13.464-12.852c-1.836-1.836-3.672-3.06-6.732-4.284
		C280.995-30.676,224.69,51.943,203.883,165.775c-17.748,0.612-35.496,2.448-48.96,7.956c-6.732-1.836-15.912,0.612-17.748,8.568
		c-7.344,29.376-12.24,64.26-12.852,94.248c0,3.672,1.836,6.733,4.896,8.569c-2.448,3.06-1.224,7.956,3.06,9.792
		c19.584,7.956,39.78,11.628,60.588,13.464c0,88.128,8.568,174.42,11.016,225.828c0.612,6.12,4.284,9.792,9.18,11.016
		c0,1.836,1.224,3.672,2.448,5.508c11.628,10.404,30.6,9.792,45.288,9.181c17.136-0.612,35.496-2.448,51.408-9.181
		c6.732-3.06,7.956-9.18,6.12-14.688c29.376-31.824,8.568-164.628,7.956-190.332c-0.612-11.016-1.224-25.092-1.836-41.616
		c28.151-2.448,55.691-3.672,82.008-0.612c11.628,1.225,15.912-12.852,11.016-21.42c2.448-15.912,1.837-33.048,2.448-48.96
		c0.612-12.24,3.672-30.6-1.224-42.84c1.836-3.06,2.448-7.956,0.612-11.016c-12.853-17.136-47.124-18.972-80.784-17.136
		c12.239-31.212,34.884-50.796,74.664-42.228c12.239,2.448,18.972-7.956,16.523-16.524
		C432.771,78.259,433.995,52.556,435.831,28.076z"/>
</g>
</svg>
