<?xml version="1.0" encoding="iso-8859-1"?>
<svg version="1.1" id="Capa_1" xmlns="http://www.w3.org/2000/svg" xmlns:xlink="http://www.w3.org/1999/xlink" x="0px" y="0px"
            viewBox="0 0 1280 721" style="enable-background:new 0 0 1280 721;" xml:space="preserve">
       <style type="text/css">
           .st0{fill:#914DDB;}
           .st1{fill:#FEFEFE;}
           .st2{fill:#DB6437;}
           .st3{opacity:0.5;}
           .st4{fill:#67B5B5;}
           .st5{fill:#EFC350;}
       </style>
       <g>
           <path class="st0" d="M527.8,634.8c22.7,31.3,49.2,60,78.8,85.7H0V0h606.6c-29.7,25.7-56.2,54.4-78.8,85.6
               c-57.3,78.6-90.6,173-90.6,274.6C437.2,461.8,470.5,556.3,527.8,634.8z"/>
           <path class="st1" d="M510.2,360.3c0-141.9,59.6-269.9,155.3-360.2H563.7c-80.1,98.2-128.2,223.7-128.2,360.2
               c0,136.6,48.1,262.1,128.3,360.3h101.7C569.8,630.2,510.2,502.2,510.2,360.3z"/>
           <g>
               <path class="st2" d="M521.1,138.6c-1.4,3.4-1.4,7.1,1,10c2.8,3.4,8.4,3.7,12.4,3.7c7.7,0,15.5-1.7,23.2-4.3
                   c0.2,0.9,0.3,1.8,0.5,2.7c1.5,7.6,3.7,15.6,7.9,22.2c2.2,3.5,5.8,7.1,10.3,6.6c4.8-0.6,7.9-5.4,10-9.3c3.7-6.9,5.5-14.9,6.9-22.6
                   c1.4,0.5,2.8,0.9,4.2,1.3c7.5,2.2,15.8,4.1,23.6,3c4.2-0.5,8.4-2.5,9.5-6.9c1.2-4.9-2.3-10.1-5.1-13.8c-3.7-5-8.2-9.5-13.1-13.7
                   c6-4.9,11.8-10.5,15.8-17.2c2.2-3.6,3.7-8.4,1.4-12.3c-2.5-4.3-8.8-4.7-13.2-4.7c-7.8,0-15.7,2.1-23.1,4.6c-0.5-2.5-1-5.1-1.6-7.6
                   c-1.6-6.7-3.8-14.2-8.3-19.6c-2.4-3-5.6-5.3-9.7-4.5c-4.4,0.8-7.3,5.6-9.2,9.1c-3.6,6.8-5.9,14.5-7.2,22.5
                   c-3.5-1.1-7.1-2.1-10.7-2.9c-6.4-1.4-13.9-2.6-20.3-0.5c-10,3.3-5.3,13.9-0.9,19.9c3.7,5,8.3,9.5,13.2,13.6
                   c-1.7,1.4-3.4,2.9-5.1,4.4C528.6,127,523.7,132.3,521.1,138.6z M558,131.3c2.6,1.5,5.2,3,7.8,4.4c2.3,1.2,4.5,2.4,6.8,3.5
                   c-4.3,2-8.7,3.8-13.2,5.3C558.8,140.1,558.3,135.7,558,131.3z M589.1,155.7c-1.7,6.8-4.1,14.9-9.5,19.7c-4.9,4.4-9.7-0.7-12.2-5
                   c-3.8-6.5-5.7-14.2-7.1-21.5c-0.1-0.5-0.2-1.1-0.3-1.7c5.3-1.9,10.6-4.2,15.6-6.7c5,2.4,10.2,4.5,15.4,6.3
                   C590.5,149.8,589.8,152.8,589.1,155.7z M591.4,144.5c-4.5-1.6-8.8-3.3-13.1-5.3c2.3-1.2,4.6-2.4,6.8-3.5c2.7-1.5,5.4-3,8-4.6
                   C592.7,135.6,592.2,140.1,591.4,144.5z M616.5,124.9c4.8,4.6,10.5,10.4,11.8,17.2c1.3,6.8-7.1,7.8-11.9,7.8
                   c-7.4,0-14.9-2.1-21.9-4.3c-0.3-0.1-0.5-0.2-0.8-0.3c0.8-5.2,1.4-10.4,1.7-15.6c5.1-3.2,10.1-6.6,14.8-10.4
                   C612.3,121.1,614.4,123,616.5,124.9z M595.6,111.9c0-1.1-0.1-2.2-0.1-3.4c4.5,2.9,8.9,6.1,13,9.4c-4.1,3.2-8.5,6.2-13,9
                   C595.7,121.9,595.8,116.9,595.6,111.9z M606,87c5.9-1.2,15.6-3.1,20.7,1.4c4.6,4.1-1,11.8-3.6,15.2c-3.6,4.6-7.8,8.8-12.4,12.6
                   c-4.8-3.9-10-7.4-15.3-10.5c-0.3-5.1-0.9-10.3-1.7-15.4C597.7,89,601.9,87.9,606,87z M593,104.3c-5-2.9-10.1-5.6-15.1-8
                   c4.4-2,8.9-3.8,13.5-5.3C592.1,95.4,592.7,99.9,593,104.3z M561,83.3c1.6-7.5,3.9-15.9,9-21.8c11.5-13.2,19.4,19.1,20.6,25.3
                   c0.1,0.7,0.2,1.3,0.4,2c-0.3,0.1-0.6,0.2-0.9,0.3c-5,1.8-9.9,3.8-14.7,6c-5-2.4-10.2-4.5-15.5-6.4C560.3,87,560.6,85.1,561,83.3z
                    M559.5,91.2c4.5,1.5,8.9,3.3,13.3,5.2c-5,2.4-9.9,5.1-14.6,7.9c-0.1,0-0.1,0.1-0.2,0.1C558.4,100,558.9,95.6,559.5,91.2z
                    M557.9,107.1c5.6-3.5,11.5-6.7,17.5-9.6c6.1,2.8,12.1,6,17.9,9.6c0.5,7,0.5,14.1,0,21.1c-3.1,1.9-6.3,3.6-9.4,5.3
                   c-2.8,1.5-5.6,2.9-8.4,4.3c-2.8-1.4-5.7-2.8-8.4-4.3c-3.1-1.7-6.2-3.4-9.2-5.3c-0.2-3.5-0.3-7-0.3-10.5
                   C557.6,114.2,557.7,110.7,557.9,107.1z M538.5,114.5c-5.8-4.9-12.2-10.9-15.1-18.1c-7.1-17.3,26.8-8.3,33-6.3
                   c0.2,0.1,0.3,0.1,0.5,0.2c-0.8,5.2-1.2,10.5-1.5,15.7c-5.1,3.1-10,6.6-14.7,10.3C540,115.7,539.3,115.1,538.5,114.5z M555.4,126.8
                   c-4.4-2.8-8.7-5.8-12.8-9c0.5-0.4,1-0.8,1.3-1c3.7-2.8,7.5-5.5,11.4-8.1c-0.1,3.1-0.1,6.1-0.2,9.1
                   C555.2,120.8,555.3,123.8,555.4,126.8z M540.6,119.6c4.8,3.8,9.9,7.2,15,10.3c0.3,5.2,0.9,10.3,1.7,15.4c-2.2,0.7-4.5,1.5-6.8,2.1
                   c-7.3,2-16.1,4-23.5,1.6C513.7,144.4,532,126.8,540.6,119.6z"/>
               <circle class="st2" cx="576.7" cy="117.8" r="4.5"/>
               <circle class="st2" cx="608.5" cy="85.6" r="3.2"/>
               <circle class="st2" cx="623" cy="105.6" r="3.2"/>
           </g>
           <path class="st2" d="M570.1,581.5c-9.6-9.5-19.1-19.1-28.5-28.8c-6.9-7.1-12.6-16.1-21.7-20.5c-0.3-1-1.5-1.7-2.5-0.8
               c-0.1,0-0.1,0.1-0.2,0.1c-0.1,0.1-0.2,0.2-0.3,0.3c-6.7,6-15.3,10.9-19.2,19.3c-0.3,0.7-0.1,1.3,0.3,1.8c-0.2,0.5-0.1,1,0.3,1.5
               c17.7,18.6,35.2,37.4,52.8,56c9,9.5,18,18.9,27.1,28.3c8.6,8.9,18,17,26.7,25.9c0.1,0.1,0.2,0.2,0.3,0.2c0.1,0.2,0.3,0.4,0.5,0.5
               c5.8,3.8,12.6,5,18.7,8.1c6.9,3.4,13.2,7.8,20.5,10.6c1.2,0.5,2-0.7,1.8-1.8c0.1-0.3,0.2-0.6,0.1-1c-3.4-14.2-13.2-25.6-17.9-39.3
               c-0.1-0.4-0.3-0.6-0.6-0.8c-0.1-0.2-0.3-0.4-0.5-0.6c-0.1-0.1-0.1-0.2-0.2-0.3c-9.2-9.8-17.9-20-27.3-29.5
               C590.4,600.8,580,591.4,570.1,581.5z M506.7,544.3c2-1.9,4.3-3.7,6.5-5.4c18,18.9,36.5,37.2,54.5,56c9.1,9.5,18.1,19.2,26.8,29.1
               c7,8,15.7,14.2,23.1,21.7c-1.8-0.3-3.5,0-5.2,1.5c-1.4,1.3-1.7,2.9-1.4,4.5c-7.1-8-13.8-16.4-21.3-24.1
               c-9.2-9.6-18.9-18.9-28.3-28.2c-9.1-9.1-17.9-18.2-27.6-26.7C523.9,564,513.8,555.4,506.7,544.3z M581.9,638
               c-9.1-9.4-18.1-18.8-27.1-28.3c-18.1-19.1-36.1-38.3-54.2-57.4c0,0,0,0,0,0c1-2.2,2.4-4.1,4-5.8c6.6,10,15.3,18,24.2,25.9
               c9.6,8.5,18.6,17.3,27.7,26.4c9.4,9.5,19.1,18.7,28.4,28.2c8.2,8.4,15.5,17.5,23.3,26.2c-0.7,0-1.4,0.1-2.2,0.3
               c-2.6,0.7-3.3,2.7-3.1,4.8C596,651.4,588.7,645,581.9,638z M643.4,680.1c-2.9-1.3-5.7-2.8-8.5-4.4c1.5-1.9,3.2-3.5,4.9-5.2
               C641.3,673.6,642.5,676.8,643.4,680.1z M638.5,667.7c-0.1,0.1-0.3,0.2-0.4,0.3c-2.1,2-4,4-5.8,6.2c-2.1-1.2-4.1-2.3-6.2-3.4
               c-6-3.1-12.7-4.2-18.4-7.9c0.1-0.3,0-0.7-0.2-1c-0.7-0.9-1.2-1.9-1.5-3c-1.8-5.2,5.4-1.9,6.1-1.4c0.1,0.1,0.2,0.1,0.3,0.2
               c0.2,0.2,0.3,0.3,0.5,0.5c0.2,0.3,0.5,0.4,0.8,0.4c1.1,1,2.2,2,3.4,2.9c0,0,0,0,0,0c0,0,0,0,0,0c0.1,0.1,0.2,0.2,0.3,0.3
               c1.4,1.1,3-1.1,1.9-2.3c-2.2-2.4-5-5.5-5.1-9c-0.1-4.6,6.4-0.3,7.4,0.4c1.6,1.1,3,2.4,4.5,3.6c1.4,1,3-1.1,1.9-2.3
               c-1.1-1.2-2.2-2.4-3.1-3.8c-0.9-1.4-2.2-7.6,1.5-5.3C629.2,651.7,634.3,659.5,638.5,667.7z M623,639.7c-0.8,0.4-1.5,1.2-1.8,2.5
               c-0.2,0.9-0.3,1.7-0.4,2.5c-7.6-8-16.8-14.4-24.2-22.8c-8.7-9.9-17.7-19.5-26.8-29.1c-17.9-18.8-36.4-37-54.3-55.8
               c0.9-0.7,1.8-1.5,2.7-2.2c10.2,4.6,17.3,16.1,24.9,23.9c9.1,9.2,18.2,18.5,27.4,27.6c9.5,9.4,19.4,18.4,28.8,27.9
               C607.6,622.4,615.1,631.2,623,639.7z"/>
           <g>
               <g>
                   <g class="st3">
                       <g>
                           <path class="st4" d="M407.9,229.1c-14.4,0-14.4-22.4,0-22.4C422.3,206.7,422.3,229.1,407.9,229.1z"/>
                           <path class="st4" d="M820.4,520.2c-14.4,0-14.4-22.4,0-22.4C834.8,497.8,834.8,520.2,820.4,520.2z"/>
                           <path class="st4" d="M1079.2,211.5c-14.4,0-14.4-22.4,0-22.4C1093.6,189.1,1093.6,211.5,1079.2,211.5z"/>
                           <path class="st4" d="M1102.8,472.2c-14.4,0-14.4-22.4,0-22.4C1117.2,449.8,1117.2,472.2,1102.8,472.2z"/>
                           <path class="st4" d="M1165.4,697.5c-14.4,0-14.4-22.4,0-22.4C1179.8,675.1,1179.8,697.5,1165.4,697.5z"/>
                           <path class="st4" d="M1246.3,354.4c-14.4,0-14.4-22.4,0-22.4C1260.7,332,1260.8,354.4,1246.3,354.4z"/>
                       </g>
                   </g>
                   <g>
                       <path class="st2" d="M525.6,188.2c-8.4,0-8.4-13.1,0-13.1C534,175.1,534,188.2,525.6,188.2z"/>
                       <path class="st2" d="M978.7,677.3c-8.4,0-8.4-13.1,0-13.1C987.1,664.3,987.1,677.3,978.7,677.3z"/>
                       <path class="st2" d="M1179.1,282.4c-8.4,0-8.4-13.1,0-13.1C1187.6,269.3,1187.6,282.4,1179.1,282.4z"/>
                       <path class="st2" d="M1219.2,583.1c-8.4,0-8.4-13.1,0-13.1C1227.6,570.1,1227.7,583.1,1219.2,583.1z"/>
                   </g>
               </g>
               <g>
                   <g>
                       <path class="st5" d="M457.7,109.6c-6,0-6-9.3,0-9.3C463.7,100.2,463.7,109.6,457.7,109.6z"/>
                       <path class="st5" d="M863.8,28.4c-6,0-6-9.3,0-9.3C869.8,19,869.8,28.4,863.8,28.4z"/>
                       <path class="st5" d="M905.2,612.2c-6,0-6-9.3,0-9.3C911.2,602.9,911.2,612.2,905.2,612.2z"/>
                       <path class="st5" d="M1096.7,716.4c-6,0-6-9.3,0-9.3C1102.7,707.1,1102.7,716.4,1096.7,716.4z"/>
                       <path class="st5" d="M1232.1,484.2c-6,0-6-9.3,0-9.3C1238.1,474.9,1238.1,484.2,1232.1,484.2z"/>
                       <path class="st5" d="M1087.2,354.8c-6,0-6-9.3,0-9.3C1093.2,345.5,1093.2,354.8,1087.2,354.8z"/>
                   </g>
               </g>
           </g>
           <g>
               <path class="st2" d="M598.6,326.8c0.7-0.1,1.4-0.8,0.9-1.6c-5-8.2-9.3-16.9-14.3-25.1c-0.2-0.3-0.5-0.5-0.8-0.5
                   c-0.2-0.6-0.9-1-1.5-0.6c-11.3,7-22.7,13.7-33.8,20.9c-11.1,7.2-21.8,15.1-33.2,21.7c-11.6,6.8-23.4,13.1-34.8,20.3
                   c-11.7,7.4-23.2,15.2-34.9,22.5c-0.2,0.1-0.3,0.3-0.4,0.5c-0.2,0.3-0.2,0.7,0.1,1c5.6,8.4,11.5,16.6,16.9,25.2
                   c0.3,0.5,0.9,0.6,1.3,0.4c0.3,0.2,0.6,0.2,1-0.1c8.6-6.9,18.8-12.3,28.2-18c10.2-6.2,20.2-12.5,30.4-18.7
                   c17.6-10.8,35.3-21.6,52.7-32.7c5.2-3.3,10.4-6.7,15.5-10.2C593.9,330.3,596.7,328.8,598.6,326.8z M589.8,329.9
                   c-2.4-4-4.7-8-7.9-11.4c-1-1-2.4,0.6-1.5,1.6c3.1,3.2,5.2,7.1,7.6,10.9c0.1,0.2,0.3,0.4,0.5,0.4c-1.3,0.9-2.7,1.8-4,2.7
                   c-1.7-3.6-2.7-7.5-5.7-10.4c-1-1-2.4,0.6-1.5,1.6c2.8,2.7,3.7,6.6,5.3,10c-1,0.6-1.9,1.3-2.9,1.9c-0.4,0.3-0.8,0.5-1.2,0.7
                   c-1.5-4.6-4.9-8.4-7.5-12.4c-0.7-1.2-2.6,0-1.8,1.1c2.6,4.1,6.1,7.8,7.4,12.5c-2.3,1.5-4.6,3-6.9,4.4c0.1-0.2,0-0.5-0.1-0.8
                   c-2.5-3.9-5.1-7.7-7.3-11.8c-0.7-1.2-2.5-0.1-1.8,1.1c2.2,4.1,4.9,7.9,7.3,11.8c0.2,0.3,0.4,0.4,0.7,0.5c-1.5,0.9-3,1.9-4.5,2.8
                   c0,0,0,0,0-0.1c-2.2-3.1-3.5-6.7-6-9.6c-0.9-1-2.4,0.5-1.5,1.6c2.4,2.7,3.5,6.3,5.6,9.2c0,0,0,0,0.1,0.1c-0.8,0.5-1.7,1-2.5,1.6
                   c0-0.1-0.1-0.3-0.2-0.4c-2.7-4.4-5.2-8.8-8.7-12.6c-0.9-1-2.4,0.6-1.5,1.6c3.4,3.6,5.7,7.9,8.3,12.1c0.1,0.1,0.2,0.3,0.3,0.3
                   c-1.7,1.1-3.5,2.2-5.2,3.2c-2.2-3.9-3.6-8.1-6.7-11.4c-0.9-1-2.4,0.6-1.5,1.6c3,3.1,4.3,7.3,6.4,11c-0.6,0.4-1.3,0.8-1.9,1.2
                   c0-0.2-0.1-0.5-0.3-0.7c-1.7-1.6-2.6-3.7-3.9-5.7c-1.5-2.3-3.1-4.5-4.6-6.8c-0.7-1.2-2.6,0-1.8,1.1c1.5,2.3,3.1,4.5,4.6,6.8
                   c1.4,2.1,2.4,4.3,4.3,6.1c0.1,0,0.1,0.1,0.2,0.1c-1.3,0.8-2.7,1.7-4,2.5c-2.1-3.4-3.9-6.9-6-10.3c-0.7-1.2-2.5-0.1-1.8,1.1
                   c2.1,3.4,3.9,6.9,6,10.3c-1.1,0.7-2.2,1.4-3.3,2.1c-1.3-1.8-2-4-2.9-6c-1.1-2.3-3-4.3-4.3-6.4c-0.8-1.2-2.6,0-1.8,1.1
                   c1.2,1.9,2.6,3.7,3.9,5.6c1.4,2.2,1.9,4.7,3.4,6.8c-2.1,1.3-4.3,2.6-6.4,4c0.1-0.3,0.1-0.6-0.1-0.9c-2.1-3.4-3.6-7.1-5.1-10.8
                   c-0.5-1.3-2.6-0.7-2.1,0.6c1.5,3.9,3.1,7.7,5.3,11.3c0.2,0.3,0.5,0.5,0.8,0.5c-1.2,0.8-2.5,1.5-3.7,2.3c0-0.1-0.1-0.3-0.2-0.4
                   c-2.7-4.4-5.4-8.7-7.5-13.4c-0.6-1.3-2.4-0.1-1.8,1.1c2.1,4.7,4.8,9.1,7.5,13.4c0.1,0.1,0.2,0.3,0.3,0.3c-1,0.6-2.1,1.3-3.1,1.9
                   c0,0,0-0.1,0-0.1c-2.2-3.7-4-7.6-7.1-10.6c-1-1-2.4,0.6-1.5,1.6c2.9,2.9,4.6,6.7,6.7,10.2c0,0,0,0,0,0.1c-1.6,1-3.3,2-4.9,3
                   c0-0.1-0.1-0.3-0.1-0.4c-2.4-3.9-4.5-7.9-6.3-12.1c-0.5-1.3-2.6-0.7-2.1,0.6c1.8,4.4,4.1,8.6,6.5,12.6c0.1,0.1,0.2,0.2,0.3,0.3
                   c-1,0.6-1.9,1.2-2.9,1.8c0-0.1-0.1-0.3-0.1-0.4c-2.2-3.6-4.1-7.2-6.3-10.8c-0.7-1.2-2.5,0-1.8,1.1c2.2,3.6,4.1,7.2,6.3,10.8
                   c0.1,0.1,0.2,0.2,0.3,0.3c-1.6,1-3.2,2-4.8,2.9c0-0.1,0-0.3-0.1-0.5c-1.6-3.8-4-7.2-6.2-10.8c-0.7-1.2-2.6,0-1.8,1.1
                   c2.1,3.4,4.4,6.6,6,10.2c0.2,0.4,0.5,0.6,0.8,0.7c-1,0.6-2.1,1.3-3.1,1.9c-0.5,0.3-1,0.6-1.5,0.9c-2.7-4.5-4.7-9.4-7.6-13.7
                   c-0.8-1.1-2.6,0-1.8,1.1c3,4.3,4.9,9.2,7.6,13.7c-1.5,0.9-3,1.9-4.6,2.8c-2.1-3.8-3.5-8.2-6.9-11.1c-1.1-0.9-2.5,0.7-1.5,1.6
                   c3.2,2.7,4.5,7,6.5,10.6c-1.7,1.1-3.5,2.1-5.2,3.2c0,0-0.1-0.1-0.1-0.1c-2.8-3.2-4.8-7-6.3-10.9c-0.5-1.3-2.6-0.7-2.1,0.6
                   c1.7,4.1,3.8,8.1,6.7,11.6c-1.4,0.9-2.8,1.7-4.2,2.6c-2.1-3.4-4.5-6.6-6.6-10c-0.7-1.2-2.6,0-1.8,1.1c2.1,3.4,4.5,6.6,6.6,10
                   c-1.5,0.9-3,1.9-4.5,2.8c-2.6-3.7-4.6-7.7-8-10.8c-1-0.9-2.5,0.6-1.5,1.6c3.3,2.9,5.1,6.8,7.6,10.4c-1.7,1.1-3.4,2.3-4.9,3.5
                   c-5.1-8.1-10.6-15.8-15.9-23.7c11-6.9,21.9-14.1,32.8-21.2c11.3-7.3,23-13.7,34.7-20.3c11.5-6.6,22.2-14.4,33.3-21.7
                   c11.2-7.4,22.9-14.2,34.3-21.3v0c4.8,7.9,8.9,16.2,13.7,24.1c-0.7,0.7-1.4,1.3-2.2,1.9c0-0.1-0.1-0.2-0.1-0.3
                   c-2.1-2.9-3.3-6.3-5.6-9c-0.9-1-2.4,0.5-1.5,1.6c2.2,2.6,3.3,5.9,5.3,8.6c0.1,0.1,0.2,0.2,0.3,0.3c-0.5,0.3-0.9,0.6-1.4,0.9
                   c-0.6,0.4-1.2,0.8-1.8,1.2C590,330.3,589.9,330.1,589.8,329.9z"/>
               <path class="st2" d="M566.1,331.5c1.9,3.1,3.6,6.4,5.5,9.6c0.7,1.2,2.5,0.1,1.8-1.1c-1.9-3.1-3.6-6.4-5.5-9.6
                   C567.2,329.2,565.4,330.4,566.1,331.5z"/>
           </g>
       </g>
       </svg>