<?xml version="1.0" encoding="utf-8"?>
<!-- Generator: Adobe Illustrator 23.0.5, SVG Export Plug-In . SVG Version: 6.00 Build 0)  -->
<svg version="1.1" id="Capa_1" xmlns="http://www.w3.org/2000/svg" xmlns:xlink="http://www.w3.org/1999/xlink" x="0px" y="0px"
	 viewBox="0 0 492 220" style="enable-background:new 0 0 492 220;" xml:space="preserve">
<style type="text/css">
	.st0{fill:#FFFFFF;}
	.st1{fill:#67B5B5;}
</style>
<g>
	<g>
		<path class="st0" d="M333.8,175.7c0.6,0.8,1,1.8,1,3.1c0,0.6-0.1,1-0.2,1.4c-2,7.9-6.2,14.3-12.7,19.2s-14.1,7.4-22.7,7.7
			c-8.3,0-15.2-2.5-20.7-7.4s-8.7-11.4-9.5-19.5c-0.3-3,0.9-4.5,3.8-4.5l17.8-0.2c0.7,0,1.3,0.2,1.8,0.7s0.7,1.1,0.6,1.9
			c-0.1,0.6-0.2,1.4-0.2,2.4c0,2.9,0.6,5.1,1.9,6.6s3.1,2.3,5.4,2.3c2.2,0,4.1-0.9,5.7-2.6c1.6-1.7,2.6-4.5,3.1-8.2
			c0.1-0.8,0.5-1.5,1.2-2.1s1.5-0.9,2.4-0.9l18.8-0.9C332.4,174.6,333.2,174.9,333.8,175.7z M278.6,190.3c0.1-0.1,0.1-0.3,0-0.5
			l-0.5,0.4l-0.2,0.3C278.3,190.4,278.5,190.4,278.6,190.3z M282.6,182.1c-0.1-0.1-0.3-0.2-0.4-0.3c-0.2-0.1-0.3-0.2-0.3-0.4
			c-0.2-0.2-0.4-0.4-0.5-0.4h-0.2c-0.4,0-0.7,0.1-1,0.4c-0.3,0.3-0.4,0.6-0.4,0.8c1.3,0.1,2.2,0.7,2.6,1.7c0.2-0.2,0.5-0.3,0.7-0.3
			c0.1,0,0.3-0.1,0.5-0.4l0.2-0.7L282.6,182.1z M282.4,184.1l-1.4,0.5v0.7l0.2,0.2l0.3,0.2c0.7,0,1.1-0.2,1.1-0.5l0.2-0.9
			L282.4,184.1z M286.3,187.6c0-0.1-0.1-0.2-0.2-0.2c-0.2,0-0.4,0.1-0.4,0.2c0,0.4,0.1,0.6,0.4,0.9
			C286.5,188.2,286.5,187.9,286.3,187.6z M292.6,191.8h-1.7c-0.1-0.2-0.3-0.4-0.5-0.4c-0.6,0-1.1,0.2-1.6,0.5s-0.8,0.7-0.9,1
			c0,0.2,0.1,0.5,0.4,0.9s0.7,0.6,1.3,0.7c0.5,0,1.2-0.2,2.1-0.7c0-0.4,0.2-0.7,0.5-1L292.6,191.8z M294.1,195.5v0.9l1.9,0.2v-0.9
			L294.1,195.5z M308.6,197.1c0,0-0.1-0.2-0.2-0.7c-0.2,0-0.5-0.2-0.7-0.7c-0.1-0.1-0.4-0.1-0.7,0l-0.4,0.5l0.4,0.9
			c0.5,0.4,0.8,0.5,0.9,0.4C308.4,197.2,308.6,197.1,308.6,197.1z M312.6,191.6c-0.2-0.5-0.5-0.6-0.9-0.5c-0.1,0.3-0.1,0.7,0,1v0.9
			c0.1,0.1,0.3,0.2,0.5,0.2h0.4C312.9,192.6,312.9,192.1,312.6,191.6z M317.2,190.4c-0.1-0.5-0.6-0.7-1.6-0.7l-0.2,0.4l0.9,2.1
			c0,0.1,0.2,0.3,0.5,0.7c0.2-0.7,0.5-1.1,0.7-1.2h0.5C317.6,191.2,317.3,190.8,317.2,190.4z M317.7,185.5c0,0,0.2-0.1,0.5-0.2
			l-0.2-0.9l-0.9,0.4l-0.3,0.7C317.4,185.5,317.7,185.5,317.7,185.5z M318,186.6l-0.7,0.2l-0.2,0.2l0.5-0.7l-0.5,0.2l-0.3,0.5h0.3
			l-0.2,0.2l0.2,0.7l0.9,0.2l0.5,0.3L318,186.6z M321.2,184.7l-1.2,0.5l0.2,0.5l1.2-0.5L321.2,184.7z"/>
	</g>
	<path class="st1" d="M160,54.6c0,0,0.1,0.1,0.4,0.4c0.2,0.2,0.4,0.5,0.4,0.9c-0.5,6.6-0.9,12.7-1.1,18.3c0,2.8,0,4.9,0,6.2h-0.2
		c-0.2,0-0.4,0-0.4,0.1l-0.1,0.4h0.1c-0.1,0.2-0.4,0.3-0.7,0.5c0.4,0.1,0.8,0.2,1.3,0.2v1.6h-0.3l-0.3,0.1l-0.2,0.1l-0.1,0.1v0.2
		c0,0.1-0.1,0.2-0.1,0.3c0,0.2,0,0.4,0.1,0.6l0.3-0.2l0.1-0.1l0.3-0.2c0,0,0.1-0.1,0.1-0.3l0.1-0.1h0.1c0,0.4,0,1.2,0,2.4
		c-0.1-0.1-0.2-0.1-0.3,0c0,0.1,0,0.2,0.1,0.2l0.1,0.1v0.1h0.1v-0.1h0.1v2.1c0-0.1-0.1-0.3-0.3-0.4h-0.5c0,0.1,0,0.2,0.1,0.2v0.2
		l0.1,0.1v0.1c0.2,0,0.4,0,0.6-0.1l0.1,3.7c0,0.7-0.4,2.6-1.3,2.6l-9.2,0.3c-0.4,0-0.7-0.1-1-0.3c-0.3-0.2-0.4-0.5-0.4-0.8
		c0-8,0.1-15.3,0.3-19.3c0.2-4.8,0.3-8.4,0.5-10.7c0,0,0.1,0.1,0.2,0.1l0.1-0.3c0,0-0.1-0.1-0.2-0.1l0.4-7.5c0-0.7,0.5-1.1,1.3-1.1
		l8.8-0.4C159.8,54.6,160,54.6,160,54.6z M148.9,87.7l-0.2,0.2l0.2,0.2V87.7z M149.2,83.7c0-0.2,0-0.3-0.1-0.3
		c-0.1,0.1-0.2,0.3-0.2,0.4C149.1,83.8,149.2,83.8,149.2,83.7z M149.6,80.4c-0.2,0.3-0.3,0.4-0.3,0.3c-0.1,0.1-0.2,0.2-0.2,0.3v1.9
		c0,0,0-0.2,0.1-0.5c0-0.2,0-0.4,0-0.4c0-0.1,0-0.1,0-0.2c0,0,0-0.2,0.1-0.4c0.1-0.1,0.2-0.2,0.2-0.3L149.6,80.4z M150.6,63.3
		c0,0,0-0.1,0.1-0.2c0-0.2,0.1-0.3,0.3-0.4c0.1,0,0.3-0.1,0.4-0.2c0-0.2-0.2-0.3-0.5-0.3s-0.5,0-0.8,0c0,0.1,0,0.2-0.1,0.3
		s-0.1,0.2-0.2,0.2c0.1,0.1,0.2,0.1,0.3,0.2c0,0.1,0,0.2-0.1,0.3l-0.1,0.3l0.1,0.4c-0.1,0.1-0.1,0.3-0.1,0.3c-0.1,0.1-0.1,0.2,0,0.3
		v0.1c0,0,0.1,0,0.1,0.1c0,0,0.1,0,0.2,0.1l-0.2,3.8c-0.3,0.2-0.4,0.2-0.3,0.2c0.1,0,0.2,0.1,0.3,0.2c0,0.1-0.1,0.2-0.3,0.2
		l-0.1,0.5c0.3,0.1,0.3,0.2,0.3,0.2l-0.2,0.2l0.3,0.2l-0.1,2.4c-0.2,0.1-0.2,0.2-0.2,0.3c0,0.1,0.1,0.2,0.3,0.3l0.1,0.1
		c0,0.1,0,0.1-0.1,0.2s-0.2,0.1-0.3,0.1c0,0.1,0.1,0.2,0,0.3c0,0.1-0.1,0.2-0.2,0.2c0.3,0.1,0.4,0.3,0.4,0.4s0,0.2-0.1,0.3
		s-0.1,0.2-0.1,0.3c-0.1,0.3-0.2,0.4-0.4,0.5c0.3,0.1,0.4,0.3,0.5,0.3l-0.1,0.1V76c-0.1,0.1-0.2,0.2-0.3,0.4
		c-0.1,0.1-0.1,0.2-0.1,0.3c0,0.1,0,0.1,0.1,0.2c0.1,0,0.1,0.1,0.1,0.1l-0.2,0.1c0.1,0,0.2,0.1,0.2,0.3v0.4c0,0.1-0.1,0.2-0.1,0.4
		v0.1v0.1l0.2,0.3c0.1,0.1,0.1,0.2,0.1,0.3c0,0.1,0,0.2-0.1,0.3c-0.1,0.2-0.2,0.3-0.2,0.3c0,0.1,0,0.1,0.1,0.1v0.1h0.4
		c-0.1,0-0.1-0.1-0.1-0.2c0,0-0.1-0.1-0.1-0.2c0.2-0.1,0.4-0.2,0.5-0.2c-0.1-0.1-0.2-0.3-0.3-0.6c-0.1-0.3-0.1-0.5-0.1-0.7
		c0-0.1,0-0.1,0.1-0.2s0.1-0.3,0.1-0.8l0.1-0.4c0.1-0.1,0.1-0.2,0-0.2c0,0,0-0.1,0.1-0.3h0.3c-0.1-0.5-0.2-0.8-0.2-0.9
		s0-0.3,0.1-0.5s0.2-0.3,0.2-0.4h-0.3v0.1H150c0,0,0-0.1-0.1-0.1l0.5-0.5c0.2-0.2,0.3-0.3,0.2-0.3l-0.1-0.5c-0.1-0.3-0.1-0.5,0-0.7
		h0.5c-0.3,0-0.5-0.1-0.5-0.3c0-0.1,0.1-0.3,0.2-0.6c0.2-0.3,0.2-0.5,0.2-0.7l-0.1-0.6c0,0-0.1-0.1-0.1-0.2
		c-0.1-0.1-0.1-0.3-0.1-0.5l-0.1-0.3c0-0.1,0-0.2,0.1-0.3c0.1-0.4,0.2-0.5,0.1-0.5c0-0.1,0-0.3,0.1-0.6l0.1-0.2c0,0,0-0.2-0.1-0.4
		c-0.1-0.3-0.1-0.5,0-0.6c0-0.1,0.1-0.1,0.3-0.2c0-0.1,0.1-0.4,0-0.8c0-0.4,0.1-0.6,0.3-0.7c-0.3-0.2-0.4-0.3-0.1-0.5l-0.2-0.3
		c0.1-0.1,0.1-0.3-0.1-0.6C150.7,63.4,150.6,63.3,150.6,63.3z M153,56.2c0,0,0.1,0,0.2,0c0.3,0,0.6,0.1,0.7,0.4
		c0.1,0.3,0.3,0.4,0.4,0.4c0.1-0.1,0.1-0.2,0.1-0.4c-0.1-0.1,0-0.2,0.3-0.3h0.8c0-0.1-0.1-0.2-0.3-0.3c-0.3,0-0.4,0-0.4,0
		s-0.1-0.1-0.3-0.1l-0.3,0.1c-0.1,0.1-0.2,0.2-0.3,0.2s-0.3-0.1-0.4-0.2l-0.3-0.1h-0.9c0,0.1,0,0.2-0.1,0.3h-0.4
		c-0.1-0.2-0.2-0.2-0.2-0.2s0,0-0.1,0.1l-0.1,0.2h-0.3l-0.2-0.2c0,0-0.1-0.1-0.2-0.2c-0.2,0-0.3,0-0.4,0c-0.1,0-0.1,0-0.2,0
		c0,0,0,0.1-0.1,0.2c-0.1,0-0.1,0.1-0.1,0.2c0,0.2,0.1,0.4,0.1,0.4c0.1,0.1,0.2,0.3,0.1,0.7l-0.2,0.5l-0.2,0.6c0,0.1,0,0.1,0.1,0.2
		c0.1,0.1,0.1,0.1,0.1,0.2c-0.1,0-0.1,0-0.1,0.1c-0.1,0.1-0.2,0.2-0.2,0.2c0.2,0,0.2,0.2,0.1,0.4c-0.1,0.1-0.2,0.2-0.2,0.3
		c0,0.4,0,0.6,0.1,0.8l0.1,0.6c0,0.1-0.1,0.1-0.2,0.2h0.1l0.1,0.1c0.3-0.1,0.5-0.2,0.7-0.2v-0.5c-0.1,0-0.2-0.1-0.3-0.2
		c-0.1-0.1-0.1-0.2-0.1-0.3l0.6-0.2L151,60c-0.1-0.1-0.2-0.1-0.2-0.2c0-0.2,0.2-0.3,0.5-0.3c-0.1-0.1-0.1-0.1-0.1-0.2l-0.1-0.1
		l0.4-0.3c0-0.1,0-0.1-0.1-0.2l-0.1-0.2c0.2-0.2,0.3-0.2,0.5-0.2l0.6-0.1c-0.4,0-0.6-0.1-0.6-0.2c0-0.1,0.1-0.2,0.2-0.3
		c0.2-0.1,0.4-0.1,0.6-0.1c-0.2-0.1-0.2-0.2-0.1-0.4c0,0-0.1,0-0.2-0.1c-0.1-0.1-0.1-0.1-0.1-0.2c0-0.1,0.1-0.2,0.4-0.3
		c0.1-0.1,0.1-0.1,0-0.2c0-0.1,0-0.1,0.1-0.2C153,56.3,153,56.2,153,56.2z M160.2,42.9c1,0.9,1.4,2.1,1.2,3.4
		c-0.2,1.6-0.9,2.9-2.1,3.8c-1.2,0.9-2.7,1.4-4.3,1.5c-1,0-1.9-0.3-2.7-1s-1.2-1.7-1.3-3c0-1.1,0.2-2.2,0.8-3.1s1.3-1.6,2.2-2.2
		c0.9-0.5,1.8-0.8,2.8-0.8C158.1,41.5,159.2,42,160.2,42.9z M152.7,48.3h-0.4c-0.1,0.1-0.2,0.2-0.2,0.4c0,0.1,0.2,0.2,0.4,0.2v-0.2
		c0-0.1,0.1-0.1,0.2-0.2V48.3z M153.2,57.9c0.3,0,0.6,0,0.6-0.1l0.1-0.1v-0.2c0-0.1,0-0.2,0.1-0.2c-0.2,0-0.3,0-0.3,0.1
		c-0.1,0.1-0.1,0.2-0.1,0.3C153.5,57.9,153.3,57.9,153.2,57.9C153.1,57.9,153.1,57.9,153.2,57.9z M154.8,84.1l-0.8,0.1l0.8,0.2V84.1
		z M154.1,86.2h0.6V86h-0.6V86.2z M154.5,85.1l-0.3,0.2c0.1,0.1,0.3,0.2,0.4,0.2l0.1-0.1l0.1-0.1l0.2-0.1L154.5,85.1z M154.7,87.3
		L154.7,87.3h0.3c0.1-0.1,0.2-0.1,0.2-0.2h0.1c0,0,0-0.1,0.1-0.1c-0.1,0-0.1,0-0.1-0.1H155c-0.3-0.1-0.5-0.1-0.5-0.2
		c0,0.1,0,0.1-0.1,0.2V87l0.1,0.1h0.1C154.6,87.3,154.7,87.3,154.7,87.3z M155.2,83.2l0.2-0.4h-0.6l-0.1,0.2
		C154.8,83.1,155,83.2,155.2,83.2z M155.6,82.3c0.1,0,0.1,0,0.1-0.1h0.1l0.1-0.1l0.1-0.3l-0.2-0.1c-0.1,0-0.1,0-0.2-0.1
		c-0.1,0-0.2-0.1-0.2-0.2H155l-0.1,0.1v0.1l-0.1,0.1l-0.1,0.1c0.1,0.1,0.2,0.2,0.3,0.2l0.2,0.2C155.3,82.3,155.4,82.3,155.6,82.3z
		 M155.5,88.9h-0.6v0.2h0.6V88.9z M154.5,49.4l-0.1-0.1l-0.1,0.1H154.5L154.5,49.4z M155.4,84.3l0.1-0.1l0.1-0.1L155,84l0.1,0.2
		c0,0.1,0,0.2,0.1,0.2C155.3,84.3,155.4,84.3,155.4,84.3z M154.9,43.9c0-0.1,0-0.3,0-0.5s-0.1-0.3-0.1-0.4c-0.1,0.1-0.2,0.2-0.2,0.3
		c-0.1,0.1-0.1,0.1-0.1,0.2c0,0.1,0,0.2,0.1,0.3s0.1,0.2,0.2,0.2L154.9,43.9z M155.7,72.9l0.1-0.3c-0.3,0-0.4,0.1-0.5,0.3H155.7z
		 M155.6,85.7h0.7v-0.2l-0.5-0.1c0,0.1,0,0.1-0.1,0.1C155.6,85.6,155.6,85.6,155.6,85.7z M155.7,85.2c0.1,0.1,0.3,0.2,0.6,0.2
		c0.1,0,0.2-0.1,0.3-0.2h0.5l0.1-0.1V85l0.1-0.1l-0.6-0.1c0,0-0.1,0.1-0.1,0.2h-0.1l-0.1-0.1h-0.3c-0.2,0-0.3,0-0.3,0.1
		C155.8,85,155.7,85,155.7,85.2L155.7,85.2C155.8,85.2,155.8,85.2,155.7,85.2z M156.1,74.7l-0.3-0.1l-0.1,0.4l0.3,0.2l0.3-0.2
		c0.2-0.1,0.3-0.1,0.3-0.2c0,0,0-0.1-0.1-0.1s-0.1-0.1-0.2-0.1L156.1,74.7z M156.5,79.5c0,0-0.1,0-0.3,0l0.1-0.1
		c-0.1-0.1-0.2-0.1-0.4-0.1l-0.1,0.3h0.1l0.1,0.1c0,0,0.1,0,0.2,0.1l0.1-0.2l0.1,0.1c0,0.1,0,0.1,0.1,0.1l0.4-0.1
		C157,79.5,156.8,79.4,156.5,79.5L156.5,79.5z M156.3,50.2h-0.6l-0.1,0.3l0.7,0.1L156.3,50.2z M156.3,80.2L156.3,80.2l0.1,0.1h0.5
		C156.8,80.2,156.5,80.1,156.3,80.2C156.2,80.1,156.3,80.1,156.3,80.2L156.3,80.2z M156.2,80.7v0.2l0.4-0.1l-0.1-0.2L156.2,80.7z
		 M156.3,88.3c0.2,0,0.4,0,0.6-0.1c0.2-0.1,0.3-0.2,0.4-0.3H157c-0.3,0-0.6,0.1-0.7,0.2V88.3z M156.3,81.4l0.2,0.2
		c0.2,0,0.3-0.1,0.4-0.2c0-0.1,0-0.2-0.3-0.2C156.6,81.2,156.5,81.3,156.3,81.4z M157.5,81.9l-1.1-0.1v0.3L157.5,81.9z M157.3,78.7
		c-0.1,0-0.2,0.1-0.4,0.1s-0.4,0.1-0.6,0.1v0.2l0.1,0.1h0.1l0.1,0.1h0.6V79c0.3,0,0.4,0,0.5-0.1c0-0.1,0-0.1-0.1-0.2l-0.1-0.1v-0.1
		l0.1-0.3h-0.8c0,0.3,0,0.4,0.1,0.4L157.3,78.7z M156.5,84.5h0.3l0.1-0.2h-0.3L156.5,84.5z M157.4,86.1l-0.1-0.4
		c-0.3,0.1-0.6,0.2-0.7,0.3c0,0,0.2,0.1,0.4,0L157.4,86.1z M156.8,88.6l-0.1,0.2l0.1,0.1V89h0.3l0.2-0.6c-0.2-0.1-0.3-0.1-0.5-0.1
		C156.6,88.5,156.6,88.6,156.8,88.6z M155.9,45.6c0,0.1,0.1,0.1,0.3,0.1c0,0,0,0.1,0.1,0.1l0.2,0.1c-0.1-0.1,0-0.2,0.1-0.4
		L155.9,45.6z M157.7,89.6h-0.5c0,0,0,0.1-0.1,0.1l-0.1,0.2c-0.1,0-0.2,0.1-0.3,0.2v0.2c0.3,0,0.4,0,0.4,0l-0.1,0.2
		c0,0.1,0,0.2,0.1,0.3l0.4-0.1l0.2-0.2l0.1-0.6h-0.3c0.2,0,0.3,0,0.3-0.1L157.7,89.6z M156.6,73.8l0.1-0.1l0.1-0.1
		c0.2-0.1,0.2-0.2,0.2-0.3c0-0.1-0.1-0.2-0.3-0.2l-0.1,0.1v0.2V73.8z M157.4,83.2c0.2-0.1,0.3-0.2,0.2-0.3c-0.1-0.1-0.2-0.1-0.4-0.1
		h-0.1c-0.2,0.1-0.3,0.2-0.3,0.3c0,0.1,0.1,0.2,0.2,0.2L157.4,83.2z M156.7,48.2h-0.5v0.1L156.7,48.2L156.7,48.2z M157.2,76h-0.4
		v0.3h0.5v-0.2C157.2,76.1,157.2,76.1,157.2,76z M157.4,80.5L157.4,80.5l0.1,0.2l0.1,0.1c0,0,0,0.1,0.1,0.1c0,0,0.1,0,0.1-0.1
		l0.1-0.1c0-0.1,0-0.1-0.1-0.2c-0.1,0-0.1-0.1-0.1-0.1h-0.1l-0.1-0.1h-0.4l-0.3,0.2l0.3,0.2h0.1L157.4,80.5L157.4,80.5z M157,86.5
		v0.2h0.4v-0.2H157z M156.9,63.9h0.4l-0.2-0.2C157.1,63.7,157,63.8,156.9,63.9z M157.4,77.2c-0.2,0-0.3,0.2-0.2,0.3h0.3
		c0,0,0.1,0.1,0.3,0.1l0.3-0.2C157.8,77.3,157.6,77.2,157.4,77.2z M157.9,73.3l-0.2-0.2h-0.4l-0.1,0.2c0,0.2,0.2,0.3,0.5,0.3
		l0.1-0.1l0.1-0.1C157.9,73.4,157.9,73.4,157.9,73.3L157.9,73.3z M157.3,44.1h-0.4l-0.1,0.3h0.4L157.3,44.1z M157.5,72.6v-0.2h-0.3
		v0.2H157.5z M157.5,85.2h0.4V85h-0.4V85.2z M157.7,89c0,0,0.2,0.1,0.3,0l0.2,0.1h0.1c0.1,0,0.2,0,0.3-0.1c0.1,0,0.1-0.1,0.1-0.2
		h-0.6c-0.1,0-0.3,0-0.4-0.1L157.7,89L157.7,89z M157.6,87.8l0.2,0.1l0.2-0.3l-0.3-0.1L157.6,87.8z M157.9,75.7v-0.2h-0.4v0.2H157.9
		z M157.4,70.7c0,0.1,0.1,0.3,0.2,0.4l0.4-0.2C157.9,70.8,157.7,70.7,157.4,70.7z M158.6,89.4c-0.2,0-0.3,0.1-0.5,0.2
		c-0.1,0.2-0.2,0.2-0.3,0.3l0.5,0.1c0.4-0.1,0.6-0.3,0.8-0.6H158.6z M158.4,87.6c0.2,0,0.3,0,0.3-0.1h0.1v-0.4c-0.1,0-0.2,0-0.3-0.1
		c0,0-0.1,0.1-0.2,0.1c-0.1,0-0.1,0-0.2,0.1l-0.1-0.1l-0.2,0.1c-0.1,0.1-0.1,0.2,0,0.4C158.1,87.6,158.3,87.6,158.4,87.6z
		 M158.8,90.3c-0.1-0.1-0.3-0.1-0.7-0.1l0.1,0.3C158.3,90.6,158.5,90.5,158.8,90.3z M158.5,85.4L158.5,85.4h-0.4v0.3l0.5-0.1
		L158.5,85.4L158.5,85.4z M158.3,83c-0.2,0.2-0.3,0.3-0.2,0.4c0.3,0,0.4,0,0.6-0.1V83C158.6,83,158.5,83,158.3,83z M157.9,45.3
		c0-0.1-0.2-0.1-0.4-0.2l0.2,0.5C157.9,45.5,157.9,45.4,157.9,45.3z M158.5,86.6L158.5,86.6l-0.3,0.1c0,0.1,0,0.2,0.1,0.2l0.1,0.1
		C158.8,86.8,158.8,86.7,158.5,86.6z M158.2,64.2l0.4-0.2l-0.4-0.1l-0.3,0.2L158.2,64.2z M159.1,90.4h-0.4l-0.2,0.3h0.5
		c0.1-0.1,0.1-0.1,0.1-0.2L159.1,90.4z M159.2,78c-0.1-0.2-0.3-0.3-0.5-0.2c-0.1,0.1-0.1,0.2-0.1,0.2v0.2L159.2,78z M158.7,85.2
		l0.1,0.1v0.1h0.1l0.1,0.1c0.3,0,0.5-0.1,0.5-0.3h-0.4L158.7,85.2z M158.6,44.8l-0.3-0.8l-0.3,0.1l0.3,0.8L158.6,44.8z M159.1,69.1
		L159.1,69.1l-0.2-0.1l-0.1,0.1l-0.1,0.1l-0.1,0.1l0.3,0.1c0,0,0.1,0,0.2,0c0.1,0,0.1,0,0.1-0.1L159.1,69.1z M159.6,80.8v0.7
		l-0.1-0.1l-0.1-0.1v-0.1c0.1,0,0.1-0.1,0.1-0.2v-0.3L159.6,80.8z M160,48.5c0-0.1,0-0.1,0-0.2l-0.1-0.2h-0.4
		c-0.1,0-0.2,0.1-0.2,0.3s0,0.3,0.1,0.4C159.7,48.8,159.9,48.7,160,48.5C159.9,48.7,159.9,48.6,160,48.5z M160.3,47.4
		c0,0-0.1-0.1-0.1-0.2H160c0,0,0-0.1-0.1-0.1l-0.5,0.5h0.5c0,0,0.1-0.1,0.3-0.1L160.3,47.4L160.3,47.4z"/>
	
		<rect x="205.4" y="21.4" transform="matrix(5.259094e-02 -0.9986 0.9986 5.259094e-02 173.2047 225.7392)" class="st1" width="0.4" height="0.4"/>
	<path class="st1" d="M124.7,159c1.3,0.5,2.6,0.7,3.7,0.7c1.3,0,2.4-0.4,3.2-1.1c0.8-0.7,1.2-1.8,1.2-3.1c0-2.1-0.9-3.9-2.8-5.3
		c-0.9-0.7-2.9-2-6-3.9l-1.8-1.1l-0.2-0.1c-0.6-0.3-2.4-1.7-5.4-4.2l-0.1-0.1c-1.6-1.5-2.8-3.6-3.4-6.1c-0.4-1.6-0.6-3.3-0.6-4.8
		c0-3.9,1.1-7.7,3.3-11.3c3-5.4,7.9-8.4,14.6-9.2c1.5-0.2,3-0.3,4.6-0.3c5.7,0,9.9,1.6,12.6,4.9c1.3,1.7,2.1,4.1,2.4,7
		c0.1,1,0.2,2.1,0.2,3.3c0,1.4-0.1,3.1-0.2,5c0,1.2-0.6,1.7-1.8,1.7h-10.6c-1.2,0-1.8-0.6-1.8-1.8c0-2.1-0.1-4.2-0.3-6.5
		c-0.2-1.1-0.6-1.7-1.3-1.7h-0.1c-1.8-0.3-3,0.5-3.7,2.4c-0.6,1.2-0.9,2.3-0.9,3.6c0,2,0.9,3.8,2.6,5.3c1,1,2.3,2,3.7,2.8l2.8,1.7
		c7.6,4.6,11.3,10.2,11.3,17c0,0.9,0,1.6-0.1,2v0.1c-0.7,3.5-1.9,6.5-3.6,9c-1.7,2.5-4,4.3-6.8,5.4c-3,1.2-6.3,1.7-10,1.7
		c-0.9,0-2.1-0.1-3.8-0.2c-4.1-0.4-9.2-2.3-15.4-5.7c-0.7-0.4-1-0.9-1-1.5c0-0.3,0.1-0.6,0.3-1l4-8c0.3-0.7,0.9-1.1,1.6-1.1
		c0.3,0,0.6,0.1,0.9,0.3c2.9,1.8,4.4,2.6,4.4,2.6S121.9,158,124.7,159z M124.2,160v-0.3h-0.6v0.3H124.2z M125.8,162.5l-0.4-0.1
		l-0.3,0.3l0.4,0.2L125.8,162.5z M128.3,165.7v-0.3h-0.6v0.3H128.3z M134.5,142.4V142h-0.8v0.4H134.5z M136.2,146H136l-0.2-0.2v0.6
		h0.2l0.2,0.1l0.2-0.1C136.4,146.3,136.3,146.2,136.2,146z M136.4,164v-0.5H136v0.5H136.4z M137.3,162.3c-0.1,0-0.2,0-0.2,0.1v0.1
		c-0.1,0-0.2,0-0.2,0.1c-0.1,0.1-0.1,0.1-0.2,0.1c0.2,0.1,0.5,0.2,0.7,0.2c0-0.3,0-0.5,0-0.5S137.4,162.4,137.3,162.3z M137.6,142.4
		l0.1-0.2c0-0.2,0-0.4-0.1-0.5H137c-0.1,0.3-0.1,0.7,0,1.1h0.7c0-0.2,0-0.3,0-0.3S137.8,142.5,137.6,142.4z M138.4,142.8H138
		c-0.2,0-0.4,0-0.6,0.1l0.4,0.5l0.7-0.4v0l0.2-0.1L138.4,142.8z M137.6,166l0.7-0.5h-0.7c-0.1,0-0.2,0.1-0.2,0.3
		C137.5,165.8,137.5,165.9,137.6,166z M137.8,163.4l-0.2,0.5c0.2,0,0.4,0,0.4,0.1c0.5,0,0.7-0.2,0.7-0.5l-0.5-0.1
		C138.2,163.4,138.1,163.4,137.8,163.4z M139.7,126.3c-0.3,0-0.5,0.1-0.5,0.4h0.5c0.1,0,0.1-0.1,0.1-0.2L139.7,126.3z M139.5,119.9
		h0.4v-0.2h-0.4V119.9z M140.6,149.1v-0.4l-0.8-0.1v0.3L140.6,149.1z M140.3,161l-0.1-0.2c-0.1-0.1-0.1-0.1-0.2-0.1
		c-0.1,0.1-0.2,0.2-0.2,0.4v0.4c0.1,0,0.2,0,0.2-0.1h0.2l0.2-0.2L140.3,161z M142.2,158.6v-0.4h-0.9c0.1-0.1-0.1,0-0.4,0.2
		c-0.1,0.1-0.2,0.1-0.4,0.1c-0.4,0.2-0.5,0.4-0.5,0.5v0.2c0.1,0.1,0.4,0.2,0.7,0.2h0.4l0.6-0.4C142.1,158.8,142.2,158.7,142.2,158.6
		z M140.9,150.6l-0.4-0.1l-0.3,0.3l0.4,0.2L140.9,150.6z M142.5,156.6c-0.1,0.1-0.2,0.2-0.2,0.3l-0.2,0.1c-0.1,0.1-0.2,0.1-0.3,0.1
		h-0.1c-0.2,0-0.3,0-0.5-0.1s-0.4-0.1-0.7-0.1h-0.3v0.4l0.1,0.1c0,0.1,0.1,0.2,0.2,0.3c0.4,0.1,0.8,0.1,1.2,0.2h0.3
		c0.1,0.1,0.3,0.2,0.5,0.2h0.3l0.2-0.1h0.2v-0.2c0.1-0.1,0.1-0.2,0.1-0.3s0-0.1,0-0.1S143,157,142.5,156.6z M141.3,147.4v-0.2
		l-0.4-0.4c-0.4,0.2-0.6,0.4-0.6,0.6h0.6l0.2-0.1L141.3,147.4L141.3,147.4z M142,153.2l-0.4-0.2h-0.4l-0.2,0.6l0.2,0.1h0.1l0.1,0.1
		h0.6c0-0.1,0-0.1,0.1-0.1v-0.2c0.1,0,0.1-0.1,0.1-0.2C142.1,153.4,142,153.3,142,153.2z M142.3,159.9v-0.4c0-0.2,0-0.3-0.1-0.3
		h-0.6l-0.4,0.3v0.4C141.7,160,142,160,142.3,159.9z M142.3,162.5v-0.2l-1,0.2c0.5,0.2,0.9,0.3,1.1,0.3
		C142.4,162.6,142.4,162.6,142.3,162.5z M141.8,122.8l0.2-0.2l-0.2-0.1l-0.1-0.1l-0.1,0.2l-0.1,0.1c-0.1,0.1,0,0.2,0,0.2
		C141.7,122.9,141.8,122.9,141.8,122.8C141.8,122.9,141.8,122.9,141.8,122.8z M143.3,154.9l0.4-0.3l-0.1-0.5c-0.2,0-0.3,0-0.4,0.1
		l-0.2,0.1c-0.2,0-0.4,0-0.6,0c-0.1,0-0.2,0-0.3,0c-0.1,0.2,0,0.3,0.1,0.5c0.2,0.1,0.4,0.2,0.6,0.2L143.3,154.9z M144.8,150.6
		L144.8,150.6c-0.2-0.1-0.2-0.1-0.2-0.2h-0.8l-0.2,0.5c0.1,0.3,0.4,0.5,0.7,0.5c0.4,0,0.6-0.2,0.6-0.5
		C144.9,150.7,144.8,150.6,144.8,150.6z M144.4,158.9c-0.3,0.1-0.5,0.3-0.5,0.6c0,0.2,0.1,0.4,0.4,0.7l0.4-0.3
		c0.3,0,0.5-0.2,0.5-0.5c0-0.1-0.1-0.2-0.3-0.4L144.4,158.9z M144.7,158.1v-0.5h-0.5v0.5H144.7z M145.4,156.9h-0.6
		c0,0.2-0.1,0.4-0.3,0.5h0.7v-0.2L145.4,156.9z M145.6,153.4h-0.4c-0.1,0.1-0.2,0.2-0.1,0.4v0.4c0.1,0,0.3-0.1,0.5-0.3l0.2-0.1
		l0.3-0.2l-0.3-0.1L145.6,153.4z"/>
	<path class="st1" d="M204.1,119.8l-0.1,1.7c0,2.3-0.4,5-1.2,8.1c-0.2,1-0.8,1.5-1.8,1.5h-13.2c-0.6,0-1-0.2-1.4-0.6
		c-0.3-0.4-0.5-0.9-0.5-1.4c0-0.3,0-0.6,0.1-0.7l1.4-5.8c0.4-2.2,0.6-3.6,0.6-4.5c0-0.7-0.1-1.2-0.3-1.7c-0.4-0.8-1-1.2-1.8-1.2
		c-2.1,0-4.1,1.5-5.8,4.5s-3.1,6.7-4.1,11s-1.5,8.3-1.5,12c0,3.4,0.4,6.4,1.1,9.2c0.7,2.7,2.1,4.3,4.2,4.7c2.3,0.3,4.5-0.6,6.6-2.9
		c0.1-0.1,0.6-0.7,1.3-1.6l1.1-1.7c1.1-1.8,2.4-3.9,3.8-6.5c0.4-0.6,0.9-0.9,1.6-0.9c0.6,0,1,0.2,1.4,0.6l5.7,6.4
		c0.3,0.3,0.5,0.8,0.5,1.3s-0.1,0.8-0.2,1c-2.7,5.4-5.2,9.3-7.5,11.6c-4.9,5.3-10.4,7.9-16.4,7.9c-2.2,0-4.4-0.3-6.5-1
		c-4.5-1.3-8.1-4.5-10.8-9.7s-4.1-11.3-4.1-18.4c0-13.4,4-24.7,12.1-34.1c4.2-5.1,9.8-7.6,16.7-7.6c0.7,0,1.7,0.1,3.1,0.2
		c2.9,0.3,5.5,1.2,7.8,2.6s4.1,3.4,5.6,6.1C203.3,113,204.1,116.2,204.1,119.8z M157.3,140.2v0.3l-0.1,0.3c0,0.2,0,0.3,0.1,0.4
		l0.2,0.3c0.3-0.2,0.5-0.4,0.5-0.5v-0.8H157.3z M160.3,153l-0.3-0.2h-0.7l-0.5,0.2v0.4l0.2,0.1l0.3,0.1c0.1-0.1,0.2-0.1,0.3-0.1
		L160.3,153z M163,129.4h-0.2l-0.1-0.1c-0.4,0.1-0.7,0.3-0.7,0.5l0.4,0.2C162.8,129.8,163,129.6,163,129.4z M162.5,126.9v0.2h0.5
		v-0.2H162.5z M164.8,133.2c-0.1-0.1-0.3-0.1-0.6-0.1h-0.6l0.1,0.2l0.1,0.3c0.4,0,0.8,0.1,1.3,0.3v-0.5L164.8,133.2z M163.8,126.8
		c0,0.1,0.1,0.3,0.2,0.4c0.1,0.1,0.2,0.2,0.3,0.2C164.3,127.1,164.1,126.9,163.8,126.8z M164.3,131.4l0.1-0.1c0.1,0,0.1-0.1,0.1-0.2
		l-0.1-0.2h-0.6v0.5H164.3z M164.7,123.6h0.5l-0.9-0.2C164.3,123.5,164.5,123.6,164.7,123.6z M165.1,125.3h-0.7v0.2
		c0,0.3,0.2,0.6,0.6,0.8c0.3-0.2,0.4-0.4,0.4-0.5c0-0.2,0-0.3-0.1-0.3C165.2,125.4,165.1,125.3,165.1,125.3z M164.8,134.5l0.1,0.2
		c0.1,0,0.1,0.1,0.2,0.2v-0.8C164.8,134.1,164.8,134.2,164.8,134.5z M165.5,129.6h0.3V129c-0.3,0-0.4-0.1-0.4-0.2l-0.2,0.5l-0.2,0.4
		C165.2,129.7,165.4,129.7,165.5,129.6z M166.9,125.9c0,0-0.1,0-0.3,0h-0.5c0.2,0.1,0.3,0.2,0.3,0.5c0,0.2,0,0.3-0.1,0.3h-0.2
		l-0.1-0.1h-0.2l-0.2,0.1c-0.1,0-0.1,0.1-0.2,0.2l0.2,0.1c0,0.1,0,0.1,0.1,0.2c0.3,0,0.5-0.1,0.8-0.2c0.3-0.2,0.5-0.3,0.7-0.3
		l0.4,0.2c0,0.1,0.1,0.1,0.3,0.1h0.4C167.4,126.3,166.9,125.9,166.9,125.9z M166.3,122.9l0.2-0.3c-0.3-0.3-0.5-0.4-0.8-0.4v0.4
		C165.9,122.8,166.1,122.9,166.3,122.9z M165.8,130l-0.1,0.4h0.5l0.1-0.4H165.8z M165.8,123.8c0.6,0,1,0.1,1.2,0.2
		c0.2-0.1,0.3-0.3,0.3-0.6h-1.5V123.8z M166.8,154.1v0.8h0.2v-0.8H166.8z M167.4,127.7v0.2l0.8,0.1v-0.2L167.4,127.7z M169.5,122.5
		c-0.1-0.3-0.2-0.5-0.2-0.6c0-0.5-0.3-0.9-0.8-1.2c-0.3-0.1-0.3-0.3-0.3-0.6c-0.4,0.3-0.6,0.5-0.6,0.7c0,0.1,0.2,0.2,0.5,0.3
		c0.1,0.1,0.3,0.1,0.7,0.1c-0.1,0.2-0.2,0.4-0.5,0.7l-0.3,0.6c0,0.3,0.1,0.4,0.2,0.4h0.1c0-0.1,0.1-0.1,0.2-0.1c0.2,0,0.3,0,0.4,0.1
		l0.2,0.2c0-0.1,0.1-0.2,0.2-0.3L169.5,122.5z M168.9,128.2c0-0.3-0.1-0.6-0.3-1c-0.2,0.4-0.3,0.7-0.3,0.8s0.1,0.3,0.2,0.6h0.3
		L168.9,128.2z M168.7,135.4c0-0.3,0-0.6-0.1-0.7c-0.2,0.2-0.3,0.5-0.3,0.8s0.1,0.5,0.2,0.6l0.1,0.6
		C168.7,136.4,168.7,136,168.7,135.4z M168.6,124v0.2h0.5V124H168.6z M170.5,120.8l-0.3-0.2l-0.2,0.1c0,0.1-0.1,0.2-0.2,0.2l0.8,0.2
		C170.7,121.1,170.7,121,170.5,120.8z M171.3,121l-0.1-0.1C171.2,120.9,171.2,121,171.3,121z M171.3,120v0.3h0.3V120H171.3z
		 M174.8,117.6l-0.2-0.1c-0.1,0-0.2,0.1-0.2,0.2h0.5L174.8,117.6z M175.4,169.5h0.8l-0.1-0.3L176,169
		C175.6,169.2,175.4,169.4,175.4,169.5z M176.9,124.3v0.3h0.2v-0.3H176.9z M179.2,103.9c0,0,0-0.1,0-0.2v-0.2h-1.4
		c0.3,0,0.5,0.1,0.7,0.2c0.1,0,0.2,0.1,0.2,0.2v0.1l0.3,0.1c0.2,0,0.3,0,0.3-0.1L179.2,103.9L179.2,103.9z M180.9,108.1l-0.1,0.2
		l0.2,0.1l0.2-0.1L180.9,108.1z M181.4,103.9l0.4-0.4h-0.9v0.4H181.4z M181.8,105.4h-0.4c-0.2,0.2-0.3,0.3-0.4,0.3
		c0.1,0,0.1,0,0.2,0c0.1,0,0.2,0.1,0.3,0.1c0.1,0.1,0.3,0.1,0.5,0.1v-0.2C181.9,105.6,181.8,105.5,181.8,105.4z M182.2,105.1
		l0.4-0.3c-0.3-0.1-0.4-0.2-0.4-0.5h-0.6c-0.1,0-0.2,0.1-0.2,0.2s0.1,0.3,0.4,0.4L182.2,105.1z M183,112.9l-0.3,0.6l-0.3,0.5h0.6
		c0.1-0.1,0.1-0.2,0.2-0.3c0.1-0.1,0.1-0.2,0.1-0.3l0.3-0.6H183V112.9z M186.2,168.7l0.6-1.2l-0.3-0.2l-0.6,1.3L186.2,168.7z
		 M187.9,111.5v1.3l0.8-0.1v-1.2C188.7,111.5,187.9,111.5,187.9,111.5z M188.4,105.5l0.1-0.3c0.1-0.1,0.1-0.3,0-0.4
		c-0.1,0-0.3,0.1-0.6,0.4C188.3,105.3,188.4,105.4,188.4,105.5z M190.2,104.3c0.2-0.1,0.5-0.1,0.9-0.1c0.1-0.1,0.2-0.2,0.4-0.5
		l0.6-0.2c0.3-0.1,0.4-0.3,0.6-0.4c-0.1-0.1-0.3-0.2-0.6-0.2s-0.4,0-0.5-0.1c-0.1,0.1-0.2,0.2-0.1,0.3c0.1,0.2,0.1,0.3,0,0.4
		c-0.3,0.1-0.5,0.3-0.6,0.4s-0.3,0.2-0.5,0.2c-0.3,0-0.4,0-0.5,0.1c-0.1,0-0.2,0-0.3,0s-0.1,0-0.2,0c-0.1-0.1-0.1-0.2,0-0.3
		c0-0.1-0.1-0.2-0.2-0.3c-0.4,0.1-0.7,0.2-0.9,0.5c0.3,0.1,0.4,0.3,0.3,0.5l1.2,0.6V105c0-0.1,0-0.1,0.1-0.1
		C189.9,104.6,190,104.4,190.2,104.3z M188.9,102.9c0.4,0.3,0.6,0.4,0.8,0.4c0.1,0,0.3-0.1,0.7-0.2c0.3-0.1,0.5-0.1,0.8-0.1
		l-0.4-0.3c-0.2-0.1-0.4-0.1-0.8-0.1l-0.8-0.2C189,102.6,188.9,102.8,188.9,102.9z M189.2,110.2c-0.1,0-0.2,0-0.2,0.1v0.3
		C189.1,110.5,189.2,110.3,189.2,110.2z M192.5,117.9l0.1,0.1c-0.1,0.3-0.3,0.4-0.4,0.5c-0.2,0-0.3,0.1-0.3,0.1
		c-0.1,0.1-0.2,0.1-0.4,0.1l-0.4,0.1v0.4c0.2,0.1,0.4,0.2,0.6,0.2c0.1,0.1,0.3,0.1,0.5,0.1l0.7-0.2l0.6-0.4
		C193.4,118.6,193.1,118.3,192.5,117.9z M192.2,115.1l-0.1,1.1l0.4,0.3l0.3-0.5c0.1-0.1,0.2-0.3,0.2-0.5
		C193,115.2,192.7,115.1,192.2,115.1z M193.4,104.1v0.2h0.5v-0.2H193.4z M194.6,145.8c0-0.1,0.1-0.2,0.2-0.3
		c0.1-0.1,0.1-0.2,0.1-0.3l-0.5-0.3c-0.1,0.1-0.1,0.1-0.1,0v0.2C194.2,145.3,194.3,145.6,194.6,145.8z M194.4,118.9c0,0,0.3,0,0.8,0
		l0.5-0.2c0.2-0.1,0.3-0.1,0.5-0.2l0.4-0.1v-0.5l-0.3-0.3l-0.4-0.2c-0.3-0.1-0.4-0.2-0.6-0.2c-0.2,0-0.4,0.1-0.5,0.4
		c-0.2,0.2-0.3,0.4-0.3,0.6C194.4,118.6,194.4,118.9,194.4,118.9z M195.6,116.6v-0.2l0.1-0.1c0-0.1,0-0.1,0.1-0.1V116h-1l-0.2,0.4
		L195.6,116.6z M196.5,119.5l-0.6,0.2c-0.2,0-0.4-0.1-0.6-0.3l-0.1-0.1H195c-0.3,0.3-0.4,0.7-0.4,1l0.6,0.3c0.4,0.1,0.6,0.2,0.7,0.3
		l0.4-0.3c0-0.3-0.1-0.4-0.3-0.5l0.2-0.1v-0.1h0.3c0-0.1,0.1-0.1,0.2-0.2l0.2-0.2C196.9,119.5,196.5,119.5,196.5,119.5z M197,124.8
		L197,124.8v0.2l0.2-0.1L197,124.8z"/>
	<path class="st1" d="M255.4,93.9c-1,12.2-1.5,40.7-1.7,46.9c-0.2,5.5-0.3,13.7-0.3,24.5c0,1.1-0.6,1.6-1.8,1.6h-13.4
		c-0.5,0-0.9-0.1-1.3-0.4c-0.4-0.3-0.5-0.7-0.5-1.2v-1c0.2-0.1,0.4-0.2,0.4-0.2v-0.2h-0.3l0.1-2.3l0.4-0.2c0-0.1,0-0.1-0.1-0.2
		c-0.1-0.1-0.2-0.1-0.2-0.2l1-16.9l-1.7,0.2l-1.6,0.2c-0.4,0-0.8,0.1-1.3,0.2c-0.3,0-0.8,0.1-1.4,0.2c-1.6,0.4-3.7,1-6.2,1.8
		l-0.4,19.2c0,1.1-0.6,1.6-1.8,1.6l-13.3,0.2c-0.6,0-1.1-0.2-1.4-0.5s-0.5-0.8-0.5-1.3l4-52.7c0.1-1,0.7-1.5,1.8-1.5l11.6-0.2
		c0.6,0,1.1,0.2,1.4,0.5c0.4,0.3,0.5,0.7,0.5,1.2l-1.4,19.3l3.5-0.1l0.2,0.2c0,0.1,0.2,0.2,0.5,0.2c0.2,0,0.3-0.1,0.4-0.3l-0.5-0.1
		l8.4-0.3l1.3-38.5c0.1-1,0.7-1.5,1.8-1.5h12.2c0.5,0,0.9,0.2,1.4,0.5C255.3,93.1,255.5,93.5,255.4,93.9z M211.3,159.7
		c-0.2,0-0.3,0.1-0.3,0.2c0.2,0.2,0.5,0.3,1,0.3l0.3-0.1v-0.3C211.8,159.7,211.5,159.7,211.3,159.7z M213.6,153.7v-0.2h-0.2v0.2
		H213.6z M213.6,154.2l-0.2,0.1l0.2,0.1l0.2-0.1L213.6,154.2z M213.6,158.9v-0.4h-0.2v0.4H213.6z M213.7,161.5h-0.3v0.9
		c0-0.2,0-0.3,0.1-0.4c0-0.1,0-0.2,0.1-0.2L213.7,161.5z M216.4,115.7c0-0.1,0-0.1-0.1-0.2s-0.1-0.1-0.2-0.1
		c-0.1-0.1-0.2-0.2-0.2-0.2l0.1-0.2v-0.2l-0.5,0.1l-0.3,0.1v0.8c0.1,0.2,0.3,0.2,0.5,0.2L216.4,115.7z M216.1,155.4l-0.2-0.1h-0.5
		c0,0.2,0,0.2,0.1,0.2c0.2,0,0.3,0,0.4,0.1C216,155.6,216.1,155.6,216.1,155.4z M216.9,117.6v-0.4h-0.3v0.4H216.9z M216.8,146.2
		c0,0,0.1,0.1,0.2,0.3c0.1,0.1,0.2,0.2,0.2,0.3s0.1,0.1,0.1,0.2c0.1,0,0.2,0,0.3-0.1l0.5-0.2c0.2-0.2,0.4-0.3,0.4-0.5
		s-0.1-0.3-0.2-0.3c-0.1,0-0.1-0.1-0.2-0.2l-1.4,0.3C216.7,146.2,216.8,146.2,216.8,146.2z M218.6,158.1
		C218.6,158.1,218.6,158,218.6,158.1c0-0.2-0.1-0.3-0.4-0.4c-0.2,0-0.4,0-0.5-0.1c-0.2,0.1-0.4,0.2-0.4,0.4c0,0.1,0,0.2,0.1,0.2
		l0.1,0.1h0.8C218.5,158.1,218.6,158.1,218.6,158.1z M224.6,114.6l-1.7-0.2h-0.2l-0.8,0.1h-0.5c-0.2,0.1-0.5,0.1-0.9,0.1H220
		c-0.2,0-0.3,0-0.3-0.1v-0.2H219c-0.3,0.3-0.5,0.4-0.6,0.4c-0.1-0.1-0.3,0-0.7,0.1c0.6,0.2,1.1,0.3,1.5,0.3l0.6-0.2l0.6-0.1
		c0.1,0,0.2,0,0.3,0s0.4,0,0.7,0l3.1,0.1l0.3,0.2c0.1,0.1,0.2,0.1,0.4,0.1l0.3-0.2C225.2,114.9,224.9,114.8,224.6,114.6z
		 M218.5,121.9L218.5,121.9l-0.3,0.2l0.2,0.1L218.5,121.9z M219.5,156c0.2-0.1,0.4-0.3,0.5-0.4l-0.2,0.1c0,0.1-0.1,0.1-0.4,0.1
		c-0.1,0-0.2,0-0.2-0.1l-0.4-0.1c-0.3,0-0.5,0.2-0.6,0.5l0.4,0.1c0,0.1,0.1,0.1,0.3,0.1C219.1,156.2,219.3,156.1,219.5,156z
		 M220.6,145.4l0.5,0.1v-0.1l-0.1-0.1v-0.1c-0.2,0.1-0.4,0.1-0.7,0.1h-0.5L220.6,145.4z M220.9,151h0.5l0.6-0.3c0-0.1,0-0.1-0.1-0.2
		c-0.1-0.1-0.2-0.1-0.3-0.1C221.1,150.7,220.9,150.9,220.9,151z M221.9,155.8c0,0-0.1-0.1-0.2-0.2l-0.2-0.2c0,0.1-0.1,0.2-0.2,0.2
		c0,0.1,0.1,0.1,0.2,0.1h0.2C221.8,155.8,221.9,155.8,221.9,155.8z M222.3,145.7v-0.2c-0.1-0.1-0.2-0.1-0.5-0.1l-0.2,0.1l-0.1,0.1
		h-0.2v0.3h0.2C221.9,145.9,222.2,145.8,222.3,145.7z M222.3,154.3c0-0.2-0.2-0.3-0.5-0.4l-0.2,0.1l-0.1,0.2l0.1,0.2l0.1,0.3
		C222.1,154.6,222.3,154.4,222.3,154.3z M222.6,156.7L222.6,156.7l-0.3,0.1L222.6,156.7C222.7,156.8,222.6,156.7,222.6,156.7z
		 M223.3,123.2c-0.1-0.1-0.1-0.2,0-0.3c0-0.2,0-0.3-0.1-0.3h-0.4l-0.5,0.2v0.5l0.9,0.3h0.2l0.1-0.1
		C223.6,123.4,223.5,123.3,223.3,123.2z M222.8,146.5l-0.3-0.1h-0.1l0.2,0.2L222.8,146.5z M222.7,148.8v0.2h0.5l0.3-0.2H222.7z
		 M223.7,158.7v0.2h0.5v-0.2H223.7z M229.5,137.2c-0.1,0-0.2,0.1-0.2,0.2h0.5L229.5,137.2z M230,136.1l-0.1-0.2l-0.2,0.1h-0.1
		l0.3,0.2C229.9,136.2,229.9,136.1,230,136.1z M230.5,134.4H230c-0.2,0.1-0.3,0.2-0.3,0.3C230.1,134.9,230.3,134.8,230.5,134.4z
		 M229.9,135.3v0.2h0.5v-0.2H229.9z M230.4,138.2v0.2h0.2v-0.2H230.4z M232,135.6C232,135.6,232,135.5,232,135.6l-0.1-0.3
		c-0.1,0-0.1,0-0.1-0.1l-0.6,0.2c-0.1,0-0.2,0-0.2,0.1s0,0.1,0,0.2c0,0.1,0,0.1,0,0.2l0.3,0.4l0.2-0.2
		C231.9,135.7,232,135.6,232,135.6z M232,133.5c-0.2-0.2-0.5-0.3-0.7-0.3c-0.1,0.1-0.1,0.1-0.2,0.1v0.2c0,0.1,0.1,0.1,0.3,0.2
		c0.4,0.2,0.5,0.2,0.5,0.2l0.1-0.2L232,133.5z M232.9,135c0.1,0.1,0.2,0.1,0.4,0.1l0.3-0.2l-0.1-0.2l-0.1-0.1h-0.7v0.1l-0.1,0.1
		C232.6,134.9,232.7,135,232.9,135z M236.6,138.1c-0.2-0.3-0.5-0.5-0.9-0.5h-0.2c0,0.1-0.1,0.1-0.2,0.1c-0.2,0-0.4-0.1-0.5-0.2
		c0.3-0.2,0.6-0.2,0.8-0.2s0.4,0.1,0.5,0.3c0-0.1,0.1-0.2,0.2-0.4c0.1-0.2,0.2-0.3,0.4-0.3h-0.5L236,137c-0.2,0-0.4-0.1-0.6-0.2
		c-0.2-0.1-0.2-0.2-0.2-0.3c0,0.3-0.2,0.5-0.6,0.5v-0.1H234c-0.1,0-0.2,0.1-0.3,0.2h-0.1l-0.1,0.1c-0.3,0-0.5,0.1-0.5,0.3l0.5,0.1
		c0.1,0.2,0.4,0.4,0.7,0.5c0.2,0.1,0.6,0.2,1.1,0.5h1.2v-0.5H236.6z M234.3,133.8h0.2l-0.2-0.2l-0.2,0.1L234.3,133.8z M234.9,138.9
		v0.2h0.2v-0.2H234.9z M238.3,135.5c-0.2,0-0.4,0-0.4-0.1c-0.2,0.2-0.4,0.2-0.5,0.2s-0.4-0.1-0.5-0.2c-0.1,0.1-0.2,0.1-0.4,0.3
		c-0.2,0.1-0.3,0.2-0.3,0.3c0,0.2,0.1,0.3,0.2,0.4c0.7-0.1,1.1-0.2,1.2-0.3C237.8,135.8,238,135.6,238.3,135.5z M237.5,140.2
		L237.5,140.2H237l-0.7-0.2l-0.1,0.4l0.1,0.1l0.2,0.1l0.4,0.1c0.1,0,0.3-0.1,0.5-0.2C237.4,140.2,237.5,140.2,237.5,140.2z
		 M237.9,163.3l-0.4-0.1c-0.2,0.1-0.3,0.1-0.2,0.2c0,0.1,0.1,0.2,0.2,0.2l0.9-0.2C238.2,163.4,238,163.3,237.9,163.3z M237.9,136.5
		l0.5,0.2v-0.1l-0.4-0.2L237.9,136.5z M238,159.8L238,159.8l0.5-0.1c0-0.1-0.1-0.2-0.4-0.2H238l-0.1,0.1L238,159.8L238,159.8z
		 M238.5,154.4c0.1-0.1,0.2-0.1,0.3-0.1v-0.2h-0.4c-0.2,0.1-0.4,0.2-0.4,0.2C238.2,154.4,238.4,154.4,238.5,154.4z M239.3,140.6
		v-0.4h-0.8l-0.2,0.2l0.4,0.2l0.4,0.1L239.3,140.6z M239,151.1L239,151.1l-0.4-0.2c-0.2,0.1-0.4,0.2-0.4,0.3h0.5
		C238.9,151.2,239,151.2,239,151.1z M239.3,164.4c0.3-0.1,0.6-0.2,0.8-0.5v-0.2H240c-0.1,0-0.2,0-0.3,0.1l-0.4,0.1l-0.5-0.2
		c-0.2,0.1-0.3,0.2-0.4,0.4c-0.1,0.2-0.1,0.4,0,0.5C238.8,164.5,239.1,164.4,239.3,164.4z M239.4,137.7c-0.1-0.2-0.2-0.2-0.5-0.2
		l-0.2,0.2H239.4z M239.5,138.5H239v0.2h0.5V138.5z M239.6,135.9C239.6,135.9,239.7,135.9,239.6,135.9l0.2,0.2l0.3-0.2H239.6
		L239.6,135.9z M241.2,165.6c-0.5,0-0.9-0.2-1.3-0.5c-0.2,0.2-0.3,0.3-0.3,0.4c0,0.1,0.1,0.2,0.3,0.3s0.4,0.2,0.5,0.2h0.4
		C240.9,166,241,165.8,241.2,165.6z M240.4,162l0.2-0.2l-0.5-0.1C240,161.9,240,162,240.4,162z M240.6,142l0.2,0.4
		c0.1-0.1,0.2-0.1,0.2-0.2s0-0.1,0.1-0.2C241,142,240.9,142,240.6,142z M241.3,156.9l-0.2,0.1l0.2,0.1l0.2-0.1L241.3,156.9z
		 M241.4,98.8c0,0,0.1,0.1,0.4,0.3l0.5-0.3l-0.2-0.2h-0.6C241.4,98.7,241.4,98.8,241.4,98.8z M242.7,138c0.1,0,0.2,0,0.3-0.1
		l0.2-0.1l-0.2-0.2c-0.1,0-0.2,0-0.3-0.1h-0.3c-0.1,0-0.2,0-0.3,0s-0.3,0-0.5,0l-0.2,0.4l0.4,0.2h0.4
		C242.4,138.1,242.6,138,242.7,138z M241.8,122.6v0.2h0.6v-0.2H241.8z M242.2,123.8h0.7v-0.2h-0.7V123.8z M243.4,148.1l-0.3-0.2
		h-0.5l0.2,0.5h0.5l0.1-0.1h0.2C243.6,148.3,243.5,148.3,243.4,148.1z M243.6,159.2c-0.2-0.1-0.3-0.2-0.3-0.2l-0.4-0.2
		C243,159.1,243.2,159.2,243.6,159.2z M245.3,156.5c-0.1,0.3-0.2,0.4-0.3,0.4c-0.1-0.1-0.3-0.1-0.5-0.1H244c0.1,0.1,0.1,0.1,0.1,0.2
		c0,0.1,0.1,0.1,0.1,0.1c0.1,0.1,0.2,0.2,0.4,0.2c0.1,0,0.2,0,0.3-0.1l0.4-0.1h0.2l0.2-0.2v-0.2L245.3,156.5z M245.2,141.4l0.3-0.2
		c-0.1,0-0.2-0.1-0.3-0.2h-0.9l-0.1,0.1v0.3L245.2,141.4z M244.7,150.7v-0.2l-0.2-0.3h-0.3v0.6h0.5V150.7z M244.7,159.7
		c-0.1-0.1-0.1-0.2-0.1-0.3c0,0.1,0,0.2-0.1,0.4s-0.1,0.3,0,0.4h0.5C244.9,160.2,244.8,160,244.7,159.7z M244.4,144.9h0.2l0.1-0.3
		h-0.2L244.4,144.9z M244.7,101.9v-0.3h-0.2v0.3H244.7z M245.2,100.4v-0.2H245v0.2H245.2z M245.5,155.2c-0.1-0.1-0.2-0.2-0.3-0.2
		c0,0.3,0,0.5,0.1,0.6v0.2c0.1-0.1,0.2-0.1,0.5-0.1v-0.4L245.5,155.2z M245.6,151.6c0.1-0.1,0.1-0.1,0.1-0.2c-0.2,0-0.4,0.1-0.5,0.3
		C245.4,151.7,245.5,151.7,245.6,151.6z M246.4,165l-0.3-0.2h-0.3v0.2H246.4z M246.2,154.5L246.2,154.5l0.2,0.2l0.4-0.2v-0.1
		l-0.1-0.1l-0.1-0.1c-0.1,0-0.1,0-0.1,0.1h-0.1C246.3,154.5,246.2,154.5,246.2,154.5z M246.9,156l-0.1-0.3c-0.3,0.1-0.5,0.2-0.5,0.3
		l0.5,0.2V156H246.9z M247.1,158.7c0.2,0,0.3,0,0.4-0.1c0-0.1,0-0.2,0.1-0.2c-0.1-0.1-0.3-0.2-0.5-0.2l-0.4-0.2l-0.4,0.3
		C246.7,158.6,246.9,158.7,247.1,158.7z M246.9,163.1l0.3-0.2c-0.1,0-0.2-0.1-0.2-0.2h-0.5c-0.1,0-0.2,0.1-0.2,0.2
		c0.1,0.1,0.2,0.2,0.3,0.2H246.9z M246.9,99.3V99h-0.3v0.3H246.9z M246.7,128.1c0,0,0.1,0.1,0.4,0.2l0.5,0.3l-0.5-0.4l-0.5-0.2
		C246.7,128.1,246.7,128.1,246.7,128.1z M248.2,160.9l-0.2-0.3c-0.1,0.1-0.2,0.2-0.3,0.2l-0.3,0.2c-0.4,0.2-0.5,0.3-0.5,0.4
		c0.2,0,0.4,0,0.4,0.1c-0.1,0.1,0,0.2,0.1,0.3h0.2c0-0.1,0.1-0.1,0.2-0.1c-0.1-0.2-0.1-0.3,0.2-0.4
		C248.1,161.1,248.2,161,248.2,160.9z M247.2,142.4c0.1,0,0.2-0.1,0.5-0.3l-0.2-0.1l-0.1-0.2c-0.2,0-0.4,0.1-0.4,0.2
		C247,142.3,247.1,142.3,247.2,142.4C247.1,142.3,247.2,142.4,247.2,142.4z M248.1,165.2c0,0-0.1-0.1-0.4-0.2
		c-0.1-0.1-0.2-0.1-0.4-0.1c-0.1,0-0.2,0-0.2,0.1l-0.1,0.1v0.2l0.1,0.2l0.1,0.1l0.9-0.2L248.1,165.2L248.1,165.2z M249.5,156
		c-0.1-0.1-0.2-0.2-0.3-0.2l-0.4,0.2l-0.1,0.1h-0.1l-0.3-0.1c0-0.1,0-0.2,0.1-0.2l0.1-0.1l0.1-0.1h-0.3c-0.1-0.1-0.2-0.1-0.3,0
		c-0.1,0-0.2,0-0.3,0l0.2,0.5c0,0.1,0,0.1,0,0.2c0,0.1,0.1,0.2,0.2,0.3c0.2,0,0.3,0,0.3-0.1h0.4c0.3,0,0.5,0,0.6,0.1l0.2-0.4
		C249.5,156,249.5,156,249.5,156z M248.7,162.9v0.4h0.2v-0.4H248.7z M251.5,142.8v1.5c0,0.1,0.1,0.2,0.2,0.2c0.2,0.1,0.3,0.1,0.4,0
		v-1.7H251.5z"/>
	<path class="st0" d="M290.8,97.9c1,0.3,0.8,0.2,0.7,0.4c0,0.1,0,0.1,0,0.2c23-0.6-0.8-12-6.3-5.8c-4.2,6.1,1.5,4.7,1.1,5.7
		c1.7,0.1,3.2,0.1,4.5,0C290.7,98.1,290.9,97.9,290.8,97.9z M295.2,98.1C295.2,98.2,295.2,98.2,295.2,98.1
		C295.1,98.2,295.2,98.2,295.2,98.1s0.1-0.2,0.1-0.2C295.5,98,295.3,98.1,295.2,98.1z M288.6,92.5h-0.3c0.4-1,1.3-0.1,1.1-0.1
		C288.6,92.6,288.8,92.5,288.6,92.5z M297.8,92.8c0.1,0,0.4,0,0.8,0.2C296.5,93.8,297.2,92.9,297.8,92.8z M285.4,96l0.1-0.6
		c1.2,0,0.3,0.6,0.6,0.5L285.4,96z M289.6,95.8l-0.1-0.4h0.2l0.1,0.4H289.6z M289.4,97.8C289.8,99.2,288.1,97.9,289.4,97.8
		L289.4,97.8z"/>
	<path class="st0" d="M333.8,97.9c1,0.3,0.8,0.2,0.7,0.4c0,0.1,0,0.1,0,0.2c23-0.6-0.8-12-6.3-5.8c-4.2,6.1,1.5,4.7,1.1,5.7
		c1.7,0.1,3.2,0.1,4.5,0C333.6,98.1,333.8,97.9,333.8,97.9z M338.1,98.1C338.1,98.2,338.1,98.2,338.1,98.1
		C338.1,98.2,338.1,98.2,338.1,98.1s0.1-0.2,0.1-0.2C338.4,98,338.2,98.1,338.1,98.1z M331.5,92.5h-0.3c0.4-1,1.3-0.1,1.1-0.1
		C331.6,92.6,331.8,92.5,331.5,92.5z M340.8,92.8c0.1,0,0.4,0,0.8,0.2C339.5,93.8,340.1,92.9,340.8,92.8z M328.3,96l0.1-0.6
		c1.2,0,0.3,0.6,0.6,0.5L328.3,96z M332.5,95.8l-0.1-0.4h0.2l0.1,0.4H332.5z M332.3,97.8C332.7,99.2,331.1,97.9,332.3,97.8
		L332.3,97.8z"/>
	<path class="st1" d="M374.2,105.5l-2.2,42.6l20.7-0.3c0.5,0,1,0.2,1.4,0.5c0.4,0.4,0.5,0.8,0.5,1.4l-0.3,13c0,1.2-0.6,1.8-1.8,1.8
		l-34.6,1.7c-0.5,0-1-0.2-1.4-0.5c-0.4-0.4-0.5-0.8-0.5-1.4l2.8-59.3c0.1-1.1,0.7-1.7,1.9-1.7l11.6,0.3c0.5,0,0.9,0.2,1.3,0.6
		C374,104.6,374.2,105.1,374.2,105.5z M361.2,159.6H361l0.1,0.2L361.2,159.6L361.2,159.6z M361.6,159.6l1.1,0.2l0.4-0.4l-0.2-0.1
		l-0.4-0.1C362.2,159.2,361.9,159.4,361.6,159.6z M362,160.7l-0.4,0.1v0.2L362,160.7L362,160.7z M364.3,144.8c0-0.2-0.2-0.3-0.5-0.5
		c-0.3-0.1-0.5-0.2-0.6-0.2c-0.2,0-0.5,0.1-0.7,0.4c-0.2,0.2-0.3,0.5-0.3,0.6l0.1,0.4c0.1,0.1,0.3,0.2,0.7,0.2
		c0.2,0,0.5-0.1,0.8-0.3C364.2,145.2,364.3,145,364.3,144.8z M363.8,153.4v-0.5l-0.7-0.1v0.5h0.5
		C363.6,153.3,363.7,153.4,363.8,153.4z M365.8,156.2v-0.4c-0.1,0-0.2,0-0.2-0.1l-0.2-0.1c-0.2,0-0.4,0.1-0.4,0.4
		c0,0.1,0,0.2,0.1,0.2l0.3,0.2C365.4,156.2,365.5,156.2,365.8,156.2z M366.9,132.2v-0.4h-0.3l-0.4,0.2c0.1,0,0.1,0.1,0.2,0.2
		c0,0.1,0,0.1,0.1,0.1C366.7,132.3,366.8,132.3,366.9,132.2L366.9,132.2z M367.3,158.2l0.4-0.3c-0.1,0-0.2-0.1-0.2-0.2
		c0-0.1,0-0.1-0.1-0.2c-0.1-0.1-0.2-0.1-0.2,0c-0.1,0.1-0.2,0.1-0.3,0.1c0,0.1,0,0.1,0.1,0.1s0.1,0.1,0.2,0.1
		C367.2,158,367.2,158,367.3,158.2L367.3,158.2z M367.8,157.3v-0.6h-0.2c-0.1-0.1-0.2-0.1-0.3-0.1c-0.1,0.2-0.1,0.5,0,0.9
		C367.5,157.3,367.6,157.3,367.8,157.3z M368.9,160.5v-0.4l-0.2-0.1h-0.5l-0.1,0.1c-0.1,0-0.1,0.1-0.1,0.2c0,0.2,0,0.3,0.1,0.3
		s0.2,0.1,0.3,0.2c0-0.1,0.1-0.2,0.2-0.2S368.8,160.6,368.9,160.5C368.8,160.6,368.9,160.6,368.9,160.5z M368.8,161.4L368.8,161.4
		l-0.3-0.2v0.3C368.7,161.5,368.8,161.5,368.8,161.4z M369.7,154v-0.3l-0.7-0.1v0.2L369.7,154z M370.4,127.5l-0.8-0.1v0.5h0.5
		c0.1,0,0.2-0.1,0.3-0.2C370.4,127.5,370.4,127.5,370.4,127.5z M370,107.9l-0.2,0.3l0.2,0.1l0.2-0.4H370z M371.2,161h-0.4l-0.4-0.1
		v0.2v0.2c0.1-0.1,0.3-0.1,0.5-0.1s0.3,0,0.3,0S371.2,161.1,371.2,161z M372.6,155.4l-0.4-0.2v0.3c0,0.1,0.1,0.2,0.2,0.3
		c0.1,0,0.2,0,0.3-0.1C372.8,155.6,372.7,155.5,372.6,155.4z M373.2,124.2v-0.4H373c0-0.1-0.1-0.1-0.2-0.1c-0.2,0-0.4,0.1-0.4,0.4
		c0,0.1,0,0.1,0.1,0.1c0,0.1,0.1,0.2,0.3,0.2l0.2-0.1L373.2,124.2z M374.6,155.1h-0.5c-0.2,0.1-0.3,0.2-0.4,0.4
		c0.1,0.1,0.2,0.1,0.3,0.1h0.3v-0.2l0.2-0.1v-0.1L374.6,155.1z M376.4,156.6l-0.5,0.2c-0.3,0.1-0.5,0.2-0.5,0.4
		c0,0.4,0.2,0.6,0.7,0.6c0.2,0,0.4-0.1,0.7-0.2c0.3-0.1,0.4-0.3,0.4-0.5C377,156.8,376.7,156.6,376.4,156.6z M376.6,155.4l-0.6-0.2
		l-0.1,0.3l0.5,0.2L376.6,155.4z M375.9,159.3l0.6,0.1l0.2-0.2l-0.2-0.1V159h-0.4C376,159.1,375.9,159.2,375.9,159.3z M378.5,161.1
		v-0.3l-0.4-0.2c-0.1-0.1-0.2-0.2-0.3-0.2c-0.2,0-0.3,0-0.5,0.1s-0.3,0.2-0.3,0.3v0.3h0.4c0.1,0,0.1,0,0.2,0s0.2,0,0.2,0
		C378.1,161.2,378.3,161.2,378.5,161.1z M378.6,154.1l-0.3-0.3h-0.6l-0.3,0.4c0.1,0.2,0.4,0.3,0.7,0.3c0.1,0,0.2,0,0.3-0.1
		C378.5,154.2,378.6,154.2,378.6,154.1z M391.1,160.2c0.1-0.1,0.2-0.1,0.1-0.2c0-0.1-0.1-0.1-0.1-0.1c-0.1,0-0.2,0.1-0.2,0.3
		C390.9,160.3,391,160.4,391.1,160.2z"/>
	<g>
		<path class="st0" d="M351.3,131.6L351.3,131.6L351.3,131.6L351.3,131.6z"/>
		<path class="st0" d="M350.9,131.7c-0.4,0-0.6,0-0.7,0.1l0.1-0.2l0.2-0.2l0.9,0.2c0-0.5,0-1,0-1.5c0-6.3-1.1-11.8-3.3-16.6
			c-1.4-2.9-3.6-5.3-6.5-7.1c-2.9-1.8-6.3-2.7-10.1-2.7c-3.6,0-7,1.1-10.1,3.2c-6,4.3-10,11.8-12.1,22.5l-6.3,0.5
			c0-6.2-1.1-11.6-3.3-16.4c-1.4-2.9-3.6-5.3-6.5-7.1c-2.9-1.8-6.3-2.7-10.1-2.7c-3.6,0-7,1.1-10.1,3.2
			c-6.5,4.6-10.7,13.1-12.6,25.4c-0.6,3.7-0.9,7.7-0.7,11.5c0.1,2.2,0.3,4.2,0.6,5.9v-0.2c0.2,0.1,0.3,0.2,0.3,0.3
			c-0.1,0.1-0.1,0.2-0.1,0.3l-0.1,0.2c0.7,3.4,2,6.5,3.7,9.2c0,0.1,0.2,0.3,0.5,0.7h0.2v0.2c3.5,4.9,8.4,7.3,14.5,7.3
			c6.8,0,12.3-2.8,16.4-8.4l1.3-1.7l-0.2-0.3l0.5-0.5c1.1-1.7,2.1-4,3.2-6.9l-0.3-0.2c0-0.1,0-0.1,0.1,0c0.1,0,0.2,0,0.2-0.1
			c0.2-0.5,0.4-1,0.5-1.4h-0.5c0-0.1,0.5-0.1,0.5-0.1l0.6-2.6c-0.3-0.1-0.5-0.2-0.5-0.4h-0.5c-0.1-0.1-0.2-0.1-0.5-0.1
			c0-0.1,0.1-0.4,0.1-0.4h0.8c0,0.1,0.1,0.2,0.3,0.4l0.3,0.3c0.3-1.5,0.5-2.8,0.7-4.1l5.8,0.3c0,0.8,0,1.6,0,2.4
			c0.1,2.2,0.3,4.2,0.6,5.9v-0.2c0.2,0.1,0.3,0.2,0.3,0.3c-0.1,0.1-0.1,0.2-0.1,0.3l-0.1,0.2c0.7,3.4,2,6.5,3.7,9.2
			c0,0.1,0.2,0.3,0.5,0.7h0.2v0.2c3.5,4.9,8.4,7.3,14.5,7.3c6.8,0,12.3-2.8,16.4-8.4l1.3-1.7l-0.2-0.3l0.5-0.5
			c1.1-1.7,2.1-4,3.2-6.9l-0.3-0.2c0-0.1,0-0.1,0.1,0c0.1,0,0.2,0,0.2-0.1c0.2-0.5,0.4-1,0.5-1.4h-0.5c0-0.1,0.5-0.1,0.5-0.1
			l0.6-2.6c-0.3-0.1-0.5-0.2-0.5-0.4H349c-0.1-0.1-0.2-0.1-0.5-0.1c0-0.1,0.1-0.4,0.1-0.4h0.8c0,0.1,0.1,0.2,0.3,0.4l0.3,0.3
			c0.7-3.5,1.1-6.7,1.3-9.6c-0.1,0-0.1-0.3-0.1-0.3c0.2-0.9,0.2-2.1,0.3-3.6C351.1,131.6,351,131.6,350.9,131.7z M263.6,146.5
			l0.3-0.2v0.7c-0.2-0.1-0.3-0.2-0.4-0.4C263.6,146.6,263.6,146.5,263.6,146.5z M260.6,145l-0.4-0.2c-0.1-0.1-0.2-0.2-0.2-0.3
			s0.1-0.2,0.2-0.2h0.4c0.1,0.1,0.2,0.2,0.1,0.4C260.6,144.8,260.6,144.8,260.6,145z M260.9,143.8h-0.2v-2.3h0.2V143.8z M261.2,133
			H261v-0.4h0.2V133z M261.4,131.7c0,0,0,0.1,0,0.3l-0.3-0.1l-0.2-0.2c0-0.1,0.2-0.3,0.5-0.6c0.1,0.1,0.1,0.3,0.1,0.5
			C261.4,131.6,261.4,131.7,261.4,131.7z M263.3,144.3l-0.5-0.1v-0.1h0.5V144.3z M263.6,147.6C263.6,147.5,263.6,147.5,263.6,147.6
			c0.4,0,0.5,0.2,0.4,0.4s0.1,0.4,0.4,0.5v0.3c-0.2,0-0.3,0-0.4,0.1c-0.1,0-0.1-0.1-0.1-0.4c0.1-0.1,0.1-0.1,0-0.2
			c0-0.1,0-0.1,0-0.2c-0.1-0.1-0.2-0.2-0.3-0.2c-0.1,0-0.1-0.1-0.1-0.2L263.6,147.6z M263.6,149.6
			C263.6,149.6,263.6,149.5,263.6,149.6l0.3-0.2l0.1-0.2h0.4c0,0.1,0,0.3,0,0.5s0,0.4,0,0.5v1.1c-0.2,0-0.3,0-0.4,0.1l-0.2-0.1
			l0.1-0.1l0.3-0.2c-0.2-0.2-0.3-0.4-0.4-0.6c-0.1-0.2-0.1-0.5-0.1-0.6C263.6,149.6,263.6,149.6,263.6,149.6z M264.3,152.5l-0.2,0.2
			l-0.2,0.2v-0.4H264.3z M264.6,158.7l-0.3,0.1c-0.1,0-0.2,0-0.2,0.1h-0.3v-0.5c0.1,0,0.2,0,0.2-0.1h0.4l0.2,0.1L264.6,158.7
			L264.6,158.7z M264.4,157.8c-0.2,0.2-0.3,0.2-0.3,0.2s0,0,0,0.1L264,158l-0.1-0.1l0.1-0.2l0.4-0.2l-0.5-0.2c0-0.2-0.1-0.5-0.2-0.7
			l-0.1-0.5c0-0.3,0-0.5,0.1-0.5c0.1-0.1,0.2-0.2,0.5-0.4c-0.1-0.1-0.3-0.2-0.5-0.2l0.1-1.6c0.1,0.1,0.1,0.2,0.1,0.4v0.5
			c0,0.1,0.2,0.2,0.6,0.4c0,0.7-0.1,1.3-0.2,1.9c-0.2,0-0.3,0.1-0.5,0.2c0.1,0.1,0.2,0.2,0.3,0.1h0.3c0,0.2,0,0.3,0.1,0.3l0.1,0.4
			C264.7,157.6,264.6,157.7,264.4,157.8z M264.9,145.9l-0.3,0.3h-0.8c-0.1-0.2-0.2-0.4-0.2-0.5s0.1-0.3,0.2-0.5s0.3-0.4,0.5-0.4
			s0.4,0,0.4,0.1h0.2L264.9,145.9L264.9,145.9z M270.3,140c-0.2-0.2-0.2-0.3-0.2-0.5l0.2,0.3C270.4,139.8,270.4,139.9,270.3,140z
			 M299.3,143.3L299.3,143.3l0.2,0.2H299L299.3,143.3z M298.5,141.1c-0.4,0.1-0.7,0.1-0.9,0c-0.2,0-0.4-0.1-0.4-0.4
			c0,0,0-0.1-0.1-0.1l1.2,0.1C298.4,140.8,298.4,141,298.5,141.1z M295.8,147c0.1,0.1,0.2,0.1,0.3,0.1c0,0.2-0.1,0.3-0.4,0.4
			l-0.2-0.5H295.8z M295.6,146.7v-0.5h0.3v0.5H295.6z M295.9,145.4c-0.1,0-0.2,0-0.3,0.1c-0.1-0.1-0.1-0.4-0.1-1
			c0.1,0.1,0.2,0.2,0.2,0.4L295.9,145.4L295.9,145.4z M295.8,144.2l-0.3-0.1c0.3-0.2,0.6-0.3,0.8-0.3c0.5,0.1,0.7,0,0.5-0.4h0.1h0.2
			c-0.1,0-0.2,0.1-0.2,0.2l0.1,0.4l-0.2,0.5c-0.1-0.1-0.3-0.2-0.5-0.2C296.1,144.2,295.9,144.2,295.8,144.2z M296.3,144.6h0.5
			c0.1,0.1,0.3,0.1,0.6,0.1c-0.1,0-0.2,0.1-0.2,0.2L297,145h-0.9L296.3,144.6z M297.3,142.9c-0.3,0-0.5,0-0.6-0.1
			c-0.2-0.1-0.5-0.1-0.9-0.1v-0.5c0.1,0,0.2,0,0.3-0.1l0.2-0.2l0.5,0.3l0.5,0.2c0.2,0,0.6-0.1,1-0.4c0,0.1,0,0.1-0.1,0.2
			c-0.1,0.1-0.1,0.2-0.2,0.3c-0.1,0.2-0.1,0.4-0.1,0.4S297.6,142.9,297.3,142.9z M296.7,137.7l0.2-0.1l-0.2,0.4
			C296.7,137.9,296.7,137.9,296.7,137.7z M296,139.4L296,139.4l-0.7,0.1v-0.2L296,139.4L296,139.4z M295.6,140.5L295.6,140.5
			l0.1,0.1c0,0.1-0.1,0.1-0.2,0.2c-0.1,0-0.2-0.1-0.2-0.3H295.6z M297.9,134c0,0.2-0.1,0.3-0.2,0.5l-0.2-0.2
			c-0.1-0.1-0.1-0.1-0.1-0.3H297.9z M296.2,133.9c0.1,0,0.2-0.1,0.4-0.2c0.2,0.2,0.2,0.4,0,0.6c-0.2-0.2-0.4-0.4-0.6-0.4
			L296.2,133.9z M295.4,134.9l0.1-0.1l0.2-0.2l1.9,0.5l-0.5,0.4c-0.2,0.1-0.2,0.2,0.2,0.5c-0.4,0.1-0.8,0-1.3-0.2l0.5-0.5
			c-0.1-0.2-0.2-0.4-0.5-0.4c-0.2,0-0.4,0-0.5,0S295.3,134.9,295.4,134.9C295.3,135,295.3,134.9,295.4,134.9z M293.8,139.4
			c0,0,0.2-0.1,0.5-0.3l0.1,0.1h0.1c0,0.1,0,0.1,0.1,0.1c-0.5,0.2-0.7,0.3-0.5,0.5c0.1,0.1,0,0.3-0.1,0.5h-0.3
			c-0.1,0-0.2-0.1-0.2-0.3C293.7,139.6,293.8,139.4,293.8,139.4z M295,140.6L295,140.6l-0.2,0.3l-0.5-0.2v-0.4
			C294.7,140.4,294.9,140.5,295,140.6z M293.4,143.6C293.4,143.6,293.5,143.6,293.4,143.6l0.9,0.2c0,0.3-0.1,0.5-0.3,0.6
			c-0.2,0-0.3,0-0.4-0.1h-0.8c0-0.1,0-0.2-0.1-0.2c-0.1-0.1-0.1-0.1-0.1-0.2c0-0.2,0.1-0.4,0.4-0.4
			C293.3,143.6,293.4,143.6,293.4,143.6z M293.1,142.7c0.4,0,0.6,0.1,0.6,0.2c0,0.2-0.2,0.3-0.5,0.4L293.1,142.7z M293.5,141.4
			c0.2,0,0.4,0.1,0.6,0.4l-0.5,0.4c-0.2-0.1-0.4-0.2-0.4-0.4l0.1-0.2C293.5,141.6,293.5,141.6,293.5,141.4z M293.1,138.5l0.1,0.3
			c0.1,0,0.1,0.1,0.1,0.4h-0.5c-0.2-0.2-0.3-0.4-0.3-0.6L293.1,138.5L293.1,138.5z M292.3,132.6c0.1-0.1,0.2-0.2,0.2-0.4
			c0.1,0.2,0.2,0.5,0.2,0.7h-0.6C292.1,132.9,292.2,132.8,292.3,132.6z M292.1,134.7l0.1-0.3l0.1,0.3c0.1,0.1,0.1,0.1,0,0.1
			S292.1,134.8,292.1,134.7L292.1,134.7z M291.6,131.9h0.3v0.5h-0.3V131.9z M291.7,139l-0.6,0.1v-0.5
			C291.3,138.6,291.5,138.8,291.7,139z M291,108.3h0.5v0.2H291V108.3z M291,125.9l0.3,0.2c0.1,0,0.1,0.1,0.2,0.2
			c-0.1,0-0.2,0-0.3,0.1H291V125.9z M287.6,141.5V141c0.2,0.1,0.6,0.2,1,0.2c0.4,0.1,0.8,0.2,1.2,0.2v0.4c-0.2,0.2-0.4,0.3-0.7,0.3
			c-0.3,0-0.5-0.1-0.7-0.3c-0.1-0.1-0.2-0.3-0.4-0.5L287.6,141.5z M288,142.6c-0.2,0.1-0.4,0.2-0.4,0.3c0-0.1,0-0.2-0.1-0.2
			c0-0.1,0-0.2,0.1-0.2h0.1L288,142.6z M288.2,137.1v-0.7c0.1-0.2,0.2-0.4,0.2-0.5l0.4-0.2l0.5,0.3l0.5,0.3l1.1,0.5
			c-1.1,0.4-1.7,0.5-1.8,0.5l-0.4-0.1L288.2,137.1z M289.1,139.4c0.2,0,0.4,0,0.4,0.1h0.2c-0.2,0.1-0.6,0.2-1.4,0.4l0.3-0.3
			C288.8,139.4,289,139.4,289.1,139.4z M289.5,125.7h-0.7c-0.2-0.1-0.4-0.2-0.4-0.4c0-0.1,0.1-0.2,0.4-0.3l0.4-0.3
			c0.1-0.1,0.1-0.2,0.1-0.3c0-0.1,0-0.2,0.1-0.2c0.4,0,0.7,0.1,0.9,0.3v0.8l-0.4,0.2L289.5,125.7z M288.5,130.8
			c0.3,0,0.5,0.1,0.7,0.3v0.2l-0.2,0.1c-0.2,0-0.4,0-0.5-0.1l-0.5-0.1V131C288,130.9,288.2,130.8,288.5,130.8z M289.1,132.1l0.2,0.5
			l-0.5,0.3c-0.3,0.1-0.5,0.2-0.5,0.3c0-0.1-0.1-0.1-0.2-0.2c-0.1,0-0.2,0-0.2-0.1v-0.3L289.1,132.1z M288.2,134
			c0.1,0.1,0.1,0.2,0.1,0.3l-0.2,0.1l-0.2,0.1c-0.2-0.1-0.2-0.3,0-0.6C288.1,133.9,288.1,133.9,288.2,134z M289.6,138.3
			c-0.3,0-0.5-0.1-0.7-0.4c0.2-0.3,0.5-0.5,1-0.5h0.4l0.2,0.1c0.1,0,0.1,0.1,0.1,0.3c0,0.1-0.1,0.2-0.4,0.3
			C289.9,138.2,289.8,138.3,289.6,138.3z M290.9,141c0,0.1-0.1,0.2-0.3,0.4l-0.2-0.5C290.6,140.8,290.8,140.9,290.9,141z
			 M290.6,135.5c-0.3-0.1-0.5-0.3-0.7-0.5l-0.3-0.4l0.1-0.4c0.1-0.1,0.1-0.2,0-0.3l0.3-0.1c0.1,0,0.1,0,0.2-0.1
			c0.2,0.2,0.3,0.5,0.3,0.6c0,0.3,0.2,0.5,0.5,0.7c0,0.1,0,0.1,0,0.1S290.8,135.3,290.6,135.5z M290.8,131.2L290.8,131.2l-0.1,0.2
			h-0.3c-0.1,0-0.2-0.1-0.3-0.2l0.4-0.1C290.7,131.1,290.8,131.1,290.8,131.2z M287,106.8c0.4,0.1,0.6,0.2,0.8,0.2h0.4
			c0.1,0.1,0.2,0.1,0.4,0.1v0.1l0.2,0.2l-0.6,0.2l-0.8,0.1c-0.2,0-0.4-0.1-0.5-0.4C286.7,107.1,286.8,107,287,106.8z M287.2,107.8
			v0.3c-0.1,0.1,0,0.2,0.1,0.3c0.1,0.1,0.3,0.1,0.5,0l0.2-0.1h0.3c0.2,0,0.4-0.1,0.5-0.3c0.2-0.2,0.3-0.3,0.4-0.3
			c0.1-0.1,0.1-0.1,0.1-0.3c0-0.2,0-0.3,0.1-0.4c0.1,0.1,0.3,0.2,0.5,0.2s0.4,0,0.4,0.1c-0.2,0.2-0.4,0.4-0.5,0.4s-0.3,0.1-0.5,0.2
			l-0.1,0.3c0,0.1-0.1,0.2-0.3,0.2c-0.1,0-0.2,0-0.3,0c-0.1,0-0.3,0-0.6,0c-0.3,0.2-0.4,0.3-0.2,0.5c0.1,0.1,0.1,0.2-0.2,0.2
			c-0.5,0-0.8-0.1-0.8-0.4c0-0.2-0.2-0.3-0.5-0.5C286.3,108.1,286.7,107.9,287.2,107.8z M285,108.1h0.6v0.2H285V108.1z M280.6,109
			c-0.1,0.1-0.2,0.2-0.4,0.2c-0.3,0-0.5-0.2-0.6-0.5v-0.1h0.1v-0.1h0.5C280.2,108.8,280.4,109,280.6,109z M279,107.9h0.9l-0.5,0.4
			H279V107.9z M277.9,120.2c-0.2,0.1-0.4,0.2-0.5,0.2l-0.2-0.5h0.6L277.9,120.2z M277.3,107.9l0.1,0.2l0.1,0.1l-0.4,0.2l-0.3-0.1
			c-0.1,0-0.1-0.1-0.1-0.2l-0.1-0.1c-0.1-0.1-0.3-0.1-0.6-0.1H277.3z M271.4,143.4c-0.1,0-0.1,0-0.1-0.1s0-0.1,0.1-0.1V143.4z
			 M274.2,157.4c-0.3,0.2-0.6,0.4-0.9,0.4c-0.2,0-0.4-0.1-0.5-0.3c-0.1-0.1-0.2-0.2-0.3-0.2c-0.2-0.2-0.5-0.4-0.7-0.4
			c-0.1-0.4,0.1-0.7,0.4-0.9s0.8-0.4,1.5-0.7h0.5c0,0.4,0,0.6-0.1,0.6c0.1,0,0.3,0.1,0.4,0.2c0.2,0.1,0.2,0.3,0.2,0.5
			C274.7,156.9,274.5,157.2,274.2,157.4z M276.4,161.1c-0.2,0-0.3-0.1-0.5-0.2l0.4-0.2c0,0.1,0,0.2,0.1,0.2V161.1z M283.7,162.9
			l-0.4,0.2c-0.2,0-0.5-0.1-0.8-0.4c0.1-0.2,0.3-0.4,0.6-0.4h0.3l0.3,0.2V162.9z M283.8,161.1h-0.4l-0.4,0.1c-0.1,0.1-0.1,0.1-0.1,0
			c-0.1,0-0.1-0.1-0.1-0.3s0.2-0.3,0.5-0.4h0.3c0,0.1,0.1,0.1,0.2,0.1V161.1z M284.6,159.7c-0.1,0.1-0.3,0.2-0.5,0.2l-0.4,0.2
			l-1.6-0.2c0.7-0.5,1.2-0.7,1.6-0.7h0.6l0.2,0.2L284.6,159.7L284.6,159.7z M287.3,138.4l-0.2-0.1c-0.4,3.5-1.1,6.8-2.2,10
			s-2.7,4.8-4.8,4.8c-0.4,0-0.6,0-0.8-0.1c-0.4,0-0.8-0.1-1.3-0.4c-1.7-1.1-2.6-3.9-2.6-8.6c0-8.1,0.8-14.7,2.3-19.9
			c0.5-1.8,1.1-3.5,2-5.1c0.8-1.6,1.9-2.6,3.2-2.9c0.2-0.1,0.5-0.1,0.8-0.1c1.2,0,2.1,0.7,2.7,2.2c0.3,0.7,0.5,1.4,0.7,2.2
			c0.1-0.1,0.2-0.2,0.5-0.4c0.1,0.1,0.2,0.3,0.2,0.5h-0.5l-0.1-0.1h-0.1c0.3,1.6,0.5,3.4,0.6,5.5c0.1,3.5-0.1,7.4-0.5,11.8
			c0.1,0,0.3,0.1,0.5,0.2l-0.2,0.4C287.6,138.3,287.6,138.3,287.3,138.4C287.3,138.3,287.3,138.4,287.3,138.4z M287.6,143.4v0.4
			c0.1,0,0.2,0.1,0.4,0.2c0.1-0.1,0.3-0.2,0.5-0.4c0.1-0.1,0.3-0.2,0.5-0.2l0.4,0.1l0.7,0.1h1l0.1,0.1v0.3c-0.5,0.2-0.9,0.4-1.3,0.4
			h-0.4c-0.1-0.1-0.2-0.1-0.4-0.1c-0.4,0-0.7,0-0.9,0.1c-0.3,0.1-0.5,0.2-0.7,0.3C287.5,144.2,287.5,143.8,287.6,143.4z
			 M289.5,145.8v-0.2h0.5v0.2H289.5z M289.8,151.5c0,0.2-0.1,0.4-0.4,0.4v-0.5l0.2,0.1H289.8z M290.3,146.4l0.4-0.3l0.2,0.4
			c-0.3,0.2-0.6,0.2-0.8,0L290.3,146.4z M287.6,147.1l0.1-0.3c0,0.1,0.1,0.2,0.2,0.2l0.2,0.1c-0.1,0.1-0.2,0.1-0.3,0
			C287.6,147.1,287.6,147.1,287.6,147.1z M289.3,162.1c-0.3,0-0.5,0-0.5,0.1l-0.2-0.2c-0.1,0-0.2-0.1-0.2-0.2c0-0.2,0.1-0.4,0.4-0.4
			h0.4C289.4,161.6,289.5,161.8,289.3,162.1z M289.5,159.9c-0.1,0-0.2-0.1-0.2-0.2c0-0.1,0.1-0.2,0.3-0.2l0.5-0.3l0.2,0.5l-0.4,0.3
			C289.7,159.9,289.6,159.9,289.5,159.9z M290.3,161.8l-0.3-0.3l0.3-0.2C290.4,161.5,290.4,161.7,290.3,161.8z M290.8,157
			c-0.3,0.2-0.5,0.2-0.5,0.2s-0.1,0-0.3,0.1c-0.1,0-0.3-0.1-0.6-0.2c-0.3-0.1-0.5-0.2-0.8-0.4v-0.2l-0.2-0.4c-0.1,0-0.2-0.1-0.3-0.2
			c-0.1,0-0.2-0.1-0.3-0.2c0.1-0.2,0.2-0.5,0.2-0.6c0-0.2,0.2-0.4,0.5-0.4h0.2l0.2,0.1l0.2,0.2c0,0.2,0.1,0.3,0.2,0.4l0.9,0.3
			c0.5,0.2,0.9,0.4,1.2,0.7C291.4,156.7,291.2,156.9,290.8,157z M292,150.3l-0.3-0.2v-0.4c0.4,0.2,0.7,0.4,0.9,0.5L292,150.3
			L292,150.3z M294.3,156c0,0.3-0.1,0.5-0.4,0.7h-0.7c0-0.1,0-0.2,0.1-0.2v-0.3l-0.2-0.3l-0.3-0.3h0.2c0.1,0,0.2,0,0.2-0.1l0.5-0.1
			l0.3,0.1c0,0.1,0.1,0.1,0.3,0.1h0.1v0.4H294.3z M292.7,155.2c0.2-0.1,0.6-0.2,1.1-0.4l0.2,0.5h-0.3c-0.1,0.1-0.2,0.1-0.4,0.1
			C293,155.3,292.8,155.3,292.7,155.2z M294.5,149.6c-0.3,0-0.6-0.1-0.8-0.4c-0.6,0.2-1.1,0.4-1.4,0.4h-0.5l-0.1-0.5v-0.6
			c0.2-0.1,0.4-0.1,0.5-0.2c0.2-0.1,0.4-0.1,0.6-0.1h0.5v0.4c0,0.1-0.2,0.2-0.6,0.3v0.3l0.5,0.2c0.1,0,0.2-0.1,0.4-0.2l0.2-0.2
			l0.2-0.2c0.2,0,0.3,0.1,0.5,0.2L294.5,149.6L294.5,149.6z M293.6,148c0-0.4,0.1-0.7,0.3-0.9c-0.4-0.1-0.6-0.2-0.8-0.2
			c-0.4,0-0.6,0-0.8-0.1c-0.1-0.4,0-0.7,0.3-1.1c0.4,0.1,0.5,0.2,0.5,0.3c0,0.2,0.1,0.4,0.3,0.5c0.1-0.2,0.2-0.5,0.2-0.6v-0.5
			l-0.2-0.2h1c0.1,0.1,0.1,0.2,0.2,0.4s0.2,0.4,0.2,0.5s-0.1,0.3-0.3,0.5c-0.2,0.2-0.3,0.3-0.3,0.5c0,0.1,0.1,0.2,0.3,0.3
			c0.2,0.1,0.3,0.2,0.3,0.4s0,0.3-0.1,0.3c-0.1,0.1-0.1,0.1-0.1,0.1C294.3,148.1,294,148.1,293.6,148z M294.9,154.4l-0.2-0.1
			l0.2-0.3h0.2L294.9,154.4z M295.4,137l0.2,0.1l-0.2,0.2h-0.2L295.4,137z M295.3,142.3V142h0.3v0.3H295.3z M297.1,147.7
			L297.1,147.7l0.2,0.3c-0.4,0.2-0.6,0.2-0.8,0c-0.2-0.1-0.4,0-0.5,0.3l-0.3-0.2l-0.2-0.1C295.9,147.9,296.4,147.9,297.1,147.7z
			 M296.7,146.9h0.5c0.2,0,0.3,0,0.3,0.1c-0.1,0.1-0.3,0.1-0.5,0.1L296.7,146.9z M296.8,148.5v0.2h-0.5v-0.2H296.8z M296.3,154
			l-0.4,0.1l-0.2-0.3l-0.1-0.2c0.4,0,0.7,0,0.7,0.1V154z M296.7,153.7c-0.1-0.1-0.3-0.2-0.5-0.3l-0.5-0.3h0.5c0.3,0,0.5,0,0.5,0.1
			C296.7,153.4,296.7,153.5,296.7,153.7z M296.6,150.9l0.1-0.4c0.1,0,0.2,0,0.4,0.1c0.1,0.1,0.2,0.2,0.2,0.2L296.6,150.9
			L296.6,150.9z M297.6,154.7h-0.5v-0.3h0.5V154.7z M297.3,152.6l0.1-0.3c0-0.2,0.1-0.3,0.2-0.3c0,0.2,0.1,0.4,0.4,0.5h-0.7V152.6z
			 M298,150.7c-0.1,0-0.2,0.1-0.3,0.2l-0.5-0.5c0.2,0,0.4,0,0.5,0.1c0.1,0,0.2,0,0.3,0c0.1,0,0.1,0,0.2,0L298,150.7z M298.4,149.9
			h-1.1v-0.5c0.4-0.1,0.6-0.2,0.8-0.2c0.1,0,0.3-0.1,0.6-0.2c-0.2,0.2-0.3,0.4-0.3,0.6c0.1,0.1,0.2,0.1,0.5,0.1l0.5,0.1L298.4,149.9
			z M298.9,147l-0.2,0.3c-0.4,0-0.6-0.1-0.8-0.3c0.2-0.1,0.3-0.1,0.4-0.1s0.1,0,0,0c0.2,0,0.4,0,0.5-0.1v-0.3l-1.1-0.3
			c-0.4,0-0.7-0.1-1.1-0.2l0.2-0.3c0.6-0.4,0.9-0.7,0.9-0.9v-0.1c0.1-0.1,0.1-0.1,0.2-0.1s0.2-0.1,0.3-0.1c0.1,0,0.2-0.1,0.3-0.2
			l-0.8-0.6c0.4-0.1,0.7,0,1.1,0.1l0.6,0.5c-0.1,0-0.4,0.2-0.8,0.5c0.1,0.2,0.3,0.3,0.5,0.3c0.1,0.1,0.2,0.1,0.3,0.2
			c0.1,0.1,0.2,0.1,0.3,0.1v0.3l-0.1,0.1c0,0.1-0.1,0.1-0.3,0.1h-0.4l-0.1-0.5l-0.5,0.1l-0.8,0.2c0.4,0.2,0.8,0.4,1.1,0.4h0.1
			c0-0.1,0.1-0.1,0.2-0.1s0.3,0.1,0.5,0.3s0.4,0.4,0.5,0.4L298.9,147z M300.2,146.4v0.3H300v-0.3H300.2z M300,142.9h-0.6v-0.2h0.6
			V142.9z M300.5,142.8l-0.1,0.2l-0.1,0.1l-0.1-0.2c-0.1-0.1-0.1-0.2,0-0.3h0.5L300.5,142.8z M301.7,141.2L301.7,141.2l-0.3,0.1
			l0.1-0.2l0.1-0.2c0.1,0,0.1,0,0.2,0.1C301.9,141.1,301.8,141.2,301.7,141.2z M300.6,141.3c-0.3,0.1-0.5,0-0.7,0
			c-0.2-0.1-0.3-0.2-0.4-0.3l-0.2-0.1h0.9c-0.1,0.1-0.1,0.1-0.2,0.2C300.1,141.2,300.3,141.3,300.6,141.3z M312.1,146.5l0.3-0.2v0.7
			c-0.2-0.1-0.3-0.2-0.4-0.4C312,146.6,312,146.5,312.1,146.5z M309,145l-0.4-0.2c-0.1-0.1-0.2-0.2-0.2-0.3s0.1-0.2,0.2-0.2h0.4
			c0.1,0.1,0.2,0.2,0.1,0.4C309,144.8,309,144.8,309,145z M309.4,143.8h-0.2v-2.3h0.2V143.8z M311.7,144.3l-0.5-0.1v-0.1h0.5V144.3z
			 M312,147.6C312,147.5,312,147.5,312,147.6c0.4,0,0.5,0.2,0.4,0.4s0.1,0.4,0.4,0.5v0.3c-0.2,0-0.3,0-0.4,0.1
			c-0.1,0-0.1-0.1-0.1-0.4c0.1-0.1,0.1-0.1,0-0.2c0-0.1,0-0.1,0-0.2c-0.1-0.1-0.2-0.2-0.3-0.2c-0.1,0-0.1-0.1-0.1-0.2L312,147.6z
			 M312,149.6C312,149.6,312,149.5,312,149.6l0.3-0.2l0.1-0.2h0.4c0,0.1,0,0.3,0,0.5s0,0.4,0,0.5v1.1c-0.2,0-0.3,0-0.4,0.1l-0.2-0.1
			l0.1-0.1l0.3-0.2c-0.2-0.2-0.3-0.4-0.4-0.6c-0.1-0.2-0.1-0.5-0.1-0.6C312,149.6,312,149.6,312,149.6z M312.7,152.5l-0.2,0.2
			l-0.2,0.2v-0.4H312.7z M313.1,158.7l-0.3,0.1c-0.1,0-0.2,0-0.2,0.1h-0.3v-0.5c0.1,0,0.2,0,0.2-0.1h0.4l0.2,0.1L313.1,158.7
			L313.1,158.7z M312.8,157.8c-0.2,0.2-0.3,0.2-0.3,0.2s0,0,0,0.1l-0.1-0.1l-0.1-0.1l0.1-0.2l0.4-0.2l-0.5-0.2
			c0-0.2-0.1-0.5-0.2-0.7l-0.1-0.5c0-0.3,0-0.5,0.1-0.5c0.1-0.1,0.2-0.2,0.5-0.4c-0.1-0.1-0.3-0.2-0.5-0.2l0.1-1.6
			c0.1,0.1,0.1,0.2,0.1,0.4v0.5c0,0.1,0.2,0.2,0.6,0.4c0,0.7-0.1,1.3-0.2,1.9c-0.2,0-0.3,0.1-0.5,0.2c0.1,0.1,0.2,0.2,0.3,0.1h0.3
			c0,0.2,0,0.3,0.1,0.3l0.1,0.4C313.2,157.6,313.1,157.7,312.8,157.8z M313.3,145.9l-0.3,0.3h-0.8c-0.1-0.2-0.2-0.4-0.2-0.5
			s0.1-0.3,0.2-0.5s0.3-0.4,0.5-0.4s0.4,0,0.4,0.1h0.2L313.3,145.9L313.3,145.9z M318.8,140c-0.2-0.2-0.2-0.3-0.2-0.5l0.2,0.3
			C318.9,139.8,318.9,139.9,318.8,140z M349.3,134.6h1.3v0.2h-1.3V134.6z M350.4,135.8h-0.5C350,135.5,350.2,135.5,350.4,135.8z
			 M349.3,137.1l0.6,0.1l-0.1,0.1l-0.1,0.2C349.4,137.4,349.3,137.3,349.3,137.1z M349.6,138h-0.2c0,0.1-0.1,0.1-0.3,0.1
			c-0.5,0-0.8-0.2-0.8-0.6l0.7,0.3L349.6,138z M349,135.3l0.4-0.1v0.2l0.1,0.2l-0.5,0.1c-0.1,0-0.2-0.1-0.2-0.4H349z M347.7,134.4
			l0.6,0.2v0.1l-0.6-0.1V134.4z M347.7,136.6c0,0,0-0.1,0.1-0.3s0.2-0.3,0.2-0.5c0.1,0,0.3,0,0.5,0.1s0.4,0.2,0.4,0.3s0,0.2-0.1,0.3
			s-0.1,0.2-0.1,0.3c-0.5,0.1-0.8,0-1.1-0.1h-0.5c0,0.1,0.1,0.2,0.2,0.3l0.4,0.3c-0.5,0-0.8,0.1-0.8,0.3c0,0.1,0.1,0.2,0.3,0.3
			l0.4,0.3l-0.3,0.2c-0.1,0.1-0.1,0.2-0.1,0.3s0,0.2,0.1,0.2h0.2v0.4c0.1,0.2,0.3,0.3,0.5,0.3l-0.5,0.3c0,0.1-0.2,0.2-0.5,0.3
			l-0.5,0.1l-0.6,0.2v0.1c0,0.1,0.2,0.2,0.5,0.2h0.2c0,0.3,0.1,0.5,0.3,0.6c-0.4,0.1-0.7,0.1-0.9,0c-0.2,0-0.4-0.1-0.4-0.4
			c-0.1-0.1-0.2-0.2-0.3-0.5c0-0.1-0.1-0.3-0.3-0.5h0.5l0.5-0.2c0.1-0.1,0.3-0.2,0.5-0.2h0.2c0,0.1,0,0.1,0.1,0.1l0.3-0.2l-0.6-0.5
			c-0.2-0.1-0.3-0.2-0.5-0.2h-0.4c-0.2,0.1-0.4,0-0.5-0.2c-0.1-0.1-0.1-0.4-0.1-0.8l1.4-0.6V137l-0.1-0.2c-0.1,0.1-0.2,0.2-0.5,0.2
			c0-0.2,0.1-0.4,0.5-0.4h0.3c0-0.1,0.1-0.1,0.2-0.1c0.2,0,0.3,0,0.3,0.1h0.2C347.6,136.6,347.7,136.6,347.7,136.6z M344.2,147
			c0.1,0.1,0.2,0.1,0.3,0.1c0,0.2-0.1,0.3-0.4,0.4l-0.2-0.5H344.2z M344,146.7v-0.5h0.3v0.5H344z M344.4,145.4c-0.1,0-0.2,0-0.3,0.1
			c-0.1-0.1-0.1-0.4-0.1-1c0.1,0.1,0.2,0.2,0.2,0.4L344.4,145.4L344.4,145.4z M344.2,144.2l-0.3-0.1c0.3-0.2,0.6-0.3,0.8-0.3
			c0.5,0.1,0.7,0,0.5-0.4h0.1h0.2c-0.1,0-0.2,0.1-0.2,0.2l0.1,0.4l-0.2,0.5c-0.1-0.1-0.3-0.2-0.5-0.2
			C344.5,144.2,344.3,144.2,344.2,144.2z M344.7,144.6h0.5c0.1,0.1,0.3,0.1,0.6,0.1c-0.1,0-0.2,0.1-0.2,0.2l-0.2,0.1h-0.9
			L344.7,144.6z M345.7,142.9c-0.3,0-0.5,0-0.6-0.1c-0.2-0.1-0.5-0.1-0.9-0.1v-0.5c0.1,0,0.2,0,0.3-0.1l0.2-0.2l0.5,0.3l0.5,0.2
			c0.2,0,0.6-0.1,1-0.4c0,0.1,0,0.1-0.1,0.2c-0.1,0.1-0.1,0.2-0.2,0.3c-0.1,0.2-0.1,0.4-0.1,0.4S346,142.9,345.7,142.9z
			 M344.2,140.5c0,0.1-0.1,0.2-0.3,0.3c-0.1,0-0.2-0.1-0.2-0.3H344.2z M343.7,139.5v-0.2h0.7v0.2H343.7z M345,139.5l0.1-0.4h0.6
			c0.1,0.2,0.1,0.3,0,0.4H345z M347.3,135.9c0,0.2-0.1,0.3-0.2,0.3l-0.2,0.3h-0.5c-0.2-0.1-0.3-0.2-0.3-0.4c0.2-0.1,0.5-0.2,0.7-0.2
			L347.3,135.9L347.3,135.9z M346.4,134c0,0.2-0.1,0.3-0.2,0.5l-0.2-0.2c-0.1-0.1-0.1-0.1-0.1-0.3H346.4z M344.7,133.9
			c0.1,0,0.2-0.1,0.4-0.2c0.2,0.2,0.2,0.4,0,0.6c-0.2-0.2-0.4-0.4-0.6-0.4L344.7,133.9z M343.8,134.9l0.1-0.1l0.2-0.2l1.9,0.5
			l-0.5,0.4c-0.2,0.1-0.2,0.2,0.2,0.5c-0.4,0.1-0.8,0-1.3-0.2l0.5-0.5c-0.1-0.2-0.2-0.4-0.5-0.4c-0.2,0-0.4,0-0.5,0
			S343.7,134.9,343.8,134.9C343.7,135,343.8,134.9,343.8,134.9z M342.2,139.4c0,0,0.2-0.1,0.5-0.3l0.1,0.1h0.1c0,0.1,0,0.1,0.1,0.1
			c-0.5,0.2-0.7,0.3-0.5,0.5c0.1,0.1,0,0.3-0.1,0.5h-0.3c-0.1,0-0.2-0.1-0.2-0.3C342.1,139.6,342.2,139.4,342.2,139.4z M343.4,140.6
			L343.4,140.6l-0.2,0.3l-0.5-0.2v-0.4C343.1,140.4,343.3,140.5,343.4,140.6z M341.9,143.6L341.9,143.6l0.9,0.2
			c0,0.3-0.1,0.5-0.3,0.6c-0.2,0-0.3,0-0.4-0.1h-0.8c0-0.1,0-0.2-0.1-0.2c-0.1-0.1-0.1-0.1-0.1-0.2c0-0.2,0.1-0.4,0.4-0.4
			C341.7,143.6,341.9,143.6,341.9,143.6z M341.5,142.7c0.4,0,0.6,0.1,0.6,0.2c0,0.2-0.2,0.3-0.5,0.4L341.5,142.7z M341.9,141.4
			c0.2,0,0.4,0.1,0.6,0.4l-0.5,0.4c-0.2-0.1-0.4-0.2-0.4-0.4l0.1-0.2C341.9,141.6,341.9,141.6,341.9,141.4z M341.6,138.5l0.1,0.3
			c0.1,0,0.1,0.1,0.1,0.4h-0.5c-0.2-0.2-0.3-0.4-0.3-0.6L341.6,138.5L341.6,138.5z M340.8,132.6c0.1-0.1,0.2-0.2,0.2-0.4
			c0.1,0.2,0.2,0.5,0.2,0.7h-0.6C340.5,132.9,340.6,132.8,340.8,132.6z M340.5,134.7l0.1-0.3l0.1,0.3c0.1,0.1,0.1,0.1,0,0.1
			S340.6,134.8,340.5,134.7L340.5,134.7z M340,131.9h0.3v0.5H340V131.9z M340.1,139l-0.6,0.1v-0.5
			C339.7,138.6,339.9,138.8,340.1,139z M339.4,108.3h0.5v0.2h-0.5V108.3z M339.4,125.9l0.3,0.2c0.1,0,0.1,0.1,0.2,0.2
			c-0.1,0-0.2,0-0.3,0.1h-0.2V125.9z M336.1,141.5V141c0.2,0.1,0.6,0.2,1,0.2c0.4,0.1,0.8,0.2,1.2,0.2v0.4c-0.2,0.2-0.4,0.3-0.7,0.3
			c-0.3,0-0.5-0.1-0.7-0.3c-0.1-0.1-0.2-0.3-0.4-0.5L336.1,141.5z M336.4,142.6c-0.2,0.1-0.4,0.2-0.4,0.3c0-0.1,0-0.2-0.1-0.2
			c0-0.1,0-0.2,0.1-0.2h0.1L336.4,142.6z M336.6,137.1v-0.7c0.1-0.2,0.2-0.4,0.2-0.5l0.4-0.2l0.5,0.3l0.5,0.3l1.1,0.5
			c-1.1,0.4-1.7,0.5-1.8,0.5l-0.4-0.1L336.6,137.1z M337.5,139.4c0.2,0,0.4,0,0.4,0.1h0.2c-0.2,0.1-0.6,0.2-1.4,0.4l0.3-0.3
			C337.2,139.4,337.4,139.4,337.5,139.4z M337.9,125.7h-0.7c-0.2-0.1-0.4-0.2-0.4-0.4c0-0.1,0.1-0.2,0.4-0.3l0.4-0.3
			c0.1-0.1,0.1-0.2,0.1-0.3c0-0.1,0-0.2,0.1-0.2c0.4,0,0.7,0.1,0.9,0.3v0.8l-0.4,0.2L337.9,125.7z M337,130.8c0.3,0,0.5,0.1,0.7,0.3
			v0.2l-0.2,0.1c-0.2,0-0.4,0-0.5-0.1l-0.5-0.1V131C336.4,130.9,336.6,130.8,337,130.8z M337.5,132.1l0.2,0.5l-0.5,0.3
			c-0.3,0.1-0.5,0.2-0.5,0.3c0-0.1-0.1-0.1-0.2-0.2c-0.1,0-0.2,0-0.2-0.1v-0.3L337.5,132.1z M336.7,134c0.1,0.1,0.1,0.2,0.1,0.3
			l-0.2,0.1l-0.2,0.1c-0.2-0.1-0.2-0.3,0-0.6C336.5,133.9,336.6,133.9,336.7,134z M338.1,138.3c-0.3,0-0.5-0.1-0.7-0.4
			c0.2-0.3,0.5-0.5,1-0.5h0.4l0.2,0.1c0.1,0,0.1,0.1,0.1,0.3c0,0.1-0.1,0.2-0.4,0.3C338.4,138.2,338.2,138.3,338.1,138.3z
			 M339.3,141c0,0.1-0.1,0.2-0.3,0.4l-0.2-0.5C339.1,140.8,339.2,140.9,339.3,141z M339.1,135.5c-0.3-0.1-0.5-0.3-0.7-0.5l-0.3-0.4
			l0.1-0.4c0.1-0.1,0.1-0.2,0-0.3l0.3-0.1c0.1,0,0.1,0,0.2-0.1c0.2,0.2,0.3,0.5,0.3,0.6c0,0.3,0.2,0.5,0.5,0.7c0,0.1,0,0.1,0,0.1
			S339.2,135.3,339.1,135.5z M339.2,131.2L339.2,131.2l-0.1,0.2h-0.3c-0.1,0-0.2-0.1-0.3-0.2l0.4-0.1
			C339.1,131.1,339.2,131.1,339.2,131.2z M335.4,106.8c0.4,0.1,0.6,0.2,0.8,0.2h0.4c0.1,0.1,0.2,0.1,0.4,0.1v0.1l0.2,0.2l-0.6,0.2
			l-0.8,0.1c-0.2,0-0.4-0.1-0.5-0.4C335.2,107.1,335.3,107,335.4,106.8z M335.6,107.8v0.3c-0.1,0.1,0,0.2,0.1,0.3
			c0.1,0.1,0.3,0.1,0.5,0l0.2-0.1h0.3c0.2,0,0.4-0.1,0.5-0.3c0.2-0.2,0.3-0.3,0.4-0.3c0.1-0.1,0.1-0.1,0.1-0.3c0-0.2,0-0.3,0.1-0.4
			c0.1,0.1,0.3,0.2,0.5,0.2s0.4,0,0.4,0.1c-0.2,0.2-0.4,0.4-0.5,0.4s-0.3,0.1-0.5,0.2l-0.1,0.3c0,0.1-0.1,0.2-0.3,0.2
			c-0.1,0-0.2,0-0.3,0c-0.1,0-0.3,0-0.6,0c-0.3,0.2-0.4,0.3-0.2,0.5c0.1,0.1,0.1,0.2-0.2,0.2c-0.5,0-0.8-0.1-0.8-0.4
			c0-0.2-0.2-0.3-0.5-0.5C334.8,108.1,335.1,107.9,335.6,107.8z M333.5,108.1h0.6v0.2h-0.6V108.1z M329,109
			c-0.1,0.1-0.2,0.2-0.4,0.2c-0.3,0-0.5-0.2-0.6-0.5v-0.1h0.1v-0.1h0.5C328.7,108.8,328.8,109,329,109z M327.4,107.9h0.9l-0.5,0.4
			h-0.5v-0.4H327.4z M326.3,120.2c-0.2,0.1-0.4,0.2-0.5,0.2l-0.2-0.5h0.6L326.3,120.2z M325.7,107.9l0.1,0.2l0.1,0.1l-0.4,0.2
			l-0.3-0.1c-0.1,0-0.1-0.1-0.1-0.2L325,108c-0.1-0.1-0.3-0.1-0.6-0.1H325.7z M319.8,143.4c-0.1,0-0.1,0-0.1-0.1s0-0.1,0.1-0.1
			V143.4z M322.7,157.4c-0.3,0.2-0.6,0.4-0.9,0.4c-0.2,0-0.4-0.1-0.5-0.3c-0.1-0.1-0.2-0.2-0.3-0.2c-0.2-0.2-0.5-0.4-0.7-0.4
			c-0.1-0.4,0.1-0.7,0.4-0.9s0.8-0.4,1.5-0.7h0.5c0,0.4,0,0.6-0.1,0.6c0.1,0,0.3,0.1,0.4,0.2c0.2,0.1,0.2,0.3,0.2,0.5
			C323.1,156.9,323,157.2,322.7,157.4z M324.8,161.1c-0.2,0-0.3-0.1-0.5-0.2l0.4-0.2c0,0.1,0,0.2,0.1,0.2V161.1z M332.1,162.9
			l-0.4,0.2c-0.2,0-0.5-0.1-0.8-0.4c0.1-0.2,0.3-0.4,0.6-0.4h0.3l0.3,0.2V162.9z M332.2,161.1h-0.4l-0.4,0.1c-0.1,0.1-0.1,0.1-0.1,0
			c-0.1,0-0.1-0.1-0.1-0.3s0.2-0.3,0.5-0.4h0.3c0,0.1,0.1,0.1,0.2,0.1V161.1z M333,159.7c-0.1,0.1-0.3,0.2-0.5,0.2l-0.4,0.2
			l-1.6-0.2c0.7-0.5,1.2-0.7,1.6-0.7h0.6l0.2,0.2L333,159.7L333,159.7z M335.7,138.4l-0.2-0.1c-0.4,3.5-1.1,6.8-2.2,10
			s-2.7,4.8-4.8,4.8c-0.4,0-0.6,0-0.8-0.1c-0.4,0-0.8-0.1-1.3-0.4c-1.7-1.1-2.6-3.9-2.6-8.6c0-8.1,0.8-14.7,2.3-19.9
			c0.5-1.8,1.1-3.5,2-5.1c0.8-1.6,1.9-2.6,3.2-2.9c0.2-0.1,0.5-0.1,0.8-0.1c1.2,0,2.1,0.7,2.7,2.2c0.3,0.7,0.5,1.4,0.7,2.2
			c0.1-0.1,0.2-0.2,0.5-0.4c0.1,0.1,0.2,0.3,0.2,0.5h-0.5l-0.1-0.1h-0.1c0.3,1.6,0.5,3.4,0.6,5.5c0.1,3.5-0.1,7.4-0.5,11.8
			c0.1,0,0.3,0.1,0.5,0.2l-0.2,0.4C336.1,138.3,336,138.3,335.7,138.4C335.7,138.3,335.7,138.4,335.7,138.4z M336.1,143.4v0.4
			c0.1,0,0.2,0.1,0.4,0.2c0.1-0.1,0.3-0.2,0.5-0.4c0.1-0.1,0.3-0.2,0.5-0.2l0.4,0.1l0.7,0.1h1l0.1,0.1v0.3c-0.5,0.2-0.9,0.4-1.3,0.4
			H338c-0.1-0.1-0.2-0.1-0.4-0.1c-0.4,0-0.7,0-0.9,0.1c-0.3,0.1-0.5,0.2-0.7,0.3C335.9,144.2,335.9,143.8,336.1,143.4z M337.9,145.8
			v-0.2h0.5v0.2H337.9z M338.2,151.5c0,0.2-0.1,0.4-0.4,0.4v-0.5l0.2,0.1H338.2z M338.7,146.4l0.4-0.3l0.2,0.4
			c-0.3,0.2-0.6,0.2-0.8,0L338.7,146.4z M336,147.1l0.1-0.3c0,0.1,0.1,0.2,0.2,0.2l0.2,0.1c-0.1,0.1-0.2,0.1-0.3,0
			C336,147.1,336,147.1,336,147.1z M337.7,162.1c-0.3,0-0.5,0-0.5,0.1L337,162c-0.1,0-0.2-0.1-0.2-0.2c0-0.2,0.1-0.4,0.4-0.4h0.4
			C337.8,161.6,337.9,161.8,337.7,162.1z M337.9,159.9c-0.1,0-0.2-0.1-0.2-0.2c0-0.1,0.1-0.2,0.3-0.2l0.5-0.3l0.2,0.5l-0.4,0.3
			C338.1,159.9,338,159.9,337.9,159.9z M338.7,161.8l-0.3-0.3l0.3-0.2C338.8,161.5,338.8,161.7,338.7,161.8z M339.3,157
			c-0.3,0.2-0.5,0.2-0.5,0.2s-0.1,0-0.3,0.1c-0.1,0-0.3-0.1-0.6-0.2c-0.3-0.1-0.5-0.2-0.8-0.4v-0.2l-0.2-0.4c-0.1,0-0.2-0.1-0.3-0.2
			c-0.1,0-0.2-0.1-0.3-0.2c0.1-0.2,0.2-0.5,0.2-0.6c0-0.2,0.2-0.4,0.5-0.4h0.2l0.2,0.1l0.2,0.2c0,0.2,0.1,0.3,0.2,0.4l0.9,0.3
			c0.5,0.2,0.9,0.4,1.2,0.7C339.8,156.7,339.6,156.9,339.3,157z M340.4,150.3l-0.3-0.2v-0.4c0.4,0.2,0.7,0.4,0.9,0.5L340.4,150.3
			L340.4,150.3z M342.8,156c0,0.3-0.1,0.5-0.4,0.7h-0.7c0-0.1,0-0.2,0.1-0.2v-0.3l-0.2-0.3l-0.3-0.3h0.2c0.1,0,0.2,0,0.2-0.1
			l0.5-0.1l0.3,0.1c0,0.1,0.1,0.1,0.3,0.1h0.1v0.4H342.8z M341.1,155.2c0.2-0.1,0.6-0.2,1.1-0.4l0.2,0.5h-0.3
			c-0.1,0.1-0.2,0.1-0.4,0.1C341.5,155.3,341.3,155.3,341.1,155.2z M342.9,149.6c-0.3,0-0.6-0.1-0.8-0.4c-0.6,0.2-1.1,0.4-1.4,0.4
			h-0.5l-0.1-0.5v-0.6c0.2-0.1,0.4-0.1,0.5-0.2c0.2-0.1,0.4-0.1,0.6-0.1h0.5v0.4c0,0.1-0.2,0.2-0.6,0.3v0.3l0.5,0.2
			c0.1,0,0.2-0.1,0.4-0.2l0.2-0.2l0.2-0.2c0.2,0,0.3,0.1,0.5,0.2L342.9,149.6L342.9,149.6z M342,148c0-0.4,0.1-0.7,0.3-0.9
			c-0.4-0.1-0.6-0.2-0.8-0.2c-0.4,0-0.6,0-0.8-0.1c-0.1-0.4,0-0.7,0.3-1.1c0.4,0.1,0.5,0.2,0.5,0.3c0,0.2,0.1,0.4,0.3,0.5
			c0.1-0.2,0.2-0.5,0.2-0.6v-0.5l-0.2-0.2h1c0.1,0.1,0.1,0.2,0.2,0.4s0.2,0.4,0.2,0.5s-0.1,0.3-0.3,0.5c-0.2,0.2-0.3,0.3-0.3,0.5
			c0,0.1,0.1,0.2,0.3,0.3c0.2,0.1,0.3,0.2,0.3,0.4s0,0.3-0.1,0.3c-0.1,0.1-0.1,0.1-0.1,0.1C342.7,148.1,342.4,148.1,342,148z
			 M343.3,154.4l-0.2-0.1l0.2-0.3h0.2L343.3,154.4z M343.8,137l0.2,0.1l-0.2,0.2h-0.2L343.8,137z M343.7,142.3V142h0.3v0.3H343.7z
			 M345.6,147.7L345.6,147.7l0.2,0.3c-0.4,0.2-0.6,0.2-0.8,0c-0.2-0.1-0.4,0-0.5,0.3l-0.3-0.2L344,148
			C344.3,147.9,344.8,147.9,345.6,147.7z M345.1,146.9h0.5c0.2,0,0.3,0,0.3,0.1c-0.1,0.1-0.3,0.1-0.5,0.1L345.1,146.9z M345.2,148.5
			v0.2h-0.5v-0.2H345.2z M344.7,154l-0.4,0.1l-0.2-0.3l-0.1-0.2c0.4,0,0.7,0,0.7,0.1V154z M345.1,153.7c-0.1-0.1-0.3-0.2-0.5-0.3
			l-0.5-0.3h0.5c0.3,0,0.5,0,0.5,0.1C345.2,153.4,345.1,153.5,345.1,153.7z M345,150.9l0.1-0.4c0.1,0,0.2,0,0.4,0.1
			c0.1,0.1,0.2,0.2,0.2,0.2L345,150.9L345,150.9z M346,154.7h-0.5v-0.3h0.5V154.7z M345.7,152.6l0.1-0.3c0-0.2,0.1-0.3,0.2-0.3
			c0,0.2,0.1,0.4,0.4,0.5h-0.7V152.6z M346.5,150.7c-0.1,0-0.2,0.1-0.3,0.2l-0.5-0.5c0.2,0,0.4,0,0.5,0.1c0.1,0,0.2,0,0.3,0
			c0.1,0,0.1,0,0.2,0L346.5,150.7z M346.8,149.9h-1.1v-0.5c0.4-0.1,0.6-0.2,0.8-0.2c0.1,0,0.3-0.1,0.6-0.2c-0.2,0.2-0.3,0.4-0.3,0.6
			c0.1,0.1,0.2,0.1,0.5,0.1l0.5,0.1L346.8,149.9z M347.4,147l-0.2,0.3c-0.4,0-0.6-0.1-0.8-0.3c0.2-0.1,0.3-0.1,0.4-0.1s0.1,0,0,0
			c0.2,0,0.4,0,0.5-0.1v-0.3l-1.1-0.3c-0.4,0-0.7-0.1-1.1-0.2l0.2-0.3c0.6-0.4,0.9-0.7,0.9-0.9v-0.1c0.1-0.1,0.1-0.1,0.2-0.1
			s0.2-0.1,0.3-0.1c0.1,0,0.2-0.1,0.3-0.2l-0.8-0.6c0.4-0.1,0.7,0,1.1,0.1l0.6,0.5c-0.1,0-0.4,0.2-0.8,0.5c0.1,0.2,0.3,0.3,0.5,0.3
			c0.1,0.1,0.2,0.1,0.3,0.2c0.1,0.1,0.2,0.1,0.3,0.1v0.3l-0.1,0.1c0,0.1-0.1,0.1-0.3,0.1h-0.4l-0.1-0.5l-0.5,0.1l-0.8,0.2
			c0.4,0.2,0.8,0.4,1.1,0.4h0.1c0-0.1,0.1-0.1,0.2-0.1s0.3,0.1,0.5,0.3s0.4,0.4,0.5,0.4L347.4,147z M347.4,143.4l0.3-0.2l0.1,0.1
			l0.1,0.1L347.4,143.4L347.4,143.4z M348.6,146.4v0.3h-0.2v-0.3H348.6z M348.4,142.9h-0.6v-0.2h0.6V142.9z M348.4,141.2
			c-0.2-0.1-0.3-0.2-0.4-0.3l-0.4-0.3c-0.1-0.1-0.4-0.1-0.7-0.1c0.1-0.1,0.2-0.1,0.5-0.1h0.5c0.4,0,0.5-0.2,0.5-0.5
			c0,0.2,0.1,0.3,0.2,0.5c0.2,0.2,0.1,0.4-0.3,0.5c0.1,0.2,0.3,0.3,0.6,0.3C348.8,141.3,348.5,141.3,348.4,141.2z M349,142.8
			l-0.1,0.2l-0.1,0.1l-0.1-0.2c-0.1-0.1-0.1-0.2,0-0.3h0.5L349,142.8z M348.8,139.3h-0.5v-0.1l-0.2-0.1c0-0.1,0.1-0.1,0.2-0.3
			c0.1,0,0.2-0.1,0.5-0.3c0.2,0.1,0.4,0.2,0.4,0.3l0.2,0.5C349.3,139.3,349.1,139.3,348.8,139.3z M350.2,141.2L350.2,141.2l-0.3,0.1
			l0.1-0.2l0.1-0.2c0.1,0,0.1,0,0.2,0.1C350.3,141.1,350.3,141.2,350.2,141.2z M350.2,140.7c-0.2,0-0.4-0.1-0.5-0.2
			c-0.4-0.2-0.4-0.3-0.2-0.3c0.2,0,0.4,0,0.5,0c-0.1,0-0.1,0,0,0s0.3,0.1,0.6,0.1C350.4,140.6,350.3,140.7,350.2,140.7z
			 M350.6,137.8h-0.5v-0.2h0.5V137.8z"/>
	</g>
	<path class="st1" d="M163,31.6h-0.2c-0.4,0-0.7,0.1-0.9,0.3c-0.3,0.3-0.5,0.5-0.6,0.6c0.1,0.1,0.2,0.1,0.3,0.2
		c0.1,0.1,0.3,0.1,0.3,0.1c0.1,0.1,0.4,0.1,0.7-0.1c-0.2-0.2-0.2-0.4,0.2-0.5L163,32l0.4-0.1L163,31.6z"/>
	<path class="st1" d="M219,15.3c-0.5-0.5-1-0.7-1.7-0.7c-2.8,0-5.6,0-8.5,0c-5.6,0-11.2,0-16.8-0.1c-4.5,0-9,0-13.6-0.1
		c-5.3-0.1-10.6-0.2-16-0.3c-0.8,0-1.6,0-2.4,0c-1.4,0-2.2,0.8-2.3,2.2L156.6,31c0,0.7,0.2,1.3,0.7,1.8s1.1,0.6,1.9,0.5l14.4-1.4
		c-1.1,8.4-2.1,16.2-2.8,23.2c-0.8,6.8-1.8,22.1-2.8,36.1c0,0.7,0.2,1.2,0.6,1.7c0.4,0.5,1,0.7,1.6,0.7h10.7c1.4,0,2.1-0.7,2.2-2.2
		l0.7-25.3c0.5-7.3,1.1-14.5,2.2-21.7c0-0.1,0-0.3,0.1-0.5l-0.3,0.1v-0.8h0.4c0.4-2.8,1.7-9.3,1.8-9.3l28-2c1.2-0.2,1.9-0.8,2.1-2
		l1.3-12.7C219.7,16.4,219.5,15.8,219,15.3z M183.2,16.8l0.5,0.1l-0.1,0.2l-0.4-0.2V16.8z M182.1,23.8h0.2v0.3h-0.2V23.8z M181.4,29
		l0.1-0.2l0.3,0.1l-0.2,0.2L181.4,29z M181.6,32.7v0.2h-0.4v-0.2H181.6z M181,16.6l0.2-0.1l0.1-0.2c0,0.2,0.1,0.3,0.3,0.4l-0.3,0.2
		c0,0.2,0.1,0.3,0.4,0.3c0,0.2-0.1,0.3-0.2,0.3c-0.1,0.1-0.2,0.2-0.2,0.3c0-0.1-0.1-0.2-0.2-0.3l-0.2-0.5L181,16.6z M168.6,26.6h0.9
		v0.3c0,0.2,0,0.3-0.1,0.3h-0.2l-0.1,0.1l-0.4-0.1L168.6,26.6z M162.5,26.5h0.7l0.7,0.5v0.4l-0.5,0.4c-0.3-0.2-0.7-0.2-1.1-0.3
		C162,27.3,162.1,26.9,162.5,26.5z M162.5,28.2v-0.4l1.4,0.3L162.5,28.2z M167.1,29.7l-0.5,0.2c-0.5-0.1-0.8-0.2-0.8-0.4
		c0-0.2,0.1-0.4,0.4-0.7h0.2l0.2,0.1h0.4L167.1,29.7z M170.6,30.5c-0.1,0.3-0.5,0.4-1.1,0.3c-0.1,0-0.3,0-0.3-0.1h-0.3
		c-0.1-0.1-0.4-0.1-0.7-0.1c0.2-0.4,0.5-0.7,0.9-0.6c0.1,0,0.7,0.1,1.6,0.3L170.6,30.5z M170.9,30.1c-0.3-0.2-0.4-0.5-0.4-0.7h0.3
		l0.4-0.1C171.2,29.6,171.1,29.8,170.9,30.1z M173.8,26.2h-0.6v-0.5h0.6V26.2z M175.3,61.4l0.2-0.2l0.2,0.5l-0.6,0.3v-0.1l-0.2-0.1
		L175.3,61.4z M170.7,67.9c0-0.3,0.2-0.5,0.5-0.6c0,0.2,0.1,0.2,0.2,0.2l-0.2,0.2c0,0.2,0.1,0.4,0.4,0.4c0,0.1-0.1,0.2-0.2,0.2
		c-0.1,0.1-0.2,0.2-0.2,0.3c0-0.1-0.1-0.2-0.2-0.3C170.8,68.2,170.7,68.1,170.7,67.9z M171.4,84.9H171v-0.2h0.4V84.9z M171.4,80
		l-0.2-0.1l0.2-0.1h0.2L171.4,80z M173.4,68l-0.4-0.1v-0.2l0.6,0.2L173.4,68z M174.4,86.1l0.3-1.2c0.6,0.5,0.8,0.9,0.8,1.3
		L174.4,86.1z M174.9,77.7l-0.3-0.8h0.7l0.6,0.1C175.8,77.6,175.5,77.8,174.9,77.7z M180.6,55.2h-0.3V55h0.3V55.2z M182.7,49
		c-0.6,0-0.9,0-1.1,0.1c-0.5,0-0.8-0.2-1-0.4l1-0.6l0.6,0.3l0.2-0.8c0.2,0.1,0.3,0.2,0.5,0.4s0.3,0.4,0.4,0.5l-1.1-0.1
		C182.2,48.6,182.4,48.7,182.7,49z M184.7,43.6l-0.5,0.3l-0.2,0.2c-0.4,0-0.6-0.1-0.9-0.4v-0.4l0.2-0.2l1.5,0.2L184.7,43.6z
		 M184.5,34.1l0.3-1.2c0.6,0.5,0.8,0.9,0.8,1.2H184.5z M185.1,26.7l-0.4-0.7h0.7c0.3,0,0.5,0.1,0.5,0.1
		C185.9,26.6,185.6,26.8,185.1,26.7z M189.1,18.1h-0.7v-0.2h0.7V18.1z M190.1,17.2c-0.2-0.2-0.3-0.4-0.4-0.4h-0.1l-0.4-0.3l0.7-0.1
		h0.1l0.2-0.1c0.2,0,0.2,0.1,0.2,0.3C190.4,16.7,190.3,16.9,190.1,17.2z M191.4,17.3h-0.8v-0.9l1,0.3
		C191.7,16.9,191.6,17.1,191.4,17.3z"/>
	<path class="st1" d="M144.5,24.9c0,0-0.4-0.1-1.3-0.3l-9.6-2.7l-1.3-0.3c-0.5-0.2-1-0.1-1.5,0.2c-0.5,0.4-0.7,0.8-0.8,1.4L124,61
		l-9-25.3h-0.4v-0.2h0.4l-0.3-0.7v0.1l-0.5,0.1c0-0.1-0.1-0.2-0.1-0.2l-0.1-0.4l0.5-0.1l-2.6-7.2c-0.4-1-1.1-1.5-2-1.3L99,27.2
		c-0.5,0.1-1,0.3-1.2,0.8c-0.3,0.4-0.4,1-0.3,1.5l0.1,0.4l2.4,7.2v0.2l1.7,5.2l0.3,0.1l-0.2,0.2l5.9,17.9L120,96.9
		c0.3,1,1,1.5,2.1,1.3l10.5-1.3c0.9-0.2,1.4-0.8,1.5-1.7l2-12.1c-0.1-0.1-0.1-0.2-0.1-0.3l0.1-0.5l0.1-0.3l0.2-1.1h-0.3l-0.5-0.2
		c0.2-0.2,0.2-0.5,0.3-0.7c0-0.1,0.2-0.3,0.5-0.5l0.1,0.2l8-52.7l0.1-0.8C144.5,25.3,144.5,24.9,144.5,24.9z M99.8,34.1h0.4
		c0.1,0,0.1,0.1,0,0.3c-0.1,0-0.1,0-0.2-0.1C99.9,34.2,99.8,34.1,99.8,34.1z M100.1,34.8L100.1,34.8l0.2-0.1l0.3,0.1
		C100.4,35,100.3,35,100.1,34.8z M116.3,52.9l-0.4,0.1h-0.4l0.1-0.3C116,52.7,116.1,52.7,116.3,52.9z M112.5,46.8l0.4-0.4h0.5
		l0.1,0.6c-0.2,0-0.4,0.1-0.4,0.2C112.7,47.2,112.6,47,112.5,46.8z M115.2,43.6l0.5,0.2l-0.2,0.3c-0.2,0.2-0.3,0.3-0.3,0.3
		c0-0.2-0.2-0.3-0.4-0.2l-0.1-0.9L115.2,43.6z M114.4,41.4l0.2,0.1l-0.2,0.2l-0.2-0.2L114.4,41.4z M113.6,35.4v0.2
		c-0.2,0.2-0.5,0.2-0.7,0c0.2,0,0.4-0.2,0.6-0.4L113.6,35.4z M112.6,34l0.1-0.2l0.2,0.2v0.2l-0.1,0.2c-0.2,0-0.4-0.1-0.4-0.2
		C112.5,34.1,112.5,34,112.6,34z M112.6,39.3l0.2,0.2c0,0.1-0.1,0.2-0.3,0.2C112.4,39.4,112.5,39.3,112.6,39.3z M112,36v0.3
		l-0.4,0.1c-0.2,0-0.3,0.1-0.2,0.2H111l-0.1-0.8h0.6C111.7,36,111.9,36,112,36z M103,46.5l-0.1-0.4l0.3-0.1h0.4
		c0.1,0.1,0.2,0.3,0.2,0.5H103z M103.1,36.6l-0.2,0.1c0-0.3-0.2-0.4-0.6-0.4l0.1-0.3l0.4-0.1c0.2,0,0.6,0,1,0.1L103.1,36.6z
		 M104.9,35.3L104.9,35.3c-0.4,0-0.5-0.1-0.6-0.2l0.2-0.2h0.3L105,35l0.1,0.1C105,35.3,104.9,35.3,104.9,35.3z M105.8,36.1
		c0.1,0,0.1-0.1,0.2-0.2l0.3-0.1l0.4,0.1l0.2,0.1l0.1,0c-0.2,0.2-0.3,0.3-0.4,0.4h-0.2c0-0.1-0.1-0.1-0.2-0.1l0.1,0.4l-0.5,0.1V36.1
		z M107.1,41.7h-0.4c0-0.1,0-0.1-0.1-0.1l-0.1-0.1v-0.3h0.8C107.2,41.4,107.1,41.6,107.1,41.7z M107.5,38.1l-0.6-0.1
		c-0.4-0.1-0.6-0.1-0.7-0.1l-0.1-0.2c0.1-0.2,0.3-0.3,0.7-0.4c0.2,0,0.3-0.1,0.4-0.1l1.1-0.1l0.4,0.1l0.4,0.1l0.5-0.1
		c0.1-0.1,0.2-0.2,0.4-0.3c0.1,0.1,0.2,0.1,0.2,0.3v0.2c-0.5,0.1-0.9,0.2-1.1,0.2l-1.4,0.3l-0.1,0.1C107.7,38,107.6,38.1,107.5,38.1
		z M108.1,38.2L108.1,38.2l-0.3-0.1L108,38L108.1,38.2z M108.9,44.6l-0.1,0.2h-0.5c-0.2,0-0.4,0-0.4-0.2s0.1-0.3,0.3-0.3
		c0.2,0,0.4,0,0.8,0.1L108.9,44.6z M108.8,42.6l-0.8,0.1l-0.3-0.1c0.1-0.4,0.3-0.6,0.5-0.7l0.7-0.2l-0.2,0.2c0,0.2,0.2,0.3,0.4,0.4
		C109.1,42.5,109,42.5,108.8,42.6z M109,38.5c0-0.1,0-0.2,0.1-0.3l0.9-0.1c0.1,0.1,0.1,0.1,0.1,0.1h0.1v0.1c0.1,0.4-0.2,0.6-0.7,0.7
		c-0.2,0-0.3,0-0.4-0.1C109.1,38.8,109.1,38.6,109,38.5z M110,47.5h-0.4c-0.1-0.1-0.2-0.2-0.2-0.3s0-0.2,0.1-0.3l0.4-0.1
		c0.2,0,0.4,0.1,0.4,0.2C110.4,47.2,110.2,47.4,110,47.5z M110.7,35.8c-0.1,0-0.2,0-0.2-0.1v-0.2c0.1-0.1,0.3-0.2,0.5-0.3l0.2,0.4
		l-0.1,0.1C111.1,35.8,111,35.8,110.7,35.8C110.8,35.9,110.7,35.9,110.7,35.8z M117.6,88.9l-0.1-0.2l0.6-0.3l0.1,0.2L117.6,88.9z
		 M122.4,87.4c-0.1,0.1-0.2,0.1-0.4,0.1l-0.3-0.1c0.3-0.4,0.5-0.6,0.7-0.7l0.2,0.5C122.5,87.3,122.4,87.3,122.4,87.4z M122.8,58.5
		c-0.2,0-0.3,0-0.4-0.1s-0.2-0.1-0.3-0.1l0.7-0.3L122.8,58.5z M127.5,78.3l-0.2-0.2c0-0.1-0.1-0.1-0.2-0.1c0.2-0.3,0.4-0.5,0.7-0.5
		h0.3l0.1,0.6L127.5,78.3z M127.4,68.9l0.3-0.1c0.2-0.1,0.3-0.1,0.5,0L127.4,68.9z M129.5,76.5l-0.3-0.1v-0.1h0.4L129.5,76.5z
		 M129.7,72.6c-0.1-0.1-0.3-0.2-0.5-0.1l-0.5-0.1l0.5-0.1c0.1-0.1,0.3-0.1,0.5-0.2C129.9,72.3,129.8,72.5,129.7,72.6z M129.6,68.6
		l-0.3-0.4L130,68l0.6-0.2c0.1,0,0.3,0,0.6,0.1c-0.6,0.3-1,0.5-1.2,0.6L129.6,68.6z M130.7,80.6c-0.5-0.1-0.7-0.4-0.8-0.8l0.2-0.1
		l0.5-0.2c0,0.1,0.1,0.2,0.2,0.3c0.1,0,0.2,0.1,0.2,0.3l0.1,0.4C130.9,80.4,130.8,80.5,130.7,80.6z M131.4,76h-0.5
		c0-0.1,0.1-0.3,0.4-0.5c0,0.1,0.1,0.2,0.3,0.2c0.2,0.2,0.3,0.3,0.3,0.3H131.4z M134,64.1l-0.1-0.4c0.1,0,0.2,0,0.3-0.1
		c0.1,0,0.1-0.1,0.2-0.1l0.1,0.4L134,64.1z M134.6,69.6h0.2c-0.2-0.1-0.3-0.2-0.3-0.3l0.1-0.2l0.1-0.1c0.2,0,0.4,0,0.5,0h0.4
		l0.1,0.5C135.3,69.7,135,69.8,134.6,69.6z M135.9,76.7c-0.1,0-0.1,0.1-0.2,0.2c0-0.1-0.1-0.2-0.1-0.2c-0.1,0-0.2-0.1-0.2-0.3
		c0-0.1,0-0.2,0.1-0.3l0.1-0.2l0.3,0.1l0.4,0.2v0.3C136.3,76.4,136.2,76.5,135.9,76.7z"/>
	<path class="st1" d="M223.3,61.6c-0.4-2.6-0.9-5.2-1.4-7.8c-0.5-2.1-0.9-3.7-1.3-4.9c-1.2-3.1-3-4.8-5.2-5c-0.4-0.1-1.1-0.1-2-0.1
		c-1,0-1.7,0-2.1,0.1c-0.8,0.1-1.8,0.2-3.2,0.4l-1.5,0.2c-0.5,0.1-0.9,0.4-1.1,0.8c-3,6.3-5.4,11.5-7.2,15.6
		c-1.9,4.4-8.8,26-10.2,30.3c-0.1,0.5,0,0.9,0.2,1.3s0.6,0.5,1.1,0.6l10.3,0.6c0.7,0,1.2-0.3,1.4-1l1.8-8.6l9.2-1.2v16.9
		c0.1,0.8,0.5,1.3,1.4,1.3l12-0.1c0.4,0,0.8-0.1,1-0.4c0.3-0.3,0.4-0.6,0.4-1v-0.3L223.3,61.6z M211.8,53.3h0.1h0.1
		c0.1,0.1,0.1,0.2,0.1,0.4H212h-0.1h-0.3l-0.1-0.4H211.8z M210.9,52.7L210.9,52.7v0.2l-0.1-0.1L210.9,52.7z M210.2,59.6h0.1
		c0.1,0.1,0,0.1,0,0.2V60l-0.3,0.3c-0.3,0.1-0.3,0.4-0.4,0.3c-0.1-0.1-0.2-0.2-0.3-0.6C209.5,59.8,209.8,59.6,210.2,59.6z
		 M209.7,61.3l-0.2,0.6l-0.1-0.1l0.2-0.6L209.7,61.3z M207.1,58.1H207l0,0V58c0-0.1,0-0.1,0.1-0.1l0.3,0.2
		C207.3,58.1,207.2,58.2,207.1,58.1z M206.9,46.2h0.3v0.4h-0.3V46.2z M206.9,49.4l0.1,0.1h0.2c-0.2,0.4-0.4,0.6-0.4,0.8L206.9,49.4z
		 M202.7,69.6h0.3v0.5c0,0.1-0.1,0.3-0.2,0.6c-0.1-0.1-0.2-0.2-0.2-0.4L202.7,69.6z M202,57c0.2-0.1,0.2-0.2,0.2-0.1
		c0,0.1,0.1,0.3,0,0.6c0,0.2,0,0.4-0.1,0.6c0,0-0.1-0.1-0.2-0.3c-0.1-0.2-0.2-0.4-0.2-0.5S201.8,57.1,202,57z M202.3,59v0.8H202V59
		H202.3z M197.4,82.7L197.4,82.7l0.2-0.1c0.3,0,0.4,0.1,0.4,0.2v0.3l-0.1,0.1l-0.5-0.2L197.4,82.7z M196.5,80.5
		c0.3,0.1,0.3,0.2,0.2,0.3l-0.2-0.1V80.5z M197,86.1c-0.2,0-0.4,0-0.4,0c0-0.2,0.1-0.3,0.4-0.3c0.1,0,0.2,0.1,0.3,0.2
		s0.2,0.1,0.2,0.1L197,86.1z M197.6,84.3c-0.1,0.1-0.2,0.1-0.2,0.1c-0.1,0-0.3-0.1-0.4-0.2c-0.1-0.1-0.2-0.3-0.2-0.4
		c0.6,0,0.9-0.2,1.1-0.6l0.3,0.2c0,0,0.1,0.1,0.2,0.1v0.3l-0.5,0.1c0,0-0.1,0.1-0.2,0.1C197.6,84.2,197.6,84.3,197.6,84.3z
		 M198.2,86.4l-0.4-0.3c0,0,0.1-0.1,0.4-0.3c0.2,0.1,0.3,0.2,0.3,0.4C198.4,86.2,198.4,86.3,198.2,86.4z M199.6,82
		C199.6,82,199.6,82.1,199.6,82c-0.2,0.1-0.2,0-0.2,0c0-0.1,0.1-0.3,0.2-0.3C199.7,81.8,199.7,81.9,199.6,82z M200.3,85.8l-0.3-0.1
		l-0.3-0.2l0.3-0.1h0.1c0,0,0-0.1,0.1-0.1l0.1,0.1C200.5,85.7,200.4,85.8,200.3,85.8z M201.6,80.6c0,0-0.1,0.1-0.2,0.1
		c-0.2,0-0.4-0.1-0.6-0.3c-0.2-0.2-0.3-0.3-0.3-0.5c0-0.1,0.1-0.2,0.2-0.3c0.1-0.1,0.3-0.2,0.5-0.2c0.1,0,0.4,0.1,0.8,0.4
		c0,0.1,0,0.2,0.1,0.4l0.1,0.4H201.6z M203.9,79.3h-0.8V79h0.8V79.3z M211.3,80.3l-0.1-0.1l0.2-0.1l0.1,0.1L211.3,80.3z M211.9,75.6
		h-0.3v-0.1L211.9,75.6L211.9,75.6z M205.2,73.4l6.2-16c1,5,1,15.2,1,15.2L205.2,73.4z M213.4,76.6l-0.1-0.1H213
		c0.2-0.1,0.4-0.2,0.5-0.2C213.4,76.5,213.4,76.6,213.4,76.6z M221.7,80.2h0.3v0.1L221.7,80.2L221.7,80.2z M220.4,74.8l0.4,0.1V75
		h-0.4V74.8z M220.3,80l-0.4,0.1c0,0-0.2,0.1-0.4,0.1s-0.3-0.1-0.4-0.3c-0.1-0.2-0.2-0.3-0.2-0.3s0,0,0-0.1l0.6-0.2
		c0.2,0,0.3-0.1,0.4-0.3c0,0.4,0,0.6,0,0.6l0.3,0.2C220.2,79.8,220.3,79.9,220.3,80z M219.4,69.3c-0.2,0.1-0.5,0.2-0.7,0.2
		c-0.1,0-0.2-0.1-0.4-0.2V69h0.6C219.1,69,219.3,69.1,219.4,69.3z M217.3,74.7v-0.4c-0.1-0.4-0.3-0.6-0.5-0.6
		c-0.1,0-0.2-0.1-0.2-0.1c0.3,0,0.7,0.1,1.1,0.4c0,0.1,0,0.2,0.1,0.4c0,0.2,0,0.3,0.1,0.4L217.3,74.7z M217.4,78.7L217.4,78.7
		l-0.3,0.1v-0.1H217.4z M215.9,72.9c0,0-0.1,0-0.1,0.1l-0.5-0.2l0.1-0.1l0.1-0.1l0.4,0.1C216,72.7,215.9,72.8,215.9,72.9z
		 M216.1,74.8v0.3h-0.3v-0.3H216.1z M215.7,76.8l0.4-0.4c0,0.1,0.1,0.1,0.2,0.1c0.1,0.1,0.2,0.2,0.2,0.3c0,0.1-0.2,0.3-0.5,0.5
		c-0.2,0-0.4-0.1-0.7-0.2C215.3,77.2,215.4,77.1,215.7,76.8z M216.6,78.8v0.6c-0.3-0.2-0.4-0.3-0.4-0.6H216.6z M216.2,83.9
		c0,0,0.1,0,0.2,0c0.1,0,0.2,0.1,0.2,0.3h-0.4V83.9z M215.5,68.6c0-0.2,0.1-0.4,0.2-0.4c0.5,0.1,0.8,0.4,0.8,0.7h-0.1v0.2h-0.6
		c-0.2-0.2-0.2-0.4,0.1-0.5L215.5,68.6z M215.4,50v-0.2l0.1,0.3v0.1L215.4,50z M217,53.1c-0.2-0.1-0.3-0.2-0.3-0.2
		c-0.1,0-0.3-0.1-0.3-0.2c0-0.2,0.1-0.3,0.3-0.3s0.4,0.1,0.6,0.2l-0.1,0.1C217.1,52.9,217.1,53,217,53.1z M217,64.5L217,64.5
		l-0.1,0.2h-0.4v-0.3L217,64.5z M216.3,62l-0.1,0.1L216,62l0.2-0.1L216.3,62z M216,70.3h0.5l0.1,0.1l0.1,0.3h-0.1l-0.1,0.1v0.1
		l-0.3-0.3L216,70.3z M216.4,70.1c0-0.2,0.1-0.3,0.4-0.4c0.1,0,0.2,0,0.2,0.1l0.2,0.1v0.3h-0.4C216.7,70.1,216.6,70.1,216.4,70.1z
		 M217.6,70.9c-0.1,0.3-0.2,0.5-0.3,0.7l-0.1-0.8h0.1l0.1,0.1L217.6,70.9z M217.4,68.4c0.3,0,0.4,0,0.4,0.1l-0.1,0.2
		c0,0-0.1-0.1-0.2-0.1L217.4,68.4z M217.9,65.2L217.9,65.2l0.4,0.1v0.1L217.9,65.2z M218.9,67.8c0,0.2-0.1,0.3-0.4,0.3L218.9,67.8z
		 M218.6,68.3L218.6,68.3l0.1,0.1c0,0.1-0.1,0.1-0.4,0.1v-0.1c0-0.1,0.1-0.1,0.1-0.1H218.6z M218.5,61.3h-0.4l-0.1-0.1l0.1-0.2
		C218.4,60.9,218.5,61,218.5,61.3z M218.2,60.1h-0.5V60L218.2,60.1L218.2,60.1z M218,55.1c0,0.1-0.1,0.2-0.3,0.3h-0.4
		c-0.1-0.1-0.1-0.2-0.1-0.2c0-0.1,0.1-0.2,0.1-0.2c0.2-0.1,0.4-0.1,0.4-0.2C217.9,54.8,218,54.9,218,55.1z M216.8,50.6
		c0.1,0,0.4,0,0.6-0.1l-0.1,0.2c0,0.1,0.1,0.3,0.3,0.4l-0.3,0.1h-0.9l-0.1-0.1C216.5,50.8,216.7,50.6,216.8,50.6z M216.1,50
		c-0.1,0.1-0.2,0.2-0.2,0.3h-0.3c0-0.1,0-0.2-0.1-0.2v-0.3l0.8,0.1C216.3,49.8,216.2,49.9,216.1,50z M215.4,48.2h0.2v0.6h-0.2V48.2z
		 M215.7,71.1h1c0,0.1-0.1,0.2-0.2,0.2c-0.1,0.1-0.2,0.1-0.3,0.1l-0.5-0.1c-0.2,0-0.3,0-0.4,0.1l-0.2-0.4c0,0,0.1,0,0.2,0
		C215.5,71,215.6,71.1,215.7,71.1z M215.2,65.6c-0.1,0-0.2-0.1-0.2-0.1h0.3C215.3,65.6,215.3,65.6,215.2,65.6z M215.1,71.8l-0.1,0.3
		l-0.1-0.1l0.1-0.2L215.1,71.8z M214.8,49.3c0,0,0.1,0.1,0.3,0.1c0,0.2-0.1,0.4-0.2,0.6l-0.2-0.2L214.8,49.3z M213.6,67.8l0.3,0.1
		C214,68,214,68,214,68.1h-0.4V67.8z M213.6,69.9L213.6,69.9l0.6-0.1v0.1H213.6z M214,75.2h0.2v0.1L214,75.2L214,75.2z M214.3,80.2
		h-0.2v-0.3h0.2V80.2z M214.5,74.1h-0.2v-0.3h0.2V74.1z M214.9,72.7c0.1,0.1,0,0.1-0.1,0.1L214.9,72.7z M215.8,80.2v0.2h-0.7
		c0-0.1-0.1-0.2-0.3-0.2H215.8z M215.4,83.6h-0.5v-0.3h0.5V83.6z M215.4,84.5c0,0,0.2,0.1,0.3,0.2l0.4,0.2l-0.7,0.1V84.5z
		 M216.3,86.9l0.4-0.2c0.2,0.2,0.3,0.3,0.3,0.4h-0.8L216.3,86.9z M217.6,91.3c-0.2-0.6-0.4-0.9-0.5-1.1s-0.2-0.3-0.3-0.5h0.7
		c0,0.2,0.1,0.4,0.2,0.7l-0.1,0.1L217.6,91.3z M218.3,83.4L218.3,83.4c-0.1,0-0.2,0.1-0.2,0.1v0.1l-0.2-0.2c0,0-0.1-0.1-0.1-0.2h0.5
		C218.3,83.3,218.3,83.4,218.3,83.4z M218.6,73.7l-0.4-0.2c0,0,0-0.1,0.1-0.1l0.2-0.1C218.6,73.6,218.7,73.7,218.6,73.7L218.6,73.7z
		 M218.1,70.5c0,0,0.1-0.1,0.2-0.2c0.1-0.1,0.3-0.2,0.6-0.4h0.7c0.1,0,0.2,0.1,0.2,0.3c-0.2,0.1-0.4,0.3-0.4,0.4
		c-0.1,0.1-0.2,0.2-0.6,0.3c0.3,0.3,0.5,0.4,0.7,0.4s0.3,0.1,0.5,0.4l-0.3,0.1h-1C218.3,71.1,218.1,70.7,218.1,70.5z M222.9,90.2
		c0,0-0.1,0-0.2,0c-0.1,0-0.1-0.1-0.3-0.3c-0.2-0.2-0.3-0.4-0.3-0.5v-0.1c0,0,0.1-0.1,0.1-0.2c-0.2-0.1-0.2-0.4-0.3-0.6v-0.6
		l-0.2-0.2c-0.1,0-0.1-0.1-0.1-0.1l-0.2-0.2L221,87h0.1v-0.1h0.1l0.4-1h-0.4c-0.1,0-0.2,0.1-0.4,0.1c-0.4,0,0.2-0.2,0.1-0.2
		c0.4-0.2,0.4-0.4,0-0.6s-0.7-0.3-0.7-0.4v-0.6l0.2-0.3c0,0,0.1-0.1,0.1-0.2c0,0,0-0.1,0.1-0.1s0.1,0,0.1-0.1s0-0.2-0.1-0.2
		c-0.1-0.1-0.1-0.1-0.2-0.1l0.1-0.4c0-0.2-0.3-0.2-0.1-0.3c0-0.1-0.2-0.1-0.3-0.1l-0.3-0.2c-0.1-0.2-0.1-0.4,0-0.5l-0.3-0.2
		c-0.1-0.1-0.1-0.2-0.1-0.2c0-0.2,0.2-0.4,0.5-0.5c0.3-0.2,0.6-0.2,0.8-0.2c0.1,0,0.3,0,0.5,0.1s0.4,0.2,0.6,0.3v0.6l-0.3-0.2
		c-0.4,0-0.6,0.1-0.6,0.3v0.7l0.2,0.1l0.2,0.1l0.5-0.4c0.1,0.3,0.2,0.5,0.2,0.7c0,0.1,0,0.2-0.1,0.2s-0.2,0.1-0.2,0.3
		c0,0.1,0.1,0.3,0.2,0.5c0.2,0.3,0.3,0.6,0.2,0.9c0,0.1-0.1,0.3-0.2,0.6c-0.1,0.2,0.1,0.4,0.5,0.7c-0.2,0.2-0.4,0.3-0.4,0.5l0.1,0.4
		l0.3,0.4l0.2,1.7l0.5,1.3C223,90.1,222.9,90.2,222.9,90.2z"/>
</g>
</svg>
