<?xml version="1.0" encoding="utf-8"?>
<!-- Generator: Adobe Illustrator 23.0.5, SVG Export Plug-In . SVG Version: 6.00 Build 0)  -->
<svg version="1.1" id="Capa_1" xmlns="http://www.w3.org/2000/svg" xmlns:xlink="http://www.w3.org/1999/xlink" x="0px" y="0px"
	 viewBox="0 0 1280 720" style="enable-background:new 0 0 1280 720;" xml:space="preserve">
<style type="text/css">
	.st0{fill:#67B5B5;}
	.st1{fill:#914DDB;}
	.st2{fill:#FFFFFF;}
	.st3{opacity:0.5;}
	.st4{fill:#DB6437;}
	.st5{fill:#EFC350;}
</style>
<g>
	<rect x="0.2" y="-0.5" class="st0" width="1279.9" height="720.4"/>
	<path class="st1" d="M640.1,318.4c-252.1,0-479.5-106-639.9-275.9v180.8c174.5,142.4,397.3,227.7,639.9,227.7
		c242.7,0,465.5-85.4,640-227.8V42.5C1119.6,212.4,892.2,318.4,640.1,318.4z"/>
	<path class="st2" d="M0.2-0.5v43C160.6,212.4,388,318.4,640.1,318.4c252.1,0,479.5-106,640-275.9v-43H0.2z"/>
	<g>
		<g>
			<g class="st3">
				<g>
					<path class="st0" d="M1130.3,94c-13.1,9.8-28.4-10.6-15.3-20.4C1128.2,63.8,1143.5,84.2,1130.3,94z"/>
				</g>
			</g>
			<g>
				<path class="st4" d="M920.7,87.3c-9.1-2.9-4.6-17.1,4.5-14.2C934.3,76.1,929.8,90.3,920.7,87.3z"/>
				<path class="st4" d="M1214.3,68.9c-9.1-2.9-4.6-17.1,4.5-14.2C1227.9,57.6,1223.4,71.8,1214.3,68.9z"/>
			</g>
		</g>
		<g>
			<g>
				<path class="st5" d="M1080.6,158.1c-5.5,4.1-11.8-4.4-6.4-8.5C1079.7,145.5,1086.1,154,1080.6,158.1z"/>
			</g>
		</g>
	</g>
	<g>
		<g>
			<g class="st3">
				<g>
					<path class="st0" d="M263.3,152.2c6.7-15,30-4.5,23.3,10.5C279.8,177.6,256.5,167.2,263.3,152.2z"/>
				</g>
			</g>
			<g>
				<path class="st4" d="M369.5,116.1c3.9-8.7,17.5-2.6,13.6,6.1C379.1,130.9,365.5,124.8,369.5,116.1z"/>
				<path class="st4" d="M38.5,17.2C42.4,8.4,56,14.5,52,23.3C48.1,32,34.5,25.9,38.5,17.2z"/>
			</g>
		</g>
		<g>
			<g>
				<path class="st5" d="M135.1,76.7c2.8-6.2,12.5-1.9,9.7,4.4C142,87.3,132.3,82.9,135.1,76.7z"/>
			</g>
		</g>
	</g>
</g>
</svg>
