<?xml version="1.0" encoding="utf-8"?>
<!-- Generator: Adobe Illustrator 23.0.5, SVG Export Plug-In . SVG Version: 6.00 Build 0)  -->
<svg version="1.1" id="Capa_1" xmlns="http://www.w3.org/2000/svg" xmlns:xlink="http://www.w3.org/1999/xlink" x="0px" y="0px"
	 viewBox="0 0 385 385" style="enable-background:new 0 0 385 385;" xml:space="preserve">
<path id="Arrow_Forward" d="M362.4,72c-1.5-2.8-4.1-4.9-7.2-5.9L193.5,15.9c-6.4-2-13.1,1.6-15,8c-1.9,6.4,1.7,13.2,8.1,15.2
	l133.8,41.5L27.5,236.6c-5.9,3.1-8.1,10.5-4.9,16.4s10.5,8.2,16.3,5.1L331.8,102l-40.1,134.2c-1.9,6.4,1.7,13.2,8.1,15.2
	c6.4,2,13.1-1.6,15-8l48.5-162.2C364.2,78.1,363.8,74.8,362.4,72z"/>
</svg>
