<?xml version="1.0" encoding="utf-8"?>
<!-- Generator: Adobe Illustrator 23.0.5, SVG Export Plug-In . SVG Version: 6.00 Build 0)  -->
<svg version="1.1" id="Capa_1" xmlns="http://www.w3.org/2000/svg" xmlns:xlink="http://www.w3.org/1999/xlink" x="0px" y="0px"
	 viewBox="0 0 200 200" enable-background="new 0 0 200 200" xml:space="preserve">
<path fill="#A64CE1" d="M14.9,132.5c-2.2,5.3-2.2,11.1,1.6,15.6c4.4,5.3,13.1,5.8,19.4,5.8c12.1,0,24.4-2.7,36.3-6.7
	c0.2,1.4,0.5,2.8,0.8,4.2c2.4,12,5.8,24.4,12.3,34.8c3.5,5.5,9,11.1,16.1,10.3c7.5-0.9,12.4-8.5,15.6-14.5
	c5.8-10.9,8.7-23.3,10.8-35.4c2.2,0.7,4.4,1.4,6.6,2.1c11.7,3.5,24.7,6.4,37,4.8c6.5-0.9,13.2-3.9,14.9-10.8
	c1.8-7.7-3.6-15.9-7.9-21.6c-5.8-7.8-12.9-14.9-20.6-21.4c9.4-7.7,18.5-16.4,24.7-26.9c3.4-5.7,5.8-13.1,2.2-19.3
	c-4-6.7-13.8-7.4-20.6-7.4c-12.2,0-24.6,3.3-36.2,7.2c-0.7-4-1.5-8-2.5-11.9c-2.5-10.5-6-22.2-13-30.7c-3.8-4.7-8.8-8.3-15.2-7
	c-6.8,1.3-11.4,8.7-14.4,14.3c-5.7,10.7-9.2,22.8-11.3,35.2c-5.5-1.8-11.1-3.3-16.7-4.6C44.7,46.2,33,44.4,23,47.8
	c-15.6,5.2-8.3,21.9-1.4,31.2c5.9,7.9,12.9,14.9,20.7,21.3c-2.7,2.3-5.4,4.6-8,7C26.5,114.4,18.9,122.6,14.9,132.5z M72.7,121.1
	c4.1,2.4,8.2,4.7,12.2,6.9c3.5,1.9,7.1,3.7,10.7,5.5c-6.8,3.1-13.6,5.9-20.6,8.3C73.9,134.9,73.1,128,72.7,121.1z M121.3,159.3
	c-2.7,10.7-6.4,23.3-14.9,30.9c-7.7,7-15.2-1.2-19.2-7.8c-6-10.1-8.9-22.3-11.1-33.8c-0.2-0.9-0.3-1.7-0.5-2.6
	c8.4-3,16.6-6.6,24.4-10.5c7.9,3.7,16,7,24.2,9.9C123.5,150.1,122.5,154.7,121.3,159.3z M125,141.8c-7-2.4-13.8-5.2-20.6-8.3
	c3.6-1.8,7.2-3.7,10.7-5.5c4.2-2.3,8.4-4.7,12.5-7.2C127,127.8,126.1,134.8,125,141.8z M164.2,111c7.6,7.2,16.5,16.3,18.5,26.9
	c2,10.6-11.1,12.3-18.6,12.2c-11.6,0-23.3-3.3-34.3-6.8c-0.4-0.1-0.8-0.3-1.3-0.4c1.3-8.1,2.2-16.2,2.7-24.4
	c8-5,15.8-10.4,23.2-16.2C157.8,105.1,161,108,164.2,111z M131.5,90.7c-0.1-1.7-0.1-3.5-0.2-5.3c7.1,4.6,13.9,9.5,20.4,14.7
	c-6.5,5.1-13.4,9.7-20.4,14.1C131.7,106.4,131.8,98.5,131.5,90.7z M147.8,51.7c9.2-1.9,24.5-4.9,32.4,2.2c7.1,6.4-1.5,18.4-5.7,23.8
	c-5.6,7.3-12.3,13.8-19.5,19.7c-7.5-6-15.6-11.5-24-16.5c-0.5-8.1-1.4-16.1-2.7-24.1C134.8,54.8,141.3,53.1,147.8,51.7z M127.5,78.8
	c-7.9-4.6-15.9-8.7-23.7-12.5c6.9-3.1,14-5.9,21.1-8.3C126.1,64.9,126.9,71.8,127.5,78.8z M77.3,45.9c2.5-11.7,6.1-24.9,14.1-34.2
	c18.1-20.7,30.4,29.9,32.3,39.6c0.2,1,0.4,2.1,0.6,3.1c-0.5,0.2-0.9,0.3-1.4,0.5c-7.8,2.7-15.5,6-23,9.5c-7.9-3.7-16-7.1-24.3-10
	C76.1,51.6,76.7,48.7,77.3,45.9z M75,58.2c7,2.4,14,5.1,20.9,8.2c-7.8,3.8-15.4,8-22.9,12.4c-0.1,0.1-0.2,0.1-0.3,0.2
	C73.2,72,73.9,65.1,75,58.2z M72.4,83.2c8.8-5.5,18-10.5,27.4-15c9.6,4.4,19,9.5,28,15.1c0.7,11,0.7,22.1,0,33.1
	c-4.9,2.9-9.8,5.7-14.7,8.4c-4.4,2.3-8.8,4.5-13.2,6.7c-4.4-2.1-8.9-4.4-13.2-6.7c-4.9-2.6-9.6-5.4-14.3-8.3
	c-0.3-5.5-0.4-11-0.5-16.4C71.9,94.4,72.1,88.8,72.4,83.2z M42.1,94.8c-9.1-7.7-19-17-23.7-28.3c-11.1-27.1,41.9-13,51.7-9.9
	c0.3,0.1,0.5,0.2,0.8,0.3C69.7,65,69,73.3,68.6,81.4c-8,4.9-15.7,10.3-23.1,16.2C44.4,96.7,43.3,95.7,42.1,94.8z M68.6,114
	c-6.9-4.4-13.6-9-20-14.1c0.8-0.7,1.5-1.2,2-1.6c5.7-4.4,11.7-8.6,17.9-12.7c-0.2,4.8-0.2,9.6-0.3,14.3
	C68.2,104.7,68.3,109.4,68.6,114z M45.3,102.7c7.5,5.9,15.4,11.2,23.5,16.1c0.5,8.1,1.4,16.1,2.6,24.1c-3.5,1.2-7,2.3-10.6,3.3
	c-11.4,3.1-25.2,6.3-36.9,2.5C3.1,141.7,31.9,114.1,45.3,102.7z"/>
<circle fill="#A64CE1" cx="101.9" cy="100" r="7"/>
<circle fill="#A64CE1" cx="151.7" cy="49.4" r="5"/>
<circle fill="#A64CE1" cx="174.5" cy="80.8" r="5"/>
</svg>
