<?xml version="1.0" encoding="utf-8"?>
<!-- Generator: Adobe Illustrator 23.0.5, SVG Export Plug-In . SVG Version: 6.00 Build 0)  -->
<svg version="1.1" id="Capa_1" xmlns="http://www.w3.org/2000/svg" xmlns:xlink="http://www.w3.org/1999/xlink" x="0px" y="0px"
	 viewBox="0 0 200 200" enable-background="new 0 0 200 200" xml:space="preserve">
<path fill="#00B7B7" d="M194.7,64.3c0.9-0.1,1.7-1,1.1-2c-6.3-10.2-11.5-21-17.8-31.3c-0.3-0.4-0.6-0.6-1-0.6
	c-0.3-0.7-1.1-1.2-1.9-0.7c-14,8.7-28.2,17.1-42,26.1c-13.8,9-27.1,18.8-41.3,27.1c-14.4,8.4-29.1,16.3-43.3,25.2
	c-14.5,9.3-28.8,18.9-43.5,28c-0.3,0.2-0.4,0.4-0.5,0.6c-0.2,0.4-0.2,0.8,0.1,1.3c7,10.4,14.3,20.7,21,31.4c0.4,0.6,1.1,0.7,1.6,0.5
	c0.3,0.2,0.8,0.2,1.2-0.2c10.7-8.6,23.4-15.3,35.1-22.4c12.6-7.7,25.2-15.5,37.8-23.3c21.9-13.5,43.9-26.8,65.6-40.7
	c6.5-4.1,12.9-8.3,19.3-12.6C188.9,68.8,192.3,66.8,194.7,64.3z M183.8,68.2c-3-4.9-5.8-9.9-9.9-14.1c-1.2-1.2-3,0.7-1.8,2
	c3.9,4,6.5,8.9,9.4,13.6c0.2,0.3,0.4,0.5,0.6,0.5c-1.7,1.1-3.3,2.2-5,3.3c-2.1-4.5-3.4-9.4-7-12.9c-1.2-1.2-3,0.8-1.8,2
	c3.4,3.3,4.7,8.2,6.6,12.4c-1.2,0.8-2.4,1.6-3.6,2.4c-0.5,0.3-1,0.6-1.5,0.9c-1.9-5.8-6.1-10.4-9.3-15.5c-0.9-1.4-3.2,0-2.3,1.4
	c3.2,5,7.5,9.7,9.2,15.6c-2.9,1.8-5.7,3.7-8.6,5.5c0.1-0.3,0-0.6-0.2-1c-3.1-4.9-6.4-9.6-9.1-14.7c-0.8-1.5-3.1-0.1-2.3,1.4
	c2.7,5.1,6,9.8,9.1,14.7c0.2,0.3,0.5,0.5,0.8,0.6c-1.9,1.2-3.7,2.4-5.6,3.5c0,0,0-0.1,0-0.1c-2.8-3.8-4.3-8.4-7.5-12
	c-1.1-1.3-2.9,0.7-1.8,2c3,3.4,4.4,7.8,7,11.4c0,0,0,0.1,0.1,0.1c-1,0.7-2.1,1.3-3.1,2c0-0.2-0.1-0.4-0.2-0.5
	c-3.3-5.4-6.4-10.9-10.8-15.7c-1.2-1.3-3,0.7-1.8,2c4.2,4.5,7.1,9.9,10.3,15.1c0.1,0.2,0.3,0.3,0.4,0.4c-2.2,1.3-4.3,2.7-6.5,4
	c-2.7-4.8-4.5-10.1-8.4-14.2c-1.2-1.2-3,0.7-1.8,2c3.7,3.9,5.3,9.1,7.9,13.6c-0.8,0.5-1.6,1-2.4,1.5c0-0.3-0.1-0.6-0.4-0.9
	c-2.1-2-3.3-4.6-4.8-7c-1.8-2.9-3.9-5.6-5.7-8.4c-0.9-1.4-3.2,0-2.3,1.4c1.8,2.9,3.8,5.6,5.7,8.4c1.8,2.6,3,5.4,5.3,7.6
	c0.1,0.1,0.1,0.1,0.2,0.1c-1.7,1-3.3,2.1-5,3.1c-2.6-4.2-4.8-8.6-7.4-12.8c-0.9-1.5-3.2-0.1-2.3,1.4c2.6,4.2,4.9,8.6,7.4,12.8
	c-1.4,0.9-2.8,1.7-4.2,2.6c-1.6-2.3-2.5-5-3.6-7.5c-1.3-2.9-3.7-5.3-5.4-8c-0.9-1.4-3.2,0-2.3,1.4c1.5,2.4,3.3,4.6,4.8,6.9
	c1.7,2.7,2.4,5.9,4.2,8.5c-2.7,1.6-5.3,3.3-8,4.9c0.1-0.3,0.1-0.7-0.1-1.1c-2.6-4.2-4.5-8.8-6.3-13.4c-0.6-1.6-3.2-0.8-2.6,0.7
	c1.9,4.8,3.9,9.6,6.6,14.1c0.2,0.4,0.6,0.6,0.9,0.6c-1.6,1-3.1,1.9-4.7,2.9c0-0.2-0.1-0.4-0.2-0.5c-3.4-5.4-6.7-10.9-9.3-16.7
	c-0.7-1.6-3-0.1-2.3,1.4c2.6,5.8,5.9,11.3,9.3,16.7c0.1,0.2,0.2,0.3,0.4,0.4c-1.3,0.8-2.6,1.6-3.9,2.4c0,0,0-0.1,0-0.1
	c-2.8-4.6-4.9-9.5-8.8-13.3c-1.2-1.2-3,0.7-1.8,2c3.6,3.6,5.7,8.4,8.3,12.7c0,0,0,0.1,0.1,0.1c-2,1.3-4.1,2.5-6.1,3.8
	c0-0.2-0.1-0.3-0.2-0.5c-3-4.8-5.6-9.9-7.8-15.1c-0.7-1.6-3.2-0.8-2.6,0.8c2.3,5.5,5,10.7,8.1,15.7c0.1,0.2,0.2,0.3,0.4,0.4
	c-1.2,0.7-2.4,1.5-3.6,2.2c0-0.2-0.1-0.3-0.2-0.5c-2.7-4.4-5.1-9-7.8-13.4c-0.9-1.5-3.2-0.1-2.3,1.4c2.7,4.4,5.1,9,7.8,13.4
	c0.1,0.2,0.2,0.3,0.3,0.4c-2,1.2-4,2.4-6,3.7c0-0.2,0-0.4-0.1-0.6c-2-4.8-5-9-7.7-13.4c-0.9-1.5-3.2-0.1-2.3,1.4
	c2.6,4.2,5.5,8.2,7.4,12.7c0.2,0.5,0.6,0.7,1,0.8c-1.3,0.8-2.6,1.6-3.8,2.4c-0.6,0.4-1.2,0.8-1.9,1.1c-3.3-5.6-5.8-11.7-9.5-17
	c-1-1.4-3.2,0-2.3,1.4c3.7,5.4,6.2,11.4,9.5,17c-1.9,1.2-3.8,2.3-5.7,3.5c-2.7-4.7-4.3-10.3-8.6-13.8c-1.3-1.1-3.1,0.9-1.8,2
	c4,3.3,5.6,8.7,8.1,13.2c-2.2,1.3-4.3,2.7-6.5,4c0-0.1-0.1-0.1-0.1-0.2c-3.4-4-5.9-8.8-7.9-13.6c-0.6-1.6-3.2-0.8-2.6,0.7
	c2.1,5.2,4.7,10.1,8.3,14.4c-1.8,1.1-3.5,2.2-5.3,3.3c-2.7-4.2-5.6-8.3-8.2-12.5c-0.9-1.5-3.2-0.1-2.3,1.4c2.7,4.2,5.6,8.3,8.2,12.5
	c-1.9,1.2-3.8,2.3-5.7,3.5c-3.2-4.6-5.7-9.6-9.9-13.4c-1.3-1.1-3.1,0.8-1.8,2c4.1,3.6,6.4,8.5,9.5,12.9c-2.1,1.4-4.2,2.8-6.2,4.4
	c-6.3-10-13.1-19.7-19.8-29.5c13.8-8.6,27.2-17.6,40.9-26.3c14.1-9,28.7-17,43.2-25.3c14.3-8.2,27.7-17.9,41.4-27
	c14-9.2,28.4-17.7,42.7-26.5v0c6,9.8,11.1,20.2,17.1,30c-0.8,0.9-1.8,1.6-2.8,2.3c0-0.1-0.1-0.2-0.2-0.4c-2.6-3.6-4-7.8-7-11.2
	c-1.1-1.3-2.9,0.7-1.8,2c2.8,3.2,4.1,7.3,6.6,10.7c0.1,0.2,0.2,0.3,0.4,0.4c-0.6,0.4-1.2,0.8-1.7,1.1c-0.7,0.5-1.5,1-2.2,1.5
	C184,68.7,183.9,68.4,183.8,68.2z"/>
<path fill="#00B7B7" d="M154.3,70.3c2.4,3.9,4.5,8,6.9,11.9c0.9,1.5,3.2,0.1,2.3-1.4c-2.4-3.9-4.5-8-6.9-11.9
	C155.6,67.4,153.4,68.8,154.3,70.3z"/>
</svg>
