<?xml version="1.0" encoding="utf-8"?>
<!-- Generator: Adobe Illustrator 23.0.5, SVG Export Plug-In . SVG Version: 6.00 Build 0)  -->
<svg version="1.1" id="Capa_1" xmlns="http://www.w3.org/2000/svg" xmlns:xlink="http://www.w3.org/1999/xlink" x="0px" y="0px"
	 viewBox="0 0 800 800" style="enable-background:new 0 0 800 800;" xml:space="preserve">
<style type="text/css">
	.st0{fill:#856B8C;}
	.st1{fill:#E77574;}
	.st2{fill:#6C96A4;}
</style>
<g>
	<path class="st0" d="M370.7,108.3c0-8.8-0.5-17.7,0.1-26.5c0.6-7.9-2.9-12.7-9.2-16.1c-4.4-2.4-8.6-5.1-12.1-8.7
		c-10.8-10.9-11-26.2-0.4-37c6.3-6.4,13.9-10.4,22.8-11.4c13.9-1.6,24.3,4.6,29.8,17.6c5.6,13,3.1,24.8-8.3,33.4
		c-7.8,5.8-10.7,12.6-10,22.2c2.2,31.7,3.9,63.5,6.7,95.2c0.5,5.7,3.4,10,8.7,11.7c28.5,9.1,47.9,29.1,64.5,52.8
		c22.6,32.4,36.6,68.5,46.7,106.4c16.5,62.5,24.8,126,22.2,190.8c-0.6,14.1-1.8,28.3-3,42.4c-1.1,13,3.6,22.7,14.3,30.4
		c13.4,9.6,25.2,21.3,36.8,33c13.9,14.2,15.5,32.2,11.9,50.9c-4.6,23.7-10.7,47-16.7,70.4c-0.1,0.5-0.3,0.9-0.5,1.4
		c-3.7,11-12.6,13.1-20.4,4.6c-4.2-4.7-7.9-9.9-11.6-15c-11.6-15.9-23-31.8-34.6-47.8c-1.6-2.2-3.2-4.3-4.9-6.3
		c-6.1-7.3-13.7-9.1-22.4-5.9c-4.7,1.7-9.5,3.1-14.5,3.7c-7.3,0.8-7.2,0.8-8,8.3c-1.6,13.6-2.5,27.2-6,40.5
		c-1.1,4.4-2.3,8.7-4.8,12.5c-2.9,4.5-6,5.1-10.5,2.2c-5.4-3.5-8.9-9-13.1-13.7c-2.7-2.9-3.8-3.2-5.7,0.7c-3.7,7.8-8,15.4-11.8,23.1
		c-3.5,7.1-9.1,12.2-15.2,17c-2.3,1.9-2.9,0.4-4.2-1c-6.9-7.6-10.6-16.8-14.6-26c-1.6-3.8-3.3-7.6-4.8-11.5
		c-0.8-2.2-1.8-2.4-3.7-1.2c-2.2,1.4-4.6,2.7-7,3.9c-8.5,4.1-12.8,2.7-17.2-5.6c-4.7-8.8-7.2-18.2-8.5-28c-0.9-6.9-2-13.8-2.7-20.8
		c-0.3-2.5-1.3-3.4-3.6-3.8c-6.1-1-12.2-2-18.2-3.2c-4.5-0.9-7.7,0.8-10.5,4.1c-3.4,4.1-5.6,9-8.1,13.7c-9.9,18.5-19.8,37-29.5,55.6
		c-3.6,6.9-10.1,10.4-15.9,14.9c-1.6,1.2-2.4,0.1-3.2-1c-4.3-5.5-8.4-11-10.3-18c-6.9-25.9-14.2-51.7-21.3-77.5
		c-4.7-17.2-0.3-31.9,12.1-44.4c8.2-8.3,17.9-15,26.5-22.9c2.5-2.2,5-4.4,7.2-6.9c5.4-6,7.8-12.6,5.2-21.1
		c-7.7-25.3-11.1-51.4-11.8-77.8c-1.1-42.5,0.9-84.9,8-127c9.1-54.4,27.3-105.6,55.7-152.9c11.6-19.3,26.8-34.8,48.1-43.5
		c4.5-1.8,6.2-5.8,6.5-10.4c1.4-23.4,2.8-46.9,4.2-70.3C370.1,108.3,370.4,108.3,370.7,108.3z M267.1,482.3c0,10,0,20,0,30
		c0,9.8,5.1,15.9,14.1,18.9c24.7,8.4,50.1,13.6,76.1,15.1c49.7,2.7,96.9-7.9,142.1-28.2c12.4-5.6,14.7-8.9,14-22.7
		c-1.5-29.4-4.5-58.7-9.8-87.8c-7.9-43.3-19-85.7-38.2-125.6c-1.8-3.6-2.9-4.8-7.1-2.7c-27.1,13.6-55.9,18.6-86.2,16.3
		c-20.9-1.6-41.1-6.3-61-12.4c-3.2-1-4.7-0.6-5.9,2.6c-2.4,6.5-5.4,12.9-7.9,19.4C275.4,362.2,267.5,421.7,267.1,482.3z
		 M285.7,620.6c-0.6,1.3-0.1,2.1,0.2,3c5,13,10.2,26,14.3,39.3c2.8,9.1,9.8,13,19,13.4c36.1,1.8,72.1,3.8,108.2,5.6
		c19.6,0.9,38.5-1.8,57.3-6.2c6.2-1.4,10.1-5.2,11.7-11.6c3.8-14.7,6.6-29.5,10.1-44.2c1.1-4.6-0.1-5.3-4.3-4.5
		c-30,6-60.2,10.7-90.8,13.2c-32.8,2.7-65.5,2.2-98.1-3C304.1,624.2,294.9,622.3,285.7,620.6z M378.2,285.3c15.9,0.1,27-0.9,38-3.2
		c13.6-2.8,26.7-7.1,37.8-16c2.6-2.1,3-3.6,0.5-6.3c-5.6-6.1-10.8-12.7-16.3-18.9c-10.7-12-21.3-24.3-36.6-31.1
		c-20.6-9.2-41.2-4.9-56.3,11.6c-12,13.1-21.1,28.2-31.7,42.3c-2.7,3.6-1.8,4.9,1.8,6.8C336.6,281.6,359.5,284.8,378.2,285.3z
		 M392.1,779.5c7.3-16,14.7-31.8,21.8-47.8c1.7-3.7,2.8-4,5.7-1.1c5.8,5.9,12.1,11.5,18,17.3c1.5,1.5,3.2,1.7,5,1.3
		c1.8-0.3,1.6-1.9,1.7-3.2c0.5-9.5,1.7-18.9,1.3-28.4c-0.3-8.7-5.7-14.8-14.3-15.4c-12.9-1-25.9-1.9-38.8-2.5
		c-13-0.6-26-0.9-38.9-1.1c-5.6-0.1-11.3,3.4-12,7.3c-1.8,10.4-1.2,20.6,4,30.1c5.2,9.5,5.8,9.6,12.9,1.8c0.5-0.5,0.9-1,1.4-1.5
		c7.4-7.8,10-7.4,14.3,2.5c5,11.4,9.6,23,14.4,34.5C389.5,775.3,389.8,777.8,392.1,779.5z M561.8,747.8c4-20.4,8.7-39.7,11.2-59.3
		c1.3-9.9,1.1-19.8-5.6-28.1c-11.7-14.4-26.2-26-39.9-39.3c-4.6,15.5-9.8,30.2-11.4,45.9c-1.8,18,3.9,33.2,17,45.4
		c5.2,4.8,9.5,10.2,13,16.3C550.2,735.7,555.6,741.4,561.8,747.8z M266.2,626.6c-11.9,10.1-24.3,18.6-33.5,30.5
		c-4.8,6.2-7.3,13-5.7,21.4c4.2,21.4,9.8,42.4,15.1,63.5c0.4,1.7,0,4.2,2.9,4.6c2.8,0.4,3.6-1.6,4.7-3.5
		c10-18.2,19.7-36.6,30.2-54.5c4.4-7.5,5.1-13.9,1.6-21.9C275.9,653.8,271.4,640.4,266.2,626.6z M385.3,580.5
		c10.4,0.1,23.2-0.6,35.9-2c28.3-3,55.7-9.4,82.3-19.3c8.8-3.3,9.9-6.6,8.2-15.8c-1-5.3-2.9-4.8-6.8-3
		c-35.5,16.9-73.1,25.5-112.3,26.8c-29.6,1-58.8-2.2-87.7-8.5c-9.7-2.1-19.4-4.6-29.1-7.1c-2.1-0.5-4-0.7-5.2,1.4
		c-0.6,1.1-2.3,2.1-1.1,3.4c4.3,4.5,7.7,10.2,14.4,11.8C316.5,575.9,349.4,580.7,385.3,580.5z M382.2,599.3
		c24.3-0.2,51-3.3,77.4-9.4c14.9-3.5,29.6-7.6,44-13.1c6.4-2.4,8-5.3,6.9-10.9c-0.5-2.6-1.2-3.7-4.2-2.6
		c-25.9,9.9-52.7,16.1-80.3,19.3c-31.8,3.7-63.5,2.9-95.2-0.9c-17-2-33.9-5-50.6-8.6c-3.9-0.9-4.1,0.5-4,3.6
		c0.3,8.8,4.7,13.6,13.8,14.6c4.6,0.6,9.3,1,13.9,1.6C329,595.8,354.1,599.3,382.2,599.3z M376.4,562.6c17.4,0.2,35.6-1.4,53.6-5
		c23.2-4.7,45.2-13.4,67.7-20.7c6.2-2,11.1-5.1,14.3-10.8c1-1.8,3.8-3.1,1.5-6c-2.5-3.2-4.6-0.5-6.5,0.3
		c-38.1,17.2-77.8,28.3-119.7,30.5c-33,1.8-65.4-2.3-97.1-11.9c-5.7-1.7-11.4-3.7-17-5.7c-2.5-0.9-3.6,0.5-4.7,2.3
		c-0.9,1.4-0.9,2.3,0.5,3.3c4.9,3.7,9.5,7.6,15.6,9.5C314.1,557.7,344.3,562.9,376.4,562.6z M289.2,599.1c3.9,2.8,4.5,3.1,8.7,4
		c23.5,5,47.3,7.8,71.3,8.2c43.6,0.8,86.2-5.8,128.6-15.3c5.8-1.3,8.6-5.1,11.7-9.3c1.4-1.9,1-3.2-0.2-4.9c-1.3-1.9-2.7-1.2-4.3-0.6
		c-31,11.3-62.8,18.4-95.7,21.5c-32.5,3-64.9,2.5-97.3-1C304.7,600.9,297.4,600,289.2,599.1z M374.4,54.4c8.8,0,16.1-7.2,16-15.7
		c-0.1-8.5-7.5-16.1-15.8-16.3c-8.2-0.2-16.1,7.5-16.2,15.8C358.3,47.3,365.4,54.4,374.4,54.4z"/>
	<path class="st1" d="M548.3,521.8c-1.8,19.5-3.4,39.1-6.2,58.5c-1.4,9.5,1.8,16.8,9.7,22.4c12.8,9.1,24.2,19.7,36.1,30
		c1.2,1,3.8,1.9,1.8,4.2c-2.1,2.5-3.2-0.2-4.4-1.1c-15-12.1-30-24.3-45-36.4c-3.8-3-4.9-6.6-4.2-11.4c3-22.7,5.7-45.5,8.5-68.3
		c0.1-0.8,0.2-1.7,0.3-2.5c0.2-1.4,0.7-2.6,2.5-2.2c1.6,0.4,1.6,1.4,1.4,2.7C548.6,519.1,548.5,520.4,548.3,521.8z"/>
	<path class="st1" d="M510.5,312.4c20.6,40.7,26.6,84.8,28.8,129.8C529.6,398.9,520,355.7,510.5,312.4z"/>
	<path class="st1" d="M252.2,358.7c-14.1,71-16,142.4-6.1,214.1C231.3,501,233.1,429.6,252.2,358.7z"/>
	<path class="st1" d="M271,281.8c4.7-37.3,47.9-95.8,81.6-101.6C310.6,202.2,289.6,240.9,271,281.8z"/>
	<path class="st1" d="M471.2,709.7c10.1-7.6,19.9-6.2,27.5,3.2c7.5,9.1,14.8,18.4,22.3,27.5c6,7.3,12.3,14.4,18.3,21.7
		c0.9,1.1,2.9,2.1,0.8,4c-2.1,1.9-3.2,0.4-4.4-1.1c-11.8-14.2-23.8-28.2-35.5-42.5C493,713.5,485.1,706.1,471.2,709.7z"/>
	<path class="st2" d="M374.4,54.4c-9.1,0-16.1-7.1-16-16.2c0.1-8.2,8-15.9,16.2-15.8c8.3,0.2,15.7,7.8,15.8,16.3
		C390.5,47.2,383.2,54.4,374.4,54.4z"/>
	<path class="st2" d="M463.6,427.5c-0.2,17.6-6.6,42.9-24.1,64.4c-29.7,36.5-76.1,35.6-104.8-1.9c-14.2-18.5-20.9-39.9-23.3-62.8
		c-2.6-24.6,1.5-48.2,12.9-70.1c9.2-17.8,22.4-31.8,41.6-39.2c23.6-9.1,51.3-1.3,69.1,19.2C454,358.7,463.6,385.9,463.6,427.5z
		 M397.2,411.7c-0.4-0.1-0.7-0.1-1.1-0.2c0.7-6.9,1.3-13.8,2-20.8c0.3-2.7,0-5.2-3.1-5.9c-3-0.7-4.3,1.5-5,3.8
		c-0.8,2.2-1.2,4.5-1.5,6.8c-0.9,5.9-1.7,11.8-2.8,19.2c-4-6.4-4.3-12.6-6.1-18.2c-1.1-3.3-0.8-8.6-5.8-7.6
		c-5.2,1.1-3.2,6.1-2.7,9.7c1,6.7,2.6,13.4,3.4,20.1c0.4,3.3-0.3,7-3.6,8.7c-3.4,1.7-5.4-1.4-7.6-3.3c-3.6-3.1-7.2-6-12.3-5.7
		c-1.5,0.1-3.2,0-3.8,1.7c-0.5,1.5,0.6,2.6,1.6,3.4c9.6,6.9,16,16.9,24.3,25c5.6,5.4,24,7.5,30.5,3.3c2.2-1.4,3.8-3.3,4.7-5.7
		c1-2.6,2.3-5.3,2.7-8c1.2-8.7,5.1-16.1,10-23.1c0.9-1.4,1.9-2.8,2.4-4.4c0.9-2.9,4.4-6.6,0.7-8.9c-4.3-2.7-5.6,2.5-7.5,5.1
		c-3,4-5.4,8.6-9.3,12.2c-1.5-2.1-0.8-3.7-0.3-5.2c1.8-5.8,2.2-11.8,2.7-17.7c0.3-2.9,0.5-6.3-3.2-6.9c-3.8-0.6-4.3,2.9-5,5.6
		C400,400.2,398.6,405.9,397.2,411.7z M357.3,490c0.3-7.6-0.2-9.4-3.9-15c-17.4-26.2-23.2-54.4-15.2-85.2c1.1-4.2,1.5-8.5,0.8-12.9
		c-0.4-2.9-3.6-4.3-5.3-2.2c-2.9,3.6-6.2,7-7.4,11.7c-8.5,33.6-3.8,65,16.2,93.8C346.2,485.6,350.8,488.8,357.3,490z M445.3,434.8
		c5.3-8.7,10.8-16.4,7.8-26.7c-0.4-1.3-0.4-2.6-0.6-3.9c-3-21.7-9.2-42.2-22.6-60.1c-3.3-4.5-7.6-6.1-12.5-7.4
		c-2.8-0.8-3.3,0.5-2.7,2.8c0.9,3.7,2,7.2,4.4,10.5c13.3,18.1,19.9,38.6,21.5,60.8C441.1,418.7,442.8,426.4,445.3,434.8z"/>
</g>
</svg>
