<?xml version="1.0" encoding="utf-8"?>
<!-- Generator: Adobe Illustrator 23.0.5, SVG Export Plug-In . SVG Version: 6.00 Build 0)  -->
<svg version="1.1" id="Illustration" xmlns="http://www.w3.org/2000/svg" xmlns:xlink="http://www.w3.org/1999/xlink" x="0px"
	 y="0px" viewBox="0 0 3710 3710" enable-background="new 0 0 3710 3710" xml:space="preserve">
<g>
	<linearGradient id="SVGID_1_" gradientUnits="userSpaceOnUse" x1="3498.0081" y1="3664.8562" x2="1539.6156" y2="1580.1165">
		<stop  offset="0" style="stop-color:#00DFFF"/>
		<stop  offset="1" style="stop-color:#40F8E7"/>
	</linearGradient>
	<path opacity="0.3" fill="url(#SVGID_1_)" d="M2910,2828.5c-72.3,74.5-137,118.3-186.5,151.4c-483,322.5-1035.2,229.6-1205.9,197.8
		c-275.4-51.3-507.9-87.4-707.7-267.9c-453.9-410.1-431.8-1265.6-85-1795.5c41.1-62.8,387.4-576.2,940.8-648.5
		c13.5-1.8,23.6-2.8,32.5-3.7c85.6-9.1,616.1-56.9,1048.6,305.5c61.9,51.9,161.6,145.4,254,288.1
		C3338.6,1577.5,3339.7,2385.6,2910,2828.5z"/>
	<g>
		<g>
			<g opacity="0.3">
				
					<linearGradient id="SVGID_2_" gradientUnits="userSpaceOnUse" x1="2800.4832" y1="2067.6531" x2="3373.2437" y2="2067.6531" gradientTransform="matrix(0.8482 -0.5297 -0.5297 -0.8482 1295.9104 4588.3052)">
					<stop  offset="0" style="stop-color:#00DFFF"/>
					<stop  offset="1" style="stop-color:#40F8E7"/>
				</linearGradient>
				<path fill="url(#SVGID_2_)" d="M2467.4,1152.4c5-2.4,11-0.4,13.4,4.6c4.7,9.7,9.9,19.3,15.5,28.6c2.8,4.7,1.3,10.8-3.3,13.7
					c-0.1,0-0.1,0.1-0.2,0.1c-4.8,2.8-10.9,1.3-13.8-3.5c-5.9-9.8-11.3-19.9-16.3-30.1c-2.3-4.7-0.6-10.2,3.7-12.9
					C2466.8,1152.7,2467.1,1152.5,2467.4,1152.4z M2526.5,1229c6.8,8.4,14,16.7,21.4,24.5c3.8,4,3.7,10.4-0.3,14.2
					c-4,3.8-10.4,3.7-14.2-0.4c-7.8-8.2-15.4-16.9-22.5-25.8c-3.5-4.3-2.8-10.6,1.6-14.1c0.3-0.3,0.6-0.5,1-0.7
					C2517.7,1224.1,2523.3,1225,2526.5,1229z M2586.9,1289.1c8.5,6.7,17.3,13.1,26.3,19.1c4.6,3.1,5.9,9.3,2.8,13.9
					c-3.1,4.6-9.3,5.9-13.9,2.8c-9.5-6.3-18.8-13-27.7-20.1c-4.3-3.4-5.1-9.8-1.6-14.1c0.7-0.9,1.6-1.7,2.5-2.3
					C2578.9,1286.3,2583.5,1286.4,2586.9,1289.1z M2659.3,1334.2c9.8,4.7,19.8,8.9,29.9,12.7c5.2,2,7.8,7.7,5.9,12.9
					c-2,5.2-7.7,7.8-12.9,5.9c-10.6-4-21.2-8.5-31.5-13.4c-5-2.4-7.1-8.4-4.7-13.4c0.9-1.8,2.2-3.2,3.7-4.2
					C2652.4,1333,2656,1332.7,2659.3,1334.2z M2739.8,1362.1c10.5,2.4,21.3,4.3,32,5.8c5.5,0.8,9.3,5.8,8.6,11.3
					c-0.8,5.5-5.8,9.3-11.3,8.6c-11.3-1.5-22.6-3.6-33.7-6.1c-5.4-1.2-8.8-6.6-7.6-12c0.6-2.7,2.3-4.9,4.5-6.3
					C2734.5,1362,2737.1,1361.5,2739.8,1362.1z M2824.6,1371.4c10.8,0,21.7-0.5,32.5-1.4c5.5-0.5,10.4,3.6,10.9,9.1
					c0.5,5.5-3.6,10.4-9.1,10.9c-11.3,1-22.8,1.5-34.2,1.5c-5.5,0-10-4.5-10.1-10c0-3.6,1.9-6.8,4.7-8.5
					C2820.8,1372,2822.6,1371.4,2824.6,1371.4z M3154.9,1198.4c4.6,3.1,5.9,9.3,2.8,13.9c-6.3,9.5-13.1,18.8-20.2,27.7
					c-3.5,4.3-9.8,5.1-14.1,1.6c-4.3-3.5-5.1-9.8-1.6-14.1c6.7-8.5,13.2-17.3,19.1-26.3c0.8-1.2,1.9-2.2,3-3
					C3147.3,1196.3,3151.5,1196.2,3154.9,1198.4z M2909.2,1361.7c10.5-2.4,21.1-5.3,31.3-8.6c5.3-1.7,10.9,1.2,12.6,6.5
					c1.7,5.3-1.2,10.9-6.5,12.6c-10.8,3.5-21.9,6.6-33,9.1c-5.4,1.2-10.8-2.1-12-7.5c-1-4.3,0.9-8.6,4.5-10.8
					C2907,1362.4,2908.1,1362,2909.2,1361.7z M3100.4,1266.9c3.8,4,3.6,10.4-0.4,14.2c-8.2,7.8-16.9,15.4-25.8,22.5
					c-4.3,3.5-10.7,2.8-14.1-1.6c-3.5-4.3-2.8-10.7,1.6-14.1c8.5-6.8,16.7-13.9,24.5-21.4c0.5-0.5,1-0.9,1.6-1.2
					C3091.7,1262.8,3097,1263.3,3100.4,1266.9z M2989.5,1333.4c9.7-4.7,19.3-9.9,28.6-15.4c4.8-2.8,10.9-1.3,13.8,3.5
					c2.8,4.7,1.3,10.8-3.3,13.7c-0.1,0-0.1,0.1-0.2,0.1c-9.8,5.8-19.9,11.3-30.1,16.3c-5,2.4-11,0.3-13.4-4.7
					c-2.3-4.7-0.6-10.2,3.7-12.9C2988.9,1333.7,2989.2,1333.6,2989.5,1333.4z"/>
				
					<linearGradient id="SVGID_3_" gradientUnits="userSpaceOnUse" x1="3401.0894" y1="1916.7642" x2="3434.5417" y2="1916.7642" gradientTransform="matrix(0.8482 -0.5297 -0.5297 -0.8482 1295.9104 4588.3052)">
					<stop  offset="0" style="stop-color:#00DFFF"/>
					<stop  offset="1" style="stop-color:#40F8E7"/>
				</linearGradient>
				<path fill="url(#SVGID_3_)" d="M3177.6,1136.3c-1.7,1-3.1,2.6-3.9,4.6c-2,4.8-4.2,9.6-6.5,14.3c-2.4,5-0.3,11,4.7,13.4
					c5,2.4,11,0.3,13.4-4.7c2.4-4.9,4.6-10,6.8-15c2.2-5.1-0.2-11-5.3-13.2C3183.7,1134.2,3180.3,1134.6,3177.6,1136.3z"/>
			</g>
			<g opacity="0.3">
				
					<linearGradient id="SVGID_4_" gradientUnits="userSpaceOnUse" x1="3574.7373" y1="2172.3723" x2="3597.6936" y2="2172.3723" gradientTransform="matrix(0.8482 -0.5297 -0.5297 -0.8482 1295.9104 4588.3052)">
					<stop  offset="0" style="stop-color:#00DFFF"/>
					<stop  offset="1" style="stop-color:#40F8E7"/>
				</linearGradient>
				<path fill="url(#SVGID_4_)" d="M3178.7,830.1c-4.1,2.6-5.9,7.8-3.9,12.4c2,4.8,4,9.7,5.8,14.5c1.9,5.2,7.7,7.8,12.9,5.9
					c5.2-2,7.8-7.7,5.9-12.9c-1.9-5.1-4-10.3-6.1-15.3c-2.2-5.1-8-7.5-13.2-5.3C3179.7,829.6,3179.2,829.8,3178.7,830.1z"/>
				
					<linearGradient id="SVGID_5_" gradientUnits="userSpaceOnUse" x1="3012.645" y1="2433.4922" x2="3602.6033" y2="2433.4922" gradientTransform="matrix(0.8482 -0.5297 -0.5297 -0.8482 1295.9104 4588.3052)">
					<stop  offset="0" style="stop-color:#00DFFF"/>
					<stop  offset="1" style="stop-color:#40F8E7"/>
				</linearGradient>
				<path fill="url(#SVGID_5_)" d="M2628.5,639.9c4.8-2.7,11-1,13.7,3.9c2.7,4.8,1,10.9-3.9,13.7c-9.2,5.1-18.4,10.8-27.3,16.8
					c-4.6,3.1-10.8,1.9-13.9-2.7c-3.1-4.6-1.9-10.8,2.7-13.9c3.9-2.6,7.8-5.1,11.7-7.6C2617.1,646.4,2622.8,643.1,2628.5,639.9z
					 M2570.7,691.9c3.7,4.1,3.3,10.5-0.8,14.2c-8,7.1-15.7,14.6-23,22.3c-3.8,4-10.2,4.2-14.2,0.4c-4-3.8-4.2-10.2-0.4-14.2
					c7.7-8.1,15.8-16,24.2-23.4c0.4-0.4,0.9-0.7,1.4-1C2562,687.5,2567.4,688.2,2570.7,691.9z M2678,616.5
					c10.4-4.1,21.1-7.7,31.9-10.9c5.3-1.6,10.9,1.5,12.5,6.8c1.6,5.3-1.5,10.9-6.8,12.5c-10.2,3-20.4,6.5-30.3,10.4
					c-5.2,2-11-0.5-13-5.7c-1.8-4.6,0-9.7,4-12.2C2676.8,617.1,2677.4,616.8,2678,616.5z M2511.5,754.4c4.5,3.2,5.5,9.5,2.3,14
					c-6.2,8.6-12.1,17.6-17.5,26.8c-2.8,4.8-9,6.3-13.8,3.5c-4.8-2.8-6.3-9-3.5-13.8c5.7-9.6,11.9-19.1,18.5-28.2
					c0.8-1.1,1.8-2,2.8-2.7C2503.6,751.9,2508.1,751.9,2511.5,754.4z M2763.2,593.8c11-1.7,22.3-2.9,33.5-3.6
					c5.5-0.4,10.3,3.8,10.7,9.4c0.4,5.5-3.8,10.3-9.4,10.7c-10.6,0.7-21.3,1.9-31.8,3.5c-5.5,0.8-10.6-2.9-11.4-8.4
					c-0.6-4.1,1.3-8,4.6-10C2760.6,594.5,2761.8,594,2763.2,593.8z M2851.4,590.2c11.2,0.8,22.4,2,33.5,3.8c5.5,0.9,9.2,6,8.4,11.5
					c-0.9,5.5-6,9.2-11.5,8.4c-10.5-1.6-21.2-2.8-31.8-3.6c-5.5-0.4-9.7-5.2-9.3-10.7c0.2-3.3,2.1-6.2,4.7-7.8
					C2847.1,590.6,2849.2,590.1,2851.4,590.2z M2938.3,606c10.7,3.2,21.5,6.9,31.9,11c5.2,2,7.7,7.8,5.7,13c-2,5.2-7.8,7.7-13,5.7
					c-9.9-3.9-20.1-7.4-30.3-10.4c-5.3-1.6-8.3-7.2-6.8-12.5c0.7-2.4,2.3-4.4,4.3-5.6C2932.5,605.6,2935.4,605.2,2938.3,606z
					 M3019.6,640.4c9.8,5.5,19.4,11.4,28.7,17.7c4.6,3.1,5.8,9.3,2.7,13.9c-3.1,4.6-9.3,5.8-13.9,2.7c-8.8-5.9-18-11.6-27.3-16.8
					c-4.8-2.7-6.6-8.8-3.9-13.7c0.9-1.5,2-2.7,3.4-3.6C3012.4,638.7,3016.3,638.5,3019.6,640.4z M3091.5,691.8
					c8.3,7.5,16.4,15.4,24.1,23.6c3.8,4,3.6,10.4-0.4,14.2c-4,3.8-10.4,3.6-14.2-0.4c-7.3-7.8-15-15.3-22.9-22.4
					c-4.1-3.7-4.5-10.1-0.8-14.2c0.6-0.7,1.4-1.3,2.2-1.8C3083.2,688.4,3088.1,688.7,3091.5,691.8z M3150.2,757.6
					c4.8,6.7,9.4,13.6,13.8,20.6c1.6,2.5,3.1,5.1,4.6,7.6c2.8,4.8,1.4,11-3.5,13.8c-4.8,2.8-10.9,1.3-13.8-3.5
					c-1.4-2.4-2.9-4.8-4.4-7.2c-4.1-6.6-8.5-13.2-13.1-19.6c-3.2-4.5-2.2-10.8,2.4-14c0.2-0.1,0.3-0.2,0.5-0.3
					C3141.2,752.2,3147.1,753.3,3150.2,757.6z"/>
				
					<linearGradient id="SVGID_6_" gradientUnits="userSpaceOnUse" x1="2953.8347" y1="2557.8721" x2="2986.8606" y2="2557.8721" gradientTransform="matrix(0.8482 -0.5297 -0.5297 -0.8482 1295.9104 4588.3052)">
					<stop  offset="0" style="stop-color:#00DFFF"/>
					<stop  offset="1" style="stop-color:#40F8E7"/>
				</linearGradient>
				<path fill="url(#SVGID_6_)" d="M2458.1,829.4c-1.7,1.1-3.1,2.6-3.9,4.6c-2.1,5-4.2,10.2-6.1,15.3c-1.9,5.2,0.7,11,5.9,12.9
					c5.2,1.9,11-0.7,12.9-5.9c1.8-4.9,3.8-9.8,5.8-14.5c2.2-5.1-0.2-11-5.3-13.2C2464.2,827.3,2460.8,827.7,2458.1,829.4z"/>
			</g>
			<g>
				
					<linearGradient id="SVGID_7_" gradientUnits="userSpaceOnUse" x1="4561.5752" y1="2836.4165" x2="2457.1497" y2="1912.5239" gradientTransform="matrix(0.8482 -0.5297 -0.5297 -0.8482 1295.9104 4588.3052)">
					<stop  offset="0" style="stop-color:#00DFFF"/>
					<stop  offset="1" style="stop-color:#40F8E7"/>
				</linearGradient>
				<path fill="url(#SVGID_7_)" d="M2522.7,988.9c-0.3,2,0.8,3.9,2.6,4.8l51.2,25.3c2.8,26.5,9.8,52.8,21.2,77.8l-31.3,47.8
					c-1.1,1.7-1,3.9,0.2,5.4l42,54.2c1.2,1.6,3.3,2.2,5.2,1.6l54.1-18.3c21.3,17.3,45,30.7,70,40l11.7,55.9c0.4,2,2,3.4,4,3.7
					l68,8.6c2,0.3,3.9-0.8,4.8-2.6l25.3-51.2c26.5-2.8,52.8-9.8,77.8-21.2l47.8,31.3c1.7,1.1,3.9,1,5.4-0.2l54.2-42
					c1.6-1.2,2.2-3.3,1.6-5.2l-18.3-54.1c17.3-21.3,30.7-45,40-70l55.9-11.7c2-0.4,3.4-2,3.7-4l8.6-68c0.3-2-0.8-3.9-2.6-4.8
					l-51.2-25.3c-2.8-26.5-9.8-52.8-21.2-77.8l31.3-47.8c1.1-1.7,1-3.9-0.2-5.4l-42-54.2c-1.2-1.6-3.3-2.2-5.2-1.6l-54.1,18.3
					c-21.3-17.3-45-30.7-70-40l-11.7-55.9c-0.4-2-2-3.4-4-3.7l-68-8.6c-2-0.3-3.9,0.8-4.8,2.6l-25.3,51.2
					c-26.5,2.8-52.8,9.8-77.8,21.2l-47.8-31.3c-1.7-1.1-3.9-1-5.4,0.2l-54.2,42c-1.6,1.2-2.2,3.3-1.6,5.2l18.3,54.1
					c-17.3,21.3-30.7,45-40,70L2535,917c-2,0.4-3.4,2-3.7,4L2522.7,988.9z"/>
				<path opacity="0.56" fill="#47FFFF" d="M2797.9,929.7c34.8-15.2,75.5,0.7,90.7,35.5c7.4,16.9,7.7,35.6,1,52.7
					c-6.7,17.1-19.7,30.6-36.6,38c-34.8,15.2-75.5-0.7-90.7-35.5c-13.8-31.7-1.9-68.2,26.6-86
					C2791.7,932.7,2794.7,931.1,2797.9,929.7z M2874.6,1012.1c5.1-13.1,4.9-27.5-0.8-40.4c-11.7-26.7-42.8-38.9-69.5-27.3
					c-26.7,11.7-38.9,42.8-27.3,69.5c11.7,26.7,42.8,38.9,69.5,27.3c2.4-1.1,4.7-2.3,6.9-3.7
					C2863,1031.6,2870.4,1022.8,2874.6,1012.1z"/>
				<path opacity="0.56" fill="#47FFFF" d="M2737.4,849.3c-4.9,3.1-9.7,6.4-14.3,10l0,0c-1.5,1.1-2.9,2.3-4.3,3.4
					c-7,5.8-13.5,12.1-19.5,18.9c-0.1,0.1-0.2,0.2-0.2,0.3c-0.2,0.3-0.5,0.5-0.7,0.8c-0.4,0.5-0.9,1-1.3,1.6
					c-1.1,1.4-1.2,3.3-0.3,4.7c0.2,0.3,0.5,0.7,0.8,0.9c1.7,1.4,4.2,1.2,5.7-0.5c7.3-8.7,15.7-16.7,24.8-23.8
					c45.2-35,103.3-42.2,153.5-24.2c27.9,10,53.4,27.8,72.9,52.9c3.4,4.4,6.6,9,9.5,13.6c19.6,31.4,27.7,68.3,23,105.5
					c-5.4,42.7-27.2,80.8-61.2,107.2c-70.4,54.5-171.8,41.6-226.3-28.7c-3.4-4.3-6.5-8.8-9.4-13.4c-12.5-20-20.5-42.6-23.3-66
					c-0.1-0.6-0.3-1.2-0.6-1.6c-0.8-1.3-2.3-2.1-3.9-1.9c-2.2,0.3-3.8,2.3-3.5,4.5c2.9,24.6,11.3,48.3,24.4,69.3
					c3,4.9,6.3,9.6,9.8,14.1c57.2,73.8,163.8,87.3,237.6,30.2c35.8-27.7,58.6-67.7,64.3-112.6c5-39.1-3.6-77.8-24.2-110.7
					c-3.1-4.9-6.4-9.7-10-14.3c-27.7-35.8-67.7-58.6-112.6-64.3C2809.1,820.2,2770.4,828.7,2737.4,849.3z"/>
			</g>
		</g>
		<g>
			<g opacity="0.3">
				
					<linearGradient id="SVGID_8_" gradientUnits="userSpaceOnUse" x1="2459.783" y1="2544.7402" x2="2476.1101" y2="2544.7402" gradientTransform="matrix(0.8482 -0.5297 -0.5297 -0.8482 1295.9104 4588.3052)">
					<stop  offset="0" style="stop-color:#00DFFF"/>
					<stop  offset="1" style="stop-color:#40F8E7"/>
				</linearGradient>
				<path fill="url(#SVGID_8_)" d="M2035.7,1109.9c-2.3,1.4-3.4,4.2-2.7,6.9c1.4,5.1,3,10.2,4.7,15.1c1.1,3.2,4.6,5,7.9,3.8
					c3.2-1.1,5-4.7,3.8-7.9c-1.6-4.7-3.2-9.6-4.5-14.4c-0.9-3.3-4.3-5.2-7.6-4.3C2036.7,1109.4,2036.2,1109.6,2035.7,1109.9z"/>
				
					<linearGradient id="SVGID_9_" gradientUnits="userSpaceOnUse" x1="2453.1699" y1="2361.3201" x2="2773.1365" y2="2361.3201" gradientTransform="matrix(0.8482 -0.5297 -0.5297 -0.8482 1295.9104 4588.3052)">
					<stop  offset="0" style="stop-color:#00DFFF"/>
					<stop  offset="1" style="stop-color:#40F8E7"/>
				</linearGradient>
				<path fill="url(#SVGID_9_)" d="M2053.2,1154.2c3.1-1.5,6.8-0.2,8.3,2.8c3.8,7.8,8.1,15.4,12.6,22.7c1,1.5,2,3.1,3,4.6
					c1.9,2.9,1.1,6.7-1.8,8.6c-2.8,1.7-6.7,1.1-8.6-1.8c-1.1-1.6-2.1-3.2-3.1-4.8c-4.8-7.7-9.3-15.7-13.3-23.8
					c-1.4-2.9-0.4-6.3,2.3-8C2052.9,1154.4,2053.1,1154.3,2053.2,1154.2z M2096,1209.7c6.8,8,14.1,15.7,21.8,22.8
					c2.5,2.3,2.7,6.2,0.3,8.8c-2.3,2.5-6.3,2.7-8.8,0.3c-8-7.4-15.7-15.5-22.8-23.9c-2.2-2.6-1.9-6.5,0.7-8.7
					c0.2-0.2,0.5-0.4,0.7-0.5C2090.5,1206.8,2093.9,1207.3,2096,1209.7z M2142.1,1252.3c8.5,6.1,17.5,11.7,26.7,16.7
					c3,1.6,4.1,5.4,2.5,8.4c-1.6,3-5.4,4.1-8.4,2.5c-9.7-5.2-19.1-11.2-28-17.5c-2.8-2-3.4-5.9-1.4-8.7c0.5-0.7,1.1-1.2,1.8-1.6
					C2137.3,1250.8,2140,1250.8,2142.1,1252.3z M2197.4,1282.4c9.8,3.8,19.8,7.1,30,9.7c3.3,0.9,5.3,4.2,4.5,7.5
					c-0.9,3.3-4.2,5.3-7.5,4.5c-10.6-2.7-21.2-6.1-31.4-10.2c-3.2-1.3-4.8-4.9-3.5-8c0.5-1.3,1.4-2.3,2.5-3
					C2193.4,1281.9,2195.5,1281.6,2197.4,1282.4z M2258.3,1298c10.4,1.3,21,2.1,31.4,2.1c3.4,0,6.2,2.8,6.2,6.2
					c0,3.4-2.8,6.2-6.2,6.2c-11-0.1-22-0.8-32.9-2.2c-3.4-0.4-5.8-3.6-5.4-6.9c0.2-1.9,1.3-3.5,2.9-4.5
					C2255.3,1298.2,2256.8,1297.8,2258.3,1298z M2321.1,1298.4c10.4-1.2,20.8-3.1,31-5.6c3.3-0.8,6.7,1.2,7.5,4.5
					c0.8,3.3-1.2,6.7-4.5,7.5c-10.6,2.6-21.6,4.6-32.5,5.9c-3.4,0.4-6.5-2-6.9-5.4c-0.3-2.5,0.9-4.8,2.9-6
					C2319.3,1298.8,2320.2,1298.5,2321.1,1298.4z M2382.1,1283.4c9.7-3.7,19.4-8.1,28.7-13c3-1.6,6.8-0.5,8.4,2.6
					c1.6,3,0.4,6.7-2.6,8.4c-9.7,5.2-19.8,9.8-30.1,13.7c-3.2,1.2-6.8-0.4-8-3.6c-1.1-2.8,0-5.9,2.5-7.5
					C2381.4,1283.8,2381.7,1283.6,2382.1,1283.4z M2471,1234.7c2.3,2.5,2.1,6.5-0.5,8.8c-7,6.4-14.6,12.4-22.3,18
					c-1.2,0.9-2.4,1.7-3.5,2.5c-2.7,2-6.7,1.3-8.6-1.5c-2-2.8-1.3-6.7,1.5-8.6c1.1-0.8,2.2-1.6,3.3-2.4c7.4-5.4,14.6-11.2,21.3-17.2
					c0.3-0.3,0.6-0.5,0.9-0.7C2465.6,1232.1,2469,1232.5,2471,1234.7z"/>
			</g>
			<g opacity="0.3">
				
					<linearGradient id="SVGID_10_" gradientUnits="userSpaceOnUse" x1="2595.9858" y1="2668.0535" x2="2961.188" y2="2668.0535" gradientTransform="matrix(0.8482 -0.5297 -0.5297 -0.8482 1295.9104 4588.3052)">
					<stop  offset="0" style="stop-color:#00DFFF"/>
					<stop  offset="1" style="stop-color:#40F8E7"/>
				</linearGradient>
				<path fill="url(#SVGID_10_)" d="M2152.3,815.5c9.2-5.6,18.9-10.7,28.7-15.1c3.1-1.4,6.8,0,8.2,3.1c1.4,3.1,0,6.8-3.1,8.2
					c-9.4,4.2-18.6,9.1-27.4,14.4c-2.9,1.8-6.7,0.8-8.5-2.1C2148.5,821.1,2149.4,817.3,2152.3,815.5
					C2152.3,815.5,2152.3,815.5,2152.3,815.5z M2134.3,835c2.1,2.7,1.6,6.6-1.1,8.7c-8.1,6.4-15.9,13.3-23.2,20.6
					c-2.4,2.4-6.3,2.4-8.8,0c-2.4-2.4-2.4-6.3,0-8.8c7.6-7.6,15.8-14.9,24.3-21.5c0.2-0.1,0.4-0.3,0.6-0.4
					C2128.8,831.9,2132.3,832.5,2134.3,835z M2211.4,788.8c10.3-3.2,20.9-5.8,31.5-7.7c3.4-0.6,6.6,1.6,7.2,5c0.6,3.4-1.6,6.6-5,7.2
					c-10.1,1.8-20.2,4.3-30.1,7.4c-3.3,1-6.7-0.8-7.8-4.1c-0.9-2.8,0.3-5.6,2.6-7.1C2210.4,789.2,2210.9,789,2211.4,788.8z
					 M2088.5,878.8c2.7,2.1,3.2,6,1.1,8.7c-6.3,8.1-12.2,16.7-17.5,25.5c-1.8,2.9-5.6,3.9-8.5,2.1c-2.9-1.8-3.9-5.6-2.1-8.5
					c5.6-9.3,11.7-18.3,18.4-26.8c0.5-0.6,1-1.1,1.6-1.4C2083.5,877.1,2086.4,877.1,2088.5,878.8z M2275.2,777.2
					c10.8-0.6,21.7-0.6,32.5,0.1c3.4,0.2,6,3.2,5.8,6.6c-0.2,3.4-3.2,6-6.6,5.8c-10.3-0.7-20.7-0.7-31-0.1c-3.4,0.2-6.4-2.4-6.6-5.8
					c-0.1-2.3,1-4.5,2.9-5.6C2273.1,777.6,2274.1,777.3,2275.2,777.2z M2339.9,781.3c10.6,2,21.2,4.6,31.5,7.8
					c3.3,1,5.1,4.5,4.1,7.8c-1,3.3-4.5,5.1-7.8,4.1c-9.8-3.1-19.9-5.6-30.1-7.5c-3.4-0.6-5.6-3.9-5-7.2c0.3-1.8,1.4-3.2,2.8-4.1
					C2336.7,781.3,2338.3,781,2339.9,781.3z M2401.8,800.7c9.9,4.5,19.5,9.6,28.7,15.2c2.9,1.8,3.9,5.6,2.1,8.5
					c-1.8,2.9-5.6,3.8-8.5,2.1c-8.8-5.4-18-10.2-27.4-14.5c-3.1-1.4-4.5-5.1-3.1-8.2c0.5-1.2,1.4-2.1,2.4-2.7
					C2397.6,800,2399.8,799.8,2401.8,800.7z"/>
				
					<linearGradient id="SVGID_11_" gradientUnits="userSpaceOnUse" x1="2555.8372" y1="2690.9128" x2="2580.8145" y2="2690.9128" gradientTransform="matrix(0.8482 -0.5297 -0.5297 -0.8482 1295.9104 4588.3052)">
					<stop  offset="0" style="stop-color:#00DFFF"/>
					<stop  offset="1" style="stop-color:#40F8E7"/>
				</linearGradient>
				<path fill="url(#SVGID_11_)" d="M2048.6,933c-1,0.6-1.9,1.6-2.4,2.7c-2.2,4.9-4.2,9.8-6,14.7c-1.2,3.2,0.4,6.8,3.6,8
					c3.2,1.2,6.8-0.4,8-3.6c1.7-4.7,3.7-9.4,5.7-14c1.4-3.1,0-6.8-3.2-8.2C2052.5,931.7,2050.3,932,2048.6,933z"/>
			</g>
			<g>
				
					<linearGradient id="SVGID_12_" gradientUnits="userSpaceOnUse" x1="4396.4805" y1="3211.947" x2="2292.0564" y2="2288.0552" gradientTransform="matrix(0.8482 -0.5297 -0.5297 -0.8482 1295.9104 4588.3052)">
					<stop  offset="0" style="stop-color:#00DFFF"/>
					<stop  offset="1" style="stop-color:#40F8E7"/>
				</linearGradient>
				<path fill="url(#SVGID_12_)" d="M2089.7,1043.7c-0.2,1.3,0.5,2.6,1.7,3.2l34.3,16.9c1.9,17.8,6.5,35.3,14.2,52l-20.9,32
					c-0.7,1.1-0.7,2.6,0.1,3.6l28.1,36.2c0.8,1.1,2.2,1.5,3.5,1.1l36.2-12.3c14.3,11.6,30.1,20.5,46.9,26.7l7.8,37.4
					c0.3,1.3,1.4,2.3,2.7,2.5l45.5,5.8c1.3,0.2,2.6-0.5,3.2-1.7l16.9-34.3c17.8-1.8,35.3-6.5,52-14.2l32,20.9
					c1.1,0.7,2.6,0.7,3.6-0.1l36.2-28.1c1.1-0.8,1.5-2.2,1.1-3.5l-12.3-36.2c11.6-14.3,20.5-30.1,26.7-46.9l37.4-7.8
					c1.3-0.3,2.3-1.3,2.5-2.7l5.8-45.5c0.2-1.3-0.5-2.6-1.7-3.2l-34.3-16.9c-1.8-17.8-6.5-35.3-14.2-52l20.9-32
					c0.7-1.1,0.7-2.6-0.1-3.6l-28.1-36.2c-0.8-1.1-2.2-1.5-3.5-1.1l-36.2,12.3c-14.3-11.6-30.1-20.5-46.9-26.7L2343,852
					c-0.3-1.3-1.3-2.3-2.7-2.5l-45.5-5.8c-1.3-0.2-2.6,0.5-3.2,1.7l-16.9,34.3c-17.8,1.8-35.3,6.5-52,14.2l-32-20.9
					c-1.1-0.7-2.6-0.7-3.6,0.1l-36.2,28.1c-1.1,0.8-1.5,2.2-1.1,3.5l12.3,36.2c-11.6,14.3-20.5,30.1-26.7,46.9l-37.4,7.8
					c-1.3,0.3-2.3,1.4-2.5,2.7L2089.7,1043.7z"/>
				<path opacity="0.56" fill="#47FFFF" d="M2273.5,1003.3c11.5-5,24.2-5.3,35.9-0.7c11.7,4.6,20.9,13.4,25.9,24.9
					c10.4,23.7-0.5,51.4-24.2,61.8c-23.7,10.3-51.4-0.5-61.8-24.2c-5-11.5-5.3-24.2-0.7-35.9c3.7-9.5,10.3-17.3,18.7-22.6
					C2269.3,1005.4,2271.3,1004.3,2273.5,1003.3z M2323.9,1032.5c-3.7-8.4-10.4-15-19-18.3c-8.6-3.4-18-3.2-26.4,0.5l0,0
					c-8.4,3.7-15,10.5-18.3,19c-3.4,8.6-3.2,18,0.5,26.4c7.6,17.4,28,25.4,45.4,17.8c1.6-0.7,3.1-1.5,4.5-2.4
					C2324.8,1066.7,2330.8,1048.4,2323.9,1032.5z"/>
				<path opacity="0.56" fill="#47FFFF" d="M2231.4,947.4c-3.3,2.1-6.6,4.3-9.7,6.8c-6.3,4.9-12.1,10.4-17.3,16.4
					c-0.2,0.3-0.5,0.5-0.7,0.8c-1.8,2.1-1.9,5.1-0.5,7.3c0.3,0.5,0.8,1,1.3,1.5c2.6,2.2,6.5,1.9,8.7-0.8c4.8-5.7,10.2-10.8,16-15.4
					l0,0c0.3-0.3,0.6-0.5,1-0.7c14-10.6,30.1-17.4,47.1-20c9.2-1.4,18.6-1.6,28.1-0.5c0.1,0,0.2,0,0.2,0c0.2,0,0.5,0.1,0.7,0.1
					c27.7,3.5,52.3,17.6,69.4,39.6c2.2,2.9,4.3,5.8,6.1,8.8c12.7,20.3,18,44.2,14.9,68.3c-3.5,27.7-17.6,52.3-39.6,69.4
					c-22,17.1-49.4,24.6-77.1,21c-27.7-3.5-52.3-17.6-69.4-39.6c-2.2-2.8-4.2-5.7-6.1-8.7c-8.1-13-13.3-27.6-15.1-42.7
					c-0.1-0.9-0.4-1.8-0.9-2.5c-1.2-2-3.5-3.2-6-2.9c-3.4,0.4-5.8,3.5-5.4,6.9c2,17,7.8,33.3,16.9,47.8c2.1,3.3,4.4,6.6,6.8,9.7
					c19.1,24.7,46.7,40.4,77.7,44.4c31,3.9,61.6-4.4,86.3-23.5c24.7-19.1,40.4-46.7,44.4-77.7c3.4-27-2.5-53.7-16.7-76.4
					c-2.1-3.4-4.4-6.7-6.9-9.9C2348.6,927.2,2281.6,916,2231.4,947.4z"/>
			</g>
		</g>
	</g>
	<g>
		<g>
			<linearGradient id="SVGID_13_" gradientUnits="userSpaceOnUse" x1="2178.3418" y1="114.5226" x2="1515.2766" y2="3552.2454">
				<stop  offset="0" style="stop-color:#13866D"/>
				<stop  offset="1" style="stop-color:#00876D"/>
			</linearGradient>
			<path fill="url(#SVGID_13_)" d="M458.7,1193.6L601.1,2738c5.3,57.2,66.7,101.5,140.3,101.1l2309.5-12.2
				c75-0.4,136.3-46.9,138.7-105.4l62.1-1509.2c2.5-61-59.7-111.7-138-112.4l-2514-23C517.9,1076.1,452.8,1130,458.7,1193.6z"/>
			<linearGradient id="SVGID_14_" gradientUnits="userSpaceOnUse" x1="1477.6194" y1="2358.0884" x2="3640.2261" y2="532.1156">
				<stop  offset="0" style="stop-color:#009AD5"/>
				<stop  offset="1" style="stop-color:#37AC7A"/>
			</linearGradient>
			<path fill="url(#SVGID_14_)" d="M572.8,1402.7L698.9,2695c3.1,31.7,39.6,56.2,83.5,56l2270-8.5c45.6-0.2,82.5-26.8,82.9-59.7
				l14.6-1247.5c0.4-33-36-60-81.6-60.7l-2410.7-36.2C608.6,1337.5,569.3,1367.4,572.8,1402.7z"/>
			<linearGradient id="SVGID_15_" gradientUnits="userSpaceOnUse" x1="2094.1785" y1="927.0054" x2="1053.7883" y2="2283.5935">
				<stop  offset="0" style="stop-color:#00DFFF"/>
				<stop  offset="1" style="stop-color:#40F8E7"/>
			</linearGradient>
			<path opacity="0.5" fill="url(#SVGID_15_)" d="M1201.2,1421.5h10.6c9.2,0,16.6,7.3,16.8,16.5l22,1263.7
				c0.2,9.4-7.4,17.1-16.8,17.1l0,0c-9.1,0-16.5-7.3-16.8-16.4l-32.6-1263.7C1184.2,1429.3,1191.8,1421.5,1201.2,1421.5z"/>
			<g>
				<linearGradient id="SVGID_16_" gradientUnits="userSpaceOnUse" x1="1629.7462" y1="905.6072" x2="589.3566" y2="2262.1948">
					<stop  offset="0" style="stop-color:#00DFFF"/>
					<stop  offset="1" style="stop-color:#40F8E7"/>
				</linearGradient>
				<path opacity="0.5" fill="url(#SVGID_16_)" d="M702.3,1842.2l372.7,3.1c15.7,0.1,28.3,12.9,28.3,28.6l0,0
					c0,15.9-12.9,28.7-28.8,28.6L702,1900c-13.2-0.1-24.6-9.2-27.6-22.1l-0.2-0.6C670,1859.2,683.8,1842,702.3,1842.2z"/>
				<linearGradient id="SVGID_17_" gradientUnits="userSpaceOnUse" x1="1711.7614" y1="968.5076" x2="671.3706" y2="2325.0967">
					<stop  offset="0" style="stop-color:#00DFFF"/>
					<stop  offset="1" style="stop-color:#40F8E7"/>
				</linearGradient>
				<path opacity="0.5" fill="url(#SVGID_17_)" d="M794.3,1949.3c71.7,1.8,219.1,4,280.8,4.9c15.6,0.2,28.1,13,28.1,28.6v4.2
					c0,15.8-12.8,28.6-28.6,28.6H796.6c-12.4,0-23.4-8-27.2-19.8l-2.9-9.1C760.4,1967.9,774.6,1948.8,794.3,1949.3z"/>
				<linearGradient id="SVGID_18_" gradientUnits="userSpaceOnUse" x1="1763.1791" y1="1007.941" x2="722.7895" y2="2364.5286">
					<stop  offset="0" style="stop-color:#00DFFF"/>
					<stop  offset="1" style="stop-color:#40F8E7"/>
				</linearGradient>
				<path opacity="0.5" fill="url(#SVGID_18_)" d="M788.3,2073.9v4.6c0,15,12.1,27.1,27.1,27.1h255.9c14.5,0,26.3-11.8,26.3-26.3v0
					c0-14.7-12-26.7-26.7-26.7H809.5C797.8,2052.6,788.3,2062.2,788.3,2073.9z"/>
			</g>
			<g opacity="0.9">
				<linearGradient id="SVGID_19_" gradientUnits="userSpaceOnUse" x1="2835.2668" y1="32.6818" x2="2590.4441" y2="1562.8198">
					<stop  offset="0" style="stop-color:#00DFFF"/>
					<stop  offset="1" style="stop-color:#40F8E7"/>
				</linearGradient>
				<circle opacity="0.5" fill="url(#SVGID_19_)" cx="2643.3" cy="1232.8" r="70.8"/>
				<linearGradient id="SVGID_20_" gradientUnits="userSpaceOnUse" x1="3046.2495" y1="66.4404" x2="2801.427" y2="1596.5784">
					<stop  offset="0" style="stop-color:#00DFFF"/>
					<stop  offset="1" style="stop-color:#40F8E7"/>
				</linearGradient>
				<circle opacity="0.5" fill="url(#SVGID_20_)" cx="2858.3" cy="1241.1" r="70.8"/>
				<linearGradient id="SVGID_21_" gradientUnits="userSpaceOnUse" x1="3257.2327" y1="100.1975" x2="3012.4099" y2="1630.3354">
					<stop  offset="0" style="stop-color:#00DFFF"/>
					<stop  offset="1" style="stop-color:#40F8E7"/>
				</linearGradient>
				<circle opacity="0.5" fill="url(#SVGID_21_)" cx="3073.3" cy="1249.5" r="70.8"/>
			</g>
		</g>
		<g>
			<linearGradient id="SVGID_22_" gradientUnits="userSpaceOnUse" x1="1609.0116" y1="1521.2693" x2="1557.9008" y2="1854.6685">
				<stop  offset="0" style="stop-color:#45FF3F"/>
				<stop  offset="1" style="stop-color:#219F65"/>
			</linearGradient>
			<path fill="url(#SVGID_22_)" d="M1758.3,1507.9l-373.7-2.3c-12.3-0.1-22.1,10.2-21.5,22.4l10.5,217.2c0.6,12.3,10.7,21.2,23,21.2
				h400.2c12.3,0,22.4-9,23-21.2l7.9-160.9L1758.3,1507.9z"/>
			
				<linearGradient id="SVGID_23_" gradientUnits="userSpaceOnUse" x1="1659.8918" y1="1652.8392" x2="1862.3844" y2="1456.2159" gradientTransform="matrix(0.9994 3.430000e-02 -3.430000e-02 0.9994 56.5304 -41.0612)">
				<stop  offset="0" style="stop-color:#45FF3F"/>
				<stop  offset="1" style="stop-color:#219F65"/>
			</linearGradient>
			<path fill="url(#SVGID_23_)" d="M1773.8,1582.3c-12.2-0.4-21.5-10.9-20.6-23.1l4-50.7l70.6,75.7L1773.8,1582.3z"/>
			<g>
				<path opacity="0.58" fill="#47FFFF" d="M1738.1,1585.6h-301.8c-8.7,0-15.8,4.7-15.8,10.5c0,5.8,7.1,10.5,15.8,10.5h301.8
					c8.7,0,15.8-4.7,15.8-10.5C1753.9,1590.3,1746.8,1585.6,1738.1,1585.6z"/>
				<path opacity="0.58" fill="#47FFFF" d="M1738.1,1647.9h-301.8c-8.7,0-15.8,4.7-15.8,10.5s7.1,10.5,15.8,10.5h301.8
					c8.7,0,15.8-4.7,15.8-10.5S1746.8,1647.9,1738.1,1647.9z"/>
			</g>
		</g>
		<g>
			<linearGradient id="SVGID_24_" gradientUnits="userSpaceOnUse" x1="2163.3064" y1="1521.2693" x2="2112.1956" y2="1854.6685">
				<stop  offset="0" style="stop-color:#45FF3F"/>
				<stop  offset="1" style="stop-color:#219F65"/>
			</linearGradient>
			<path fill="url(#SVGID_24_)" d="M2312.6,1507.9l-373.7-2.3c-12.3-0.1-22.1,10.2-21.5,22.4l10.5,217.2c0.6,12.3,10.7,21.2,23,21.2
				h400.2c12.3,0,22.4-9,23-21.2l7.9-160.9L2312.6,1507.9z"/>
			
				<linearGradient id="SVGID_25_" gradientUnits="userSpaceOnUse" x1="2213.8672" y1="1633.8263" x2="2416.3594" y2="1437.2032" gradientTransform="matrix(0.9994 3.430000e-02 -3.430000e-02 0.9994 56.5304 -41.0612)">
				<stop  offset="0" style="stop-color:#45FF3F"/>
				<stop  offset="1" style="stop-color:#219F65"/>
			</linearGradient>
			<path fill="url(#SVGID_25_)" d="M2328.1,1582.3c-12.2-0.4-21.5-10.9-20.6-23.1l4-50.7l70.6,75.7L2328.1,1582.3z"/>
			<g>
				<path opacity="0.58" fill="#47FFFF" d="M2292.4,1585.6h-301.8c-8.7,0-15.8,4.7-15.8,10.5c0,5.8,7.1,10.5,15.8,10.5h301.8
					c8.7,0,15.8-4.7,15.8-10.5C2308.2,1590.3,2301.1,1585.6,2292.4,1585.6z"/>
				<path opacity="0.58" fill="#47FFFF" d="M2292.4,1647.9h-301.8c-8.7,0-15.8,4.7-15.8,10.5s7.1,10.5,15.8,10.5h301.8
					c8.7,0,15.8-4.7,15.8-10.5S2301.1,1647.9,2292.4,1647.9z"/>
			</g>
		</g>
		<g>
			<linearGradient id="SVGID_26_" gradientUnits="userSpaceOnUse" x1="2717.6011" y1="1521.2693" x2="2666.4905" y2="1854.6685">
				<stop  offset="0" style="stop-color:#45FF3F"/>
				<stop  offset="1" style="stop-color:#219F65"/>
			</linearGradient>
			<path fill="url(#SVGID_26_)" d="M2866.9,1507.9l-373.7-2.3c-12.3-0.1-22.1,10.2-21.5,22.4l10.5,217.2c0.6,12.3,10.7,21.2,23,21.2
				h400.2c12.3,0,22.4-9,23-21.2l7.9-160.9L2866.9,1507.9z"/>
			
				<linearGradient id="SVGID_27_" gradientUnits="userSpaceOnUse" x1="2767.842" y1="1614.8137" x2="2970.3345" y2="1418.1904" gradientTransform="matrix(0.9994 3.430000e-02 -3.430000e-02 0.9994 56.5304 -41.0612)">
				<stop  offset="0" style="stop-color:#45FF3F"/>
				<stop  offset="1" style="stop-color:#219F65"/>
			</linearGradient>
			<path fill="url(#SVGID_27_)" d="M2882.4,1582.3c-12.2-0.4-21.5-10.9-20.6-23.1l4-50.7l70.6,75.7L2882.4,1582.3z"/>
			<g>
				<path opacity="0.58" fill="#47FFFF" d="M2846.7,1585.6h-301.8c-8.7,0-15.8,4.7-15.8,10.5c0,5.8,7.1,10.5,15.8,10.5h301.8
					c8.7,0,15.8-4.7,15.8-10.5C2862.5,1590.3,2855.4,1585.6,2846.7,1585.6z"/>
				<path opacity="0.58" fill="#47FFFF" d="M2846.7,1647.9h-301.8c-8.7,0-15.8,4.7-15.8,10.5s7.1,10.5,15.8,10.5h301.8
					c8.7,0,15.8-4.7,15.8-10.5S2855.4,1647.9,2846.7,1647.9z"/>
			</g>
		</g>
		<g>
			<linearGradient id="SVGID_28_" gradientUnits="userSpaceOnUse" x1="901.9044" y1="1470.2314" x2="851.078" y2="1801.7761">
				<stop  offset="0" style="stop-color:#45FF3F"/>
				<stop  offset="1" style="stop-color:#219F65"/>
			</linearGradient>
			<path fill="url(#SVGID_28_)" d="M1051.2,1457l-373.7-2.3c-12.3-0.1-22.1,10.2-21.5,22.4l10.5,216.3c0.6,12.3,10.7,20.4,23,20.4
				h400.2c12.3,0,22.4-8.1,23-20.4l7.9-160.5L1051.2,1457z"/>
			
				<linearGradient id="SVGID_29_" gradientUnits="userSpaceOnUse" x1="951.4862" y1="1626.2914" x2="1153.9788" y2="1429.668" gradientTransform="matrix(0.9994 3.430000e-02 -3.430000e-02 0.9994 56.5304 -41.0612)">
				<stop  offset="0" style="stop-color:#45FF3F"/>
				<stop  offset="1" style="stop-color:#219F65"/>
			</linearGradient>
			<path fill="url(#SVGID_29_)" d="M1066.8,1531.5c-12.2-0.4-21.5-10.9-20.6-23.1l4-50.7l70.6,75.7L1066.8,1531.5z"/>
			<g>
				<path opacity="0.58" fill="#47FFFF" d="M1031,1534.8H729.2c-8.7,0-15.8,4.7-15.8,10.5c0,5.8,7.1,10.5,15.8,10.5H1031
					c8.7,0,15.8-4.7,15.8-10.5C1046.8,1539.5,1039.7,1534.8,1031,1534.8z"/>
				<path opacity="0.58" fill="#47FFFF" d="M1031,1597H729.2c-8.7,0-15.8,4.7-15.8,10.5s7.1,10.5,15.8,10.5H1031
					c8.7,0,15.8-4.7,15.8-10.5S1039.7,1597,1031,1597z"/>
			</g>
		</g>
		<g>
			<linearGradient id="SVGID_30_" gradientUnits="userSpaceOnUse" x1="2717.564" y1="1863.0757" x2="2666.7375" y2="2194.6201">
				<stop  offset="0" style="stop-color:#45FF3F"/>
				<stop  offset="1" style="stop-color:#219F65"/>
			</linearGradient>
			<path fill="url(#SVGID_30_)" d="M2866.9,1849.9l-373.7-2.3c-12.3-0.1-22.1,10.2-21.5,22.4l10.5,216.3c0.6,12.3,10.7,20.4,23,20.4
				h400.2c12.3,0,22.4-8.1,23-20.4l7.9-160.5L2866.9,1849.9z"/>
			
				<linearGradient id="SVGID_31_" gradientUnits="userSpaceOnUse" x1="2779.5732" y1="1956.6304" x2="2982.0659" y2="1760.007" gradientTransform="matrix(0.9994 3.430000e-02 -3.430000e-02 0.9994 56.5304 -41.0612)">
				<stop  offset="0" style="stop-color:#45FF3F"/>
				<stop  offset="1" style="stop-color:#219F65"/>
			</linearGradient>
			<path fill="url(#SVGID_31_)" d="M2882.4,1924.3c-12.2-0.4-21.5-10.9-20.6-23.1l4-50.7l70.6,75.7L2882.4,1924.3z"/>
			<g>
				<path opacity="0.58" fill="#47FFFF" d="M2846.7,1927.6h-301.8c-8.7,0-15.8,4.7-15.8,10.5c0,5.8,7.1,10.5,15.8,10.5h301.8
					c8.7,0,15.8-4.7,15.8-10.5C2862.5,1932.3,2855.4,1927.6,2846.7,1927.6z"/>
				<path opacity="0.58" fill="#47FFFF" d="M2846.7,1989.9h-301.8c-8.7,0-15.8,4.7-15.8,10.5s7.1,10.5,15.8,10.5h301.8
					c8.7,0,15.8-4.7,15.8-10.5S2855.4,1989.9,2846.7,1989.9z"/>
			</g>
		</g>
		<g>
			<linearGradient id="SVGID_32_" gradientUnits="userSpaceOnUse" x1="2717.5815" y1="2205.1875" x2="2666.6211" y2="2537.6072">
				<stop  offset="0" style="stop-color:#45FF3F"/>
				<stop  offset="1" style="stop-color:#219F65"/>
			</linearGradient>
			<path fill="url(#SVGID_32_)" d="M2866.9,2191.9l-373.7-2.3c-12.3-0.1-22.1,10.2-21.5,22.4l10.5,216.7c0.6,12.3,10.7,20.8,23,20.8
				h400.2c12.3,0,22.4-8.5,23-20.8l7.9-160.7L2866.9,2191.9z"/>
			
				<linearGradient id="SVGID_33_" gradientUnits="userSpaceOnUse" x1="2791.3047" y1="2298.447" x2="2993.7974" y2="2101.8235" gradientTransform="matrix(0.9994 3.430000e-02 -3.430000e-02 0.9994 56.5304 -41.0612)">
				<stop  offset="0" style="stop-color:#45FF3F"/>
				<stop  offset="1" style="stop-color:#219F65"/>
			</linearGradient>
			<path fill="url(#SVGID_33_)" d="M2882.4,2266.4c-12.2-0.4-21.5-10.9-20.6-23.1l4-50.7l70.6,75.7L2882.4,2266.4z"/>
			<g>
				<path opacity="0.58" fill="#47FFFF" d="M2846.7,2269.6h-301.8c-8.7,0-15.8,4.7-15.8,10.5c0,5.8,7.1,10.5,15.8,10.5h301.8
					c8.7,0,15.8-4.7,15.8-10.5C2862.5,2274.3,2855.4,2269.6,2846.7,2269.6z"/>
				<path opacity="0.58" fill="#47FFFF" d="M2846.7,2331.9h-301.8c-8.7,0-15.8,4.7-15.8,10.5s7.1,10.5,15.8,10.5h301.8
					c8.7,0,15.8-4.7,15.8-10.5S2855.4,2331.9,2846.7,2331.9z"/>
			</g>
		</g>
	</g>
	<g>
		<g>
			<g>
				
					<linearGradient id="SVGID_34_" gradientUnits="userSpaceOnUse" x1="-4144.043" y1="4706.2705" x2="-5211.9033" y2="6108.8755" gradientTransform="matrix(-9.000000e-04 -1 -1 9.000000e-04 6542.2949 -1915.6283)">
					<stop  offset="0" style="stop-color:#00FFFF"/>
					<stop  offset="1" style="stop-color:#00A3F7"/>
				</linearGradient>
				<path fill="url(#SVGID_34_)" d="M1781.9,3077.8c43.7,0,79.2-35.5,79.1-79.3l-0.6-673.7c0-37.2-29.2-67.8-66.3-69.6l-976.7-48.9
					c-29-1.5-53.5,21.4-54,50.5L750.1,3029c-0.5,27.3,21.6,49.7,48.9,49.7L1781.9,3077.8z"/>
				<g>
					
						<linearGradient id="SVGID_35_" gradientUnits="userSpaceOnUse" x1="-580.7598" y1="1873.2755" x2="659.7317" y2="3349.7297" gradientTransform="matrix(-0.9698 -0.2439 -0.2439 0.9698 1831.1873 247.654)">
						<stop  offset="0" style="stop-color:#00FFFF"/>
						<stop  offset="1" style="stop-color:#00A3F7"/>
					</linearGradient>
					<path fill="url(#SVGID_35_)" d="M1846.1,3022.5c14,0.1,24.8-12.2,22.9-26.1c-12.6-92-51.4-408.3-31.6-669.9
						c0.9-11.9-8.1-22.3-20.1-22.9l-981.1-51.3c-13.5-0.7-24.9,9.6-25.7,23c-6.4,110-31.2,563.1-14.1,724.6
						c1,9.8,9.3,17.3,19.2,17.3L1846.1,3022.5z"/>
					<path opacity="0.6" fill="#47FFFF" d="M1821.5,3011.7c13.5,0.1,23.9-11.8,22.1-25.1c-12.1-88.5-49.5-392.9-30.4-644.6
						c0.9-11.5-7.8-21.4-19.3-22l-944.1-49.3c-12.9-0.7-24,9.2-24.8,22.2c-6.2,105.9-30,541.9-13.6,697.3c1,9.5,9,16.6,18.5,16.7
						L1821.5,3011.7z"/>
				</g>
				<path opacity="0.6" fill="#47FFFF" d="M1251.6,2469.1l0.1,68.1c0,10.4-8.5,18.8-18.9,18.6l-69.8-1c-10.2-0.1-18.3-8.4-18.3-18.6
					l-0.1-71.6c0-10.8,9.1-19.3,19.8-18.6l69.8,4.5C1244,2451.1,1251.6,2459.3,1251.6,2469.1z"/>
				<path opacity="0.6" fill="#47FFFF" d="M1493.8,2560.5l-69.8-1c-10.2-0.1-18.3-8.4-18.3-18.6l-0.1-60.9c0-10.7,9-19.2,19.7-18.6
					l69.8,3.9c9.8,0.6,17.6,8.7,17.6,18.6l0.1,58C1512.7,2552.3,1504.2,2560.6,1493.8,2560.5z"/>
				<path opacity="0.6" fill="#47FFFF" d="M1426.5,2862.3l66.4,0.7c11.1,0.1,20.1,9.2,20.1,20.3l0.1,62.2c0,11-8.8,20.1-19.9,20.3
					l-66.4,1.5c-11.4,0.3-20.7-8.9-20.8-20.3l-0.1-64.4C1406,2871.3,1415.2,2862.2,1426.5,2862.3z"/>
				<path opacity="0.6" fill="#47FFFF" d="M1536.6,2944.5l-0.1-60.8c0-11.1,9.1-20.1,20.2-20l67.1,0.7c10.9,0.1,19.7,9,19.7,19.9
					l0.1,58.6c0,10.9-8.7,19.7-19.5,20l-67.1,1.5C1545.8,2964.7,1536.6,2955.7,1536.6,2944.5z"/>
				<path opacity="0.6" fill="#47FFFF" d="M1536.3,2669.9l0-49.9c0-12.1,9.9-21.8,22-21.5l64.1,1.4c11.7,0.3,21,9.8,21,21.5l0,47.7
					c0,11.8-9.4,21.3-21.2,21.5l-64.1,0.8C1546.1,2691.6,1536.4,2681.9,1536.3,2669.9z"/>
				<path opacity="0.6" fill="#47FFFF" d="M1536.5,2815l-0.1-76.4c0-10.9,8.8-19.8,19.7-20l65.6-0.8c12-0.1,21.7,9.5,21.7,21.5
					l0.1,77c0,11.2-9.2,20.2-20.4,20l-67.1-1.4C1545.2,2834.7,1536.5,2825.9,1536.5,2815z"/>
				
					<linearGradient id="SVGID_36_" gradientUnits="userSpaceOnUse" x1="895.386" y1="589.9783" x2="-112.848" y2="2402.4666" gradientTransform="matrix(-0.9698 -0.2439 -0.2439 0.9698 1831.1873 247.654)">
					<stop  offset="0" style="stop-color:#00DFFF"/>
					<stop  offset="1" style="stop-color:#40F8E7"/>
				</linearGradient>
				<path fill="url(#SVGID_36_)" d="M1363.3,2558.6l-69.8-1c-10.2-0.1-18.3-8.4-18.3-18.6l-0.1-66.3c0-10.7,9-19.2,19.7-18.6
					l69.8,3.9c9.8,0.6,17.6,8.7,17.6,18.6l0.1,63.4C1382.2,2550.3,1373.7,2558.7,1363.3,2558.6z"/>
				
					<linearGradient id="SVGID_37_" gradientUnits="userSpaceOnUse" x1="845.5085" y1="562.2381" x2="-162.7271" y2="2374.7295" gradientTransform="matrix(-0.9698 -0.2439 -0.2439 0.9698 1831.1873 247.654)">
					<stop  offset="0" style="stop-color:#00DFFF"/>
					<stop  offset="1" style="stop-color:#40F8E7"/>
				</linearGradient>
				<path fill="url(#SVGID_37_)" d="M1405.9,2812l-0.1-71.4c0-11.1,8.9-20.2,20.1-20.3l66.4-0.8c11.3-0.1,20.5,9,20.6,20.3l0.1,73.6
					c0,11.4-9.3,20.5-20.7,20.3l-66.4-1.3C1414.8,2832.1,1405.9,2823.1,1405.9,2812z"/>
				<path opacity="0.6" fill="#47FFFF" d="M1291,2592.6l76.2,1.7c8.4,0.2,15.1,7,15.1,15.4l0.1,68.7c0,8.4-6.8,15.3-15.2,15.4
					l-76.2,0.9c-8.6,0.1-15.6-6.8-15.6-15.4l-0.1-71.3C1275.2,2599.4,1282.3,2592.4,1291,2592.6z"/>
				<path opacity="0.6" fill="#47FFFF" d="M1251.7,2610.7l0.1,65.4c0,10.6-8.5,19.2-19.1,19.4l-68.3,0.8
					c-10.8,0.1-19.6-8.6-19.6-19.3l-0.1-67.8c0-10.9,8.9-19.6,19.8-19.4l68.3,1.5C1243.3,2591.6,1251.7,2600.2,1251.7,2610.7z"/>
				<path opacity="0.6" fill="#47FFFF" d="M1497.6,2692.2l-76.2,0.9c-8.6,0.1-15.6-6.8-15.6-15.4l-0.1-66.8
					c0-8.6,7.1-15.6,15.7-15.4l76.2,1.7c8.4,0.2,15.1,7,15.1,15.4l0.1,64.2C1512.8,2685.2,1506.1,2692.1,1497.6,2692.2z"/>
				<path opacity="0.6" fill="#47FFFF" d="M1295.4,2721.9l66.4-0.8c11.3-0.1,20.5,9,20.6,20.3l0.1,69.3c0,11.4-9.3,20.6-20.7,20.3
					l-66.4-1.3c-11-0.2-19.9-9.2-19.9-20.3l-0.1-67.2C1275.3,2731.1,1284.3,2722.1,1295.4,2721.9z"/>
				<path opacity="0.6" fill="#47FFFF" d="M1162.6,2723.6l71-0.9c10-0.1,18.2,8,18.2,18l0.1,69.8c0,10.1-8.3,18.2-18.3,18l-71-1.4
					c-9.8-0.2-17.6-8.2-17.6-18l-0.1-67.5C1144.8,2731.7,1152.7,2723.7,1162.6,2723.6z"/>
				<path opacity="0.6" fill="#47FFFF" d="M1614.6,2561.4l-53-0.8c-14.1-0.2-25.4-11.7-25.4-25.8l0-43.7c0-13.2,11.1-23.7,24.3-23
					l58.9,3.3c13.4,0.8,23.8,11.8,23.8,25.2l0,36.5C1643.2,2548.9,1630.4,2561.6,1614.6,2561.4z"/>
				<path opacity="0.6" fill="#47FFFF" d="M1667.1,2886.6c0-12,9.7-21.6,21.7-21.5l23.1,0.2c17.5,0.2,31.6,12.1,31.7,26.7l0,42.3
					c0,14.5-13.8,26.3-31.2,26.7l-24.8,0.5c-11.2,0.2-20.4-8.7-20.4-19.9L1667.1,2886.6z"/>
				
					<linearGradient id="SVGID_38_" gradientUnits="userSpaceOnUse" x1="1313.7542" y1="822.7172" x2="305.5121" y2="2635.2202" gradientTransform="matrix(-0.9698 -0.2439 -0.2439 0.9698 1831.1873 247.654)">
					<stop  offset="0" style="stop-color:#00DFFF"/>
					<stop  offset="1" style="stop-color:#40F8E7"/>
				</linearGradient>
				<path fill="url(#SVGID_38_)" d="M925.4,2857l45.4,0.5c11.1,0.1,20.1,9.2,20.1,20.3l0.1,79.2c0,11.1-8.8,20.1-19.9,20.3l-45.2,1
					c-18,0.4-32.9-11.7-32.9-26.7l-0.1-67.9C892.9,2868.8,907.5,2856.8,925.4,2857z"/>
				<path opacity="0.6" fill="#47FFFF" d="M1710.6,2838.1l-22.5-0.5c-11.7-0.2-21-9.8-21-21.5l-0.1-77.6c0-11.8,9.4-21.3,21.2-21.5
					l22.7-0.3c17.9-0.2,32.5,11.8,32.5,26.7l0.1,67.9C1743.5,2826.4,1728.6,2838.4,1710.6,2838.1z"/>
				
					<linearGradient id="SVGID_39_" gradientUnits="userSpaceOnUse" x1="609.8718" y1="431.1167" x2="-398.3699" y2="2243.6189" gradientTransform="matrix(-0.9698 -0.2439 -0.2439 0.9698 1831.1873 247.654)">
					<stop  offset="0" style="stop-color:#00DFFF"/>
					<stop  offset="1" style="stop-color:#40F8E7"/>
				</linearGradient>
				<path fill="url(#SVGID_39_)" d="M1711.7,2689.5l-28.4,0.4c-9,0.1-16.4-7.2-16.4-16.2l-0.1-56.1c0-9.1,7.5-16.5,16.6-16.3
					l28.6,0.6c17.4,0.4,31.2,12.2,31.2,26.7l0,34.2C1743.3,2677.4,1729.2,2689.3,1711.7,2689.5z"/>
				<path opacity="0.6" fill="#47FFFF" d="M926.8,2432.5l45.5,2.6c10.2,0.6,18.3,9,18.3,19.3l0.1,78.2c0,10.8-8.8,19.5-19.6,19.4
					l-46.9-0.7c-17.5-0.3-31.5-12.1-31.5-26.7l-0.1-65.4C892.5,2443.7,908.2,2431.4,926.8,2432.5z"/>
				<path opacity="0.6" fill="#47FFFF" d="M1296,2860.9l66.4,0.7c11.1,0.1,20.1,9.2,20.1,20.3l0.1,66.5c0,11-8.8,20.1-19.9,20.3
					l-66.4,1.5c-11.4,0.3-20.7-8.9-20.8-20.3l-0.1-68.6C1275.5,2870,1284.7,2860.8,1296,2860.9z"/>
				
					<linearGradient id="SVGID_40_" gradientUnits="userSpaceOnUse" x1="1251.6871" y1="788.181" x2="243.4491" y2="2600.6768" gradientTransform="matrix(-0.9698 -0.2439 -0.2439 0.9698 1831.1873 247.654)">
					<stop  offset="0" style="stop-color:#00DFFF"/>
					<stop  offset="1" style="stop-color:#40F8E7"/>
				</linearGradient>
				<path fill="url(#SVGID_40_)" d="M925.6,2584.5l46.1,1c10.5,0.2,18.9,8.8,18.9,19.3l0.1,74.4c0,10.6-8.5,19.2-19.1,19.4
					l-46.3,0.6c-17.9,0.2-32.5-11.8-32.5-26.7l-0.1-61.3C892.6,2596.2,907.5,2584.1,925.6,2584.5z"/>
				<path opacity="0.6" fill="#47FFFF" d="M924.4,2726.5l48.2-0.6c10-0.1,18.2,8,18.2,18l0.1,61.3c0,10.1-8.3,18.2-18.3,18l-48.4-1
					c-17.4-0.4-31.3-12.2-31.3-26.7l0-42.3C892.8,2738.6,906.8,2726.7,924.4,2726.5z"/>
				<path opacity="0.6" fill="#47FFFF" d="M1121.3,2742.3l0.1,65.5c0,10.1-8.3,18.2-18.3,18l-71-1.4c-9.8-0.2-17.6-8.2-17.6-18
					l-0.1-63.2c0-9.9,7.9-17.9,17.8-18l71-0.9C1113.1,2724.2,1121.3,2732.3,1121.3,2742.3z"/>
				<path opacity="0.6" fill="#47FFFF" d="M1034.9,2858.2l66.4,0.7c11.1,0.1,20.1,9.2,20.1,20.3l0.1,74.9c0,11.1-8.8,20.1-19.9,20.3
					l-66.4,1.5c-11.4,0.3-20.8-8.9-20.8-20.3l-0.1-77.1C1014.4,2867.2,1023.6,2858,1034.9,2858.2z"/>
				<path opacity="0.6" fill="#47FFFF" d="M1710.5,2562.8l-27.8-0.4c-8.9-0.1-16-7.4-16-16.2l0-54.8c0-9.3,7.8-16.8,17.2-16.2
					l29.4,1.7c16.8,0.9,29.9,12.6,29.9,26.6l0,32.7C1743.2,2551,1728.5,2563,1710.5,2562.8z"/>
				<path opacity="0.6" fill="#47FFFF" d="M1165.5,2859.5l65.2,0.7c11.8,0.1,21.2,9.7,21.2,21.4l0.1,69.6c0,11.1-8.8,20.1-19.9,20.3
					l-66.4,1.5c-11.4,0.3-20.8-8.9-20.8-20.3l-0.1-72.8C1144.9,2868.6,1154.2,2859.4,1165.5,2859.5z"/>
				<path opacity="0.6" fill="#47FFFF" d="M1121,2461.7l0.1,72.8c0,10.8-8.8,19.5-19.6,19.4l-68.3-1c-10.6-0.2-19.1-8.8-19.1-19.3
					l-0.1-75.6c0-11.1,9.3-20,20.4-19.3l68.3,3.8C1113,2442.9,1121,2451.4,1121,2461.7z"/>
				<path opacity="0.6" fill="#47FFFF" d="M1121.2,2607.8l0.1,69.9c0,10.6-8.5,19.2-19.1,19.4l-68.3,0.8
					c-10.8,0.1-19.6-8.6-19.6-19.3l-0.1-72.3c0-10.9,8.9-19.6,19.8-19.4l68.3,1.5C1112.8,2588.7,1121.2,2597.3,1121.2,2607.8z"/>
				<path fill="#47FFFF" d="M1721.1,2417.9l-3.6,23c-1.2,7.4-7.5,12.8-14.9,12.8h-1.1c-8.4,0-15.1-6.8-15.2-15.1l0-23.6
					c0-9.1,8-16.2,17.1-15l4.7,0.6C1716.5,2401.7,1722.4,2409.5,1721.1,2417.9z"/>
				<path fill="#47FFFF" d="M1614.2,2409.8l-3.6,23c-1.2,7.4-7.5,12.8-14.9,12.8l-1.1,0c-8.4,0-15.1-6.8-15.2-15.1l0-23.6
					c0-9.1,8-16.2,17.1-15l4.7,0.6C1609.7,2393.5,1615.6,2401.4,1614.2,2409.8z"/>
				<path fill="#47FFFF" d="M1482.6,2408.9l-3.6,23c-1.2,7.4-7.5,12.8-14.9,12.8l-1.1,0c-8.4,0-15.1-6.8-15.2-15.1l0-23.6
					c0-9.1,8-16.2,17.1-15l4.7,0.6C1478.1,2392.7,1483.9,2400.5,1482.6,2408.9z"/>
				<path fill="#47FFFF" d="M1354.5,2400.6l-3.6,23c-1.2,7.4-7.5,12.8-14.9,12.8h-1.1c-8.4,0-15.1-6.8-15.2-15.1l0-23.6
					c0-9.1,8-16.2,17.1-15l4.7,0.6C1350,2384.3,1355.9,2392.2,1354.5,2400.6z"/>
				<path fill="#47FFFF" d="M1223.2,2381.2l-3.6,23c-1.2,7.4-7.5,12.8-14.9,12.8l-1.1,0c-8.4,0-15.1-6.8-15.2-15.1l0-23.6
					c0-9.1,8-16.2,17.1-15l4.7,0.6C1218.7,2364.9,1224.5,2372.8,1223.2,2381.2z"/>
				<path fill="#47FFFF" d="M1083.7,2381.3l-3.6,23c-1.2,7.4-7.5,12.8-14.9,12.8l-1.1,0c-8.4,0-15.1-6.8-15.2-15.1l0-23.6
					c0-9.1,8-16.2,17.1-15l4.7,0.6C1079.1,2365,1085,2372.9,1083.7,2381.3z"/>
				<path fill="#47FFFF" d="M966,2376.4l-3.6,23c-1.2,7.4-7.5,12.8-14.9,12.8l-1.1,0c-8.4,0-15.1-6.8-15.2-15.1l0-23.6
					c0-9.1,8-16.2,17.1-15l4.7,0.6C961.4,2360.2,967.3,2368,966,2376.4z"/>
				
					<linearGradient id="SVGID_41_" gradientUnits="userSpaceOnUse" x1="-343.3704" y1="1986.6683" x2="-420.0218" y2="2135.3721" gradientTransform="matrix(-0.9698 -0.2439 -0.2439 0.9698 1831.1873 247.654)">
					<stop  offset="0" style="stop-color:#009882"/>
					<stop  offset="1" style="stop-color:#007142"/>
				</linearGradient>
				<circle fill="url(#SVGID_41_)" cx="1701" cy="2349.4" r="31.8"/>
				
					<linearGradient id="SVGID_42_" gradientUnits="userSpaceOnUse" x1="-161.3433" y1="2022.0707" x2="-237.9947" y2="2170.7742" gradientTransform="matrix(-0.9698 -0.2439 -0.2439 0.9698 1831.1873 247.654)">
					<stop  offset="0" style="stop-color:#009882"/>
					<stop  offset="1" style="stop-color:#007142"/>
				</linearGradient>
				<circle fill="url(#SVGID_42_)" cx="1515.8" cy="2339.3" r="31.8"/>
				
					<linearGradient id="SVGID_43_" gradientUnits="userSpaceOnUse" x1="25.74" y1="2060.844" x2="-50.9114" y2="2209.5476" gradientTransform="matrix(-0.9698 -0.2439 -0.2439 0.9698 1831.1873 247.654)">
					<stop  offset="0" style="stop-color:#009882"/>
					<stop  offset="1" style="stop-color:#007142"/>
				</linearGradient>
				<circle fill="url(#SVGID_43_)" cx="1324.9" cy="2331.3" r="31.8"/>
				
					<linearGradient id="SVGID_44_" gradientUnits="userSpaceOnUse" x1="221.2509" y1="2092.876" x2="144.5995" y2="2241.5793" gradientTransform="matrix(-0.9698 -0.2439 -0.2439 0.9698 1831.1873 247.654)">
					<stop  offset="0" style="stop-color:#009882"/>
					<stop  offset="1" style="stop-color:#007142"/>
				</linearGradient>
				<circle fill="url(#SVGID_44_)" cx="1127.5" cy="2314.7" r="31.8"/>
				
					<linearGradient id="SVGID_45_" gradientUnits="userSpaceOnUse" x1="411.7053" y1="2126.593" x2="335.0539" y2="2275.2966" gradientTransform="matrix(-0.9698 -0.2439 -0.2439 0.9698 1831.1873 247.654)">
					<stop  offset="0" style="stop-color:#009882"/>
					<stop  offset="1" style="stop-color:#007142"/>
				</linearGradient>
				<circle fill="url(#SVGID_45_)" cx="934.6" cy="2300.9" r="31.8"/>
				<linearGradient id="SVGID_46_" gradientUnits="userSpaceOnUse" x1="1481.6207" y1="1873.0845" x2="1907.0879" y2="2671.5632">
					<stop  offset="0" style="stop-color:#45FF3F"/>
					<stop  offset="1" style="stop-color:#219F65"/>
				</linearGradient>
				<path fill="url(#SVGID_46_)" d="M1695.4,2355.5l9,0c9.8,0,17.7-6.9,17.7-15.5l-0.1-114.9c0-6.2-4.3-11.9-10.9-14.3l-18.9-6.9
					c-12.2-4.4-25.4,3.9-24.4,15.4l10,121.8C1678.4,2349.2,1686.1,2355.5,1695.4,2355.5z"/>
				<linearGradient id="SVGID_47_" gradientUnits="userSpaceOnUse" x1="1341.6266" y1="1947.6797" x2="1767.0936" y2="2746.1582">
					<stop  offset="0" style="stop-color:#45FF3F"/>
					<stop  offset="1" style="stop-color:#219F65"/>
				</linearGradient>
				<path fill="url(#SVGID_47_)" d="M1511.1,2347.1l9,0c9.8,0,17.7-6.9,17.7-15.5l-0.1-114.9c0-6.2-4.3-11.9-10.9-14.3l-18.9-6.9
					c-12.2-4.4-25.4,3.9-24.4,15.4l10,121.8C1494.2,2340.8,1501.9,2347.1,1511.1,2347.1z"/>
				<linearGradient id="SVGID_48_" gradientUnits="userSpaceOnUse" x1="1194.5522" y1="2026.0479" x2="1620.0193" y2="2824.5264">
					<stop  offset="0" style="stop-color:#45FF3F"/>
					<stop  offset="1" style="stop-color:#219F65"/>
				</linearGradient>
				<path fill="url(#SVGID_48_)" d="M1319.4,2341.5l9,0c9.8,0,17.7-6.9,17.7-15.5l-0.1-114.9c0-6.2-4.3-11.9-10.9-14.3l-18.9-6.9
					c-12.1-4.4-25.4,3.9-24.4,15.4l10,121.8C1302.4,2335.2,1310.1,2341.5,1319.4,2341.5z"/>
				<linearGradient id="SVGID_49_" gradientUnits="userSpaceOnUse" x1="1045.2081" y1="2105.625" x2="1470.6753" y2="2904.1035">
					<stop  offset="0" style="stop-color:#45FF3F"/>
					<stop  offset="1" style="stop-color:#219F65"/>
				</linearGradient>
				<path fill="url(#SVGID_49_)" d="M1121.6,2330.3l9,0c9.8,0,17.7-6.9,17.7-15.5l-0.1-114.9c0-6.2-4.3-11.9-10.9-14.3l-18.9-6.9
					c-12.1-4.4-25.4,3.9-24.4,15.4l10,121.8C1104.7,2324,1112.4,2330.3,1121.6,2330.3z"/>
				<linearGradient id="SVGID_50_" gradientUnits="userSpaceOnUse" x1="900.3182" y1="2182.8293" x2="1325.7854" y2="2981.3079">
					<stop  offset="0" style="stop-color:#45FF3F"/>
					<stop  offset="1" style="stop-color:#219F65"/>
				</linearGradient>
				<path fill="url(#SVGID_50_)" d="M928.8,2317.6l9,0c9.8,0,17.7-6.9,17.7-15.5l-0.1-114.9c0-6.2-4.3-11.9-10.9-14.3l-18.9-6.9
					c-12.1-4.4-25.4,3.9-24.4,15.4l10,121.8C911.8,2311.3,919.5,2317.6,928.8,2317.6z"/>
			</g>
		</g>
		<g>
			
				<linearGradient id="SVGID_51_" gradientUnits="userSpaceOnUse" x1="1206.0403" y1="2664.1411" x2="1208.6742" y2="2593.4663" gradientTransform="matrix(0.9698 -0.2439 0.2439 0.9698 -601.6001 247.654)">
				<stop  offset="0" style="stop-color:#0B8E78"/>
				<stop  offset="1" style="stop-color:#009392"/>
			</linearGradient>
			<path fill="url(#SVGID_51_)" d="M1185.1,2544.1c-0.9,0.2-1.8,0.3-2.7,0.2c-2.4-0.2-4.7-1.4-6.1-3.4l-22.5-30.6
				c-2.8-3.8-1.9-9,1.8-11.8c3.8-2.8,9-1.9,11.8,1.8l16.7,22.7l63.2-63c3.3-3.3,8.6-3.3,11.9,0c3.3,3.3,3.3,8.6,0,11.9l-70.2,70
				C1187.9,2543,1186.5,2543.8,1185.1,2544.1z"/>
		</g>
		<g>
			
				<linearGradient id="SVGID_52_" gradientUnits="userSpaceOnUse" x1="1591.3976" y1="2753.3335" x2="1594.0315" y2="2682.6587" gradientTransform="matrix(0.9698 -0.2439 0.2439 0.9698 -601.6001 247.654)">
				<stop  offset="0" style="stop-color:#0B8E78"/>
				<stop  offset="1" style="stop-color:#009392"/>
			</linearGradient>
			<path fill="url(#SVGID_52_)" d="M1580.6,2536.6c-0.9,0.2-1.8,0.3-2.7,0.2c-2.4-0.2-4.7-1.4-6.1-3.4l-22.5-30.6
				c-2.8-3.8-1.9-9,1.8-11.8c3.8-2.8,9-1.9,11.8,1.8l16.7,22.7l63.2-63c3.3-3.3,8.6-3.3,11.9,0c3.3,3.3,3.3,8.6,0,11.9l-70.2,70
				C1583.4,2535.5,1582,2536.3,1580.6,2536.6z"/>
		</g>
		<g>
			
				<linearGradient id="SVGID_53_" gradientUnits="userSpaceOnUse" x1="1397.0673" y1="2992.1306" x2="1399.7012" y2="2921.4561" gradientTransform="matrix(0.9698 -0.2439 0.2439 0.9698 -601.6001 247.654)">
				<stop  offset="0" style="stop-color:#0B8E78"/>
				<stop  offset="1" style="stop-color:#009392"/>
			</linearGradient>
			<path fill="url(#SVGID_53_)" d="M1450.3,2815.6c-0.9,0.2-1.8,0.3-2.7,0.2c-2.4-0.2-4.7-1.4-6.1-3.4l-22.5-30.6
				c-2.8-3.8-1.9-9,1.8-11.8c3.8-2.8,9-1.9,11.8,1.8l16.7,22.7l63.2-63c3.3-3.3,8.6-3.3,11.9,0c3.3,3.3,3.3,8.6,0,11.9l-70.2,70
				C1453.2,2814.5,1451.8,2815.2,1450.3,2815.6z"/>
		</g>
		<g>
			
				<linearGradient id="SVGID_54_" gradientUnits="userSpaceOnUse" x1="1491.559" y1="3155.248" x2="1494.1929" y2="3084.5732" gradientTransform="matrix(0.9698 -0.2439 0.2439 0.9698 -601.6001 247.654)">
				<stop  offset="0" style="stop-color:#0B8E78"/>
				<stop  offset="1" style="stop-color:#009392"/>
			</linearGradient>
			<path fill="url(#SVGID_54_)" d="M1581.8,2950.8c-0.9,0.2-1.8,0.3-2.7,0.2c-2.4-0.2-4.7-1.4-6.1-3.4l-22.5-30.6
				c-2.8-3.8-1.9-9,1.8-11.8c3.8-2.8,9-1.9,11.8,1.8l16.7,22.7l63.2-63c3.3-3.3,8.6-3.3,11.9,0c3.3,3.3,3.3,8.6,0,11.9l-70.2,70
				C1584.6,2949.6,1583.2,2950.4,1581.8,2950.8z"/>
		</g>
		<g>
			
				<linearGradient id="SVGID_55_" gradientUnits="userSpaceOnUse" x1="983.2395" y1="3032.7734" x2="985.8734" y2="2962.0989" gradientTransform="matrix(0.9698 -0.2439 0.2439 0.9698 -601.6001 247.654)">
				<stop  offset="0" style="stop-color:#0B8E78"/>
				<stop  offset="1" style="stop-color:#009392"/>
			</linearGradient>
			<path fill="url(#SVGID_55_)" d="M1058.9,2956c-0.9,0.2-1.8,0.3-2.7,0.2c-2.4-0.2-4.7-1.4-6.1-3.4l-22.5-30.6
				c-2.8-3.8-1.9-9,1.8-11.8c3.8-2.8,9-1.9,11.8,1.8l16.7,22.7l63.2-63c3.3-3.3,8.6-3.3,11.9,0c3.3,3.3,3.3,8.6,0,11.9l-70.2,70
				C1061.7,2954.8,1060.4,2955.6,1058.9,2956z"/>
		</g>
		<g>
			
				<linearGradient id="SVGID_56_" gradientUnits="userSpaceOnUse" x1="1016.1595" y1="2899.4148" x2="1018.7934" y2="2828.74" gradientTransform="matrix(0.9698 -0.2439 0.2439 0.9698 -601.6001 247.654)">
				<stop  offset="0" style="stop-color:#0B8E78"/>
				<stop  offset="1" style="stop-color:#009392"/>
			</linearGradient>
			<path fill="url(#SVGID_56_)" d="M1058.3,2818.6c-0.9,0.2-1.8,0.3-2.7,0.2c-2.4-0.2-4.7-1.4-6.1-3.4l-22.5-30.6
				c-2.8-3.8-1.9-9,1.8-11.8c3.8-2.8,9-1.9,11.8,1.8l16.7,22.7l63.2-63c3.3-3.3,8.6-3.3,11.9,0c3.3,3.3,3.3,8.6,0,11.9l-70.2,70
				C1061.1,2817.5,1059.8,2818.2,1058.3,2818.6z"/>
		</g>
		<g>
			<g>
				
					<linearGradient id="SVGID_57_" gradientUnits="userSpaceOnUse" x1="1159.019" y1="2816.2905" x2="1162.7938" y2="2715.0012" gradientTransform="matrix(0.9698 -0.2439 0.2439 0.9698 -601.6001 247.654)">
					<stop  offset="0" style="stop-color:#0B8E78"/>
					<stop  offset="1" style="stop-color:#009392"/>
				</linearGradient>
				<path fill="url(#SVGID_57_)" d="M1237.1,2690.3c-2.5,0.6-5.2,0-7.2-2l-73-72.6c-3-3-3-7.8,0-10.7c3-3,7.8-3,10.7,0l73,72.6
					c3,3,3,7.8,0,10.7C1239.7,2689.3,1238.4,2690,1237.1,2690.3z"/>
			</g>
			<g>
				
					<linearGradient id="SVGID_58_" gradientUnits="userSpaceOnUse" x1="-3194.136" y1="1837.0609" x2="-3190.3611" y2="1735.77" gradientTransform="matrix(-0.9817 -0.1902 -0.1902 0.9817 -1594.4536 282.0623)">
					<stop  offset="0" style="stop-color:#0B8E78"/>
					<stop  offset="1" style="stop-color:#009392"/>
				</linearGradient>
				<path fill="url(#SVGID_58_)" d="M1163.7,2688.7c2.5,0.5,5.2-0.3,7.1-2.4l68.9-76.5c2.8-3.1,2.6-7.9-0.6-10.7
					c-3.1-2.8-7.9-2.6-10.7,0.6l-68.9,76.5c-2.8,3.1-2.6,7.9,0.6,10.7C1161.1,2687.8,1162.4,2688.4,1163.7,2688.7z"/>
			</g>
		</g>
		<g>
			<g>
				
					<linearGradient id="SVGID_59_" gradientUnits="userSpaceOnUse" x1="1223.0536" y1="3109.5615" x2="1226.8284" y2="3008.2722" gradientTransform="matrix(0.9698 -0.2439 0.2439 0.9698 -601.6001 247.654)">
					<stop  offset="0" style="stop-color:#0B8E78"/>
					<stop  offset="1" style="stop-color:#009392"/>
				</linearGradient>
				<path fill="url(#SVGID_59_)" d="M1370.8,2959.1c-2.5,0.6-5.2,0-7.2-2l-73-72.6c-3-3-3-7.8,0-10.7c3-3,7.8-3,10.7,0l73,72.6
					c3,3,3,7.8,0,10.7C1373.3,2958.1,1372.1,2958.8,1370.8,2959.1z"/>
			</g>
			<g>
				
					<linearGradient id="SVGID_60_" gradientUnits="userSpaceOnUse" x1="-3376.4614" y1="2075.543" x2="-3372.6865" y2="1974.2521" gradientTransform="matrix(-0.9817 -0.1902 -0.1902 0.9817 -1594.4536 282.0623)">
					<stop  offset="0" style="stop-color:#0B8E78"/>
					<stop  offset="1" style="stop-color:#009392"/>
				</linearGradient>
				<path fill="url(#SVGID_60_)" d="M1297.3,2957.5c2.5,0.5,5.2-0.3,7.1-2.4l68.9-76.5c2.8-3.1,2.6-7.9-0.6-10.7
					c-3.1-2.8-7.9-2.6-10.7,0.6l-68.9,76.5c-2.8,3.1-2.6,7.9,0.6,10.7C1294.8,2956.6,1296,2957.2,1297.3,2957.5z"/>
			</g>
		</g>
	</g>
	<g>
		
			<linearGradient id="SVGID_61_" gradientUnits="userSpaceOnUse" x1="-1866.3378" y1="64.6201" x2="-1953.8865" y2="332.975" gradientTransform="matrix(0.9332 -0.3594 0.4181 1.0853 3955.8762 1288.1039)">
			<stop  offset="0" style="stop-color:#41FF76"/>
			<stop  offset="1" style="stop-color:#3CDC60"/>
		</linearGradient>
		<path fill="url(#SVGID_61_)" d="M2170,2081.2c0,0-48.5,213,147.5,335.2l46.7-24.1c0,0-161.3-139.1-173.4-294.9l71.3-20.7l27-43.7
			L2170,2081.2z"/>
		<g>
			
				<linearGradient id="SVGID_62_" gradientUnits="userSpaceOnUse" x1="-1428.8081" y1="1723.1429" x2="-1478.4633" y2="2047.0476" gradientTransform="matrix(-0.9911 -0.1329 -0.1329 0.9911 976.8215 -49.071)">
				<stop  offset="0" style="stop-color:#45FF3F"/>
				<stop  offset="1" style="stop-color:#219F65"/>
			</linearGradient>
			<path fill="url(#SVGID_62_)" d="M2021.6,1816.4l361,46.2c11.9,1.5,20,12.7,17.8,24.4l-38.2,207.9c-2.2,11.8-13.1,18.8-24.9,17.2
				l-386.3-51.8c-11.9-1.6-20.5-11.2-19.5-23.1l13.2-156.2L2021.6,1816.4z"/>
			
				<linearGradient id="SVGID_63_" gradientUnits="userSpaceOnUse" x1="-1370.6119" y1="1954.6613" x2="-1173.4404" y2="1763.2046" gradientTransform="matrix(-0.9951 -9.880000e-02 -9.880000e-02 0.9951 926.1754 -96.896)">
				<stop  offset="0" style="stop-color:#45FF3F"/>
				<stop  offset="1" style="stop-color:#219F65"/>
			</linearGradient>
			<path fill="url(#SVGID_63_)" d="M1996.9,1886.3c11.8,1.2,22.2-7.8,22.8-19.6l2.7-49.4l-77.9,63.9L1996.9,1886.3z"/>
			<g>
				<path opacity="0.58" fill="#47FFFF" d="M2031,1894.1l291.3,39.1c8.4,1.1,14.6,6.6,13.9,12.2c-0.8,5.6-8.2,9.3-16.6,8.1
					l-291.3-39.1c-8.4-1.1-14.6-6.6-13.9-12.2C2015.1,1896.6,2022.6,1892.9,2031,1894.1z"/>
				<path opacity="0.58" fill="#47FFFF" d="M2023,1954.2l291.3,39.1c8.4,1.1,14.6,6.6,13.9,12.2c-0.8,5.6-8.2,9.3-16.6,8.1
					l-291.3-39.1c-8.4-1.1-14.6-6.6-13.9-12.2C2007.1,1956.7,2014.5,1953.1,2023,1954.2z"/>
			</g>
		</g>
		
			<linearGradient id="SVGID_64_" gradientUnits="userSpaceOnUse" x1="299.463" y1="3025.0063" x2="483.9266" y2="3025.0063" gradientTransform="matrix(1 0 0 1 2107.7542 0)">
			<stop  offset="0" style="stop-color:#41FF76"/>
			<stop  offset="1" style="stop-color:#3CDC60"/>
		</linearGradient>
		<path fill="url(#SVGID_64_)" d="M2407.2,2854.7c0,0,98.7,215.1,150.4,304.2c0,0,10.3,56.1,0,73.7l-8.8,3.9l40.9-1.2
			c0,0,3.6-75.4,0.8-79.6c-2.8-4.2-8.5-3.9-8.5-3.9s-17.5-138.9-68.3-168.6l-49.2-169.5L2407.2,2854.7z"/>
		
			<linearGradient id="SVGID_65_" gradientUnits="userSpaceOnUse" x1="553.0128" y1="2612.491" x2="461.661" y2="3206.2747" gradientTransform="matrix(1 0 0 1 2107.7542 0)">
			<stop  offset="0" style="stop-color:#00FFFF"/>
			<stop  offset="1" style="stop-color:#00A3F7"/>
		</linearGradient>
		<path fill="url(#SVGID_65_)" d="M2531.4,3247c-0.1,1,31.9,0.5,49.3,0.2c6.4-0.1,11.9-4.6,13.3-10.9l13.1-69
			c1.2-6.6-2.9-12.9-9.4-14.4l-7.3-1.7c0,0-10.5,14.3-7.2,27.8c3.3,13.5,6.2,48.5-2.1,52.5c-8.3,4.1-32.2,4.8-32.2,4.8
			S2532,3238.1,2531.4,3247z"/>
		
			<linearGradient id="SVGID_66_" gradientUnits="userSpaceOnUse" x1="359.7222" y1="2582.7529" x2="268.3698" y2="3176.5405" gradientTransform="matrix(1 0 0 1 2107.7542 0)">
			<stop  offset="0" style="stop-color:#00FFFF"/>
			<stop  offset="1" style="stop-color:#00A3F7"/>
		</linearGradient>
		<path fill="url(#SVGID_66_)" d="M2313.7,3248.3c-3.2,1.8-1.9,6.8,1.8,6.7c29.1-0.3,94.3-1.2,100.1-3.6c7.5-3.1-2.7-30-13.5-39.1
			l-59.3,19.3L2313.7,3248.3z"/>
		
			<linearGradient id="SVGID_67_" gradientUnits="userSpaceOnUse" x1="187.5315" y1="3038.7222" x2="294.3507" y2="3038.7222" gradientTransform="matrix(1 0 0 1 2107.7542 0)">
			<stop  offset="0" style="stop-color:#41FF76"/>
			<stop  offset="1" style="stop-color:#3CDC60"/>
		</linearGradient>
		<path fill="url(#SVGID_67_)" d="M2295.3,2841c0,0,63.8,308.5,81.8,368.7l-42.7,26.8c0,0,21.4-3.6,37.2-4.8
			c15.9-1.1,30.4-19.3,30.4-19.3l-5.1-8.2c0,0-16-306.8-12.1-341.6L2295.3,2841z"/>
		
			<linearGradient id="SVGID_68_" gradientUnits="userSpaceOnUse" x1="-42.5767" y1="2237.2954" x2="166.5416" y2="2237.2954" gradientTransform="matrix(1 0 0 1 2107.7542 0)">
			<stop  offset="0" style="stop-color:#41FF76"/>
			<stop  offset="1" style="stop-color:#3CDC60"/>
		</linearGradient>
		<path fill="url(#SVGID_68_)" d="M2137,2121.5c0,0-8.8,160.5,137.3,242.5l-35.2,80.2c0,0-132.3-80-127.4-298.2
			c0.1-6.3-2.1-12.3-6.2-17.1l-28.1-32.6c-10.7-12.4-14.7-29.3-10.7-45.2l3.7-14.8c1.2-5,6.9-7.3,11.3-4.8l2.9,1.7
			c9.4,5.4,16.8,13.7,21.2,23.6l13.8,30.9c5.2,11.5,17,18.5,29.6,17.4l8.5-0.7L2137,2121.5z"/>
		
			<linearGradient id="SVGID_69_" gradientUnits="userSpaceOnUse" x1="186.5812" y1="2350.9763" x2="578.6328" y2="3127.4668" gradientTransform="matrix(1 0 0 1 2107.7542 0)">
			<stop  offset="0" style="stop-color:#45FF3F"/>
			<stop  offset="1" style="stop-color:#219F65"/>
		</linearGradient>
		<path fill="url(#SVGID_69_)" d="M2269.2,2351.9c24.4,6.8,107.2,28.6,158.9,27.7l-31.7,179.1l2.5,29.2l-103.5-0.5
			c0,0-29.1-67.7-52.1-101.4c-6.6-9.7-1.7-21.4,2.1-32.5l-5.2-3.4c-5.3-3.5-7.5-10.1-5.6-16.1l25.2-77.1
			C2261.2,2353,2265.3,2350.8,2269.2,2351.9z"/>
		
			<linearGradient id="SVGID_70_" gradientUnits="userSpaceOnUse" x1="-183.6221" y1="3153.4255" x2="212.4553" y2="2500.2451" gradientTransform="matrix(1 0 0 1 2295.7578 0)">
			<stop  offset="0" style="stop-color:#00FFFF"/>
			<stop  offset="1" style="stop-color:#00A3F7"/>
		</linearGradient>
		<path fill="url(#SVGID_70_)" d="M2287.2,2572.2l2,17.7c0,0-29.2,87.6,14.6,292.1c0,0,95,26.9,173.1-37.5c0,0-22-193.1-28-202.1
			c-30-44.8-49.9-54.5-49.9-54.5l-0.9-19.3C2398,2568.6,2314.5,2583.7,2287.2,2572.2z"/>
		
			<linearGradient id="SVGID_71_" gradientUnits="userSpaceOnUse" x1="219.914" y1="2339.9626" x2="285.2815" y2="2339.9626" gradientTransform="matrix(1 0 0 1 2107.7542 0)">
			<stop  offset="0" style="stop-color:#41FF76"/>
			<stop  offset="1" style="stop-color:#3CDC60"/>
		</linearGradient>
		<path fill="url(#SVGID_71_)" d="M2327.7,2366.3c-0.4-0.5,21.6-66.3,21.6-66.3l31.5,2.9l12.3,74.7
			C2393,2377.6,2343.7,2387.5,2327.7,2366.3z"/>
		
			<linearGradient id="SVGID_72_" gradientUnits="userSpaceOnUse" x1="323.8038" y1="2255.4885" x2="799.5961" y2="2287.8425" gradientTransform="matrix(1 0 0 1 2107.7542 0)">
			<stop  offset="0" style="stop-color:#41FF76"/>
			<stop  offset="1" style="stop-color:#3CDC60"/>
		</linearGradient>
		<path fill="url(#SVGID_72_)" d="M2373.2,2196.2c-2.1,1.3-67.2,28.2-53.2,95.9c0.8,4,3.5,7.4,7.2,9c9.6,4.3,30.1,11.6,54.8,9.1
			c34.1-3.5,56.5-63,55.5-80.3C2436.5,2212.5,2394,2183.2,2373.2,2196.2z"/>
		
			<linearGradient id="SVGID_73_" gradientUnits="userSpaceOnUse" x1="1660.5116" y1="2246.2813" x2="1404.4888" y2="2758.3257" gradientTransform="matrix(-1 0 0 1 3947.7605 0)">
			<stop  offset="0" style="stop-color:#009882"/>
			<stop  offset="1" style="stop-color:#007142"/>
		</linearGradient>
		<path fill="url(#SVGID_73_)" d="M2373.2,2196.2c0,0,42.9,37.3,29,62.2c-13.9,24.8-9.1,22.3-9.1,22.3s18.6,0.5,4.2,12.9
			c-14.4,12.4-23.2,4.5-24,18.9c-0.8,14.4-156.4,273.6-63.7,338.5c92.7,64.9,217.1,46.3,251.6-51.6c34.4-98-77.5-204.6-73.5-288.6
			c1.8-38-14.2-77.5-37.5-107c-10.8-13.7-24.5-29.3-40.6-36.8c-7.8-3.6-17.1-5.4-24.7-0.2C2378.5,2170.9,2370,2188.6,2373.2,2196.2z
			"/>
		<g opacity="0.8">
			<path fill="#47FFFF" d="M2441.9,2667.3c-0.5,0-0.8-0.4-0.9-0.8c0-0.5,0.4-0.9,0.8-0.9c41.6-1.5,87-35.2,101.3-75.1
				c15.5-43.2-3.7-88.2-20.7-127.9l-2.9-6.7c-7.1-16.7-14.9-33.5-22.4-49.6c-5.1-10.9-10.4-22.2-15.4-33.5c-0.2-0.4,0-0.9,0.4-1.1
				c0.4-0.2,0.9,0,1.1,0.4c5,11.2,10.3,22.5,15.4,33.4c7.5,16.2,15.3,32.9,22.4,49.7l2.9,6.7c17.1,40,36.4,85.4,20.7,129.1
				C2530.3,2631.7,2484.1,2665.8,2441.9,2667.3C2441.9,2667.3,2441.9,2667.3,2441.9,2667.3z"/>
			<path fill="#47FFFF" d="M2380.1,2194.4c0,0-0.1,0-0.1,0c-0.5-0.1-0.8-0.5-0.7-1c2.3-15.5,16-21.9,16.6-22.2
				c0.4-0.2,0.9,0,1.1,0.4c0.2,0.4,0,0.9-0.4,1.1c-0.1,0.1-13.5,6.4-15.6,20.9C2380.9,2194.1,2380.5,2194.4,2380.1,2194.4z"/>
		</g>
	</g>
</g>
</svg>
