<?xml version="1.0" encoding="utf-8"?>
<!-- Generator: Adobe Illustrator 23.0.5, SVG Export Plug-In . SVG Version: 6.00 Build 0)  -->
<svg version="1.1" id="Capa_1" xmlns="http://www.w3.org/2000/svg" xmlns:xlink="http://www.w3.org/1999/xlink" x="0px" y="0px"
	 viewBox="0 0 960 256" style="enable-background:new 0 0 960 256;" xml:space="preserve">
<style type="text/css">
	.st0{fill:#FFFFFF;}
</style>
<g>
	<path class="st0" d="M546.3,254.7c-1.3-0.2-2.5-0.3-3.8-0.5c-7.2-1.1-13.6-3.8-19.1-8.6c-7.5-6.4-11.6-14.5-12.9-24.1
		c-0.2-1.2-0.4-2.3-0.3-3.5c0.1-2.7,1.6-4.3,4.3-4.4c2.7-0.1,5.5-0.1,8.2-0.2c4,0,8.1,0,12.1-0.1c1.2,0,2.4-0.1,3.6-0.1
		c2.1,0,3.8,1.5,3.4,3.9c-0.5,3.3-0.3,6.5,1.1,9.6c1.8,3.8,5.6,5.2,9.2,4.8c4.6-0.5,7.3-3.4,8.9-7.5c0.8-2.1,1.2-4.2,1.5-6.4
		c0.3-2.2,2.1-4,4.4-4.1c5.1-0.2,10.3-0.5,15.4-0.7c3.1-0.1,6.2-0.3,9.4-0.5c2.8-0.1,4.5,1.6,4.8,4.4c0.2,2.1-0.5,4.1-1.1,6
		c-3.7,11.3-11,19.7-21.3,25.5c-6,3.4-12.4,5.4-19.3,6.1c-0.8,0.1-1.7,0-2.5,0.3C550.4,254.7,548.3,254.7,546.3,254.7z M537.4,238.4
		c1.7,0,3.5-1.6,3.7-3.3c0-0.4-0.2-0.4-0.4-0.4c-0.6,0-1.2,0.1-1.7-0.1c-1.5-0.5-2.8-0.1-3.6,1.2c-0.2,0.3-0.3,0.5-0.2,0.9
		C535.4,237.6,536.4,238.3,537.4,238.4z M529.6,222.8c0-0.3-0.3-0.3-0.5-0.4c-0.7-0.3-1.3-0.6-1.8-1.1c-0.9-0.9-1.9-0.8-2.6,0.3
		c-0.2,0.4-0.2,0.6,0.3,0.7c1,0.2,1.9,0.6,2.4,1.5c0.3,0.6,0.6,0.5,1.2,0.3C529.2,223.8,529.5,223.5,529.6,222.8z M574.4,234.5
		c-0.5-0.6-0.8-1.1-1.1-1.6c-0.2-0.6-1.2-0.9-1.8-0.8c-0.3,0.1-0.4,0.3-0.3,0.6c0.4,0.9,0.8,1.9,1.2,2.8c0.1,0.2,0.2,0.5,0.5,0.4
		c0.2,0,0.2-0.3,0.3-0.5C573.5,234.9,573.7,234.4,574.4,234.5z M561.2,242.1c0.3-0.3,0.9-0.2,0.9-0.8c0-0.4-1.1-1.6-1.5-1.6
		c-0.5,0.1-0.8,0.4-0.8,0.9C559.8,241.3,560.6,242.1,561.2,242.1z M528.2,225.3c0-0.3,0-0.6-0.5-0.6c-0.7,0-1.8,0.7-1.7,1.1
		c0,0.6,0.5,0.8,1,0.8C527.8,226.7,528.2,226.3,528.2,225.3z M567.7,235.7c0-0.8-0.2-1.3-0.7-1.7c-0.3-0.2-0.7-0.3-0.7,0.2
		c0,0.7,0,1.4,0.1,2.1c0,0.2,0.2,0.3,0.4,0.3C567.4,236.7,567.7,236.4,567.7,235.7z M543.9,239.6c-0.4-0.1-0.7-0.1-0.7,0.4
		c0,0.4,0,0.7,0.6,0.7c0.4,0,0.9,0.1,1.3,0.1c0.3,0,0.7,0.1,0.7-0.5c0-0.5-0.1-0.7-0.6-0.7C544.7,239.7,544.3,239.7,543.9,239.6z
		 M575.1,229.9c-0.5-0.6,0.3-1.9-1.2-1.8c0,0-0.1-0.1-0.1-0.1c-0.2-0.3-0.3-0.3-0.5-0.1c-0.4,0.5,0,1.5,0.6,1.7
		C574.3,229.6,574.7,229.7,575.1,229.9z M573.1,226.5c0.6,0,1.3,0.3,1.6-0.5c0.1-0.1,0-0.7-0.3-0.7
		C573.8,225.3,573.3,225.6,573.1,226.5z M577.6,226.6c0.3-0.3,1-0.2,1.2-0.7c0.1-0.2-0.1-0.5-0.3-0.4c-0.4,0.2-1.1,0.1-1.2,0.8
		C577.2,226.4,577.3,226.6,577.6,226.6z M533.1,229.6c-0.1-0.2-0.2-0.5-0.5-0.6c-0.2,0-0.3,0.1-0.3,0.3c0,0.3,0.1,0.7,0.4,0.8
		C532.9,230.2,533,229.9,533.1,229.6z M522,232.9c0.4-0.1,0.8-0.1,0.9-0.5c0-0.1,0-0.3-0.2-0.3C522.4,232.2,522.1,232.4,522,232.9z"
		/>
	<path class="st0" d="M616.2,173.3c0.2,0.3,0.2,0.6,0.1,0.9c-0.6,1.7-0.9,3.4-1.4,5.1c-0.9,2.8-2.1,5.5-3.4,8.1
		c-0.3,0.6-1,1.1-1.1,1.6c-0.3,1.3-1.2,2.1-1.9,3.1c-4.3,5.7-9.9,9.4-17,10.4c-7.1,1-13.8-0.1-19.5-5c-3.5-3-5.9-6.8-7.7-11.1
		c-0.7-1.8-1.4-3.6-1.7-5.5c-0.7-3.8-1.3-7.7-1.2-11.6c0-0.7-0.2-1-0.9-1.1c-2.1-0.1-4.1-0.2-6.2-0.3c-0.5,0-0.5,0.3-0.6,0.6
		c-0.2,1.2-0.3,2.3-0.6,3.5c-0.4,2-0.7,4-1.3,6c-1,3.3-2.3,6.5-4,9.5c-2.6,4.5-5.8,8.6-10.3,11.4c-3.7,2.3-7.8,3.5-12.2,3.8
		c-4.6,0.3-9.1-0.4-13.2-2.6c-3.1-1.7-5.6-4.1-7.7-7c-2.8-3.9-4.6-8.2-5.6-12.9c-1.2-5.9-1.4-12-0.8-18c0.7-7.4,2.1-14.7,4.8-21.6
		c2.1-5.6,5.1-10.8,9.5-15c4.2-3.9,9.1-6.3,14.8-6.6c7.7-0.5,14.3,1.8,19.7,7.5c2.9,3,4.5,6.7,5.7,10.6c1.5,4.8,2.2,9.6,2.3,14.6
		c0.1,1.8-0.4,1.7,1.8,1.5c1.8-0.2,3.5-0.3,5.3-0.4c0.9,0,1.2-0.3,1.4-1.2c1.2-6,3-11.8,5.9-17.2c2.7-5,6.2-9.2,11.1-12.2
		c9.1-5.5,22.3-4.1,30,4.1c2.9,3.1,4.6,6.9,5.8,10.9c2.1,6.8,2.5,13.8,2.2,20.9c-0.2,4.9-0.7,9.7-1.7,14.4
		C616.5,172.9,616.6,173.2,616.2,173.3c-0.1-0.1-0.1-0.1-0.2-0.2c-0.3-0.6-0.8-0.6-1.5-0.4c0.4,0.5,1,0.3,1.4,0.5
		C616,173.3,616.1,173.3,616.2,173.3z M536.6,124.6c-0.1,0-0.2,0-0.2,0c-1.1,0.7-1.3,0.7-2.3-0.1c0,0,0,0-0.1,0
		c-0.4,0-0.8,0.1-0.9,0.4c-0.1,0.5,0.3,0.9,0.7,1.1c0.2,0.1,0.8,0.3,0.8-0.1c0.1-0.8,0.7-0.6,1.1-0.7
		C536.1,125.3,536.6,125.2,536.6,124.6c0.4-0.2,1-0.1,1.3-0.7C537.1,123.6,536.6,123.7,536.6,124.6z M600.2,124.6
		c-0.2-0.1-0.4,0.1-0.5,0.2c-0.4,0.4-1,0.4-1.5,0.4c-0.5,0.1-0.3-0.4-0.5-0.7c-0.2-0.3-0.4,0-0.6,0.1c-0.2,0.1-0.5,0.1-0.5,0.4
		c0,0.5,0.9,1.2,1.4,1.1c0.1,0,0.3,0,0.3-0.1c-0.1-0.9,0.6-0.6,1-0.7C599.7,125.3,600.1,125.2,600.2,124.6c0.4-0.3,1-0.1,1.2-0.6
		C600.4,123.6,600.4,123.6,600.2,124.6z M611,174c-0.4,0-0.7,0.2-0.8,0.6c0.5,0.3,1,0.2,1.5,0.3c0.4,0.1,1,0,1.1,0.5
		c0.1,0.5-0.7,0.2-0.8,0.7c1,0.6,1.3-0.5,1.9-0.8c-0.4-0.3-0.7-0.6-1-0.9c0.3-0.2,0.8,0,0.8-0.4c0-0.4-0.4-0.4-0.7-0.6
		c0,0-0.1,0-0.1,0c-0.5-0.2-0.5-0.4-0.1-0.7c0.2-0.1,0.4-0.1,0.5-0.4c-0.8-0.8-0.8-0.8-1.8-0.6c0.3,0.2,0.5,0.5,0.8,0.7
		C611.6,172.8,611.3,173.4,611,174L611,174z M518.8,170.2c0,1,0,2,0,3c0.1,2.8,0.3,5.5,1.6,8c1.5,3,5.5,3.2,7.4,1.7
		c1.8-1.4,2.7-3.4,3.4-5.4c1.3-3.9,2.2-7.8,2.7-11.9c0.1-0.5-0.1-1.1,0.8-1.2c0.2,0,0.4-0.4,0-0.6c-0.5-0.2-0.3-0.5-0.3-0.8
		c0.3-6.1,0.9-12.3,0.2-18.5c-0.3-2.4-0.6-4.9-1.8-7.1c-1.1-2.1-3.2-2.7-5.3-1.6c-1.4,0.8-2.3,2-3.1,3.3c-1.6,2.8-2.5,5.9-3.2,9
		C519.4,155.4,518.8,162.8,518.8,170.2z M598.3,151c0.1-2.2,0-4.9-0.4-7.6c-0.3-2.1-0.7-4.1-1.7-6c-1.2-2.2-3.4-2.8-5.6-1.5
		c-1.2,0.7-2,1.8-2.7,3c-1,1.9-1.8,3.8-2.4,5.8c-1.6,5.2-2.4,10.5-2.8,15.8c-0.4,4.9-0.7,9.8-0.3,14.7c0.1,2,0.5,4,1.4,5.8
		c1.1,2.1,2.7,3,5.5,2.6c1.9-0.3,3-1.6,4-3.1c1.3-2.1,1.9-4.5,2.5-6.8c0.8-2.8,1.4-5.7,1.6-8.7c0.1-0.7,0.7-0.6,0.9-1
		c0.1-0.5-0.6-0.6-0.5-1.3C598.2,159.1,598.4,155.3,598.3,151z M612.6,166c-0.7-0.1-1.3,0.3-2,0.6c-0.1,0-0.3-0.1-0.3,0.2
		c0,0.6,0.8,1.4,1.3,1.5c0.2,0,0.5,0.1,0.5-0.2c0-0.2,0-0.5-0.4-0.6c-0.2-0.1-0.6,0-0.7-0.4c0.7-0.4,1.5-0.2,2.1-0.7
		c0.2-0.2,0.4-0.2,0.1-0.5c-0.6-0.7-0.6-1.9-0.2-2.6c0-0.1,0-0.2-0.1-0.2c-0.3-0.4,0-0.4,0.3-0.4c0.3,0,0.6,0.1,0.9,0.1
		c0.4,0,0.7-0.1,0.8-0.5c0.1-0.4-0.2-0.5-0.5-0.6c-0.4-0.2-0.7-0.1-0.8,0.3c-0.1,0.5-0.5,0.5-0.9,0.4c-0.5,0-1-0.1-1.5,0.3
		c0.2,0.3,0.5-0.2,0.6,0.2c0.1,0.3-0.2,0.3-0.4,0.4c-0.3,0.2-0.7,0.3-1,0.5c-0.5,0.1-0.5,0.5-0.5,0.9c0.1,0.4,0.3,0.7,0.8,0.6
		C611.7,165,612.1,165.4,612.6,166z M579.3,190c0.9,0,1.8-0.6,1.8-1.2c-0.1-0.7-0.5-1.3-0.8-1.9c0,0-0.2-0.1-0.3,0
		c-0.8,0.3-1.5,0.5-2.2,1c-0.3,0.2-0.6,0.7-0.3,0.9C578.2,189.2,578.7,189.9,579.3,190z M515.9,190c0.8-0.1,1.3-0.4,1.6-1
		c0.3-0.5,0.1-0.9-0.4-1.2c-0.2-0.1-0.2-0.3-0.2-0.4c0.1-0.5-0.2-0.5-0.6-0.4c-0.7,0.2-1.4,0.5-2,1c-0.3,0.2-0.6,0.8-0.4,0.9
		C514.6,189.2,515.1,189.9,515.9,190z M599.8,186.3c-0.4,0-0.7,0.1-0.7,0.4c0,0.3-0.5,0.8,0.1,1.1c0.2,0.1,0.4,0.3,0.5,0.6
		c0.4,0.8,1.6,1.2,2.3,0.9c0.5-0.2,1.2-0.3,1.2-0.8c0-0.5-0.7-0.7-1.2-0.9c-0.7-0.3-1.5-0.3-1.8-1.1
		C600.1,186.3,599.8,186.3,599.8,186.3z M536.3,186.3c-0.5,0-0.7,0.1-0.9,0.5c-0.2,0.6,0.3,0.9,0.5,1.3c0.9,1.3,1.9,1.5,3.2,0.8
		c0.7-0.4,0.7-0.5,0-1c-0.8-0.6-2.1-0.5-2.6-1.5C536.4,186.3,536.3,186.3,536.3,186.3z M547.9,171.6c0.3,0.2,0.4,0.4,0.6,0.5
		c0.2,0.1,0.3,0.3,0,0.5c-0.8,0.4-0.9,1.3-1.7,1.7c-0.4,0.2-0.2,0.5,0.2,0.5c0.5,0.1,0.9,0.1,1.4,0.2c0.3,0.1,0.8,0,0.8,0.4
		c0,0.4-0.5,0.2-0.7,0.5c0,0,0,0.1,0,0.2c1,0.5,1.2-0.5,1.7-0.8c-0.5-1.3-1.9-0.5-2.7-1.3c0.6-0.2,1.2-0.5,1.6-0.1
		c0.3,0.2,0.4,0.4,0.8,0.3c0.2,0,0.3-0.2,0.3-0.3c0-0.4-0.4-0.4-0.6-0.5c-0.8-0.3-0.7-0.5,0-0.9c0.1,0,0.2-0.1,0.3-0.2
		C549.3,171.7,548.8,171.5,547.9,171.6z M605.7,175.2c-0.1-0.1-0.2-0.1-0.2-0.2c-0.1-0.3-0.3-0.7-0.7-0.6c-0.4,0.1-0.4,0.6-0.4,1
		c0,0.5,0.4,0.4,0.7,0.5c0.2,0.1,0.4,0,0.6,0.1c0.5,0,0.9,0.2,0.6,0.8c-0.1,0.2-0.2,0.5,0.2,0.6c0.4,0.1,0.8,0.2,1.1-0.2
		c0.3-0.3,0-0.5-0.2-0.7c-0.5-0.3-0.5-0.6-0.1-1c0.6-0.5,0.2-1,0-1.5c-0.2-0.4-0.6-0.2-0.9-0.2c-0.4,0-0.2,0.4-0.2,0.6
		C605.9,174.6,606.1,175,605.7,175.2z M542.1,175.3c-0.1-0.2-0.2-0.2-0.3-0.3c-0.1-0.3-0.3-0.7-0.7-0.6c-0.4,0.1-0.4,0.6-0.4,1
		c0,0.5,0.4,0.4,0.7,0.4c0.2,0.1,0.4,0,0.6,0c0.6,0,0.9,0.2,0.6,0.8c-0.1,0.2-0.2,0.5,0.1,0.6c0.4,0.1,0.9,0.2,1.2-0.2
		c0.2-0.2,0.1-0.5-0.2-0.7c-0.5-0.3-0.5-0.7-0.1-1c0.6-0.6,0.2-1.1-0.1-1.5c-0.2-0.3-0.6-0.2-0.9-0.2c-0.4,0-0.2,0.3-0.2,0.5
		C542.4,174.6,542.4,174.9,542.1,175.3z M537.8,172.5c0.4-0.1,0.9-0.2,1.3-0.4c0.2-0.1,0.3-0.1,0.3-0.3c0-0.3-0.3-0.3-0.5-0.3
		c-1.2,0.2-2.5-0.7-3.6,0.4c-0.1,0.1-0.3,0.1-0.4,0c-0.3-0.1-0.4,0-0.4,0.3c0,0.2,0,0.6,0.4,0.5
		C535.9,172.3,536.8,172.2,537.8,172.5z M540.1,178.4c-0.1,0.7,0.2,1,0.9,0.8c0.4-0.1,0.7-0.1,1.1-0.2c0.3-0.1,0.6-0.2,1,0.1
		c0.2,0.1,0.5,0.3,0.6,0.1c0.2-0.2,0.2-0.6,0-0.8c-0.2-0.2-0.5-0.2-0.7,0.1c-0.2,0.2-0.4,0.4-0.7,0.4c-0.3,0-0.6,0-0.7-0.3
		c-0.1-0.3,0.3-0.3,0.4-0.4c0.3-0.1,0.5-0.4,0.3-0.6c-0.5-0.3-1.1,0-1.7,0.1C540,177.7,540,178,540.1,178.4z M603.7,178.4
		c-0.1,0.6,0.2,0.9,0.9,0.8c0.4-0.1,0.7-0.1,1.1-0.2c0.3-0.1,0.6-0.2,1,0c0.2,0.1,0.4,0.3,0.6,0c0.1-0.2,0.1-0.6-0.1-0.8
		c-0.2-0.2-0.4-0.1-0.6,0c-0.1,0.1-0.2,0.2-0.3,0.3c-0.4,0.2-0.8,0.3-1-0.1c-0.3-0.4,0.2-0.4,0.4-0.5c0.2-0.1,0.4-0.4,0.1-0.5
		c-0.6-0.3-1.1,0-1.7,0.1C603.6,177.7,603.6,178,603.7,178.4z M598.2,171.8c-0.1,0.6,0,0.9,0.8,0.7c0.6-0.2,1.3-0.3,2-0.1
		c0.6,0.2,1.1-0.1,1.7-0.3c0.2-0.1,0.3-0.2,0.3-0.4c0-0.2-0.2-0.3-0.4-0.2c-1.2,0.2-2.5-0.7-3.7,0.4
		C598.7,172,598.4,171.7,598.2,171.8z M567.4,188.7c0.5-0.4,0.7-1.1,0.7-2.2c0-0.7-0.6-0.6-1.1-1.1c0.2,0.6-0.2,1.1,0.4,1.4
		c0.2,0.1,0,0.2-0.1,0.3c-0.7,0.4-0.5,1-0.4,1.7c0.1,0.5,0.8,0.9,0.3,1.7C568.4,189.7,568.4,189.3,567.4,188.7z M503.6,185.1
		c0.2,0.5-0.4,1.2,0.3,1.7c0.1,0.1,0,0.2-0.1,0.3c-0.8,0.4-0.5,1-0.4,1.7c0.1,0.5,0.7,0.9,0.4,1.6c1.1-0.6,1.1-1,0.1-1.6
		C504.9,187.4,504.5,186.2,503.6,185.1z M602.2,162.5c-0.8-0.5-1.5-0.8-2.2-1.2c-0.2-0.1-0.5-0.2-0.6,0c-0.4,0.4-0.5,0.9-0.4,1.4
		c0.1,0.5,0.7,0.5,1.1,0.4C600.8,163,601.4,162.7,602.2,162.5z M538.6,162.5c-0.8-0.4-1.4-0.8-2-1.1c-0.2-0.1-0.5-0.3-0.7-0.1
		c-0.4,0.4-0.4,0.9-0.4,1.4c0,0.3,0.3,0.4,0.5,0.5C536.9,163.2,537.6,162.7,538.6,162.5z M600.4,147.9c0,0,0.2,0,0.4-0.1
		c0.4-0.1,0.8-0.2,0.8-0.7c0-0.4,0-0.7-0.4-0.8c-0.5-0.2-0.8-0.1-1,0.4c0,0.1-0.2,0.2-0.3,0.3c-0.2,0.2-0.6,0.2-0.4,0.6
		C599.5,147.9,599.9,147.9,600.4,147.9z M536.9,147.9c0,0,0.2,0,0.4-0.1c0.4-0.1,0.8-0.2,0.7-0.8c0-0.4-0.1-0.7-0.5-0.8
		c-0.5-0.2-0.8,0-0.9,0.4c0,0.1-0.2,0.2-0.3,0.3c-0.2,0.2-0.6,0.2-0.5,0.6C535.9,147.9,536.3,147.9,536.9,147.9z M504.9,173.6
		c0.1-0.4-0.1-0.7-0.6-0.7c-0.7,0-0.9,0.6-1,1.1c-0.1,0.5,0.2,0.7,0.7,0.7C504.7,174.7,504.9,174.3,504.9,173.6z M591.2,192.7
		c0.9,0.2,1.8,0.4,2.6,0c0.2-0.1,0.4-0.2,0.4-0.5c0-0.3-0.2-0.3-0.5-0.4C592.8,191.8,592,192.1,591.2,192.7z M568.4,173.8
		c0-0.4,0.1-0.8-0.6-0.8c-0.7,0-0.9,0.5-1,1.1c-0.1,0.5,0.2,0.7,0.7,0.7C568.2,174.7,568.5,174.4,568.4,173.8z M527.7,192.7
		c0.9,0.2,1.7,0.4,2.5,0c0.3-0.1,0.5-0.2,0.4-0.5c-0.1-0.3-0.3-0.3-0.5-0.3C529.2,191.8,528.5,192.1,527.7,192.7z M611.8,169.6
		c-0.7,0.4-1.3,0.4-1.9,0c-0.3-0.2-0.5-0.1-0.8,0.1c-0.1,0.1-0.2,0.2-0.1,0.4c0.1,0.4,0.4,0.2,0.7,0.3c0.3,0.1,0.7,0.1,1,0.2
		C611.2,170.6,611.7,170.5,611.8,169.6z M547.6,160.3c-1-0.1-1.7-0.8-2.8-0.3c1.8,0.3,1.8,0.3,1.1,1.3
		C547,162.1,547,160.8,547.6,160.3z M534.8,168.3c0.4-0.1,0.5,0.4,0.7,0.6c0.5,0.6,1.3,0.7,1.8,0.4c0.1-0.1,0.3-0.2,0.2-0.4
		c0-0.2-0.2-0.2-0.3-0.2C536.4,168.5,535.6,168.4,534.8,168.3z M548.1,169.6c-0.7,0.4-1.3,0.3-1.9-0.1c-0.3-0.2-0.7,0-0.8,0.3
		c-0.2,0.4,0.2,0.4,0.5,0.5c0.4,0,0.8,0.1,1.2,0.2C547.7,170.6,548.1,170.5,548.1,169.6z M542.6,187.1c-0.3,0.2-0.9,0.1-0.7,0.4
		c0.2,0.4-0.1,1.1,0.7,1.1c0.6,0,0.8-0.3,0.9-0.8C543.5,187.2,542.9,187.3,542.6,187.1z M504,180.1c0-0.2,0-0.4,0-0.5
		c-0.1-0.3,0.2-0.8-0.3-0.7c-0.4,0-0.7,0.3-0.6,0.9c0,0.2,0.1,0.3,0.1,0.5c0.2,0.4,0.4,0.8,0.5,1.2
		C504.3,181.1,503.9,180.6,504,180.1z M609.5,161.2c1.2,1,1.1-0.5,1.6-0.9c-1.7-0.7-2.1-0.7-2.5-0.3c0.4,0.1,1-0.2,1.3,0.3
		C610.1,160.8,609.5,160.9,609.5,161.2z M567.2,181.6c0.5-0.7,0.3-1.5,0.4-2.2c0-0.2,0-0.4-0.2-0.4c-0.2-0.1-0.4,0.1-0.5,0.2
		c-0.6,0.5-0.1,1.1,0.1,1.6C567.1,180.9,567.5,181.2,567.2,181.6z M606,172.4c0.1,0,0.2,0,0.3,0c0.3,0,0.5-0.1,0.6-0.3
		c0.1-0.2,0-0.4-0.2-0.5c-0.6-0.1-1.2-0.5-1.7,0.1c-0.2,0.2,0,0.4,0.1,0.5c0.1,0.1,0.2,0.2,0.4,0.2
		C605.7,172.4,605.8,172.4,606,172.4z M542.5,172.4c0.3,0.1,0.8,0.2,0.8-0.4c0-0.6-0.5-0.4-0.8-0.5c-0.2-0.1-0.4-0.1-0.6-0.1
		c-0.3,0-0.5,0.1-0.5,0.4c0,0.3,0.2,0.5,0.5,0.5C542.1,172.4,542.3,172.4,542.5,172.4z M601.5,158.7c-0.2,0-0.4,0-0.4,0.2
		c-0.1,0.3-0.2,0.6,0,0.9c0.3,0.4,0.6,0.8,1,0.9c0.2,0,0.5-0.2,0.2-0.4c-0.3-0.3-0.4-0.7-0.4-1.2
		C601.9,158.9,601.7,158.7,601.5,158.7z M598.9,168.4c0.4,0.9,1.2,1.3,1.9,0.9c0.2-0.1,0.3-0.2,0.3-0.5c0-0.2-0.2-0.2-0.4-0.2
		C600.1,168.6,599.5,168.3,598.9,168.4z M601.1,163.4c-0.4,0.1-1,0-1,0.6c-0.1,0.4,0.4,0.5,0.8,0.4c0.5,0,1-0.1,1.1-0.6
		C602.1,163.4,601.6,163.4,601.1,163.4z M537.4,159.5c0,0.5,0.4,0.9,0.9,1.1c0.2,0.1,0.3,0.1,0.5-0.1c0.1-0.1,0-0.3-0.1-0.4
		c-0.3-0.3-0.3-0.6-0.4-0.9c0-0.3-0.2-0.6-0.5-0.5C537.4,158.8,537.4,159.1,537.4,159.5z M606.1,187.2c-0.3,0.1-0.8,0.1-0.7,0.3
		c0.2,0.4-0.1,1.1,0.7,1.1c0.6,0,0.7-0.4,0.7-0.8C607,187.2,606.4,187.3,606.1,187.2z M537.6,163.4c-0.4,0-1,0-1.1,0.6
		c-0.1,0.4,0.4,0.5,0.8,0.4c0.4,0,1-0.1,1.1-0.6C538.5,163.4,538,163.4,537.6,163.4z M549,178.7c-0.5,0.1-0.9,0.2-1.3,0.2
		c-0.3,0.1-0.4,0.2-0.3,0.5c0,0.3,0.3,0.3,0.5,0.3c0.6,0,1.1,0,1.7,0C548.9,179.7,548.8,179.3,549,178.7z M534.6,124.1
		c0.3,0,0.5,0,0.8-0.1c0.2-0.1,0.5,0,0.4-0.3c0-0.3-0.3-0.2-0.5-0.3c-0.4-0.1-0.8-0.1-1.2-0.2c-0.3,0-0.5,0-0.6,0.3
		c-0.1,0.3,0.1,0.5,0.4,0.6C534.2,124.1,534.4,124.1,534.6,124.1z M598.2,124.1c0.3,0,0.6-0.1,0.8-0.1c0.2,0,0.5,0,0.4-0.3
		c0-0.2-0.2-0.2-0.4-0.2c-0.4-0.1-0.8-0.1-1.3-0.2c-0.3,0-0.5,0-0.5,0.3c-0.1,0.3,0.1,0.5,0.4,0.6
		C597.8,124.1,598,124.1,598.2,124.1z M613.2,179.7c-0.3-0.2-0.7-0.1-0.7-0.5c0-0.2,0.1-0.5-0.3-0.4c-0.4,0.1-1-0.1-1.2,0.4
		c-0.1,0.2,0,0.5,0.3,0.5C612,179.7,612.5,179.7,613.2,179.7z M599.3,157.6c0.3-0.2,0.8-0.2,1-0.7c0-0.1-0.1-0.5-0.3-0.4
		c-0.4,0.2-1,0.2-1.1,0.8C598.8,157.4,599.1,157.5,599.3,157.6z M535.7,157.5c0.3-0.2,0.9-0.2,1-0.8c0-0.2-0.1-0.4-0.3-0.3
		c-0.4,0.2-1,0.2-1.2,0.7C535.1,157.4,535.5,157.5,535.7,157.5z M528.8,196.1c-0.3,0-0.7,0.1-0.7,0.4c0,0.4,0.5,0.4,0.8,0.5
		c0.3,0,0.5-0.1,0.5-0.4C529.4,196.2,529.1,196.1,528.8,196.1z M613.5,167.4c0.3,0.3,0.5,0.8,1.1,0.7c0.1,0,0.6-0.4,0.3-0.8
		C614.4,166.8,614,167.7,613.5,167.4z M592.3,196.1c-0.2,0.1-0.6,0.1-0.6,0.4c0,0.4,0.5,0.5,0.8,0.5c0.3,0,0.5-0.1,0.5-0.5
		C593,196.2,592.7,196.1,592.3,196.1z M499.6,168.9c0,0-0.1,0-0.1,0c0,0.9,0,1.8,0,2.7c0,0,0.1,0,0.1,0
		C499.6,170.7,499.6,169.8,499.6,168.9z M615.2,165.8c0.2,0,0.5,0.1,0.4-0.3c-0.1-0.3-0.1-0.6-0.5-0.6c-0.3,0-0.7,0.2-0.7,0.5
		C614.4,165.9,614.9,165.7,615.2,165.8z M535.9,154.6c-0.2,0.1-0.7,0-0.6,0.3c0.1,0.5,0.7,0.2,1,0.4c0.2,0.1,0.5,0,0.5-0.2
		C536.7,154.7,536.2,154.7,535.9,154.6z M547.9,167.6c-0.2,0.1-0.6-0.1-0.6,0.2c0,0.5,0.5,0.4,0.8,0.4c0.2,0,0.6,0.1,0.6-0.3
		C548.6,167.5,548.2,167.7,547.9,167.6z M536.2,194.9c-0.2,0-0.5,0-0.5,0.4c0,0.3,0.3,0.5,0.6,0.4c0.3,0,0.6,0,0.5-0.4
		C536.9,195,536.6,194.9,536.2,194.9z M608.8,172c0.4,0.4,1,0.2,1.4,0.3c0.2,0.1,0.3-0.1,0.3-0.3c0.1-0.2,0-0.3-0.3-0.3
		C609.8,171.8,609.3,171.6,608.8,172z M600.5,195.4c-0.1-0.3-0.3-0.4-0.6-0.4c-0.3,0-0.6,0-0.6,0.4c0,0.3,0.3,0.5,0.6,0.4
		C600.2,195.7,600.5,195.8,600.5,195.4z M528.9,194.5c0.2-0.1,0.6,0.1,0.7-0.3c0-0.3-0.2-0.4-0.4-0.4c-0.3,0-0.7,0.1-0.7,0.5
		C528.4,194.6,528.7,194.5,528.9,194.5z M545.3,172c0.4,0.4,0.9,0.2,1.4,0.3c0.2,0.1,0.2-0.2,0.3-0.4c0-0.2-0.1-0.3-0.3-0.2
		C546.2,171.8,545.7,171.6,545.3,172z M592.5,194.5c0.2-0.1,0.6,0.1,0.7-0.3c0-0.3-0.2-0.4-0.4-0.4c-0.3,0-0.7,0.1-0.7,0.5
		C592,194.6,592.3,194.5,592.5,194.5z M599.4,154.7c-0.2,0.1-0.6-0.1-0.5,0.3c0.1,0.4,0.7,0.2,1,0.4c0.2,0.1,0.5,0,0.4-0.2
		C600.2,154.7,599.8,154.7,599.4,154.7z M607.2,165.7c-0.6,0-1,0.3-1.1,0.8c0,0.2-0.1,0.4,0.2,0.5c0.3,0.1,0.4-0.1,0.4-0.3
		C606.6,166.2,606.9,166,607.2,165.7z M543.7,165.7c-0.8-0.1-1,0.3-1.2,0.9c-0.1,0.2-0.1,0.4,0.2,0.5c0.3,0.1,0.4-0.2,0.4-0.3
		C543,166.2,543.3,166,543.7,165.7z M611,172.9c-0.4-0.1-0.9-0.2-1.3,0c-0.1,0-0.1,0.2,0,0.3c0.4,0.1,0.8,0.2,1.2-0.1
		C611,173.1,611,173,611,172.9z M601.1,192.1c-0.1,0.2-0.5,0.1-0.6,0.4c0,0.3,0.3,0.4,0.5,0.4c0.3,0,0.5-0.1,0.5-0.4
		C601.5,192.3,601.5,192.1,601.1,192.1z M504.5,191c0-0.3-0.2-0.3-0.4-0.3c-0.3,0-0.5,0.1-0.5,0.4c0,0.2,0,0.4,0.3,0.3
		C504.1,191.4,504.4,191.4,504.5,191z M547.4,172.9c-0.5,0-0.9-0.3-1.3,0c-0.1,0.1-0.1,0.2,0,0.3c0.4,0.1,0.8,0.2,1.2-0.1
		C547.3,173.1,547.3,173,547.4,172.9z M541.5,186.6c0.3,0.3,0.6,0.3,0.9,0.2c0.2,0,0.5,0,0.4-0.4c-0.1-0.4-0.3-0.2-0.5-0.2
		C542,186.4,541.8,186.5,541.5,186.6z M605.1,186.6c0.1,0.2,0.3,0.2,0.5,0.2c0.3,0,0.6,0,0.8-0.2c0-0.1,0-0.2,0-0.3
		c-0.3-0.3-0.5,0-0.8,0.1C605.4,186.4,605.3,186.5,605.1,186.6z M588.8,125.9c-0.2-0.2-0.2-0.6-0.6-0.5c-0.2,0-0.4,0.1-0.3,0.3
		c0,0.3,0.3,0.5,0.6,0.5C588.6,126.2,588.7,126.1,588.8,125.9z M536.9,192.5c0.3,0.3,0.5,0.6,0.9,0.4c0.2-0.1,0.2-0.4,0.1-0.5
		C537.4,191.9,537.2,192.4,536.9,192.5z M612.9,161.4c-0.5-0.1-0.9-0.1-1.2,0.2c-0.1,0.1,0,0.3,0.2,0.3
		C612.4,162.1,612.6,161.8,612.9,161.4z M524.5,125.4c-0.1,0-0.3,0-0.3,0.3c0.1,0.3,0.3,0.5,0.6,0.5c0.2,0,0.3-0.1,0.3-0.2
		C525.1,125.7,525,125.4,524.5,125.4z M614.4,163.6c0.4,0.6,0.8,0.7,1.3,0.5C615.4,163.8,615,163.6,614.4,163.6z M568,191
		c0-0.3-0.3-0.3-0.5-0.3c-0.4,0-0.4,0.2-0.4,0.5c0,0.2,0.1,0.3,0.3,0.2C567.7,191.3,568,191.3,568,191z M542.6,168.7
		c-0.2,0.1-0.3,0.3-0.3,0.4c0,0.2,0.1,0.4,0.4,0.4c0.2,0,0.5-0.2,0.5-0.4C543.1,168.8,542.8,168.7,542.6,168.7z M617.2,167.3
		c-0.4-0.1-0.8-0.3-1.3-0.2C616.6,167.8,616.6,167.8,617.2,167.3z M606.6,169.1c-0.1-0.2-0.2-0.3-0.4-0.4c-0.3-0.1-0.4,0.2-0.4,0.4
		c0,0.2,0.1,0.3,0.3,0.3C606.4,169.5,606.5,169.3,606.6,169.1z M552.3,173.1c-0.4-0.6-0.7-0.6-1.3-0.2
		C551.4,173.1,551.9,173.2,552.3,173.1z M605.7,165.2c-0.1-0.2-0.2-0.5-0.5-0.5c-0.2,0-0.4,0-0.4,0.2c0,0.3,0.2,0.5,0.5,0.5
		C605.5,165.5,605.7,165.5,605.7,165.2z M563,171.6C563.1,171.6,563.1,171.6,563,171.6c0.1-0.9,0.1-1.8,0.1-2.7c0,0-0.1,0-0.1,0
		C563,169.8,563,170.7,563,171.6z M542.1,165.2c-0.1-0.3-0.2-0.5-0.5-0.4c-0.2,0-0.3,0.1-0.3,0.3c0.1,0.3,0.3,0.4,0.6,0.4
		C542,165.5,542.1,165.4,542.1,165.2z M610.9,165.9c0-0.2-0.1-0.3-0.3-0.3c-0.2,0-0.5-0.1-0.5,0.2c0,0.2,0.2,0.2,0.3,0.2
		C610.6,166,610.8,166.1,610.9,165.9z M567.5,178c0-0.2-0.1-0.3-0.3-0.3c-0.2,0-0.2,0.2-0.2,0.3c0,0.1,0,0.2,0.2,0.2
		C567.4,178.2,567.5,178.2,567.5,178z M566.9,177.3c0.1,0,0.2-0.1,0.2-0.2c0-0.2-0.1-0.3-0.3-0.3c-0.2,0-0.2,0.1-0.2,0.2
		C566.6,177.1,566.8,177.2,566.9,177.3z"/>
	<path class="st0" d="M478.7,202.2c-2.8,0-5.6,0-8.4,0c-2.1,0-3.1-0.9-2.7-3c0.2-1,0-2,0.1-3c0.3-1.8,0.1-3.7,0.3-5.6
		c0.2-1.9,0.2-3.9,0.3-5.8c0.1-1.9,0.2-3.9,0.3-5.8c0.1-1.9,0.2-3.9,0.4-5.8c0.1-0.7-0.1-0.9-0.8-0.8c-5,0.4-9.9,1.4-14.7,3
		c-0.4,0.2-0.5,0.4-0.5,0.8c-0.1,4.1-0.1,8.3-0.2,12.4c-0.1,4.1-0.2,8.1-0.3,12.2c0,1.3-0.6,2-1.9,2.1c-2.3,0.1-4.6,0.1-6.9,0.2
		c-3.6,0.1-7.1,0.1-10.7,0.2c-2.2,0-2.9-0.8-2.8-2.9c0.4-5.9,0.9-11.7,1.3-17.6c0.4-4.9,0.7-9.8,1.1-14.6c0.4-5.9,0.9-11.7,1.3-17.6
		c0.4-4.9,0.7-9.8,1.1-14.6c0.1-1.3,0.2-2.7,0.3-4c0.1-1.6,0.8-2.2,2.4-2.2c1.7,0,3.4-0.1,5.1-0.1c3.2-0.1,6.5-0.1,9.7-0.2
		c2.1,0,2.9,0.8,2.7,2.9c-0.4,5.9-0.9,11.7-1.3,17.6c-0.2,2.2-0.3,4.3-0.5,6.5c0,0.4,0.1,0.5,0.5,0.5c1-0.1,2-0.1,3-0.1
		c0.5,0,1-0.1,1.4,0.4c0.2,0.3,0.5,0.1,0.6-0.3c0.1-0.2,0.3-0.1,0.4-0.1c3.2-0.1,6.4-0.3,9.6-0.4c0.5,0,0.7-0.2,0.7-0.7
		c0.2-5.9,0.4-11.7,0.6-17.6c0.3-8.9,0.6-17.8,0.9-26.6c0.1-1.7,0.1-3.4,0.2-5.1c0.1-1.8,0.7-2.5,2.5-2.5c5.2,0,10.5,0,15.7,0
		c1.9,0,2.7,0.9,2.6,2.8c-0.7,9.2-1,18.3-1.3,27.5c-0.2,5.9-0.4,11.8-0.5,17.7c-0.2,6.8-0.4,13.7-0.5,20.5c-0.1,3.1-0.1,6.2-0.2,9.3
		c-0.1,6.1-0.1,12.1-0.1,18.2c0,1.7-0.6,2.4-2.4,2.4C484.5,202.2,481.6,202.2,478.7,202.2z M443,133.6c0.5,0.3,1.1,0.5,1.6,0.4
		c1.5-0.5,3.1-0.1,4.6-0.1c1,0,2-0.2,2.9,0.3c0.1,0.1,0.4,0.1,0.5-0.1c0.1-0.3-0.1-0.3-0.3-0.4c-0.4-0.2-0.8-0.2-1.2-0.3
		c-1.6-0.3-3.3,0-4.9,0.1c-0.3,0-0.7,0.1-0.9-0.2c-0.3-0.4-0.7-0.3-1-0.1C443.9,133.4,443.5,133.5,443,133.6z M463,163.1
		c0.5,0.1,0.8,0.3,1.1,0.5c0.9,0.4,1.7,1,2.7,1c0.3,0,0.7,0.2,0.8-0.2c0.1-0.4-0.4-0.6-0.7-0.7c-0.2-0.1-0.5,0-0.8,0
		c-0.3,0-0.6,0-0.7-0.2c0.4-0.9,1.6,0.2,1.9-0.8C466,162.4,464.5,162.3,463,163.1z M443,174.3c-0.4,0.2-1.1,0-1.3,0.5
		c-0.1,0.3,0.3,1,0.8,1c0.5,0,1.1-0.3,1.2-1C443.8,174.5,443.5,174.3,443,174.3z M488.1,171.6c-0.2-0.4,0.3-1.1-0.4-1.1
		c-0.8,0-0.3,0.7-0.4,1.1c0,0.4-0.3,1.1,0.4,1.1C488.4,172.6,487.9,171.9,488.1,171.6z M483.6,188.3c0.1,0,0.1,0,0.2,0
		c0.3-0.1,0.7,0.2,0.9-0.2c0.1-0.1,0-0.2,0-0.3c-0.3-0.3-0.6-0.2-0.9-0.1c-0.2,0.1-0.5,0.2-0.5-0.3c0-0.4-0.3-0.3-0.5-0.3
		c-0.3,0-0.3,0.2-0.2,0.4C482.6,188.2,482.9,188.6,483.6,188.3z M469.5,160.8c-0.5,0.1-1,0.2-1.5,0c-0.3-0.1-0.7,0.3-0.9,0.5
		c-0.1,0.1-0.1,0.3,0,0.4c0.2,0.3,0.5,0.1,0.8,0.1C468.7,161.8,469.1,161.2,469.5,160.8z M472.3,197.9c-0.6,0.2-1,0.2-1.5,0.1
		c-0.5-0.1-0.6,0.4-0.7,0.8c-0.1,0.2,0.1,0.3,0.2,0.3C470.9,198.7,471.8,198.9,472.3,197.9z M441.3,134.8c-0.7-0.1-0.4-1.5-1.4-0.8
		c-0.3,0.2-0.3,0.8-0.1,1.1C440.2,135.5,440.7,135.1,441.3,134.8z M476.2,163.8c-0.6-0.3-1.1-0.2-1.6-0.3c-0.2-0.1-0.4,0-0.5,0.3
		c-0.1,0.3,0.2,0.4,0.4,0.4C475.1,164.2,475.6,164.1,476.2,163.8z M450.5,145.1c0.1-0.3-0.4-0.4-0.3-0.8c0.1-0.3-0.1-0.5-0.4-0.5
		c-0.3,0.1-0.6,0.1-0.7,0.5c-0.1,0.3,0.1,0.5,0.4,0.6C449.8,145,450.1,145.3,450.5,145.1z M482.8,194.2c0-0.2-0.1-0.4-0.2-0.3
		c-0.4,0.2-0.8,0.3-1.1,0.7c0.3,0.2,0.4,0.7,0.6,0.6C482.4,194.9,482.6,194.5,482.8,194.2z M477.6,189c0.5,0.7,1.2,0.3,1.7,0.2
		c0.2,0,0.2-0.3,0.1-0.4c-0.1-0.1-0.3-0.2-0.3-0.2C478.8,189.2,478.1,188.6,477.6,189z M472.8,200.8c0.2,0,0.6,0,0.6-0.2
		c0.1-0.4-0.4-0.2-0.5-0.3c-0.2-0.1-0.4-0.2-0.5-0.3c-0.2-0.1-0.4-0.3-0.6,0c-0.2,0.3,0,0.4,0.2,0.6
		C472.2,200.7,472.5,200.8,472.8,200.8z M443.2,190.6c0.3,0,0.7,0.1,0.7-0.3c0-0.5-0.5-0.4-0.9-0.5c-0.3,0-0.6,0.1-0.6,0.4
		C442.5,190.7,442.9,190.6,443.2,190.6z M445.4,187.4c-0.3-0.1-0.5-0.2-0.8-0.2c-0.3-0.1-0.6,0-0.8,0.3c0,0.1-0.1,0.2,0,0.2
		c0.3,0.2,0.6,0.3,0.9,0.2C444.9,187.9,445.2,187.7,445.4,187.4z M461.6,160.8c0-0.3-0.2-0.4-0.4-0.3c-0.3,0.1-0.8,0-0.8,0.5
		c0,0.3,0.2,0.6,0.4,0.6C461.2,161.5,461.5,161.2,461.6,160.8z M434.7,192.6c-0.2,0-0.5,0-0.4,0.2c0.2,0.4,0.6,0.4,1,0.5
		c0.2,0,0.6-0.1,0.5-0.3C435.5,192.6,435,192.7,434.7,192.6z M468.6,167c-0.6,0.1-1-0.3-1.5,0c-0.2,0.1,0,0.3,0.1,0.4
		C467.8,167.6,468.2,167.6,468.6,167z M482.8,200c-0.4-0.1-0.7-0.6-1.1-0.3c-0.2,0.1-0.2,0.4,0,0.5C482,200.5,482.4,200.1,482.8,200
		z M478.5,168.5c0.3,0,0.6,0.1,0.7-0.2c0-0.4-0.4-0.3-0.7-0.3c-0.3,0-0.7-0.2-0.7,0.2C477.7,168.6,478.2,168.3,478.5,168.5z
		 M448.4,185c-0.2,0-0.4,0.1-0.4,0.4c0,0.2,0,0.6,0.3,0.6c0.2,0,0.5-0.2,0.5-0.5C448.9,185.2,448.6,185.1,448.4,185z M470,167.3
		c0.4,0.1,0.7,0.4,1.1,0.1c0.1-0.1,0.1-0.3,0-0.4c-0.3-0.1-0.7-0.2-1.1,0.1C470,167.1,470,167.1,470,167.3z M448.2,174.4
		c0.2-0.1,0.6,0.1,0.6-0.4c0-0.2-0.2-0.2-0.4-0.2c-0.3,0-0.6,0.1-0.7,0.4C447.8,174.5,448,174.4,448.2,174.4z M482,191
		c-0.2-0.1-0.2-0.2-0.3-0.2c-0.3,0-0.6-0.3-0.9-0.1c-0.1,0.1-0.2,0.2-0.1,0.3c0.3,0.2,0.6,0.3,1,0.2
		C481.8,191.2,481.9,191.1,482,191z M461.6,158.2c-0.2-0.3-0.5-0.4-0.8-0.4c-0.1,0-0.3,0.1-0.2,0.3c0.2,0.3,0.5,0.4,0.8,0.4
		C461.5,158.5,461.6,158.3,461.6,158.2z M448.4,180.7c-0.7-0.4-0.9,0-1.3,0.5C447.7,181.2,448,181,448.4,180.7z M476.7,177.6
		c-0.1-0.2-0.4-0.3-0.6-0.4c-0.2,0-0.3,0-0.2,0.3c0.1,0.3,0.2,0.4,0.5,0.4C476.5,177.8,476.6,177.8,476.7,177.6z M479.1,186.7
		c0,0.4-0.1,0.7,0.3,0.9c0.1,0,0.3,0,0.3-0.2C479.7,187,479.5,186.8,479.1,186.7z"/>
	<path class="st0" d="M412.3,155.2c-2.6,0-5.3,0-7.9,0c-2.5,0-3.6-1.4-3-3.9c0.9-3.9,2.1-7.7,2.5-11.7c0.1-1,0.2-2.1-0.1-3.1
		c-0.3-1.4-1.4-2.3-2.9-2.2c-2.2,0.1-3.8,1.3-5.1,2.9c-2.4,2.8-3.9,6.2-5.1,9.6c-2.3,6.2-3.5,12.7-4,19.3
		c-0.4,5.5-0.1,10.9,1.2,16.2c0.3,1,0.6,1.9,1.1,2.8c1.6,3,4.6,4.2,7.8,3.2c2.3-0.7,4-2.1,5.6-3.9c2.9-3.5,5.1-7.5,7.3-11.4
		c0.2-0.4,0.4-0.8,0.7-1.2c0.9-1.4,2.8-1.7,3.9-0.5c2.6,2.8,5.1,5.7,7.6,8.6c0.8,0.9,0.8,2,0.3,3c-2.9,5.8-6,11.5-10.6,16.1
		c-4.6,4.6-9.8,8.2-16.3,9.1c-8.1,1.2-15.5-0.2-21.7-6c-3.5-3.3-5.7-7.3-7.4-11.7c-2-5.1-3-10.4-3.3-15.9
		c-0.5-9.8,0.6-19.3,3.9-28.5c3-8.6,7.7-16.2,14.1-22.7c4.6-4.7,10.3-7,16.8-7.5c4.6-0.4,9,0,13.3,1.7c7.3,2.8,11.5,8.3,13.5,15.8
		c1.4,5.2,0.9,10.4,0.1,15.6c-0.2,1.4-0.6,2.8-0.9,4.2c-0.4,1.7-1,2.1-2.7,2.1C417.9,155.2,415.1,155.2,412.3,155.2z M412.9,139.1
		c0.6-0.3,1.3-0.5,1.9-0.8c0.3-0.2,0.2-0.5,0-0.7c-0.4-0.5-1-0.9-1.6-0.7c-0.6,0.2-0.9,0.8-1,1.5
		C412.2,138.8,412.4,139.1,412.9,139.1z M379.4,143.9c0.1-1.4-0.4-2.2-1.3-2.8c-0.1-0.1-0.1-0.4-0.3-0.3c-0.2,0.1-0.4,0.3-0.4,0.5
		c0,0.2,0.1,0.4,0.3,0.4c1.4,0.2,0.9,0.9,0.4,1.6c-0.1,0.1-0.1,0.2-0.1,0.3c-0.1,0.4-0.1,0.7,0.4,0.6c0.2,0,0.4,0,0.5,0
		C379.4,144.5,379.3,144,379.4,143.9z M410.2,118.4c-0.3-0.2-0.4-0.3-0.5-0.3c-0.4,0-0.9-0.4-1,0.2c-0.2,1-0.9,1.2-1.6,1.4
		c-0.5,0.1-1.1,0.4-1.1-0.5c0-0.3-0.3-0.3-0.5-0.2c-0.6,0.2-0.9,0.4-0.4,1.1c0.3,0.5,0.8,0.7,1.3,0.8c0.4,0.1,0.2-0.4,0.3-0.7
		c0.1-0.3,0.4-0.4,0.7-0.3C408.4,119.8,408.9,118.6,410.2,118.4z M409.2,139.7c0.5-0.1,1-0.3,1.4-0.6c0.3-0.2,0.3-0.4,0.1-0.6
		c-0.2-0.2-0.4-0.8-0.9-0.4c-0.3,0.3-0.7,0.4-1.1,0.5c-0.3,0.1-0.8-0.1-0.8,0.5c0,0.5,0.5,0.4,0.9,0.5
		C408.9,139.6,409.1,139.6,409.2,139.7z M415.2,139.9c-0.7,0.2-1.3,0.3-1.8-0.3c-0.1-0.1-0.3-0.1-0.4,0c-0.3,0.4-0.6,0.8-0.3,1.2
		c0.2,0.3,1.5,0.7,1.7,0.5c0.1-0.1,0.2-0.2,0.2-0.3C414.1,140.5,414.8,140.3,415.2,139.9z M377.6,149.8c0-0.1,0.1-0.2,0.1-0.3
		c-0.4-0.4-0.8-0.8-1.3-1.1c-0.4-0.3-0.9-0.5-0.8,0.4c0,0.3,0,0.5-0.4,0.4c-0.3-0.1-0.5,0-0.6,0.2c0,0,0.1,0.2,0.1,0.3
		c0.2,0.3,0.5,0.2,0.7,0.1C376.1,149.3,376.8,149.1,377.6,149.8z M407.8,118.1c-0.2-0.2-2-0.7-2.2-0.6c-0.2,0-0.4,0.2-0.4,0.4
		c-0.1,0.3,0.1,0.3,0.3,0.4c0.3,0.2,0.6,0.3,1,0.2C406.9,118.3,407.3,118.2,407.8,118.1z M403.7,130.2c0.3,0.1-0.3,0.7,0.4,0.8
		c0.6,0,0.7-0.4,0.6-0.8c0-0.4,0.2-0.8-0.5-0.8C403.5,129.4,403.8,129.8,403.7,130.2z M409.4,134.7c-0.2,0.6-0.1,0.8,0.2,0.9
		c0.3,0.1,0.3-0.3,0.5-0.5c0.2-0.3,0.4-0.6,0.1-0.9c-0.1-0.2-0.4-0.3-0.6-0.2C409.2,134.2,409.5,134.7,409.4,134.7z M364.4,167.6
		c0-0.3,0.1-0.7-0.4-0.7c-0.7,0-0.4,0.6-0.5,0.9c-0.1,0.2,0.1,0.7,0.4,0.7C364.3,168.5,364.5,168.1,364.4,167.6z M375.9,145.5
		c0.5,0.2,0.6,0,0.7-0.3c0.1-0.4-0.3-0.3-0.5-0.3c-0.3,0-0.6,0-1,0c-0.2,0-0.4,0-0.5,0.2c0,0.3,0.2,0.3,0.4,0.3
		C375.5,145.4,375.8,145.5,375.9,145.5z M366.7,183.6c-0.4,0-0.9,0-1,0.6c0,0.3,0.3,0.4,0.5,0.4c0.5,0,0.9-0.3,1.1-0.7
		C367.4,183.5,366.9,183.6,366.7,183.6z M372,157.7c0.1,0.9,1,0.5,1.4,0.8c0.1,0.1,0.3,0.1,0.4-0.1c0-0.2,0-0.3-0.2-0.4
		C373.1,157.6,372.6,157.6,372,157.7z M374.2,148c0-0.4-0.3-0.6-0.7-0.6c-0.2,0-0.5-0.1-0.5,0.2c0,0.4,0.2,0.8,0.6,0.9
		C374,148.7,374.1,148.3,374.2,148z M398,131.3c-1-0.3-0.8,0.7-1.2,1.1c-0.1,0.1,0,0.3,0.2,0.3c0.6,0,0.6-0.5,0.8-0.8
		C397.9,131.6,397.9,131.5,398,131.3z M378.4,150.1c-0.2,0.4-0.4,0.7-0.3,1.1c0,0.2,0.1,0.5,0.4,0.5c0.3,0,0.3-0.4,0.3-0.6
		C378.8,150.8,378.7,150.4,378.4,150.1z M395.6,120c0,0-0.4-0.1-0.3,0.2c0.1,0.4,0.5,0.5,0.8,0.7c0.2,0.1,0.4-0.2,0.4-0.3
		C396.3,120.3,396.3,119.8,395.6,120z M414.1,135.2c-0.5,0.1-1-0.3-1.4,0.2c-0.1,0.1,0,0.3,0.2,0.3
		C413.3,135.8,413.9,136.2,414.1,135.2z M401.3,204.4c0.6-0.6,0.9-1.1,0.7-1.7C401.7,203.2,401.4,203.7,401.3,204.4z M391.2,118.9
		c0.3,0.2,0.3,0.8,0.9,0.6c0.2-0.1,0.2-0.3,0.1-0.4C392,118.6,391.6,119,391.2,118.9z M373.9,153.1c0.3-0.1,0.8,0.2,0.8-0.3
		c0-0.2,0-0.4-0.2-0.5C373.9,152.3,374.1,152.8,373.9,153.1z M370.3,153.6c0.2-0.1,0.5-0.2,0.6-0.5c0-0.2-0.2-0.3-0.4-0.3
		c-0.3,0-0.6,0.2-0.6,0.5C369.8,153.5,370.1,153.5,370.3,153.6z M412.5,174.2c0.2-0.1,0.3-0.3,0.3-0.5c0-0.3-0.3-0.4-0.5-0.4
		c-0.3,0-0.2,0.2-0.2,0.4C412.2,173.9,412.2,174.1,412.5,174.2z M378.5,159.9c-0.6,0.7-0.3,1.4,0,2.1
		C378.6,161.3,378.6,160.6,378.5,159.9z M372.5,155.4c0.2,0,0.4-0.1,0.4-0.4c0-0.2-0.2-0.3-0.4-0.3c-0.2,0-0.4,0-0.4,0.3
		C372.1,155.2,372.2,155.4,372.5,155.4z M395.9,121.7c-0.1-0.1-0.1-0.4-0.4-0.4c-0.2,0-0.4,0.1-0.4,0.3c0,0.3,0.4,0.2,0.5,0.3
		C395.7,122,395.9,122,395.9,121.7z M374.9,143.4c-0.2,0-0.3,0.1-0.2,0.3c0,0.3,0.3,0.4,0.5,0.5c0.2,0,0.3-0.1,0.3-0.3
		C375.4,143.6,375.2,143.5,374.9,143.4z"/>
	<path class="st0" d="M371.1,1.4c7.2,0.1,14.5,0.3,21.7,0.4c3.6,0.1,7.2,0.1,10.9,0.1c7.5,0,15,0,22.5,0c5.4,0,10.7,0.1,16.1,0.1
		c2.1,0,3.2,1.3,3,3.4c-0.6,5.4-1.2,10.8-1.7,16.1c-0.2,1.8-1,2.7-2.9,2.9c-5,0.4-10,0.7-15,1.1c-6.1,0.4-12.2,0.9-18.3,1.3
		c-1,0.1-1.9,0.2-2.9,0.2c-0.5,0-0.6,0.2-0.7,0.6c-0.8,3.6-1.5,7.3-2,10.9c0,0.3,0,0.6-0.4,0.8c-0.3,0.1-0.3,0.5-0.1,0.7
		c0.4,0.4,0.2,0.8,0.2,1.2c-1,6.4-1.6,12.9-2.2,19.4c-0.5,5.2-0.7,10.5-0.8,15.7c-0.2,7.6-0.4,15.3-0.6,22.9c0,1.2-0.1,2.5-0.1,3.7
		c-0.1,1.6-1,2.5-2.7,2.5c-4.5,0-9,0.1-13.6,0.1c-2.6,0-3.7-1.3-3.5-3.9c0.4-4.4,0.6-8.7,0.9-13.1c0.4-6.1,0.9-12.3,1.3-18.4
		c0.3-4.3,0.7-8.6,1.1-12.9c0.5-5,1.1-9.9,1.7-14.8c0.7-5.7,1.4-11.3,2.2-17c0.1-0.8-0.2-0.8-0.8-0.8c-5.8,0.6-11.6,1.1-17.4,1.7
		c-0.3,0-0.5,0.1-0.8,0.1c-1.8,0.3-3.4-1-3.3-2.9c0.1-2.1,0.3-4.1,0.4-6.2c0.3-4.3,0.7-8.5,1-12.8c0.2-2.5,1.1-3.3,3.6-3.3
		C368.9,1.3,370,1.3,371.1,1.4C371.1,1.3,371.1,1.4,371.1,1.4z M371.2,19.4c0.5-0.1,1-0.4,0.9-1c-0.1-0.4-1.2-0.8-1.6-0.7
		c-0.4,0.2-0.5,0.5-0.6,0.9c0,0.5,0.3,0.5,0.6,0.5C370.8,19.2,371.1,19.1,371.2,19.4c-0.1,0.2-0.2,0.1-0.4,0.1
		c-0.4-0.1-0.5,0.2-0.3,0.4c0.4,0.2,0.8,0.1,1.2-0.1C371.6,19.5,371.2,19.8,371.2,19.4z M379.8,23.4c0.5,0.1,0.8,0,1-0.2
		c0.2-0.2,0.4-0.5,0.1-0.6c-0.7-0.2-1.5-0.5-2.3-0.3c-0.2,0.1-0.5,0.3-0.5,0.5c0,0.4,0.4,0.2,0.6,0.3
		C379.1,23.2,379.5,23.3,379.8,23.4z M396.3,46.5c-0.2-0.1-0.4-0.2-0.6-0.2c-0.6-0.2-0.9,0.3-1.3,0.5c-0.1,0-0.2,0.2,0,0.3
		c0.3,0.3,0.7,0.4,1.1,0.2c0.4-0.1,1.2,0.5,1.1-0.5c0.3,0,0.7,0,1.1,0c-0.2-0.5-0.5-0.8-1-1.1C396.6,46,396.5,46.2,396.3,46.5z
		 M399.6,39.8c0,0-0.1-0.1-0.1-0.1c-0.4-0.1-0.9-0.1-1.3-0.2c-0.3,0-0.6,0-0.7,0.4c-0.1,0.3,0.1,0.5,0.4,0.7
		C398.5,40.9,399.1,40.6,399.6,39.8z M375.5,20.8c-0.5,0-0.7,0.4-0.7,0.8c0,0.5,0.5,0.6,0.9,0.6c0.4,0,0.8-0.2,0.7-0.7
		C376.4,20.7,375.8,21,375.5,20.8z M386.4,94.6c-0.1,0.3-0.1,0.6-0.2,0.9c-0.1,0.3-0.1,0.6,0.4,0.5c0.3,0,0.6,0.2,0.8-0.1
		c0.2-0.3-0.1-0.6-0.3-0.8C386.9,94.9,386.7,94.7,386.4,94.6z M399.7,26.4c-0.2,0.4-0.4,1-0.3,1.3c0.2,0.3,0.8,0.2,1.2,0.1
		C400.6,27.1,400.2,26.7,399.7,26.4z M378.8,17.9c-0.3-0.1-0.4,0.1-0.4,0.4c0,0.4,0.1,0.6,0.5,0.5c0.3,0,0.7,0,0.6-0.5
		C379.6,17.8,379.2,18,378.8,17.9z M387,84c-0.2,0-0.5-0.2-0.5,0.2c0,0.3,0,0.7,0.5,0.8c0.4,0,0.9-0.1,0.8-0.6
		C387.8,83.9,387.2,84.2,387,84z M395.2,5c0.1-0.2,0.1-0.4-0.1-0.4c-0.3,0-0.5,0.3-0.5,0.6c0,0.3,0.1,0.9,0.5,0.8
		C396,5.9,395,5.3,395.2,5z M407.9,5.5c0.4,0,0.7-0.1,0.7-0.5c0-0.6-0.6-0.4-0.9-0.5c-0.4-0.1-0.3,0.3-0.3,0.5
		C407.3,5.5,407.6,5.6,407.9,5.5z M399.7,17.2c0.1,0.2,0.2,0.3,0.2,0.4c0.1,0.3,0.3,0.5,0.7,0.4c0.2-0.1,0.5-0.2,0.4-0.4
		c-0.1-0.4-0.5-0.3-0.8-0.3C400.1,17.2,400,17.2,399.7,17.2z M382.3,72.5c-0.4-0.3-0.6-0.5-0.4-1c0-0.1-0.1-0.2-0.3-0.1
		c-0.3,0.2-0.4,0.5-0.3,0.8c0.1,0.3,0.2,0.6,0.5,0.6C382,72.8,382.1,72.7,382.3,72.5z M405.6,4.6c0.5,0.3,0.7,0.7,1.2,0.6
		c0.2-0.1,0.3-0.5,0.1-0.6C406.5,4.3,406.1,4.5,405.6,4.6z M384.9,17.3c0.2,0,0.4,0,0.4-0.2c0-0.3-0.2-0.3-0.4-0.3
		c-0.2,0-0.3,0.1-0.3,0.3C384.6,17.2,384.7,17.3,384.9,17.3z M381,21.6c0.1,0.3,0.1,0.7,0.6,0.6c0.1,0,0.3-0.4,0.3-0.5
		C381.6,21.3,381.3,21.6,381,21.6z"/>
	<path class="st0" d="M319.9,62.8c0.4-2.3,0.7-4.4,1-6.5c1.3-8.3,2.6-16.6,4-24.9c0.9-6,1.9-12,2.8-18c0.3-1.7,1.5-2.6,3.1-2.1
		c5.1,1.4,10.3,2.8,15.4,4.2c0.5,0.1,0.5,0.4,0.6,0.8c0.2,2-0.3,3.9-0.6,5.8c-1,6.8-2,13.5-3.1,20.3c-1.1,7.1-2.2,14.2-3.2,21.4
		c-1.1,7.5-2.3,15-3.4,22.5c-0.1,0.5,0,1-0.7,1.3c-0.4,0.1-0.3,0.6-0.5,1c-0.2,0.6,0.3,0.5,0.6,0.6c0.3,0.1,0.1,0.3,0.1,0.5
		c-1,6.2-2,12.4-3,18.5c-0.2,1.3-0.9,2-2.2,2.1c-4.5,0.6-9,1.1-13.4,1.7c-1.7,0.2-2.5-0.3-3-1.8c-5.5-16-10.9-32-16.4-48
		c-2-6-3.9-12-5.9-17.9c0.1-0.2,0.3-0.2,0.4-0.2c0.2,0,0.5,0,0.5-0.3c0-0.3-0.2-0.4-0.5-0.3c-0.6,0.2-0.7-0.2-0.8-0.6
		c-2.2-6.7-4.5-13.5-6.7-20.2c-0.3-0.8-0.3-1.7,0-2.5c0.4-1,1.2-1.4,2.2-1.5c2.8-0.4,5.7-0.7,8.5-1.1c1.6-0.2,3.3-0.4,4.9-0.6
		c1.9-0.3,2.7,0.2,3.4,2c1,2.8,2,5.7,3.1,8.5c0.1,0.3,0.5,0.7-0.2,0.8c-0.2,0-0.2,0.3-0.1,0.4c0.1,0.2,0.2,0.2,0.4,0.2
		c0.7,0,0.8,0.3,0.5,0.8c0,0.1-0.2,0-0.1,0.2c1.5,1.7,1.7,3.9,2.5,5.9c3.2,8.8,6.3,17.6,9.5,26.4C319.7,62.3,319.8,62.5,319.9,62.8z
		 M299.7,31.6c-1-0.1-1.9,0.2-2.8,0.5c-0.2,0.1-0.6,0.3-0.2,0.5c0.5,0.2,1.2,0.5,1.6,0.3c0.9-0.7,2-0.6,3-0.9c0.2-0.1,0.5,0,0.4-0.3
		c-0.1-0.2-0.3-0.4-0.5-0.2C300.6,31.8,300.1,31.6,299.7,31.6z M304.1,30.5c0-0.2-0.1-0.3-0.2-0.3c-0.6,0.1-0.9-0.1-0.9-0.7
		c0-0.1-0.1-0.2-0.3-0.2c-0.2,0.1-0.3,0.1-0.4,0.3c-0.1,0.1,0,0.2,0.1,0.3c0.5,0.1,0.4,0.5,0.4,0.8c0.1,0.2,0,0.6,0.3,0.5
		C303.5,30.9,303.9,30.8,304.1,30.5z M328.5,87.3c-0.3,0.1-0.7,0.1-0.7,0.5c0.1,0.5,0.4,0.8,0.9,0.8c0.2,0,0.6-0.1,0.5-0.5
		C329.2,87.6,328.8,87.4,328.5,87.3z M301.9,33.4c0-0.5-0.3-0.4-0.5-0.4c-0.4,0.1-0.9-0.1-1,0.5c0,0.4,0.3,0.6,0.6,0.5
		C301.4,34,301.8,33.9,301.9,33.4z M293.3,30.1c-0.5-0.2-1-0.2-1.5,0c-0.2,0.1-0.4,0.2-0.1,0.5C292.5,31.2,292.8,30.5,293.3,30.1z
		 M298.6,38.9c0.6,0.1,1.1,0,1.7-0.2c-0.5-0.1-0.2-0.9-0.9-0.7C299,38,298.6,38.3,298.6,38.9z M329.2,72.2c-0.8-0.2-1.3,0.1-1.9,0.2
		c-0.2,0-0.4,0-0.3,0.3c0,0.2,0.2,0.3,0.4,0.3C328,72.9,328.5,72.6,329.2,72.2z M296.3,31.1c0.4,0,0.4-0.7,0.9-0.6
		c0.1,0,0.3-0.2,0.3-0.3c0-0.2-0.2-0.2-0.4-0.3c-0.5-0.2-0.8,0.1-1,0.5C295.9,30.7,295.9,31,296.3,31.1z M307.7,39.9
		c-0.1,0.6-0.1,1,0.5,1.2c0.4,0.1,0.6-0.4,0.6-0.5C308.6,40,308.1,40.1,307.7,39.9z M334.3,73.5c-0.3-0.1-0.6,0-0.6,0.3
		c0,0.4,0.3,0.5,0.7,0.5c0.3,0,0.5-0.1,0.6-0.4C335,73.5,334.6,73.5,334.3,73.5z M305.5,44.9c0.3-0.1,0.6,0,0.6-0.5
		c0-0.3-0.1-0.4-0.4-0.4c-0.4,0-0.6,0.2-0.7,0.5C304.9,44.7,305.2,44.8,305.5,44.9z M335.3,82.7c-0.4,0-0.5,0.3-0.5,0.6
		c0,0.2,0.2,0.5,0.4,0.4c0.3-0.1,0.7-0.2,0.6-0.6C335.9,82.8,335.5,82.8,335.3,82.7z M324.8,84.7c-0.3,0.1-0.7,0.2-0.7,0.5
		c0,0.3,0.3,0.4,0.6,0.3c0.3-0.1,0.6-0.1,0.5-0.5C325.1,84.9,325.1,84.6,324.8,84.7z M301.9,44.8c0-0.3-0.2-0.4-0.4-0.3
		c-0.3,0-0.6,0.1-0.6,0.5c0,0.2,0.2,0.3,0.4,0.3C301.6,45.3,301.8,45.2,301.9,44.8z M299.5,41c-0.2,0-0.6,0-0.6,0.3
		c0,0.4,0.3,0.3,0.6,0.3c0.3,0,0.6,0,0.6-0.3C300.1,41,299.7,41.1,299.5,41z M298.1,37c-0.4,0-0.8-0.2-1,0.1c-0.1,0.1,0,0.4,0.2,0.5
		C297.8,37.8,297.8,37.3,298.1,37z M318,97.3c0-0.1,0-0.3-0.2-0.3c-0.3,0-0.5,0.3-0.7,0.5c-0.1,0.2,0,0.3,0.2,0.3
		C317.7,97.8,317.9,97.6,318,97.3z"/>
	<path class="st0" d="M344.6,155c-2.3,0-4.5,0-6.8,0c-1.9,0-2.6-0.7-2.6-2.6c0-2.5-0.1-5.1-0.3-7.6c-0.1-1.1-0.1-2.4-1.4-2.8
		c-1.5-0.5-3.1-0.3-4.1,1c-2.8,3.7-3.6,8.8,0.2,12.8c2.5,2.6,5.6,4.5,8.7,6.3c3.5,2.1,6.8,4.5,9.5,7.6c4.4,5,6.7,10.8,5.8,17.4
		c-1.1,7.7-4.3,14.5-11.5,18.4c-3.6,1.9-7.5,2.7-11.5,3.1c-8.9,0.9-17-1.5-24.8-5.5c-1.3-0.7-2.6-1.3-3.9-2c-1.4-0.8-1.8-1.8-1-3.3
		c1.8-3.6,3.5-7.1,5.3-10.6c0.7-1.4,2-1.8,3.4-1c0.5,0.3,1.1,0.6,1.6,0.9c3.6,2.5,7.7,4,11.9,5.2c1.2,0.3,2.5,0.4,3.7,0.2
		c3.3-0.5,5.1-3.1,4.6-6.5c-0.4-2.5-1.6-4.4-3.6-5.8c-3.3-2.5-7-4.5-10.5-6.7c-3-1.9-5.7-4.1-8.2-6.6c-2.6-2.7-3.6-6.2-4.1-9.9
		c-1-8.3,1.4-15.6,6.5-22.1c2.9-3.7,6.8-6.2,11.4-7.4c6.2-1.7,12.4-2.1,18.7-0.6c4.1,1,7.5,3,9.9,6.5c1.6,2.4,2.2,5.2,2.5,8.1
		c0.4,3.8,0.2,7.6,0,11.5c-0.1,1.4-0.9,2.1-2.4,2.1C349.3,155,347,155,344.6,155z M342.7,192.1c0.2,0.2,0,0.3-0.1,0.4
		c-0.1,0.5,0.3,0.4,0.6,0.4c0.3,0,0.7,0.1,0.7-0.4c0-0.4-0.2-0.4-0.6-0.5C343.1,192.1,342.9,192.3,342.7,192.1
		c0.1-0.4,0.6-0.4,0.9-0.7c0.1-0.1,0.2-0.3,0.2-0.5c0-0.2-0.2-0.2-0.4-0.2c-0.8-0.1-1.4,0.2-2.1,0.6c-0.2,0.1-0.3,0.3-0.3,0.6
		c0.1,0.2,0.3,0.2,0.5,0.3C341.9,192.2,342.3,192.1,342.7,192.1z M341.7,188.8c-0.1,0-0.3-0.1-0.4,0.2c0,0.3,0.2,0.6,0.4,0.7
		c0.9,0.2,1.8,0.4,2.8,0.4c0.6,0,0.6-0.5,0.4-0.8c-0.3-0.4-0.5-1-1.2-0.4C343.1,189.4,342.4,188.8,341.7,188.8z M339,170.6
		c-0.9,0-1.3-0.4-1.1-1.2c0-0.3-0.1-0.3-0.4-0.4c-0.3,0-0.4,0.1-0.5,0.4c-0.3,0.9,0.6,1.2,1,1.7C338.2,171.4,338.7,170.9,339,170.6z
		 M347.6,192.4c-0.2-0.4-0.5-0.8-1-0.8c-0.4,0-0.5,0.4-0.5,0.8c0.1,0.3,0.2,0.8,0.5,0.7C347,193.1,347.6,193.1,347.6,192.4z
		 M345.3,185.4c-0.3,0.1-0.6,0.2-1,0.3c-0.2,0-0.5,0-0.6,0.3c0,0.3,0.2,0.4,0.5,0.5c0.6,0.2,1-0.1,1.3-0.5
		C345.7,185.7,345.7,185.4,345.3,185.4z M346.3,180.4c-0.4-0.1-0.7,0.1-0.7,0.5c0,0.5,0.4,0.6,0.8,0.6c0.4,0,0.7-0.1,0.7-0.6
		C347.2,180.5,346.8,180.4,346.3,180.4z M343.2,184.8c0.3,0,0.7,0,0.6-0.4c-0.1-0.4-0.5-0.6-0.9-0.7c-0.4,0-0.4,0.4-0.4,0.6
		C342.5,184.9,342.9,184.8,343.2,184.8z M347.9,189.1c-0.1-0.2-0.4-0.2-0.5-0.1c-0.3,0.4-0.7,0.7-0.9,1.1c-0.1,0.1,0,0.3,0.2,0.4
		c0.1,0,0.3,0,0.3-0.2c-0.1-0.5,0.1-0.7,0.6-0.7C347.7,189.6,347.8,189.3,347.9,189.1z M339.3,197.6c-0.5,0.3-0.9-0.5-1.3,0.2
		c-0.1,0.1-0.2,0.3,0.1,0.4C338.5,198.3,338.9,198.3,339.3,197.6z M342.5,176.3c-0.2-0.2-0.3-0.4-0.5-0.4c-0.3,0-0.5,0.2-0.5,0.5
		c0,0.4,0.3,0.2,0.4,0.2C342.1,176.5,342.4,176.5,342.5,176.3z M348.6,184.6c-0.9-0.5-0.9-0.4-1,0.6
		C348,185,348.3,184.8,348.6,184.6z M333.1,169.4c-0.1,0.1-0.4-0.1-0.4,0.2c0,0.4,0.3,0.2,0.5,0.2c0.2,0,0.5,0.1,0.5-0.2
		C333.7,169.3,333.3,169.4,333.1,169.4z M341.3,194.4c-0.1-0.1-0.1-0.3-0.3-0.3c-0.2,0-0.2,0.3-0.3,0.5c0,0.1,0,0.2,0.2,0.2
		C341.1,194.8,341.3,194.7,341.3,194.4z"/>
	<path class="st0" d="M647,146.1c-0.2,4.5-0.4,9-0.7,13.4c-0.2,4.5-0.5,9.1-0.7,13.6c-0.1,1.2-0.1,2.4-0.2,3.6c0,0.4,0,0.6,0.5,0.6
		c4.6-0.1,9.1-0.1,13.7-0.2c2.4,0,4.9-0.1,7.3-0.1c1.8,0,3.6-0.1,5.4-0.1c1.7,0,2.6,0.9,2.6,2.7c-0.1,5.7-0.2,11.3-0.3,17
		c0,1.5-0.8,2.2-2.3,2.3c-5.2,0.2-10.3,0.5-15.5,0.7c-7.9,0.4-15.7,0.8-23.6,1.2c-1.9,0.1-3.9,0.2-5.8,0.3c-2,0.1-3.1-0.9-3-3
		c0.3-6.6,0.6-13.1,1-19.7c0.4-9.3,0.9-18.7,1.3-28c0.3-7.4,0.7-14.7,1-22.1c0.1-2.5,0.2-4.9,0.4-7.4c0.1-1.8,0.8-2.5,2.6-2.4
		c5.1,0.1,10.1,0.2,15.2,0.3c1.5,0,2.5,1.2,2.4,2.8c-0.1,2.7-0.3,5.3-0.4,8c-0.3,5.1-0.5,10.2-0.8,15.3c0,0.2,0.2,0.6-0.3,0.5
		c-0.3-0.1-0.7-0.2-0.7,0.3C646.2,146.4,646.6,146.1,647,146.1z M633.6,174.2c0.8,0,1.8-0.7,1.7-1.2c-0.2-0.6-0.8-0.7-1.3-0.8
		c-0.6-0.1-1.3,0.6-1.3,1.3C632.7,174.1,633.1,174.2,633.6,174.2z M651.1,190c0.1,0,0.3-0.1,0.5-0.1c0.3-0.1,0.7-0.2,0.6-0.6
		c-0.1-0.4-0.4-0.7-0.8-0.7c-0.5,0-1.3,0-1.4,0.7C649.9,189.9,650.4,190,651.1,190z M652.9,194.5c0.3-0.1,0.9,0.2,1-0.3
		c0-0.4-0.5-0.6-0.9-0.6c-0.4,0-0.8,0.2-0.8,0.6C652.2,194.8,652.7,194.4,652.9,194.5z M653.3,184.9c-0.3,0-0.6,0-0.6,0.4
		c0,0.3,0.3,0.3,0.6,0.3c0.3,0,0.6,0,0.6-0.4C653.9,184.9,653.6,184.9,653.3,184.9z M632,192.4c0.6,0.1,1,0.4,1.5,0
		c0.1-0.1,0.1-0.2,0-0.3C632.9,191.9,632.5,191.9,632,192.4z M641,193.1c-0.4,0-0.6,0.1-0.6,0.4c0,0.3,0.2,0.4,0.4,0.4
		c0.2,0,0.5-0.1,0.5-0.5C641.4,193,641.1,193.1,641,193.1z M643.3,150.4c-0.4-0.1-0.7-0.3-1,0c-0.1,0.1-0.1,0.3,0.1,0.4
		C642.7,150.8,643,150.8,643.3,150.4z M639.4,188.5c-0.2,0-0.2,0.2-0.2,0.4c0,0.2-0.1,0.5,0.3,0.5c0.3,0,0.3-0.2,0.3-0.5
		C639.8,188.7,639.7,188.6,639.4,188.5z M637.2,187.7c0-0.3-0.3-0.4-0.5-0.4c-0.2,0-0.4,0.1-0.4,0.4c0,0.3,0.2,0.4,0.5,0.4
		C637,188,637.2,188,637.2,187.7z"/>
	<path class="st0" d="M435.7,103.3c0-3.4,0-6.9,0-10.3c0-0.7-0.1-1-0.9-0.9c-3.5,0.5-7,0.9-10.5,1.4c-0.5,0.1-0.7,0.2-0.8,0.7
		c-0.7,3.4-1.4,6.7-2.1,10.1c-0.3,1.4-0.8,1.8-2.2,1.8c-4.5-0.2-9-0.5-13.4-0.7c-1.3-0.1-2-1.2-1.6-2.6c0.9-2.8,1.7-5.6,2.6-8.4
		c3.1-9.7,6.2-19.5,9.8-29.1c2.2-5.9,5.1-11.6,7.7-17.3c0.8-1.7,1.6-3.4,2.4-5.2c0.3-0.7,0.8-1.1,1.6-1.2c3-0.4,6-1,9.1-1
		c4.8,0,7.5,2,9.3,7.2c1.5,4.3,2.2,8.9,3,13.5c1,5.8,1.3,11.7,1.9,17.5c0.6,6,1.2,12.1,1.9,18.1c0.5,5.3,1.1,10.7,1.6,16
		c0,0.4,0,0.8,0,1.1c0,1.3-0.7,1.9-1.9,1.9c-2.1,0-4.3,0.1-6.4,0.1c-3,0-5.9,0.1-8.9,0.1c-1.7,0-2.3-0.5-2.3-2.3
		C435.7,110.2,435.7,106.7,435.7,103.3C435.7,103.3,435.7,103.3,435.7,103.3z M433.1,62c0.1,0.4-0.1,0.7-0.3,1c-2,5.1-4,10.2-6,15.3
		c-0.4,1-0.4,1,0.6,0.9c2.5-0.3,4.9-0.6,7.4-0.8c0.9-0.1,1-0.4,1-1.2c0-3.8-0.2-7.7-0.4-11.5c-0.2-2.4-0.4-4.7-0.9-7.2
		c-0.4,1.1-0.8,2.1-1.2,3.1c-0.4-0.6-0.8-0.4-1.2-0.1c-0.3,0.2-0.3,0.5-0.1,0.8C432.6,62.8,432.7,61.8,433.1,62z M448,90.8
		c-0.3,0.2-0.6,0.6-0.9,0.2c-0.4-0.3-0.2-0.8-0.1-1.1c0.1-0.4,0.5-0.4,0.8-0.3c0.1,0,0.3,0.2,0.3-0.1c0-0.3,0-0.4-0.3-0.6
		c-0.7-0.4-1.8-0.4-2.5,0.1c-0.3,0.2-0.3,0.4-0.1,0.8c0.3,0.5,0.6,1,1,1.5c0.3,0.4,0.6,1.1,0.2,1.8c-0.4,0.6-0.4,1.2,0.4,1.5
		c0.7,0.2,0.9,0.6,0.3,1c0.2,0.4,1-0.3,0.7,0.4c-0.3,0.8-0.2,1.4,0.5,1.8c0.3,0.2,0.2,0.5,0.3,0.8c0.2,0.7,0.2,1.5,0.7,2.2
		c0.1,0.2,0.3,0.5,0.5,0.3c0.3-0.1,0.1-0.4,0-0.6c-0.4-0.8-0.7-1.6-0.6-2.5c0.1-0.8-1.1-1.5-0.4-2.4c0,0-0.1-0.2-0.2-0.3
		c-0.4-0.3-0.4-0.6-0.2-1c0.1-0.4,0.1-0.8-0.1-1.2c-0.2-0.5-0.7-1-0.1-1.6C448.4,91.5,448.2,91.1,448,90.8z M444.3,76
		c0.4-0.1,0.7-0.4,0.9-0.7c0.1-0.1,0.3-0.3,0.1-0.4c-0.4-0.2-0.8-0.2-1.1,0c-0.3,0.2-0.9,0.2-0.8,0.8c0.1,1.2,1,1.7,2.2,1.3
		C445.3,76.5,444.6,76.7,444.3,76z M422.7,88.8c-0.1-0.3-0.1-0.6-0.3-0.9c-0.3-0.5-0.8-0.8-1.4-0.6c-0.3,0.1-0.7,0.4-0.5,0.8
		c0.2,0.5,0.7,0.8,1.3,0.7C422,88.7,422.3,88.8,422.7,88.8z M415.5,93.1c0.3,0.5,0.5,0.9,1.1,0.4c0.1-0.1,0.3-0.2,0.5-0.3
		c0.2-0.1,0.5-0.2,0.3-0.4c-0.1-0.2-0.3-0.6-0.7-0.2C416.4,92.9,415.9,93,415.5,93.1z M446.1,87.9c-0.2-0.3-0.4-0.5-0.5-0.8
		c-0.2-0.4-0.6,0-0.9,0.1c-0.2,0-0.2,0.2-0.1,0.4C444.9,88.2,445.4,88.1,446.1,87.9z M441.8,79.5c0.4,0.3,0.6,0.7,0.6,1.1
		c0,0.3,0.2,0.4,0.5,0.4c0.4,0,0.2-0.3,0.2-0.5C442.9,79.7,442.5,79.5,441.8,79.5z M441.3,73.2c-0.1-0.4-0.4-0.6-0.9-0.7
		c-0.2-0.1-0.4,0.2-0.4,0.2c0.3,0.3,0.1,1,0.7,0.9C441.1,73.6,441.2,73.5,441.3,73.2z M442,50.2c0.1-0.1,0.6,0.2,0.5-0.2
		c0-0.2,0-0.7-0.5-0.6c-0.4,0-0.8,0.1-0.8,0.6C441.2,50.4,441.7,50.1,442,50.2z M439.8,84.2c0.5,0.4,0.9,0.4,1.3-0.1
		c0.2-0.3,0.1-0.5-0.1-0.6C440.4,83.3,440.3,84,439.8,84.2z M442.6,102.3c0.1-1.4,0-1.6-0.9-1.6C442,101.2,442.3,101.7,442.6,102.3z
		 M442.9,54.9c-0.2,0.2-0.6,0.1-0.6,0.4c0,0.2,0.2,0.3,0.4,0.3c0.3,0,0.5-0.1,0.5-0.4C443.2,55,443.1,54.9,442.9,54.9z M441.4,76.6
		c0-0.1,0-0.1,0-0.2c-0.6,0-1.1,0-1.7,0C440.2,76.6,440.8,76.8,441.4,76.6z M445.1,73.9c-0.4-0.5-0.9-0.5-1.3-0.3
		c-0.1,0-0.1,0.2,0,0.3C444.2,74.2,444.6,74.1,445.1,73.9z M442.1,52.2c-0.1-0.3-0.4-0.3-0.6-0.4c-0.2,0-0.4,0-0.4,0.2
		c0,0.3,0.4,0.3,0.6,0.4C441.9,52.5,442,52.4,442.1,52.2z M423.4,74.2c-0.4,0.4-0.4,0.8-0.3,1.4C423.5,75.1,423.6,74.8,423.4,74.2z
		 M416.6,91.3c-0.1,0-0.3,0.1-0.3,0.3c0,0.3,0.3,0.4,0.5,0.4c0.2,0,0.2-0.1,0.2-0.3C417.1,91.5,416.9,91.4,416.6,91.3z M424.8,86.8
		c0-0.2-0.2-0.3-0.4-0.2c-0.2,0-0.5-0.1-0.6,0.2c0,0.3,0.3,0.3,0.4,0.3C424.5,87,424.7,87.1,424.8,86.8z M422.5,57.7
		c-0.6,0.5-0.6,0.7,0,1.2C422.5,58.5,422.6,58.2,422.5,57.7z M441.3,74.8c0.2,0.1,0.4,0.2,0.6,0.2c0.2,0,0.3-0.1,0.3-0.2
		c0-0.3-0.3-0.3-0.5-0.3C441.5,74.5,441.3,74.6,441.3,74.8z"/>
	<path class="st0" d="M365.3,89.6c0.3,0.1,0.7,0.1,1,0.2c0.1-0.3,0.1-0.5,0.2-0.9c0.3,1,0.1,1.9,0.2,2.8c0,0.3-0.3,0.2-0.4,0.3
		c-0.3,0.1-0.6,0.1-0.7,0.4c-0.1,0.3-0.3,0.9,0.1,1c0.4,0.1,0.8-0.2,1.1-0.6c0,0.6-0.1,1.3,0,1.9c0.1,0.6-0.3,1.2,0,1.8
		c0.2,0.6,0,1.3,0,2c-0.2-0.1-0.3-0.1-0.5-0.1c-0.2,0-0.4,0-0.4,0.2c0,0.2,0.2,0.3,0.3,0.3c0.7-0.2,0.6,0.2,0.5,0.6
		c0,1.7,0.3,3.4,0,5.1c0,0.3-0.1,0.5-0.2,0.8c-0.4,1.6-0.8,1.8-2.4,1.9c-3.4,0.1-6.8,0.3-10.2,0.4c-0.4,0-0.8,0-1.2,0
		c-0.9-0.1-1.4-0.7-1.4-1.6c0-6.5,0-12.9,0.2-19.4c0.2-6.1,0.3-12.2,0.7-18.2c0.3-3.9,0.5-7.8,0.7-11.8c0.1-1.2,0.5-1.6,1.7-1.7
		c3.9-0.2,7.7-0.3,11.6-0.5c1,0,1.8,0.7,1.7,1.8c-0.6,6.9-1,13.7-1.3,20.6c-0.1,3.5-0.1,6.9-0.1,10.4c0,0.5,0.1,1-0.6,1.1
		C365.6,88.6,365.8,89.4,365.3,89.6z M353.6,80.4c0.3-0.6,1.1-0.7,0.8-1.5c-0.4-0.8-0.1-1.6,0.2-2.3c0.3-0.6,0.4-1.2,0.1-1.8
		c-0.2-0.6-0.2-1.1,0-1.8c0.2-0.7,0.5-1.4,0.1-2.1c-0.1-0.2,0-0.4,0.1-0.6c0.6-1.2,0.7-2.5,0.2-3.7c-0.3-0.7-0.4-1.2,0.4-1.5
		c0.2-0.1,0.4-0.2,0.2-0.4c-0.4-0.4-0.9-0.2-1.3-0.1c-0.3,0.1-0.5,0.4-0.4,0.7c0.2,0.5,0,1,0,1.4c0,0.5-0.2,0.9,0.3,1.3
		c0.1,0.1,0,0.3,0,0.4c0,0.8-0.1,1.5-0.1,2.3c-0.1,0.7-0.1,1.5-0.2,2.2c-0.1,0.6-0.4,1.6-0.1,2c0.3,0.4,0.3,0.8,0.2,1.2
		c-0.1,1.3-0.1,2.7-0.5,4c0,0.1-0.1,0.2-0.1,0.2c1,0.7-0.6,1.6,0.1,2.4c-0.9,0.7-0.2,1.6-0.3,2.3c0,0.4-0.4,0.8,0,1.2
		c0.3,0.3,0.3,0.7,0,1c-0.2,0.2-0.1,0.4,0.1,0.5c0.6-0.5,0.6-1.2,0.3-1.8c-0.1-0.2,0-0.5,0-0.7c0.1-1.2,0.7-2.4,0.5-3.6
		c0-0.2,0-0.4,0.1-0.5C354.4,80.6,354.3,80.4,353.6,80.4z M358.3,56.5c-0.6,0.1-1,0.2-1.3,0.3c-0.6,0.1-1.3,0.7-1.9-0.1
		c-0.2-0.2-0.5-0.2-0.8,0c-0.2,0.1-0.4,0.4-0.2,0.6c0.8,1.1-0.2,2.2-0.1,3.3c0.1,1-0.3,2,0,2.9c0.1,0.2-0.1,0.5,0.3,0.3
		c0.2-0.1,0.8-0.1,0.6-0.4c-0.5-0.9-0.3-1.3,0.6-1.5c0,0,0-0.1,0.1-0.1c0.7-0.6,0.2-1.9,1.3-2.3c0-0.1-0.1-0.2-0.1-0.3
		c0.4-0.5,1.1-0.8,0.5-1.6C357.7,57.4,357.8,56.9,358.3,56.5z M364,101.2c0-0.3,0.3-0.7-0.3-0.7c-0.5,0-0.6,0.5-0.8,0.8
		c0.4,0.1,0.2,0.9,0.7,0.8C364.1,102.1,364.1,101.6,364,101.2z M362.3,86.8c0.7,0.7,1.1-0.1,1.5-0.3c0.1,0,0.2-0.5-0.1-0.6
		c-0.2-0.1-0.8-0.3-0.8,0.1C363.1,86.6,362.5,86.5,362.3,86.8z M361.1,56.6c-0.4,0-0.7-0.1-1.1-0.1c-0.3,0-0.7,0.2-0.8,0.4
		c-0.1,0.3,0.2,0.6,0.6,0.8C359.7,56.8,360.4,56.8,361.1,56.6z M363.4,94.4c-0.5,0.4-1.4-0.5-1.7,0.6c0,0.1-0.3,0.2-0.1,0.3
		c0.1,0.1,0.5,0.1,0.5,0C362.3,94.7,363,94.8,363.4,94.4z M360.3,90.3c0.2,0.2,0.4,0.3,0.5,0.5c0.2,0.3,0.4,0.2,0.7,0.2
		c0.2-0.1,0.2-0.2,0.2-0.3c0-0.3-0.3-0.3-0.5-0.4C361,90,360.7,89.9,360.3,90.3z M365,97.9c0.2,0,0.5,0.1,0.6-0.3
		c0.1-0.3-0.2-0.5-0.4-0.4c-0.3,0.1-0.7-0.2-0.8,0.3C364.4,97.9,364.7,97.9,365,97.9z M353.4,88.7c-1,0.6-0.5,1.5-0.6,2.2
		c0,0,0,0,0,0C352.8,90.1,353.4,89.5,353.4,88.7z M365.9,100.4c-0.7-0.2-1.1,0.1-1.4,0.6C365.1,101.2,365.5,100.9,365.9,100.4z
		 M362.6,81.1c-0.4,0.1-0.7-0.4-1,0.1c-0.1,0.2,0,0.3,0.1,0.4C362.1,81.7,362.3,81.5,362.6,81.1z M364.1,99.5c0.7,0.3,0.7,0.3,1.2,0
		C364.9,99.5,364.5,99.5,364.1,99.5z M359.8,97.1c0.3,0.5,0.7,0.7,1.1,0.1C360.5,97.2,360.2,97.1,359.8,97.1z M363.8,79.6
		c0.2,0,0.4-0.1,0.4-0.3c0-0.2-0.2-0.3-0.4-0.3c-0.2,0-0.3,0-0.4,0.2C363.4,79.4,363.6,79.5,363.8,79.6z M363.1,87.4
		c-0.5-0.1-0.9-0.2-1.2-0.2c-0.1,0-0.2,0.1-0.2,0.1c-0.1,0.1,0.1,0.3,0.2,0.2C362.2,87.4,362.6,87.7,363.1,87.4z M363.4,99.2
		c0-0.2-0.1-0.3-0.4-0.3c-0.2,0-0.3,0.2-0.2,0.4c0.1,0.2,0,0.5,0.3,0.5C363.4,99.7,363.4,99.5,363.4,99.2z M362.3,98.6
		c0.5,0.2,0.8,0,1.2-0.4C363,98.2,362.6,98.2,362.3,98.6z M365.6,94.8c0.4,0.1,0.7,0.2,0.9-0.2C366.2,94.5,365.9,94.4,365.6,94.8z"
		/>
	<path class="st0" d="M591.1,112.3c-1.6,0.1-3-0.8-4.5-1.5c-0.8-0.4-1.1-1.3-0.8-2.3c1.4-4.2,3.1-5.8,7.4-6.2
		c4.5-0.4,8.8,0.6,12.8,2.8c0.8,0.4,1.5,0.9,2.1,1.6c1.3,1.4,1.1,2.7-0.6,3.7c-1.3,0.7-2.6,1-4,1.3c-2.2,0.4-4.4,0.5-6.6,0.6
		c-0.3,0-0.8,0.3-0.9-0.4c-0.3,0.1-0.6-0.7-0.9,0.2c-0.2,0.6-0.8,0.2-1.3,0.3c-0.2,0.1-0.6,0.1-0.5-0.3c0-0.2,0.1-0.5-0.3-0.5
		c-0.3,0.1-0.4,0.2-0.2,0.5c0.2,0.4-0.1,0.3-0.3,0.3C592.1,112.3,591.7,112.3,591.1,112.3z M605.3,105.1c-0.7-0.4-1.1-0.3-1.7,0.2
		C604.2,105.5,604.7,105.3,605.3,105.1z M593.3,104.2c-0.4-0.3-0.7-0.5-1.1-0.2c-0.1,0.1-0.2,0.3-0.1,0.3
		C592.4,104.5,592.8,104.5,593.3,104.2z M588.6,108.2c-0.3,0-0.4,0.2-0.4,0.4c0,0.3,0.2,0.3,0.3,0.2c0.2,0,0.5,0,0.5-0.3
		C589.1,108.3,588.8,108.2,588.6,108.2z"/>
	<path class="st0" d="M538.7,102.2c4.4,0.2,8.6,1.1,12.3,3.8c0.5,0.4,1,0.9,1.3,1.5c0.5,0.9,0.4,1.6-0.4,2.3c-0.7,0.7-1.7,1-2.6,1.3
		c-2.1,0.6-4.2,0.8-6.4,1c-0.7,0.1-1.5,0.1-2.3,0.1c-0.4,0-0.9,0.2-1.1-0.4c-0.1-0.1-0.5-0.5-0.8,0.1c-0.3,0.6-1.5,0.4-1.7-0.2
		c-0.1-0.1-0.1-0.3-0.3-0.3c-0.2,0-0.4,0.1-0.4,0.3c0,0.5-0.3,0.5-0.6,0.5c-0.8,0-1.7,0.2-2.3-0.1c-1.1-0.6-2.5-0.6-3.5-1.5
		c-0.8-0.7-0.8-1.6-0.5-2.4c1.4-4.1,3.3-5.6,7.5-6C537.6,102.2,538.2,102.2,538.7,102.2z M548.9,105.1c-0.3-0.1-0.4-0.2-0.5-0.2
		c-0.4-0.1-0.7,0-1,0.2c0,0,0,0.2,0,0.2c0.3,0.2,0.6,0,0.9-0.1C548.5,105.3,548.6,105.2,548.9,105.1z M536.9,104.2
		c-0.8-0.5-0.8-0.5-1.3,0.2C536.1,104.4,536.4,104.5,536.9,104.2z M532.3,108.2c-0.3,0-0.4,0.1-0.4,0.4c0,0.3,0.2,0.3,0.3,0.3
		c0.2,0,0.5,0,0.5-0.3C532.7,108.2,532.4,108.3,532.3,108.2z"/>
	<path class="st0" d="M361,50.7c-3.2,0-5.3-1.8-5.7-4.6c-0.6-4.5,3.1-8.7,7.6-8.7c2.6,0,4.6,1.2,5.6,3.6c1.1,2.5,0.4,4.9-1.4,6.9
		C365.4,49.8,363.2,50.6,361,50.7z M367,46.6c0-0.3-0.2-0.4-0.4-0.4c-0.3,0-0.4,0.1-0.4,0.4c0,0.2,0,0.4,0.3,0.4
		C366.7,46.9,367,46.9,367,46.6z M360.3,40.6c0.2-0.1,0.2-0.4,0.1-0.6c0-0.1-0.1-0.4-0.2-0.3c-0.2,0.1-0.4,0.3-0.3,0.6
		C360,40.4,360,40.5,360.3,40.6z"/>
	<path class="st0" d="M611,174c0.4-0.1,0.8-0.1,1.2-0.2c0.3,0,0.6-0.1,0.6,0.3c0,0.5-0.4,0.4-0.7,0.4
		C611.7,174.5,611.3,174.4,611,174C611,174,611,174,611,174z"/>
	<path class="st0" d="M433.2,61.7c0,0,0,0.1,0,0.1c0,0,0,0,0,0.1C433.2,61.8,433.2,61.8,433.2,61.7
		C433.1,61.7,433.2,61.7,433.2,61.7z"/>
</g>
</svg>
