<?xml version="1.0" encoding="utf-8"?>
<!-- Generator: Adobe Illustrator 23.0.5, SVG Export Plug-In . SVG Version: 6.00 Build 0)  -->
<svg version="1.1" id="Illustration" xmlns="http://www.w3.org/2000/svg" xmlns:xlink="http://www.w3.org/1999/xlink" x="0px"
	 y="0px" viewBox="0 0 3710 3710" enable-background="new 0 0 3710 3710" xml:space="preserve">
<g>
	<linearGradient id="SVGID_1_" gradientUnits="userSpaceOnUse" x1="3493.4229" y1="3268.0103" x2="1429.3436" y2="1461.9421">
		<stop  offset="0" style="stop-color:#40F8E7"/>
		<stop  offset="1" style="stop-color:#00DFFF"/>
	</linearGradient>
	<path opacity="0.3" fill="url(#SVGID_1_)" d="M3142.6,2330c-266.8,628.1-977.4,980-1593.6,885.1
		c-100.3-15.4-375.2-61.5-618.6-278.5C462,2518.8,361.8,1691.4,739.7,1108.3c275.1-424.4,768.2-664.9,1236.8-652.9
		c100.9,2.6,487.7,18.6,827.6,298.9c49.9,41.2,160,139,259.3,294.2C3296.5,1412.9,3316.5,1920.7,3142.6,2330z"/>
	<g>
		<g>
			<g>
				<path fill="#FFFFFF" d="M1482.2,1370.9c-1.8-0.1-3.6-1.2-4.6-2.9c-3.7-6.6-7.6-13.1-11.6-19.5c-1.7-2.7-0.9-6.2,1.8-7.9
					c2.7-1.7,6.2-0.9,7.9,1.8c4.1,6.5,8.1,13.2,11.9,19.9c1.6,2.8,0.6,6.3-2.2,7.8C1484.5,1370.8,1483.3,1371,1482.2,1370.9z"/>
				<path fill="#FFFFFF" d="M1026.2,2091.2c-8.7-0.5-17.6-1.5-26.3-2.7c-3.1-0.4-5.4-3.3-5-6.4c0.4-3.1,3.3-5.3,6.4-5
					c8.5,1.1,17.2,1.9,25.6,2.6c6.2,0.5,12.6,0.8,19,1c3.2-0.1,5.7,2.8,5.5,5.9c-0.1,3.2-2.8,5.7-5.9,5.5
					C1039.1,2092,1032.6,2091.7,1026.2,2091.2z M1118.9,2089.1c-2.7-0.2-4.9-2.3-5.3-5c-0.4-3.1,1.9-6,5-6.4
					c14.3-1.7,28.7-4.1,42.9-7.1l1.2-0.3c3.1-0.7,6.1,1.3,6.8,4.4c0.7,3.1-1.3,6.2-4.4,6.8l-1.2,0.3c-14.5,3.1-29.3,5.5-43.9,7.3
					C1119.6,2089.1,1119.2,2089.1,1118.9,2089.1z M1234.1,2060.8c-2.2-0.2-4.1-1.5-4.9-3.7c-1.1-3,0.4-6.3,3.3-7.4
					c13.9-5.3,27.7-11.3,41-17.8c2.8-1.4,6.3-0.2,7.7,2.6c1.4,2.8,0.2,6.3-2.6,7.7c-13.6,6.7-27.8,12.8-42,18.3
					C1235.7,2060.7,1234.9,2060.9,1234.1,2060.8z M1338.8,2005.3c-1.7-0.1-3.2-1-4.3-2.4c-1.8-2.6-1.2-6.2,1.4-8
					c12.2-8.5,24.1-17.7,35.4-27.3c2.4-2.1,6-1.8,8.1,0.7c2.1,2.4,1.8,6-0.7,8.1c-11.6,9.9-23.8,19.3-36.2,28
					C1341.4,2005.1,1340.1,2005.4,1338.8,2005.3z M1426.9,1925.9c-1.2-0.1-2.4-0.5-3.3-1.4c-2.4-2.1-2.7-5.7-0.6-8.1
					c9.7-11.2,19-23,27.7-35.1c1.8-2.6,5.4-3.2,8-1.3c2.6,1.8,3.2,5.4,1.3,8c-8.9,12.4-18.4,24.5-28.3,36
					C1430.4,1925.4,1428.6,1926.1,1426.9,1925.9z M1493,1827.5c-0.7-0.1-1.5-0.3-2.2-0.6c-2.8-1.4-4-4.9-2.5-7.7
					c6.7-13.3,12.9-27,18.3-40.8c1.2-3,4.5-4.4,7.4-3.2c3,1.2,4.4,4.5,3.2,7.4c-5.6,14.1-11.9,28.2-18.8,41.8
					C1497.5,1826.5,1495.3,1827.6,1493,1827.5z M1533.3,1715.9c-0.3,0-0.6-0.1-0.9-0.1c-3.1-0.7-5-3.8-4.3-6.9
					c3.3-14.5,5.9-29.3,7.8-44.1c0.4-3.1,3.3-5.5,6.4-5c3.1,0.4,5.4,3.3,5,6.4c-2,15.1-4.6,30.3-8,45.1
					C1538.7,1714.3,1536.1,1716.1,1533.3,1715.9z M1545,1597.9c-2.9-0.2-5.2-2.6-5.3-5.6c-0.4-14.8-1.5-29.9-3.2-44.6
					c-0.4-3.1,1.9-6,5-6.4c3.2-0.4,6,1.9,6.4,5c1.8,15.1,2.9,30.5,3.3,45.7c0.1,3.2-2.4,5.8-5.6,5.9
					C1545.4,1597.9,1545.2,1597.9,1545,1597.9z M1527.6,1480.5c-2.4-0.2-4.4-1.8-5.1-4.2c-4-14.4-8.6-28.7-13.9-42.5
					c-1.1-3,0.4-6.3,3.3-7.4c3-1.1,6.3,0.4,7.4,3.3c5.4,14.2,10.2,28.8,14.2,43.5c0.8,3.1-1,6.2-4,7.1
					C1528.9,1480.5,1528.2,1480.6,1527.6,1480.5z"/>
				<path fill="#FFFFFF" d="M928,2073.5c-0.4,0-0.8-0.1-1.2-0.2c-7.4-2.1-14.8-4.5-22.1-7c-3-1-4.6-4.3-3.6-7.3c1-3,4.3-4.6,7.3-3.6
					c7.1,2.4,14.4,4.7,21.6,6.8c3,0.9,4.8,4.1,3.9,7.1C933.2,2072.1,930.7,2073.7,928,2073.5z"/>
			</g>
			<g>
				<path fill="#FFFFFF" d="M633.2,1832.1c-1.9-0.1-3.7-1.2-4.7-3.1c-3.5-6.8-7-13.8-10.2-20.9c-1.3-2.9-0.1-6.3,2.8-7.6
					c2.9-1.3,6.3-0.1,7.6,2.8c3.2,6.9,6.5,13.8,10,20.4c1.5,2.8,0.4,6.3-2.5,7.7C635.3,1831.9,634.3,1832.1,633.2,1832.1z"/>
				<path fill="#FFFFFF" d="M598,1743.6c-2.3-0.2-4.4-1.8-5.1-4.1c-3.2-11.3-6.1-22.8-8.6-34.3c-0.7-3.2-1.3-6.3-1.9-9.5
					c-0.6-3.1,1.4-6.1,4.6-6.7c3.1-0.6,6.1,1.4,6.7,4.5c0.6,3.1,1.2,6.2,1.9,9.3c2.4,11.2,5.2,22.5,8.4,33.5c0.9,3-0.9,6.2-3.9,7.1
					C599.3,1743.6,598.6,1743.6,598,1743.6z M579.3,1628.4c-2.9-0.2-5.2-2.6-5.3-5.5c-0.6-15-0.5-30.1,0.3-45.1
					c0.2-3.2,2.9-5.6,6-5.4c3,0.2,5.6,2.9,5.4,6c-0.8,14.6-0.8,29.4-0.3,44c0.1,3.2-2.3,5.8-5.5,6
					C579.7,1628.4,579.5,1628.4,579.3,1628.4z M588.8,1512.1c-0.2,0-0.5-0.1-0.7-0.1c-3.1-0.6-5.1-3.7-4.5-6.8
					c3-14.7,6.8-29.4,11.1-43.7c0.9-3,4.2-4.7,7.2-3.8c3,0.9,4.7,4.1,3.8,7.2c-4.3,14-7.9,28.3-10.9,42.7
					C594.2,1510.4,591.6,1512.3,588.8,1512.1z M626,1401.5c-0.7-0.1-1.4-0.2-2-0.5c-2.9-1.4-4.1-4.8-2.7-7.6
					c6.5-13.5,13.6-26.9,21.3-39.7c1.6-2.7,5.1-3.6,7.9-2c2.7,1.6,3.6,5.1,2,7.9c-7.5,12.6-14.5,25.6-20.8,38.8
					C630.5,1400.4,628.3,1401.6,626,1401.5z M688.6,1303c-1.1-0.1-2.3-0.5-3.2-1.3c-2.5-2-2.8-5.6-0.8-8.1
					c9.5-11.6,19.6-22.8,30.1-33.5c2.2-2.3,5.9-2.3,8.1-0.1c2.3,2.2,2.3,5.9,0.1,8.1c-10.3,10.4-20.2,21.4-29.4,32.7
					C692.2,1302.4,690.4,1303.1,688.6,1303z M772.9,1222.3c-1.6-0.1-3.1-0.9-4.2-2.3c-1.9-2.5-1.4-6.1,1.2-8
					c12-9,24.5-17.5,37.3-25.3c2.7-1.7,6.2-0.8,7.9,1.9c1.7,2.7,0.8,6.2-1.9,7.9c-12.5,7.6-24.7,15.9-36.4,24.7
					C775.6,1222,774.2,1222.4,772.9,1222.3z M874.1,1164.3c-2.1-0.2-4-1.4-4.9-3.5c-1.2-2.9,0.1-6.3,3.1-7.5
					c13.8-5.8,28-11,42.3-15.5c3-1,6.2,0.7,7.2,3.7c1,3-0.7,6.2-3.7,7.2c-13.9,4.4-27.8,9.5-41.3,15.2
					C875.9,1164.2,874.9,1164.4,874.1,1164.3z M986.3,1132.3c-2.6-0.2-4.8-2.1-5.2-4.8c-0.5-3.1,1.6-6.1,4.8-6.6
					c14.8-2.4,29.9-4.1,44.8-5.1c3.1-0.2,5.9,2.2,6.1,5.3c0.2,3.2-2.2,5.9-5.3,6.1c-14.6,1-29.3,2.6-43.8,4.9
					C987.2,1132.3,986.7,1132.3,986.3,1132.3z M1147.1,1133.7c-0.2,0-0.4,0-0.6-0.1c-14.4-2.6-29.1-4.5-43.6-5.7
					c-3.2-0.3-5.5-3-5.2-6.2c0.3-3.1,3-5.5,6.1-5.2c0,0,0,0,0.1,0c14.9,1.3,29.9,3.2,44.7,5.9c3.1,0.6,5.2,3.5,4.6,6.7
					C1152.6,1132,1150,1134,1147.1,1133.7z"/>
				<path fill="#FFFFFF" d="M1238.9,1159.8c-0.6,0-1.1-0.2-1.7-0.4c-7-2.8-14.1-5.4-21.3-7.8c-3-1-4.6-4.3-3.6-7.3
					c1-3,4.3-4.6,7.3-3.6c7.3,2.5,14.6,5.2,21.8,8c2.9,1.2,4.4,4.5,3.2,7.4C1243.7,1158.6,1241.4,1160,1238.9,1159.8z"/>
			</g>
			<g>
				
					<linearGradient id="SVGID_2_" gradientUnits="userSpaceOnUse" x1="698.9661" y1="1928.1279" x2="120.4797" y2="968.6868" gradientTransform="matrix(0.9806 0.1962 -0.1962 0.9806 974.724 187.7635)">
					<stop  offset="0" style="stop-color:#3D83FF"/>
					<stop  offset="1" style="stop-color:#57E5FF"/>
				</linearGradient>
				<path fill="url(#SVGID_2_)" d="M1240.8,1278.2c-2-1.4-4.7-1.4-6.7,0.1l-57,41.6c-30.6-12.2-63.4-19.5-97.3-21.3l-34.4-61.6
					c-1.2-2.2-3.6-3.3-6.1-2.9L956,1249c-2.4,0.4-4.3,2.4-4.7,4.8l-10.9,69.7c-31.1,13.4-59.3,31.7-83.8,53.8l-67.9-19.2
					c-2.4-0.7-4.9,0.2-6.3,2.3l-48.4,69.5c-1.4,2-1.4,4.7,0.1,6.7l41.6,57c-12.2,30.6-19.5,63.4-21.3,97.3l-61.6,34.4
					c-2.2,1.2-3.3,3.6-2.9,6.1l14.9,83.3c0.4,2.4,2.4,4.3,4.8,4.7l69.7,10.9c13.4,31.1,31.7,59.3,53.8,83.8l-19.2,67.9
					c-0.7,2.4,0.2,4.9,2.3,6.3l69.5,48.4c2,1.4,4.7,1.4,6.7-0.1l57-41.6c30.6,12.2,63.4,19.5,97.3,21.3l34.4,61.6
					c1.2,2.2,3.6,3.3,6.1,2.9l83.3-14.9c2.4-0.4,4.3-2.4,4.7-4.8l10.9-69.7c31.1-13.4,59.3-31.7,83.8-53.8l67.9,19.2
					c2.4,0.7,4.9-0.2,6.3-2.3l48.4-69.5c1.4-2,1.4-4.7-0.1-6.7l-41.6-57c12.2-30.6,19.5-63.4,21.3-97.3l61.6-34.4
					c2.2-1.2,3.3-3.6,2.9-6.1l-14.9-83.3c-0.4-2.4-2.4-4.3-4.8-4.7l-69.7-10.9c-13.4-31.1-31.7-59.3-53.8-83.8l19.2-67.9
					c0.7-2.4-0.2-4.9-2.3-6.3L1240.8,1278.2z"/>
				<linearGradient id="SVGID_3_" gradientUnits="userSpaceOnUse" x1="2111.3188" y1="-182.7642" x2="229.2648" y2="3031.6328">
					<stop  offset="0" style="stop-color:#B8C8FF"/>
					<stop  offset="1" style="stop-color:#FDE1FF"/>
				</linearGradient>
				<path opacity="0.64" fill="url(#SVGID_3_)" d="M1057,1691c-7.9-0.6-15.8-2.3-23.5-5.2c-20.9-7.9-37.5-23.5-46.7-43.9
					c-9.2-20.4-9.9-43.1-2-64.1c7.9-20.9,23.5-37.5,43.9-46.8c20.4-9.2,43.1-9.9,64.1-2c20.9,7.9,37.5,23.5,46.8,43.9
					c9.2,20.4,9.9,43.1,2,64.1c-7.9,20.9-23.5,37.5-43.9,46.8C1084.7,1689.6,1070.8,1692,1057,1691z M1068,1541
					c-10.9-0.8-22,1.1-32.3,5.8c-33.4,15.1-48.3,54.6-33.2,88c7.3,16.2,20.5,28.6,37.1,34.9c16.6,6.3,34.7,5.7,50.9-1.6
					c16.2-7.3,28.6-20.5,34.9-37.1c6.3-16.6,5.7-34.7-1.6-50.9c-7.3-16.2-20.5-28.6-37.1-34.9
					C1080.6,1542.8,1074.3,1541.5,1068,1541z"/>
				<linearGradient id="SVGID_4_" gradientUnits="userSpaceOnUse" x1="2111.2817" y1="-182.7917" x2="229.2272" y2="3031.606">
					<stop  offset="0" style="stop-color:#B8C8FF"/>
					<stop  offset="1" style="stop-color:#FDE1FF"/>
				</linearGradient>
				<path opacity="0.64" fill="url(#SVGID_4_)" d="M1046.1,1821.2c-37.5-2.8-73.7-15.6-105.4-37.6c-46.7-32.5-77.9-81.2-87.9-137.1
					c-3.2-18-4.1-36-2.8-53.8c2.8-37.5,15.6-73.7,37.6-105.4c32.5-46.7,81.2-77.9,137.2-87.9c1.5-0.3,2.9-0.5,4.4-0.7
					c12-1.9,24.2-2.8,36.3-2.6c1.5,0,3,0.1,4.5,0.1l-0.6,17.2c-13.8-0.5-27.8,0.5-41.6,3l0,0c-48.7,8.7-91.4,34.9-121.2,74.1
					c-1.7,2.2-3.3,4.4-4.9,6.7c-20.3,29.1-32,62.4-34.6,96.8c-1.2,16.3-0.4,32.9,2.6,49.4c9.2,51.4,37.9,96.2,80.8,126.1
					c42.9,29.9,94.8,41.2,146.3,32c89.6-16.1,154.1-91.2,160.6-178c1.2-16,0.4-32.5-2.5-49c-6.3-34.9-21.8-67.4-45-94l13-11.3
					c25.2,28.9,42.2,64.3,49,102.3c3.2,18,4.1,35.9,2.8,53.3c-7,94.5-77.2,176.2-174.7,193.7
					C1081.8,1821.7,1063.8,1822.6,1046.1,1821.2z"/>
			</g>
		</g>
		<g>
			<g>
				<path fill="#FFFFFF" d="M2106.2,1148.2c-2.6-0.2-5-1.7-6.3-4.2c-4.5-8.9-9.5-17.6-14.8-26c-2.3-3.6-1.2-8.3,2.4-10.5
					c3.6-2.2,8.3-1.2,10.5,2.4c5.5,8.8,10.7,17.9,15.5,27.2c1.9,3.8,0.4,8.4-3.3,10.3C2108.9,1148.1,2107.5,1148.3,2106.2,1148.2z"
					/>
				<path fill="#FFFFFF" d="M1834.8,1627.9c-3.7-0.3-6.8-3.2-7-7.1c-0.3-4.2,2.9-7.9,7.1-8.2c14.8-1.1,29.7-3.2,44.4-6.3
					c5.2-1.1,10.3-2.3,15.3-3.6c4.1-1.1,8.3,1.4,9.3,5.5c1.1,4.1-1.4,8.3-5.5,9.3c-5.3,1.4-10.6,2.7-16.1,3.8
					c-15.3,3.3-31,5.5-46.5,6.6C1835.6,1628,1835.2,1627.9,1834.8,1627.9z M1988.1,1577.8c-2.3-0.2-4.6-1.4-5.9-3.5
					c-2.3-3.6-1.2-8.3,2.4-10.5c17-10.8,33.1-23.2,47.9-37c3.1-2.9,7.9-2.7,10.8,0.4c2.9,3.1,2.7,7.9-0.4,10.8
					c-15.4,14.4-32.3,27.5-50.2,38.7C1991.3,1577.5,1989.7,1577.9,1988.1,1577.8z M2099.3,1461c-1.1-0.1-2.2-0.4-3.2-1
					c-3.7-2.1-5-6.7-2.9-10.4c10-17.6,18.3-36.2,24.8-55.2c1.4-4,5.7-6.2,9.7-4.8c4,1.4,6.1,5.7,4.8,9.7c-6.8,20-15.5,39.4-26,57.8
					C2105,1459.8,2102.1,1461.2,2099.3,1461z M2142.1,1305.5c-4-0.3-7.2-3.7-7.1-7.8c0.4-20.1-1.1-40.4-4.4-60.4
					c-0.7-4.2,2.1-8.1,6.3-8.8c4.2-0.7,8.1,2.1,8.8,6.3c3.5,20.9,5.1,42.2,4.6,63.2c-0.1,4.2-3.6,7.6-7.8,7.5
					C2142.4,1305.5,2142.2,1305.5,2142.1,1305.5z"/>
				<path fill="#FFFFFF" d="M1734.4,1619.6c-0.4,0-0.8-0.1-1.2-0.2c-10.1-2.4-20.2-5.4-30-8.7c-4-1.4-6.1-5.7-4.8-9.7
					c1.4-4,5.7-6.1,9.7-4.8c9.4,3.2,19,6,28.7,8.3c4.1,1,6.6,5.1,5.6,9.2C1741.5,1617.5,1738,1619.9,1734.4,1619.6z"/>
			</g>
			<g>
				<path fill="#FFFFFF" d="M1518.4,1450.6c-2.6-0.2-5-1.7-6.2-4.1c-4.8-9.2-9.2-18.8-13.1-28.4c-1.6-3.9,0.3-8.4,4.2-10
					c3.9-1.6,8.4,0.3,10,4.2c3.7,9.2,7.9,18.3,12.5,27.1c1.9,3.7,0.5,8.4-3.3,10.3C1521.1,1450.4,1519.7,1450.7,1518.4,1450.6z"/>
				<path fill="#FFFFFF" d="M1482.4,1326.7c-3.7-0.3-6.7-3.2-7-7c-1.6-18.1-1.7-36.4-0.4-54.5c0.2-2.6,0.4-5.3,0.7-7.9
					c0.4-4.2,4.3-7,8.4-6.9c4.2,0.4,7.3,4.2,6.8,8.4c-0.2,2.5-0.5,5-0.7,7.5c-1.3,17.3-1.2,34.8,0.3,52c0.4,4.2-2.7,7.9-6.9,8.3
					C1483.2,1326.8,1482.8,1326.8,1482.4,1326.7z M1507.1,1170c-0.8-0.1-1.6-0.2-2.4-0.6c-3.9-1.6-5.7-6.1-4.1-10
					c8.1-19.1,18-37.6,29.4-55c2.3-3.5,7.1-4.5,10.6-2.2c3.5,2.3,4.5,7.1,2.2,10.6c-10.9,16.6-20.4,34.2-28.1,52.5
					C1513.4,1168.5,1510.3,1170.3,1507.1,1170z M1601.9,1042.9c-2-0.1-4-1.1-5.3-2.8c-2.7-3.3-2.2-8.1,1-10.8
					c16-13.2,33.4-25,51.6-35c3.7-2,8.3-0.7,10.4,3c2,3.7,0.7,8.3-3,10.4c-17.4,9.6-34,20.8-49.3,33.4
					C1605.7,1042.4,1603.8,1043,1601.9,1042.9z M1745,974.6c-3.3-0.2-6.2-2.7-6.9-6.1c-0.9-4.1,1.8-8.2,5.9-9
					c20.4-4.2,41.3-6.5,61.9-6.9c4.3-0.3,7.7,3.3,7.8,7.5c0.1,4.2-3.3,7.7-7.5,7.8c-19.7,0.4-39.7,2.6-59.2,6.6
					C1746.4,974.6,1745.7,974.7,1745,974.6z"/>
				<path fill="#FFFFFF" d="M1932.7,990.7c-0.8-0.1-1.5-0.2-2.2-0.5c-9.2-3.6-18.7-6.9-28.2-9.7c-4.1-1.2-6.4-5.4-5.2-9.5
					c1.2-4.1,5.4-6.4,9.5-5.2c10,2.9,19.9,6.3,29.6,10.1c3.9,1.6,5.9,6,4.3,9.9C1939.1,989.1,1935.9,991,1932.7,990.7z"/>
			</g>
			<g>
				
					<linearGradient id="SVGID_5_" gradientUnits="userSpaceOnUse" x1="177.8522" y1="-222.267" x2="1214.6869" y2="1153.1246" gradientTransform="matrix(0.9806 0.1962 -0.1962 0.9806 974.724 187.7635)">
					<stop  offset="0" style="stop-color:#3D83FF"/>
					<stop  offset="1" style="stop-color:#57E5FF"/>
				</linearGradient>
				<path fill="url(#SVGID_5_)" d="M1934.2,1068c-1.4-1-3.2-0.9-4.6,0.1l-39,28.5c-21-8.3-43.4-13.4-66.5-14.6l-23.5-42.1
					c-0.8-1.5-2.5-2.3-4.2-2l-57,10.2c-1.7,0.3-3,1.6-3.2,3.3l-7.4,47.7c-21.3,9.2-40.6,21.7-57.3,36.8l-46.4-13.2
					c-1.6-0.5-3.4,0.2-4.3,1.5l-33.1,47.5c-1,1.4-0.9,3.2,0.1,4.6l28.5,39c-8.3,21-13.4,43.4-14.6,66.5l-42.1,23.5
					c-1.5,0.8-2.3,2.5-2,4.2l10.2,57c0.3,1.7,1.6,3,3.3,3.2l47.7,7.4c9.2,21.3,21.7,40.6,36.8,57.3l-13.2,46.4
					c-0.5,1.6,0.2,3.4,1.5,4.3l47.5,33.1c1.4,1,3.2,0.9,4.6-0.1l39-28.5c21,8.3,43.4,13.4,66.5,14.6l23.5,42.1
					c0.8,1.5,2.5,2.3,4.2,2l57-10.2c1.7-0.3,3-1.6,3.2-3.3l7.4-47.7c21.3-9.2,40.6-21.7,57.3-36.8l46.4,13.2
					c1.6,0.5,3.4-0.2,4.3-1.6l33.1-47.5c1-1.4,0.9-3.2-0.1-4.6l-28.5-39c8.3-21,13.4-43.4,14.6-66.5l42.1-23.5
					c1.5-0.8,2.3-2.5,2-4.2l-10.2-57c-0.3-1.7-1.6-3-3.3-3.2l-47.7-7.4c-9.2-21.3-21.7-40.6-36.8-57.3l13.2-46.4
					c0.5-1.6-0.2-3.4-1.5-4.3L1934.2,1068z"/>
				<linearGradient id="SVGID_6_" gradientUnits="userSpaceOnUse" x1="2532.5269" y1="63.8543" x2="650.4758" y2="3278.2463">
					<stop  offset="0" style="stop-color:#B8C8FF"/>
					<stop  offset="1" style="stop-color:#FDE1FF"/>
				</linearGradient>
				<path opacity="0.64" fill="url(#SVGID_6_)" d="M1808.2,1355.9c-22.2-1.7-42.9-15.1-52.7-36.8c-14.3-31.6-0.2-68.9,31.4-83.2l0,0
					c31.6-14.3,68.9-0.2,83.2,31.4c14.3,31.6,0.2,68.9-31.4,83.2C1828.8,1355,1818.3,1356.6,1808.2,1355.9z M1796.3,1256.8
					c-20.1,9.1-29,32.8-19.9,52.9c9.1,20.1,32.8,29,52.9,19.9c20.1-9.1,29-32.8,19.9-52.9
					C1840.1,1256.7,1816.4,1247.7,1796.3,1256.8L1796.3,1256.8z"/>
				<linearGradient id="SVGID_7_" gradientUnits="userSpaceOnUse" x1="2532.5322" y1="63.8537" x2="650.4713" y2="3278.2625">
					<stop  offset="0" style="stop-color:#B8C8FF"/>
					<stop  offset="1" style="stop-color:#FDE1FF"/>
				</linearGradient>
				<path opacity="0.64" fill="url(#SVGID_7_)" d="M1800.6,1445.1c-26.6-2-52.4-11.1-74.9-26.7c-33.1-23.1-55.3-57.7-62.4-97.4
					c-2.3-12.8-2.9-25.6-2-38.2c2-26.6,11.1-52.3,26.7-74.8c23.1-33.1,57.7-55.3,97.4-62.4c10.6-1.9,21.4-2.7,32.1-2.3l-0.8,22.9
					c-9.1-0.3-18.2,0.3-27.2,1.9c-32.3,5.8-60.5,23.2-80,49.3c-0.3,0.4-0.6,0.8-0.9,1.2c-0.6,0.8-1.2,1.6-1.7,2.4
					c-13.3,19.1-21,40.9-22.7,63.5c-0.8,10.7-0.3,21.6,1.7,32.4c6,33.7,24.9,63.1,53,82.6c28.1,19.6,62.2,27.1,95.9,21
					c33.7-6,63.1-24.8,82.6-53c13.3-19.1,21-40.9,22.7-63.5c0.8-10.7,0.3-21.6-1.7-32.4c-4.1-22.9-14.3-44.2-29.5-61.6l17.3-15.1
					c17.9,20.5,30,45.7,34.8,72.6c2.3,12.8,2.9,25.6,2,38.2c-2,26.6-11.1,52.3-26.7,74.8c-23.1,33.1-57.7,55.3-97.4,62.4
					C1826,1445.3,1813.2,1446,1800.6,1445.1z"/>
			</g>
		</g>
	</g>
	<g>
		<g>
			
				<linearGradient id="SVGID_8_" gradientUnits="userSpaceOnUse" x1="2095.6252" y1="1822.5442" x2="1718.0135" y2="1231.5005" gradientTransform="matrix(0.9618 0.2737 -0.2737 0.9618 77.7897 799.5362)">
				<stop  offset="0" style="stop-color:#FFFFD3"/>
				<stop  offset="1" style="stop-color:#DE88F9"/>
			</linearGradient>
			<path fill="url(#SVGID_8_)" d="M1605.3,2682.5c-198.7-43.8-49-338.6-42-350l-356.1,125c0,0-31.8,171.4,189.8,329.1
				c56.1,39.9,112.8,57.1,166.3,60.6C1559.7,2778.5,1580,2723.5,1605.3,2682.5z"/>
			
				<linearGradient id="SVGID_9_" gradientUnits="userSpaceOnUse" x1="1973.6521" y1="1417.4552" x2="2509.1052" y2="1417.4552" gradientTransform="matrix(0.9618 0.2737 -0.2737 0.9618 77.7897 799.5362)">
				<stop  offset="0" style="stop-color:#FEFFFF"/>
				<stop  offset="1" style="stop-color:#F9C5F4"/>
			</linearGradient>
			<path fill="url(#SVGID_9_)" d="M2009.8,2696.1c-58.4-71.4-155.3-44.2-155.3-44.2c-115.5,36-195.2,42.5-249.2,30.6
				c-25.3,40.9-45.7,95.9-42,164.7c115.7,7.6,216.2-49.1,261.6-80c16.4-11.1,38.7-7.5,50.3,8.5c11.8,16.3,21.8,36.9,14.2,53.4
				c-14.9,32.5,21.5,54.6,27.9,43.1c6.5-11.5,10.8-89.3,10.8-89.3s56.4,101.9,78.5,141.1c22.1,39.3,69.6,19.8,69.6,19.8
				S2068.2,2767.5,2009.8,2696.1z"/>
			
				<linearGradient id="SVGID_10_" gradientUnits="userSpaceOnUse" x1="918.9137" y1="3212.7991" x2="-285.0158" y2="4088.385" gradientTransform="matrix(0.9593 -0.2825 0.2825 0.9593 -256.1354 -882.4834)">
				<stop  offset="0" style="stop-color:#58FFFF"/>
				<stop  offset="1" style="stop-color:#3D8CFF"/>
			</linearGradient>
			<path fill="url(#SVGID_10_)" d="M812.7,1933.7c0,0,250-197,905.9,83.2c0,0,70.9,78.2,46.8,173.6
				c-24.2,95.3-365.7,625.8-364.1,863.7c0,0-246.8,169-590.9,41.9C810.3,3096.1,655.4,2478.2,812.7,1933.7z"/>
			
				<linearGradient id="SVGID_11_" gradientUnits="userSpaceOnUse" x1="654.9805" y1="3063.825" x2="1010.231" y2="3063.825" gradientTransform="matrix(0.9593 -0.2825 0.2825 0.9593 -256.1354 -882.4834)">
				<stop  offset="0" style="stop-color:#FEFFFF"/>
				<stop  offset="1" style="stop-color:#F9C5F4"/>
			</linearGradient>
			<path fill="url(#SVGID_11_)" d="M1343.2,1667.4l-89.7,210.3c-8.9,20.9-5.1,45.1,10.3,61.9c31,33.8,93.9,77.8,193.5,39.8
				c29.6-11.3,51.1-37.5,56.3-68.8l38.2-230.4L1343.2,1667.4z"/>
			
				<linearGradient id="SVGID_12_" gradientUnits="userSpaceOnUse" x1="746.2551" y1="2975.407" x2="-457.6706" y2="3850.9902" gradientTransform="matrix(0.9593 -0.2825 0.2825 0.9593 -256.1354 -882.4834)">
				<stop  offset="0" style="stop-color:#58FFFF"/>
				<stop  offset="1" style="stop-color:#3D8CFF"/>
			</linearGradient>
			<path fill="url(#SVGID_12_)" d="M806.6,2722.8c-72.4-124.3,173-521.3,173-521.3l-166.9-267.9c0,0-578.6,691.1-281.8,1022.4
				c42.6,47.5,88.9,75.9,137,89.9C679.9,2872.9,751.2,2774.1,806.6,2722.8z"/>
			<linearGradient id="SVGID_13_" gradientUnits="userSpaceOnUse" x1="477.3748" y1="1028.9603" x2="990.9457" y2="2831.4949">
				<stop  offset="0" style="stop-color:#58FFFF"/>
				<stop  offset="1" style="stop-color:#3D8CFF"/>
			</linearGradient>
			<path fill="url(#SVGID_13_)" d="M800.6,2722.7c-3.5,1-7.5-0.4-9.4-3.7c-74-127.1,163-513.3,173.1-529.7c2.4-3.8,7.4-5.1,11.3-2.7
				c3.9,2.4,5,7.5,2.7,11.3c-2.4,3.9-241.9,394.2-172.9,512.8c2.3,3.9,1,8.9-3,11.2C801.8,2722.2,801.2,2722.5,800.6,2722.7z"/>
			
				<linearGradient id="SVGID_14_" gradientUnits="userSpaceOnUse" x1="1056.2458" y1="3089.0154" x2="-303.7944" y2="5452.3647" gradientTransform="matrix(0.9977 -6.820000e-02 6.820000e-02 0.9977 -0.861 -188.153)">
				<stop  offset="0" style="stop-color:#FEFFFF"/>
				<stop  offset="1" style="stop-color:#F9C5F4"/>
			</linearGradient>
			<path fill="url(#SVGID_14_)" d="M1388.3,2709.2c-44.4,12.3-85.7,34.4-130.3,45.7c-49.5,12.6-98.5,27.4-148.4,38.7
				c-77.6,17.5-179.7,37.5-247.9-15.8c-5.7-4.5-52-56.7-55.2-54.9c-123.7,71.5-147.8,238.6-147.8,319.6
				c225.6,123.4,580.4-116.9,676-187.1c15.7-11.5,35.2-16.6,54.5-13.9c39.1,5.4,106.5,12.6,142,4.6c52-11.7,140.1,168.4,221.3,105.5
				C1752.5,2951.5,1657.6,2634.5,1388.3,2709.2z"/>
			<g>
				
					<linearGradient id="SVGID_15_" gradientUnits="userSpaceOnUse" x1="1719.2094" y1="1509.53" x2="1280.9944" y2="1844.8313" gradientTransform="matrix(0.9938 0.1109 -0.1109 0.9938 91.6371 -164.8157)">
					<stop  offset="0" style="stop-color:#FEFFFF"/>
					<stop  offset="1" style="stop-color:#F9C5F4"/>
				</linearGradient>
				<path fill="url(#SVGID_15_)" d="M1634,1370.2c0,0,56.7,183.5,51.5,275.9c-5.1,92.4,8,154.2-100.3,160.9
					c-108.3,6.7-191.8-56.2-230.1-153.1c0,0-60.2-149.5-36.7-205.3C1341.9,1392.7,1634,1370.2,1634,1370.2z"/>
				
					<linearGradient id="SVGID_16_" gradientUnits="userSpaceOnUse" x1="1411.3358" y1="1244.8407" x2="1808.1642" y2="1755.7563" gradientTransform="matrix(0.9938 0.1109 -0.1109 0.9938 91.6371 -164.8157)">
					<stop  offset="0" style="stop-color:#3081FF"/>
					<stop  offset="1" style="stop-color:#1A5AD6"/>
				</linearGradient>
				<path fill="url(#SVGID_16_)" d="M1398.8,1592.1l13.4,1.5c0,0-42.7-119.6,8.2-134.2c50.8-14.5,247.8-32.3,296.9-96
					c47.4-61.4,21.2-150.5-29.6-180.2c-3.2-1.9-7.4-0.7-9.5,2.3l-5.4,7.9c-3.7,5.4-12,3.6-13.2-2.8l0,0c-1.1-6.1-8.9-8.3-12.7-3.4
					c-15,19-53.1,48.4-147.4,55.1c-133.7,9.6-226.3,52.9-238.5,143.3c-0.8,5.7-7.3,8.2-11.8,4.7c-9-7-24.2-11.5-46.8,3.6
					c-39.4,26.2-33.4,106.4,38.3,179.7c3.4,3.5,2.7,9.3-1.6,11.5c-15.3,7.7-39.1,27.5,12.8,63.2c53.1,36.5,86.9,36.9,99.9,35.1
					c3.5-0.5,6.1-3.3,6.3-6.9l4-80.8c0.2-4.2,3.9-7.3,8.1-6.9L1398.8,1592.1z"/>
				
					<linearGradient id="SVGID_17_" gradientUnits="userSpaceOnUse" x1="1664.8522" y1="1438.498" x2="1226.6376" y2="1773.7991" gradientTransform="matrix(0.9938 0.1109 -0.1109 0.9938 91.6371 -164.8157)">
					<stop  offset="0" style="stop-color:#FEFFFF"/>
					<stop  offset="1" style="stop-color:#F9C5F4"/>
				</linearGradient>
				<path fill="url(#SVGID_17_)" d="M1400.2,1609.3c0,0-16.6-115-70.2-89.3c-53.6,25.8,12,128.2,51.9,136.8L1400.2,1609.3z"/>
			</g>
			
				<linearGradient id="SVGID_18_" gradientUnits="userSpaceOnUse" x1="12822.6523" y1="3602.8091" x2="12126.1904" y2="3793.6912" gradientTransform="matrix(-1.053 -3.420000e-02 -3.250000e-02 0.9995 14684.6182 -332.1961)">
				<stop  offset="0" style="stop-color:#3081FF"/>
				<stop  offset="1" style="stop-color:#1A5AD6"/>
			</linearGradient>
			<path fill="url(#SVGID_18_)" d="M1224.2,3057.7c0.7,0,1.4,0,2.1,0l910.5-14.1c22.5-0.3,40.4-17.9,40-39.3
				c-0.4-21.4-19.1-38.8-41.6-38.1l-910.5,14.1c-22.5,0.3-40.4,17.9-40,39.3C1185.2,3040.4,1202.7,3057,1224.2,3057.7z"/>
		</g>
		<g>
			<g>
				<g>
					<linearGradient id="SVGID_19_" gradientUnits="userSpaceOnUse" x1="1562.6829" y1="1475.1526" x2="1220.2841" y2="1936.1593">
						<stop  offset="0" style="stop-color:#58FFFF"/>
						<stop  offset="1" style="stop-color:#3D8CFF"/>
					</linearGradient>
					<path fill="url(#SVGID_19_)" d="M1578.6,1724.8c-162.2,13.8-294.9-113.3-295.9-115.2V1581c0.9,1.8,140.7,143,294.9,129.9
						L1578.6,1724.8z"/>
				</g>
				<linearGradient id="SVGID_20_" gradientUnits="userSpaceOnUse" x1="1696.5541" y1="1596.8741" x2="1492.9053" y2="1863.1837">
					<stop  offset="0" style="stop-color:#58FFFF"/>
					<stop  offset="1" style="stop-color:#3D8CFF"/>
				</linearGradient>
				<path fill="url(#SVGID_20_)" d="M1644.8,1717.7c0,10.8-7.8,19.5-17.4,19.5h-46.4c-9.6,0-17.4-8.8-17.4-19.5l0,0
					c0-10.8,7.8-19.5,17.4-19.5h46.4C1637,1698.2,1644.8,1706.9,1644.8,1717.7L1644.8,1717.7z"/>
			</g>
			<g>
				
					<linearGradient id="SVGID_21_" gradientUnits="userSpaceOnUse" x1="2040.0468" y1="1360.3293" x2="522.5144" y2="1611.0518" gradientTransform="matrix(0.9856 -0.1691 0.1691 0.9856 -316.3687 156.5187)">
					<stop  offset="0" style="stop-color:#58FFFF"/>
					<stop  offset="1" style="stop-color:#3D8CFF"/>
				</linearGradient>
				<path fill="url(#SVGID_21_)" d="M1365.6,1436.9c0,0-37-197.7,191.5-198.8c3.2,0,3.7-4.5,0.6-5.3
					c-62.6-14.4-244.3-35.8-247,201.4C1345.5,1446.8,1365.6,1436.9,1365.6,1436.9z"/>
				
					<linearGradient id="SVGID_22_" gradientUnits="userSpaceOnUse" x1="1705.5494" y1="1604.1805" x2="754.7117" y2="1761.2753" gradientTransform="matrix(0.9856 -0.1691 0.1691 0.9856 -316.3687 156.5187)">
					<stop  offset="0" style="stop-color:#58FFFF"/>
					<stop  offset="1" style="stop-color:#3D8CFF"/>
				</linearGradient>
				<path fill="url(#SVGID_22_)" d="M1323.8,1412.8c-89.2,18.1-78.2,130.9-78.2,130.9c-6.4,81.8,17.5,122.4,48.1,141.7
					c20.9,13.2,47.2,14.4,69.3,3.3c22.1-11.1,36.7-33,38.5-57.7c1.6-22.3,3.5-43.4,5.2-51
					C1410.6,1561.8,1412.9,1394.7,1323.8,1412.8z"/>
			</g>
			<linearGradient id="SVGID_23_" gradientUnits="userSpaceOnUse" x1="1246.1046" y1="1363.1998" x2="1623.7299" y2="2289.6423">
				<stop  offset="0" style="stop-color:#58FFFF"/>
				<stop  offset="1" style="stop-color:#3D8CFF"/>
			</linearGradient>
			<path fill="url(#SVGID_23_)" d="M1332,1441.3c-18.5-3.2-36.8,6.6-44.2,23.9c-53.3,123.5,12.1,203.8,44.3,205.5
				c33.9,1.8,33.2-161.1,26-202.9C1355,1450.2,1343.9,1443.4,1332,1441.3z"/>
		</g>
	</g>
	<g>
		<linearGradient id="SVGID_24_" gradientUnits="userSpaceOnUse" x1="1857.5913" y1="3509.1255" x2="1896.4253" y2="2654.7888">
			<stop  offset="0" style="stop-color:#3081FF"/>
			<stop  offset="1" style="stop-color:#1A5AD6"/>
		</linearGradient>
		<path fill="url(#SVGID_24_)" d="M493.8,3088.8c-1.5-11.2,0.5-22.9,5.6-31.7c5.1-8.8,12.7-14,20.7-14h2709.5
			c10.5,0,20.3,7.7,26,20.4c5.7,12.7,6.4,28.6,2,42.3l-29.4,91c-6.7,20.8-21.3,34.2-37.3,34.2H538.7c-14.9,0-27.7-15.1-30.6-36.1
			L493.8,3088.8z"/>
		<path fill="#FFFFFF" d="M3190.9,3234.4H538.7c-16.6,0-30.8-16.4-33.9-39l-14.3-106.1c-1.6-12,0.6-24.3,6.1-33.8
			c5.7-9.9,14.3-15.6,23.6-15.6h2709.5c11.9,0,22.8,8.4,29,22.4c6,13.5,6.8,30.2,2.1,44.7l-29.4,91
			C3224.3,3220.1,3208.4,3234.4,3190.9,3234.4z M497.1,3088.4l14.3,106.1c2.6,19.2,14.1,33.2,27.2,33.2h2652.2
			c14.5,0,27.9-12.5,34.1-31.9l29.4-91c4.2-13,3.5-27.9-1.9-39.9c-5.1-11.5-13.7-18.4-22.9-18.4H520.1c-6.8,0-13.3,4.5-17.8,12.3
			C497.6,3067,495.7,3077.8,497.1,3088.4z"/>
	</g>
	<g>
		<g>
			<linearGradient id="SVGID_25_" gradientUnits="userSpaceOnUse" x1="2408.6997" y1="2054.3706" x2="2700.9795" y2="2801.7698">
				<stop  offset="0" style="stop-color:#3081FF"/>
				<stop  offset="1" style="stop-color:#1A5AD6"/>
			</linearGradient>
			<path fill="url(#SVGID_25_)" d="M1926.6,2009.2c-15.3,125.1-84.2,633.2-103.9,778.3c-2.8,20.4,13.4,38.4,34,37.8l1168-33.4
				c15.3-0.4,28.3-11.2,31.6-26.1l181.7-818.2c4.8-21.6-12.4-41.9-34.5-40.6l-1245.7,73C1941.6,1980.9,1928.5,1993.2,1926.6,2009.2z
				"/>
			<path fill="#FFFFFF" d="M1855.8,2828.7c-10.4,0-20.4-4.4-27.4-12.2c-7.2-8-10.5-18.7-9.1-29.4c20.5-151,88.6-653.5,103.9-778.3
				l0,0c2.2-17.6,16.6-31.2,34.3-32.2l1245.7-73c11.6-0.7,22.6,4,30.1,12.9c7.5,8.8,10.4,20.4,7.9,31.8l-181.7,818.2
				c-3.7,16.4-18,28.3-34.8,28.8l-1168,33.4C1856.5,2828.7,1856.1,2828.7,1855.8,2828.7z M1929.9,2009.6
				c-15.3,124.8-83.4,627.3-103.9,778.4c-1.2,8.7,1.5,17.5,7.4,24c5.9,6.6,14.3,10.2,23.2,9.9l1168-33.4
				c13.8-0.4,25.5-10.1,28.5-23.5l181.7-818.2c2.1-9.3-0.3-18.7-6.5-26c-6.2-7.2-15.1-11.1-24.6-10.5l-1245.7,73
				C1943.5,1984.1,1931.7,1995.2,1929.9,2009.6L1929.9,2009.6z"/>
		</g>
		<g>
			<linearGradient id="SVGID_26_" gradientUnits="userSpaceOnUse" x1="2373.5039" y1="2351.5037" x2="2540.5215" y2="3378.6565">
				<stop  offset="0" style="stop-color:#3081FF"/>
				<stop  offset="1" style="stop-color:#1A5AD6"/>
			</linearGradient>
			<path fill="url(#SVGID_26_)" d="M2396,2522.3l-172.6,489.9l401.4,8.5l33.4-495.5c1.6-23.3-17.7-42.6-41-41l-187.4,12.4
				C2414.4,2497.7,2401.2,2507.8,2396,2522.3z"/>
			<path fill="#FFFFFF" d="M2627.9,3024.2l-3.2-0.1l-406-8.6l174.2-494.3c5.6-15.8,20-26.7,36.7-27.9l187.4-12.4
				c12-0.8,23.9,3.6,32.4,12.2c8.5,8.5,13,20.4,12.2,32.4L2627.9,3024.2z M2228.1,3009l393.5,8.3l33.2-492.3
				c0.7-10.1-3-20-10.2-27.2c-7.2-7.2-17.1-10.9-27.2-10.2L2430,2500c-14,0.9-26.1,10.1-30.8,23.4L2228.1,3009z"/>
		</g>
		<g>
			<linearGradient id="SVGID_27_" gradientUnits="userSpaceOnUse" x1="2298.313" y1="2948.991" x2="2791.0122" y2="3271.8896">
				<stop  offset="0" style="stop-color:#3081FF"/>
				<stop  offset="1" style="stop-color:#1A5AD6"/>
			</linearGradient>
			<path fill="url(#SVGID_27_)" d="M2060.7,3019.2L2060.7,3019.2c-4.4,13.5,5.6,27.3,19.8,27.3h628.6c11.5,0,20.8-9.3,20.8-20.8v-27
				c0-11.9-9.9-21.3-21.7-20.8l-628.6,27C2070.9,3005.2,2063.4,3011,2060.7,3019.2z"/>
			<path fill="#FFFFFF" d="M2709.1,3049.9h-628.6c-7.9,0-15-3.6-19.6-10c-4.6-6.4-5.8-14.3-3.4-21.7l0,0c3.1-9.5,11.9-16.2,22-16.6
				l628.6-27c6.7-0.3,13,2.1,17.8,6.7c4.8,4.6,7.5,10.8,7.5,17.5v27C2733.3,3039,2722.4,3049.9,2709.1,3049.9z M2709.1,2981.3
				c-0.3,0-0.5,0-0.8,0l-628.6,27c-7.2,0.3-13.6,5.1-15.9,12l0,0c-1.8,5.4-0.9,11.1,2.5,15.7c3.3,4.6,8.5,7.2,14.2,7.2h628.6
				c9.6,0,17.5-7.8,17.5-17.5v-27c0-4.8-1.9-9.3-5.4-12.6C2717.9,2983,2713.6,2981.3,2709.1,2981.3z"/>
		</g>
		<path fill="#FFFFFF" d="M1908.9,2526.1l-8.3-1l57.4-452.6c3.6-28.1,26.6-49.7,54.9-51.4l1076.5-65l0.5,8.3l-1076.5,65
			c-24.2,1.5-44,20-47.1,44.1L1908.9,2526.1z"/>
		
			<rect x="1832.9" y="2699.3" transform="matrix(0.1251 -0.9921 0.9921 0.1251 -1035.39 4232.7788)" fill="#FFFFFF" width="98.8" height="8.4"/>
	</g>
	<g display="none">
		<linearGradient id="SVGID_28_" gradientUnits="userSpaceOnUse" x1="2185.8936" y1="1308.2235" x2="2961.2859" y2="386.8149">
			<stop  offset="0" style="stop-color:#58FFFF"/>
			<stop  offset="1" style="stop-color:#3D8CFF"/>
		</linearGradient>
		<path display="inline" fill="url(#SVGID_28_)" d="M2281.7,807.2v252c0,29.9,23.5,54.6,53.4,56l315.1,14.8c32,1.5,58.7-24,58.7-56
			V807.2c0-31-25.1-56.1-56.1-56.1h-315.1C2306.8,751.1,2281.7,776.2,2281.7,807.2z"/>
		<g display="inline">
			<g>
				<g>
					<g>
						<g>
							<g>
								<path fill="#FFFFFF" d="M2401.9,875l-12.3-45.5l-35.9-19.6l-4.8,8.8l32.1,17.3l38.3,140.3l1.2,4.2h156.2
									c15.2,0,29.2-7.5,37.5-20.2l7-9.2c7.5-11.7,12.5-25.1,12.5-39V875H2401.9z M2622.4,912.1c0,12-3.8,23.6-10.3,33.6l-6.2,10.4
									c-6.4,9.9-17.4,16.9-29.2,16.9h-148.5l-8.1-30l-15.4-56.7h217.7V912.1z"/>
							</g>
							<g>
								<path fill="#FFFFFF" d="M2612.6,1031.5c0,2.8-2.3,5.7-5,5.7h-183.2c-2.8,0-5.6-4.3-5.6-7.1v-86.4c0-1,0.6-0.8,1-1.5
									l8.4,30.9h1.9v52.8h177.6C2610.4,1025.8,2612.6,1028.7,2612.6,1031.5z"/>
							</g>
						</g>
						<g>
							<rect x="2510.9" y="880" fill="#FFFFFF" width="6.7" height="94.1"/>
							<g>
								<rect x="2451.8" y="880" fill="#FFFFFF" width="6.7" height="94.1"/>
								<rect x="2568.6" y="880" fill="#FFFFFF" width="6.7" height="94.1"/>
							</g>
						</g>
						<g>
							<rect x="2407.2" y="907.7" fill="#FFFFFF" width="217.6" height="6"/>
							<rect x="2416.7" y="940.4" fill="#FFFFFF" width="202.6" height="6"/>
						</g>
					</g>
					<path fill="#FFFFFF" d="M2447.8,1043.6c-11.9,0-21.6,9.7-21.6,21.6c0,11.9,9.7,21.6,21.6,21.6c11.9,0,21.6-9.7,21.6-21.6
						C2469.5,1053.3,2459.8,1043.6,2447.8,1043.6z M2447.8,1078.3c-7.2,0-13-5.8-13-13c0-7.2,5.8-13,13-13c7.2,0,13,5.8,13,13
						C2460.9,1072.4,2455,1078.3,2447.8,1078.3z"/>
					<path fill="#FFFFFF" d="M2582.1,1043.6c-11.9,0-21.6,9.7-21.6,21.6c0,11.9,9.7,21.6,21.6,21.6c11.9,0,21.6-9.7,21.6-21.6
						C2603.7,1053.3,2594,1043.6,2582.1,1043.6z M2582.1,1078.3c-7.2,0-13-5.8-13-13c0-7.2,5.8-13,13-13c7.2,0,13,5.8,13,13
						C2595.1,1072.4,2589.3,1078.3,2582.1,1078.3z"/>
				</g>
				<path fill="#FFFFFF" d="M2376,818.7c0,5.6-4.5,10.2-10.2,10.2h-33.8c-5.6,0-10.2-4.5-10.2-10.2l0,0c0-5.6,4.5-10.2,10.2-10.2
					h33.8C2371.5,808.5,2376,813.1,2376,818.7L2376,818.7z"/>
			</g>
		</g>
	</g>
	<g>
		<linearGradient id="SVGID_29_" gradientUnits="userSpaceOnUse" x1="2196.5867" y1="-60.4593" x2="1247.9457" y2="1789.9775">
			<stop  offset="0" style="stop-color:#58FFFF"/>
			<stop  offset="1" style="stop-color:#3D8CFF"/>
		</linearGradient>
		<path fill="url(#SVGID_29_)" d="M1598.6,515.9v270.3c0,32.1,25.2,58.6,57.3,60.1l338,15.9c34.3,1.6,63-25.7,63-60.1V515.9
			c0-33.2-26.9-60.1-60.1-60.1h-338C1625.6,455.8,1598.6,482.7,1598.6,515.9z"/>
		<g>
			<path fill="#FFFFFF" d="M1944.8,781.3h-232.9c-17.5,0-31.7-14.2-31.7-31.7V579.3c0-17.5,14.2-31.7,31.7-31.7h232.9
				c17.5,0,31.7,14.2,31.7,31.7v170.3C1976.4,767.1,1962.2,781.3,1944.8,781.3z M1711.8,568.5c-6,0-10.8,4.8-10.8,10.8v170.3
				c0,6,4.8,10.8,10.8,10.8h232.9c6,0,10.8-4.8,10.8-10.8V579.3c0-6-4.8-10.8-10.8-10.8H1711.8z"/>
			<path fill="#FFFFFF" d="M1828.5,668.2c-2.1,0-4.2-0.6-6-1.9L1692,573.7c-4.7-3.3-5.8-9.8-2.5-14.5c3.3-4.7,9.8-5.8,14.5-2.5
				l124.5,88.3l122.9-87.3c4.7-3.3,11.2-2.2,14.5,2.5c3.3,4.7,2.2,11.2-2.5,14.5l-128.9,91.5
				C1832.7,667.6,1830.6,668.2,1828.5,668.2z"/>
			<path fill="#FFFFFF" d="M1699.6,774l-3-20.6l1.4,10.3l-8.7-5.7c2.4-3.9,49.5-86.2,80.5-140.6c2.9-5,9.2-6.8,14.2-3.9
				c5,2.9,6.7,9.2,3.9,14.2c0,0-20.1,35.3-40.3,70.5c-10.1,17.6-20.2,35.3-27.8,48.5C1704.7,773.2,1704.7,773.2,1699.6,774z"/>
			<path fill="#FFFFFF" d="M1956.6,774c-5-0.8-5-0.8-20.2-27.2c-7.6-13.2-17.7-30.9-27.8-48.5c-20.2-35.3-40.3-70.5-40.3-70.5
				c-2.9-5-1.1-11.4,3.9-14.2c5-2.9,11.4-1.1,14.2,3.9c31,54.4,78.1,136.7,80.5,140.6l-8.7,5.7L1956.6,774z"/>
		</g>
	</g>
	<g display="none">
		<linearGradient id="SVGID_30_" gradientUnits="userSpaceOnUse" x1="3197.9517" y1="1009.9882" x2="2569.6067" y2="1923.9453">
			<stop  offset="0" style="stop-color:#58FFFF"/>
			<stop  offset="1" style="stop-color:#3D8CFF"/>
		</linearGradient>
		<path display="inline" fill="url(#SVGID_30_)" d="M2672.9,1354.7v237.7c0,28.2,22.2,51.5,50.4,52.8l297.3,14
			c30.2,1.4,55.4-22.6,55.4-52.8v-251.7c0-29.2-23.7-52.9-52.9-52.9h-297.3C2696.6,1301.8,2672.9,1325.5,2672.9,1354.7z"/>
		<path display="inline" fill="#FFFFFF" d="M2749,1640.4c-4.3,0-8.3-1.3-11.3-4.1l-8.6-7.9c-4.2-3.8-5.9-9.7-4.9-16.5
			c1-6.5,4.3-13.1,9.4-18.7l5.7-6.3c0.4-0.4,0.8-0.9,1.2-1.3l107.2-107.2c1-1,2.7-1,3.7,0c1,1,1,2.7,0,3.7l-107.2,107.2
			c-0.4,0.4-0.7,0.7-1.1,1.1l-5.7,6.3c-4.4,4.8-7.3,10.4-8.1,15.9c-0.8,5,0.4,9.3,3.2,11.9l8.6,7.9c6,5.5,18.5,2.2,27.2-7.3l5.7-6.3
			c0.4-0.4,0.7-0.8,1-1.2l85.6-101.8c0.9-1.1,2.6-1.3,3.7-0.3c1.1,0.9,1.3,2.6,0.3,3.7l-85.6,101.8c-0.4,0.5-0.8,0.9-1.2,1.4
			l-5.7,6.3C2765.5,1636.2,2756.6,1640.4,2749,1640.4z M2751.6,1623.5c-2.9,0-5.6-0.9-7.6-2.7c-6-5.5-4-17,4.6-26.3
			c3.9-4.3,8.6-7.4,13.2-8.8c5.1-1.5,9.6-0.9,12.6,1.9c3,2.8,4.1,7.2,3,12.4c-1,4.7-3.7,9.7-7.6,13.9
			C2764.2,1620.1,2757.3,1623.5,2751.6,1623.5z M2766.9,1590.2c-1.3,0-2.6,0.3-3.6,0.6c-3.7,1.1-7.6,3.7-10.9,7.3
			c-6.2,6.8-8.5,15.6-4.9,18.9c3.2,2.9,11.5,1,18.4-6.5v0c3.3-3.6,5.5-7.6,6.3-11.4c0.4-1.9,0.8-5.4-1.4-7.4
			C2769.7,1590.5,2768.3,1590.2,2766.9,1590.2z M2900.4,1475.6c-0.6,0-1.2-0.2-1.7-0.6c-1.1-0.9-1.3-2.6-0.3-3.7l30.9-36.7l1.9,1.2
			c24.1,14.6,52.9,10.6,71.8-10c12.2-13.3,18.2-31.1,16.3-48.7c-0.3-2.4-1.8-4.2-4.1-5c-1.8-0.6-4.5-0.5-6.4,1.7l-33.3,36.3
			c-2.9,3.2-7.2,4.8-11.5,4.5l-17.9-1.5c-6.3-0.5-11.5-5.3-12.5-11.5l-3.1-17.7c-0.7-4.2,0.6-8.6,3.5-11.8l33.3-36.3
			c2-2.1,1.9-4.8,1.1-6.5c-0.9-2.2-2.9-3.6-5.3-3.6c-17.7-0.3-34.9,7.1-47.1,20.4c-18.9,20.6-20.4,49.7-3.7,72.4l1.3,1.8l-40,40
			c-1,1-2.7,1-3.7,0c-1-1-1-2.7,0-3.7l36.8-36.8c-16.8-24.5-14.7-55.3,5.4-77.2c13.3-14.4,31.8-22.6,51.1-22.2
			c4.4,0.1,8.3,2.7,10.1,6.8c1.8,4.2,1,8.8-2.1,12.2l-33.3,36.3c-1.8,2-2.6,4.7-2.1,7.3l3.1,17.7c0.7,3.9,3.9,6.8,7.8,7.1l17.9,1.5
			c2.7,0.2,5.3-0.8,7.1-2.8l33.3-36.3c3.1-3.3,7.6-4.5,12-3.1c4.3,1.4,7.2,5,7.7,9.4c2,19.1-4.4,38.4-17.7,52.8
			c-20.1,22-50.6,26.7-76.5,12l-28,33.3C2901.9,1475.3,2901.2,1475.6,2900.4,1475.6z"/>
		<g display="inline">
			<path fill="#FFFFFF" d="M2980.8,1641.7c-0.7,0-1.4,0-2.1-0.1c-6.7-0.6-12.7-3.7-16.9-8.9l-99.5-121.8c-4.3-5.3-3.7-12.9,1.5-17.4
				l19.6-17.1c5.1-4.5,12.8-4.1,17.4,0.9l107.2,115.1c4.6,4.9,6.9,11.3,6.5,18c-0.3,6.7-3.3,12.8-8.4,17.2l-9.2,8.1
				C2992.3,1639.6,2986.7,1641.7,2980.8,1641.7z M2887.9,1481.7l-19.6,17.1c-2.2,2-2.5,5.3-0.6,7.6l99.5,121.8c3,3.7,7.3,6,12.1,6.4
				c4.8,0.4,9.4-1.1,13-4.3l9.2-8.1c3.6-3.1,5.7-7.5,6-12.3c0.2-4.8-1.4-9.3-4.7-12.8l-107.2-115.1
				C2893.5,1479.9,2890.2,1479.7,2887.9,1481.7L2887.9,1481.7z"/>
		</g>
		<path display="inline" fill="#FFFFFF" d="M2868.5,1495.7l-86.4-101c-1.4,0-2.6-0.5-3.7-1.3l-25.9-19.9c-0.7-0.5-1.3-1.2-1.7-2
			l-11.5-22.7c-1.4-2.8-0.5-6.3,2.1-8.6l6.5-5.6c2.6-2.3,6.3-2.7,8.8-0.9l21,14.5c0.7,0.5,1.3,1.1,1.7,1.8l16.8,27.8
			c0.9,1.5,1.1,3.2,0.7,5l89,99.9L2868.5,1495.7z M2784.3,1389.1l85,99.4l8.8-6.6l-87.5-98.3l0.9-1.6c0.3-0.6,0.4-1.2,0.2-1.5
			l-16.8-27.8c0-0.1-0.1-0.1-0.2-0.2l-21-14.5c-0.5-0.3-1.5-0.2-2.4,0.5l-6.5,5.6c-0.9,0.7-1.1,1.8-0.8,2.3l11.5,22.7
			c0,0.1,0.1,0.2,0.2,0.2l25.9,19.9c0.2,0.2,0.6,0.2,1.1,0.1L2784.3,1389.1z"/>
	</g>
	<g>
		<linearGradient id="SVGID_31_" gradientUnits="userSpaceOnUse" x1="1501.5138" y1="80.9707" x2="503.7716" y2="2027.1855">
			<stop  offset="0" style="stop-color:#58FFFF"/>
			<stop  offset="1" style="stop-color:#3D8CFF"/>
		</linearGradient>
		<path fill="url(#SVGID_31_)" d="M872.6,687.2v284.3c0,33.8,26.5,61.6,60.3,63.2l355.5,16.7c36.1,1.7,66.2-27.1,66.2-63.2v-301
			c0-34.9-28.3-63.2-63.2-63.2H935.9C900.9,623.9,872.6,652.2,872.6,687.2z"/>
		<g>
			<g>
				<g>
					<g>
						<path fill="#FFFFFF" d="M1126.8,862.6c0,25.3-1.8,50.6-6.2,75.5c-1.1,6.2-2.4,12.4-4,18.5c-1.6,6.1-3.4,12.2-5.5,18.1
							c-2.2,5.9-4.8,11.8-8.3,17.1c-1.8,2.6-3.8,5.2-6.2,7.3c-1.2,1-2.6,2-4.1,2.6c-1.5,0.7-3.1,1.1-4.7,1.1c-1.6,0-3.3-0.3-4.8-0.9
							c-1.5-0.6-2.9-1.5-4.2-2.5c-2.5-2-4.6-4.5-6.3-7.2c-3.6-5.3-6.2-11.1-8.4-17c-2.2-5.9-4-12-5.6-18.1c-1.6-6.1-2.9-12.3-4-18.5
							c-2.3-12.4-3.8-25-4.8-37.6c-1-12.6-1.5-25.2-1.6-37.9c0-6.3,0.1-12.6,0.4-18.9c0.2-6.3,0.6-12.6,1-18.9
							c0.9-12.6,2.3-25.2,4.4-37.6c1-6.2,2.2-12.4,3.7-18.6c1.5-6.1,3.2-12.3,5.3-18.2c1.1-3,2.2-5.9,3.5-8.8
							c1.3-2.9,2.8-5.7,4.5-8.4c1.7-2.7,3.7-5.2,6.2-7.2c1.2-1,2.6-1.9,4.1-2.5c1.5-0.6,3.1-0.9,4.7-0.8c1.6,0,3.2,0.4,4.7,1.1
							c1.5,0.7,2.8,1.5,4.1,2.5c2.5,2,4.5,4.5,6.3,7.1c3.6,5.2,6.3,11,8.7,16.8c2.3,5.9,4.3,11.9,6,18c1.7,6.1,3.1,12.3,4.3,18.5
							C1124.7,812.1,1126.7,837.4,1126.8,862.6z M1124.9,862.6c0-12.6-0.5-25.2-1.5-37.7c-1-12.5-2.6-25-4.9-37.4
							c-1.2-6.2-2.5-12.3-4.1-18.4c-1.6-6.1-3.5-12.1-5.7-18c-2.3-5.8-4.9-11.6-8.4-16.8c-1.8-2.6-3.8-5-6.1-7
							c-1.2-1-2.5-1.9-3.9-2.5c-1.4-0.6-2.9-1-4.4-1.1c-1.5,0-3.1,0.3-4.5,0.8c-1.4,0.6-2.7,1.4-3.9,2.4c-2.4,2-4.3,4.5-6,7.1
							c-1.7,2.6-3.1,5.4-4.4,8.3c-1.3,2.9-2.4,5.8-3.4,8.8c-2,5.9-3.6,12-5,18.2c-1.4,6.1-2.5,12.3-3.5,18.5
							c-1.9,12.4-3.2,25-4,37.5c-0.8,12.6-1.1,25.2-1.1,37.7c0,12.6,0.4,25.2,1.3,37.7c0.9,12.6,2.4,25.1,4.5,37.5
							c1.1,6.2,2.3,12.4,3.8,18.5c1.5,6.1,3.3,12.1,5.4,18c2.2,5.9,4.7,11.7,8.1,16.9c1.7,2.6,3.7,5,6.1,7c1.2,1,2.5,1.8,3.9,2.4
							c1.4,0.6,2.9,0.9,4.4,0.8c1.5,0,3-0.4,4.4-1.1c1.4-0.6,2.6-1.5,3.8-2.5c2.3-2,4.3-4.5,6-7.1c3.4-5.2,5.9-11,8-16.9
							c2.1-5.9,3.9-11.9,5.4-18.1c1.5-6.1,2.7-12.3,3.8-18.5c2.1-12.4,3.6-24.9,4.5-37.5C1124.5,887.8,1124.9,875.2,1124.9,862.6z"
							/>
					</g>
					<g>
						<path fill="#FFFFFF" d="M1087.4,1006.6c-1.9,0-3.9-0.4-5.8-1.2c-1.7-0.7-3.4-1.7-5.1-3c-2.5-2-4.8-4.6-7.1-8
							c-3.2-4.8-6-10.5-8.8-17.8c-2.1-5.6-4-11.6-5.7-18.5c-1.5-5.9-2.8-12.1-4.1-18.8c-2.2-11.9-3.8-24.3-4.9-38
							c-1-12.4-1.6-25.2-1.6-38.2c0-6.8,0.2-13.4,0.4-19.1c0.2-6.4,0.6-12.8,1.1-19.1c1-13.7,2.5-26.1,4.4-38
							c1.1-6.8,2.4-12.9,3.8-18.8c1.6-6.9,3.4-13,5.4-18.6c1.2-3.4,2.4-6.4,3.7-9.1c1.5-3.4,3.1-6.2,4.8-8.8c2.3-3.5,4.5-6,7-8.1
							c1.7-1.3,3.4-2.4,5.1-3c2-0.8,4.1-1.2,6.2-1.1c2,0.1,4,0.5,6,1.4c1.7,0.7,3.3,1.7,4.9,3c2.5,2,4.7,4.5,7,7.8
							c3.3,4.8,6.2,10.3,9.1,17.6c2.2,5.6,4.2,11.6,6.1,18.4c1.6,5.9,3.1,12.1,4.4,18.7c4.6,23.6,6.9,48.5,7,76.1v0
							c0,27.8-2.1,52.7-6.3,76.1c-1.2,6.7-2.5,12.9-4,18.8c-1.7,6.9-3.6,12.9-5.7,18.5c-2.8,7.4-5.5,13-8.7,17.8
							c-2.3,3.4-4.5,6-6.9,8.1c-1.6,1.4-3.2,2.4-4.9,3.2c-2.1,0.9-4.1,1.4-6.2,1.4C1087.7,1006.6,1087.5,1006.6,1087.4,1006.6z
							 M1085.5,727.4c-0.9,0-1.9,0.2-2.8,0.6c-1,0.4-2,1-3,1.9c-1.8,1.5-3.5,3.5-5.2,6.3c-1.4,2.3-2.8,4.8-4.1,7.8
							c-1.1,2.5-2.2,5.3-3.3,8.5c-1.8,5.3-3.4,11.1-4.9,17.8c-1.3,5.7-2.4,11.7-3.4,18.3c-1.8,11.6-3.1,23.8-3.9,37.2
							c-0.7,11.4-1.1,23.7-1,37.5c0,12.7,0.4,25.3,1.3,37.5c1,13.3,2.5,25.5,4.5,37.1c1.1,6.5,2.4,12.5,3.8,18.2
							c1.6,6.6,3.4,12.4,5.3,17.6c2.5,6.7,5,11.8,7.8,16.1c1.8,2.7,3.5,4.7,5.3,6.1c1,0.8,2,1.4,2.9,1.8c1,0.4,2,0.6,2.9,0.6
							c1,0,1.9-0.3,2.9-0.7c1-0.4,2-1.1,3-2c1.8-1.5,3.5-3.5,5.3-6.3c2.8-4.3,5.2-9.4,7.6-16.2c1.9-5.3,3.6-11.1,5.2-17.7
							c1.4-5.7,2.6-11.7,3.8-18.2c2-11.5,3.5-23.7,4.5-37.1c0.9-12.1,1.4-24.7,1.4-37.5v0c0-12.7-0.5-25.3-1.5-37.4
							c-1.1-13.3-2.7-25.5-4.9-37c-1.2-6.5-2.5-12.4-4.1-18.2c-1.7-6.5-3.6-12.3-5.6-17.6c-2.6-6.7-5.2-11.8-8-16
							c-1.9-2.7-3.6-4.7-5.4-6.2c-1-0.9-2.1-1.5-3.1-2c-1.1-0.5-2.1-0.7-3-0.8C1085.6,727.4,1085.5,727.4,1085.5,727.4z"/>
					</g>
				</g>
				<g>
					<g>
						<path fill="#FFFFFF" d="M1190.2,862.6c-0.1,16.3-2.2,32.5-6.5,48.2c-4.4,15.7-11.1,30.7-20.1,44.2
							c-4.5,6.8-9.6,13.1-15.4,18.9c-5.7,5.8-12,10.9-18.9,15.3c-6.9,4.3-14.3,7.8-22.1,10.1c-7.8,2.4-15.9,3.6-24,3.6
							c-8.1,0-16.2-1.2-24-3.6c-7.8-2.3-15.2-5.8-22.1-10.1c-6.9-4.3-13.2-9.5-18.9-15.3c-5.7-5.8-10.9-12.1-15.4-18.9
							c-9.1-13.5-15.7-28.6-20.2-44.2c-2.2-7.8-3.8-15.8-4.9-23.9c-1.1-8.1-1.6-16.2-1.6-24.4c0-8.1,0.6-16.3,1.7-24.4
							c1.1-8.1,2.7-16.1,4.9-23.9c4.4-15.7,11.1-30.7,20.2-44.2c4.5-6.7,9.7-13.1,15.4-18.8c5.7-5.8,12.1-10.9,18.9-15.2
							c6.9-4.3,14.3-7.7,22.1-10.1c7.8-2.3,15.8-3.6,23.9-3.6c8.1,0,16.2,1.2,23.9,3.6c7.8,2.3,15.2,5.8,22,10.1
							c6.9,4.3,13.2,9.5,18.9,15.2c5.7,5.8,10.8,12.1,15.4,18.9c9,13.5,15.7,28.6,20.1,44.2C1188.1,830.1,1190.1,846.4,1190.2,862.6
							z M1188.1,862.6c0-16.1-2-32.2-6.2-47.7c-4.2-15.5-10.6-30.5-19.5-43.9c-4.4-6.7-9.4-13.1-15-18.8c-5.6-5.8-11.8-11-18.6-15.3
							c-6.8-4.3-14.1-7.8-21.8-10.1c-7.7-2.3-15.7-3.6-23.7-3.6c-8,0-16,1.3-23.7,3.6c-7.7,2.3-15,5.8-21.8,10.1
							c-6.8,4.3-12.9,9.5-18.5,15.3c-5.6,5.8-10.6,12.1-15,18.8c-8.8,13.5-15.2,28.4-19.4,43.9c-2.1,7.8-3.6,15.7-4.7,23.6
							c-1,8-1.5,16-1.6,24c0,8,0.5,16.1,1.6,24c1,8,2.6,15.9,4.7,23.6c4.2,15.5,10.6,30.4,19.4,43.9c4.4,6.7,9.4,13,15,18.8
							c5.6,5.7,11.8,10.9,18.5,15.3c6.8,4.3,14.1,7.7,21.7,10.1c7.7,2.4,15.6,3.6,23.7,3.6c8,0,16-1.3,23.7-3.6
							c7.7-2.3,15-5.8,21.8-10.1c6.8-4.3,13-9.5,18.6-15.3c5.6-5.8,10.6-12.1,15-18.8c8.8-13.4,15.2-28.4,19.5-43.9
							C1186.1,894.8,1188.1,878.7,1188.1,862.6z"/>
					</g>
					<g>
						<path fill="#FFFFFF" d="M1083.4,1006.6c-8.4,0-16.9-1.3-25-3.7c-7.9-2.4-15.6-5.9-23-10.5c-6.9-4.4-13.5-9.7-19.6-15.8
							c-5.7-5.8-11.1-12.3-15.8-19.4c-9-13.4-15.9-28.7-20.6-45.3c-2.2-7.9-3.9-16.1-5-24.4c-1.1-8.1-1.6-16.5-1.7-24.8
							c0-8.4,0.6-16.8,1.7-24.9c1.1-8.3,2.8-16.5,5-24.4c4.7-16.6,11.7-31.9,20.7-45.3c4.8-7.1,10.1-13.6,15.8-19.4
							c6.1-6.1,12.7-11.4,19.6-15.8c7.3-4.6,15-8.1,22.9-10.5c8.2-2.5,16.6-3.7,25-3.7c8.4,0,16.8,1.3,25,3.8
							c7.9,2.4,15.6,5.9,22.9,10.5c6.9,4.3,13.5,9.7,19.5,15.8c5.7,5.8,11,12.3,15.8,19.4c9,13.4,15.9,28.6,20.6,45.2
							c4.3,15.6,6.6,32.2,6.7,49.2v0c-0.1,17-2.3,33.6-6.6,49.2c-4.7,16.6-11.6,31.9-20.6,45.3c-4.8,7.1-10.1,13.7-15.8,19.4
							c-6.1,6.1-12.6,11.4-19.5,15.8c-7.3,4.6-15,8.1-22.9,10.5C1100.2,1005.4,1091.8,1006.6,1083.4,1006.6z M1083.4,726.9
							c-7.6,0-15.2,1.2-22.6,3.5c-7.1,2.2-14.2,5.5-20.9,9.7c-6.2,4-12.2,8.9-17.9,14.8c-5.3,5.4-10.2,11.6-14.5,18.3
							c-8.2,12.6-14.6,27-18.9,42.9c-2,7.3-3.5,15.1-4.6,23.1c-1,7.7-1.5,15.6-1.5,23.6c0,7.9,0.5,15.9,1.6,23.6
							c1,8,2.6,15.8,4.6,23.1c4.3,15.8,10.7,30.2,19,42.8c4.4,6.7,9.3,12.8,14.5,18.3c5.7,5.8,11.7,10.8,17.9,14.7
							c6.6,4.2,13.7,7.5,20.8,9.7c7.4,2.3,15,3.4,22.6,3.5c7.6,0,15.2-1.2,22.6-3.5c7.2-2.2,14.2-5.4,20.9-9.7
							c6.2-3.9,12.2-8.9,17.9-14.7c5.3-5.4,10.2-11.6,14.6-18.2c8.3-12.6,14.7-27,19-42.8c4-14.8,6.1-30.5,6.1-46.7
							c0-16.2-2.1-31.9-6.1-46.7c-4.3-15.8-10.7-30.3-19-42.9c-4.4-6.7-9.3-12.8-14.6-18.3c-5.7-5.8-11.7-10.8-17.9-14.7
							c-6.7-4.2-13.7-7.5-20.9-9.7C1098.6,728.1,1091,726.9,1083.4,726.9z"/>
					</g>
				</g>
				<g>
					<g>
						<path fill="#FFFFFF" d="M958.6,807.1l32.1-0.3l32.1-0.1l64.2-0.1l64.2,0.1l32.1,0.2l32.1,0.3c0.1,0,0.1,0,0.1,0.1
							c0,0,0,0.1-0.1,0.1l-32.1,0.3l-32.1,0.2l-64.2,0.1l-64.2-0.1l-32.1-0.1l-32.1-0.3c-0.1,0-0.1-0.1-0.1-0.1
							C958.5,807.2,958.6,807.1,958.6,807.1z"/>
					</g>
					<g>
						<polygon fill="#FFFFFF" points="1087,811.6 990.7,811.3 957.1,811.1 954.8,808.8 954.8,807.2 954.9,803.6 958.6,803.4 
							1022.8,803 1087,802.9 1183.3,803.2 1219.1,803.5 1219.2,810.9 1215.4,811 1151.2,811.5 						"/>
					</g>
				</g>
				<g>
					<g>
						<path fill="#FFFFFF" d="M995.9,753.1c7.6-0.1,15.2-0.2,22.8-0.3l22.8-0.1c7.6-0.1,15.2-0.1,22.8-0.1l22.8,0l45.6,0.1l22.8,0.2
							c7.6,0.1,15.2,0.2,22.8,0.3c0.1,0,0.1,0,0.1,0c0,0.1,0,0.1-0.1,0.1c-7.6,0.1-15.2,0.2-22.8,0.3l-22.8,0.2L1087,754l-22.8,0
							c-7.6,0-15.2,0-22.8-0.1l-22.8-0.1c-7.6-0.1-15.2-0.1-22.8-0.3c-0.1,0-0.1-0.1-0.1-0.1C995.7,753.2,995.8,753.1,995.9,753.1z"
							/>
					</g>
					<g>
						<path fill="#FFFFFF" d="M1087,757.6l-28.7-0.1c-5.6,0-11.3,0-16.9-0.1l-30.4-0.2c-5.1-0.1-10.1-0.1-15.2-0.2l-3.6-0.1
							l-0.1-7.4l3.7-0.1c4.9-0.1,9.8-0.1,14.7-0.2l30.9-0.2c5.3,0,10.7-0.1,16.1-0.1l29.5-0.1l76.7,0.4c4.8,0.1,9.7,0.1,14.5,0.2
							l3.7,0.1l-0.2,7.4l-3.6,0.1c-5,0.1-10.1,0.1-15.2,0.2l-30.4,0.2L1087,757.6z"/>
					</g>
				</g>
				<g>
					<g>
						<path fill="#FFFFFF" d="M947.5,861.1l34.9-0.3l34.9-0.1l69.8-0.1l69.8,0.1l34.9,0.2l34.9,0.3c0.1,0,0.1,0,0.1,0.1
							c0,0,0,0.1-0.1,0.1l-34.9,0.3l-34.9,0.2l-69.8,0.1l-69.8-0.1l-34.9-0.1l-34.9-0.3c-0.1,0-0.1-0.1-0.1-0.1
							C947.4,861.1,947.4,861.1,947.5,861.1z"/>
					</g>
					<g>
						<polygon fill="#FFFFFF" points="1087,865.6 982.4,865.3 943.8,865 943.7,857.5 947.5,857.4 1017.2,857 1087,856.9 
							1191.7,857.2 1228.1,857.5 1230.4,859.7 1230.2,864.9 1226.6,865 1156.8,865.4 						"/>
					</g>
				</g>
				<g>
					<g>
						<path fill="#FFFFFF" d="M958.6,915l32.1-0.3l32.1-0.1l64.2-0.1l64.2,0.1l32.1,0.2l32.1,0.3c0.1,0,0.1,0,0.1,0
							c0,0.1,0,0.1-0.1,0.1l-32.1,0.3l-32.1,0.2l-64.2,0.1l-64.2-0.1l-32.1-0.1l-32.1-0.3c-0.1,0-0.1-0.1-0.1-0.1
							C958.5,915.1,958.6,915,958.6,915z"/>
					</g>
					<g>
						<polygon fill="#FFFFFF" points="1087,919.5 990.7,919.3 957.1,919 954.8,916.8 954.8,915.1 954.9,911.5 958.6,911.4 
							1022.8,911 1087,910.8 1183.3,911.1 1219.1,911.4 1219.2,918.9 1215.4,919 1151.2,919.4 						"/>
					</g>
				</g>
				<g>
					<g>
						<path fill="#FFFFFF" d="M1182.8,969.7h-182.3c-0.3,0-0.5-0.2-0.5-0.5s0.2-0.5,0.5-0.5h182.3c0.3,0,0.5,0.2,0.5,0.5
							S1183.1,969.7,1182.8,969.7z"/>
					</g>
					<g>
						<path fill="#FFFFFF" d="M1182.8,973.3h-182.3c-2.3,0-4.2-1.9-4.2-4.2c0-2.3,1.9-4.2,4.2-4.2h182.3c2.3,0,4.2,1.9,4.2,4.2
							C1186.9,971.5,1185.1,973.3,1182.8,973.3z"/>
					</g>
				</g>
			</g>
			<g>
				<path fill="#FFFFFF" d="M1087,1009.5c-82.7,0-149.9-66.5-149.9-148.3c0-81.8,67.3-148.3,149.9-148.3
					c82.7,0,149.9,66.5,149.9,148.3C1236.9,943,1169.7,1009.5,1087,1009.5z M1087,726.1c-75.4,0-136.8,60.6-136.8,135.1
					c0,74.5,61.4,135.1,136.8,135.1c75.4,0,136.8-60.6,136.8-135.1C1223.8,786.7,1162.4,726.1,1087,726.1z"/>
			</g>
		</g>
		<g>
			<path fill="#FFFFFF" d="M1231.1,741.3h-43v-11.1l14.3-20.2c3.9-5.6,6.6-9.7,8.1-12.4c1.5-2.7,2.5-5.3,3.2-7.7c0.7-2.5,1-5,1-7.7
				c0-3.1-0.7-5.4-2.1-6.9c-1.4-1.5-3.2-2.3-5.4-2.3c-1.9,0-3.8,0.5-5.4,1.5c-1.7,1-3.7,2.9-6.1,5.5l-8.3-8.8
				c3.8-4.4,7.4-7.3,10.7-9c3.3-1.6,6.9-2.4,10.7-2.4c6.5,0,11.5,1.9,15.2,5.7c3.6,3.8,5.5,9.1,5.5,15.9c0,3.1-0.3,6-1,8.7
				c-0.7,2.7-1.7,5.5-3,8.3c-1.3,2.8-3,5.6-5,8.6c-2,3-7.2,9.8-15.6,20.5v0.4h26.3V741.3z"/>
			<path fill="#FFFFFF" d="M1286.5,724.4h-8.1v16.9h-14.1v-16.9h-26.2v-12.1l24.3-51.3h16V712h8.1V724.4z M1264.3,712v-16.9l0.3-7.5
				l0.4-7.1h-0.4c-1.3,4-2.7,7.6-4.2,10.8l-9.7,20.7H1264.3z"/>
		</g>
	</g>
</g>
</svg>
