<?xml version="1.0" encoding="iso-8859-1"?>
<!-- Generator: Adobe Illustrator 16.0.0, SVG Export Plug-In . SVG Version: 6.00 Build 0)  -->
<!DOCTYPE svg PUBLIC "-//W3C//DTD SVG 1.1//EN" "http://www.w3.org/Graphics/SVG/1.1/DTD/svg11.dtd">
<svg version="1.1" id="Capa_1" xmlns="http://www.w3.org/2000/svg" xmlns:xlink="http://www.w3.org/1999/xlink" x="0px" y="0px"
	 width="29.569px" height="29.569px" viewBox="0 0 29.569 29.569" style="enable-background:new 0 0 29.569 29.569;"
	 xml:space="preserve">
<g>
	<g>
		<g>
			<path d="M29.49,5.073c-0.077-0.119-0.199-0.2-0.338-0.225l-0.01-0.001c-1.293,0.425-4.146,0.385-7.392-0.18
				s-5.94-1.492-7.016-2.329l-0.008-0.001c-0.139-0.024-0.282,0.011-0.394,0.097s-0.183,0.215-0.195,0.354l-0.411,4.674
				c0.119-0.018,0.237-0.039,0.357-0.039c0.513,0,1.005,0.155,1.425,0.451c0.428,0.3,0.745,0.727,0.916,1.212
				c0.301-0.221,0.755-0.374,1.274-0.395c0.928-0.035,1.697,0.361,1.717,0.884c0.021,0.522-0.718,0.975-1.646,1.009
				c-0.428,0.016-0.817-0.063-1.12-0.2l0.622,4.717c0.724-0.696,1.75-1.057,2.815-0.872c1.609,0.28,2.734,1.697,2.7,3.282
				c0,0.014-0.006,0.024-0.017,0.034c-0.01,0.008-0.022,0.012-0.035,0.009l-5.262-0.916l0.394,2.979
				c0.033,0.279,0.051,0.558,0.058,0.833c0.333,0.113,0.676,0.208,1.031,0.271c3.521,0.613,6.937-1.541,7.896-4.982l2.698-10.266
				C29.59,5.338,29.566,5.192,29.49,5.073z M25.414,11.334c-0.194,0.485-1.051,0.598-1.915,0.25
				c-0.861-0.347-1.401-1.021-1.208-1.506c0.195-0.484,1.053-0.597,1.915-0.25C25.068,10.175,25.609,10.849,25.414,11.334z"/>
			<path d="M14.561,9.843c-0.018-0.133-0.09-0.252-0.2-0.33c-0.082-0.058-0.178-0.087-0.276-0.087c-0.034,0-0.068,0.004-0.103,0.011
				l-0.008,0.002c-0.986,0.839-3.51,1.832-6.572,2.503C5.397,12.381,3.544,12.6,2.153,12.6c-0.733,0-1.337-0.062-1.768-0.182
				L0.377,12.42c-0.131,0.028-0.244,0.11-0.312,0.227c-0.068,0.116-0.083,0.255-0.044,0.383l2.989,9.646
				c0.908,2.77,3.484,4.563,6.292,4.563c0.47,0,0.946-0.05,1.422-0.154c3.321-0.729,5.551-3.854,5.159-7.23L14.561,9.843z
				 M4.044,17.723c-0.003-0.496,0.711-0.903,1.595-0.909c0.884-0.007,1.603,0.395,1.606,0.891c0.003,0.497-0.711,0.905-1.595,0.91
				C4.767,18.62,4.048,18.221,4.044,17.723z M10.075,24.123c-1.463,0.32-2.907-0.447-3.496-1.763
				c-0.021-0.049-0.021-0.104,0.003-0.152c0.024-0.049,0.068-0.082,0.121-0.094l5.594-1.228c0.052-0.011,0.106,0.001,0.148,0.035
				c0.042,0.033,0.066,0.084,0.067,0.137C12.528,22.5,11.537,23.803,10.075,24.123z M11.787,17.269
				c-0.806,0.364-1.625,0.294-1.83-0.159c-0.206-0.454,0.28-1.116,1.085-1.48c0.806-0.364,1.625-0.294,1.83,0.158
				C13.078,16.241,12.593,16.904,11.787,17.269z"/>
		</g>
	</g>
</g>
<g>
</g>
<g>
</g>
<g>
</g>
<g>
</g>
<g>
</g>
<g>
</g>
<g>
</g>
<g>
</g>
<g>
</g>
<g>
</g>
<g>
</g>
<g>
</g>
<g>
</g>
<g>
</g>
<g>
</g>
</svg>
