<svg id="Capa_1" enable-background="new 0 0 512 512" height="512" viewBox="0 0 512 512" width="512" xmlns="http://www.w3.org/2000/svg"><g><path d="m124.397 219.462-102.503 170.375c-5.874 9.763-2.721 22.438 7.042 28.312l95.46 57.432v-256.119z" fill="#ffdc00"/><path d="m483.064 93.848-95.461-57.432v256.119l102.503-170.375c5.873-9.763 2.72-22.439-7.042-28.312z" fill="#ffdc00"/><path d="m387.61 20.625v470.747c0 11.384-9.241 20.625-20.635 20.625h-66.119c-4.286-20.841-22.737-36.521-44.856-36.521s-40.58 15.68-44.866 36.521h-66.109c-11.394 0-20.635-9.241-20.635-20.625v-470.747c0-11.384 9.241-20.625 20.635-20.625h66.109c4.286 20.841 22.747 36.521 44.866 36.521s40.57-15.68 44.856-36.521h66.119c11.394 0 20.635 9.241 20.635 20.625z" fill="#fff0c0"/><path d="m387.606 472.804v18.567c0 11.388-9.242 20.629-20.63 20.629h-66.118c-4.291-20.846-22.744-36.524-44.859-36.524s-40.578 15.678-44.869 36.524h-66.107c-11.387 0-20.63-9.242-20.63-20.629v-18.567c0 11.388 9.242 20.629 20.63 20.629h49.531c9.428-24.755 33.378-42.352 61.445-42.352s52.007 17.597 61.435 42.352h49.542c11.388 0 20.63-9.241 20.63-20.629z" fill="#ffe394"/><path d="m105.83 464.41 18.567 11.17v-256.118l-18.567 30.86z" fill="#ffbf00"/><path d="m406.17 47.587-18.567-11.171v256.119l18.567-30.86z" fill="#ffbf00"/><path d="m266.75 128.337 15.29 25.778c1.755 2.959 4.652 5.064 8.008 5.818l29.241 6.576c9.261 2.082 12.912 13.321 6.644 20.449l-19.791 22.507c-2.272 2.583-3.378 5.989-3.059 9.414l2.782 29.842c.881 9.451-8.679 16.396-17.395 12.638l-27.522-11.868c-3.159-1.362-6.74-1.362-9.899 0l-27.522 11.868c-8.716 3.758-18.276-3.187-17.395-12.638l2.782-29.842c.319-3.425-.787-6.831-3.059-9.414l-19.791-22.507c-6.268-7.128-2.616-18.366 6.644-20.449l29.241-6.576c3.356-.755 6.253-2.859 8.008-5.818l15.29-25.778c4.845-8.164 16.661-8.164 21.503 0z" fill="#ffdc00"/><g><path d="m304.741 236.654c-2.729 5.759-9.736 8.956-16.27 6.139l-27.522-11.868c-3.159-1.362-6.74-1.362-9.899 0l-27.522 11.868c-6.534 2.817-13.541-.38-16.27-6.139l-1.125 12.067c-.881 9.451 8.679 16.396 17.395 12.638l27.522-11.868c3.159-1.362 6.74-1.362 9.899 0l27.522 11.868c8.716 3.758 18.276-3.187 17.395-12.638z" fill="#ffbf00"/></g><path d="m387.445 346.771h-10.302c-4.276 0-7.727 3.462-7.727 7.727s3.451 7.727 7.727 7.727h10.302c.051 0 .113 0 .165-.01v-15.433c-.051-.011-.113-.011-.165-.011zm-36.057 0h-10.302c-4.275 0-7.727 3.462-7.727 7.727s3.451 7.727 7.727 7.727h10.302c4.265 0 7.727-3.462 7.727-7.727-.001-4.266-3.462-7.727-7.727-7.727zm-36.058 0h-10.302c-4.275 0-7.727 3.462-7.727 7.727s3.451 7.727 7.727 7.727h10.302c4.265 0 7.727-3.462 7.727-7.727 0-4.266-3.462-7.727-7.727-7.727zm-36.057 0h-10.303c-4.275 0-7.727 3.462-7.727 7.727s3.451 7.727 7.727 7.727h10.302c4.265 0 7.727-3.462 7.727-7.727 0-4.266-3.461-7.727-7.726-7.727zm-36.058 0h-10.302c-4.275 0-7.727 3.462-7.727 7.727s3.451 7.727 7.727 7.727h10.302c4.265 0 7.727-3.462 7.727-7.727 0-4.266-3.462-7.727-7.727-7.727zm-36.058 0h-10.302c-4.275 0-7.727 3.462-7.727 7.727s3.451 7.727 7.727 7.727h10.302c4.265 0 7.727-3.462 7.727-7.727 0-4.266-3.462-7.727-7.727-7.727zm-36.057 0h-10.302c-4.275 0-7.727 3.462-7.727 7.727s3.451 7.727 7.727 7.727h10.302c4.265 0 7.727-3.462 7.727-7.727 0-4.266-3.462-7.727-7.727-7.727zm-36.058 0h-10.302c-.113 0-.237 0-.35.021v15.412c.113.021.237.021.35.021h10.302c4.265 0 7.727-3.462 7.727-7.727 0-4.266-3.462-7.727-7.727-7.727z" fill="#ffdc00"/></g></svg>