<?xml version="1.0" encoding="utf-8"?>
<!-- Generator: Adobe Illustrator 24.0.2, SVG Export Plug-In . SVG Version: 6.00 Build 0)  -->
<svg version="1.1" id="Capa_1" xmlns="http://www.w3.org/2000/svg" xmlns:xlink="http://www.w3.org/1999/xlink" x="0px" y="0px"
	 viewBox="0 0 512 512" enable-background="new 0 0 512 512" xml:space="preserve">
<g>
	<g display="none">
		<g display="inline">
			<g>
				<g>
					<g>
						<g>
							<circle fill="#E06A24" cx="256" cy="256" r="256"/>
						</g>
					</g>
				</g>
			</g>
		</g>
	</g>
	<path display="none" fill="#C53D0E" d="M512,256c0-4.5-0.1-9-0.4-13.5L435,165.9l-10.4,5.4L377,123.7l-3.2,29.7L314,93.7l-9.8,6.1
		L256,51.6l-35.8,110.3l76.2,76.2l-20.5,10.7L193,165.9l-9.5,6.4L135,123.7L99.2,234l157.1,157.1l-116.6,29.3l90.3,90.3
		c8.6,0.9,17.3,1.3,26.1,1.3C397.4,512,512,397.4,512,256L512,256z"/>
	<g>
		<path fill="#FECA00" d="M256,51.6l17.9,36.3l40.1,5.8L285,122l6.8,39.9L256,143l-35.8,18.8L227,122l-29-28.3l40.1-5.8L256,51.6z"
			/>
	</g>
	<g>
		<g>
			<path fill="#FECA00" d="M135,123.7l17.9,36.3l40.1,5.8l-29,28.3l6.8,39.9L135,215.2L99.2,234l6.8-39.9l-29-28.3l40.1-5.8
				L135,123.7z"/>
		</g>
		<g>
			<path fill="#FECA00" d="M377,123.7l17.9,36.3l40.1,5.8l-29,28.3l6.8,39.9L377,215.2L341.1,234l6.8-39.9l-29-28.3l40.1-5.8
				L377,123.7z"/>
		</g>
	</g>
	<g>
		<circle fill="#FFFFFF" cx="256" cy="251.2" r="59.6"/>
	</g>
	<g>
		<path fill="#E9ECF4" d="M315.6,251.2c0-32.9-26.7-59.6-59.6-59.6v119.3C288.9,310.8,315.6,284.1,315.6,251.2z"/>
	</g>
	<g>
		<path fill="#FFFFFF" d="M256,327.5c-56.8,0-104.4,39.7-116.4,92.9h232.8C360.4,367.2,312.8,327.5,256,327.5z"/>
	</g>
	<g>
		<path fill="#E9ECF4" d="M256,327.5v92.9h116.4C360.4,367.2,312.8,327.5,256,327.5z"/>
	</g>
</g>
</svg>
